<svg xmlns="http://www.w3.org/2000/svg" width="66.216" height="66.216" viewBox="0 0 66.216 66.216">
  <g id="Grupo_1021185" data-name="Grupo 1021185" transform="translate(-198 -2253)">
    <g id="Grupo_1021109" data-name="Grupo 1021109" transform="translate(-133 714)">
      <path id="Trazado_734791" data-name="Trazado 734791" d="M33.108,0A33.108,33.108,0,1,1,0,33.108,33.108,33.108,0,0,1,33.108,0Z" transform="translate(331 1539)" fill="#362b9e"/>
    </g>
    <g id="datos-binarios" transform="translate(211.757 2266.664)">
      <path id="Trazado_738202" data-name="Trazado 738202" d="M1,53.633v2.531a.633.633,0,0,0,.633.633H37.07a.633.633,0,0,0,.633-.633V53.633L37.07,53H1.633Z" transform="translate(0 -19.461)" fill="#d8ecfe"/>
      <path id="Trazado_738203" data-name="Trazado 738203" d="M35.076,47.633l2.626,3.8H1l2.626-3.8L4.164,47H34.539Z" transform="translate(0 -17.258)" fill="#8da6be"/>
      <path id="Trazado_738204" data-name="Trazado 738204" d="M1,42.633v2.531a.633.633,0,0,0,.633.633H37.07a.633.633,0,0,0,.633-.633V42.633L37.07,42H1.633Z" transform="translate(0 -15.422)" fill="#d8ecfe"/>
      <path id="Trazado_738205" data-name="Trazado 738205" d="M35.076,36.633l2.626,3.8H1l2.626-3.8L4.164,36H34.539Z" transform="translate(0 -13.219)" fill="#8da6be"/>
      <path id="Trazado_738206" data-name="Trazado 738206" d="M1,31.633v2.531a.633.633,0,0,0,.633.633H37.07a.633.633,0,0,0,.633-.633V31.633L37.07,31H1.633Z" transform="translate(0 -11.383)" fill="#d8ecfe"/>
      <path id="Trazado_738207" data-name="Trazado 738207" d="M7.961,19h-.6a1.266,1.266,0,0,0-1.04.545L1,27.226H37.7l-5.316-7.681A1.266,1.266,0,0,0,31.344,19Z" transform="translate(0 -6.977)" fill="#8da6be"/>
      <g id="Grupo_1021290" data-name="Grupo 1021290" transform="translate(9.226)">
        <path id="Trazado_738208" data-name="Trazado 738208" d="M22,3.8a.633.633,0,0,0,.633.633H23.9a.633.633,0,0,0,0-1.266V.633a.633.633,0,0,0-1.08-.447l-.633.633a.633.633,0,0,0,.447,1.08V3.164A.633.633,0,0,0,22,3.8Z" transform="translate(-16.938 0)" fill="#fd6930"/>
        <path id="Trazado_738209" data-name="Trazado 738209" d="M36,3.8a.633.633,0,0,0,.633.633H37.9a.633.633,0,1,0,0-1.266V.633a.633.633,0,0,0-1.08-.447l-.633.633a.633.633,0,0,0,.447,1.08V3.164A.633.633,0,0,0,36,3.8Z" transform="translate(-22.078 0)" fill="#fd6930"/>
        <path id="Trazado_738210" data-name="Trazado 738210" d="M42,3.8a.633.633,0,0,0,.633.633H43.9a.633.633,0,0,0,0-1.266V.633a.633.633,0,0,0-1.08-.447l-.633.633a.633.633,0,0,0,.447,1.08V3.164A.633.633,0,0,0,42,3.8Z" transform="translate(-24.281 0)" fill="#fd6930"/>
        <path id="Trazado_738211" data-name="Trazado 738211" d="M29.9,4.43a1.9,1.9,0,0,0,1.9-1.9V1.9a1.9,1.9,0,0,0-3.8,0v.633a1.9,1.9,0,0,0,1.9,1.9ZM29.266,1.9a.633.633,0,1,1,1.266,0v.633a.633.633,0,1,1-1.266,0Z" transform="translate(-19.141)" fill="#fd6930"/>
        <path id="Trazado_738212" data-name="Trazado 738212" d="M15.9,4.43a1.9,1.9,0,0,0,1.9-1.9V1.9a1.9,1.9,0,0,0-3.8,0v.633a1.9,1.9,0,0,0,1.9,1.9ZM15.266,1.9a.633.633,0,1,1,1.266,0v.633a.633.633,0,1,1-1.266,0Z" transform="translate(-14)" fill="#fd6930"/>
        <path id="Trazado_738213" data-name="Trazado 738213" d="M23.9,21.164V18.633a.633.633,0,0,0-1.08-.447l-.633.633a.633.633,0,0,0,.447,1.08v1.266a.633.633,0,1,0,0,1.266H23.9a.633.633,0,0,0,0-1.266Z" transform="translate(-16.938 -6.61)" fill="#fd6930"/>
        <path id="Trazado_738214" data-name="Trazado 738214" d="M37.9,21.164V18.633a.633.633,0,0,0-1.08-.447l-.633.633a.633.633,0,0,0,.447,1.08v1.266a.633.633,0,1,0,0,1.266H37.9a.633.633,0,1,0,0-1.266Z" transform="translate(-22.078 -6.61)" fill="#fd6930"/>
        <path id="Trazado_738215" data-name="Trazado 738215" d="M43.9,21.164V18.633a.633.633,0,0,0-1.08-.447l-.633.633a.633.633,0,0,0,.447,1.08v1.266a.633.633,0,1,0,0,1.266H43.9a.633.633,0,0,0,0-1.266Z" transform="translate(-24.281 -6.61)" fill="#fd6930"/>
        <path id="Trazado_738216" data-name="Trazado 738216" d="M29.9,18A1.9,1.9,0,0,0,28,19.9v.633a1.9,1.9,0,1,0,3.8,0V19.9A1.9,1.9,0,0,0,29.9,18Zm.633,2.531a.633.633,0,1,1-1.266,0V19.9a.633.633,0,1,1,1.266,0Z" transform="translate(-19.141 -6.61)" fill="#fd6930"/>
        <path id="Trazado_738217" data-name="Trazado 738217" d="M15.9,18A1.9,1.9,0,0,0,14,19.9v.633a1.9,1.9,0,1,0,3.8,0V19.9A1.9,1.9,0,0,0,15.9,18Zm.633,2.531a.633.633,0,1,1-1.266,0V19.9a.633.633,0,0,1,1.266,0Z" transform="translate(-14 -6.61)" fill="#fd6930"/>
        <path id="Trazado_738218" data-name="Trazado 738218" d="M35.9,13.43a.633.633,0,1,0,0-1.266V9.633a.633.633,0,0,0-1.08-.447l-.633.633a.633.633,0,0,0,.447,1.08v1.266a.633.633,0,1,0,0,1.266Z" transform="translate(-21.344 -3.305)" fill="#fd6930"/>
        <path id="Trazado_738219" data-name="Trazado 738219" d="M14,12.8a.633.633,0,0,0,.633.633H15.9a.633.633,0,0,0,0-1.266V9.633a.633.633,0,0,0-1.08-.447l-.633.633a.633.633,0,0,0,.447,1.08v1.266A.633.633,0,0,0,14,12.8Z" transform="translate(-14 -3.305)" fill="#fd6930"/>
        <path id="Trazado_738220" data-name="Trazado 738220" d="M21.9,13.43a.633.633,0,0,0,0-1.266V9.633a.633.633,0,0,0-1.08-.447l-.633.633a.633.633,0,0,0,.447,1.08v1.266a.633.633,0,1,0,0,1.266Z" transform="translate(-16.203 -3.305)" fill="#fd6930"/>
        <path id="Trazado_738221" data-name="Trazado 738221" d="M29.8,11.531V10.9a1.9,1.9,0,1,0-3.8,0v.633a1.9,1.9,0,0,0,3.8,0Zm-2.531,0V10.9a.633.633,0,1,1,1.266,0v.633a.633.633,0,1,1-1.266,0Z" transform="translate(-18.406 -3.305)" fill="#fd6930"/>
        <path id="Trazado_738222" data-name="Trazado 738222" d="M41.9,9A1.9,1.9,0,0,0,40,10.9v.633a1.9,1.9,0,1,0,3.8,0V10.9A1.9,1.9,0,0,0,41.9,9Zm.633,2.531a.633.633,0,1,1-1.266,0V10.9a.633.633,0,1,1,1.266,0Z" transform="translate(-23.547 -3.305)" fill="#fd6930"/>
      </g>
    </g>
  </g>
</svg>
