<svg xmlns="http://www.w3.org/2000/svg" width="66.216" height="66.216" viewBox="0 0 66.216 66.216">
  <g id="Grupo_1021187" data-name="Grupo 1021187" transform="translate(-198 -2253)">
    <g id="Grupo_1021109" data-name="Grupo 1021109" transform="translate(-133 714)">
      <path id="Trazado_734791" data-name="Trazado 734791" d="M33.108,0A33.108,33.108,0,1,1,0,33.108,33.108,33.108,0,0,1,33.108,0Z" transform="translate(331 1539)" fill="#362b9e"/>
    </g>
    <g id="codigo-binario" transform="translate(212.842 2267.841)">
      <path id="Trazado_738223" data-name="Trazado 738223" d="M35.273,0H1.26A1.264,1.264,0,0,0,0,1.26V27.715a1.264,1.264,0,0,0,1.26,1.26H35.273a1.264,1.264,0,0,0,1.26-1.26V1.26A1.264,1.264,0,0,0,35.273,0Zm0,0" transform="translate(0 0)" fill="#955ba5"/>
      <path id="Trazado_738224" data-name="Trazado 738224" d="M13.329,12.723A50.51,50.51,0,0,0,0,20.055V1.26A1.264,1.264,0,0,1,1.26,0h8.818a26.337,26.337,0,0,0,3.25,12.724Zm0,0" transform="translate(-0.001)" fill="#35495e"/>
      <path id="Trazado_738225" data-name="Trazado 738225" d="M25.252,189.528H0v-3.88a50.51,50.51,0,0,1,13.329-7.332A26.606,26.606,0,0,0,25.252,189.528Zm0,0" transform="translate(-0.001 -165.593)" fill="#35495e"/>
      <path id="Trazado_738226" data-name="Trazado 738226" d="M53.595,132.414h1.26a.63.63,0,0,1,.63.63v11.338h-2.52V133.044A.63.63,0,0,1,53.595,132.414Zm0,0" transform="translate(-49.186 -122.966)" fill="#119dfd"/>
      <path id="Trazado_738227" data-name="Trazado 738227" d="M126.105,81.869V95.2h-2.52V80.08a.632.632,0,0,1,.63-.63h1.241Zm0,0" transform="translate(-114.768 -73.781)" fill="#60b7ff"/>
      <path id="Trazado_738228" data-name="Trazado 738228" d="M196.727,238.469v4.283h-2.519v-3.779a.632.632,0,0,1,.63-.63h1.782" transform="translate(-180.35 -221.337)" fill="#119dfd"/>
      <path id="Trazado_738229" data-name="Trazado 738229" d="M45.381,292.569H27.114a.63.63,0,0,1,0-1.26H45.381a.63.63,0,0,1,0,1.26Zm0,0" transform="translate(-24.596 -270.523)" fill="#bdc3c7"/>
      <path id="Trazado_738230" data-name="Trazado 738230" d="M167.7,1.261v9.958a40.257,40.257,0,0,0-23.205,1.505A26.337,26.337,0,0,1,141.242,0h25.2a1.264,1.264,0,0,1,1.26,1.26Zm0,0" transform="translate(-131.164 -0.001)" fill="#f7723f"/>
      <path id="Trazado_738231" data-name="Trazado 738231" d="M210,143.635v12.718H198.717a26.6,26.6,0,0,1-11.924-11.212A40.257,40.257,0,0,1,210,143.635Zm0,0" transform="translate(-173.465 -132.417)" fill="#fd6930"/>
      <path id="Trazado_738232" data-name="Trazado 738232" d="M172.756,411.109c-3.758-.63-3.132-5.039-3.132-5.039H162.03s.626,4.409-3.132,5.039Zm0,0" transform="translate(-147.561 -377.095)" fill="#95a5a5"/>
      <path id="Trazado_738233" data-name="Trazado 738233" d="M111.581,479.211H88.9a.63.63,0,0,1-.5-1.008l.567-.756a1.89,1.89,0,0,1,1.512-.756h19.527a1.89,1.89,0,0,1,1.512.756l.567.756a.63.63,0,0,1-.5,1.008Zm0,0" transform="translate(-81.976 -442.677)" fill="#bdc3c7"/>
      <path id="Trazado_738234" data-name="Trazado 738234" d="M36.533,335.449v3.779a1.264,1.264,0,0,1-1.26,1.26H1.259A1.264,1.264,0,0,1,0,339.228v-3.779Zm0,0" transform="translate(0 -311.513)" fill="#bdc3c7"/>
      <g id="Grupo_1021291" data-name="Grupo 1021291" transform="translate(13.857 1.89)">
        <path id="Trazado_738235" data-name="Trazado 738235" d="M196.1,31.523a1.892,1.892,0,0,1-1.89-1.89v-1.26a1.89,1.89,0,0,1,3.779,0v1.26A1.892,1.892,0,0,1,196.1,31.523Zm0-3.779a.631.631,0,0,0-.63.63v1.26a.63.63,0,1,0,1.26,0v-1.26A.63.63,0,0,0,196.1,27.744Zm0,0" transform="translate(-194.207 -26.484)" fill="#3d324c"/>
        <path id="Trazado_738236" data-name="Trazado 738236" d="M284.374,31.523a1.892,1.892,0,0,1-1.889-1.89v-1.26a1.89,1.89,0,0,1,3.779,0v1.26A1.892,1.892,0,0,1,284.374,31.523Zm0-3.779a.631.631,0,0,0-.63.63v1.26a.63.63,0,1,0,1.26,0v-1.26A.631.631,0,0,0,284.374,27.744Zm0,0" transform="translate(-276.185 -26.484)" fill="#3d324c"/>
        <path id="Trazado_738237" data-name="Trazado 738237" d="M407.96,31.523a1.892,1.892,0,0,1-1.889-1.89v-1.26a1.89,1.89,0,0,1,3.779,0v1.26A1.892,1.892,0,0,1,407.96,31.523Zm0-3.779a.631.631,0,0,0-.63.63v1.26a.63.63,0,1,0,1.26,0v-1.26A.63.63,0,0,0,407.96,27.744Zm0,0" transform="translate(-390.953 -26.484)" fill="#3d324c"/>
        <path id="Trazado_738238" data-name="Trazado 738238" d="M256.63,31.523a.63.63,0,0,1-.63-.63v-3.78a.63.63,0,0,1,1.26,0v3.78A.63.63,0,0,1,256.63,31.523Zm0,0" transform="translate(-251.591 -26.484)" fill="#3d324c"/>
        <path id="Trazado_738239" data-name="Trazado 738239" d="M344.907,31.523a.63.63,0,0,1-.63-.63v-3.78a.63.63,0,0,1,1.26,0v3.78A.63.63,0,0,1,344.907,31.523Zm0,0" transform="translate(-333.569 -26.484)" fill="#3d324c"/>
        <path id="Trazado_738240" data-name="Trazado 738240" d="M380.216,31.523a.63.63,0,0,1-.63-.63v-3.78a.63.63,0,0,1,1.26,0v3.78A.63.63,0,0,1,380.216,31.523Zm0,0" transform="translate(-366.358 -26.484)" fill="#3d324c"/>
        <path id="Trazado_738241" data-name="Trazado 738241" d="M468.493,31.523a.63.63,0,0,1-.63-.63v-3.78a.63.63,0,0,1,1.26,0v3.78A.63.63,0,0,1,468.493,31.523Zm0,0" transform="translate(-448.336 -26.484)" fill="#3d324c"/>
        <path id="Trazado_738242" data-name="Trazado 738242" d="M434.44,128.625a1.892,1.892,0,0,1-1.89-1.89v-1.26a1.89,1.89,0,1,1,3.779,0v1.26A1.892,1.892,0,0,1,434.44,128.625Zm0-3.779a.63.63,0,0,0-.63.63v1.26a.63.63,0,0,0,1.26,0v-1.26A.631.631,0,0,0,434.44,124.846Zm0,0" transform="translate(-415.544 -116.657)" fill="#3d324c"/>
        <path id="Trazado_738243" data-name="Trazado 738243" d="M346.167,128.625a1.892,1.892,0,0,1-1.89-1.89v-1.26a1.89,1.89,0,1,1,3.779,0v1.26A1.892,1.892,0,0,1,346.167,128.625Zm0-3.779a.631.631,0,0,0-.63.63v1.26a.63.63,0,1,0,1.26,0v-1.26A.63.63,0,0,0,346.167,124.846Zm0,0" transform="translate(-333.569 -116.657)" fill="#3d324c"/>
        <path id="Trazado_738244" data-name="Trazado 738244" d="M222.581,128.625a1.892,1.892,0,0,1-1.89-1.89v-1.26a1.89,1.89,0,1,1,3.779,0v1.26A1.892,1.892,0,0,1,222.581,128.625Zm0-3.779a.63.63,0,0,0-.63.63v1.26a.63.63,0,1,0,1.26,0v-1.26A.63.63,0,0,0,222.581,124.846Zm0,0" transform="translate(-218.802 -116.657)" fill="#3d324c"/>
        <path id="Trazado_738245" data-name="Trazado 738245" d="M406.7,128.625a.63.63,0,0,1-.63-.63v-3.779a.63.63,0,1,1,1.26,0V128A.63.63,0,0,1,406.7,128.625Zm0,0" transform="translate(-390.952 -116.657)" fill="#3d324c"/>
        <path id="Trazado_738246" data-name="Trazado 738246" d="M318.423,128.625a.63.63,0,0,1-.63-.63v-3.779a.63.63,0,1,1,1.26,0V128A.63.63,0,0,1,318.423,128.625Zm0,0" transform="translate(-308.974 -116.657)" fill="#3d324c"/>
        <path id="Trazado_738247" data-name="Trazado 738247" d="M319.682,225.731a1.892,1.892,0,0,1-1.89-1.89v-1.26a1.89,1.89,0,0,1,3.779,0v1.26A1.892,1.892,0,0,1,319.682,225.731Zm0-3.779a.631.631,0,0,0-.63.63v1.26a.63.63,0,1,0,1.26,0v-1.26A.63.63,0,0,0,319.682,221.951Zm0,0" transform="translate(-308.974 -206.834)" fill="#3d324c"/>
        <path id="Trazado_738248" data-name="Trazado 738248" d="M407.96,225.731a1.892,1.892,0,0,1-1.889-1.89v-1.26a1.89,1.89,0,0,1,3.779,0v1.26A1.892,1.892,0,0,1,407.96,225.731Zm0-3.779a.631.631,0,0,0-.63.63v1.26a.63.63,0,1,0,1.26,0v-1.26A.63.63,0,0,0,407.96,221.951Zm0,0" transform="translate(-390.953 -206.834)" fill="#3d324c"/>
        <path id="Trazado_738249" data-name="Trazado 738249" d="M380.216,225.731a.63.63,0,0,1-.63-.63v-3.78a.63.63,0,0,1,1.26,0v3.78A.63.63,0,0,1,380.216,225.731Zm0,0" transform="translate(-366.358 -206.834)" fill="#3d324c"/>
        <path id="Trazado_738250" data-name="Trazado 738250" d="M468.493,225.731a.63.63,0,0,1-.63-.63v-3.78a.63.63,0,0,1,1.26,0v3.78A.63.63,0,0,1,468.493,225.731Zm0,0" transform="translate(-448.336 -206.834)" fill="#3d324c"/>
        <path id="Trazado_738251" data-name="Trazado 738251" d="M283.114,128.625a.63.63,0,0,1-.63-.63v-3.779a.63.63,0,1,1,1.26,0V128A.63.63,0,0,1,283.114,128.625Zm0,0" transform="translate(-276.186 -116.657)" fill="#3d324c"/>
      </g>
    </g>
  </g>
</svg>
