<svg xmlns="http://www.w3.org/2000/svg" width="66.216" height="66.216" viewBox="0 0 66.216 66.216">
  <g id="Grupo_1021169" data-name="Grupo 1021169" transform="translate(-198 -2253)">
    <g id="Grupo_1021109" data-name="Grupo 1021109" transform="translate(-133 714)">
      <path id="Trazado_734791" data-name="Trazado 734791" d="M33.108,0A33.108,33.108,0,1,1,0,33.108,33.108,33.108,0,0,1,33.108,0Z" transform="translate(331 1539)" fill="#362b9e"/>
    </g>
    <g id="usuario_3_" data-name="usuario (3)" transform="translate(193.894 2266)">
      <path id="Trazado_738090" data-name="Trazado 738090" d="M101.4,0H83.94a1.633,1.633,0,0,0-1.633,1.633V21.4a1.633,1.633,0,0,0,1.633,1.633H101.4a1.633,1.633,0,0,0,1.546-1.109h1.13V1.179h-1.108A1.633,1.633,0,0,0,101.4,0Z" transform="translate(-59.132)" fill="#60b7ff"/>
      <path id="Trazado_738091" data-name="Trazado 738091" d="M326.4,0H324.1a1.633,1.633,0,0,1,1.633,1.633V21.4a1.633,1.633,0,0,1-1.633,1.633H326.4a1.633,1.633,0,0,0,1.633-1.633V1.633A1.633,1.633,0,0,0,326.4,0Z" transform="translate(-281.833)" fill="#26a6fe"/>
      <path id="Trazado_738092" data-name="Trazado 738092" d="M113.468,42l-.717-.948h-2.306a1.633,1.633,0,0,0-1.633,1.633V60.835h19.3a1.633,1.633,0,0,0,1.633-1.633V42Z" transform="translate(-83.544 -37.806)" fill="#26a6fe"/>
      <path id="Trazado_738093" data-name="Trazado 738093" d="M160.041,42.68h-1.3a1.633,1.633,0,0,0-1.633-1.633H139.647a1.633,1.633,0,0,0-1.633,1.633V62.443a1.633,1.633,0,0,0,1.633,1.633H157.1a1.632,1.632,0,0,0,1.465-.915h1.471V42.68Z" transform="translate(-110.441 -37.806)" fill="#eaf6ff"/>
      <path id="Trazado_738094" data-name="Trazado 738094" d="M382.11,41.047H379.8a1.633,1.633,0,0,1,1.633,1.633V62.443a1.633,1.633,0,0,1-1.633,1.633h2.306a1.633,1.633,0,0,0,1.633-1.633V42.68A1.633,1.633,0,0,0,382.11,41.047Z" transform="translate(-333.14 -37.806)" fill="#d8ecfe"/>
      <g id="Grupo_1021147" data-name="Grupo 1021147" transform="translate(29.924 6.059)">
        <path id="Trazado_738095" data-name="Trazado 738095" d="M175.007,77.966h-6.615a.61.61,0,1,1,0-1.22h6.615a.61.61,0,0,1,0,1.22Z" transform="translate(-167.782 -76.746)" fill="#82aee3"/>
      </g>
      <g id="Grupo_1021148" data-name="Grupo 1021148" transform="translate(29.924 9.763)">
        <path id="Trazado_738096" data-name="Trazado 738096" d="M171.7,124.878h-3.307a.61.61,0,0,1,0-1.22H171.7a.61.61,0,0,1,0,1.22Z" transform="translate(-167.782 -123.658)" fill="#82aee3"/>
      </g>
      <g id="Grupo_1021149" data-name="Grupo 1021149" transform="translate(29.924 12.773)">
        <path id="Trazado_738097" data-name="Trazado 738097" d="M171.7,162.992h-3.307a.61.61,0,0,1,0-1.22H171.7a.61.61,0,0,1,0,1.22Z" transform="translate(-167.782 -161.772)" fill="#82aee3"/>
      </g>
      <g id="Grupo_1021150" data-name="Grupo 1021150" transform="translate(36.538 9.763)">
        <path id="Trazado_738098" data-name="Trazado 738098" d="M262.667,124.878H252.173a.61.61,0,0,1,0-1.22h10.494a.61.61,0,0,1,0,1.22Z" transform="translate(-251.563 -123.658)" fill="#82aee3"/>
      </g>
      <g id="Grupo_1021151" data-name="Grupo 1021151" transform="translate(36.538 12.773)">
        <path id="Trazado_738099" data-name="Trazado 738099" d="M262.667,162.992H252.173a.61.61,0,0,1,0-1.22h10.494a.61.61,0,0,1,0,1.22Z" transform="translate(-251.563 -161.772)" fill="#82aee3"/>
      </g>
      <g id="Grupo_1021152" data-name="Grupo 1021152" transform="translate(29.924 15.782)">
        <path id="Trazado_738100" data-name="Trazado 738100" d="M171.7,201.108h-3.307a.61.61,0,1,1,0-1.22H171.7a.61.61,0,1,1,0,1.22Z" transform="translate(-167.782 -199.888)" fill="#82aee3"/>
      </g>
      <g id="Grupo_1021153" data-name="Grupo 1021153" transform="translate(36.538 15.782)">
        <path id="Trazado_738101" data-name="Trazado 738101" d="M262.667,201.108H252.173a.61.61,0,1,1,0-1.22h10.494a.61.61,0,0,1,0,1.22Z" transform="translate(-251.563 -199.888)" fill="#82aee3"/>
      </g>
      <path id="Trazado_738102" data-name="Trazado 738102" d="M53.366,199.235a1.633,1.633,0,0,0-1.633-1.633H30.792l-1.847-3.392H27.823a1.225,1.225,0,0,0-1.085-.657H19.331a1.225,1.225,0,0,0-1.225,1.225v22.285a1.633,1.633,0,0,0,1.633,1.633H51.733a1.633,1.633,0,0,0,1.633-1.633h1.119V199.235Z" transform="translate(0 -178.271)" fill="#8da6be"/>
      <path id="Trazado_738103" data-name="Trazado 738103" d="M128.509,194.209l1.775,3.392h2.306l-1.775-3.392a1.225,1.225,0,0,0-1.085-.657h-2.306A1.225,1.225,0,0,1,128.509,194.209Z" transform="translate(-100.687 -178.27)" fill="#597ea0"/>
      <path id="Trazado_738104" data-name="Trazado 738104" d="M446.311,244.833h-2.306a1.633,1.633,0,0,1,1.633,1.633v17.827a1.633,1.633,0,0,1-1.633,1.633h2.306a1.633,1.633,0,0,0,1.633-1.633V246.466A1.633,1.633,0,0,0,446.311,244.833Z" transform="translate(-392.272 -225.502)" fill="#597ea0"/>
      <path id="Trazado_738105" data-name="Trazado 738105" d="M137.463,294.143H118.272a1.388,1.388,0,0,1-1.388-1.388v-13.25a1.388,1.388,0,0,1,1.388-1.388h19.191a1.388,1.388,0,0,1,1.388,1.388v13.25A1.388,1.388,0,0,1,137.463,294.143Z" transform="translate(-90.979 -256.158)" fill="#d8ecfe"/>
      <path id="Trazado_738106" data-name="Trazado 738106" d="M202.268,414.61H192.192v-.662a5.038,5.038,0,1,1,10.076,0Z" transform="translate(-160.341 -376.626)" fill="#fd6930"/>
      <path id="Trazado_738107" data-name="Trazado 738107" d="M3.859,0A3.859,3.859,0,1,1,0,3.859,3.859,3.859,0,0,1,3.859,0Z" transform="translate(33.03 24.567)" fill="#fd6930"/>
    </g>
  </g>
</svg>
