<svg xmlns="http://www.w3.org/2000/svg" xmlns:xlink="http://www.w3.org/1999/xlink" width="85" height="66.607" viewBox="0 0 85 66.607">
  <defs>
    <filter id="Elipse_7683" x="12.164" y="5.481" width="61.125" height="61.126" filterUnits="userSpaceOnUse">
      <feOffset dy="3" input="SourceAlpha"/>
      <feGaussianBlur stdDeviation="3" result="blur"/>
      <feFlood flood-opacity="0.161"/>
      <feComposite operator="in" in2="blur"/>
      <feComposite in="SourceGraphic"/>
    </filter>
  </defs>
  <g id="Grupo_1022499" data-name="Grupo 1022499" transform="translate(-180 -413)">
    <g id="Grupo_1022498" data-name="Grupo 1022498">
      <rect id="Rectángulo_345292" data-name="Rectángulo 345292" width="85" height="62" rx="5" transform="translate(180 413)" fill="#221b6b"/>
      <g id="Grupo_1022500" data-name="Grupo 1022500" transform="translate(0 0.813)">
        <g id="Grupo_1019745" data-name="Grupo 1019745" transform="translate(201.164 423.669)">
          <g id="Grupo_1003705" data-name="Grupo 1003705" transform="translate(0 0)">
            <g transform="matrix(1, 0, 0, 1, -21.16, -11.48)" filter="url(#Elipse_7683)">
              <ellipse id="Elipse_7683-2" data-name="Elipse 7683" cx="21.563" cy="21.563" rx="21.563" ry="21.563" transform="translate(21.16 11.48)" fill="#362b9e"/>
            </g>
          </g>
        </g>
        <g id="Page-1" transform="translate(202.073 418.027)">
          <g id="_021---Freelancer" data-name="021---Freelancer" transform="translate(0 0)">
            <path id="Path" d="M34.164,22.188a3.355,3.355,0,0,1-3.355,3.347v1.828A3.362,3.362,0,0,1,29.66,29.9l-2.684,2.348H16.19L13.506,29.9a3.362,3.362,0,0,1-1.149-2.533V25.534a3.347,3.347,0,0,1,0-6.693v-.017s0-7.549,5.032-5.871,5.032,3.355,11.742,2.516a3.634,3.634,0,0,1,1.677,3.355v.017A3.355,3.355,0,0,1,34.164,22.188Z" transform="translate(-1.453 -2.054)" fill="#edeaff" fill-rule="evenodd"/>
            <path id="Path-2" data-name="Path" d="M31.263,26.065v1.828a3.362,3.362,0,0,1-1.149,2.533L27.43,32.775h2.516l2.684-2.348a3.362,3.362,0,0,0,1.149-2.533V26.065a3.347,3.347,0,0,0,0-6.693v-.017A3.634,3.634,0,0,0,32.1,16c-.839.1-1.568.168-2.218.2a3.805,3.805,0,0,1,1.379,3.154Z" transform="translate(-4.423 -2.584)" fill="#d5cef8" fill-rule="evenodd"/>
            <path id="Path-3" data-name="Path" d="M32.781,11.09c0,5.024-1.677,5.863-1.677,5.863v-.017a3.634,3.634,0,0,0-1.677-3.355c-6.71.839-6.71-.839-11.742-2.516s-5.032,5.871-5.032,5.871v.017S7.619,8.582,14.329,5.236c0,0,3.892-6.987,13.168-3.011a.419.419,0,0,1,.017.763,2.936,2.936,0,0,0-1.132.914.419.419,0,0,0,.2.654C28.16,5.068,32.781,6.93,32.781,11.09Z" transform="translate(-1.748 -0.166)" fill="#826be9" fill-rule="evenodd"/>
            <path id="Path-4" data-name="Path" d="M28.51,4.561a.419.419,0,0,1-.2-.654,2.936,2.936,0,0,1,1.132-.914.419.419,0,0,0-.017-.763,12.688,12.688,0,0,0-6.633-1.141,14.767,14.767,0,0,1,4.117,1.141.419.419,0,0,1,.017.763,2.936,2.936,0,0,0-1.132.914.419.419,0,0,0,.2.654c1.577.512,6.2,2.374,6.2,6.534a15.612,15.612,0,0,1-.252,2.954,3.928,3.928,0,0,1,1.09,2.892v.017s1.677-.839,1.677-5.863c0-4.16-4.621-6.022-6.2-6.534Z" transform="translate(-3.676 -0.17)" fill="#6e55df" fill-rule="evenodd"/>
            <path id="Path-5" data-name="Path" d="M7.71,53.457v2.516a.839.839,0,0,0,.839.839h-6.7a.839.839,0,0,1-.839-.931,15.6,15.6,0,0,1,4.152-8.3A11.932,11.932,0,0,1,8.306,45.43l.822,7.188H8.549a.839.839,0,0,0-.839.839Z" transform="translate(-0.162 -7.33)" fill="#ab9df1" fill-rule="evenodd"/>
            <path id="Path-6" data-name="Path" d="M9.355,52.618h.579L9.112,45.43a14.656,14.656,0,0,0-2.348,1.455l.654,5.733H6.839A.839.839,0,0,0,6,53.457v2.516a.839.839,0,0,0,.839.839H9.355a.839.839,0,0,1-.839-.839V53.457a.839.839,0,0,1,.839-.839Z" transform="translate(-0.968 -7.33)" fill="#826be9" fill-rule="evenodd"/>
            <path id="Path-7" data-name="Path" d="M45.429,55.881a.839.839,0,0,1-.839.931h-6.7a.839.839,0,0,0,.839-.839V53.457a.839.839,0,0,0-.839-.839H37.31l.822-7.188a11.932,11.932,0,0,1,3.145,2.156A15.6,15.6,0,0,1,45.429,55.881Z" transform="translate(-6.017 -7.33)" fill="#ab9df1" fill-rule="evenodd"/>
            <path id="Path-8" data-name="Path" d="M41.4,47.586a11.932,11.932,0,0,0-3.145-2.156l-.168,1.455a7.46,7.46,0,0,1,.8.7,15.6,15.6,0,0,1,4.152,8.3.839.839,0,0,1-.839.931h2.516a.839.839,0,0,0,.839-.931A15.6,15.6,0,0,0,41.4,47.586Z" transform="translate(-6.143 -7.33)" fill="#826be9" fill-rule="evenodd"/>
            <rect id="Rectangle" width="25.162" height="4.194" rx="1" transform="translate(7.549 45.288)" fill="#46928d"/>
            <path id="Path-9" data-name="Path" d="M33.567,43.909,32.745,51.1H10.418L9.6,43.909l-.579-5.116A2.536,2.536,0,0,1,11.576,36H31.588a2.536,2.536,0,0,1,1.905.823Z" transform="translate(-1.452 -5.809)" fill="#71cc98" fill-rule="evenodd"/>
            <path id="Path-10" data-name="Path" d="M35.446,36H32.93a2.536,2.536,0,0,1,2.558,2.793l-.579,5.116L34.087,51.1H36.6l.822-7.188L38,38.793A2.536,2.536,0,0,0,35.446,36Z" transform="translate(-5.31 -5.809)" fill="#46928d" fill-rule="evenodd"/>
            <ellipse id="Oval" cx="2.516" cy="2.516" rx="2.516" ry="2.516" transform="translate(17.613 35.223)" fill="#f5f5f5"/>
            <g id="Grupo_1021453" data-name="Grupo 1021453">
              <path id="Shape" d="M.012,48.457a1.665,1.665,0,0,0,.408,1.3,1.689,1.689,0,0,0,1.258.566h36.9a1.689,1.689,0,0,0,1.258-.566,1.66,1.66,0,0,0,.411-1.294,16.484,16.484,0,0,0-4.382-8.785,11.766,11.766,0,0,0-2.857-2.043l.518-4.553A3.324,3.324,0,0,0,32.7,30.5a3.444,3.444,0,0,0-2.565-1.143H27.755l1.006-.878a4.2,4.2,0,0,0,1.433-3.165V24.24a4.183,4.183,0,0,0,.692-8,11.382,11.382,0,0,0,.986-5.314c0-4.253-4.138-6.346-6.146-7.109a2.19,2.19,0,0,1,.385-.229,1.254,1.254,0,0,0-.031-2.3c-8.855-3.8-13.252,1.89-14.086,3.14A6.634,6.634,0,0,0,8.542,8.5c-.839,2.879.324,6.039,1.082,7.654a4.184,4.184,0,0,0,.44,8.089v1.074A4.2,4.2,0,0,0,11.5,28.478l1,.879H10.125A3.444,3.444,0,0,0,7.557,30.5a3.324,3.324,0,0,0-.826,2.584l.518,4.553a11.79,11.79,0,0,0-2.858,2.044,16.462,16.462,0,0,0-4.38,8.776Zm8.376.191V46.132H31.872v2.516ZM34.656,40.84a14.823,14.823,0,0,1,3.92,7.808H33.549V46.132a1.677,1.677,0,0,0-1.319-1.637l.575-5.05A8.939,8.939,0,0,1,34.656,40.84ZM10.156,8.963a5.022,5.022,0,0,1,2.8-3.138.851.851,0,0,0,.359-.342c.139-.252,3.408-5.921,11.341-2.956a3.618,3.618,0,0,0-.684.7,1.258,1.258,0,0,0-.21,1.126,1.276,1.276,0,0,0,.814.839c1.318.429,5.619,2.107,5.619,5.738a12.527,12.527,0,0,1-.444,3.658,4.083,4.083,0,0,0-1.7-1.921.824.824,0,0,0-.479-.084c-4.487.56-5.75-.035-7.839-1.022A29.3,29.3,0,0,0,16.2,10.1a3.964,3.964,0,0,0-3.748.383,5.792,5.792,0,0,0-1.974,3.252,8.341,8.341,0,0,1-.322-4.774ZM12.6,27.215a2.522,2.522,0,0,1-.862-1.9V23.486a.839.839,0,0,0-.839-.839,2.5,2.5,0,0,1-.839-4.865v1.51a.839.839,0,1,0,1.677,0V16.776c0-1.032.31-3.931,1.693-4.925a2.369,2.369,0,0,1,2.236-.151,27.909,27.909,0,0,1,3.347,1.386c2.156,1.019,3.724,1.761,8.457,1.208a3.013,3.013,0,0,1,1.042,2.483v2.516a.839.839,0,1,0,1.677,0v-1.51a2.5,2.5,0,0,1-.839,4.865.839.839,0,0,0-.839.839v1.828a2.523,2.523,0,0,1-.863,1.9l-2.447,2.141H15.052Zm-3.8,4.407a1.761,1.761,0,0,1,1.317-.587h20.01a1.761,1.761,0,0,1,1.317.587,1.62,1.62,0,0,1,.41,1.277L30.546,44.454H9.713L8.4,32.895a1.62,1.62,0,0,1,.408-1.273ZM7.453,39.449l.575,5.05A1.677,1.677,0,0,0,6.71,46.132v2.516H1.677A14.866,14.866,0,0,1,5.6,40.843a8.974,8.974,0,0,1,1.853-1.4Z" transform="translate(0 -0.005)"/>
              <path id="Shape-2" data-name="Shape" d="M23.355,47.71A3.355,3.355,0,1,0,20,44.355,3.355,3.355,0,0,0,23.355,47.71Zm0-5.032a1.677,1.677,0,1,1-1.677,1.677A1.677,1.677,0,0,1,23.355,42.677Z" transform="translate(-3.225 -6.616)"/>
            </g>
          </g>
        </g>
      </g>
    </g>
  </g>
</svg>
