<svg id="Grupo_1022626" data-name="Grupo 1022626" xmlns="http://www.w3.org/2000/svg" xmlns:xlink="http://www.w3.org/1999/xlink" width="263.186" height="216.309" viewBox="0 0 263.186 216.309">
  <defs>
    <clipPath id="clip-path">
      <rect id="Rectángulo_347203" data-name="Rectángulo 347203" width="236.863" height="213.854" fill="none"/>
    </clipPath>
    <clipPath id="clip-path-5">
      <rect id="Rectángulo_347168" data-name="Rectángulo 347168" width="7.036" height="2.314" fill="none"/>
    </clipPath>
    <clipPath id="clip-path-10">
      <rect id="Rectángulo_347173" data-name="Rectángulo 347173" width="11.405" height="7.259" fill="none"/>
    </clipPath>
    <clipPath id="clip-path-11">
      <rect id="Rectángulo_347174" data-name="Rectángulo 347174" width="7.559" height="12.605" fill="none"/>
    </clipPath>
    <clipPath id="clip-path-12">
      <path id="Trazado_724362" data-name="Trazado 724362" d="M180.539,274.1c-.076.029-.15.058-.22.087-.8.335-1.5.659-2.076.966a.849.849,0,0,1-.075.046,14.065,14.065,0,0,0-1.568,1.012v.006a11.616,11.616,0,0,0-4.107,5.4c-2.1,5.761-2.28,28.841-2.28,28.841s-.521-.555-4.025,1.429v9.457s5.767.44,8.734-.278l-.237,6.4h49.653c.555-3.87,1.041-7.433,1.469-10.724,4.2-10.516,6.617-28.181,6.178-31.733-.769-6.23-9.793-10.539-10.9-11.013a49.4,49.4,0,0,0-19.449-3.8,58.383,58.383,0,0,0-21.1,3.9" transform="translate(-166.188 -270.2)" fill="none"/>
    </clipPath>
    <clipPath id="clip-path-13">
      <rect id="Rectángulo_347176" data-name="Rectángulo 347176" width="10.753" height="22.981" fill="none"/>
    </clipPath>
    <clipPath id="clip-path-14">
      <rect id="Rectángulo_347177" data-name="Rectángulo 347177" width="52.302" height="13.929" fill="none"/>
    </clipPath>
    <clipPath id="clip-path-15">
      <rect id="Rectángulo_347178" data-name="Rectángulo 347178" width="10.009" height="34.286" fill="none"/>
    </clipPath>
    <clipPath id="clip-path-18">
      <path id="Trazado_724389" data-name="Trazado 724389" d="M211.486,254.191l-.643,9.36c-.76.095-1.484.2-2.191.311l2.949,7.07,5.765.757,9.221-8.5c-.748-.056-1.489-.1-2.216-.139l-.826-11.653Z" transform="translate(-208.652 -251.399)" fill="none"/>
    </clipPath>
    <clipPath id="clip-path-22">
      <path id="Trazado_724424" data-name="Trazado 724424" d="M325.067,256.275l-5.172,4.474.242,1.069a23.289,23.289,0,0,1,.429,7.8,26.034,26.034,0,0,0,13.936-.109c-5.064-8.441-4.267-18.255-4.267-18.255Z" transform="translate(-319.895 -251.255)" fill="none"/>
    </clipPath>
    <clipPath id="clip-path-24">
      <path id="Trazado_724447" data-name="Trazado 724447" d="M283.834,293.241c-1.424,5.605-3.292,25.168-3.292,25.168l-4.5.954s.665,6.421-.3,8.948c0,0,7.711,2.325,12.13.827a23.5,23.5,0,0,0-.671,3.465h39.669q.435-2.542.816-4.9c.532-.364,10.36-28.806,8.5-36.731-1.99-8.5-14.809-8.254-14.809-8.254-3.386-.234-6.482-.342-9.312-.342-20.383,0-26.915,5.643-28.24,10.864" transform="translate(-275.747 -282.377)" fill="none"/>
    </clipPath>
    <clipPath id="clip-path-25">
      <rect id="Rectángulo_347191" data-name="Rectángulo 347191" width="10.891" height="29.634" fill="none"/>
    </clipPath>
    <clipPath id="clip-path-26">
      <rect id="Rectángulo_347192" data-name="Rectángulo 347192" width="40.486" height="38.842" fill="none"/>
    </clipPath>
    <clipPath id="clip-path-30">
      <path id="Trazado_724501" data-name="Trazado 724501" d="M50.835,263.684a2.136,2.136,0,0,0-2.163,2.465l5.263,42.864a2.869,2.869,0,0,0,2.768,2.465h60.654a2.135,2.135,0,0,0,2.162-2.465l-5.263-42.864a2.868,2.868,0,0,0-2.767-2.465Z" transform="translate(-48.654 -263.684)" fill="none"/>
    </clipPath>
    <clipPath id="clip-path-31">
      <rect id="Rectángulo_347200" data-name="Rectángulo 347200" width="70.886" height="47.794" fill="none"/>
    </clipPath>
  </defs>
  <g id="Grupo_1022624" data-name="Grupo 1022624">
    <g id="Grupo_1012724" data-name="Grupo 1012724" transform="translate(0 17.184)">
      <path id="Trazado_724085" data-name="Trazado 724085" d="M251.924,80.5c14.239-38.224-31.58-39.674-57.482-38.92-8.9.259-12.3-.789-27.543,2.606-33.095,7.368-41.877,6.136-72.844-17.252-21.852-16.5-73.931-25.19-57.294,30.4,7.859,26.261,11.351,59.772-13.654,67.917S-9.666,174.763,15.212,189s56.925-4.405,84.308,18.477,43.963-26.665,91.52-15.913,66.568-9.27,71.8-40.371c3.372-20.057-18.967-49.066-10.912-70.69" transform="translate(0 -14.457)" fill="#cfc5fe" opacity="0.82"/>
      <path id="Trazado_724086" data-name="Trazado 724086" d="M211.208,69.824c11.938-32.047-26.476-33.262-48.191-32.63-7.46.217-10.31-.661-23.092,2.185-27.746,6.177-35.109,5.144-61.071-14.464C60.534,11.079,16.872,3.8,30.82,50.4c6.589,22.017,9.517,50.112-11.447,56.94s-27.477,41.51-6.62,53.443,47.724-3.693,70.682,15.49,36.857-22.355,76.728-13.341,55.809-7.772,60.192-33.846c2.827-16.815-15.9-41.136-9.148-59.265" transform="translate(21.255 2.753)" fill="#b9abfa" opacity="0.82"/>
    </g>
    <g id="Grupo_1012579" data-name="Grupo 1012579" transform="translate(21.985)">
      <g id="Grupo_1012682" data-name="Grupo 1012682" clip-path="url(#clip-path)">
        <g id="Grupo_1012585" data-name="Grupo 1012585">
          <g id="Grupo_1012584" data-name="Grupo 1012584" clip-path="url(#clip-path)">
            <path id="Trazado_724305" data-name="Trazado 724305" d="M339.827,111.354a12.692,12.692,0,0,0,6.378-3.689l4.078,1.379,2.034-3.524-3.231-2.839a12.738,12.738,0,0,0,0-7.368l3.231-2.842-2.034-3.524-4.078,1.379a12.67,12.67,0,0,0-6.378-3.685l-.847-4.219h-2.034" transform="translate(-142.044 -34.746)" fill="none" stroke="#263238" stroke-miterlimit="10" stroke-width="1"/>
            <path id="Trazado_724306" data-name="Trazado 724306" d="M323.71,82.422l-.843,4.218a12.676,12.676,0,0,0-6.381,3.686l-4.077-1.379-2.034,3.524,3.231,2.842a12.742,12.742,0,0,0,0,7.369l-3.231,2.839,2.034,3.524,4.077-1.379a12.71,12.71,0,0,0,6.381,3.689l.843,4.218h4.069l.846-4.218" transform="translate(-130.842 -34.746)" fill="none" stroke="#263238" stroke-miterlimit="10" stroke-width="1"/>
            <path id="Trazado_724307" data-name="Trazado 724307" d="M332.006,113.387c-7.253-.507-8.616-11.068-1.366-12.923" transform="translate(-137.36 -42.352)" fill="none" stroke="#263238" stroke-miterlimit="10" stroke-width="1"/>
            <path id="Trazado_724308" data-name="Trazado 724308" d="M342.724,102.976c3.61,3.308,2.467,9.762-2.344,11.219" transform="translate(-143.491 -43.411)" fill="none" stroke="#263238" stroke-miterlimit="10" stroke-width="1"/>
            <path id="Trazado_724309" data-name="Trazado 724309" d="M338.376,100.2a6.484,6.484,0,0,1,1.826.5" transform="translate(-142.647 -42.242)" fill="none" stroke="#263238" stroke-miterlimit="10" stroke-width="1"/>
            <path id="Trazado_724310" data-name="Trazado 724310" d="M379.285,137.153l.857-1.027a8.369,8.369,0,0,0,4.851-.123l1.924,2.079" transform="translate(-159.892 -57.334)" fill="none" stroke="#263238" stroke-miterlimit="10" stroke-width="1"/>
            <path id="Trazado_724311" data-name="Trazado 724311" d="M370.392,110.263l.371,1.012a8.35,8.35,0,0,0-2.316,4.263l-2.763.628.068,2.678,2.792.485a8.379,8.379,0,0,0,2.533,4.138l-.838,2.7,2.354,1.28" transform="translate(-154.159 -46.483)" fill="none" stroke="#263238" stroke-miterlimit="10" stroke-width="1"/>
            <path id="Trazado_724312" data-name="Trazado 724312" d="M384.173,124.851l2.285-1.4-.975-2.66a8.362,8.362,0,0,0,2.313-4.264l2.764-.628-.069-2.678-2.79-.484a8.38,8.38,0,0,0-2.534-4.138l.838-2.707-2.354-1.28-1.816,2.176a8.344,8.344,0,0,0-4.848.123l-1.926-2.078-2.285,1.4" transform="translate(-157.149 -44.102)" fill="none" stroke="#263238" stroke-miterlimit="10" stroke-width="1"/>
            <path id="Trazado_724313" data-name="Trazado 724313" d="M385.791,118.718c.79,3.324-2.366,6.523-5.7,5.173a4.431,4.431,0,0,1-.692-7.748" transform="translate(-159.106 -48.962)" fill="none" stroke="#263238" stroke-miterlimit="10" stroke-width="1"/>
            <path id="Trazado_724314" data-name="Trazado 724314" d="M387.172,115.439a4.257,4.257,0,0,1,1.754,1.127" transform="translate(-163.217 -48.665)" fill="none" stroke="#263238" stroke-miterlimit="10" stroke-width="1"/>
            <path id="Trazado_724315" data-name="Trazado 724315" d="M70.233,232.006l4.344,4.344a4.684,4.684,0,0,0,5.632,5.632l-2.729-2.729.739-2.76,2.76-.739,2.729,2.729a4.684,4.684,0,0,0-5.632-5.632l-4-4" transform="translate(-29.608 -96.475)" fill="none" stroke="#263238" stroke-miterlimit="10" stroke-width="1"/>
            <path id="Trazado_724316" data-name="Trazado 724316" d="M56.236,210.759l-3.987-3.987a4.684,4.684,0,0,0-5.632-5.632l2.729,2.729-.74,2.76-2.76.739-2.729-2.729a4.684,4.684,0,0,0,5.632,5.632l3.987,3.987" transform="translate(-18.125 -84.741)" fill="none" stroke="#263238" stroke-miterlimit="10" stroke-width="1"/>
            <path id="Trazado_724317" data-name="Trazado 724317" d="M72.788,214.954l5.56-5.56a3.748,3.748,0,0,1,.93-.68l1.119-.578,4.027-4.6-2.517-2.516-4.6,4.026-.578,1.12a3.757,3.757,0,0,1-.68.93l-4.41,4.41" transform="translate(-30.199 -84.742)" fill="none" stroke="#263238" stroke-miterlimit="10" stroke-width="1"/>
            <path id="Trazado_724318" data-name="Trazado 724318" d="M46.314,237.522a1.887,1.887,0,0,0,2.417-.334l9.634-9.634a1.835,1.835,0,0,0,.594-1.673l1.671-1.671.1.1a.619.619,0,1,0,.875-.875l-3.3-3.3a.618.618,0,0,0-.875.875l.1.1-1.671,1.671a1.836,1.836,0,0,0-1.673.595l-9.634,9.634a1.851,1.851,0,0,0-.611,1.583" transform="translate(-18.522 -92.728)" fill="none" stroke="#263238" stroke-miterlimit="10" stroke-width="1"/>
            <path id="Trazado_724319" data-name="Trazado 724319" d="M44.625,247.037a5.45,5.45,0,0,0,.8.99,5.072,5.072,0,0,0,1.178.909" transform="translate(-18.812 -104.142)" fill="none" stroke="#263238" stroke-miterlimit="10" stroke-width="1"/>
            <line id="Línea_374" data-name="Línea 374" y1="1.682" x2="1.682" transform="translate(28.777 140.192)" fill="none" stroke="#263238" stroke-miterlimit="10" stroke-width="1"/>
            <line id="Línea_375" data-name="Línea 375" y1="7.263" x2="7.112" transform="translate(32.734 130.653)" fill="none" stroke="#263238" stroke-miterlimit="10" stroke-width="1"/>
          </g>
        </g>
        <rect id="Rectángulo_347163" data-name="Rectángulo 347163" width="154.213" height="100.188" transform="translate(33.763 15.061)" fill="#fff"/>
        <path id="Trazado_724320" data-name="Trazado 724320" d="M212.582,26.037H58.369V126.224H212.582Z" transform="translate(-24.606 -10.976)" fill="#716abb"/>
        <rect id="Rectángulo_347164" data-name="Rectángulo 347164" width="154.213" height="13.107" transform="translate(33.762 15.061)" fill="#fff"/>
        <rect id="Rectángulo_347165" data-name="Rectángulo 347165" width="154.213" height="13.107" transform="translate(33.762 15.061)" fill="#362b9e"/>
        <g id="Grupo_1012599" data-name="Grupo 1012599">
          <g id="Grupo_1012598" data-name="Grupo 1012598" clip-path="url(#clip-path)">
            <path id="Trazado_724321" data-name="Trazado 724321" d="M311.4,38.578h-5.9a1.513,1.513,0,0,1-1.513-1.513v-5.9a1.513,1.513,0,0,1,1.513-1.513h5.9a1.513,1.513,0,0,1,1.513,1.513v5.9a1.513,1.513,0,0,1-1.513,1.513" transform="translate(-128.146 -12.498)" fill="#fff"/>
            <path id="Trazado_724322" data-name="Trazado 724322" d="M292.459,38.578h-5.875a1.528,1.528,0,0,1-1.528-1.528V31.175a1.528,1.528,0,0,1,1.528-1.528h5.875a1.528,1.528,0,0,1,1.528,1.528V37.05a1.528,1.528,0,0,1-1.528,1.528" transform="translate(-120.169 -12.498)" fill="#fff"/>
            <path id="Trazado_724323" data-name="Trazado 724323" d="M273.551,38.578h-5.9a1.514,1.514,0,0,1-1.514-1.514v-5.9a1.514,1.514,0,0,1,1.514-1.514h5.9a1.513,1.513,0,0,1,1.514,1.514v5.9a1.514,1.514,0,0,1-1.514,1.514" transform="translate(-112.192 -12.498)" fill="#fff"/>
            <path id="Trazado_724324" data-name="Trazado 724324" d="M68.368,61.713v69.478a3.017,3.017,0,0,0,3.017,3.017H208a3.017,3.017,0,0,0,3.017-3.017V61.713A3.017,3.017,0,0,0,208,58.7H71.385a3.017,3.017,0,0,0-3.017,3.017" transform="translate(-28.821 -24.744)" fill="#263238"/>
            <path id="Rectángulo_347166" data-name="Rectángulo 347166" d="M5.216,0H137.428a5.216,5.216,0,0,1,5.216,5.216V70.3a5.215,5.215,0,0,1-5.215,5.215H5.216A5.216,5.216,0,0,1,0,70.3V5.216A5.216,5.216,0,0,1,5.216,0Z" transform="translate(39.547 33.952)" fill="none" stroke="#263238" stroke-linecap="round" stroke-linejoin="round" stroke-width="1"/>
            <line id="Línea_376" data-name="Línea 376" y1="3.832" x2="3.832" transform="translate(178.382 19.698)" fill="none" stroke="#263238" stroke-linecap="round" stroke-linejoin="round" stroke-width="1"/>
            <line id="Línea_377" data-name="Línea 377" x2="3.832" y2="3.832" transform="translate(178.382 19.698)" fill="none" stroke="#263238" stroke-linecap="round" stroke-linejoin="round" stroke-width="1"/>
            <rect id="Rectángulo_347167" data-name="Rectángulo 347167" width="5.109" height="3.373" transform="translate(166.798 20.795)" fill="none" stroke="#263238" stroke-linecap="round" stroke-linejoin="round" stroke-width="1"/>
            <line id="Línea_378" data-name="Línea 378" x1="5.109" transform="translate(155.853 24.169)" fill="none" stroke="#263238" stroke-linecap="round" stroke-linejoin="round" stroke-width="1"/>
            <path id="Trazado_724325" data-name="Trazado 724325" d="M291.232,145.752H281.095a1.157,1.157,0,0,1,0-2.314h10.137a1.157,1.157,0,0,1,0,2.314" transform="translate(-118.011 -60.468)" fill="#757575"/>
            <path id="Trazado_724326" data-name="Trazado 724326" d="M277.993,159.585h-28.3a1.157,1.157,0,1,1,0-2.314h28.3a1.157,1.157,0,0,1,0,2.314" transform="translate(-104.772 -66.3)" fill="#757575"/>
            <path id="Trazado_724327" data-name="Trazado 724327" d="M253.178,173.419H190.827a1.157,1.157,0,0,1,0-2.314h62.352a1.157,1.157,0,0,1,0,2.314" transform="translate(-79.958 -72.131)" fill="#757575"/>
            <path id="Trazado_724328" data-name="Trazado 724328" d="M82.581,131.919H77.859a1.157,1.157,0,0,1,0-2.314h4.722a1.157,1.157,0,0,1,0,2.314" transform="translate(-32.335 -54.637)" fill="#bfbfbf"/>
            <path id="Trazado_724329" data-name="Trazado 724329" d="M82.581,145.752H77.859a1.157,1.157,0,0,1,0-2.314h4.722a1.157,1.157,0,0,1,0,2.314" transform="translate(-32.335 -60.468)" fill="#bfbfbf"/>
            <path id="Trazado_724330" data-name="Trazado 724330" d="M82.581,159.585H77.859a1.157,1.157,0,1,1,0-2.314h4.722a1.157,1.157,0,1,1,0,2.314" transform="translate(-32.335 -66.3)" fill="#bfbfbf"/>
            <path id="Trazado_724331" data-name="Trazado 724331" d="M82.581,173.419H77.859a1.157,1.157,0,0,1,0-2.314h4.722a1.157,1.157,0,0,1,0,2.314" transform="translate(-32.335 -72.131)" fill="#bfbfbf"/>
            <g id="Grupo_1012588" data-name="Grupo 1012588" transform="translate(44.367 74.968)" opacity="0.7">
              <g id="Grupo_1012587" data-name="Grupo 1012587">
                <g id="Grupo_1012586" data-name="Grupo 1012586" clip-path="url(#clip-path-5)">
                  <path id="Trazado_724332" data-name="Trazado 724332" d="M82.581,131.919H77.859a1.157,1.157,0,0,1,0-2.314h4.722a1.157,1.157,0,0,1,0,2.314" transform="translate(-76.702 -129.605)" fill="#bfbfbf"/>
                </g>
              </g>
            </g>
            <g id="Grupo_1012591" data-name="Grupo 1012591" transform="translate(44.367 82.97)" opacity="0.7">
              <g id="Grupo_1012590" data-name="Grupo 1012590">
                <g id="Grupo_1012589" data-name="Grupo 1012589" clip-path="url(#clip-path-5)">
                  <path id="Trazado_724333" data-name="Trazado 724333" d="M82.581,145.752H77.859a1.157,1.157,0,0,1,0-2.314h4.722a1.157,1.157,0,0,1,0,2.314" transform="translate(-76.702 -143.438)" fill="#bfbfbf"/>
                </g>
              </g>
            </g>
            <g id="Grupo_1012594" data-name="Grupo 1012594" transform="translate(44.367 90.971)" opacity="0.7">
              <g id="Grupo_1012593" data-name="Grupo 1012593">
                <g id="Grupo_1012592" data-name="Grupo 1012592" clip-path="url(#clip-path-5)">
                  <path id="Trazado_724334" data-name="Trazado 724334" d="M82.581,159.585H77.859a1.157,1.157,0,1,1,0-2.314h4.722a1.157,1.157,0,1,1,0,2.314" transform="translate(-76.702 -157.271)" fill="#bfbfbf"/>
                </g>
              </g>
            </g>
            <g id="Grupo_1012597" data-name="Grupo 1012597" transform="translate(44.367 98.974)" opacity="0.7">
              <g id="Grupo_1012596" data-name="Grupo 1012596">
                <g id="Grupo_1012595" data-name="Grupo 1012595" clip-path="url(#clip-path-5)">
                  <path id="Trazado_724335" data-name="Trazado 724335" d="M82.581,173.419H77.859a1.157,1.157,0,0,1,0-2.314h4.722a1.157,1.157,0,0,1,0,2.314" transform="translate(-76.702 -171.105)" fill="#bfbfbf"/>
                </g>
              </g>
            </g>
            <path id="Trazado_724336" data-name="Trazado 724336" d="M177.252,118.085H77.859a1.157,1.157,0,1,1,0-2.314h99.394a1.157,1.157,0,0,1,0,2.314" transform="translate(-32.335 -48.805)" fill="#bfbfbf"/>
            <path id="Trazado_724337" data-name="Trazado 724337" d="M291.232,90.419H281.095a1.157,1.157,0,0,1,0-2.314h10.137a1.157,1.157,0,0,1,0,2.314" transform="translate(-118.011 -37.142)" fill="#bfbfbf"/>
            <path id="Trazado_724338" data-name="Trazado 724338" d="M266.7,90.419h-9.681a1.157,1.157,0,1,1,0-2.314H266.7a1.157,1.157,0,0,1,0,2.314" transform="translate(-107.864 -37.142)" fill="#bfbfbf"/>
            <path id="Trazado_724339" data-name="Trazado 724339" d="M177.252,90.419H77.859a1.157,1.157,0,0,1,0-2.314h99.394a1.157,1.157,0,1,1,0,2.314" transform="translate(-32.335 -37.142)" fill="#bfbfbf"/>
            <path id="Trazado_724340" data-name="Trazado 724340" d="M291.232,131.919H281.094a1.157,1.157,0,1,1,0-2.314h10.138a1.157,1.157,0,0,1,0,2.314" transform="translate(-118.011 -54.637)" fill="#999"/>
            <path id="Trazado_724341" data-name="Trazado 724341" d="M198.412,131.919H95.023a1.157,1.157,0,0,1,0-2.314H198.412a1.157,1.157,0,0,1,0,2.314" transform="translate(-39.57 -54.637)" fill="#999"/>
            <path id="Trazado_724342" data-name="Trazado 724342" d="M124.716,145.752H95.023a1.157,1.157,0,0,1,0-2.314h29.693a1.157,1.157,0,0,1,0,2.314" transform="translate(-39.57 -60.468)" fill="#999"/>
            <path id="Trazado_724343" data-name="Trazado 724343" d="M124.716,159.585H95.023a1.157,1.157,0,1,1,0-2.314h29.693a1.157,1.157,0,0,1,0,2.314" transform="translate(-39.57 -66.3)" fill="#999"/>
            <path id="Trazado_724344" data-name="Trazado 724344" d="M124.716,173.419H95.023a1.157,1.157,0,0,1,0-2.314h29.693a1.157,1.157,0,0,1,0,2.314" transform="translate(-39.57 -72.131)" fill="#999"/>
          </g>
        </g>
        <g id="Grupo_1012607" data-name="Grupo 1012607">
          <g id="Grupo_1012606" data-name="Grupo 1012606" clip-path="url(#clip-path)">
            <path id="Trazado_724345" data-name="Trazado 724345" d="M111.945,351.594s-3.034,5.222-1.839,5.41,3.694-4.326,3.694-4.326l6.854-1.816-5.163-.533Z" transform="translate(-46.299 -147.686)" fill="#fff"/>
            <path id="Trazado_724346" data-name="Trazado 724346" d="M111.945,351.594s-3.034,5.222-1.839,5.41,3.694-4.326,3.694-4.326l6.854-1.816-5.163-.533Z" transform="translate(-46.299 -147.686)" fill="none" stroke="#263238" stroke-linecap="round" stroke-linejoin="round" stroke-width="1"/>
            <g id="Grupo_1012602" data-name="Grupo 1012602" transform="translate(63.239 202.355)" opacity="0.3">
              <g id="Grupo_1012601" data-name="Grupo 1012601">
                <g id="Grupo_1012600" data-name="Grupo 1012600" clip-path="url(#clip-path-10)">
                  <path id="Trazado_724347" data-name="Trazado 724347" d="M111.945,351.594s-3.034,5.222-1.839,5.41,3.694-4.326,3.694-4.326l6.854-1.816-5.163-.533Z" transform="translate(-109.538 -350.041)"/>
                  <path id="Trazado_724348" data-name="Trazado 724348" d="M111.945,351.594s-3.034,5.222-1.839,5.41,3.694-4.326,3.694-4.326l6.854-1.816-5.163-.533Z" transform="translate(-109.538 -350.041)" fill="none" stroke="#263238" stroke-linecap="round" stroke-linejoin="round" stroke-width="1"/>
                </g>
              </g>
            </g>
            <path id="Trazado_724349" data-name="Trazado 724349" d="M110.905,346.175s-4.243-1.011-5.415.983-4.607,7.892-3.319,8.568,2.41-1.506,2.41-1.506Z" transform="translate(-42.952 -145.827)" fill="#fff"/>
            <path id="Trazado_724350" data-name="Trazado 724350" d="M110.905,346.175s-4.243-1.011-5.415.983-4.607,7.892-3.319,8.568,2.41-1.506,2.41-1.506Z" transform="translate(-42.952 -145.827)" fill="none" stroke="#263238" stroke-linecap="round" stroke-linejoin="round" stroke-width="1"/>
            <path id="Trazado_724351" data-name="Trazado 724351" d="M128.814,351.674a19.3,19.3,0,0,1-8.7.914l-4.831,1.605s-4.246,2.091-6.221,1.037,5.033-3.379,5.033-3.379,4.714-2.04,3.306-2.53-6.725-.4-7.771.4-3.785,5.994-5.761,5.7.835-3.124,1.546-4.212,2.3-5.429,5.532-5.61,14.094.376,14.094.376l12.778-1.366,3.015,7.268Z" transform="translate(-43.495 -145.275)" fill="#fff"/>
            <path id="Trazado_724352" data-name="Trazado 724352" d="M128.814,351.674a19.3,19.3,0,0,1-8.7.914l-4.831,1.605s-4.246,2.091-6.221,1.037,5.033-3.379,5.033-3.379,4.714-2.04,3.306-2.53-6.725-.4-7.771.4-3.785,5.994-5.761,5.7.835-3.124,1.546-4.212,2.3-5.429,5.532-5.61,14.094.376,14.094.376l12.778-1.366,3.015,7.268Z" transform="translate(-43.495 -145.275)" fill="none" stroke="#263238" stroke-linecap="round" stroke-linejoin="round" stroke-width="1"/>
            <path id="Trazado_724353" data-name="Trazado 724353" d="M157.839,351.447a2.051,2.051,0,0,0,2.436-.038,2.125,2.125,0,0,0,2.317-.425c.934-1.028,1.016-10.009-1.567-11.021-.745-.292-2.606-.261-2.912.78a1.369,1.369,0,0,0-1.878,1.17c-.255,1.62,1.354,3.127.815,7.787a1.837,1.837,0,0,0,.788,1.746" transform="translate(-65.852 -143.249)" fill="#92e3a9"/>
            <path id="Trazado_724354" data-name="Trazado 724354" d="M157.839,351.447a2.051,2.051,0,0,0,2.436-.038,2.125,2.125,0,0,0,2.317-.425c.934-1.028,1.016-10.009-1.567-11.021-.745-.292-2.606-.261-2.912.78a1.369,1.369,0,0,0-1.878,1.17c-.255,1.62,1.354,3.127.815,7.787A1.837,1.837,0,0,0,157.839,351.447Z" transform="translate(-65.852 -143.249)" fill="none" stroke="#263238" stroke-linecap="round" stroke-linejoin="round" stroke-width="1"/>
            <g id="Grupo_1012605" data-name="Grupo 1012605" transform="translate(90.068 196.266)" opacity="0.3">
              <g id="Grupo_1012604" data-name="Grupo 1012604">
                <g id="Grupo_1012603" data-name="Grupo 1012603" clip-path="url(#clip-path-11)">
                  <path id="Trazado_724355" data-name="Trazado 724355" d="M157.839,351.447a2.051,2.051,0,0,0,2.436-.038,2.125,2.125,0,0,0,2.317-.425c.934-1.028,1.016-10.009-1.567-11.021-.745-.292-2.606-.261-2.912.78a1.369,1.369,0,0,0-1.878,1.17c-.255,1.62,1.354,3.127.815,7.787a1.837,1.837,0,0,0,.788,1.746" transform="translate(-155.919 -339.515)"/>
                  <path id="Trazado_724356" data-name="Trazado 724356" d="M157.839,351.447a2.051,2.051,0,0,0,2.436-.038,2.125,2.125,0,0,0,2.317-.425c.934-1.028,1.016-10.009-1.567-11.021-.745-.292-2.606-.261-2.912.78a1.369,1.369,0,0,0-1.878,1.17c-.255,1.62,1.354,3.127.815,7.787A1.837,1.837,0,0,0,157.839,351.447Z" transform="translate(-155.919 -339.515)" fill="none" stroke="#263238" stroke-linecap="round" stroke-linejoin="round" stroke-width="1"/>
                </g>
              </g>
            </g>
            <path id="Trazado_724357" data-name="Trazado 724357" d="M163.011,351.14a17.35,17.35,0,0,0-1.527-7.1" transform="translate(-68.076 -145.036)" fill="none" stroke="#263238" stroke-linecap="round" stroke-linejoin="round" stroke-width="1"/>
            <path id="Trazado_724358" data-name="Trazado 724358" d="M225.808,316.746c-.428,3.291-.914,6.854-1.469,10.724H174.685l.237-6.4c-2.967.717-8.734.278-8.734.278v-9.457c3.505-1.984,4.026-1.429,4.026-1.429s.179-23.08,2.279-28.841a11.619,11.619,0,0,1,4.107-5.4v-.006a14.061,14.061,0,0,1,1.568-1.012.849.849,0,0,0,.075-.046c.578-.307,1.278-.63,2.077-.966.069-.029.145-.058.22-.087,7.774-3.176,24.74-6.86,40.548-.1,1.1.474,10.128,4.784,10.9,11.013.44,3.552-1.978,21.217-6.178,31.733" transform="translate(-70.059 -113.906)" fill="#362b9e"/>
          </g>
        </g>
        <g id="Grupo_1012618" data-name="Grupo 1012618" transform="translate(96.129 156.294)">
          <g id="Grupo_1012617" data-name="Grupo 1012617" clip-path="url(#clip-path-12)">
            <g id="Grupo_1012610" data-name="Grupo 1012610" transform="translate(41 18.093)" opacity="0.2">
              <g id="Grupo_1012609" data-name="Grupo 1012609">
                <g id="Grupo_1012608" data-name="Grupo 1012608" clip-path="url(#clip-path-13)">
                  <path id="Trazado_724359" data-name="Trazado 724359" d="M247.821,301.479,242.87,324.46c-.769-.607-2.985-.648-5.8-.382a9.056,9.056,0,0,0,1.5-2.244c7.485-16.2,9.122-20.031,9.255-20.355" transform="translate(-237.068 -301.479)"/>
                </g>
              </g>
            </g>
            <g id="Grupo_1012613" data-name="Grupo 1012613" transform="translate(8.497 43.342)" opacity="0.2">
              <g id="Grupo_1012612" data-name="Grupo 1012612">
                <g id="Grupo_1012611" data-name="Grupo 1012611" clip-path="url(#clip-path-14)">
                  <path id="Trazado_724360" data-name="Trazado 724360" d="M233.18,345.129a101.775,101.775,0,0,0-2.649,13.929H180.878l.457-7.369c3.095-.44,8.526-.891,14.166-1.891a12.588,12.588,0,0,1,.133,5.385s22.837,2.834,30.5.989c2.186-.526,4.165-3.581,5.86-7.786.411-1.024.8-2.117,1.186-3.257" transform="translate(-180.878 -345.129)"/>
                </g>
              </g>
            </g>
            <g id="Grupo_1012616" data-name="Grupo 1012616" transform="translate(-0.003 16.867)" opacity="0.3">
              <g id="Grupo_1012615" data-name="Grupo 1012615">
                <g id="Grupo_1012614" data-name="Grupo 1012614" clip-path="url(#clip-path-15)">
                  <path id="Trazado_724361" data-name="Trazado 724361" d="M170.806,323.193s-1.112-.991-4.623,1v9.457s5.787-.207,8.056-1.437c1.953,1.208,1.606-20.926,1.953-32.849-2.834.779-3.061,6.173-3.5,11.247a102.044,102.044,0,0,1-1.887,12.586" transform="translate(-166.183 -299.36)"/>
                </g>
              </g>
            </g>
          </g>
        </g>
        <g id="Grupo_1012620" data-name="Grupo 1012620">
          <g id="Grupo_1012619" data-name="Grupo 1012619" clip-path="url(#clip-path)">
            <path id="Trazado_724363" data-name="Trazado 724363" d="M225.808,316.746c-.428,3.291-.914,6.854-1.469,10.724H174.685l.237-6.4c-2.967.717-8.734.278-8.734.278v-9.457c3.505-1.984,4.026-1.429,4.026-1.429s.179-23.08,2.279-28.841a11.619,11.619,0,0,1,4.107-5.4v-.006a14.061,14.061,0,0,1,1.568-1.012.849.849,0,0,0,.075-.046c.578-.307,1.278-.63,2.077-.966.069-.029.145-.058.22-.087,7.774-3.176,24.74-6.86,40.548-.1,1.1.474,10.128,4.784,10.9,11.013C232.425,288.565,230.007,306.23,225.808,316.746Z" transform="translate(-70.059 -113.906)" fill="none" stroke="#263238" stroke-linecap="round" stroke-linejoin="round" stroke-width="1"/>
            <path id="Trazado_724364" data-name="Trazado 724364" d="M247.688,295.809c.017.139.035.3.04.48.255,4.442-2.163,21.206-6.224,31.305-1.695,4.205-3.673,7.259-5.86,7.786-7.664,1.845-30.5-.989-30.5-.989a12.657,12.657,0,0,0-1.706-9.081s22.42-5.484,25.255-3.239l4.963-23" transform="translate(-85.762 -124.702)" fill="none" stroke="#263238" stroke-linecap="round" stroke-linejoin="round" stroke-width="1"/>
            <path id="Trazado_724365" data-name="Trazado 724365" d="M249.8,343.375a10.171,10.171,0,0,1,3.972,3.4" transform="translate(-105.305 -144.754)" fill="none" stroke="#263238" stroke-linecap="round" stroke-linejoin="round" stroke-width="1"/>
            <path id="Trazado_724366" data-name="Trazado 724366" d="M146.348,344.729s-2.089-.44-2.94.511c-.889.993-4.494,6.428-3.263,7.472s3.736-4.682,3.736-4.682Z" transform="translate(-58.973 -145.282)" fill="#fff"/>
            <path id="Trazado_724367" data-name="Trazado 724367" d="M146.348,344.729s-2.089-.44-2.94.511c-.889.993-4.494,6.428-3.263,7.472s3.736-4.682,3.736-4.682Z" transform="translate(-58.973 -145.282)" fill="none" stroke="#263238" stroke-linecap="round" stroke-linejoin="round" stroke-width="1"/>
            <path id="Trazado_724368" data-name="Trazado 724368" d="M150.942,344.383s-4.645-1-5.685.421-6.893,8.749-3.252,8.985l5.816-6.526Z" transform="translate(-59.366 -145.035)" fill="#fff"/>
            <path id="Trazado_724369" data-name="Trazado 724369" d="M150.942,344.383s-4.645-1-5.685.421-6.893,8.749-3.252,8.985l5.816-6.526Z" transform="translate(-59.366 -145.035)" fill="none" stroke="#263238" stroke-linecap="round" stroke-linejoin="round" stroke-width="1"/>
            <path id="Trazado_724370" data-name="Trazado 724370" d="M165.747,356.2s-4.772,1.041-6.711,1.419-5.533,2.884-7.661,1.891,6.952-4.682,6.952-4.682l3.121-1.256Z" transform="translate(-63.678 -149.052)" fill="#bfbfbf"/>
            <path id="Trazado_724371" data-name="Trazado 724371" d="M165.747,356.2s-4.772,1.041-6.711,1.419-5.533,2.884-7.661,1.891,6.952-4.682,6.952-4.682l3.121-1.256Z" transform="translate(-63.678 -149.052)" fill="none" stroke="#263238" stroke-linecap="round" stroke-linejoin="round" stroke-width="1"/>
            <path id="Trazado_724372" data-name="Trazado 724372" d="M183.136,304.789l.2-5.429" transform="translate(-77.203 -126.199)" fill="none" stroke="#263238" stroke-linecap="round" stroke-linejoin="round" stroke-width="1"/>
            <path id="Trazado_724373" data-name="Trazado 724373" d="M180.878,345.515c.885-10.95,1.214-32.511,1.214-32.511" transform="translate(-76.251 -131.951)" fill="none" stroke="#263238" stroke-linecap="round" stroke-linejoin="round" stroke-width="1"/>
            <path id="Trazado_724374" data-name="Trazado 724374" d="M179.444,346.447H162.988s-12.768-3.83-14.9-.851-6.668,7.519-5.391,8.37,6.668-5.32,6.668-5.32l4.682.044s-3.972,1.729-4.824,2.58-2.7,3.263-1.7,3.688,4.114-2.695,4.114-2.695,4.681-1.135,5.816-.567a16.131,16.131,0,0,0,11.775,1.135l12.557,1.56Z" transform="translate(-60.064 -145.212)" fill="#fff"/>
            <path id="Trazado_724375" data-name="Trazado 724375" d="M179.444,346.447H162.988s-12.768-3.83-14.9-.851-6.668,7.519-5.391,8.37,6.668-5.32,6.668-5.32l4.682.044s-3.972,1.729-4.824,2.58-2.7,3.263-1.7,3.688,4.114-2.695,4.114-2.695,4.681-1.135,5.816-.567a16.131,16.131,0,0,0,11.775,1.135l12.557,1.56Z" transform="translate(-60.064 -145.212)" fill="none" stroke="#263238" stroke-linecap="round" stroke-linejoin="round" stroke-width="1"/>
            <path id="Trazado_724376" data-name="Trazado 724376" d="M252.45,309.4a24.376,24.376,0,0,1-.052-7.965" transform="translate(-106.274 -127.075)" fill="none" stroke="#263238" stroke-linecap="round" stroke-linejoin="round" stroke-width="1"/>
            <path id="Trazado_724377" data-name="Trazado 724377" d="M259.16,288.448s7.984-10.518,12.018,2.573" transform="translate(-109.252 -119.914)" fill="none" stroke="#263238" stroke-linecap="round" stroke-linejoin="round" stroke-width="1"/>
            <path id="Trazado_724378" data-name="Trazado 724378" d="M200.218,344.9a2.051,2.051,0,0,1,2.369-.569,2.125,2.125,0,0,1,2.351-.163c1.16.764,3.469,9.442,1.219,11.064-.649.468-2.459.9-3.014-.032a1.368,1.368,0,0,1-2.109-.667c-.65-1.506.534-3.365-1.145-7.746a1.836,1.836,0,0,1,.33-1.887" transform="translate(-84.213 -144.96)" fill="#362b9e"/>
          </g>
        </g>
        <g id="Grupo_1012627" data-name="Grupo 1012627">
          <g id="Grupo_1012626" data-name="Grupo 1012626" clip-path="url(#clip-path)">
            <path id="Trazado_724381" data-name="Trazado 724381" d="M200.218,344.9a2.051,2.051,0,0,1,2.369-.569,2.125,2.125,0,0,1,2.351-.163c1.16.764,3.469,9.442,1.219,11.064-.649.468-2.459.9-3.014-.032a1.368,1.368,0,0,1-2.109-.667c-.65-1.506.534-3.365-1.145-7.746A1.836,1.836,0,0,1,200.218,344.9Z" transform="translate(-84.213 -144.96)" fill="none" stroke="#263238" stroke-linecap="round" stroke-linejoin="round" stroke-width="1"/>
            <path id="Trazado_724382" data-name="Trazado 724382" d="M206.866,353.441a14.454,14.454,0,0,1,.047,4.07" transform="translate(-87.207 -148.998)" fill="none" stroke="#263238" stroke-linecap="round" stroke-linejoin="round" stroke-width="1"/>
            <path id="Trazado_724383" data-name="Trazado 724383" d="M217.734,307.665a1.127,1.127,0,1,1-1.06-1.19,1.126,1.126,0,0,1,1.06,1.19" transform="translate(-90.839 -129.198)" fill="#fff"/>
            <path id="Trazado_724384" data-name="Trazado 724384" d="M217.734,307.665a1.127,1.127,0,1,1-1.06-1.19A1.126,1.126,0,0,1,217.734,307.665Z" transform="translate(-90.839 -129.198)" fill="none" stroke="#263238" stroke-linecap="round" stroke-linejoin="round" stroke-width="1"/>
            <path id="Trazado_724385" data-name="Trazado 724385" d="M216.331,337.858a1.127,1.127,0,1,1-1.06-1.19,1.128,1.128,0,0,1,1.06,1.19" transform="translate(-90.248 -141.926)" fill="#fff"/>
            <path id="Trazado_724386" data-name="Trazado 724386" d="M216.331,337.858a1.127,1.127,0,1,1-1.06-1.19A1.128,1.128,0,0,1,216.331,337.858Z" transform="translate(-90.248 -141.926)" fill="none" stroke="#263238" stroke-linecap="round" stroke-linejoin="round" stroke-width="1"/>
            <path id="Trazado_724387" data-name="Trazado 724387" d="M224.371,263.052l-.827-11.653-12.059,2.792-.642,9.36c-.761.095-1.485.2-2.192.31l2.948,7.071,5.766.757,9.221-8.5c-.749-.056-1.489-.1-2.216-.139" transform="translate(-87.96 -105.98)" fill="#fff"/>
          </g>
        </g>
        <g id="Grupo_1012629" data-name="Grupo 1012629" transform="translate(120.692 145.419)">
          <g id="Grupo_1012628" data-name="Grupo 1012628" clip-path="url(#clip-path-18)">
            <path id="Trazado_724388" data-name="Trazado 724388" d="M213.242,258.32c.079,8.29,9.769,5.747,12.449-2.534l-.212-4.386-12.059,2.792Z" transform="translate(-210.587 -251.399)" fill="#263238"/>
          </g>
        </g>
        <g id="Grupo_1012631" data-name="Grupo 1012631">
          <g id="Grupo_1012630" data-name="Grupo 1012630" clip-path="url(#clip-path)">
            <path id="Trazado_724390" data-name="Trazado 724390" d="M224.371,263.052l-.827-11.653-12.059,2.792-.642,9.36c-.761.095-1.485.2-2.192.31l2.948,7.071,5.766.757,9.221-8.5C225.839,263.135,225.1,263.087,224.371,263.052Z" transform="translate(-87.96 -105.98)" fill="none" stroke="#263238" stroke-linecap="round" stroke-linejoin="round" stroke-width="1"/>
            <path id="Trazado_724391" data-name="Trazado 724391" d="M196.566,216.411s-4.4-7.625-5.058-11.646c-2.015-12.419,6.952-8.228,6.952-8.228s6.339-5.675,14.235-4.682,9.976,4.353,15.289,6.418c0,0-3.989,20.253-9.1,24.793s-22.323-6.654-22.323-6.654" transform="translate(-80.608 -80.83)" fill="#263238"/>
            <path id="Trazado_724392" data-name="Trazado 724392" d="M196.566,216.411s-4.4-7.625-5.058-11.646c-2.015-12.419,6.952-8.228,6.952-8.228s6.339-5.675,14.235-4.682,9.976,4.353,15.289,6.418c0,0-3.989,20.253-9.1,24.793S196.566,216.411,196.566,216.411Z" transform="translate(-80.608 -80.83)" fill="none" stroke="#263238" stroke-linecap="round" stroke-linejoin="round" stroke-width="1"/>
            <path id="Trazado_724393" data-name="Trazado 724393" d="M204.2,197.019s-1.986-4.824,3.05-8.512" transform="translate(-85.918 -79.468)" fill="none" stroke="#263238" stroke-linecap="round" stroke-linejoin="round" stroke-width="1"/>
            <path id="Trazado_724394" data-name="Trazado 724394" d="M219.46,197.616c5.895-2.606,8.522,1.752,15.1,2.9" transform="translate(-92.516 -82.963)" fill="none" stroke="#bfbfbf" stroke-miterlimit="10" stroke-width="1"/>
            <path id="Trazado_724395" data-name="Trazado 724395" d="M211.589,201.976a7.429,7.429,0,0,1,1.912-1.709" transform="translate(-89.198 -84.425)" fill="none" stroke="#bfbfbf" stroke-miterlimit="10" stroke-width="1"/>
            <path id="Trazado_724396" data-name="Trazado 724396" d="M222.048,205.834s2.55-2.45,7.611.733a13.2,13.2,0,0,0,5.053,1.992" transform="translate(-93.607 -86.392)" fill="none" stroke="#bfbfbf" stroke-miterlimit="10" stroke-width="1"/>
            <path id="Trazado_724397" data-name="Trazado 724397" d="M220.381,213.373c-7.338.189-14.912-3.121-14.912-3.121a11.27,11.27,0,0,0-5.821,10.828c1.562,16.022,3.674,20.288,11.16,20.288,7.438,0,13.571-8.076,14.058-19.635-2.832.134-4.486-8.36-4.486-8.36" transform="translate(-84.142 -88.634)" fill="#fff"/>
            <path id="Trazado_724398" data-name="Trazado 724398" d="M220.381,213.373c-7.338.189-14.912-3.121-14.912-3.121a11.27,11.27,0,0,0-5.821,10.828c1.562,16.022,3.674,20.288,11.16,20.288,7.438,0,13.571-8.076,14.058-19.635C222.034,221.867,220.381,213.373,220.381,213.373Z" transform="translate(-84.142 -88.634)" fill="none" stroke="#263238" stroke-linecap="round" stroke-linejoin="round" stroke-width="1"/>
            <path id="Trazado_724399" data-name="Trazado 724399" d="M241.884,228.352a1.937,1.937,0,0,1,1.5-.85c1.332,0,2.317,1.75,1.845,3.9-.463,2.1-1.08,3.9-2.412,3.9a1.5,1.5,0,0,1-1.366-1.017" transform="translate(-101.788 -95.906)" fill="#fff"/>
            <path id="Trazado_724400" data-name="Trazado 724400" d="M241.884,228.352a1.937,1.937,0,0,1,1.5-.85c1.332,0,2.317,1.75,1.845,3.9-.463,2.1-1.08,3.9-2.412,3.9a1.5,1.5,0,0,1-1.366-1.017" transform="translate(-101.788 -95.906)" fill="none" stroke="#263238" stroke-linecap="round" stroke-linejoin="round" stroke-width="1"/>
            <path id="Trazado_724401" data-name="Trazado 724401" d="M213.774,236.867s.9,1.227-.821,2.148-3.088.9-3.526-.15,1.472-9.821,1.472-9.821" transform="translate(-88.259 -96.556)" fill="none" stroke="#263238" stroke-linecap="round" stroke-linejoin="round" stroke-width="1"/>
            <path id="Trazado_724402" data-name="Trazado 724402" d="M205.582,230.711c-.926-.469-4.633-2.088-8.144.121l.226,3.4a9.628,9.628,0,0,0,4.269.711,11.946,11.946,0,0,0,2.9-.3" transform="translate(-83.232 -96.833)" fill="none" stroke="#263238" stroke-linecap="round" stroke-linejoin="round" stroke-width="1"/>
            <path id="Trazado_724403" data-name="Trazado 724403" d="M216.829,230.838l1.076,3.546s.44.578,3.419.578,3.957-.711,3.957-.711l-.087-3.4S220.872,228.287,216.829,230.838Z" transform="translate(-91.407 -96.836)" fill="none" stroke="#263238" stroke-linecap="round" stroke-linejoin="round" stroke-width="1"/>
            <line id="Línea_379" data-name="Línea 379" x2="2.834" transform="translate(122.587 134.002)" fill="none" stroke="#263238" stroke-linecap="round" stroke-linejoin="round" stroke-width="1"/>
            <path id="Trazado_724404" data-name="Trazado 724404" d="M212.971,250.124a7.793,7.793,0,0,0,4.715-.143,6.57,6.57,0,0,0,2.933-2.211" transform="translate(-89.781 -104.451)" fill="none" stroke="#263238" stroke-linecap="round" stroke-linejoin="round" stroke-width="1"/>
            <path id="Trazado_724405" data-name="Trazado 724405" d="M221.116,225.415c3.721-1.535,5.362.307,5.362.307" transform="translate(-93.214 -94.769)" fill="none" stroke="#263238" stroke-linecap="round" stroke-linejoin="round" stroke-width="1"/>
            <path id="Trazado_724406" data-name="Trazado 724406" d="M204.148,225.332a3.758,3.758,0,0,1,3.977.458" transform="translate(-86.061 -94.836)" fill="none" stroke="#263238" stroke-linecap="round" stroke-linejoin="round" stroke-width="1"/>
            <path id="Trazado_724407" data-name="Trazado 724407" d="M223.226,230.332c.345,0,.589.551.589,1.253s-.288,1.252-.626,1.252-.582-.576-.582-1.252.275-1.253.62-1.253" transform="translate(-93.842 -97.099)" fill="#263238"/>
            <path id="Trazado_724408" data-name="Trazado 724408" d="M207.254,230.062c.338,0,.582.551.582,1.253s-.288,1.252-.626,1.252-.582-.576-.582-1.252c.019-.677.288-1.253.626-1.253" transform="translate(-87.107 -96.986)" fill="#263238"/>
            <path id="Trazado_724409" data-name="Trazado 724409" d="M197.045,219.021a9.6,9.6,0,0,0,.577,1.991" transform="translate(-83.067 -92.331)" fill="none" stroke="#bfbfbf" stroke-miterlimit="10" stroke-width="1"/>
            <path id="Trazado_724410" data-name="Trazado 724410" d="M201.177,205.64c-3.656-.984-5.1,1.214-4.832,4.681" transform="translate(-82.758 -86.591)" fill="none" stroke="#bfbfbf" stroke-miterlimit="10" stroke-width="1"/>
            <path id="Trazado_724411" data-name="Trazado 724411" d="M209.291,271.163l4.456,8.016,10.7-8.442,3.287.462-6.92,12.236a.943.943,0,0,1-1.319.327l-5.916-3.733-4.614,2.82a.942.942,0,0,1-1.428-.7l-1.146-10.441Z" transform="translate(-87.005 -114.133)" fill="#251e6e"/>
          </g>
        </g>
        <g id="Grupo_1012638" data-name="Grupo 1012638">
          <g id="Grupo_1012637" data-name="Grupo 1012637" clip-path="url(#clip-path)">
            <path id="Trazado_724414" data-name="Trazado 724414" d="M209.291,271.163l4.456,8.016,10.7-8.442,3.287.462-6.92,12.236a.943.943,0,0,1-1.319.327l-5.916-3.733-4.614,2.82a.942.942,0,0,1-1.428-.7l-1.146-10.441Z" transform="translate(-87.005 -114.133)" fill="none" stroke="#263238" stroke-linecap="round" stroke-linejoin="round" stroke-width="1"/>
            <path id="Trazado_724415" data-name="Trazado 724415" d="M125.008,366.383H95.926a1.14,1.14,0,0,1-1.14-1.14v-1.6a1.14,1.14,0,0,1,1.14-1.14h29.082Z" transform="translate(-39.958 -152.819)" fill="#263238"/>
            <path id="Trazado_724416" data-name="Trazado 724416" d="M125.008,366.383H95.926a1.14,1.14,0,0,1-1.14-1.14v-1.6a1.14,1.14,0,0,1,1.14-1.14h29.082Z" transform="translate(-39.958 -152.819)" fill="none" stroke="#263238" stroke-linecap="round" stroke-linejoin="round" stroke-width="1"/>
            <path id="Trazado_724417" data-name="Trazado 724417" d="M172.06,366.383H147.033v-3.878l25.079,1.654a.792.792,0,0,1,.74.791v.641a.792.792,0,0,1-.792.793" transform="translate(-61.984 -152.819)" fill="#362b9e"/>
            <path id="Trazado_724418" data-name="Trazado 724418" d="M172.06,366.383H147.033v-3.878l25.079,1.654a.792.792,0,0,1,.74.791v.641A.792.792,0,0,1,172.06,366.383Z" transform="translate(-61.984 -152.819)" fill="none" stroke="#263238" stroke-linecap="round" stroke-linejoin="round" stroke-width="1"/>
            <path id="Trazado_724419" data-name="Trazado 724419" d="M231.313,231.1l6.3-2.124-.747.942" transform="translate(-97.513 -96.526)" fill="none" stroke="#263238" stroke-linecap="round" stroke-linejoin="round" stroke-width="1"/>
          </g>
        </g>
        <g id="Grupo_1012640" data-name="Grupo 1012640">
          <g id="Grupo_1012639" data-name="Grupo 1012639" clip-path="url(#clip-path)">
            <path id="Trazado_724420" data-name="Trazado 724420" d="M299.969,227.834s-7.246-22.127,10.978-23.679,20.375,15.433,22.046,23.949c1.306,6.656,13.755,18.834,4.121,27.922-10.058,9.489-34.548,6.323-35.956-7.169s-.126-16.254-1.189-21.023" transform="translate(-125.856 -86.022)" fill="#263238"/>
            <path id="Trazado_724421" data-name="Trazado 724421" d="M299.969,227.834s-7.246-22.127,10.978-23.679,20.375,15.433,22.046,23.949c1.306,6.656,13.755,18.834,4.121,27.922-10.058,9.489-34.548,6.323-35.956-7.169S301.032,232.6,299.969,227.834Z" transform="translate(-125.856 -86.022)" fill="none" stroke="#263238" stroke-linecap="round" stroke-linejoin="round" stroke-width="1"/>
            <path id="Trazado_724422" data-name="Trazado 724422" d="M330.236,251.254s-.8,9.814,4.267,18.255a26.037,26.037,0,0,1-13.936.11,23.3,23.3,0,0,0-.428-7.8l-.242-1.069,5.172-4.474Z" transform="translate(-134.856 -105.919)" fill="#fff"/>
          </g>
        </g>
        <g id="Grupo_1012642" data-name="Grupo 1012642" transform="translate(185.039 145.335)">
          <g id="Grupo_1012641" data-name="Grupo 1012641" clip-path="url(#clip-path-22)">
            <path id="Trazado_724423" data-name="Trazado 724423" d="M316.129,257.679c.94,5.282,1.807,6.432,6.279,5.491,3.317-.7,6.145-5.674,6.305-9.289a48.871,48.871,0,0,1-.236-4.939l-5,6.358Z" transform="translate(-318.307 -250.28)" fill="#263238"/>
          </g>
        </g>
        <g id="Grupo_1012644" data-name="Grupo 1012644">
          <g id="Grupo_1012643" data-name="Grupo 1012643" clip-path="url(#clip-path)">
            <path id="Trazado_724425" data-name="Trazado 724425" d="M330.236,251.254s-.8,9.814,4.267,18.255a26.037,26.037,0,0,1-13.936.11,23.3,23.3,0,0,0-.428-7.8l-.242-1.069,5.172-4.474Z" transform="translate(-134.856 -105.919)" fill="none" stroke="#263238" stroke-linecap="round" stroke-linejoin="round" stroke-width="1"/>
            <path id="Trazado_724426" data-name="Trazado 724426" d="M242.214,346.656s-10.094-4.64-10.656-.8,1.9,9.737,11.143,6.831l19.392,2.556s3.321-6.613-.229-10.216c0,0-17.087,2.658-19.65,1.625" transform="translate(-97.584 -145.159)" fill="#fff"/>
            <path id="Trazado_724427" data-name="Trazado 724427" d="M242.214,346.656s-10.094-4.64-10.656-.8,1.9,9.737,11.143,6.831l19.392,2.556s3.321-6.613-.229-10.216C261.863,345.031,244.777,347.689,242.214,346.656Z" transform="translate(-97.584 -145.159)" fill="none" stroke="#263238" stroke-linecap="round" stroke-linejoin="round" stroke-width="1"/>
            <path id="Trazado_724428" data-name="Trazado 724428" d="M221.5,355.512s-1.6.512-1.833,1.569-.754,2.558-.139,2.563,1.358-2.1,1.358-2.1l1.555-.4Z" transform="translate(-92.423 -149.871)" fill="#fff"/>
            <path id="Trazado_724429" data-name="Trazado 724429" d="M221.5,355.512s-1.6.512-1.833,1.569-.754,2.558-.139,2.563,1.358-2.1,1.358-2.1l1.555-.4Z" transform="translate(-92.423 -149.871)" fill="none" stroke="#263238" stroke-linecap="round" stroke-linejoin="round" stroke-width="1"/>
            <rect id="Rectángulo_347186" data-name="Rectángulo 347186" width="10.549" height="15.028" transform="translate(129.155 196.691) rotate(-5.98)" fill="#fff"/>
            <rect id="Rectángulo_347187" data-name="Rectángulo 347187" width="10.549" height="15.028" transform="translate(129.155 196.691) rotate(-5.98)" fill="none" stroke="#263238" stroke-linecap="round" stroke-linejoin="round" stroke-width="1"/>
            <path id="Trazado_741860" data-name="Trazado 741860" d="M0,0H1.576V15.028H0Z" transform="translate(127.588 196.855) rotate(-5.981)" fill="#362b9e"/>
            <rect id="Rectángulo_347189" data-name="Rectángulo 347189" width="1.576" height="15.028" transform="translate(127.588 196.855) rotate(-5.981)" fill="none" stroke="#263238" stroke-linecap="round" stroke-linejoin="round" stroke-width="1"/>
            <path id="Trazado_724430" data-name="Trazado 724430" d="M235.055,334.39a2.287,2.287,0,0,0-2.034,2.51c.006.054.022.1.031.158l.53-.056.561-.059a1.186,1.186,0,1,1,1.844.676,1.028,1.028,0,0,0,.883.68,2.275,2.275,0,0,0-1.816-3.909" transform="translate(-98.228 -140.961)" fill="#fff"/>
            <path id="Trazado_724431" data-name="Trazado 724431" d="M235.055,334.39a2.287,2.287,0,0,0-2.034,2.51c.006.054.022.1.031.158l.53-.056.561-.059a1.186,1.186,0,1,1,1.844.676,1.028,1.028,0,0,0,.883.68,2.275,2.275,0,0,0-1.816-3.909Z" transform="translate(-98.228 -140.961)" fill="none" stroke="#263238" stroke-linecap="round" stroke-linejoin="round" stroke-width="1"/>
            <line id="Línea_380" data-name="Línea 380" y1="0.378" x2="3.611" transform="translate(131.133 199.411)" fill="none" stroke="#263238" stroke-linecap="round" stroke-linejoin="round" stroke-width="1"/>
            <line id="Línea_381" data-name="Línea 381" y1="0.735" x2="7.017" transform="translate(131.305 200.702)" fill="none" stroke="#263238" stroke-linecap="round" stroke-linejoin="round" stroke-width="1"/>
            <line id="Línea_382" data-name="Línea 382" y1="0.367" x2="3.509" transform="translate(131.478 202.717)" fill="none" stroke="#263238" stroke-linecap="round" stroke-linejoin="round" stroke-width="1"/>
            <line id="Línea_383" data-name="Línea 383" y1="0.614" x2="5.859" transform="translate(131.651 204.117)" fill="none" stroke="#263238" stroke-linecap="round" stroke-linejoin="round" stroke-width="1"/>
            <line id="Línea_384" data-name="Línea 384" y1="0.367" x2="3.508" transform="translate(131.823 206.011)" fill="none" stroke="#263238" stroke-linecap="round" stroke-linejoin="round" stroke-width="1"/>
            <line id="Línea_385" data-name="Línea 385" y1="0.806" x2="7.698" transform="translate(131.996 207.219)" fill="none" stroke="#263238" stroke-linecap="round" stroke-linejoin="round" stroke-width="1"/>
            <line id="Línea_386" data-name="Línea 386" y1="0.378" x2="3.611" transform="translate(132.168 209.294)" fill="none" stroke="#263238" stroke-linecap="round" stroke-linejoin="round" stroke-width="1"/>
            <path id="Trazado_724432" data-name="Trazado 724432" d="M231.7,334.742a2.287,2.287,0,0,0-2.034,2.51c.006.056.022.106.032.16l.53-.056v0l.561-.059a1.176,1.176,0,0,1-.033-.158,1.189,1.189,0,1,1,1.877.834,1.028,1.028,0,0,0,.883.68,2.275,2.275,0,0,0-1.816-3.909" transform="translate(-96.812 -141.109)" fill="#fff"/>
            <path id="Trazado_724433" data-name="Trazado 724433" d="M231.7,334.742a2.287,2.287,0,0,0-2.034,2.51c.006.056.022.106.032.16l.53-.056v0l.561-.059a1.176,1.176,0,0,1-.033-.158,1.189,1.189,0,1,1,1.877.834,1.028,1.028,0,0,0,.883.68,2.275,2.275,0,0,0-1.816-3.909Z" transform="translate(-96.812 -141.109)" fill="none" stroke="#263238" stroke-linecap="round" stroke-linejoin="round" stroke-width="1"/>
            <path id="Trazado_724434" data-name="Trazado 724434" d="M228.342,335.093a2.288,2.288,0,0,0-2.034,2.51c.006.054.022.1.031.158l.53-.056.561-.059a1.17,1.17,0,0,1-.033-.158,1.189,1.189,0,1,1,1.877.833,1.028,1.028,0,0,0,.883.68,2.275,2.275,0,0,0-1.816-3.909" transform="translate(-95.398 -141.257)" fill="#fff"/>
            <path id="Trazado_724435" data-name="Trazado 724435" d="M228.342,335.093a2.288,2.288,0,0,0-2.034,2.51c.006.054.022.1.031.158l.53-.056.561-.059a1.17,1.17,0,0,1-.033-.158,1.189,1.189,0,1,1,1.877.833,1.028,1.028,0,0,0,.883.68,2.275,2.275,0,0,0-1.816-3.909Z" transform="translate(-95.398 -141.257)" fill="none" stroke="#263238" stroke-linecap="round" stroke-linejoin="round" stroke-width="1"/>
            <path id="Trazado_724436" data-name="Trazado 724436" d="M224.985,335.445a2.287,2.287,0,0,0-2.034,2.51c.006.055.022.105.032.158l.53-.056.561-.059a1.186,1.186,0,1,1,1.844.676,1.029,1.029,0,0,0,.883.68,2.275,2.275,0,0,0-1.816-3.909" transform="translate(-93.982 -141.406)" fill="#fff"/>
            <path id="Trazado_724437" data-name="Trazado 724437" d="M224.985,335.445a2.287,2.287,0,0,0-2.034,2.51c.006.055.022.105.032.158l.53-.056.561-.059a1.186,1.186,0,1,1,1.844.676,1.029,1.029,0,0,0,.883.68,2.275,2.275,0,0,0-1.816-3.909Z" transform="translate(-93.982 -141.406)" fill="none" stroke="#263238" stroke-linecap="round" stroke-linejoin="round" stroke-width="1"/>
            <path id="Trazado_724438" data-name="Trazado 724438" d="M220.684,338.192a1.188,1.188,0,1,1,1.877.833,1.027,1.027,0,0,0,.883.68,2.287,2.287,0,1,0-3.152,0l-.136-1.3.561-.059a1.192,1.192,0,0,1-.033-.158" transform="translate(-92.567 -141.554)" fill="#fff"/>
            <path id="Trazado_724439" data-name="Trazado 724439" d="M220.684,338.192a1.188,1.188,0,1,1,1.877.833,1.027,1.027,0,0,0,.883.68,2.287,2.287,0,1,0-3.152,0l-.136-1.3.561-.059A1.192,1.192,0,0,1,220.684,338.192Z" transform="translate(-92.567 -141.554)" fill="none" stroke="#263238" stroke-linecap="round" stroke-linejoin="round" stroke-width="1"/>
            <path id="Trazado_724440" data-name="Trazado 724440" d="M218.346,345.707a5.179,5.179,0,0,0,.344.632,2.77,2.77,0,0,0,.414,2.356s.049,1.648.633,1.908,1.514.576,1.5.119-.291-1.849-1.34-2.155c0,0,1.209.241,1.072-.434s-.362-1.639-1.1-1.917l-.4-.176s.957.175.88-.551-.163-1.57-.711-1.775a3.718,3.718,0,0,0-.424-.124c-.812-.191-1.333,1.085-.864,2.118" transform="translate(-91.972 -144.836)" fill="#fff"/>
            <path id="Trazado_724441" data-name="Trazado 724441" d="M218.346,345.707a5.179,5.179,0,0,0,.344.632,2.77,2.77,0,0,0,.414,2.356s.049,1.648.633,1.908,1.514.576,1.5.119-.291-1.849-1.34-2.155c0,0,1.209.241,1.072-.434s-.362-1.639-1.1-1.917l-.4-.176s.957.175.88-.551-.163-1.57-.711-1.775a3.718,3.718,0,0,0-.424-.124C218.4,343.4,217.877,344.674,218.346,345.707Z" transform="translate(-91.972 -144.836)" fill="none" stroke="#263238" stroke-linecap="round" stroke-linejoin="round" stroke-width="1"/>
            <path id="Trazado_724442" data-name="Trazado 724442" d="M243.282,342.94a10.676,10.676,0,0,0-2.975-3.8c-1.85-1.3-2.535-3.836-3.288-3.22s-.069,3.3,1.1,4.218-.137,2.975,2.74,5.509" transform="translate(-99.785 -141.572)" fill="#fff"/>
            <path id="Trazado_724443" data-name="Trazado 724443" d="M243.282,342.94a10.676,10.676,0,0,0-2.975-3.8c-1.85-1.3-2.535-3.836-3.288-3.22s-.069,3.3,1.1,4.218-.137,2.975,2.74,5.509" transform="translate(-99.785 -141.572)" fill="none" stroke="#263238" stroke-linecap="round" stroke-linejoin="round" stroke-width="1"/>
            <path id="Trazado_724444" data-name="Trazado 724444" d="M327.692,327.7q-.382,2.36-.816,4.9H287.207a23.5,23.5,0,0,1,.671-3.465c-4.419,1.5-12.13-.827-12.13-.827.96-2.528.3-8.948.3-8.948l4.5-.954s1.868-19.563,3.291-25.168c1.51-5.946,9.771-12.439,37.552-10.522,0,0,12.819-.243,14.809,8.254,1.857,7.925-7.972,36.366-8.5,36.731" transform="translate(-116.245 -119.04)" fill="#362b9e"/>
          </g>
        </g>
        <g id="Grupo_1012652" data-name="Grupo 1012652" transform="translate(159.502 163.337)">
          <g id="Grupo_1012651" data-name="Grupo 1012651" clip-path="url(#clip-path-24)">
            <g id="Grupo_1012647" data-name="Grupo 1012647" transform="translate(1.846 17.632)" opacity="0.2">
              <g id="Grupo_1012646" data-name="Grupo 1012646">
                <g id="Grupo_1012645" data-name="Grupo 1012645" clip-path="url(#clip-path-25)">
                  <path id="Trazado_724445" data-name="Trazado 724445" d="M289.223,341.989c-3.072,1.041-7.728.237-10.285-.353a4.212,4.212,0,0,0,1.238-2.869c2.082-.324,4.165-3.633,5.536-18.672a17.119,17.119,0,0,1,1.909-7.236,20.958,20.958,0,0,0-.1,10.342c.5,2.019,2.059,6.878,2.2,8.891a37.408,37.408,0,0,1-.492,9.9" transform="translate(-278.938 -312.859)"/>
                </g>
              </g>
            </g>
            <g id="Grupo_1012650" data-name="Grupo 1012650" transform="translate(11.452 11.385)" opacity="0.2">
              <g id="Grupo_1012649" data-name="Grupo 1012649">
                <g id="Grupo_1012648" data-name="Grupo 1012648" clip-path="url(#clip-path-26)">
                  <path id="Trazado_724446" data-name="Trazado 724446" d="M336.032,336.008q-.373,2.36-.81,4.894H295.553c.711-2.175,2.458-12.529-.006-18.822-.1-.255,8.52-3.876,14.293-2.395,24.468,6.276,16.04-13.946,23.028-17.625L326.841,325.7l-3.291,1.047c7.126.44,5.067,11.123,5.067,11.123a10.34,10.34,0,0,0,7.416-1.863" transform="translate(-295.546 -302.059)"/>
                </g>
              </g>
            </g>
          </g>
        </g>
        <g id="Grupo_1012657" data-name="Grupo 1012657">
          <g id="Grupo_1012656" data-name="Grupo 1012656" clip-path="url(#clip-path)">
            <path id="Trazado_724448" data-name="Trazado 724448" d="M327.692,327.7q-.382,2.36-.816,4.9H287.207a23.5,23.5,0,0,1,.671-3.465c-4.419,1.5-12.13-.827-12.13-.827.96-2.528.3-8.948.3-8.948l4.5-.954s1.868-19.563,3.291-25.168c1.51-5.946,9.771-12.439,37.552-10.522,0,0,12.819-.243,14.809,8.254C338.053,298.9,328.224,327.34,327.692,327.7Z" transform="translate(-116.245 -119.04)" fill="none" stroke="#263238" stroke-linecap="round" stroke-linejoin="round" stroke-width="1"/>
            <path id="Trazado_724449" data-name="Trazado 724449" d="M274.561,344.217s1.5.8,1.993,4.339-.264,6.577-2.227,6.529-2.3-.818-1.907-1.544,1.261-1.708.606-4.729c-.821-3.79-2.509-3.445-2.509-3.445s2.254-2.156,4.044-1.149" transform="translate(-114.04 -144.996)" fill="#362b9e"/>
            <path id="Trazado_724450" data-name="Trazado 724450" d="M274.561,344.217s1.5.8,1.993,4.339-.264,6.577-2.227,6.529-2.3-.818-1.907-1.544,1.261-1.708.606-4.729c-.821-3.79-2.509-3.445-2.509-3.445S272.771,343.21,274.561,344.217Z" transform="translate(-114.04 -144.996)" fill="none" stroke="#263238" stroke-linecap="round" stroke-linejoin="round" stroke-width="1"/>
            <path id="Trazado_724452" data-name="Trazado 724452" d="M331.579,270.737s-9.975,3.025-14.511,1.411l-.941,6.055s4.411,3.844,18.551-.882Z" transform="translate(-133.268 -114.133)" fill="#362b9e"/>
            <path id="Trazado_724453" data-name="Trazado 724453" d="M331.579,270.737s-9.975,3.025-14.511,1.411l-.941,6.055s4.411,3.844,18.551-.882Z" transform="translate(-133.268 -114.133)" fill="none" stroke="#263238" stroke-linecap="round" stroke-linejoin="round" stroke-width="1"/>
            <path id="Trazado_724454" data-name="Trazado 724454" d="M279.009,336.458c1.186,3.861,2.246,6.96,1.2,7.282s-1.909-2.838-3.1-6.7-2.245-6.96-1.2-7.283,1.91,2.839,3.1,6.7" transform="translate(-116.135 -139.004)" fill="#362b9e"/>
            <path id="Trazado_724455" data-name="Trazado 724455" d="M279.009,336.458c1.186,3.861,2.246,6.96,1.2,7.282s-1.909-2.838-3.1-6.7-2.245-6.96-1.2-7.283S277.824,332.6,279.009,336.458Z" transform="translate(-116.135 -139.004)" fill="none" stroke="#263238" stroke-linecap="round" stroke-linejoin="round" stroke-width="1"/>
            <path id="Trazado_724456" data-name="Trazado 724456" d="M277.469,339.233l1.9-.583c-.278-.912-.54-1.773-.79-2.552l-1.887.58c.23.785.5,1.645.779,2.556" transform="translate(-116.642 -141.686)" fill="#263238"/>
            <path id="Trazado_724457" data-name="Trazado 724457" d="M277.737,332.23s.887-1.778,1.7-.523.983,5.069,1.558,5.073" transform="translate(-117.084 -139.646)" fill="none" stroke="#263238" stroke-linecap="round" stroke-linejoin="round" stroke-width="1"/>
            <path id="Trazado_724458" data-name="Trazado 724458" d="M295.824,300.269c-.723,2.215-1.724,4.6-2.389,7.283a20.957,20.957,0,0,0-.1,10.342c.5,2.019,2.059,6.878,2.2,8.891a37.408,37.408,0,0,1-.492,9.9,23.5,23.5,0,0,0-.671,3.465" transform="translate(-123.404 -126.582)" fill="none" stroke="#263238" stroke-linecap="round" stroke-linejoin="round" stroke-width="1"/>
            <path id="Trazado_724459" data-name="Trazado 724459" d="M314.182,345.306s-16.137,2.2-21.577,2.329c-.836.019-3.333-.29-3.333-.29l-3.868-2.587a16.806,16.806,0,0,0-4.444-.107l-1.666,2.177s-2.079.67-.891,2.245a2.014,2.014,0,0,0,.548,2.123,2.663,2.663,0,0,0,1,1.918,2.176,2.176,0,0,0,1.188,1.644c1,.366,7.307-.639,9.225-1.187s20.55,2.374,27.856,2.192c0,0,6.256-7.307-4.042-10.458" transform="translate(-117.209 -145.239)" fill="#fff"/>
            <path id="Trazado_724460" data-name="Trazado 724460" d="M314.182,345.306s-16.137,2.2-21.577,2.329c-.836.019-3.333-.29-3.333-.29l-3.868-2.587a16.806,16.806,0,0,0-4.444-.107l-1.666,2.177s-2.079.67-.891,2.245a2.014,2.014,0,0,0,.548,2.123,2.663,2.663,0,0,0,1,1.918,2.176,2.176,0,0,0,1.188,1.644c1,.366,7.307-.639,9.225-1.187s20.55,2.374,27.856,2.192C318.223,355.764,324.48,348.457,314.182,345.306Z" transform="translate(-117.209 -145.239)" fill="none" stroke="#263238" stroke-linecap="round" stroke-linejoin="round" stroke-width="1"/>
            <path id="Trazado_724461" data-name="Trazado 724461" d="M324.565,232.1a5.486,5.486,0,0,1-6.781-2.93c-1.093-1.99-3.3-6.142-3.3-6.142a7.653,7.653,0,0,0,.143,4.105,15.991,15.991,0,0,0-4.232-.782c-.99-1.658-1.278-5.414-1.278-5.414a10.171,10.171,0,0,0-.975,5.574,11.01,11.01,0,0,0-6.071,2.571c.363,1.476.495,3.776.373,8.556-.159,6.246,2.843,7.956,5.766,10.29s10.94,3.544,13.7-8.663c0,0,5.8-2.155,2.96-6.685-.1-.153-.2-.315-.3-.482" transform="translate(-127.34 -93.14)" fill="#fff"/>
            <path id="Trazado_724462" data-name="Trazado 724462" d="M324.565,232.1a5.486,5.486,0,0,1-6.781-2.93c-1.093-1.99-3.3-6.142-3.3-6.142a7.653,7.653,0,0,0,.143,4.105,15.991,15.991,0,0,0-4.232-.782c-.99-1.658-1.278-5.414-1.278-5.414a10.171,10.171,0,0,0-.975,5.574,11.01,11.01,0,0,0-6.071,2.571c.363,1.476.495,3.776.373,8.556-.159,6.246,2.843,7.956,5.766,10.29s10.94,3.544,13.7-8.663c0,0,5.8-2.155,2.96-6.685C324.774,232.432,324.671,232.27,324.565,232.1Z" transform="translate(-127.34 -93.14)" fill="none" stroke="#263238" stroke-linecap="round" stroke-linejoin="round" stroke-width="1"/>
            <path id="Trazado_724463" data-name="Trazado 724463" d="M332.762,227.287a14.107,14.107,0,0,0,9.062,7.67" transform="translate(-140.28 -95.816)" fill="none" stroke="#bfbfbf" stroke-miterlimit="10" stroke-width="1"/>
            <path id="Trazado_724464" data-name="Trazado 724464" d="M330.131,219.291a15.022,15.022,0,0,0,.558,2.236" transform="translate(-139.171 -92.445)" fill="none" stroke="#bfbfbf" stroke-miterlimit="10" stroke-width="1"/>
            <path id="Trazado_724465" data-name="Trazado 724465" d="M335.126,219.772s3.284,6.27,8.421,6.42" transform="translate(-141.277 -92.648)" fill="none" stroke="#bfbfbf" stroke-miterlimit="10" stroke-width="1"/>
            <path id="Trazado_724466" data-name="Trazado 724466" d="M352.541,247.342s8.356,13.533,8.356,21.409" transform="translate(-148.618 -104.27)" fill="none" stroke="#bfbfbf" stroke-miterlimit="10" stroke-width="1"/>
            <path id="Trazado_724467" data-name="Trazado 724467" d="M348.716,253.579s2.068,7.549,5.39,11.336" transform="translate(-147.006 -106.899)" fill="none" stroke="#bfbfbf" stroke-miterlimit="10" stroke-width="1"/>
            <path id="Trazado_724468" data-name="Trazado 724468" d="M302.947,219.651a22.807,22.807,0,0,0-.493,3.384" transform="translate(-127.503 -92.597)" fill="none" stroke="#bfbfbf" stroke-miterlimit="10" stroke-width="1"/>
            <path id="Trazado_724469" data-name="Trazado 724469" d="M310.447,207.391a10.311,10.311,0,0,0-6.431,5.316" transform="translate(-128.162 -87.428)" fill="none" stroke="#bfbfbf" stroke-miterlimit="10" stroke-width="1"/>
            <path id="Trazado_724470" data-name="Trazado 724470" d="M306.62,267.984s-.128,6.071,2.97,9.481" transform="translate(-129.259 -112.972)" fill="none" stroke="#bfbfbf" stroke-miterlimit="10" stroke-width="1"/>
            <path id="Trazado_724471" data-name="Trazado 724471" d="M316.129,235.709c4.214-.826,6.064,1.321,6.064,1.321" transform="translate(-133.268 -99.286)" fill="none" stroke="#263238" stroke-linecap="round" stroke-linejoin="round" stroke-width="1"/>
            <path id="Trazado_724472" data-name="Trazado 724472" d="M303.984,237.883a4.79,4.79,0,0,1,3.57-1.422" transform="translate(-128.148 -99.682)" fill="none" stroke="#263238" stroke-linecap="round" stroke-linejoin="round" stroke-width="1"/>
            <path id="Trazado_724473" data-name="Trazado 724473" d="M318.184,258.345a5.913,5.913,0,0,0,2.024-2.672l-.271.146a15.689,15.689,0,0,1-5.455,1.744A3.132,3.132,0,0,0,318.184,258.345Z" transform="translate(-132.574 -107.782)" fill="none" stroke="#263238" stroke-linecap="round" stroke-linejoin="round" stroke-width="1"/>
            <path id="Trazado_724474" data-name="Trazado 724474" d="M310.313,248.113c-.549-.068-2.118-.812-2.249-1.872-.039-.318.191-.609.534-.861a4.866,4.866,0,0,0,2.054-4.246c-.008-.119-.013-.189-.013-.189" transform="translate(-129.866 -101.573)" fill="none" stroke="#263238" stroke-linecap="round" stroke-linejoin="round" stroke-width="1"/>
            <path id="Trazado_724475" data-name="Trazado 724475" d="M320.873,238.772c.4-.049.81.615.916,1.476s-.132,1.6-.531,1.649-.809-.61-.915-1.472.131-1.6.53-1.654" transform="translate(-135.034 -100.656)" fill="#263238"/>
            <path id="Trazado_724476" data-name="Trazado 724476" d="M308.2,242.03c.1.846-.129,1.571-.521,1.619s-.793-.6-.9-1.445.129-1.57.521-1.618.793.6.9,1.444" transform="translate(-129.319 -101.421)" fill="#263238"/>
            <path id="Trazado_724477" data-name="Trazado 724477" d="M331.481,238.33s-.541-1.529.075-2.337" transform="translate(-139.647 -99.486)" fill="none" stroke="#263238" stroke-linecap="round" stroke-linejoin="round" stroke-width="1"/>
            <path id="Trazado_724478" data-name="Trazado 724478" d="M356.443,336.01a10.335,10.335,0,0,1-7.415,1.86s2.055-10.683-5.069-11.122l3.288-1.049,6.028-23.64" transform="translate(-145 -127.337)" fill="none" stroke="#263238" stroke-linecap="round" stroke-linejoin="round" stroke-width="1"/>
            <path id="Trazado_724479" data-name="Trazado 724479" d="M352.722,342.929s3.815,1,4.888,4.291" transform="translate(-148.694 -144.566)" fill="none" stroke="#263238" stroke-linecap="round" stroke-linejoin="round" stroke-width="1"/>
            <path id="Trazado_724480" data-name="Trazado 724480" d="M325.792,275.478a25.823,25.823,0,0,0,10.526-2.3" transform="translate(-137.342 -115.161)" fill="none" stroke="#263238" stroke-linecap="round" stroke-linejoin="round" stroke-width="1"/>
            <path id="Trazado_724481" data-name="Trazado 724481" d="M317.288,276.179a15.956,15.956,0,0,0,2.487.439" transform="translate(-133.757 -116.427)" fill="none" stroke="#263238" stroke-linecap="round" stroke-linejoin="round" stroke-width="1"/>
            <path id="Trazado_724482" data-name="Trazado 724482" d="M345.4,286.968q1.544-.549,3.242-1.276" transform="translate(-145.606 -120.437)" fill="none" stroke="#263238" stroke-linecap="round" stroke-linejoin="round" stroke-width="1"/>
            <path id="Trazado_724483" data-name="Trazado 724483" d="M314.522,288.05s3.879,3.683,14.146,1.054" transform="translate(-132.591 -121.431)" fill="none" stroke="#263238" stroke-linecap="round" stroke-linejoin="round" stroke-width="1"/>
            <path id="Trazado_724484" data-name="Trazado 724484" d="M320.317,319.705s.61,8.894,7.2,12.206" transform="translate(-135.034 -134.776)" fill="none" stroke="#263238" stroke-linecap="round" stroke-linejoin="round" stroke-width="1"/>
            <path id="Trazado_724485" data-name="Trazado 724485" d="M340.244,344.783s1.3-2.859,5.171-1.448a8.076,8.076,0,0,1,4.76,5.028c1.1,3.767-.274,7.124-2.945,7.261s-3.159-.069-2.71-.891a6.717,6.717,0,0,0,.209-5.849c-1.662-3.976-4.485-4.1-4.485-4.1" transform="translate(-143.434 -144.572)" fill="#362b9e"/>
          </g>
        </g>
        <g id="Grupo_1012672" data-name="Grupo 1012672">
          <g id="Grupo_1012671" data-name="Grupo 1012671" clip-path="url(#clip-path)">
            <path id="Trazado_724489" data-name="Trazado 724489" d="M19.582,317.2S17.593,300.186,0,307.042c0,0,14.968-.111,17.5,12.707l2.328-.249Z" transform="translate(0 -128.751)" fill="#251e6e"/>
            <path id="Trazado_724491" data-name="Trazado 724491" d="M30.742,301.8s-1.522-18.142-4.835-32.24c0,0,10.123,10.708,7.809,30.869Z" transform="translate(-10.921 -113.635)" fill="#251e6e"/>
            <path id="Trazado_724493" data-name="Trazado 724493" d="M23.365,321.59s-2.918-24.988-12.63-33.569c0,0,17.369,4.32,14.8,30.859Z" transform="translate(-4.525 -121.419)" fill="#362b9e"/>
            <path id="Trazado_724494" data-name="Trazado 724494" d="M36.336,320.309s4.254-24.8,14.412-32.843c0,0-17.575,3.382-16.43,30.02Z" transform="translate(-14.445 -121.185)" fill="#362b9e"/>
            <path id="Trazado_724495" data-name="Trazado 724495" d="M38.291,330.223H17.756v3.567h.684v12.59a6.393,6.393,0,0,0,6.393,6.393h6.381a6.393,6.393,0,0,0,6.393-6.393V333.79h.684Z" transform="translate(-7.485 -139.21)" fill="#fff"/>
            <path id="Trazado_724496" data-name="Trazado 724496" d="M38.291,330.223H17.756v3.567h.684v12.59a6.393,6.393,0,0,0,6.393,6.393h6.381a6.393,6.393,0,0,0,6.393-6.393V333.79h.684Z" transform="translate(-7.485 -139.21)" fill="none" stroke="#263238" stroke-miterlimit="10" stroke-width="1"/>
            <line id="Línea_387" data-name="Línea 387" x2="2.735" transform="translate(24.441 194.412)" fill="#fff"/>
            <line id="Línea_388" data-name="Línea 388" x2="2.735" transform="translate(24.441 194.412)" fill="none" stroke="#263238" stroke-miterlimit="10" stroke-width="1"/>
            <line id="Línea_389" data-name="Línea 389" x2="7.923" transform="translate(13.737 194.412)" fill="#fff"/>
            <line id="Línea_390" data-name="Línea 390" x2="7.923" transform="translate(13.737 194.412)" fill="none" stroke="#263238" stroke-miterlimit="10" stroke-width="1"/>
            <path id="Trazado_724497" data-name="Trazado 724497" d="M163.17,309.013l-5.263-42.864a2.868,2.868,0,0,0-2.768-2.465H149.1l6.974,47.795h4.936a2.135,2.135,0,0,0,2.162-2.465" transform="translate(-62.854 -111.159)" fill="#362b9e"/>
            <path id="Trazado_724498" data-name="Trazado 724498" d="M163.17,309.013l-5.263-42.864a2.868,2.868,0,0,0-2.768-2.465H149.1l6.974,47.795h4.936A2.135,2.135,0,0,0,163.17,309.013Z" transform="translate(-62.854 -111.159)" fill="none" stroke="#263238" stroke-linecap="round" stroke-linejoin="round" stroke-width="1"/>
            <path id="Trazado_724499" data-name="Trazado 724499" d="M117.359,311.479H56.7a2.868,2.868,0,0,1-2.767-2.465L48.673,266.15a2.135,2.135,0,0,1,2.162-2.465H111.49a2.867,2.867,0,0,1,2.767,2.465l5.263,42.864a2.135,2.135,0,0,1-2.162,2.465" transform="translate(-20.511 -111.16)" fill="#263238"/>
          </g>
        </g>
        <g id="Grupo_1012677" data-name="Grupo 1012677" transform="translate(28.143 152.525)">
          <g id="Grupo_1012676" data-name="Grupo 1012676" clip-path="url(#clip-path-30)">
            <g id="Grupo_1012675" data-name="Grupo 1012675" transform="translate(0 0)" opacity="0.1">
              <g id="Grupo_1012674" data-name="Grupo 1012674">
                <g id="Grupo_1012673" data-name="Grupo 1012673" clip-path="url(#clip-path-31)">
                  <path id="Trazado_724500" data-name="Trazado 724500" d="M117.359,311.479H56.7a2.868,2.868,0,0,1-2.767-2.465L48.673,266.15a2.135,2.135,0,0,1,2.162-2.465H111.49a2.867,2.867,0,0,1,2.767,2.465l5.263,42.864a2.135,2.135,0,0,1-2.162,2.465" transform="translate(-48.654 -263.684)" fill="#fff"/>
                </g>
              </g>
            </g>
          </g>
        </g>
        <g id="Grupo_1012679" data-name="Grupo 1012679">
          <g id="Grupo_1012678" data-name="Grupo 1012678" clip-path="url(#clip-path)">
            <path id="Trazado_724502" data-name="Trazado 724502" d="M117.359,311.479H56.7a2.868,2.868,0,0,1-2.767-2.465L48.673,266.15a2.135,2.135,0,0,1,2.162-2.465H111.49a2.867,2.867,0,0,1,2.767,2.465l5.263,42.864A2.135,2.135,0,0,1,117.359,311.479Z" transform="translate(-20.511 -111.16)" fill="none" stroke="#263238" stroke-linecap="round" stroke-linejoin="round" stroke-width="1"/>
            <path id="Trazado_724503" data-name="Trazado 724503" d="M105.567,342.131l2.422-27.608a1.135,1.135,0,0,0-1.131-1.234H91.545a1.135,1.135,0,0,0-1.13,1.036L87.777,344.4a1.135,1.135,0,0,0,1.13,1.234H119.24a1.135,1.135,0,0,0,0-2.27H106.7a1.134,1.134,0,0,1-1.131-1.234" transform="translate(-37.002 -132.071)" fill="#263238"/>
            <path id="Trazado_724504" data-name="Trazado 724504" d="M105.567,342.131l2.422-27.608a1.135,1.135,0,0,0-1.131-1.234H91.545a1.135,1.135,0,0,0-1.13,1.036L87.777,344.4a1.135,1.135,0,0,0,1.13,1.234H119.24a1.135,1.135,0,0,0,0-2.27H106.7A1.134,1.134,0,0,1,105.567,342.131Z" transform="translate(-37.002 -132.071)" fill="none" stroke="#263238" stroke-linecap="round" stroke-linejoin="round" stroke-width="1"/>
            <path id="Trazado_724505" data-name="Trazado 724505" d="M131.542,344.5a1.135,1.135,0,0,0-1.135-1.135H117.864a1.135,1.135,0,0,1-1.13-1.234l2.421-27.607a1.131,1.131,0,1,0-2.252-.2L114.265,344.4a1.136,1.136,0,0,0,1.131,1.234h15.011a1.135,1.135,0,0,0,1.135-1.135" transform="translate(-48.168 -132.072)" fill="#362b9e"/>
            <path id="Trazado_724506" data-name="Trazado 724506" d="M131.542,344.5a1.135,1.135,0,0,0-1.135-1.135H117.864a1.135,1.135,0,0,1-1.13-1.234l2.421-27.607a1.131,1.131,0,1,0-2.252-.2L114.265,344.4a1.136,1.136,0,0,0,1.131,1.234h15.011A1.135,1.135,0,0,0,131.542,344.5Z" transform="translate(-48.168 -132.072)" fill="none" stroke="#263238" stroke-linecap="round" stroke-linejoin="round" stroke-width="1"/>
            <line id="Línea_391" data-name="Línea 391" x2="216.914" transform="translate(13.829 213.564)" fill="none" stroke="#263238" stroke-linecap="round" stroke-linejoin="round" stroke-width="1"/>
          </g>
        </g>
        <g id="Grupo_1012681" data-name="Grupo 1012681">
          <g id="Grupo_1012680" data-name="Grupo 1012680" clip-path="url(#clip-path)">
            <path id="Trazado_724507" data-name="Trazado 724507" d="M363.558,187.609h-11.4a2.68,2.68,0,0,0-2.68,2.68v5.548a2.68,2.68,0,0,0,2.68,2.681h2.981l.87,5.119,4.573-5.119h2.981a2.68,2.68,0,0,0,2.68-2.681v-5.548a2.68,2.68,0,0,0-2.68-2.68" transform="translate(-147.325 -79.089)" fill="#fff"/>
            <path id="Trazado_724508" data-name="Trazado 724508" d="M363.558,187.609h-11.4a2.68,2.68,0,0,0-2.68,2.68v5.548a2.68,2.68,0,0,0,2.68,2.681h2.981l.87,5.119,4.573-5.119h2.981a2.68,2.68,0,0,0,2.68-2.681v-5.548A2.68,2.68,0,0,0,363.558,187.609Z" transform="translate(-147.325 -79.089)" fill="none" stroke="#263238" stroke-linecap="round" stroke-linejoin="round" stroke-width="1"/>
            <path id="Trazado_724509" data-name="Trazado 724509" d="M333.337,159.236h-11.4a2.681,2.681,0,0,0-2.681,2.68v5.548a2.681,2.681,0,0,0,2.681,2.681h2.981l2.258,5.119,3.184-5.119h2.981a2.68,2.68,0,0,0,2.681-2.681v-5.548a2.68,2.68,0,0,0-2.681-2.68" transform="translate(-134.585 -67.128)" fill="#fff"/>
            <path id="Trazado_724510" data-name="Trazado 724510" d="M333.337,159.236h-11.4a2.681,2.681,0,0,0-2.681,2.68v5.548a2.681,2.681,0,0,0,2.681,2.681h2.981l2.258,5.119,3.184-5.119h2.981a2.68,2.68,0,0,0,2.681-2.681v-5.548A2.68,2.68,0,0,0,333.337,159.236Z" transform="translate(-134.585 -67.128)" fill="none" stroke="#263238" stroke-linecap="round" stroke-linejoin="round" stroke-width="1"/>
            <path id="Trazado_724511" data-name="Trazado 724511" d="M295.544,169.192h-10.77a2.532,2.532,0,0,0-2.532,2.532v5.239a2.532,2.532,0,0,0,2.532,2.532h2.815l2.937,4.835,2.2-4.835h2.815a2.532,2.532,0,0,0,2.532-2.532v-5.239a2.532,2.532,0,0,0-2.532-2.532" transform="translate(-118.983 -71.325)" fill="#fff"/>
            <path id="Trazado_724512" data-name="Trazado 724512" d="M295.544,169.192h-10.77a2.532,2.532,0,0,0-2.532,2.532v5.239a2.532,2.532,0,0,0,2.532,2.532h2.815l2.937,4.835,2.2-4.835h2.815a2.532,2.532,0,0,0,2.532-2.532v-5.239A2.532,2.532,0,0,0,295.544,169.192Z" transform="translate(-118.983 -71.325)" fill="none" stroke="#263238" stroke-linecap="round" stroke-linejoin="round" stroke-width="1"/>
            <path id="Trazado_724516" data-name="Trazado 724516" d="M329.26,167.7v.645c0,.777-.389,1.221-1.138,1.221s-1.138-.444-1.138-1.221v-2.525c0-.777.388-1.221,1.138-1.221s1.138.444,1.138,1.221v.471h-.721v-.52c0-.347-.153-.478-.4-.478s-.4.131-.4.478v2.623c0,.347.153.472.4.472s.4-.125.4-.472V167.7Z" transform="translate(-137.844 -69.389)" fill="#263238"/>
            <path id="Trazado_724517" data-name="Trazado 724517" d="M333.015,167.744h.929v.541h-.929v.95h-.541v-.95h-.93v-.541h.93v-.936h.541Z" transform="translate(-139.767 -70.32)" fill="#263238"/>
            <path id="Trazado_724518" data-name="Trazado 724518" d="M337.767,167.744h.93v.541h-.93v.95h-.541v-.95h-.93v-.541h.93v-.936h.541Z" transform="translate(-141.77 -70.32)" fill="#263238"/>
            <path id="Trazado_724519" data-name="Trazado 724519" d="M354.721,196.591v-.739l3.091-1.138v.749l-2.123.758,2.123.758v.749Z" transform="translate(-149.537 -82.084)" fill="#263238"/>
            <path id="Trazado_724520" data-name="Trazado 724520" d="M363.419,191.584h.9L361.7,198.22h-.9Z" transform="translate(-152.101 -80.765)" fill="#263238"/>
            <path id="Trazado_724521" data-name="Trazado 724521" d="M367.621,197.728v-.749l2.123-.758-2.123-.758v-.749l3.091,1.138v.739Z" transform="translate(-154.975 -82.084)" fill="#263238"/>
            <text id="Info" transform="translate(167.56 104.654)" fill="#263238" font-size="5" font-family="Roboto-Bold, Roboto" font-weight="700"><tspan x="0" y="0">Info</tspan></text>
          </g>
        </g>
      </g>
    </g>
  </g>
</svg>
