<svg xmlns="http://www.w3.org/2000/svg" xmlns:xlink="http://www.w3.org/1999/xlink" width="820" height="434" viewBox="0 0 820 434">
  <defs>
    <filter id="_1" x="-9" y="6" width="824" height="445" filterUnits="userSpaceOnUse">
      <feOffset dy="3" input="SourceAlpha"/>
      <feGaussianBlur stdDeviation="3" result="blur"/>
      <feFlood flood-opacity="0.161"/>
      <feComposite operator="in" in2="blur"/>
      <feComposite in="SourceGraphic"/>
    </filter>
    <clipPath id="clip-path">
      <rect id="_2" data-name="2" width="788" height="407.312" fill="#fff"/>
    </clipPath>
    <clipPath id="clip-path-2">
      <g transform="matrix(1, 0, 0, 1, 0, 0)" filter="url(#_1)">
        <rect id="_1-2" data-name="1" width="806" height="427" fill="#716abb" opacity="0.25"/>
      </g>
    </clipPath>
    <filter id="Trazado_741819" x="-9" y="6.954" width="824" height="468.734" filterUnits="userSpaceOnUse">
      <feOffset dy="3" input="SourceAlpha"/>
      <feGaussianBlur stdDeviation="3" result="blur-2"/>
      <feFlood flood-opacity="0.161"/>
      <feComposite operator="in" in2="blur-2"/>
      <feComposite in="SourceGraphic"/>
    </filter>
    <clipPath id="clip-path-3">
      <rect id="Rectángulo_373105" data-name="Rectángulo 373105" width="806" height="450.734" rx="23" fill="#37f871" opacity="0.15"/>
    </clipPath>
    <clipPath id="clip-path-5">
      <rect id="Rectángulo_372959" data-name="Rectángulo 372959" width="83.85" height="39.016" transform="translate(0)" fill="#dcd8f1" stroke="#707070" stroke-width="1"/>
    </clipPath>
    <clipPath id="clip-path-6">
      <rect id="Rectángulo_373107" data-name="Rectángulo 373107" width="83.85" height="39.017" transform="translate(0)" fill="#dcd8f1" stroke="#707070" stroke-width="1"/>
    </clipPath>
    <filter id="Unión_1" x="185" y="30" width="450.098" height="62" filterUnits="userSpaceOnUse">
      <feOffset dy="3" input="SourceAlpha"/>
      <feGaussianBlur stdDeviation="3" result="blur-3"/>
      <feFlood flood-opacity="0.161"/>
      <feComposite operator="in" in2="blur-3"/>
      <feComposite in="SourceGraphic"/>
    </filter>
  </defs>
  <g id="_6" data-name="6" transform="translate(-390 -1460)">
    <g id="Grupo_1045305" data-name="Grupo 1045305" transform="translate(0 5)">
      <rect id="_1-3" data-name="1" width="820" height="434" rx="10" transform="translate(390 1455)" fill="#112e4c"/>
      <g id="Grupo_1022848" data-name="Grupo 1022848" transform="translate(406 1468)">
        <g id="Enmascarar_grupo_952188" data-name="Enmascarar grupo 952188" transform="translate(0 0)" clip-path="url(#clip-path)">
          <g id="Enmascarar_grupo_952187" data-name="Enmascarar grupo 952187" transform="translate(-16 -1)" clip-path="url(#clip-path-2)">
            <g id="Grupo_1022842" data-name="Grupo 1022842" transform="translate(0 0.954)">
              <g transform="matrix(1, 0, 0, 1, 0, -12.95)" filter="url(#Trazado_741819)">
                <path id="Trazado_741819-2" data-name="Trazado 741819" d="M0,0H806V450.734H0Z" transform="translate(0 12.95)" fill="#f7f6ff"/>
              </g>
            </g>
            <g id="Grupo_1022845" data-name="Grupo 1022845" transform="translate(0 0.954)" opacity="0.27">
              <g id="Enmascarar_grupo_952185" data-name="Enmascarar grupo 952185" clip-path="url(#clip-path-3)">
                <g id="Grupo_1022843" data-name="Grupo 1022843" transform="translate(-173.032 -79.859)">
                  <path id="Trazado_741790" data-name="Trazado 741790" d="M641.35,79.979S585,79.928,490.529,18.5,383.409,68.482,325.693,68.467,253.522,21,190.8,34.495s-79.135,66.64-153.249,43.811-15.637,75.967-15.637,75.967L632.037,161.8Z" transform="matrix(0.995, -0.105, 0.105, 0.995, 407.479, 388.693)" fill="none" stroke="#12263f" stroke-width="3" stroke-dasharray="11" opacity="0.142"/>
                  <path id="Trazado_741791" data-name="Trazado 741791" d="M1252.517.263,1144.78,301.758l21.225,135.2L971.79,558.277c-2.378-2.89-4.557-6.013-7.17-8.633-19.574-19.623-37.82-41.108-59.162-58.285-42.318-34.051-90.545-38.2-142.377-12.936q-27.058,13.19-53.487,28.12c-32.609,18.466-66.174,30.033-102.169,29.264-22.53-.48-42.179-7.218-58.949-22.379-25.1-22.693-42.023-52.743-61.411-80.623-10.273-14.773-20.776-29.47-32.408-42.948-23.921-27.718-53.825-39.617-91.312-34.469-40.324,5.538-74.453,21.579-100.121,59.177-21.419,31.374-43.1,62.695-66.53,92.37-37.92,48.033-85.69,65.658-139.773,55.937-19.361-3.478-37.894-10.626-56.806-16.1L134.277,184.647Z" transform="matrix(-0.921, 0.391, -0.391, -0.921, 1374.091, 569.804)" fill="none" stroke="#31313c" stroke-width="3" opacity="0.05"/>
                  <path id="Trazado_741792" data-name="Trazado 741792" d="M896.42,391.113,834.766,177.018,858.734,76.472,721.946.171c-1.94,2.275-3.747,4.708-5.846,6.8-15.721,15.67-30.569,32.619-47.454,46.611-33.479,27.737-69.528,33.931-106.466,18.783Q542.9,64.457,524.187,55.233C501.1,43.818,476.893,37.526,450.129,40.44A77.051,77.051,0,0,0,405.014,60.7c-20.008,18.282-34.4,41.428-50.48,63.141-8.523,11.506-17.211,22.971-26.664,33.615C308.431,179.35,285.512,190.029,258,188.7c-29.594-1.429-53.952-10.966-70.72-36.866-13.993-21.612-28.185-43.169-43.771-63.4C118.28,55.677,83.893,45.869,43.159,56.53,28.577,60.345,14.387,66.8.017,72.045L77.6,328.886Z" transform="matrix(0.891, -0.454, 0.454, 0.891, 297.582, 406.735)" fill="none" stroke="#fff" stroke-width="1" opacity="0.81"/>
                </g>
              </g>
              <g id="Enmascarar_grupo_952186" data-name="Enmascarar grupo 952186" clip-path="url(#clip-path-3)">
                <g id="Grupo_1022844" data-name="Grupo 1022844" transform="translate(-395.059 -528.366)">
                  <path id="Trazado_741793" data-name="Trazado 741793" d="M641.35,79.979S585,79.928,490.529,18.5,383.409,68.482,325.693,68.467,253.522,21,190.8,34.495s-79.135,66.64-153.249,43.811-15.637,75.967-15.637,75.967L632.037,161.8Z" transform="matrix(-0.995, 0.105, -0.105, -0.995, 966.612, 670.266)" fill="none" stroke="#12263f" stroke-width="3" stroke-dasharray="11" opacity="0.142"/>
                  <path id="Trazado_741794" data-name="Trazado 741794" d="M1252.517.263,1144.78,301.758l21.225,135.2L971.79,558.277c-2.378-2.89-4.557-6.013-7.17-8.633-19.574-19.623-37.82-41.108-59.162-58.285-42.318-34.051-90.545-38.2-142.377-12.936q-27.058,13.19-53.487,28.12c-32.609,18.466-66.174,30.033-102.169,29.264-22.53-.48-42.179-7.218-58.949-22.379-25.1-22.693-42.023-52.743-61.411-80.623-10.273-14.773-20.776-29.47-32.408-42.948-23.921-27.718-53.825-39.617-91.312-34.469-40.324,5.538-74.453,21.579-100.121,59.177-21.419,31.374-43.1,62.695-66.53,92.37-37.92,48.033-85.69,65.658-139.773,55.937-19.361-3.478-37.894-10.626-56.806-16.1L134.277,184.647Z" transform="matrix(0.921, -0.391, 0.391, 0.921, 0, 489.155)" fill="none" stroke="#31313c" stroke-width="3" opacity="0.05"/>
                  <path id="Trazado_741795" data-name="Trazado 741795" d="M896.42,391.113,834.766,177.018,858.734,76.472,721.946.171c-1.94,2.275-3.747,4.708-5.846,6.8-15.721,15.67-30.569,32.619-47.454,46.611-33.479,27.737-69.528,33.931-106.466,18.783Q542.9,64.457,524.187,55.233C501.1,43.818,476.893,37.526,450.129,40.44A77.051,77.051,0,0,0,405.014,60.7c-20.008,18.282-34.4,41.428-50.48,63.141-8.523,11.506-17.211,22.971-26.664,33.615C308.431,179.35,285.512,190.029,258,188.7c-29.594-1.429-53.952-10.966-70.72-36.866-13.993-21.612-28.185-43.169-43.771-63.4C118.28,55.677,83.893,45.869,43.159,56.53,28.577,60.345,14.387,66.8.017,72.045L77.6,328.886Z" transform="matrix(-0.891, 0.454, -0.454, -0.891, 1076.51, 652.224)" fill="none" stroke="#fff" stroke-width="1" opacity="0.81"/>
                </g>
              </g>
            </g>
          </g>
        </g>
        <g id="Grupo_1022182" data-name="Grupo 1022182" transform="translate(10 0)" clip-path="url(#clip-path-5)">
          <g id="Grupo_1022181" data-name="Grupo 1022181" transform="translate(1.95 -44.968)">
            <path id="Sustracción_25" data-name="Sustracción 25" d="M40.625,0A39.99,39.99,0,0,0,17.911,7.059,41.212,41.212,0,0,0,6.938,18.222,41.489,41.489,0,0,0,.825,33a42.445,42.445,0,0,0,0,16.659A41.459,41.459,0,0,0,11.9,70.556,41.078,41.078,0,0,0,17.911,75.6a40.414,40.414,0,0,0,6.9,3.811,40.048,40.048,0,0,0,31.626,0,40.414,40.414,0,0,0,6.9-3.811A41.212,41.212,0,0,0,74.312,64.439,41.489,41.489,0,0,0,80.425,49.66a42.445,42.445,0,0,0,0-16.659,41.459,41.459,0,0,0-11.073-20.9,41.078,41.078,0,0,0-6.012-5.047,40.415,40.415,0,0,0-6.9-3.811A39.9,39.9,0,0,0,40.625,0Zm-.151,63.047a20.863,20.863,0,0,1-11.85-3.682A21.5,21.5,0,0,1,22.9,53.54a21.645,21.645,0,0,1-3.189-7.71,22.143,22.143,0,0,1,0-8.691,21.629,21.629,0,0,1,5.777-10.9A21.429,21.429,0,0,1,28.624,23.6a21.084,21.084,0,0,1,3.6-1.988,20.893,20.893,0,0,1,16.5,0,21.084,21.084,0,0,1,3.6,1.988,21.5,21.5,0,0,1,5.725,5.824,21.644,21.644,0,0,1,3.189,7.71,22.143,22.143,0,0,1,0,8.691,21.629,21.629,0,0,1-5.777,10.9,21.431,21.431,0,0,1-3.137,2.633,21.084,21.084,0,0,1-3.6,1.988,20.816,20.816,0,0,1-8.25,1.694Z" transform="translate(0 0)" fill="#dcd8f1"/>
          </g>
        </g>
        <g id="Grupo_1022847" data-name="Grupo 1022847" transform="translate(657.749 368.295)" clip-path="url(#clip-path-6)">
          <g id="Grupo_1022846" data-name="Grupo 1022846" transform="translate(1.95 1.322)">
            <path id="Sustracción_29" data-name="Sustracción 29" d="M40.625,82.662A39.99,39.99,0,0,1,17.911,75.6,41.212,41.212,0,0,1,6.938,64.44,41.49,41.49,0,0,1,.825,49.661,42.446,42.446,0,0,1,.825,33,41.46,41.46,0,0,1,11.9,12.106a41.078,41.078,0,0,1,6.012-5.047,40.414,40.414,0,0,1,6.9-3.811,40.048,40.048,0,0,1,31.626,0,40.413,40.413,0,0,1,6.9,3.811A41.212,41.212,0,0,1,74.312,18.222,41.49,41.49,0,0,1,80.425,33a42.446,42.446,0,0,1,0,16.659,41.46,41.46,0,0,1-11.073,20.9A41.077,41.077,0,0,1,63.339,75.6a40.414,40.414,0,0,1-6.9,3.811,39.9,39.9,0,0,1-15.813,3.248Zm-.151-63.048A20.863,20.863,0,0,0,28.624,23.3,21.5,21.5,0,0,0,22.9,29.121a21.645,21.645,0,0,0-3.189,7.71,22.143,22.143,0,0,0,0,8.691,21.63,21.63,0,0,0,5.777,10.9,21.43,21.43,0,0,0,3.137,2.633,21.084,21.084,0,0,0,3.6,1.988,20.893,20.893,0,0,0,16.5,0,21.084,21.084,0,0,0,3.6-1.988,21.5,21.5,0,0,0,5.725-5.824,21.644,21.644,0,0,0,3.189-7.71,22.143,22.143,0,0,0,0-8.691,21.63,21.63,0,0,0-5.777-10.9A21.432,21.432,0,0,0,52.324,23.3a21.084,21.084,0,0,0-3.6-1.988,20.816,20.816,0,0,0-8.25-1.694Z" transform="translate(0)" fill="#dcd8f1"/>
          </g>
        </g>
      </g>
    </g>
    <g id="Grupo_1045352" data-name="Grupo 1045352" transform="translate(0 -1)">
      <g id="Grupo_1045351" data-name="Grupo 1045351" transform="translate(0 7)">
        <g id="Grupo_1045347" data-name="Grupo 1045347">
          <path id="Trazado_772792" data-name="Trazado 772792" d="M7.859,10.07h-4.5v3.047H8.641V15H1.016V3.625H8.625v1.9H3.359V8.234h4.5Zm4.086-3.523.07.977a2.951,2.951,0,0,1,2.43-1.133,2.453,2.453,0,0,1,2,.789,3.682,3.682,0,0,1,.672,2.359V15H14.859V9.594a1.465,1.465,0,0,0-.312-1.043,1.4,1.4,0,0,0-1.039-.324,1.553,1.553,0,0,0-1.43.813V15H9.82V6.547Zm9.586-2.078V6.547h1.445V8.2H21.531v4.219a1.007,1.007,0,0,0,.18.672.9.9,0,0,0,.688.2,3.6,3.6,0,0,0,.664-.055v1.711a4.648,4.648,0,0,1-1.367.2,2.156,2.156,0,0,1-2.422-2.4V8.2H18.039V6.547h1.234V4.469ZM26.617,15H24.352V6.547h2.266Zm-2.4-10.641a1.112,1.112,0,0,1,.34-.836,1.465,1.465,0,0,1,1.848,0,1.105,1.105,0,0,1,.344.836A1.108,1.108,0,0,1,26.4,5.2a1.448,1.448,0,0,1-1.836,0A1.108,1.108,0,0,1,24.219,4.359Zm3.906,6.352a5.094,5.094,0,0,1,.887-3.148,2.877,2.877,0,0,1,2.426-1.172,2.589,2.589,0,0,1,2.039.922V3h2.266V15H33.7l-.109-.9a2.657,2.657,0,0,1-2.172,1.055,2.869,2.869,0,0,1-2.395-1.176A5.258,5.258,0,0,1,28.125,10.711Zm2.258.168A3.337,3.337,0,0,0,30.8,12.7a1.349,1.349,0,0,0,1.2.634,1.511,1.511,0,0,0,1.477-.884V9.111a1.489,1.489,0,0,0-1.461-.884Q30.383,8.227,30.383,10.879ZM42.391,15a2.507,2.507,0,0,1-.227-.758,2.732,2.732,0,0,1-2.133.914,3,3,0,0,1-2.059-.719,2.312,2.312,0,0,1-.816-1.812,2.389,2.389,0,0,1,1-2.062,4.915,4.915,0,0,1,2.879-.727H42.07V9.352a1.393,1.393,0,0,0-.3-.937,1.183,1.183,0,0,0-.949-.352,1.345,1.345,0,0,0-.895.273.929.929,0,0,0-.324.75H37.344A2.268,2.268,0,0,1,37.8,7.727a3,3,0,0,1,1.281-.98,4.669,4.669,0,0,1,1.859-.355,3.689,3.689,0,0,1,2.48.785,2.747,2.747,0,0,1,.918,2.207v3.664a4.041,4.041,0,0,0,.336,1.82V15Zm-1.867-1.57a1.945,1.945,0,0,0,.922-.223,1.462,1.462,0,0,0,.625-.6V11.156h-.844q-1.7,0-1.8,1.172l-.008.133a.9.9,0,0,0,.3.7A1.153,1.153,0,0,0,40.523,13.43Zm5.2-2.719a5.094,5.094,0,0,1,.887-3.148,2.877,2.877,0,0,1,2.426-1.172,2.589,2.589,0,0,1,2.039.922V3h2.266V15H51.3l-.109-.9a2.657,2.657,0,0,1-2.172,1.055,2.869,2.869,0,0,1-2.395-1.176A5.258,5.258,0,0,1,45.719,10.711Zm2.258.168a3.337,3.337,0,0,0,.414,1.823,1.349,1.349,0,0,0,1.2.634,1.511,1.511,0,0,0,1.477-.884V9.111a1.489,1.489,0,0,0-1.461-.884Q47.977,8.227,47.977,10.879Z" transform="translate(683 1581)" fill="#12263f"/>
          <g id="Rectángulo_373066" data-name="Rectángulo 373066" transform="translate(462 1566)" fill="#e4e0f8" stroke="#221b6b" stroke-width="1">
            <rect width="145" height="53" stroke="none"/>
            <rect x="0.5" y="0.5" width="144" height="52" fill="none"/>
          </g>
          <g id="Grupo_1045308" data-name="Grupo 1045308" transform="translate(611.586 1587)">
            <path id="Trazado_772745" data-name="Trazado 772745" d="M5.749,1.64,0,0,5.735,8.894l.014-.018.014.018L11.5,0Z" transform="translate(53.939 10.498) rotate(-90)" fill="#12263f"/>
            <path id="Trazado_772746" data-name="Trazado 772746" d="M57.37,4.749H8.414" fill="none" stroke="#12263f" stroke-width="2"/>
          </g>
        </g>
      </g>
      <g id="Grupo_1045348" data-name="Grupo 1045348" transform="translate(0 7)">
        <g id="Grupo_1045341" data-name="Grupo 1045341" transform="translate(0 8)">
          <path id="Trazado_772793" data-name="Trazado 772793" d="M7.438,12.656H3.328L2.547,15H.055L4.289,3.625H6.461L10.719,15H8.227Zm-3.477-1.9H6.8L5.375,6.5ZM14.2,4.469V6.547h1.445V8.2H14.2v4.219a1.007,1.007,0,0,0,.18.672.9.9,0,0,0,.688.2,3.6,3.6,0,0,0,.664-.055v1.711a4.648,4.648,0,0,1-1.367.2,2.156,2.156,0,0,1-2.422-2.4V8.2H10.711V6.547h1.234V4.469Zm7.453,4.2a6.134,6.134,0,0,0-.812-.062,1.654,1.654,0,0,0-1.68.867V15H16.906V6.547h2.133L19.1,7.555a2.092,2.092,0,0,1,1.883-1.164,2.366,2.366,0,0,1,.7.1ZM25.125,15H22.859V6.547h2.266Zm-2.4-10.641a1.112,1.112,0,0,1,.34-.836,1.465,1.465,0,0,1,1.848,0,1.105,1.105,0,0,1,.344.836,1.108,1.108,0,0,1-.348.844,1.448,1.448,0,0,1-1.836,0A1.108,1.108,0,0,1,22.727,4.359ZM34.6,10.852a5.119,5.119,0,0,1-.867,3.168,2.872,2.872,0,0,1-2.422,1.137,2.639,2.639,0,0,1-2.2-1.055l-.1.9H26.984V3h2.258V7.3A2.571,2.571,0,0,1,31.3,6.391a2.9,2.9,0,0,1,2.426,1.137,5.126,5.126,0,0,1,.879,3.2Zm-2.258-.164a3.363,3.363,0,0,0-.406-1.871,1.374,1.374,0,0,0-1.211-.59,1.489,1.489,0,0,0-1.484.883v3.336a1.509,1.509,0,0,0,1.5.891,1.394,1.394,0,0,0,1.438-1.078A5.562,5.562,0,0,0,32.344,10.688Zm8.711,3.453a2.831,2.831,0,0,1-2.312,1.016,2.67,2.67,0,0,1-2.074-.781,3.335,3.335,0,0,1-.73-2.289V6.547H38.2v5.467q0,1.322,1.2,1.322a1.63,1.63,0,0,0,1.578-.8V6.547h2.266V15H41.117Zm6.594-9.672V6.547h1.445V8.2H47.648v4.219a1.007,1.007,0,0,0,.18.672.9.9,0,0,0,.688.2,3.6,3.6,0,0,0,.664-.055v1.711a4.648,4.648,0,0,1-1.367.2,2.156,2.156,0,0,1-2.422-2.4V8.2H44.156V6.547h1.234V4.469ZM49.766,10.7a5.013,5.013,0,0,1,.484-2.242A3.546,3.546,0,0,1,51.645,6.93a4.069,4.069,0,0,1,2.113-.539,3.849,3.849,0,0,1,2.793,1.047,4.2,4.2,0,0,1,1.207,2.844l.016.578a4.418,4.418,0,0,1-1.086,3.121,4.209,4.209,0,0,1-5.832,0,4.5,4.5,0,0,1-1.09-3.187Zm2.258.16a3.16,3.16,0,0,0,.453,1.843,1.628,1.628,0,0,0,2.578.008,3.457,3.457,0,0,0,.461-2.015,3.128,3.128,0,0,0-.461-1.831,1.5,1.5,0,0,0-1.3-.649,1.474,1.474,0,0,0-1.281.646A3.516,3.516,0,0,0,52.023,10.856Z" transform="translate(683 1663)" fill="#12263f"/>
          <g id="Grupo_1045335" data-name="Grupo 1045335" transform="translate(0 8.391)">
            <path id="Trazado_741095" data-name="Trazado 741095" d="M2923.117-7904.262h63.948" transform="translate(-2461.117 9571.356)" fill="none" stroke="#221b6b" stroke-width="1.5"/>
            <g id="Trazado_741769" data-name="Trazado 741769" transform="translate(525 1642.609)" fill="#e4e0f8">
              <path d="M 41 47.5 C 18.66822242736816 47.5 0.5 36.95794296264648 0.5 24 C 0.5 11.04205513000488 18.66822242736816 0.5 41 0.5 C 63.33177947998047 0.5 81.5 11.04205513000488 81.5 24 C 81.5 36.95794296264648 63.33177947998047 47.5 41 47.5 Z" stroke="none"/>
              <path d="M 41 1 C 35.54595565795898 1 30.25741195678711 1.624687194824219 25.28127670288086 2.856735229492188 C 20.4920539855957 4.042488098144531 16.19645690917969 5.736743927001953 12.51380157470703 7.8924560546875 C 8.869148254394531 10.02590942382812 6.015632629394531 12.4992561340332 4.03253173828125 15.24378967285156 C 2.020286560058594 18.02865600585938 1 20.97466659545898 1 24 C 1 27.02533340454102 2.020286560058594 29.97134399414062 4.03253173828125 32.75621032714844 C 6.015632629394531 35.5007438659668 8.869148254394531 37.97409057617188 12.51380157470703 40.1075439453125 C 16.19645690917969 42.26325607299805 20.4920539855957 43.95751190185547 25.28127670288086 45.14326477050781 C 30.25741195678711 46.37531280517578 35.54595565795898 47 41 47 C 46.45404434204102 47 51.74258804321289 46.37531280517578 56.71871948242188 45.14326477050781 C 61.50794219970703 43.95751190185547 65.80354309082031 42.26325607299805 69.48619842529297 40.1075439453125 C 73.130859375 37.97409057617188 75.98436737060547 35.5007438659668 77.96746826171875 32.75621032714844 C 79.97971343994141 29.97134399414062 81 27.02533340454102 81 24 C 81 20.97466659545898 79.97971343994141 18.02865600585938 77.96746826171875 15.24378967285156 C 75.98436737060547 12.4992561340332 73.130859375 10.02590942382812 69.48619842529297 7.8924560546875 C 65.80354309082031 5.736743927001953 61.50794219970703 4.042488098144531 56.71871948242188 2.856735229492188 C 51.74258804321289 1.624687194824219 46.45404434204102 1 41 1 M 41 0 C 63.6436767578125 0 82 10.74516677856445 82 24 C 82 37.25483322143555 63.6436767578125 48 41 48 C 18.3563232421875 48 0 37.25483322143555 0 24 C 0 10.74516677856445 18.3563232421875 0 41 0 Z" stroke="none" fill="#221b6b"/>
            </g>
          </g>
          <g id="Grupo_1045309" data-name="Grupo 1045309" transform="translate(611.586 1670)">
            <path id="Trazado_772745-2" data-name="Trazado 772745" d="M5.749,1.64,0,0,5.735,8.894l.014-.018.014.018L11.5,0Z" transform="translate(53.939 10.498) rotate(-90)" fill="#12263f"/>
            <path id="Trazado_772746-2" data-name="Trazado 772746" d="M57.37,4.749H8.414" fill="none" stroke="#12263f" stroke-width="2"/>
          </g>
        </g>
      </g>
      <g id="Grupo_1045349" data-name="Grupo 1045349" transform="translate(0 -1)">
        <g id="Grupo_1045345" data-name="Grupo 1045345" transform="translate(0 6)">
          <g id="Grupo_1022635" data-name="Grupo 1022635" transform="translate(24 35)">
            <path id="Trazado_741560" data-name="Trazado 741560" d="M7978.5-9990.693l24.785-18.886" transform="translate(-7463.162 11742.212)" fill="#221b6b" stroke="#221b6b" stroke-width="1"/>
            <path id="Trazado_741561" data-name="Trazado 741561" d="M7978.5-10009.579l44.014,3.936" transform="translate(-7485.507 11794.823)" fill="#221b6b" stroke="#221b6b" stroke-width="1"/>
            <g id="Elipse_7823" data-name="Elipse 7823" transform="translate(535 1706)" fill="#e4e0f8" stroke="#221b6b" stroke-width="1">
              <ellipse cx="24" cy="17" rx="24" ry="17" stroke="none"/>
              <ellipse cx="24" cy="17" rx="23.5" ry="16.5" fill="none"/>
            </g>
            <g id="Trazado_741771" data-name="Trazado 741771" transform="translate(535 1772)" fill="#e4e0f8">
              <path d="M 24 33.5 C 11.04205989837646 33.5 0.5 26.09812927246094 0.5 17 C 0.5 7.901869773864746 11.04205989837646 0.5 24 0.5 C 36.95793914794922 0.5 47.5 7.901869773864746 47.5 17 C 47.5 26.09812927246094 36.95793914794922 33.5 24 33.5 Z" stroke="none"/>
              <path d="M 24 1 C 20.85729026794434 1 17.8107795715332 1.435321807861328 14.94511032104492 2.293880462646484 C 12.19149017333984 3.118860244750977 9.722740173339844 4.296880722045898 7.607460021972656 5.795209884643555 C 3.346569061279297 8.813329696655273 1 12.79261016845703 1 17 C 1 21.20738983154297 3.346569061279297 25.18667030334473 7.607460021972656 28.20479011535645 C 9.722740173339844 29.70312118530273 12.19149017333984 30.88113975524902 14.94511032104492 31.70611953735352 C 17.8107795715332 32.56467819213867 20.85729026794434 33 24 33 C 27.14270973205566 33 30.1892204284668 32.56467819213867 33.05488967895508 31.70611953735352 C 35.80850982666016 30.88113975524902 38.27725982666016 29.70312118530273 40.39253997802734 28.20479011535645 C 44.6534309387207 25.18667030334473 47 21.20738983154297 47 17 C 47 12.79261016845703 44.6534309387207 8.813329696655273 40.39253997802734 5.795209884643555 C 38.27725982666016 4.296880722045898 35.80850982666016 3.118860244750977 33.05488967895508 2.293880462646484 C 30.1892204284668 1.435321807861328 27.14270973205566 1 24 1 M 24 0 C 37.25482940673828 0 48 7.611160278320312 48 17 C 48 26.38883972167969 37.25482940673828 34 24 34 C 10.74517059326172 34 0 26.38883972167969 0 17 C 0 7.611160278320312 10.74517059326172 0 24 0 Z" stroke="none" fill="#221b6b"/>
            </g>
            <g id="Trazado_741770" data-name="Trazado 741770" transform="translate(438 1733)" fill="#e4e0f8">
              <path d="M 42 59.5 C 36.37905502319336 59.5 30.92735481262207 58.7140007019043 25.79631042480469 57.16382217407227 C 20.84735488891602 55.66865539550781 16.40482139587402 53.52968978881836 12.59213352203369 50.80633163452148 C 8.791899681091309 48.09187698364258 5.810511112213135 44.93473434448242 3.730799913406372 41.42258834838867 C 1.587000012397766 37.8022346496582 0.5 33.95911026000977 0.5 30 C 0.5 26.04088973999023 1.587000012397766 22.19776725769043 3.730799913406372 18.57741165161133 C 5.810511112213135 15.06526660919189 8.791899681091309 11.90812206268311 12.59213352203369 9.193666458129883 C 16.40482139587402 6.470311164855957 20.84735488891602 4.331344604492188 25.79631042480469 2.836177825927734 C 30.92735481262207 1.28600001335144 36.37905502319336 0.5 42 0.5 C 47.62094497680664 0.5 53.07265472412109 1.28600001335144 58.20370101928711 2.836177825927734 C 63.15265655517578 4.331344604492188 67.59517669677734 6.470311164855957 71.40786743164062 9.193666458129883 C 75.20811462402344 11.90812206268311 78.18949127197266 15.06526660919189 80.26920318603516 18.57740020751953 C 82.41300201416016 22.19776725769043 83.5 26.04088973999023 83.5 30 C 83.5 33.95911026000977 82.41300201416016 37.8022346496582 80.26920318603516 41.42259979248047 C 78.18949127197266 44.93473434448242 75.20811462402344 48.09187698364258 71.40786743164062 50.80633163452148 C 67.59517669677734 53.52968978881836 63.15265655517578 55.66865539550781 58.20370101928711 57.16382217407227 C 53.07265472412109 58.7140007019043 47.62094497680664 59.5 42 59.5 Z" stroke="none"/>
              <path d="M 42 1 C 19.39252471923828 1 1 14.00934600830078 1 30 C 1 45.99065399169922 19.39252471923828 59 42 59 C 64.60747528076172 59 83 45.99065399169922 83 30 C 83 14.00934600830078 64.60747528076172 1 42 1 M 42 0 C 65.19595336914062 0 84 13.43145370483398 84 30 C 84 46.56854248046875 65.19595336914062 60 42 60 C 18.80403137207031 60 0 46.56854248046875 0 30 C 0 13.43145370483398 18.80403137207031 0 42 0 Z" stroke="none" fill="#221b6b"/>
            </g>
          </g>
          <g id="Grupo_1045342" data-name="Grupo 1045342" transform="translate(0 -6)">
            <g id="Grupo_1022636" data-name="Grupo 1022636" transform="translate(28 30.5)">
              <path id="Trazado_772797" data-name="Trazado 772797" d="M7.438,12.656H3.328L2.547,15H.055L4.289,3.625H6.461L10.719,15H8.227Zm-3.477-1.9H6.8L5.375,6.5ZM14.2,4.469V6.547h1.445V8.2H14.2v4.219a1.007,1.007,0,0,0,.18.672.9.9,0,0,0,.688.2,3.6,3.6,0,0,0,.664-.055v1.711a4.648,4.648,0,0,1-1.367.2,2.156,2.156,0,0,1-2.422-2.4V8.2H10.711V6.547h1.234V4.469Zm7.453,4.2a6.134,6.134,0,0,0-.812-.062,1.654,1.654,0,0,0-1.68.867V15H16.906V6.547h2.133L19.1,7.555a2.092,2.092,0,0,1,1.883-1.164,2.366,2.366,0,0,1,.7.1ZM25.125,15H22.859V6.547h2.266Zm-2.4-10.641a1.112,1.112,0,0,1,.34-.836,1.465,1.465,0,0,1,1.848,0,1.105,1.105,0,0,1,.344.836,1.108,1.108,0,0,1-.348.844,1.448,1.448,0,0,1-1.836,0A1.108,1.108,0,0,1,22.727,4.359ZM34.6,10.852a5.119,5.119,0,0,1-.867,3.168,2.872,2.872,0,0,1-2.422,1.137,2.639,2.639,0,0,1-2.2-1.055l-.1.9H26.984V3h2.258V7.3A2.571,2.571,0,0,1,31.3,6.391a2.9,2.9,0,0,1,2.426,1.137,5.126,5.126,0,0,1,.879,3.2Zm-2.258-.164a3.363,3.363,0,0,0-.406-1.871,1.374,1.374,0,0,0-1.211-.59,1.489,1.489,0,0,0-1.484.883v3.336a1.509,1.509,0,0,0,1.5.891,1.394,1.394,0,0,0,1.438-1.078A5.562,5.562,0,0,0,32.344,10.688Zm8.711,3.453a2.831,2.831,0,0,1-2.312,1.016,2.67,2.67,0,0,1-2.074-.781,3.335,3.335,0,0,1-.73-2.289V6.547H38.2v5.467q0,1.322,1.2,1.322a1.63,1.63,0,0,0,1.578-.8V6.547h2.266V15H41.117Zm6.594-9.672V6.547h1.445V8.2H47.648v4.219a1.007,1.007,0,0,0,.18.672.9.9,0,0,0,.688.2,3.6,3.6,0,0,0,.664-.055v1.711a4.648,4.648,0,0,1-1.367.2,2.156,2.156,0,0,1-2.422-2.4V8.2H44.156V6.547h1.234V4.469ZM49.766,10.7a5.013,5.013,0,0,1,.484-2.242A3.546,3.546,0,0,1,51.645,6.93a4.069,4.069,0,0,1,2.113-.539,3.849,3.849,0,0,1,2.793,1.047,4.2,4.2,0,0,1,1.207,2.844l.016.578a4.418,4.418,0,0,1-1.086,3.121,4.209,4.209,0,0,1-5.832,0,4.5,4.5,0,0,1-1.09-3.187Zm2.258.16a3.16,3.16,0,0,0,.453,1.843,1.628,1.628,0,0,0,2.578.008,3.457,3.457,0,0,0,.461-2.015,3.128,3.128,0,0,0-.461-1.831,1.5,1.5,0,0,0-1.3-.649,1.474,1.474,0,0,0-1.281.646A3.516,3.516,0,0,0,52.023,10.856ZM4.383,31.336A1.481,1.481,0,0,0,5.4,30.992a1.2,1.2,0,0,0,.406-.914H7.922a2.9,2.9,0,0,1-.469,1.574,3.093,3.093,0,0,1-1.262,1.109,3.949,3.949,0,0,1-1.77.395A3.67,3.67,0,0,1,1.563,32,4.56,4.56,0,0,1,.516,28.82v-.148a4.508,4.508,0,0,1,1.039-3.117,3.627,3.627,0,0,1,2.852-1.164,3.555,3.555,0,0,1,2.543.9,3.2,3.2,0,0,1,.973,2.4H5.8A1.551,1.551,0,0,0,5.4,26.623a1.354,1.354,0,0,0-1.031-.412,1.36,1.36,0,0,0-1.191.575,3.333,3.333,0,0,0-.4,1.866v.235a3.375,3.375,0,0,0,.4,1.878A1.377,1.377,0,0,0,4.383,31.336ZM8.859,28.7a5.013,5.013,0,0,1,.484-2.242,3.546,3.546,0,0,1,1.395-1.523,4.069,4.069,0,0,1,2.113-.539,3.849,3.849,0,0,1,2.793,1.047,4.2,4.2,0,0,1,1.207,2.844l.016.578a4.418,4.418,0,0,1-1.086,3.121,3.775,3.775,0,0,1-2.914,1.176,3.793,3.793,0,0,1-2.918-1.172A4.5,4.5,0,0,1,8.859,28.8Zm2.258.16A3.16,3.16,0,0,0,11.57,30.7a1.5,1.5,0,0,0,1.3.638,1.5,1.5,0,0,0,1.281-.63,3.457,3.457,0,0,0,.461-2.015,3.128,3.128,0,0,0-.461-1.831,1.5,1.5,0,0,0-1.3-.649,1.474,1.474,0,0,0-1.281.646A3.516,3.516,0,0,0,11.117,28.856Zm9.258-4.309.07.945a2.971,2.971,0,0,1,2.43-1.1,2.255,2.255,0,0,1,2.242,1.289,2.9,2.9,0,0,1,2.539-1.289,2.521,2.521,0,0,1,2.047.8,3.681,3.681,0,0,1,.672,2.41V33H28.109V27.609a1.61,1.61,0,0,0-.281-1.051,1.246,1.246,0,0,0-.992-.332,1.409,1.409,0,0,0-1.406.969l.008,5.8H23.18V27.617a1.59,1.59,0,0,0-.289-1.062,1.259,1.259,0,0,0-.984-.328,1.463,1.463,0,0,0-1.391.8V33H18.258V24.547Zm19.344,4.3a5.07,5.07,0,0,1-.887,3.129,2.843,2.843,0,0,1-2.395,1.176,2.633,2.633,0,0,1-2.07-.891V36.25H32.109v-11.7H34.2l.078.828a2.654,2.654,0,0,1,2.141-.984,2.862,2.862,0,0,1,2.43,1.156,5.207,5.207,0,0,1,.867,3.188Zm-2.258-.164a3.327,3.327,0,0,0-.418-1.82,1.361,1.361,0,0,0-1.215-.641,1.478,1.478,0,0,0-1.461.813V30.5a1.5,1.5,0,0,0,1.477.836Q37.461,31.336,37.461,28.688Zm8.719,3.453a2.831,2.831,0,0,1-2.312,1.016,2.67,2.67,0,0,1-2.074-.781,3.335,3.335,0,0,1-.73-2.289V24.547H43.32v5.467q0,1.322,1.2,1.322a1.63,1.63,0,0,0,1.578-.8V24.547h2.266V33H46.242Zm7.781,1.016a4.15,4.15,0,0,1-3.027-1.141,4.054,4.054,0,0,1-1.168-3.039v-.219a5.106,5.106,0,0,1,.492-2.277,3.612,3.612,0,0,1,1.395-1.547,3.914,3.914,0,0,1,2.059-.543,3.508,3.508,0,0,1,2.73,1.094,4.444,4.444,0,0,1,1,3.1v.922H52.055a2.1,2.1,0,0,0,.66,1.328,2,2,0,0,0,1.395.5,2.437,2.437,0,0,0,2.039-.945l1.109,1.242a3.389,3.389,0,0,1-1.375,1.121A4.511,4.511,0,0,1,53.961,33.156ZM53.7,26.211a1.411,1.411,0,0,0-1.09.455,2.357,2.357,0,0,0-.535,1.3h3.141v-.181a1.681,1.681,0,0,0-.406-1.165A1.456,1.456,0,0,0,53.7,26.211ZM63.3,30.664a.727.727,0,0,0-.41-.652,4.659,4.659,0,0,0-1.316-.426q-3.016-.633-3.016-2.562a2.323,2.323,0,0,1,.934-1.879,3.766,3.766,0,0,1,2.441-.754,4.053,4.053,0,0,1,2.574.758,2.388,2.388,0,0,1,.965,1.969H63.211a1.092,1.092,0,0,0-.312-.8A1.322,1.322,0,0,0,61.922,26a1.351,1.351,0,0,0-.883.258.814.814,0,0,0-.312.656.7.7,0,0,0,.355.605,3.657,3.657,0,0,0,1.2.4A9.8,9.8,0,0,1,63.7,28.3a2.336,2.336,0,0,1,1.789,2.273,2.2,2.2,0,0,1-.992,1.871,4.28,4.28,0,0,1-2.562.715,4.47,4.47,0,0,1-1.887-.379,3.166,3.166,0,0,1-1.293-1.039,2.414,2.414,0,0,1-.469-1.426H60.43a1.179,1.179,0,0,0,.445.922,1.766,1.766,0,0,0,1.109.32,1.635,1.635,0,0,0,.98-.246A.766.766,0,0,0,63.3,30.664Zm6.352-8.2v2.078h1.445V26.2H69.648v4.219a1.007,1.007,0,0,0,.18.672.9.9,0,0,0,.688.2,3.6,3.6,0,0,0,.664-.055v1.711a4.648,4.648,0,0,1-1.367.2,2.156,2.156,0,0,1-2.422-2.4V26.2H66.156V24.547h1.234V22.469ZM71.766,28.7a5.013,5.013,0,0,1,.484-2.242,3.546,3.546,0,0,1,1.395-1.523,4.069,4.069,0,0,1,2.113-.539,3.849,3.849,0,0,1,2.793,1.047,4.2,4.2,0,0,1,1.207,2.844l.016.578a4.418,4.418,0,0,1-1.086,3.121,4.209,4.209,0,0,1-5.832,0,4.5,4.5,0,0,1-1.09-3.187Zm2.258.16a3.16,3.16,0,0,0,.453,1.843,1.628,1.628,0,0,0,2.578.008,3.457,3.457,0,0,0,.461-2.015,3.128,3.128,0,0,0-.461-1.831,1.5,1.5,0,0,0-1.3-.649,1.474,1.474,0,0,0-1.281.646A3.516,3.516,0,0,0,74.023,28.856Z" transform="translate(655 1747.5)" fill="#12263f"/>
            </g>
            <g id="Grupo_1045310" data-name="Grupo 1045310" transform="translate(611.586 1793)">
              <path id="Trazado_772745-3" data-name="Trazado 772745" d="M5.749,1.64,0,0,5.735,8.894l.014-.018.014.018L11.5,0Z" transform="translate(53.939 10.498) rotate(-90)" fill="#12263f"/>
              <path id="Trazado_772746-3" data-name="Trazado 772746" d="M57.37,4.749H8.414" fill="none" stroke="#12263f" stroke-width="2"/>
            </g>
          </g>
        </g>
      </g>
      <g id="Grupo_1045340" data-name="Grupo 1045340" transform="translate(0 15)">
        <g id="Grupo_1022637" data-name="Grupo 1022637" transform="translate(-56 17)">
          <path id="Trazado_741564" data-name="Trazado 741564" d="M2923.117-7904.262h63.948" transform="translate(-2069.117 9562.747)" fill="none" stroke="#2c2481" stroke-width="2"/>
          <g id="Elipse_7825" data-name="Elipse 7825" transform="translate(917 1634)" fill="#2c2481" stroke="#2c2481" stroke-width="2">
            <ellipse cx="41" cy="24" rx="41" ry="24" stroke="none"/>
            <ellipse cx="41" cy="24" rx="40" ry="23" fill="none"/>
          </g>
        </g>
        <path id="Trazado_772795" data-name="Trazado 772795" d="M5.762,15H3.418V3.625H5.762Zm1.672-4.289A5.094,5.094,0,0,1,8.32,7.563a2.877,2.877,0,0,1,2.426-1.172,2.589,2.589,0,0,1,2.039.922V3h2.266V15H13.012l-.109-.9a2.657,2.657,0,0,1-2.172,1.055A2.869,2.869,0,0,1,8.336,13.98,5.258,5.258,0,0,1,7.434,10.711Zm2.258.168a3.337,3.337,0,0,0,.414,1.823,1.349,1.349,0,0,0,1.2.634,1.511,1.511,0,0,0,1.477-.884V9.111a1.489,1.489,0,0,0-1.461-.884Q9.691,8.227,9.691,10.879Zm11,4.277a4.15,4.15,0,0,1-3.027-1.141A4.054,4.054,0,0,1,16.5,10.977v-.219a5.106,5.106,0,0,1,.492-2.277,3.612,3.612,0,0,1,1.395-1.547,3.914,3.914,0,0,1,2.059-.543,3.508,3.508,0,0,1,2.73,1.094,4.444,4.444,0,0,1,1,3.1v.922H18.785a2.1,2.1,0,0,0,.66,1.328,2,2,0,0,0,1.395.5,2.437,2.437,0,0,0,2.039-.945l1.109,1.242a3.389,3.389,0,0,1-1.375,1.121A4.511,4.511,0,0,1,20.691,15.156Zm-.258-6.945a1.411,1.411,0,0,0-1.09.455,2.357,2.357,0,0,0-.535,1.3h3.141V9.788a1.681,1.681,0,0,0-.406-1.165A1.456,1.456,0,0,0,20.434,8.211Zm7.094-1.664.07.977a2.951,2.951,0,0,1,2.43-1.133,2.453,2.453,0,0,1,2,.789A3.682,3.682,0,0,1,32.7,9.539V15H30.441V9.594a1.465,1.465,0,0,0-.312-1.043,1.4,1.4,0,0,0-1.039-.324,1.553,1.553,0,0,0-1.43.813V15H25.4V6.547Zm9.586-2.078V6.547h1.445V8.2H37.113v4.219a1.007,1.007,0,0,0,.18.672.9.9,0,0,0,.688.2,3.6,3.6,0,0,0,.664-.055v1.711a4.648,4.648,0,0,1-1.367.2,2.156,2.156,0,0,1-2.422-2.4V8.2H33.621V6.547h1.234V4.469ZM42.2,15H39.934V6.547H42.2ZM39.8,4.359a1.112,1.112,0,0,1,.34-.836,1.465,1.465,0,0,1,1.848,0,1.105,1.105,0,0,1,.344.836,1.108,1.108,0,0,1-.348.844,1.448,1.448,0,0,1-1.836,0A1.108,1.108,0,0,1,39.8,4.359ZM44.605,15V8.2H43.348V6.547h1.258V6.156a3.17,3.17,0,0,1,.98-2.457,3.945,3.945,0,0,1,2.723-.863,9.031,9.031,0,0,1,2.563.461l-.328,1.867a10,10,0,0,0-1.187-.293,5.835,5.835,0,0,0-.906-.066q-1.578,0-1.578,1.4v.344h1.664V8.2H46.871V15Zm7.32,0H49.66V6.547h2.266Zm5.383-1.664a1.481,1.481,0,0,0,1.016-.344,1.2,1.2,0,0,0,.406-.914h2.117a2.9,2.9,0,0,1-.469,1.574,3.093,3.093,0,0,1-1.262,1.109,3.949,3.949,0,0,1-1.77.395A3.67,3.67,0,0,1,54.488,14a4.56,4.56,0,0,1-1.047-3.184v-.148A4.508,4.508,0,0,1,54.48,7.555a3.627,3.627,0,0,1,2.852-1.164,3.555,3.555,0,0,1,2.543.9,3.2,3.2,0,0,1,.973,2.4H58.73a1.551,1.551,0,0,0-.406-1.072,1.51,1.51,0,0,0-2.223.163,3.333,3.333,0,0,0-.4,1.866v.235a3.375,3.375,0,0,0,.4,1.878A1.377,1.377,0,0,0,57.309,13.336ZM67.035,15a2.507,2.507,0,0,1-.227-.758,2.732,2.732,0,0,1-2.133.914,3,3,0,0,1-2.059-.719,2.312,2.312,0,0,1-.816-1.812,2.389,2.389,0,0,1,1-2.062,4.915,4.915,0,0,1,2.879-.727h1.039V9.352a1.393,1.393,0,0,0-.3-.937,1.183,1.183,0,0,0-.949-.352,1.345,1.345,0,0,0-.895.273.929.929,0,0,0-.324.75H61.988a2.268,2.268,0,0,1,.453-1.359,3,3,0,0,1,1.281-.98,4.669,4.669,0,0,1,1.859-.355,3.689,3.689,0,0,1,2.48.785,2.747,2.747,0,0,1,.918,2.207v3.664a4.041,4.041,0,0,0,.336,1.82V15Zm-1.867-1.57a1.945,1.945,0,0,0,.922-.223,1.462,1.462,0,0,0,.625-.6V11.156h-.844q-1.7,0-1.8,1.172l-.008.133a.9.9,0,0,0,.3.7A1.153,1.153,0,0,0,65.168,13.43Zm5.2-2.719a5.094,5.094,0,0,1,.887-3.148,2.877,2.877,0,0,1,2.426-1.172,2.589,2.589,0,0,1,2.039.922V3H77.98V15H75.941l-.109-.9a2.657,2.657,0,0,1-2.172,1.055,2.869,2.869,0,0,1-2.395-1.176A5.258,5.258,0,0,1,70.363,10.711Zm2.258.168a3.337,3.337,0,0,0,.414,1.823,1.349,1.349,0,0,0,1.2.634,1.511,1.511,0,0,0,1.477-.884V9.111a1.489,1.489,0,0,0-1.461-.884Q72.621,8.227,72.621,10.879Zm6.758-.184a5.013,5.013,0,0,1,.484-2.242A3.546,3.546,0,0,1,81.258,6.93a4.069,4.069,0,0,1,2.113-.539,3.849,3.849,0,0,1,2.793,1.047,4.2,4.2,0,0,1,1.207,2.844l.016.578A4.418,4.418,0,0,1,86.3,13.98a4.209,4.209,0,0,1-5.832,0,4.5,4.5,0,0,1-1.09-3.187Zm2.258.16A3.16,3.16,0,0,0,82.09,12.7a1.628,1.628,0,0,0,2.578.008,3.457,3.457,0,0,0,.461-2.015,3.128,3.128,0,0,0-.461-1.831,1.5,1.5,0,0,0-1.3-.649,1.474,1.474,0,0,0-1.281.646A3.516,3.516,0,0,0,81.637,10.856ZM93.527,8.664a6.134,6.134,0,0,0-.812-.062,1.654,1.654,0,0,0-1.68.867V15H88.777V6.547H90.91l.063,1.008a2.092,2.092,0,0,1,1.883-1.164,2.366,2.366,0,0,1,.7.1Z" transform="translate(1027.052 1663)" fill="#12263f"/>
        <g id="Grupo_1045298" data-name="Grupo 1045298" transform="translate(957.25 1670)">
          <path id="Trazado_772745-4" data-name="Trazado 772745" d="M5.749,1.64,0,0,5.735,8.894l.014-.018.014.018L11.5,0Z" transform="translate(53.939 10.498) rotate(-90)" fill="#12263f"/>
          <path id="Trazado_772746-4" data-name="Trazado 772746" d="M57.37,4.749H8.414" fill="none" stroke="#12263f" stroke-width="2"/>
        </g>
      </g>
      <g id="Grupo_1045344" data-name="Grupo 1045344" transform="translate(0 -5.111)">
        <g id="Grupo_1022638" data-name="Grupo 1022638" transform="translate(16 53.111)">
          <g id="Rectángulo_373067" data-name="Rectángulo 373067" transform="translate(837 1706)" fill="#e4e0f8" stroke="#221b6b" stroke-width="1">
            <rect width="90" height="28" stroke="none"/>
            <rect x="0.5" y="0.5" width="89" height="27" fill="none"/>
          </g>
          <g id="Rectángulo_373069" data-name="Rectángulo 373069" transform="translate(901 1762)" fill="#e4e0f8" stroke="#221b6b" stroke-width="1">
            <rect width="90" height="28" stroke="none"/>
            <rect x="0.5" y="0.5" width="89" height="27" fill="none"/>
          </g>
          <path id="Trazado_741567" data-name="Trazado 741567" d="M8600.243-9664.708v-14.5h-119v14.5" transform="translate(-7654.243 11427.552)" fill="none" stroke="#221b6b" stroke-width="1.5"/>
          <path id="Trazado_741568" data-name="Trazado 741568" d="M8537-9677.7v-9.724" transform="translate(-7654.771 11426.048)" fill="none" stroke="#221b6b" stroke-width="1.5"/>
          <g id="Polígono_24" data-name="Polígono 24" transform="translate(878.621 1733.636)" fill="#221b6b">
            <path d="M 5.974831581115723 4.681818962097168 L 0.9342593550682068 4.681818962097168 L 3.454545497894287 0.9013934135437012 L 5.974831581115723 4.681818962097168 Z" stroke="none"/>
            <path d="M 3.454545497894287 1.802772760391235 L 1.868513107299805 4.181818962097168 L 5.04057788848877 4.181818962097168 L 3.454545497894287 1.802772760391235 M 3.454545497894287 -9.5367431640625e-07 L 6.909095287322998 5.181818962097168 L -4.291534423828125e-06 5.181818962097168 L 3.454545497894287 -9.5367431640625e-07 Z" stroke="none" fill="#221b6b"/>
          </g>
          <g id="Rectángulo_373068" data-name="Rectángulo 373068" transform="translate(782 1761)" fill="#e4e0f8" stroke="#221b6b" stroke-width="1">
            <rect width="90" height="28" stroke="none"/>
            <rect x="0.5" y="0.5" width="89" height="27" fill="none"/>
          </g>
        </g>
        <g id="Grupo_1045343" data-name="Grupo 1045343" transform="translate(0 21)">
          <path id="Trazado_772796" data-name="Trazado 772796" d="M5.6,3.625H7.945V11.5a3.766,3.766,0,0,1-.48,1.918A3.261,3.261,0,0,1,6.109,14.7a4.235,4.235,0,0,1-1.977.453,4.025,4.025,0,0,1-2.812-.918,3.335,3.335,0,0,1-1.008-2.6H2.672a1.829,1.829,0,0,0,.352,1.234,1.407,1.407,0,0,0,1.109.4,1.343,1.343,0,0,0,1.07-.461A1.948,1.948,0,0,0,5.6,11.5ZM13.7,15.156a4.15,4.15,0,0,1-3.027-1.141A4.054,4.054,0,0,1,9.5,10.977v-.219A5.106,5.106,0,0,1,9.992,8.48a3.612,3.612,0,0,1,1.395-1.547,3.914,3.914,0,0,1,2.059-.543,3.508,3.508,0,0,1,2.73,1.094,4.444,4.444,0,0,1,1,3.1v.922H11.789a2.1,2.1,0,0,0,.66,1.328,2,2,0,0,0,1.395.5,2.437,2.437,0,0,0,2.039-.945l1.109,1.242a3.389,3.389,0,0,1-1.375,1.121A4.511,4.511,0,0,1,13.7,15.156Zm-.258-6.945a1.411,1.411,0,0,0-1.09.455,2.357,2.357,0,0,0-.535,1.3h3.141V9.788a1.681,1.681,0,0,0-.406-1.165A1.456,1.456,0,0,0,13.438,8.211Zm9.766.453a6.134,6.134,0,0,0-.812-.062,1.654,1.654,0,0,0-1.68.867V15H18.453V6.547h2.133l.063,1.008a2.092,2.092,0,0,1,1.883-1.164,2.366,2.366,0,0,1,.7.1ZM28.953,15a2.507,2.507,0,0,1-.227-.758,2.732,2.732,0,0,1-2.133.914,3,3,0,0,1-2.059-.719,2.312,2.312,0,0,1-.816-1.812,2.389,2.389,0,0,1,1-2.062,4.915,4.915,0,0,1,2.879-.727h1.039V9.352a1.393,1.393,0,0,0-.3-.937,1.183,1.183,0,0,0-.949-.352,1.345,1.345,0,0,0-.895.273.929.929,0,0,0-.324.75H23.906a2.268,2.268,0,0,1,.453-1.359,3,3,0,0,1,1.281-.98A4.669,4.669,0,0,1,27.5,6.391a3.689,3.689,0,0,1,2.48.785A2.747,2.747,0,0,1,30.9,9.383v3.664a4.041,4.041,0,0,0,.336,1.82V15Zm-1.867-1.57a1.945,1.945,0,0,0,.922-.223,1.462,1.462,0,0,0,.625-.6V11.156h-.844q-1.7,0-1.8,1.172l-.008.133a.9.9,0,0,0,.3.7A1.153,1.153,0,0,0,27.086,13.43Zm10.3-4.766A6.134,6.134,0,0,0,36.57,8.6a1.654,1.654,0,0,0-1.68.867V15H32.633V6.547h2.133l.063,1.008a2.092,2.092,0,0,1,1.883-1.164,2.366,2.366,0,0,1,.7.1Zm.586,2.031a5.053,5.053,0,0,1,.887-3.148,2.9,2.9,0,0,1,2.434-1.156A2.6,2.6,0,0,1,43.453,7.43l.148-.883h1.984v11.7H43.32V14.273a2.6,2.6,0,0,1-2.047.883,2.878,2.878,0,0,1-2.406-1.172A5.3,5.3,0,0,1,37.969,10.7Zm2.258.16a3.314,3.314,0,0,0,.426,1.847,1.363,1.363,0,0,0,1.2.634,1.518,1.518,0,0,0,1.469-.829v-3.5a1.506,1.506,0,0,0-1.453-.8,1.38,1.38,0,0,0-1.211.634A3.661,3.661,0,0,0,40.227,10.856Zm12.2,3.285a2.831,2.831,0,0,1-2.312,1.016,2.67,2.67,0,0,1-2.074-.781,3.335,3.335,0,0,1-.73-2.289V6.547h2.258v5.467q0,1.322,1.2,1.322a1.63,1.63,0,0,0,1.578-.8V6.547h2.266V15H52.484ZM58.75,15H56.492V6.547H58.75ZM58.086,3.117h2.461L58.383,5.539H56.547ZM65.594,15a2.507,2.507,0,0,1-.227-.758,2.732,2.732,0,0,1-2.133.914,3,3,0,0,1-2.059-.719,2.312,2.312,0,0,1-.816-1.812,2.389,2.389,0,0,1,1-2.062,4.915,4.915,0,0,1,2.879-.727h1.039V9.352a1.393,1.393,0,0,0-.3-.937,1.183,1.183,0,0,0-.949-.352,1.345,1.345,0,0,0-.895.273.929.929,0,0,0-.324.75H60.547A2.268,2.268,0,0,1,61,7.727a3,3,0,0,1,1.281-.98,4.669,4.669,0,0,1,1.859-.355,3.689,3.689,0,0,1,2.48.785,2.747,2.747,0,0,1,.918,2.207v3.664a4.041,4.041,0,0,0,.336,1.82V15Zm-1.867-1.57a1.945,1.945,0,0,0,.922-.223,1.462,1.462,0,0,0,.625-.6V11.156H64.43q-1.7,0-1.8,1.172l-.008.133a.9.9,0,0,0,.3.7A1.153,1.153,0,0,0,63.727,13.43Zm9.18-2.719a5.094,5.094,0,0,1,.887-3.148,2.877,2.877,0,0,1,2.426-1.172,2.589,2.589,0,0,1,2.039.922V3h2.266V15H78.484l-.109-.9A2.657,2.657,0,0,1,76.2,15.156a2.869,2.869,0,0,1-2.395-1.176A5.258,5.258,0,0,1,72.906,10.711Zm2.258.168a3.337,3.337,0,0,0,.414,1.823,1.349,1.349,0,0,0,1.2.634,1.511,1.511,0,0,0,1.477-.884V9.111A1.489,1.489,0,0,0,76.8,8.227Q75.164,8.227,75.164,10.879Zm11,4.277a4.15,4.15,0,0,1-3.027-1.141,4.054,4.054,0,0,1-1.168-3.039v-.219a5.106,5.106,0,0,1,.492-2.277,3.612,3.612,0,0,1,1.395-1.547,3.914,3.914,0,0,1,2.059-.543,3.508,3.508,0,0,1,2.73,1.094,4.444,4.444,0,0,1,1,3.1v.922H84.258a2.1,2.1,0,0,0,.66,1.328,2,2,0,0,0,1.395.5,2.437,2.437,0,0,0,2.039-.945l1.109,1.242a3.389,3.389,0,0,1-1.375,1.121A4.511,4.511,0,0,1,86.164,15.156Zm-.258-6.945a1.411,1.411,0,0,0-1.09.455,2.357,2.357,0,0,0-.535,1.3h3.141V9.788a1.681,1.681,0,0,0-.406-1.165A1.456,1.456,0,0,0,85.906,8.211ZM.539,28.711a4.954,4.954,0,0,1,.926-3.133,3,3,0,0,1,2.5-1.187,2.631,2.631,0,0,1,2.164.953l.094-.8H8.266v8.172a3.613,3.613,0,0,1-.5,1.93A3.236,3.236,0,0,1,6.344,35.9a4.985,4.985,0,0,1-2.141.43,4.635,4.635,0,0,1-1.812-.371A3.217,3.217,0,0,1,1.055,35l1-1.375A2.645,2.645,0,0,0,4.1,34.57a1.936,1.936,0,0,0,1.4-.48A1.8,1.8,0,0,0,6,32.727v-.453a2.612,2.612,0,0,1-2.055.883A2.992,2.992,0,0,1,1.48,31.965,4.953,4.953,0,0,1,.539,28.8Zm2.258.168a3.085,3.085,0,0,0,.461,1.8,1.466,1.466,0,0,0,1.266.653A1.568,1.568,0,0,0,6,30.561V27a1.564,1.564,0,0,0-1.461-.775,1.476,1.476,0,0,0-1.277.665A3.477,3.477,0,0,0,2.8,28.879Zm11.094,4.277a4.15,4.15,0,0,1-3.027-1.141A4.054,4.054,0,0,1,9.7,28.977v-.219a5.106,5.106,0,0,1,.492-2.277,3.612,3.612,0,0,1,1.395-1.547,3.914,3.914,0,0,1,2.059-.543,3.508,3.508,0,0,1,2.73,1.094,4.444,4.444,0,0,1,1,3.1v.922H11.984a2.1,2.1,0,0,0,.66,1.328,2,2,0,0,0,1.395.5,2.437,2.437,0,0,0,2.039-.945l1.109,1.242a3.389,3.389,0,0,1-1.375,1.121A4.511,4.511,0,0,1,13.891,33.156Zm-.258-6.945a1.411,1.411,0,0,0-1.09.455,2.357,2.357,0,0,0-.535,1.3h3.141v-.181a1.681,1.681,0,0,0-.406-1.165A1.456,1.456,0,0,0,13.633,26.211Zm7.094-1.664.07.977a2.951,2.951,0,0,1,2.43-1.133,2.453,2.453,0,0,1,2,.789,3.682,3.682,0,0,1,.672,2.359V33H23.641V27.594a1.465,1.465,0,0,0-.312-1.043,1.4,1.4,0,0,0-1.039-.324,1.553,1.553,0,0,0-1.43.813V33H18.6V24.547ZM31.5,33.156a4.15,4.15,0,0,1-3.027-1.141A4.054,4.054,0,0,1,27.3,28.977v-.219A5.106,5.106,0,0,1,27.8,26.48a3.612,3.612,0,0,1,1.395-1.547,3.914,3.914,0,0,1,2.059-.543,3.508,3.508,0,0,1,2.73,1.094,4.444,4.444,0,0,1,1,3.1v.922H29.594a2.1,2.1,0,0,0,.66,1.328,2,2,0,0,0,1.395.5,2.437,2.437,0,0,0,2.039-.945L34.8,31.633a3.389,3.389,0,0,1-1.375,1.121A4.511,4.511,0,0,1,31.5,33.156Zm-.258-6.945a1.411,1.411,0,0,0-1.09.455,2.357,2.357,0,0,0-.535,1.3h3.141v-.181a1.681,1.681,0,0,0-.406-1.165A1.456,1.456,0,0,0,31.242,26.211Zm9.766.453A6.134,6.134,0,0,0,40.2,26.6a1.654,1.654,0,0,0-1.68.867V33H36.258V24.547h2.133l.063,1.008a2.092,2.092,0,0,1,1.883-1.164,2.366,2.366,0,0,1,.7.1ZM46.758,33a2.507,2.507,0,0,1-.227-.758,2.732,2.732,0,0,1-2.133.914,3,3,0,0,1-2.059-.719,2.312,2.312,0,0,1-.816-1.812,2.389,2.389,0,0,1,1-2.062,4.915,4.915,0,0,1,2.879-.727h1.039v-.484a1.393,1.393,0,0,0-.3-.937,1.183,1.183,0,0,0-.949-.352,1.345,1.345,0,0,0-.895.273.929.929,0,0,0-.324.75H41.711a2.268,2.268,0,0,1,.453-1.359,3,3,0,0,1,1.281-.98,4.669,4.669,0,0,1,1.859-.355,3.689,3.689,0,0,1,2.48.785,2.747,2.747,0,0,1,.918,2.207v3.664a4.041,4.041,0,0,0,.336,1.82V33Zm-1.867-1.57a1.945,1.945,0,0,0,.922-.223,1.462,1.462,0,0,0,.625-.6V29.156h-.844q-1.7,0-1.8,1.172l-.008.133a.9.9,0,0,0,.3.7A1.153,1.153,0,0,0,44.891,31.43ZM52.82,33H50.555V21H52.82Zm4.242,0H54.8V24.547h2.266Zm-2.4-10.641a1.112,1.112,0,0,1,.34-.836,1.465,1.465,0,0,1,1.848,0,1.193,1.193,0,0,1,0,1.68,1.448,1.448,0,0,1-1.836,0A1.108,1.108,0,0,1,54.664,22.359Zm6.852,8.82h4.133V33H58.633V31.625l3.977-5.258H58.75v-1.82h6.773v1.33ZM71.961,33a2.507,2.507,0,0,1-.227-.758,2.732,2.732,0,0,1-2.133.914,3,3,0,0,1-2.059-.719,2.312,2.312,0,0,1-.816-1.812,2.389,2.389,0,0,1,1-2.062,4.915,4.915,0,0,1,2.879-.727h1.039v-.484a1.393,1.393,0,0,0-.3-.937,1.183,1.183,0,0,0-.949-.352,1.345,1.345,0,0,0-.895.273.929.929,0,0,0-.324.75H66.914a2.268,2.268,0,0,1,.453-1.359,3,3,0,0,1,1.281-.98,4.669,4.669,0,0,1,1.859-.355,3.689,3.689,0,0,1,2.48.785,2.747,2.747,0,0,1,.918,2.207v3.664a4.041,4.041,0,0,0,.336,1.82V33Zm-1.867-1.57a1.945,1.945,0,0,0,.922-.223,1.462,1.462,0,0,0,.625-.6V29.156H70.8q-1.7,0-1.8,1.172l-.008.133a.9.9,0,0,0,.3.7A1.153,1.153,0,0,0,70.094,31.43Zm9.063-.094a1.481,1.481,0,0,0,1.016-.344,1.2,1.2,0,0,0,.406-.914H82.7a2.9,2.9,0,0,1-.469,1.574,3.093,3.093,0,0,1-1.262,1.109,3.949,3.949,0,0,1-1.77.395A3.67,3.67,0,0,1,76.336,32a4.56,4.56,0,0,1-1.047-3.184v-.148a4.508,4.508,0,0,1,1.039-3.117,3.627,3.627,0,0,1,2.852-1.164,3.555,3.555,0,0,1,2.543.9,3.2,3.2,0,0,1,.973,2.4H80.578a1.551,1.551,0,0,0-.406-1.072,1.51,1.51,0,0,0-2.223.163,3.333,3.333,0,0,0-.4,1.866v.235a3.375,3.375,0,0,0,.4,1.878A1.377,1.377,0,0,0,79.156,31.336ZM86.367,33H84.1V24.547h2.266Zm-2.4-10.641a1.112,1.112,0,0,1,.34-.836,1.465,1.465,0,0,1,1.848,0,1.193,1.193,0,0,1,0,1.68,1.448,1.448,0,0,1-1.836,0A1.108,1.108,0,0,1,83.969,22.359ZM87.875,28.7a5.013,5.013,0,0,1,.484-2.242,3.546,3.546,0,0,1,1.395-1.523,4.069,4.069,0,0,1,2.113-.539,3.849,3.849,0,0,1,2.793,1.047,4.2,4.2,0,0,1,1.207,2.844l.016.578A4.418,4.418,0,0,1,94.8,31.98a4.209,4.209,0,0,1-5.832,0,4.5,4.5,0,0,1-1.09-3.187Zm2.258.16a3.16,3.16,0,0,0,.453,1.843,1.628,1.628,0,0,0,2.578.008,3.457,3.457,0,0,0,.461-2.015,3.128,3.128,0,0,0-.461-1.831,1.5,1.5,0,0,0-1.3-.649,1.474,1.474,0,0,0-1.281.646A3.516,3.516,0,0,0,90.133,28.856ZM92.313,21h2.461l-2.164,2.422H90.773Zm7.039,3.547.07.977a2.951,2.951,0,0,1,2.43-1.133,2.453,2.453,0,0,1,2,.789,3.682,3.682,0,0,1,.672,2.359V33h-2.258V27.594a1.465,1.465,0,0,0-.312-1.043,1.4,1.4,0,0,0-1.039-.324,1.553,1.553,0,0,0-1.43.813V33H97.227V24.547Z" transform="translate(1027.052 1751)" fill="#12263f"/>
          <g id="Grupo_1045299" data-name="Grupo 1045299" transform="translate(957.25 1766)">
            <path id="Trazado_772745-5" data-name="Trazado 772745" d="M5.749,1.64,0,0,5.735,8.894l.014-.018.014.018L11.5,0Z" transform="translate(53.939 10.498) rotate(-90)" fill="#12263f"/>
            <path id="Trazado_772746-5" data-name="Trazado 772746" d="M57.37,4.749H8.414" fill="none" stroke="#12263f" stroke-width="2"/>
          </g>
        </g>
      </g>
      <g id="Grupo_1045350" data-name="Grupo 1045350" transform="translate(0 7)">
        <path id="Trazado_772794" data-name="Trazado 772794" d="M6.709,10.836H4.842V15H2.5V3.625H6.724a4.778,4.778,0,0,1,3.109.9,3.1,3.1,0,0,1,1.094,2.539A3.5,3.5,0,0,1,10.424,9,3.437,3.437,0,0,1,8.9,10.242l2.461,4.648V15H8.842Zm-1.867-1.9H6.732A1.936,1.936,0,0,0,8.1,8.488,1.606,1.606,0,0,0,8.584,7.25a1.719,1.719,0,0,0-.457-1.266,1.9,1.9,0,0,0-1.4-.461H4.842Zm11.609,6.219a4.15,4.15,0,0,1-3.027-1.141,4.054,4.054,0,0,1-1.168-3.039v-.219a5.106,5.106,0,0,1,.492-2.277,3.612,3.612,0,0,1,1.395-1.547A3.914,3.914,0,0,1,16.2,6.391a3.508,3.508,0,0,1,2.73,1.094,4.444,4.444,0,0,1,1,3.1v.922H14.545a2.1,2.1,0,0,0,.66,1.328,2,2,0,0,0,1.395.5,2.437,2.437,0,0,0,2.039-.945l1.109,1.242a3.389,3.389,0,0,1-1.375,1.121A4.511,4.511,0,0,1,16.451,15.156Zm-.258-6.945a1.411,1.411,0,0,0-1.09.455,2.357,2.357,0,0,0-.535,1.3h3.141V9.788A1.681,1.681,0,0,0,17.3,8.623,1.456,1.456,0,0,0,16.193,8.211ZM23.592,15H21.326V3h2.266Zm6.758,0a2.507,2.507,0,0,1-.227-.758,2.732,2.732,0,0,1-2.133.914,3,3,0,0,1-2.059-.719,2.312,2.312,0,0,1-.816-1.812,2.389,2.389,0,0,1,1-2.062,4.915,4.915,0,0,1,2.879-.727h1.039V9.352a1.393,1.393,0,0,0-.3-.937,1.183,1.183,0,0,0-.949-.352,1.345,1.345,0,0,0-.895.273.929.929,0,0,0-.324.75H25.3a2.268,2.268,0,0,1,.453-1.359,3,3,0,0,1,1.281-.98A4.669,4.669,0,0,1,28.9,6.391a3.689,3.689,0,0,1,2.48.785,2.747,2.747,0,0,1,.918,2.207v3.664a4.041,4.041,0,0,0,.336,1.82V15Zm-1.867-1.57a1.945,1.945,0,0,0,.922-.223,1.462,1.462,0,0,0,.625-.6V11.156h-.844q-1.7,0-1.8,1.172l-.008.133a.9.9,0,0,0,.3.7A1.153,1.153,0,0,0,28.482,13.43Zm9.062-.094a1.481,1.481,0,0,0,1.016-.344,1.2,1.2,0,0,0,.406-.914h2.117a2.9,2.9,0,0,1-.469,1.574,3.093,3.093,0,0,1-1.262,1.109,3.949,3.949,0,0,1-1.77.395A3.67,3.67,0,0,1,34.724,14a4.56,4.56,0,0,1-1.047-3.184v-.148a4.508,4.508,0,0,1,1.039-3.117,3.627,3.627,0,0,1,2.852-1.164,3.555,3.555,0,0,1,2.543.9,3.2,3.2,0,0,1,.973,2.4H38.967a1.551,1.551,0,0,0-.406-1.072,1.51,1.51,0,0,0-2.223.163,3.333,3.333,0,0,0-.4,1.866v.235a3.375,3.375,0,0,0,.4,1.878A1.377,1.377,0,0,0,37.545,13.336ZM44.756,15H42.49V6.547h2.266Zm-2.4-10.641a1.112,1.112,0,0,1,.34-.836,1.465,1.465,0,0,1,1.848,0,1.105,1.105,0,0,1,.344.836,1.108,1.108,0,0,1-.348.844,1.448,1.448,0,0,1-1.836,0A1.108,1.108,0,0,1,42.357,4.359ZM46.263,10.7a5.013,5.013,0,0,1,.484-2.242A3.546,3.546,0,0,1,48.142,6.93a4.069,4.069,0,0,1,2.113-.539,3.849,3.849,0,0,1,2.793,1.047,4.2,4.2,0,0,1,1.207,2.844l.016.578a4.418,4.418,0,0,1-1.086,3.121,4.209,4.209,0,0,1-5.832,0,4.5,4.5,0,0,1-1.09-3.187Zm2.258.16a3.16,3.16,0,0,0,.453,1.843,1.628,1.628,0,0,0,2.578.008,3.457,3.457,0,0,0,.461-2.015,3.128,3.128,0,0,0-.461-1.831,1.5,1.5,0,0,0-1.3-.649,1.474,1.474,0,0,0-1.281.646A3.516,3.516,0,0,0,48.521,10.856ZM50.7,3h2.461L51,5.422H49.162ZM57.74,6.547l.07.977a2.951,2.951,0,0,1,2.43-1.133,2.453,2.453,0,0,1,2,.789,3.682,3.682,0,0,1,.672,2.359V15H60.654V9.594a1.465,1.465,0,0,0-.312-1.043A1.4,1.4,0,0,0,59.3,8.227a1.553,1.553,0,0,0-1.43.813V15H55.615V6.547Z" transform="translate(1027.052 1581)" fill="#12263f"/>
        <path id="Trazado_741098" data-name="Trazado 741098" d="M3001.077-7703.507l53.664,34.806,51.888-34.806-51.888-34.385Z" transform="translate(-2156.795 9295.393)" fill="#e4e0f8" stroke="#221b6b" stroke-width="1"/>
        <g id="Grupo_1045339" data-name="Grupo 1045339" transform="translate(0 -1.155)">
          <path id="Trazado_772745-6" data-name="Trazado 772745" d="M5.749,1.64,0,0,5.735,8.894l.014-.018.014.018L11.5,0Z" transform="translate(1015.188 1598.653) rotate(-90)" fill="#12263f"/>
          <path id="Trazado_772746-6" data-name="Trazado 772746" d="M57.37,4.749H8.414" transform="translate(961.25 1588.155)" fill="none" stroke="#12263f" stroke-width="2"/>
        </g>
      </g>
    </g>
    <g id="Grupo_1003815" data-name="Grupo 1003815" transform="translate(-21.912 -179)">
      <g id="Grupo_1003570" data-name="Grupo 1003570" transform="translate(526.91 1663)">
        <g transform="matrix(1, 0, 0, 1, -115, -24)" filter="url(#Unión_1)">
          <path id="Unión_1-2" data-name="Unión 1" d="M286,45h18.724l-9.362,11ZM95.5,45a16.5,16.5,0,0,1,0-33H494.6a16.5,16.5,0,1,1,0,33Z" transform="translate(115 24)" fill="#221b6b"/>
        </g>
      </g>
      <path id="Trazado_772791" data-name="Trazado 772791" d="M-179.64-5.546H-184.7v3.428h5.941V0h-8.578V-12.8h8.561v2.136H-184.7v3.05h5.063ZM-174.7,0h-2.549V-13.5h2.549Zm6.469.176a4.668,4.668,0,0,1-3.406-1.283,4.561,4.561,0,0,1-1.314-3.419v-.246a5.745,5.745,0,0,1,.554-2.562,4.064,4.064,0,0,1,1.569-1.74,4.4,4.4,0,0,1,2.316-.611,3.947,3.947,0,0,1,3.072,1.23,5,5,0,0,1,1.121,3.489v1.037h-6.056a2.36,2.36,0,0,0,.743,1.494,2.245,2.245,0,0,0,1.569.563,2.742,2.742,0,0,0,2.294-1.063l1.248,1.4a3.813,3.813,0,0,1-1.547,1.261A5.075,5.075,0,0,1-168.231.176Zm-.29-7.813a1.587,1.587,0,0,0-1.226.512,2.651,2.651,0,0,0-.6,1.466h3.533v-.2a1.891,1.891,0,0,0-.457-1.311A1.638,1.638,0,0,0-168.521-7.638ZM-160.5-9.51l.079,1.063a3.342,3.342,0,0,1,2.733-1.239,2.536,2.536,0,0,1,2.522,1.45,3.265,3.265,0,0,1,2.856-1.45,2.836,2.836,0,0,1,2.3.9,4.141,4.141,0,0,1,.756,2.711V0H-151.8V-6.064a1.811,1.811,0,0,0-.316-1.182,1.4,1.4,0,0,0-1.116-.374,1.585,1.585,0,0,0-1.582,1.09L-154.8,0h-2.54V-6.056a1.789,1.789,0,0,0-.325-1.2,1.416,1.416,0,0,0-1.107-.369,1.646,1.646,0,0,0-1.564.9V0h-2.54V-9.51ZM-142.919.176a4.668,4.668,0,0,1-3.406-1.283,4.561,4.561,0,0,1-1.314-3.419v-.246a5.745,5.745,0,0,1,.554-2.562,4.064,4.064,0,0,1,1.569-1.74,4.4,4.4,0,0,1,2.316-.611,3.947,3.947,0,0,1,3.072,1.23,5,5,0,0,1,1.121,3.489v1.037h-6.056a2.36,2.36,0,0,0,.743,1.494,2.245,2.245,0,0,0,1.569.563,2.742,2.742,0,0,0,2.294-1.063l1.248,1.4a3.813,3.813,0,0,1-1.547,1.261A5.075,5.075,0,0,1-142.919.176Zm-.29-7.813a1.587,1.587,0,0,0-1.226.512,2.651,2.651,0,0,0-.6,1.466h3.533v-.2a1.891,1.891,0,0,0-.457-1.311A1.638,1.638,0,0,0-143.209-7.638Zm7.98-1.872.079,1.1a3.32,3.32,0,0,1,2.733-1.274,2.759,2.759,0,0,1,2.25.888,4.142,4.142,0,0,1,.756,2.654V0h-2.54V-6.082a1.648,1.648,0,0,0-.352-1.173,1.574,1.574,0,0,0-1.169-.365,1.747,1.747,0,0,0-1.608.914V0h-2.54V-9.51Zm10.784-2.338V-9.51h1.626v1.863h-1.626V-2.9a1.133,1.133,0,0,0,.2.756,1.015,1.015,0,0,0,.773.229,4.051,4.051,0,0,0,.747-.062V-.053a5.229,5.229,0,0,1-1.538.229,2.425,2.425,0,0,1-2.725-2.7V-7.646h-1.389V-9.51h1.389v-2.338Zm2.382,7a5.64,5.64,0,0,1,.545-2.522,3.989,3.989,0,0,1,1.569-1.714,4.577,4.577,0,0,1,2.377-.606,4.33,4.33,0,0,1,3.142,1.178,4.727,4.727,0,0,1,1.358,3.2l.018.65a4.97,4.97,0,0,1-1.222,3.511A4.247,4.247,0,0,1-117.554.176a4.268,4.268,0,0,1-3.283-1.318,5.058,5.058,0,0,1-1.226-3.586Zm2.54.18a3.555,3.555,0,0,0,.51,2.073,1.682,1.682,0,0,0,1.459.717,1.686,1.686,0,0,0,1.441-.709,3.89,3.89,0,0,0,.519-2.267,3.519,3.519,0,0,0-.519-2.06,1.686,1.686,0,0,0-1.459-.731,1.658,1.658,0,0,0-1.441.726A3.955,3.955,0,0,0-119.522-4.662Zm13.184,2.035a.818.818,0,0,0-.461-.734,5.241,5.241,0,0,0-1.481-.479q-3.393-.712-3.393-2.883a2.613,2.613,0,0,1,1.05-2.114,4.237,4.237,0,0,1,2.747-.848,4.56,4.56,0,0,1,2.9.853A2.687,2.687,0,0,1-103.9-6.618h-2.54a1.229,1.229,0,0,0-.352-.9,1.488,1.488,0,0,0-1.1-.356,1.52,1.52,0,0,0-.993.29.916.916,0,0,0-.352.738.783.783,0,0,0,.4.681,4.114,4.114,0,0,0,1.349.448,11.019,11.019,0,0,1,1.6.426,2.628,2.628,0,0,1,2.013,2.558,2.481,2.481,0,0,1-1.116,2.1,4.815,4.815,0,0,1-2.883.8,5.029,5.029,0,0,1-2.123-.426,3.561,3.561,0,0,1-1.455-1.169,2.716,2.716,0,0,1-.527-1.6h2.408a1.326,1.326,0,0,0,.5,1.037,1.987,1.987,0,0,0,1.248.36,1.839,1.839,0,0,0,1.1-.277A.861.861,0,0,0-106.339-2.628Zm17.156-2.039A5.758,5.758,0,0,1-90.158-1.1,3.231,3.231,0,0,1-92.883.176a2.969,2.969,0,0,1-2.47-1.187L-95.467,0h-2.285V-13.5h2.54v4.843A2.893,2.893,0,0,1-92.9-9.686a3.258,3.258,0,0,1,2.729,1.279,5.767,5.767,0,0,1,.989,3.6Zm-2.54-.185a3.783,3.783,0,0,0-.457-2.1,1.545,1.545,0,0,0-1.362-.664,1.676,1.676,0,0,0-1.67.993v3.753a1.7,1.7,0,0,0,1.688,1,1.568,1.568,0,0,0,1.617-1.213A6.257,6.257,0,0,0-91.723-4.852ZM-82.107,0a2.821,2.821,0,0,1-.255-.853,3.073,3.073,0,0,1-2.4,1.028,3.376,3.376,0,0,1-2.316-.809A2.6,2.6,0,0,1-88-2.672a2.687,2.687,0,0,1,1.121-2.32,5.529,5.529,0,0,1,3.239-.817h1.169v-.545a1.567,1.567,0,0,0-.338-1.055,1.331,1.331,0,0,0-1.068-.4A1.513,1.513,0,0,0-84.88-7.5a1.045,1.045,0,0,0-.365.844h-2.54a2.551,2.551,0,0,1,.51-1.529,3.37,3.37,0,0,1,1.441-1.1,5.253,5.253,0,0,1,2.092-.4,4.15,4.15,0,0,1,2.791.883,3.09,3.09,0,0,1,1.033,2.483V-2.2a4.546,4.546,0,0,0,.378,2.048V0Zm-2.1-1.767a2.188,2.188,0,0,0,1.037-.25,1.645,1.645,0,0,0,.7-.672V-4.324h-.949q-1.907,0-2.03,1.318l-.009.149a1.017,1.017,0,0,0,.334.782A1.3,1.3,0,0,0-84.208-1.767Zm.967-11.733h2.769l-2.435,2.725h-2.065ZM-72.817-2.628a.818.818,0,0,0-.461-.734,5.241,5.241,0,0,0-1.481-.479q-3.393-.712-3.393-2.883A2.613,2.613,0,0,1-77.1-8.837a4.237,4.237,0,0,1,2.747-.848,4.56,4.56,0,0,1,2.9.853,2.687,2.687,0,0,1,1.085,2.215h-2.54a1.229,1.229,0,0,0-.352-.9,1.488,1.488,0,0,0-1.1-.356,1.52,1.52,0,0,0-.993.29.916.916,0,0,0-.352.738.783.783,0,0,0,.4.681,4.114,4.114,0,0,0,1.349.448,11.019,11.019,0,0,1,1.6.426,2.628,2.628,0,0,1,2.013,2.558,2.481,2.481,0,0,1-1.116,2.1,4.815,4.815,0,0,1-2.883.8A5.029,5.029,0,0,1-76.469-.25a3.561,3.561,0,0,1-1.455-1.169,2.716,2.716,0,0,1-.527-1.6h2.408a1.326,1.326,0,0,0,.5,1.037,1.987,1.987,0,0,0,1.248.36,1.839,1.839,0,0,0,1.1-.277A.861.861,0,0,0-72.817-2.628ZM-66.032,0h-2.549V-9.51h2.549Zm-2.7-11.971a1.251,1.251,0,0,1,.382-.94,1.436,1.436,0,0,1,1.042-.369,1.44,1.44,0,0,1,1.037.369,1.244,1.244,0,0,1,.387.94,1.247,1.247,0,0,1-.391.949,1.443,1.443,0,0,1-1.033.369,1.443,1.443,0,0,1-1.033-.369A1.247,1.247,0,0,1-68.73-11.971Zm8.745,10.1a1.666,1.666,0,0,0,1.143-.387,1.355,1.355,0,0,0,.457-1.028H-56a3.258,3.258,0,0,1-.527,1.771A3.48,3.48,0,0,1-57.951-.268a4.442,4.442,0,0,1-1.991.444,4.129,4.129,0,0,1-3.217-1.3A5.13,5.13,0,0,1-64.336-4.7v-.167a5.071,5.071,0,0,1,1.169-3.507,4.08,4.08,0,0,1,3.208-1.31A4,4,0,0,1-57.1-8.67,3.594,3.594,0,0,1-56-5.968h-2.382a1.745,1.745,0,0,0-.457-1.206A1.524,1.524,0,0,0-60-7.638a1.53,1.53,0,0,0-1.34.647,3.749,3.749,0,0,0-.453,2.1v.264a3.8,3.8,0,0,0,.448,2.113A1.549,1.549,0,0,0-59.985-1.872Zm5.036-2.971A5.64,5.64,0,0,1-54.4-7.365a3.989,3.989,0,0,1,1.569-1.714,4.577,4.577,0,0,1,2.377-.606,4.33,4.33,0,0,1,3.142,1.178,4.727,4.727,0,0,1,1.358,3.2l.018.65a4.97,4.97,0,0,1-1.222,3.511A4.247,4.247,0,0,1-50.44.176a4.268,4.268,0,0,1-3.283-1.318,5.058,5.058,0,0,1-1.226-3.586Zm2.54.18a3.555,3.555,0,0,0,.51,2.073,1.682,1.682,0,0,0,1.459.717A1.686,1.686,0,0,0-49-2.581a3.89,3.89,0,0,0,.519-2.267A3.519,3.519,0,0,0-49-6.907a1.686,1.686,0,0,0-1.459-.731,1.658,1.658,0,0,0-1.441.726A3.955,3.955,0,0,0-52.409-4.662Zm13.184,2.035a.818.818,0,0,0-.461-.734,5.241,5.241,0,0,0-1.481-.479q-3.393-.712-3.393-2.883a2.613,2.613,0,0,1,1.05-2.114,4.237,4.237,0,0,1,2.747-.848,4.56,4.56,0,0,1,2.9.853,2.687,2.687,0,0,1,1.085,2.215h-2.54a1.229,1.229,0,0,0-.352-.9,1.488,1.488,0,0,0-1.1-.356,1.52,1.52,0,0,0-.993.29.916.916,0,0,0-.352.738.783.783,0,0,0,.4.681,4.114,4.114,0,0,0,1.349.448,11.019,11.019,0,0,1,1.6.426,2.628,2.628,0,0,1,2.013,2.558,2.481,2.481,0,0,1-1.116,2.1,4.815,4.815,0,0,1-2.883.8A5.029,5.029,0,0,1-42.877-.25a3.561,3.561,0,0,1-1.455-1.169,2.716,2.716,0,0,1-.527-1.6h2.408a1.326,1.326,0,0,0,.5,1.037,1.987,1.987,0,0,0,1.248.36A1.839,1.839,0,0,0-39.6-1.9.861.861,0,0,0-39.226-2.628ZM-30.472,0V-12.8h3.938a5.98,5.98,0,0,1,3.019.76,5.3,5.3,0,0,1,2.079,2.162,6.669,6.669,0,0,1,.747,3.186V-6.1a6.688,6.688,0,0,1-.734,3.173,5.256,5.256,0,0,1-2.07,2.153A6.025,6.025,0,0,1-26.508,0Zm2.637-10.661v8.543h1.274A2.863,2.863,0,0,0-24.2-3.129a4.567,4.567,0,0,0,.835-2.892V-6.7a4.64,4.64,0,0,0-.809-2.958,2.854,2.854,0,0,0-2.364-1.006ZM-16.26,0h-2.549V-9.51h2.549Zm-2.7-11.971a1.251,1.251,0,0,1,.382-.94,1.436,1.436,0,0,1,1.042-.369,1.44,1.44,0,0,1,1.037.369,1.244,1.244,0,0,1,.387.94,1.247,1.247,0,0,1-.391.949,1.443,1.443,0,0,1-1.033.369,1.443,1.443,0,0,1-1.033-.369A1.247,1.247,0,0,1-18.958-11.971ZM-8.657,0a2.821,2.821,0,0,1-.255-.853,3.073,3.073,0,0,1-2.4,1.028,3.376,3.376,0,0,1-2.316-.809,2.6,2.6,0,0,1-.918-2.039,2.687,2.687,0,0,1,1.121-2.32,5.529,5.529,0,0,1,3.239-.817h1.169v-.545a1.567,1.567,0,0,0-.338-1.055,1.331,1.331,0,0,0-1.068-.4A1.513,1.513,0,0,0-11.43-7.5a1.045,1.045,0,0,0-.365.844h-2.54a2.551,2.551,0,0,1,.51-1.529,3.37,3.37,0,0,1,1.441-1.1,5.253,5.253,0,0,1,2.092-.4A4.15,4.15,0,0,1-7.5-8.8,3.09,3.09,0,0,1-6.469-6.319V-2.2A4.546,4.546,0,0,0-6.091-.149V0Zm-2.1-1.767a2.188,2.188,0,0,0,1.037-.25,1.645,1.645,0,0,0,.7-.672V-4.324h-.949q-1.907,0-2.03,1.318l-.009.149a1.017,1.017,0,0,0,.334.782A1.3,1.3,0,0,0-10.758-1.767Zm5.871-3.059A5.573,5.573,0,0,1-3.845-8.35,3.375,3.375,0,0,1-1.037-9.686,2.96,2.96,0,0,1,1.4-8.613l.105-.9h2.3V-.316a4.064,4.064,0,0,1-.567,2.171,3.641,3.641,0,0,1-1.6,1.406,5.608,5.608,0,0,1-2.408.483A5.215,5.215,0,0,1-2.8,3.327a3.619,3.619,0,0,1-1.5-1.077L-3.182.7a2.975,2.975,0,0,0,2.3,1.063A2.178,2.178,0,0,0,.694,1.226,2.027,2.027,0,0,0,1.257-.308v-.51A2.938,2.938,0,0,1-1.055.176a3.366,3.366,0,0,1-2.773-1.34A5.572,5.572,0,0,1-4.887-4.72Zm2.54.189a3.47,3.47,0,0,0,.519,2.029A1.65,1.65,0,0,0-.4-1.872a1.764,1.764,0,0,0,1.661-.871V-6.749A1.76,1.76,0,0,0-.387-7.62a1.66,1.66,0,0,0-1.437.748A3.911,3.911,0,0,0-2.347-4.636ZM11.1-7.128a6.9,6.9,0,0,0-.914-.07,1.86,1.86,0,0,0-1.89.976V0H5.757V-9.51h2.4l.07,1.134a2.354,2.354,0,0,1,2.118-1.31,2.662,2.662,0,0,1,.791.114ZM17.569,0a2.821,2.821,0,0,1-.255-.853,3.073,3.073,0,0,1-2.4,1.028A3.376,3.376,0,0,1,12.6-.633a2.6,2.6,0,0,1-.918-2.039A2.687,2.687,0,0,1,12.8-4.992,5.529,5.529,0,0,1,16.04-5.81h1.169v-.545a1.567,1.567,0,0,0-.338-1.055A1.331,1.331,0,0,0,15.8-7.8,1.513,1.513,0,0,0,14.8-7.5a1.045,1.045,0,0,0-.365.844h-2.54a2.551,2.551,0,0,1,.51-1.529,3.37,3.37,0,0,1,1.441-1.1,5.253,5.253,0,0,1,2.092-.4,4.15,4.15,0,0,1,2.791.883,3.09,3.09,0,0,1,1.033,2.483V-2.2a4.546,4.546,0,0,0,.378,2.048V0Zm-2.1-1.767a2.188,2.188,0,0,0,1.037-.25,1.645,1.645,0,0,0,.7-.672V-4.324H16.26q-1.907,0-2.03,1.318l-.009.149a1.017,1.017,0,0,0,.334.782A1.3,1.3,0,0,0,15.469-1.767ZM24.091-9.51l.079,1.063A3.342,3.342,0,0,1,26.9-9.686a2.536,2.536,0,0,1,2.522,1.45,3.265,3.265,0,0,1,2.856-1.45,2.836,2.836,0,0,1,2.3.9,4.141,4.141,0,0,1,.756,2.711V0H32.792V-6.064a1.811,1.811,0,0,0-.316-1.182,1.4,1.4,0,0,0-1.116-.374,1.585,1.585,0,0,0-1.582,1.09L29.786,0h-2.54V-6.056a1.789,1.789,0,0,0-.325-1.2,1.416,1.416,0,0,0-1.107-.369,1.646,1.646,0,0,0-1.564.9V0h-2.54V-9.51ZM42.8,0a2.821,2.821,0,0,1-.255-.853,3.073,3.073,0,0,1-2.4,1.028,3.376,3.376,0,0,1-2.316-.809,2.6,2.6,0,0,1-.918-2.039,2.687,2.687,0,0,1,1.121-2.32,5.529,5.529,0,0,1,3.239-.817h1.169v-.545A1.567,1.567,0,0,0,42.1-7.409a1.331,1.331,0,0,0-1.068-.4A1.513,1.513,0,0,0,40.03-7.5a1.045,1.045,0,0,0-.365.844h-2.54a2.551,2.551,0,0,1,.51-1.529,3.37,3.37,0,0,1,1.441-1.1,5.253,5.253,0,0,1,2.092-.4,4.15,4.15,0,0,1,2.791.883,3.09,3.09,0,0,1,1.033,2.483V-2.2a4.546,4.546,0,0,0,.378,2.048V0ZM40.7-1.767a2.188,2.188,0,0,0,1.037-.25,1.645,1.645,0,0,0,.7-.672V-4.324h-.949q-1.907,0-2.03,1.318l-.009.149a1.017,1.017,0,0,0,.334.782A1.3,1.3,0,0,0,40.7-1.767ZM59.291-5.546H54.229v3.428H60.17V0H51.592V-12.8h8.561v2.136H54.229v3.05h5.063Zm4.6-3.964.079,1.1A3.32,3.32,0,0,1,66.7-9.686a2.759,2.759,0,0,1,2.25.888,4.142,4.142,0,0,1,.756,2.654V0h-2.54V-6.082a1.648,1.648,0,0,0-.352-1.173,1.574,1.574,0,0,0-1.169-.365,1.747,1.747,0,0,0-1.608.914V0H61.5V-9.51Zm10.784-2.338V-9.51H76.3v1.863H74.672V-2.9a1.133,1.133,0,0,0,.2.756,1.015,1.015,0,0,0,.773.229,4.051,4.051,0,0,0,.747-.062V-.053a5.229,5.229,0,0,1-1.538.229,2.425,2.425,0,0,1-2.725-2.7V-7.646H70.743V-9.51h1.389v-2.338ZM80.394,0H77.845V-9.51h2.549ZM77.7-11.971a1.251,1.251,0,0,1,.382-.94,1.436,1.436,0,0,1,1.042-.369,1.44,1.44,0,0,1,1.037.369,1.244,1.244,0,0,1,.387.94,1.247,1.247,0,0,1-.391.949,1.443,1.443,0,0,1-1.033.369,1.443,1.443,0,0,1-1.033-.369A1.247,1.247,0,0,1,77.7-11.971ZM82.09-4.825a5.731,5.731,0,0,1,1-3.542,3.237,3.237,0,0,1,2.729-1.318A2.913,2.913,0,0,1,88.11-8.648V-13.5h2.549V0H88.365l-.123-1.011A2.989,2.989,0,0,1,85.8.176,3.228,3.228,0,0,1,83.1-1.147,5.916,5.916,0,0,1,82.09-4.825Zm2.54.189A3.754,3.754,0,0,0,85.1-2.585a1.517,1.517,0,0,0,1.354.713,1.7,1.7,0,0,0,1.661-.995V-6.625a1.675,1.675,0,0,0-1.644-.995Q84.63-7.62,84.63-4.636ZM98.139,0a2.821,2.821,0,0,1-.255-.853,3.073,3.073,0,0,1-2.4,1.028,3.376,3.376,0,0,1-2.316-.809,2.6,2.6,0,0,1-.918-2.039,2.687,2.687,0,0,1,1.121-2.32,5.529,5.529,0,0,1,3.239-.817h1.169v-.545a1.567,1.567,0,0,0-.338-1.055,1.331,1.331,0,0,0-1.068-.4,1.513,1.513,0,0,0-1.006.308A1.045,1.045,0,0,0,95-6.653h-2.54a2.551,2.551,0,0,1,.51-1.529,3.37,3.37,0,0,1,1.441-1.1,5.253,5.253,0,0,1,2.092-.4,4.15,4.15,0,0,1,2.791.883,3.09,3.09,0,0,1,1.033,2.483V-2.2a4.546,4.546,0,0,0,.378,2.048V0Zm-2.1-1.767a2.188,2.188,0,0,0,1.037-.25,1.645,1.645,0,0,0,.7-.672V-4.324h-.949q-1.907,0-2.03,1.318l-.009.149a1.017,1.017,0,0,0,.334.782A1.3,1.3,0,0,0,96.038-1.767Zm5.845-3.059a5.731,5.731,0,0,1,1-3.542,3.237,3.237,0,0,1,2.729-1.318A2.913,2.913,0,0,1,107.9-8.648V-13.5h2.549V0h-2.294l-.123-1.011A2.989,2.989,0,0,1,105.592.176,3.228,3.228,0,0,1,102.9-1.147,5.916,5.916,0,0,1,101.883-4.825Zm2.54.189a3.754,3.754,0,0,0,.466,2.051,1.517,1.517,0,0,0,1.354.713,1.7,1.7,0,0,0,1.661-.995V-6.625a1.675,1.675,0,0,0-1.644-.995Q104.423-7.62,104.423-4.636Zm12.938.18h-4.948V-6.5h4.948Zm6.943-.229h-2.1V0h-2.637V-12.8h4.755a5.375,5.375,0,0,1,3.5,1.011,3.488,3.488,0,0,1,1.23,2.856,3.937,3.937,0,0,1-.567,2.184,3.866,3.866,0,0,1-1.718,1.393l2.769,5.229V0H126.7ZM122.2-6.82h2.127a2.178,2.178,0,0,0,1.538-.505,1.806,1.806,0,0,0,.545-1.393,1.933,1.933,0,0,0-.514-1.424,2.137,2.137,0,0,0-1.578-.519H122.2Zm13.061,7a4.668,4.668,0,0,1-3.406-1.283,4.561,4.561,0,0,1-1.314-3.419v-.246a5.745,5.745,0,0,1,.554-2.562,4.064,4.064,0,0,1,1.569-1.74,4.4,4.4,0,0,1,2.316-.611,3.947,3.947,0,0,1,3.072,1.23,5,5,0,0,1,1.121,3.489v1.037h-6.056a2.36,2.36,0,0,0,.743,1.494,2.245,2.245,0,0,0,1.569.563,2.742,2.742,0,0,0,2.294-1.063l1.248,1.4a3.813,3.813,0,0,1-1.547,1.261A5.075,5.075,0,0,1,135.264.176Zm-.29-7.813a1.587,1.587,0,0,0-1.226.512,2.651,2.651,0,0,0-.6,1.466h3.533v-.2a1.891,1.891,0,0,0-.457-1.311A1.638,1.638,0,0,0,134.974-7.638ZM143.3,0h-2.549V-13.5H143.3Zm7.6,0a2.821,2.821,0,0,1-.255-.853,3.073,3.073,0,0,1-2.4,1.028,3.376,3.376,0,0,1-2.316-.809,2.6,2.6,0,0,1-.918-2.039,2.687,2.687,0,0,1,1.121-2.32,5.529,5.529,0,0,1,3.239-.817h1.169v-.545a1.567,1.567,0,0,0-.338-1.055,1.331,1.331,0,0,0-1.068-.4,1.513,1.513,0,0,0-1.006.308,1.045,1.045,0,0,0-.365.844h-2.54a2.551,2.551,0,0,1,.51-1.529,3.37,3.37,0,0,1,1.441-1.1,5.253,5.253,0,0,1,2.092-.4,4.15,4.15,0,0,1,2.791.883,3.09,3.09,0,0,1,1.033,2.483V-2.2a4.546,4.546,0,0,0,.378,2.048V0Zm-2.1-1.767a2.188,2.188,0,0,0,1.037-.25,1.645,1.645,0,0,0,.7-.672V-4.324h-.949q-1.907,0-2.03,1.318l-.009.149a1.017,1.017,0,0,0,.334.782A1.3,1.3,0,0,0,148.8-1.767Zm10.2-.105a1.666,1.666,0,0,0,1.143-.387,1.355,1.355,0,0,0,.457-1.028h2.382a3.258,3.258,0,0,1-.527,1.771,3.48,3.48,0,0,1-1.419,1.248,4.442,4.442,0,0,1-1.991.444,4.129,4.129,0,0,1-3.217-1.3A5.13,5.13,0,0,1,154.644-4.7v-.167a5.071,5.071,0,0,1,1.169-3.507,4.08,4.08,0,0,1,3.208-1.31,4,4,0,0,1,2.861,1.015,3.594,3.594,0,0,1,1.094,2.7h-2.382a1.745,1.745,0,0,0-.457-1.206,1.524,1.524,0,0,0-1.16-.464,1.53,1.53,0,0,0-1.34.647,3.749,3.749,0,0,0-.453,2.1v.264a3.8,3.8,0,0,0,.448,2.113A1.549,1.549,0,0,0,158.994-1.872ZM167.106,0h-2.549V-9.51h2.549Zm-2.7-11.971a1.251,1.251,0,0,1,.382-.94,1.436,1.436,0,0,1,1.042-.369,1.44,1.44,0,0,1,1.037.369,1.244,1.244,0,0,1,.387.94,1.247,1.247,0,0,1-.391.949,1.443,1.443,0,0,1-1.033.369,1.443,1.443,0,0,1-1.033-.369A1.247,1.247,0,0,1,164.408-11.971ZM168.8-4.843a5.64,5.64,0,0,1,.545-2.522,3.989,3.989,0,0,1,1.569-1.714,4.577,4.577,0,0,1,2.377-.606,4.33,4.33,0,0,1,3.142,1.178,4.727,4.727,0,0,1,1.358,3.2l.018.65a4.97,4.97,0,0,1-1.222,3.511A4.247,4.247,0,0,1,173.312.176a4.268,4.268,0,0,1-3.283-1.318A5.058,5.058,0,0,1,168.8-4.729Zm2.54.18a3.555,3.555,0,0,0,.51,2.073,1.682,1.682,0,0,0,1.459.717,1.686,1.686,0,0,0,1.441-.709,3.89,3.89,0,0,0,.519-2.267,3.519,3.519,0,0,0-.519-2.06,1.686,1.686,0,0,0-1.459-.731,1.658,1.658,0,0,0-1.441.726A3.955,3.955,0,0,0,171.343-4.662Zm2.452-8.838h2.769l-2.435,2.725h-2.065Zm7.919,3.99.079,1.1a3.32,3.32,0,0,1,2.733-1.274,2.759,2.759,0,0,1,2.25.888,4.142,4.142,0,0,1,.756,2.654V0h-2.54V-6.082a1.648,1.648,0,0,0-.352-1.173,1.574,1.574,0,0,0-1.169-.365,1.747,1.747,0,0,0-1.608.914V0h-2.54V-9.51Z" transform="translate(821.911 1698)" fill="#fff"/>
    </g>
  </g>
</svg>
