<svg xmlns="http://www.w3.org/2000/svg" xmlns:xlink="http://www.w3.org/1999/xlink" width="820" height="397" viewBox="0 0 820 397">
  <defs>
    <filter id="_1" x="-9" y="6" width="824" height="406" filterUnits="userSpaceOnUse">
      <feOffset dy="3" input="SourceAlpha"/>
      <feGaussianBlur stdDeviation="3" result="blur"/>
      <feFlood flood-opacity="0.161"/>
      <feComposite operator="in" in2="blur"/>
      <feComposite in="SourceGraphic"/>
    </filter>
    <clipPath id="clip-path">
      <rect id="_2" data-name="2" width="788" height="370.502" transform="translate(406 1433)" fill="#fff"/>
    </clipPath>
    <clipPath id="clip-path-2">
      <g transform="matrix(1, 0, 0, 1, 0, 0)" filter="url(#_1)">
        <rect id="_1-2" data-name="1" width="806" height="388" transform="translate(390 1432)" fill="#716abb" opacity="0.25"/>
      </g>
    </clipPath>
    <filter id="Trazado_741819" x="-9" y="6.958" width="824" height="428" filterUnits="userSpaceOnUse">
      <feOffset dy="3" input="SourceAlpha"/>
      <feGaussianBlur stdDeviation="3" result="blur-2"/>
      <feFlood flood-opacity="0.161"/>
      <feComposite operator="in" in2="blur-2"/>
      <feComposite in="SourceGraphic"/>
    </filter>
    <clipPath id="clip-path-3">
      <rect id="Rectángulo_373105" data-name="Rectángulo 373105" width="806" height="410" rx="23" fill="#37f871" opacity="0.15"/>
    </clipPath>
    <clipPath id="clip-path-5">
      <rect id="Rectángulo_372959" data-name="Rectángulo 372959" width="83.85" height="39.016" transform="translate(0 0)" fill="#dcd8f1" stroke="#707070" stroke-width="1"/>
    </clipPath>
    <clipPath id="clip-path-6">
      <rect id="Rectángulo_373107" data-name="Rectángulo 373107" width="83.85" height="39.017" transform="translate(0)" fill="#dcd8f1" stroke="#707070" stroke-width="1"/>
    </clipPath>
    <filter id="Unión_1" x="183" y="33" width="450.097" height="67" filterUnits="userSpaceOnUse">
      <feOffset dy="3" input="SourceAlpha"/>
      <feGaussianBlur stdDeviation="3" result="blur-3"/>
      <feFlood flood-opacity="0.161"/>
      <feComposite operator="in" in2="blur-3"/>
      <feComposite in="SourceGraphic"/>
    </filter>
  </defs>
  <g id="Grupo_1022849" data-name="Grupo 1022849" transform="translate(-390 -1418)">
    <rect id="_1-3" data-name="1" width="820" height="397" rx="10" transform="translate(390 1418)" fill="#112e4c"/>
    <g id="Grupo_1022848" data-name="Grupo 1022848">
      <g id="Enmascarar_grupo_952188" data-name="Enmascarar grupo 952188" transform="translate(0 -2)" clip-path="url(#clip-path)">
        <g id="Enmascarar_grupo_952187" data-name="Enmascarar grupo 952187" clip-path="url(#clip-path-2)">
          <g id="Grupo_1022842" data-name="Grupo 1022842" transform="translate(390 1432.958)">
            <g transform="matrix(1, 0, 0, 1, 0, -12.96)" filter="url(#Trazado_741819)">
              <path id="Trazado_741819-2" data-name="Trazado 741819" d="M0,0H806V410H0Z" transform="translate(0 12.96)" fill="#f7f6ff"/>
            </g>
          </g>
          <g id="Grupo_1022845" data-name="Grupo 1022845" transform="translate(390 1432.958)" opacity="0.27">
            <g id="Enmascarar_grupo_952185" data-name="Enmascarar grupo 952185" clip-path="url(#clip-path-3)">
              <g id="Grupo_1022843" data-name="Grupo 1022843" transform="translate(-148.506 -85.72)">
                <path id="Trazado_741790" data-name="Trazado 741790" d="M640.532,74.423s-56.3-.575-151.25-57.4-106.545,44.5-164.2,43.948S252.533,17.075,190,28.772,111.57,88.712,37.314,67.227s-14.908,69.03-14.908,69.03L632,148.84Z" transform="matrix(0.995, -0.105, 0.105, 0.995, 384.348, 370.954)" fill="none" stroke="#12263f" stroke-width="3" stroke-dasharray="11" opacity="0.142"/>
                <path id="Trazado_741791" data-name="Trazado 741791" d="M1216.335-2.711l-96.45,274.906,25.327,125.537L957.618,503.448c-2.439-2.746-4.689-5.7-7.352-8.2-19.942-18.756-38.634-39.189-60.241-55.745-42.84-32.819-90.538-38.221-140.833-16.573q-26.256,11.3-51.835,24.228c-31.558,15.992-64.285,25.582-99.808,23.7-22.234-1.176-41.832-8.036-58.863-22.581C513.2,426.5,495.529,398.2,475.5,371.829c-10.611-13.976-21.447-27.889-33.357-40.712-24.492-26.373-54.37-38.333-91.172-34.8-39.588,3.8-72.724,17.506-96.816,51.391-20.1,28.275-40.471,56.493-62.61,83.134-35.835,43.122-82.374,57.845-136.026,47.111-19.207-3.841-37.716-11.044-56.545-16.711l120.54-330.037Z" transform="matrix(-0.921, 0.391, -0.391, -0.921, 1315.097, 498.581)" fill="none" stroke="#31313c" stroke-width="3" opacity="0.05"/>
                <path id="Trazado_741792" data-name="Trazado 741792" d="M891.274,367.5,822.942,166.515l19.845-92.457L705.758-1.769c-1.821,2.041-3.506,4.233-5.489,6.1C685.414,18.3,671.462,33.491,655.4,45.862c-31.841,24.524-66.992,28.955-103.8,13.544Q532.394,51.36,513.7,42.114c-23.069-11.44-47.06-18.166-73.219-16.439-16.373,1.08-30.861,6.31-43.533,17.159C377.975,59.073,364.7,80.032,349.711,99.6c-7.943,10.369-16.051,20.694-24.938,30.229-18.277,19.61-40.379,28.685-67.427,26.447-29.1-2.408-53.348-12.152-70.751-36.807-14.522-20.573-29.239-41.1-45.274-60.455C115.366,27.688,81.26,17.326,41.675,25.733,27.5,28.741,13.814,34.212-.1,38.558l85.528,241.25Z" transform="matrix(0.891, -0.454, 0.454, 0.891, 288.36, 407.041)" fill="none" stroke="#fff" stroke-width="1" opacity="0.81"/>
              </g>
            </g>
            <g id="Enmascarar_grupo_952186" data-name="Enmascarar grupo 952186" clip-path="url(#clip-path-3)">
              <g id="Grupo_1022844" data-name="Grupo 1022844" transform="translate(-360.591 -480.617)">
                <path id="Trazado_741793" data-name="Trazado 741793" d="M640.532,74.423s-56.3-.575-151.25-57.4-106.545,44.5-164.2,43.948S252.533,17.075,190,28.772,111.57,88.712,37.314,67.227s-14.908,69.03-14.908,69.03L632,148.84Z" transform="matrix(-0.995, 0.105, -0.105, -0.995, 930.749, 605.383)" fill="none" stroke="#12263f" stroke-width="3" stroke-dasharray="11" opacity="0.142"/>
                <path id="Trazado_741794" data-name="Trazado 741794" d="M1216.335-2.711l-96.45,274.906,25.327,125.537L957.618,503.448c-2.439-2.746-4.689-5.7-7.352-8.2-19.942-18.756-38.634-39.189-60.241-55.745-42.84-32.819-90.538-38.221-140.833-16.573q-26.256,11.3-51.835,24.228c-31.558,15.992-64.285,25.582-99.808,23.7-22.234-1.176-41.832-8.036-58.863-22.581C513.2,426.5,495.529,398.2,475.5,371.829c-10.611-13.976-21.447-27.889-33.357-40.712-24.492-26.373-54.37-38.333-91.172-34.8-39.588,3.8-72.724,17.506-96.816,51.391-20.1,28.275-40.471,56.493-62.61,83.134-35.835,43.122-82.374,57.845-136.026,47.111-19.207-3.841-37.716-11.044-56.545-16.711l120.54-330.037Z" transform="matrix(0.921, -0.391, 0.391, 0.921, 0, 477.756)" fill="none" stroke="#31313c" stroke-width="3" opacity="0.05"/>
                <path id="Trazado_741795" data-name="Trazado 741795" d="M891.274,367.5,822.942,166.515l19.845-92.457L705.758-1.769c-1.821,2.041-3.506,4.233-5.489,6.1C685.414,18.3,671.462,33.491,655.4,45.862c-31.841,24.524-66.992,28.955-103.8,13.544Q532.394,51.36,513.7,42.114c-23.069-11.44-47.06-18.166-73.219-16.439-16.373,1.08-30.861,6.31-43.533,17.159C377.975,59.073,364.7,80.032,349.711,99.6c-7.943,10.369-16.051,20.694-24.938,30.229-18.277,19.61-40.379,28.685-67.427,26.447-29.1-2.408-53.348-12.152-70.751-36.807-14.522-20.573-29.239-41.1-45.274-60.455C115.366,27.688,81.26,17.326,41.675,25.733,27.5,28.741,13.814,34.212-.1,38.558l85.528,241.25Z" transform="matrix(-0.891, 0.454, -0.454, -0.891, 1026.738, 569.296)" fill="none" stroke="#fff" stroke-width="1" opacity="0.81"/>
              </g>
            </g>
          </g>
        </g>
      </g>
      <g id="Grupo_1022182" data-name="Grupo 1022182" transform="translate(416 1431)" clip-path="url(#clip-path-5)">
        <g id="Grupo_1022181" data-name="Grupo 1022181" transform="translate(1.95 -44.968)">
          <path id="Sustracción_25" data-name="Sustracción 25" d="M40.625,0A39.99,39.99,0,0,0,17.911,7.059,41.212,41.212,0,0,0,6.938,18.222,41.489,41.489,0,0,0,.825,33a42.445,42.445,0,0,0,0,16.659A41.459,41.459,0,0,0,11.9,70.556,41.078,41.078,0,0,0,17.911,75.6a40.414,40.414,0,0,0,6.9,3.811,40.048,40.048,0,0,0,31.626,0,40.414,40.414,0,0,0,6.9-3.811A41.212,41.212,0,0,0,74.312,64.439,41.489,41.489,0,0,0,80.425,49.66a42.445,42.445,0,0,0,0-16.659,41.459,41.459,0,0,0-11.073-20.9,41.078,41.078,0,0,0-6.012-5.047,40.415,40.415,0,0,0-6.9-3.811A39.9,39.9,0,0,0,40.625,0Zm-.151,63.047a20.863,20.863,0,0,1-11.85-3.682A21.5,21.5,0,0,1,22.9,53.54a21.645,21.645,0,0,1-3.189-7.71,22.143,22.143,0,0,1,0-8.691,21.629,21.629,0,0,1,5.777-10.9A21.429,21.429,0,0,1,28.624,23.6a21.084,21.084,0,0,1,3.6-1.988,20.893,20.893,0,0,1,16.5,0,21.084,21.084,0,0,1,3.6,1.988,21.5,21.5,0,0,1,5.725,5.824,21.644,21.644,0,0,1,3.189,7.71,22.143,22.143,0,0,1,0,8.691,21.629,21.629,0,0,1-5.777,10.9,21.431,21.431,0,0,1-3.137,2.633,21.084,21.084,0,0,1-3.6,1.988,20.816,20.816,0,0,1-8.25,1.694Z" transform="translate(0 0)" fill="#dcd8f1"/>
        </g>
      </g>
      <g id="Grupo_1022847" data-name="Grupo 1022847" transform="translate(1063.749 1762.485)" clip-path="url(#clip-path-6)">
        <g id="Grupo_1022846" data-name="Grupo 1022846" transform="translate(1.95 1.322)">
          <path id="Sustracción_29" data-name="Sustracción 29" d="M40.625,82.662A39.99,39.99,0,0,1,17.911,75.6,41.212,41.212,0,0,1,6.938,64.44,41.49,41.49,0,0,1,.825,49.661,42.446,42.446,0,0,1,.825,33,41.46,41.46,0,0,1,11.9,12.106a41.078,41.078,0,0,1,6.012-5.047,40.414,40.414,0,0,1,6.9-3.811,40.048,40.048,0,0,1,31.626,0,40.413,40.413,0,0,1,6.9,3.811A41.212,41.212,0,0,1,74.312,18.222,41.49,41.49,0,0,1,80.425,33a42.446,42.446,0,0,1,0,16.659,41.46,41.46,0,0,1-11.073,20.9A41.077,41.077,0,0,1,63.339,75.6a40.414,40.414,0,0,1-6.9,3.811,39.9,39.9,0,0,1-15.813,3.248Zm-.151-63.048A20.863,20.863,0,0,0,28.624,23.3,21.5,21.5,0,0,0,22.9,29.121a21.645,21.645,0,0,0-3.189,7.71,22.143,22.143,0,0,0,0,8.691,21.63,21.63,0,0,0,5.777,10.9,21.43,21.43,0,0,0,3.137,2.633,21.084,21.084,0,0,0,3.6,1.988,20.893,20.893,0,0,0,16.5,0,21.084,21.084,0,0,0,3.6-1.988,21.5,21.5,0,0,0,5.725-5.824,21.644,21.644,0,0,0,3.189-7.71,22.143,22.143,0,0,0,0-8.691,21.63,21.63,0,0,0-5.777-10.9A21.432,21.432,0,0,0,52.324,23.3a21.084,21.084,0,0,0-3.6-1.988,20.816,20.816,0,0,0-8.25-1.694Z" transform="translate(0)" fill="#dcd8f1"/>
        </g>
      </g>
    </g>
    <g id="Grupo_1022649" data-name="Grupo 1022649" transform="translate(-2 -24.391)">
      <g id="Grupo_1022645" data-name="Grupo 1022645" transform="translate(17)">
        <g id="Grupo_1022643" data-name="Grupo 1022643" transform="translate(-20)">
          <path id="Trazado_742384" data-name="Trazado 742384" d="M7.859,12.07h-4.5v3.047H8.641V17H1.016V5.625H8.625v1.9H3.359v2.711h4.5Zm4.086-3.523.07.977a2.951,2.951,0,0,1,2.43-1.133,2.453,2.453,0,0,1,2,.789,3.682,3.682,0,0,1,.672,2.359V17H14.859V11.594a1.465,1.465,0,0,0-.312-1.043,1.4,1.4,0,0,0-1.039-.324,1.553,1.553,0,0,0-1.43.813V17H9.82V8.547Zm9.586-2.078V8.547h1.445V10.2H21.531v4.219a1.007,1.007,0,0,0,.18.672.9.9,0,0,0,.688.2,3.6,3.6,0,0,0,.664-.055v1.711a4.648,4.648,0,0,1-1.367.2,2.156,2.156,0,0,1-2.422-2.4V10.2H18.039V8.547h1.234V6.469ZM26.617,17H24.352V8.547h2.266Zm-2.4-10.641a1.112,1.112,0,0,1,.34-.836,1.465,1.465,0,0,1,1.848,0,1.105,1.105,0,0,1,.344.836A1.108,1.108,0,0,1,26.4,7.2a1.448,1.448,0,0,1-1.836,0A1.108,1.108,0,0,1,24.219,6.359Zm3.906,6.352a5.094,5.094,0,0,1,.887-3.148,2.877,2.877,0,0,1,2.426-1.172,2.589,2.589,0,0,1,2.039.922V5h2.266V17H33.7l-.109-.9a2.657,2.657,0,0,1-2.172,1.055,2.869,2.869,0,0,1-2.395-1.176A5.258,5.258,0,0,1,28.125,12.711Zm2.258.164A3.328,3.328,0,0,0,30.8,14.7a1.349,1.349,0,0,0,1.2.633,1.511,1.511,0,0,0,1.477-.883V11.109a1.489,1.489,0,0,0-1.461-.883Q30.383,10.227,30.383,12.875ZM42.391,17a2.507,2.507,0,0,1-.227-.758,2.732,2.732,0,0,1-2.133.914,3,3,0,0,1-2.059-.719,2.312,2.312,0,0,1-.816-1.812,2.389,2.389,0,0,1,1-2.062,4.915,4.915,0,0,1,2.879-.727H42.07v-.484a1.393,1.393,0,0,0-.3-.937,1.183,1.183,0,0,0-.949-.352,1.345,1.345,0,0,0-.895.273.929.929,0,0,0-.324.75H37.344A2.268,2.268,0,0,1,37.8,9.727a3,3,0,0,1,1.281-.98,4.669,4.669,0,0,1,1.859-.355,3.689,3.689,0,0,1,2.48.785,2.747,2.747,0,0,1,.918,2.207v3.664a4.041,4.041,0,0,0,.336,1.82V17Zm-1.867-1.57a1.945,1.945,0,0,0,.922-.223,1.462,1.462,0,0,0,.625-.6V13.156h-.844q-1.7,0-1.8,1.172l-.008.133a.9.9,0,0,0,.3.7A1.153,1.153,0,0,0,40.523,15.43Zm5.2-2.719a5.094,5.094,0,0,1,.887-3.148,2.877,2.877,0,0,1,2.426-1.172,2.589,2.589,0,0,1,2.039.922V5h2.266V17H51.3l-.109-.9a2.657,2.657,0,0,1-2.172,1.055,2.869,2.869,0,0,1-2.395-1.176A5.258,5.258,0,0,1,45.719,12.711Zm2.258.164a3.328,3.328,0,0,0,.414,1.82,1.349,1.349,0,0,0,1.2.633,1.511,1.511,0,0,0,1.477-.883V11.109a1.489,1.489,0,0,0-1.461-.883Q47.977,10.227,47.977,12.875Z" transform="translate(682.218 1574.2)" fill="#12263f"/>
          <path id="Trazado_742385" data-name="Trazado 742385" d="M7.438,14.656H3.328L2.547,17H.055L4.289,5.625H6.461L10.719,17H8.227Zm-3.477-1.9H6.8L5.375,8.5ZM14.2,6.469V8.547h1.445V10.2H14.2v4.219a1.007,1.007,0,0,0,.18.672.9.9,0,0,0,.688.2,3.6,3.6,0,0,0,.664-.055v1.711a4.648,4.648,0,0,1-1.367.2,2.156,2.156,0,0,1-2.422-2.4V10.2H10.711V8.547h1.234V6.469Zm7.453,4.2a6.134,6.134,0,0,0-.812-.062,1.654,1.654,0,0,0-1.68.867V17H16.906V8.547h2.133L19.1,9.555a2.092,2.092,0,0,1,1.883-1.164,2.366,2.366,0,0,1,.7.1ZM25.125,17H22.859V8.547h2.266Zm-2.4-10.641a1.112,1.112,0,0,1,.34-.836,1.465,1.465,0,0,1,1.848,0,1.105,1.105,0,0,1,.344.836,1.108,1.108,0,0,1-.348.844,1.448,1.448,0,0,1-1.836,0A1.108,1.108,0,0,1,22.727,6.359ZM34.6,12.852a5.119,5.119,0,0,1-.867,3.168,2.872,2.872,0,0,1-2.422,1.137,2.639,2.639,0,0,1-2.2-1.055l-.1.9H26.984V5h2.258V9.3A2.571,2.571,0,0,1,31.3,8.391a2.9,2.9,0,0,1,2.426,1.137,5.126,5.126,0,0,1,.879,3.2Zm-2.258-.164a3.363,3.363,0,0,0-.406-1.871,1.374,1.374,0,0,0-1.211-.59,1.489,1.489,0,0,0-1.484.883v3.336a1.509,1.509,0,0,0,1.5.891,1.394,1.394,0,0,0,1.438-1.078A5.562,5.562,0,0,0,32.344,12.688Zm8.711,3.453a2.831,2.831,0,0,1-2.312,1.016,2.67,2.67,0,0,1-2.074-.781,3.335,3.335,0,0,1-.73-2.289V8.547H38.2v5.461q0,1.32,1.2,1.32a1.631,1.631,0,0,0,1.578-.8V8.547h2.266V17H41.117Zm6.594-9.672V8.547h1.445V10.2H47.648v4.219a1.007,1.007,0,0,0,.18.672.9.9,0,0,0,.688.2,3.6,3.6,0,0,0,.664-.055v1.711a4.648,4.648,0,0,1-1.367.2,2.156,2.156,0,0,1-2.422-2.4V10.2H44.156V8.547h1.234V6.469ZM49.766,12.7a5.013,5.013,0,0,1,.484-2.242A3.546,3.546,0,0,1,51.645,8.93a4.069,4.069,0,0,1,2.113-.539,3.849,3.849,0,0,1,2.793,1.047,4.2,4.2,0,0,1,1.207,2.844l.016.578a4.418,4.418,0,0,1-1.086,3.121,4.209,4.209,0,0,1-5.832,0,4.5,4.5,0,0,1-1.09-3.187Zm2.258.164a3.151,3.151,0,0,0,.453,1.84,1.629,1.629,0,0,0,2.578.008,3.448,3.448,0,0,0,.461-2.012,3.12,3.12,0,0,0-.461-1.828,1.5,1.5,0,0,0-1.3-.648,1.475,1.475,0,0,0-1.281.645A3.506,3.506,0,0,0,52.023,12.859Z" transform="translate(682.218 1647.6)" fill="#12263f"/>
          <path id="Trazado_741095" data-name="Trazado 741095" d="M2923.117-7904.262h63.948" transform="translate(-2452.117 9562.747)" fill="none" stroke="#221b6b" stroke-width="1.5"/>
          <path id="Trazado_741558" data-name="Trazado 741558" d="M15.407,0,0,16.226H9.395L5.82,48.733H25.258L21.684,16.226h9.132Z" transform="translate(676.808 1569.193) rotate(90)" fill="#221b6b"/>
          <path id="Trazado_741559" data-name="Trazado 741559" d="M15.407,0,0,16.226H9.395L5.82,48.733H25.258L21.684,16.226h9.132Z" transform="translate(676.808 1642.592) rotate(90)" fill="#221b6b"/>
          <g id="Grupo_1022636" data-name="Grupo 1022636" transform="translate(33 -8.592)">
            <path id="Trazado_742386" data-name="Trazado 742386" d="M7.438,14.656H3.328L2.547,17H.055L4.289,5.625H6.461L10.719,17H8.227Zm-3.477-1.9H6.8L5.375,8.5ZM14.2,6.469V8.547h1.445V10.2H14.2v4.219a1.007,1.007,0,0,0,.18.672.9.9,0,0,0,.688.2,3.6,3.6,0,0,0,.664-.055v1.711a4.648,4.648,0,0,1-1.367.2,2.156,2.156,0,0,1-2.422-2.4V10.2H10.711V8.547h1.234V6.469Zm7.453,4.2a6.134,6.134,0,0,0-.812-.062,1.654,1.654,0,0,0-1.68.867V17H16.906V8.547h2.133L19.1,9.555a2.092,2.092,0,0,1,1.883-1.164,2.366,2.366,0,0,1,.7.1ZM25.125,17H22.859V8.547h2.266Zm-2.4-10.641a1.112,1.112,0,0,1,.34-.836,1.465,1.465,0,0,1,1.848,0,1.105,1.105,0,0,1,.344.836,1.108,1.108,0,0,1-.348.844,1.448,1.448,0,0,1-1.836,0A1.108,1.108,0,0,1,22.727,6.359ZM34.6,12.852a5.119,5.119,0,0,1-.867,3.168,2.872,2.872,0,0,1-2.422,1.137,2.639,2.639,0,0,1-2.2-1.055l-.1.9H26.984V5h2.258V9.3A2.571,2.571,0,0,1,31.3,8.391a2.9,2.9,0,0,1,2.426,1.137,5.126,5.126,0,0,1,.879,3.2Zm-2.258-.164a3.363,3.363,0,0,0-.406-1.871,1.374,1.374,0,0,0-1.211-.59,1.489,1.489,0,0,0-1.484.883v3.336a1.509,1.509,0,0,0,1.5.891,1.394,1.394,0,0,0,1.438-1.078A5.562,5.562,0,0,0,32.344,12.688Zm8.711,3.453a2.831,2.831,0,0,1-2.312,1.016,2.67,2.67,0,0,1-2.074-.781,3.335,3.335,0,0,1-.73-2.289V8.547H38.2v5.461q0,1.32,1.2,1.32a1.631,1.631,0,0,0,1.578-.8V8.547h2.266V17H41.117Zm6.594-9.672V8.547h1.445V10.2H47.648v4.219a1.007,1.007,0,0,0,.18.672.9.9,0,0,0,.688.2,3.6,3.6,0,0,0,.664-.055v1.711a4.648,4.648,0,0,1-1.367.2,2.156,2.156,0,0,1-2.422-2.4V10.2H44.156V8.547h1.234V6.469ZM49.766,12.7a5.013,5.013,0,0,1,.484-2.242A3.546,3.546,0,0,1,51.645,8.93a4.069,4.069,0,0,1,2.113-.539,3.849,3.849,0,0,1,2.793,1.047,4.2,4.2,0,0,1,1.207,2.844l.016.578a4.418,4.418,0,0,1-1.086,3.121,4.209,4.209,0,0,1-5.832,0,4.5,4.5,0,0,1-1.09-3.187Zm2.258.164a3.151,3.151,0,0,0,.453,1.84,1.629,1.629,0,0,0,2.578.008,3.448,3.448,0,0,0,.461-2.012,3.12,3.12,0,0,0-.461-1.828,1.5,1.5,0,0,0-1.3-.648,1.475,1.475,0,0,0-1.281.645A3.506,3.506,0,0,0,52.023,12.859ZM4.383,39.336A1.481,1.481,0,0,0,5.4,38.992a1.2,1.2,0,0,0,.406-.914H7.922a2.9,2.9,0,0,1-.469,1.574,3.093,3.093,0,0,1-1.262,1.109,3.949,3.949,0,0,1-1.77.395A3.67,3.67,0,0,1,1.563,40,4.56,4.56,0,0,1,.516,36.82v-.148a4.508,4.508,0,0,1,1.039-3.117,3.627,3.627,0,0,1,2.852-1.164,3.555,3.555,0,0,1,2.543.9,3.2,3.2,0,0,1,.973,2.4H5.8A1.539,1.539,0,0,0,5.4,34.629a1.358,1.358,0,0,0-1.031-.41,1.361,1.361,0,0,0-1.191.574,3.324,3.324,0,0,0-.4,1.863v.234a3.366,3.366,0,0,0,.4,1.875A1.378,1.378,0,0,0,4.383,39.336ZM8.859,36.7a5.013,5.013,0,0,1,.484-2.242,3.546,3.546,0,0,1,1.395-1.523,4.069,4.069,0,0,1,2.113-.539,3.849,3.849,0,0,1,2.793,1.047,4.2,4.2,0,0,1,1.207,2.844l.016.578a4.418,4.418,0,0,1-1.086,3.121,3.775,3.775,0,0,1-2.914,1.176,3.793,3.793,0,0,1-2.918-1.172A4.5,4.5,0,0,1,8.859,36.8Zm2.258.164a3.151,3.151,0,0,0,.453,1.84,1.5,1.5,0,0,0,1.3.637,1.5,1.5,0,0,0,1.281-.629,3.448,3.448,0,0,0,.461-2.012,3.12,3.12,0,0,0-.461-1.828,1.5,1.5,0,0,0-1.3-.648,1.475,1.475,0,0,0-1.281.645A3.506,3.506,0,0,0,11.117,36.859Zm9.258-4.312.07.945a2.971,2.971,0,0,1,2.43-1.1,2.255,2.255,0,0,1,2.242,1.289,2.9,2.9,0,0,1,2.539-1.289,2.521,2.521,0,0,1,2.047.8,3.681,3.681,0,0,1,.672,2.41V41H28.109V35.609a1.61,1.61,0,0,0-.281-1.051,1.246,1.246,0,0,0-.992-.332,1.409,1.409,0,0,0-1.406.969l.008,5.8H23.18V35.617a1.59,1.59,0,0,0-.289-1.062,1.259,1.259,0,0,0-.984-.328,1.463,1.463,0,0,0-1.391.8V41H18.258V32.547Zm19.344,4.3a5.07,5.07,0,0,1-.887,3.129,2.843,2.843,0,0,1-2.395,1.176,2.633,2.633,0,0,1-2.07-.891V44.25H32.109v-11.7H34.2l.078.828a2.654,2.654,0,0,1,2.141-.984,2.862,2.862,0,0,1,2.43,1.156,5.207,5.207,0,0,1,.867,3.188Zm-2.258-.164a3.327,3.327,0,0,0-.418-1.82,1.361,1.361,0,0,0-1.215-.641,1.478,1.478,0,0,0-1.461.813V38.5a1.5,1.5,0,0,0,1.477.836Q37.461,39.336,37.461,36.688Zm8.719,3.453a2.831,2.831,0,0,1-2.312,1.016,2.67,2.67,0,0,1-2.074-.781,3.335,3.335,0,0,1-.73-2.289V32.547H43.32v5.461q0,1.32,1.2,1.32a1.631,1.631,0,0,0,1.578-.8V32.547h2.266V41H46.242Zm7.781,1.016a4.15,4.15,0,0,1-3.027-1.141,4.054,4.054,0,0,1-1.168-3.039v-.219a5.106,5.106,0,0,1,.492-2.277,3.612,3.612,0,0,1,1.395-1.547,3.914,3.914,0,0,1,2.059-.543,3.508,3.508,0,0,1,2.73,1.094,4.444,4.444,0,0,1,1,3.1v.922H52.055a2.1,2.1,0,0,0,.66,1.328,2,2,0,0,0,1.395.5,2.437,2.437,0,0,0,2.039-.945l1.109,1.242a3.389,3.389,0,0,1-1.375,1.121A4.511,4.511,0,0,1,53.961,41.156ZM53.7,34.219a1.414,1.414,0,0,0-1.09.453,2.341,2.341,0,0,0-.535,1.3h3.141v-.18a1.669,1.669,0,0,0-.406-1.16A1.459,1.459,0,0,0,53.7,34.219ZM63.3,38.664a.727.727,0,0,0-.41-.652,4.659,4.659,0,0,0-1.316-.426q-3.016-.633-3.016-2.562a2.323,2.323,0,0,1,.934-1.879,3.766,3.766,0,0,1,2.441-.754,4.053,4.053,0,0,1,2.574.758,2.388,2.388,0,0,1,.965,1.969H63.211a1.092,1.092,0,0,0-.312-.8A1.322,1.322,0,0,0,61.922,34a1.351,1.351,0,0,0-.883.258.814.814,0,0,0-.312.656.7.7,0,0,0,.355.605,3.657,3.657,0,0,0,1.2.4A9.8,9.8,0,0,1,63.7,36.3a2.336,2.336,0,0,1,1.789,2.273,2.2,2.2,0,0,1-.992,1.871,4.28,4.28,0,0,1-2.562.715,4.47,4.47,0,0,1-1.887-.379,3.166,3.166,0,0,1-1.293-1.039,2.414,2.414,0,0,1-.469-1.426H60.43a1.179,1.179,0,0,0,.445.922,1.766,1.766,0,0,0,1.109.32,1.635,1.635,0,0,0,.98-.246A.766.766,0,0,0,63.3,38.664Zm6.352-8.2v2.078h1.445V34.2H69.648v4.219a1.007,1.007,0,0,0,.18.672.9.9,0,0,0,.688.2,3.6,3.6,0,0,0,.664-.055v1.711a4.648,4.648,0,0,1-1.367.2,2.156,2.156,0,0,1-2.422-2.4V34.2H66.156V32.547h1.234V30.469ZM71.766,36.7a5.013,5.013,0,0,1,.484-2.242,3.546,3.546,0,0,1,1.395-1.523,4.069,4.069,0,0,1,2.113-.539,3.849,3.849,0,0,1,2.793,1.047,4.2,4.2,0,0,1,1.207,2.844l.016.578a4.418,4.418,0,0,1-1.086,3.121,4.209,4.209,0,0,1-5.832,0,4.5,4.5,0,0,1-1.09-3.187Zm2.258.164a3.151,3.151,0,0,0,.453,1.84,1.629,1.629,0,0,0,2.578.008,3.448,3.448,0,0,0,.461-2.012,3.12,3.12,0,0,0-.461-1.828,1.5,1.5,0,0,0-1.3-.648,1.475,1.475,0,0,0-1.281.645A3.506,3.506,0,0,0,74.023,36.859Z" transform="translate(649.218 1742.5)" fill="#12263f"/>
            <path id="Trazado_741563" data-name="Trazado 741563" d="M15.407,0,0,16.226H9.395L5.82,48.733H25.258L21.684,16.226h9.132Z" transform="translate(643.808 1749.592) rotate(90)" fill="#221b6b"/>
          </g>
          <g id="Rectángulo_373066" data-name="Rectángulo 373066" transform="translate(471 1557)" fill="#e4e0f8" stroke="#221b6b" stroke-width="1">
            <rect width="145" height="53" stroke="none"/>
            <rect x="0.5" y="0.5" width="144" height="52" fill="none"/>
          </g>
          <g id="Trazado_741769" data-name="Trazado 741769" transform="translate(534 1634)" fill="#e4e0f8">
            <path d="M 41 47.5 C 18.66822242736816 47.5 0.5 36.95794296264648 0.5 24 C 0.5 11.04205513000488 18.66822242736816 0.5 41 0.5 C 63.33177947998047 0.5 81.5 11.04205513000488 81.5 24 C 81.5 36.95794296264648 63.33177947998047 47.5 41 47.5 Z" stroke="none"/>
            <path d="M 41 1 C 35.54595565795898 1 30.25741195678711 1.624687194824219 25.28127670288086 2.856735229492188 C 20.4920539855957 4.042488098144531 16.19645690917969 5.736743927001953 12.51380157470703 7.8924560546875 C 8.869148254394531 10.02590942382812 6.015632629394531 12.4992561340332 4.03253173828125 15.24378967285156 C 2.020286560058594 18.02865600585938 1 20.97466659545898 1 24 C 1 27.02533340454102 2.020286560058594 29.97134399414062 4.03253173828125 32.75621032714844 C 6.015632629394531 35.5007438659668 8.869148254394531 37.97409057617188 12.51380157470703 40.1075439453125 C 16.19645690917969 42.26325607299805 20.4920539855957 43.95751190185547 25.28127670288086 45.14326477050781 C 30.25741195678711 46.37531280517578 35.54595565795898 47 41 47 C 46.45404434204102 47 51.74258804321289 46.37531280517578 56.71871948242188 45.14326477050781 C 61.50794219970703 43.95751190185547 65.80354309082031 42.26325607299805 69.48619842529297 40.1075439453125 C 73.130859375 37.97409057617188 75.98436737060547 35.5007438659668 77.96746826171875 32.75621032714844 C 79.97971343994141 29.97134399414062 81 27.02533340454102 81 24 C 81 20.97466659545898 79.97971343994141 18.02865600585938 77.96746826171875 15.24378967285156 C 75.98436737060547 12.4992561340332 73.130859375 10.02590942382812 69.48619842529297 7.8924560546875 C 65.80354309082031 5.736743927001953 61.50794219970703 4.042488098144531 56.71871948242188 2.856735229492188 C 51.74258804321289 1.624687194824219 46.45404434204102 1 41 1 M 41 0 C 63.6436767578125 0 82 10.74516677856445 82 24 C 82 37.25483322143555 63.6436767578125 48 41 48 C 18.3563232421875 48 0 37.25483322143555 0 24 C 0 10.74516677856445 18.3563232421875 0 41 0 Z" stroke="none" fill="#221b6b"/>
          </g>
          <g id="Grupo_1022635" data-name="Grupo 1022635" transform="translate(33)">
            <path id="Trazado_741560" data-name="Trazado 741560" d="M7978.5-9990.693l24.785-18.886" transform="translate(-7463.162 11742.212)" fill="#221b6b" stroke="#221b6b" stroke-width="1"/>
            <path id="Trazado_741561" data-name="Trazado 741561" d="M7978.5-10009.579l44.014,3.936" transform="translate(-7485.507 11794.823)" fill="#221b6b" stroke="#221b6b" stroke-width="1"/>
            <g id="Elipse_7823" data-name="Elipse 7823" transform="translate(535 1706)" fill="#e4e0f8" stroke="#221b6b" stroke-width="1">
              <ellipse cx="24" cy="17" rx="24" ry="17" stroke="none"/>
              <ellipse cx="24" cy="17" rx="23.5" ry="16.5" fill="none"/>
            </g>
            <g id="Trazado_741771" data-name="Trazado 741771" transform="translate(535 1772)" fill="#e4e0f8">
              <path d="M 24 33.5 C 11.04205989837646 33.5 0.5 26.09812927246094 0.5 17 C 0.5 7.901869773864746 11.04205989837646 0.5 24 0.5 C 36.95793914794922 0.5 47.5 7.901869773864746 47.5 17 C 47.5 26.09812927246094 36.95793914794922 33.5 24 33.5 Z" stroke="none"/>
              <path d="M 24 1 C 20.85729026794434 1 17.8107795715332 1.435321807861328 14.94511032104492 2.293880462646484 C 12.19149017333984 3.118860244750977 9.722740173339844 4.296880722045898 7.607460021972656 5.795209884643555 C 3.346569061279297 8.813329696655273 1 12.79261016845703 1 17 C 1 21.20738983154297 3.346569061279297 25.18667030334473 7.607460021972656 28.20479011535645 C 9.722740173339844 29.70312118530273 12.19149017333984 30.88113975524902 14.94511032104492 31.70611953735352 C 17.8107795715332 32.56467819213867 20.85729026794434 33 24 33 C 27.14270973205566 33 30.1892204284668 32.56467819213867 33.05488967895508 31.70611953735352 C 35.80850982666016 30.88113975524902 38.27725982666016 29.70312118530273 40.39253997802734 28.20479011535645 C 44.6534309387207 25.18667030334473 47 21.20738983154297 47 17 C 47 12.79261016845703 44.6534309387207 8.813329696655273 40.39253997802734 5.795209884643555 C 38.27725982666016 4.296880722045898 35.80850982666016 3.118860244750977 33.05488967895508 2.293880462646484 C 30.1892204284668 1.435321807861328 27.14270973205566 1 24 1 M 24 0 C 37.25482940673828 0 48 7.611160278320312 48 17 C 48 26.38883972167969 37.25482940673828 34 24 34 C 10.74517059326172 34 0 26.38883972167969 0 17 C 0 7.611160278320312 10.74517059326172 0 24 0 Z" stroke="none" fill="#221b6b"/>
            </g>
            <g id="Trazado_741770" data-name="Trazado 741770" transform="translate(438 1733)" fill="#e4e0f8">
              <path d="M 42 59.5 C 36.37905502319336 59.5 30.92735481262207 58.7140007019043 25.79631042480469 57.16382217407227 C 20.84735488891602 55.66865539550781 16.40482139587402 53.52968978881836 12.59213352203369 50.80633163452148 C 8.791899681091309 48.09187698364258 5.810511112213135 44.93473434448242 3.730799913406372 41.42258834838867 C 1.587000012397766 37.8022346496582 0.5 33.95911026000977 0.5 30 C 0.5 26.04088973999023 1.587000012397766 22.19776725769043 3.730799913406372 18.57741165161133 C 5.810511112213135 15.06526660919189 8.791899681091309 11.90812206268311 12.59213352203369 9.193666458129883 C 16.40482139587402 6.470311164855957 20.84735488891602 4.331344604492188 25.79631042480469 2.836177825927734 C 30.92735481262207 1.28600001335144 36.37905502319336 0.5 42 0.5 C 47.62094497680664 0.5 53.07265472412109 1.28600001335144 58.20370101928711 2.836177825927734 C 63.15265655517578 4.331344604492188 67.59517669677734 6.470311164855957 71.40786743164062 9.193666458129883 C 75.20811462402344 11.90812206268311 78.18949127197266 15.06526660919189 80.26920318603516 18.57740020751953 C 82.41300201416016 22.19776725769043 83.5 26.04088973999023 83.5 30 C 83.5 33.95911026000977 82.41300201416016 37.8022346496582 80.26920318603516 41.42259979248047 C 78.18949127197266 44.93473434448242 75.20811462402344 48.09187698364258 71.40786743164062 50.80633163452148 C 67.59517669677734 53.52968978881836 63.15265655517578 55.66865539550781 58.20370101928711 57.16382217407227 C 53.07265472412109 58.7140007019043 47.62094497680664 59.5 42 59.5 Z" stroke="none"/>
              <path d="M 42 1 C 19.39252471923828 1 1 14.00934600830078 1 30 C 1 45.99065399169922 19.39252471923828 59 42 59 C 64.60747528076172 59 83 45.99065399169922 83 30 C 83 14.00934600830078 64.60747528076172 1 42 1 M 42 0 C 65.19595336914062 0 84 13.43145370483398 84 30 C 84 46.56854248046875 65.19595336914062 60 42 60 C 18.80403137207031 60 0 46.56854248046875 0 30 C 0 13.43145370483398 18.80403137207031 0 42 0 Z" stroke="none" fill="#221b6b"/>
            </g>
          </g>
        </g>
        <g id="Grupo_1022644" data-name="Grupo 1022644">
          <path id="Trazado_741098" data-name="Trazado 741098" d="M3001.077-7703.507l53.664,34.806,51.888-34.806-51.888-34.385Z" transform="translate(-2167.795 9287.781)" fill="#e4e0f8" stroke="#221b6b" stroke-width="1"/>
          <g id="Grupo_1022637" data-name="Grupo 1022637" transform="translate(-67)">
            <path id="Trazado_741564" data-name="Trazado 741564" d="M2923.117-7904.262h63.948" transform="translate(-2069.117 9562.747)" fill="none" stroke="#221b6b" stroke-width="2"/>
            <g id="Elipse_7825" data-name="Elipse 7825" transform="translate(917 1634)" fill="#221b6b" stroke="#221b6b" stroke-width="2">
              <ellipse cx="41" cy="24" rx="41" ry="24" stroke="none"/>
              <ellipse cx="41" cy="24" rx="40" ry="23" fill="none"/>
            </g>
          </g>
          <path id="Trazado_742389" data-name="Trazado 742389" d="M6.709,12.836H4.842V17H2.5V5.625H6.724a4.778,4.778,0,0,1,3.109.9,3.1,3.1,0,0,1,1.094,2.539,3.5,3.5,0,0,1-.5,1.941A3.437,3.437,0,0,1,8.9,12.242l2.461,4.648V17H8.842Zm-1.867-1.9H6.732A1.936,1.936,0,0,0,8.1,10.488,1.606,1.606,0,0,0,8.584,9.25a1.719,1.719,0,0,0-.457-1.266,1.9,1.9,0,0,0-1.4-.461H4.842Zm11.609,6.219a4.15,4.15,0,0,1-3.027-1.141,4.054,4.054,0,0,1-1.168-3.039v-.219a5.106,5.106,0,0,1,.492-2.277,3.612,3.612,0,0,1,1.395-1.547A3.914,3.914,0,0,1,16.2,8.391a3.508,3.508,0,0,1,2.73,1.094,4.444,4.444,0,0,1,1,3.1v.922H14.545a2.1,2.1,0,0,0,.66,1.328,2,2,0,0,0,1.395.5,2.437,2.437,0,0,0,2.039-.945l1.109,1.242a3.389,3.389,0,0,1-1.375,1.121A4.511,4.511,0,0,1,16.451,17.156Zm-.258-6.937a1.414,1.414,0,0,0-1.09.453,2.341,2.341,0,0,0-.535,1.3h3.141v-.18a1.669,1.669,0,0,0-.406-1.16A1.459,1.459,0,0,0,16.193,10.219ZM23.592,17H21.326V5h2.266Zm6.758,0a2.507,2.507,0,0,1-.227-.758,2.732,2.732,0,0,1-2.133.914,3,3,0,0,1-2.059-.719,2.312,2.312,0,0,1-.816-1.812,2.389,2.389,0,0,1,1-2.062,4.915,4.915,0,0,1,2.879-.727h1.039v-.484a1.393,1.393,0,0,0-.3-.937,1.183,1.183,0,0,0-.949-.352,1.345,1.345,0,0,0-.895.273.929.929,0,0,0-.324.75H25.3a2.268,2.268,0,0,1,.453-1.359,3,3,0,0,1,1.281-.98A4.669,4.669,0,0,1,28.9,8.391a3.689,3.689,0,0,1,2.48.785,2.747,2.747,0,0,1,.918,2.207v3.664a4.041,4.041,0,0,0,.336,1.82V17Zm-1.867-1.57a1.945,1.945,0,0,0,.922-.223,1.462,1.462,0,0,0,.625-.6V13.156h-.844q-1.7,0-1.8,1.172l-.008.133a.9.9,0,0,0,.3.7A1.153,1.153,0,0,0,28.482,15.43Zm9.062-.094a1.481,1.481,0,0,0,1.016-.344,1.2,1.2,0,0,0,.406-.914h2.117a2.9,2.9,0,0,1-.469,1.574,3.093,3.093,0,0,1-1.262,1.109,3.949,3.949,0,0,1-1.77.395A3.67,3.67,0,0,1,34.724,16a4.56,4.56,0,0,1-1.047-3.184v-.148a4.508,4.508,0,0,1,1.039-3.117,3.627,3.627,0,0,1,2.852-1.164,3.555,3.555,0,0,1,2.543.9,3.2,3.2,0,0,1,.973,2.4H38.967a1.539,1.539,0,0,0-.406-1.066,1.513,1.513,0,0,0-2.223.164,3.324,3.324,0,0,0-.4,1.863v.234a3.366,3.366,0,0,0,.4,1.875A1.378,1.378,0,0,0,37.545,15.336ZM44.756,17H42.49V8.547h2.266Zm-2.4-10.641a1.112,1.112,0,0,1,.34-.836,1.465,1.465,0,0,1,1.848,0,1.105,1.105,0,0,1,.344.836,1.108,1.108,0,0,1-.348.844,1.448,1.448,0,0,1-1.836,0A1.108,1.108,0,0,1,42.357,6.359ZM46.263,12.7a5.013,5.013,0,0,1,.484-2.242A3.546,3.546,0,0,1,48.142,8.93a4.069,4.069,0,0,1,2.113-.539,3.849,3.849,0,0,1,2.793,1.047,4.2,4.2,0,0,1,1.207,2.844l.016.578a4.418,4.418,0,0,1-1.086,3.121,4.209,4.209,0,0,1-5.832,0,4.5,4.5,0,0,1-1.09-3.187Zm2.258.164a3.151,3.151,0,0,0,.453,1.84,1.629,1.629,0,0,0,2.578.008,3.448,3.448,0,0,0,.461-2.012,3.12,3.12,0,0,0-.461-1.828,1.5,1.5,0,0,0-1.3-.648,1.475,1.475,0,0,0-1.281.645A3.506,3.506,0,0,0,48.521,12.859ZM50.7,5h2.461L51,7.422H49.162ZM57.74,8.547l.07.977a2.951,2.951,0,0,1,2.43-1.133,2.453,2.453,0,0,1,2,.789,3.682,3.682,0,0,1,.672,2.359V17H60.654V11.594a1.465,1.465,0,0,0-.312-1.043,1.4,1.4,0,0,0-1.039-.324,1.553,1.553,0,0,0-1.43.813V17H55.615V8.547Z" transform="translate(1008.052 1574.2)" fill="#12263f"/>
          <path id="Trazado_742388" data-name="Trazado 742388" d="M5.762,17H3.418V5.625H5.762Zm1.672-4.289A5.094,5.094,0,0,1,8.32,9.563a2.877,2.877,0,0,1,2.426-1.172,2.589,2.589,0,0,1,2.039.922V5h2.266V17H13.012l-.109-.9a2.657,2.657,0,0,1-2.172,1.055A2.869,2.869,0,0,1,8.336,15.98,5.258,5.258,0,0,1,7.434,12.711Zm2.258.164a3.328,3.328,0,0,0,.414,1.82,1.349,1.349,0,0,0,1.2.633,1.511,1.511,0,0,0,1.477-.883V11.109a1.489,1.489,0,0,0-1.461-.883Q9.691,10.227,9.691,12.875Zm11,4.281a4.15,4.15,0,0,1-3.027-1.141A4.054,4.054,0,0,1,16.5,12.977v-.219a5.106,5.106,0,0,1,.492-2.277,3.612,3.612,0,0,1,1.395-1.547,3.914,3.914,0,0,1,2.059-.543,3.508,3.508,0,0,1,2.73,1.094,4.444,4.444,0,0,1,1,3.1v.922H18.785a2.1,2.1,0,0,0,.66,1.328,2,2,0,0,0,1.395.5,2.437,2.437,0,0,0,2.039-.945l1.109,1.242a3.389,3.389,0,0,1-1.375,1.121A4.511,4.511,0,0,1,20.691,17.156Zm-.258-6.937a1.414,1.414,0,0,0-1.09.453,2.341,2.341,0,0,0-.535,1.3h3.141v-.18a1.669,1.669,0,0,0-.406-1.16A1.459,1.459,0,0,0,20.434,10.219Zm7.094-1.672.07.977a2.951,2.951,0,0,1,2.43-1.133,2.453,2.453,0,0,1,2,.789,3.682,3.682,0,0,1,.672,2.359V17H30.441V11.594a1.465,1.465,0,0,0-.312-1.043,1.4,1.4,0,0,0-1.039-.324,1.553,1.553,0,0,0-1.43.813V17H25.4V8.547Zm9.586-2.078V8.547h1.445V10.2H37.113v4.219a1.007,1.007,0,0,0,.18.672.9.9,0,0,0,.688.2,3.6,3.6,0,0,0,.664-.055v1.711a4.648,4.648,0,0,1-1.367.2,2.156,2.156,0,0,1-2.422-2.4V10.2H33.621V8.547h1.234V6.469ZM42.2,17H39.934V8.547H42.2ZM39.8,6.359a1.112,1.112,0,0,1,.34-.836,1.465,1.465,0,0,1,1.848,0,1.105,1.105,0,0,1,.344.836,1.108,1.108,0,0,1-.348.844,1.448,1.448,0,0,1-1.836,0A1.108,1.108,0,0,1,39.8,6.359ZM44.605,17V10.2H43.348V8.547h1.258V8.156a3.17,3.17,0,0,1,.98-2.457,3.945,3.945,0,0,1,2.723-.863,9.031,9.031,0,0,1,2.563.461l-.328,1.867a10,10,0,0,0-1.187-.293,5.835,5.835,0,0,0-.906-.066q-1.578,0-1.578,1.4v.344h1.664V10.2H46.871V17Zm7.32,0H49.66V8.547h2.266Zm5.383-1.664a1.481,1.481,0,0,0,1.016-.344,1.2,1.2,0,0,0,.406-.914h2.117a2.9,2.9,0,0,1-.469,1.574,3.093,3.093,0,0,1-1.262,1.109,3.949,3.949,0,0,1-1.77.395A3.67,3.67,0,0,1,54.488,16a4.56,4.56,0,0,1-1.047-3.184v-.148A4.508,4.508,0,0,1,54.48,9.555a3.627,3.627,0,0,1,2.852-1.164,3.555,3.555,0,0,1,2.543.9,3.2,3.2,0,0,1,.973,2.4H58.73a1.539,1.539,0,0,0-.406-1.066,1.513,1.513,0,0,0-2.223.164,3.324,3.324,0,0,0-.4,1.863v.234a3.366,3.366,0,0,0,.4,1.875A1.378,1.378,0,0,0,57.309,15.336ZM67.035,17a2.507,2.507,0,0,1-.227-.758,2.732,2.732,0,0,1-2.133.914,3,3,0,0,1-2.059-.719,2.312,2.312,0,0,1-.816-1.812,2.389,2.389,0,0,1,1-2.062,4.915,4.915,0,0,1,2.879-.727h1.039v-.484a1.393,1.393,0,0,0-.3-.937,1.183,1.183,0,0,0-.949-.352,1.345,1.345,0,0,0-.895.273.929.929,0,0,0-.324.75H61.988a2.268,2.268,0,0,1,.453-1.359,3,3,0,0,1,1.281-.98,4.669,4.669,0,0,1,1.859-.355,3.689,3.689,0,0,1,2.48.785,2.747,2.747,0,0,1,.918,2.207v3.664a4.041,4.041,0,0,0,.336,1.82V17Zm-1.867-1.57a1.945,1.945,0,0,0,.922-.223,1.462,1.462,0,0,0,.625-.6V13.156h-.844q-1.7,0-1.8,1.172l-.008.133a.9.9,0,0,0,.3.7A1.153,1.153,0,0,0,65.168,15.43Zm5.2-2.719a5.094,5.094,0,0,1,.887-3.148,2.877,2.877,0,0,1,2.426-1.172,2.589,2.589,0,0,1,2.039.922V5H77.98V17H75.941l-.109-.9a2.657,2.657,0,0,1-2.172,1.055,2.869,2.869,0,0,1-2.395-1.176A5.258,5.258,0,0,1,70.363,12.711Zm2.258.164a3.328,3.328,0,0,0,.414,1.82,1.349,1.349,0,0,0,1.2.633,1.511,1.511,0,0,0,1.477-.883V11.109a1.489,1.489,0,0,0-1.461-.883Q72.621,10.227,72.621,12.875Zm6.758-.18a5.013,5.013,0,0,1,.484-2.242A3.546,3.546,0,0,1,81.258,8.93a4.069,4.069,0,0,1,2.113-.539,3.849,3.849,0,0,1,2.793,1.047,4.2,4.2,0,0,1,1.207,2.844l.016.578A4.418,4.418,0,0,1,86.3,15.98a4.209,4.209,0,0,1-5.832,0,4.5,4.5,0,0,1-1.09-3.187Zm2.258.164a3.151,3.151,0,0,0,.453,1.84,1.629,1.629,0,0,0,2.578.008,3.448,3.448,0,0,0,.461-2.012,3.12,3.12,0,0,0-.461-1.828,1.5,1.5,0,0,0-1.3-.648,1.475,1.475,0,0,0-1.281.645A3.506,3.506,0,0,0,81.637,12.859Zm11.891-2.2a6.134,6.134,0,0,0-.812-.062,1.654,1.654,0,0,0-1.68.867V17H88.777V8.547H90.91l.063,1.008a2.092,2.092,0,0,1,1.883-1.164,2.366,2.366,0,0,1,.7.1Z" transform="translate(1008.052 1647.6)" fill="#12263f"/>
          <path id="Trazado_742387" data-name="Trazado 742387" d="M5.6,5.625H7.945V13.5a3.766,3.766,0,0,1-.48,1.918A3.261,3.261,0,0,1,6.109,16.7a4.234,4.234,0,0,1-1.977.453,4.025,4.025,0,0,1-2.812-.918,3.335,3.335,0,0,1-1.008-2.6H2.672a1.829,1.829,0,0,0,.352,1.234,1.407,1.407,0,0,0,1.109.4,1.343,1.343,0,0,0,1.07-.461A1.948,1.948,0,0,0,5.6,13.5ZM13.7,17.156a4.15,4.15,0,0,1-3.027-1.141A4.054,4.054,0,0,1,9.5,12.977v-.219a5.106,5.106,0,0,1,.492-2.277,3.612,3.612,0,0,1,1.395-1.547,3.914,3.914,0,0,1,2.059-.543,3.508,3.508,0,0,1,2.73,1.094,4.444,4.444,0,0,1,1,3.1v.922H11.789a2.1,2.1,0,0,0,.66,1.328,2,2,0,0,0,1.395.5,2.437,2.437,0,0,0,2.039-.945l1.109,1.242a3.389,3.389,0,0,1-1.375,1.121A4.511,4.511,0,0,1,13.7,17.156Zm-.258-6.937a1.414,1.414,0,0,0-1.09.453,2.341,2.341,0,0,0-.535,1.3h3.141v-.18a1.669,1.669,0,0,0-.406-1.16A1.459,1.459,0,0,0,13.438,10.219Zm9.766.445a6.134,6.134,0,0,0-.812-.062,1.654,1.654,0,0,0-1.68.867V17H18.453V8.547h2.133l.063,1.008a2.092,2.092,0,0,1,1.883-1.164,2.366,2.366,0,0,1,.7.1ZM28.953,17a2.507,2.507,0,0,1-.227-.758,2.732,2.732,0,0,1-2.133.914,3,3,0,0,1-2.059-.719,2.312,2.312,0,0,1-.816-1.812,2.389,2.389,0,0,1,1-2.062,4.915,4.915,0,0,1,2.879-.727h1.039v-.484a1.393,1.393,0,0,0-.3-.937,1.183,1.183,0,0,0-.949-.352,1.345,1.345,0,0,0-.895.273.929.929,0,0,0-.324.75H23.906a2.268,2.268,0,0,1,.453-1.359,3,3,0,0,1,1.281-.98A4.669,4.669,0,0,1,27.5,8.391a3.689,3.689,0,0,1,2.48.785,2.747,2.747,0,0,1,.918,2.207v3.664a4.041,4.041,0,0,0,.336,1.82V17Zm-1.867-1.57a1.945,1.945,0,0,0,.922-.223,1.462,1.462,0,0,0,.625-.6V13.156h-.844q-1.7,0-1.8,1.172l-.008.133a.9.9,0,0,0,.3.7A1.153,1.153,0,0,0,27.086,15.43Zm10.3-4.766a6.134,6.134,0,0,0-.812-.062,1.654,1.654,0,0,0-1.68.867V17H32.633V8.547h2.133l.063,1.008a2.092,2.092,0,0,1,1.883-1.164,2.366,2.366,0,0,1,.7.1Zm.734,2.031A5.053,5.053,0,0,1,39,9.547a2.9,2.9,0,0,1,2.434-1.156A2.6,2.6,0,0,1,43.6,9.43l.148-.883h1.984v11.7H43.469V16.273a2.6,2.6,0,0,1-2.047.883,2.878,2.878,0,0,1-2.406-1.172A5.3,5.3,0,0,1,38.117,12.7Zm2.258.164A3.305,3.305,0,0,0,40.8,14.7a1.364,1.364,0,0,0,1.2.633,1.519,1.519,0,0,0,1.469-.828V11.016a1.506,1.506,0,0,0-1.453-.8,1.38,1.38,0,0,0-1.211.633A3.651,3.651,0,0,0,40.375,12.859Zm12.2,3.281a2.831,2.831,0,0,1-2.312,1.016,2.67,2.67,0,0,1-2.074-.781,3.335,3.335,0,0,1-.73-2.289V8.547h2.258v5.461q0,1.32,1.2,1.32a1.631,1.631,0,0,0,1.578-.8V8.547h2.266V17H52.633ZM58.9,17H56.641V8.547H58.9ZM58.234,5.117H60.7L58.531,7.539H56.7ZM65.742,17a2.507,2.507,0,0,1-.227-.758,2.732,2.732,0,0,1-2.133.914,3,3,0,0,1-2.059-.719,2.312,2.312,0,0,1-.816-1.812,2.389,2.389,0,0,1,1-2.062,4.915,4.915,0,0,1,2.879-.727h1.039v-.484a1.393,1.393,0,0,0-.3-.937,1.183,1.183,0,0,0-.949-.352,1.345,1.345,0,0,0-.895.273.929.929,0,0,0-.324.75H60.7a2.268,2.268,0,0,1,.453-1.359,3,3,0,0,1,1.281-.98,4.669,4.669,0,0,1,1.859-.355,3.689,3.689,0,0,1,2.48.785,2.747,2.747,0,0,1,.918,2.207v3.664a4.041,4.041,0,0,0,.336,1.82V17Zm-1.867-1.57a1.945,1.945,0,0,0,.922-.223,1.462,1.462,0,0,0,.625-.6V13.156h-.844q-1.7,0-1.8,1.172l-.008.133a.9.9,0,0,0,.3.7A1.153,1.153,0,0,0,63.875,15.43Zm9.18-2.719a5.094,5.094,0,0,1,.887-3.148,2.877,2.877,0,0,1,2.426-1.172,2.589,2.589,0,0,1,2.039.922V5h2.266V17H78.633l-.109-.9a2.657,2.657,0,0,1-2.172,1.055,2.869,2.869,0,0,1-2.395-1.176A5.258,5.258,0,0,1,73.055,12.711Zm2.258.164a3.328,3.328,0,0,0,.414,1.82,1.349,1.349,0,0,0,1.2.633,1.511,1.511,0,0,0,1.477-.883V11.109a1.489,1.489,0,0,0-1.461-.883Q75.313,10.227,75.313,12.875Zm11,4.281a4.15,4.15,0,0,1-3.027-1.141,4.054,4.054,0,0,1-1.168-3.039v-.219a5.106,5.106,0,0,1,.492-2.277A3.612,3.612,0,0,1,84,8.934a3.914,3.914,0,0,1,2.059-.543,3.508,3.508,0,0,1,2.73,1.094,4.444,4.444,0,0,1,1,3.1v.922H84.406a2.1,2.1,0,0,0,.66,1.328,2,2,0,0,0,1.395.5,2.437,2.437,0,0,0,2.039-.945l1.109,1.242a3.389,3.389,0,0,1-1.375,1.121A4.511,4.511,0,0,1,86.313,17.156Zm-.258-6.937a1.414,1.414,0,0,0-1.09.453,2.341,2.341,0,0,0-.535,1.3H87.57v-.18a1.669,1.669,0,0,0-.406-1.16A1.459,1.459,0,0,0,86.055,10.219ZM.539,36.711a4.954,4.954,0,0,1,.926-3.133,3,3,0,0,1,2.5-1.187,2.631,2.631,0,0,1,2.164.953l.094-.8H8.266v8.172a3.613,3.613,0,0,1-.5,1.93A3.236,3.236,0,0,1,6.344,43.9a4.985,4.985,0,0,1-2.141.43,4.635,4.635,0,0,1-1.812-.371A3.217,3.217,0,0,1,1.055,43l1-1.375A2.645,2.645,0,0,0,4.1,42.57a1.936,1.936,0,0,0,1.4-.48A1.8,1.8,0,0,0,6,40.727v-.453a2.612,2.612,0,0,1-2.055.883A2.992,2.992,0,0,1,1.48,39.965,4.953,4.953,0,0,1,.539,36.8Zm2.258.164a3.076,3.076,0,0,0,.461,1.8,1.467,1.467,0,0,0,1.266.652A1.568,1.568,0,0,0,6,38.555V35a1.565,1.565,0,0,0-1.461-.773,1.476,1.476,0,0,0-1.277.664A3.467,3.467,0,0,0,2.8,36.875Zm11.094,4.281a4.15,4.15,0,0,1-3.027-1.141A4.054,4.054,0,0,1,9.7,36.977v-.219a5.106,5.106,0,0,1,.492-2.277,3.612,3.612,0,0,1,1.395-1.547,3.914,3.914,0,0,1,2.059-.543,3.508,3.508,0,0,1,2.73,1.094,4.444,4.444,0,0,1,1,3.1v.922H11.984a2.1,2.1,0,0,0,.66,1.328,2,2,0,0,0,1.395.5,2.437,2.437,0,0,0,2.039-.945l1.109,1.242a3.389,3.389,0,0,1-1.375,1.121A4.511,4.511,0,0,1,13.891,41.156Zm-.258-6.937a1.414,1.414,0,0,0-1.09.453,2.341,2.341,0,0,0-.535,1.3h3.141v-.18a1.669,1.669,0,0,0-.406-1.16A1.459,1.459,0,0,0,13.633,34.219Zm7.094-1.672.07.977a2.951,2.951,0,0,1,2.43-1.133,2.453,2.453,0,0,1,2,.789,3.682,3.682,0,0,1,.672,2.359V41H23.641V35.594a1.465,1.465,0,0,0-.312-1.043,1.4,1.4,0,0,0-1.039-.324,1.553,1.553,0,0,0-1.43.813V41H18.6V32.547ZM31.5,41.156a4.15,4.15,0,0,1-3.027-1.141A4.054,4.054,0,0,1,27.3,36.977v-.219A5.106,5.106,0,0,1,27.8,34.48a3.612,3.612,0,0,1,1.395-1.547,3.914,3.914,0,0,1,2.059-.543,3.508,3.508,0,0,1,2.73,1.094,4.444,4.444,0,0,1,1,3.1v.922H29.594a2.1,2.1,0,0,0,.66,1.328,2,2,0,0,0,1.395.5,2.437,2.437,0,0,0,2.039-.945L34.8,39.633a3.389,3.389,0,0,1-1.375,1.121A4.511,4.511,0,0,1,31.5,41.156Zm-.258-6.937a1.414,1.414,0,0,0-1.09.453,2.341,2.341,0,0,0-.535,1.3h3.141v-.18a1.669,1.669,0,0,0-.406-1.16A1.459,1.459,0,0,0,31.242,34.219Zm9.766.445A6.134,6.134,0,0,0,40.2,34.6a1.654,1.654,0,0,0-1.68.867V41H36.258V32.547h2.133l.063,1.008a2.092,2.092,0,0,1,1.883-1.164,2.366,2.366,0,0,1,.7.1ZM46.758,41a2.507,2.507,0,0,1-.227-.758,2.732,2.732,0,0,1-2.133.914,3,3,0,0,1-2.059-.719,2.312,2.312,0,0,1-.816-1.812,2.389,2.389,0,0,1,1-2.062,4.915,4.915,0,0,1,2.879-.727h1.039v-.484a1.393,1.393,0,0,0-.3-.937,1.183,1.183,0,0,0-.949-.352,1.345,1.345,0,0,0-.895.273.929.929,0,0,0-.324.75H41.711a2.268,2.268,0,0,1,.453-1.359,3,3,0,0,1,1.281-.98,4.669,4.669,0,0,1,1.859-.355,3.689,3.689,0,0,1,2.48.785,2.747,2.747,0,0,1,.918,2.207v3.664a4.041,4.041,0,0,0,.336,1.82V41Zm-1.867-1.57a1.945,1.945,0,0,0,.922-.223,1.462,1.462,0,0,0,.625-.6V37.156h-.844q-1.7,0-1.8,1.172l-.008.133a.9.9,0,0,0,.3.7A1.153,1.153,0,0,0,44.891,39.43ZM52.82,41H50.555V29H52.82Zm4.242,0H54.8V32.547h2.266Zm-2.4-10.641a1.112,1.112,0,0,1,.34-.836,1.465,1.465,0,0,1,1.848,0,1.193,1.193,0,0,1,0,1.68,1.448,1.448,0,0,1-1.836,0A1.108,1.108,0,0,1,54.664,30.359Zm6.852,8.82h4.133V41H58.633V39.625l3.977-5.25H58.75V32.547h6.773v1.336ZM71.961,41a2.507,2.507,0,0,1-.227-.758,2.732,2.732,0,0,1-2.133.914,3,3,0,0,1-2.059-.719,2.312,2.312,0,0,1-.816-1.812,2.389,2.389,0,0,1,1-2.062,4.915,4.915,0,0,1,2.879-.727h1.039v-.484a1.393,1.393,0,0,0-.3-.937,1.183,1.183,0,0,0-.949-.352,1.345,1.345,0,0,0-.895.273.929.929,0,0,0-.324.75H66.914a2.268,2.268,0,0,1,.453-1.359,3,3,0,0,1,1.281-.98,4.669,4.669,0,0,1,1.859-.355,3.689,3.689,0,0,1,2.48.785,2.747,2.747,0,0,1,.918,2.207v3.664a4.041,4.041,0,0,0,.336,1.82V41Zm-1.867-1.57a1.945,1.945,0,0,0,.922-.223,1.462,1.462,0,0,0,.625-.6V37.156H70.8q-1.7,0-1.8,1.172l-.008.133a.9.9,0,0,0,.3.7A1.153,1.153,0,0,0,70.094,39.43Zm9.063-.094a1.481,1.481,0,0,0,1.016-.344,1.2,1.2,0,0,0,.406-.914H82.7a2.9,2.9,0,0,1-.469,1.574,3.093,3.093,0,0,1-1.262,1.109,3.949,3.949,0,0,1-1.77.395A3.67,3.67,0,0,1,76.336,40a4.56,4.56,0,0,1-1.047-3.184v-.148a4.508,4.508,0,0,1,1.039-3.117,3.627,3.627,0,0,1,2.852-1.164,3.555,3.555,0,0,1,2.543.9,3.2,3.2,0,0,1,.973,2.4H80.578a1.539,1.539,0,0,0-.406-1.066,1.513,1.513,0,0,0-2.223.164,3.324,3.324,0,0,0-.4,1.863v.234a3.366,3.366,0,0,0,.4,1.875A1.378,1.378,0,0,0,79.156,39.336ZM86.367,41H84.1V32.547h2.266Zm-2.4-10.641a1.112,1.112,0,0,1,.34-.836,1.465,1.465,0,0,1,1.848,0,1.193,1.193,0,0,1,0,1.68,1.448,1.448,0,0,1-1.836,0A1.108,1.108,0,0,1,83.969,30.359ZM87.875,36.7a5.013,5.013,0,0,1,.484-2.242,3.546,3.546,0,0,1,1.395-1.523,4.069,4.069,0,0,1,2.113-.539,3.849,3.849,0,0,1,2.793,1.047,4.2,4.2,0,0,1,1.207,2.844l.016.578A4.418,4.418,0,0,1,94.8,39.98a4.209,4.209,0,0,1-5.832,0,4.5,4.5,0,0,1-1.09-3.187Zm2.258.164a3.151,3.151,0,0,0,.453,1.84,1.629,1.629,0,0,0,2.578.008,3.448,3.448,0,0,0,.461-2.012,3.12,3.12,0,0,0-.461-1.828,1.5,1.5,0,0,0-1.3-.648,1.475,1.475,0,0,0-1.281.645A3.506,3.506,0,0,0,90.133,36.859ZM92.313,29h2.461l-2.164,2.422H90.773Zm7.039,3.547.07.977a2.951,2.951,0,0,1,2.43-1.133,2.453,2.453,0,0,1,2,.789,3.682,3.682,0,0,1,.672,2.359V41h-2.258V35.594a1.465,1.465,0,0,0-.312-1.043,1.4,1.4,0,0,0-1.039-.324,1.553,1.553,0,0,0-1.43.813V41H97.227V32.547Z" transform="translate(1008.052 1700.092)" fill="#12263f"/>
          <path id="Trazado_741565" data-name="Trazado 741565" d="M15.407,0,0,16.226H9.395L5.82,48.733H25.258L21.684,16.226h9.132Z" transform="translate(1002.643 1569.193) rotate(90)" fill="#221b6b"/>
          <path id="Trazado_741566" data-name="Trazado 741566" d="M15.407,0,0,16.226H9.395L5.82,48.733H25.258L21.684,16.226h9.132Z" transform="translate(1002.643 1642.592) rotate(90)" fill="#221b6b"/>
          <path id="Trazado_741569" data-name="Trazado 741569" d="M15.407,0,0,16.226H9.395L5.82,48.733H25.258L21.684,16.226h9.132Z" transform="translate(1002.643 1707.185) rotate(90)" fill="#221b6b"/>
          <g id="Grupo_1022638" data-name="Grupo 1022638" transform="translate(5 6)">
            <g id="Rectángulo_373067" data-name="Rectángulo 373067" transform="translate(837 1706)" fill="#e4e0f8" stroke="#221b6b" stroke-width="1">
              <rect width="90" height="28" stroke="none"/>
              <rect x="0.5" y="0.5" width="89" height="27" fill="none"/>
            </g>
            <g id="Rectángulo_373069" data-name="Rectángulo 373069" transform="translate(901 1762)" fill="#e4e0f8" stroke="#221b6b" stroke-width="1">
              <rect width="90" height="28" stroke="none"/>
              <rect x="0.5" y="0.5" width="89" height="27" fill="none"/>
            </g>
            <path id="Trazado_741567" data-name="Trazado 741567" d="M8600.243-9664.708v-14.5h-119v14.5" transform="translate(-7654.243 11427.552)" fill="none" stroke="#221b6b" stroke-width="1.5"/>
            <path id="Trazado_741568" data-name="Trazado 741568" d="M8537-9677.7v-9.724" transform="translate(-7654.771 11426.048)" fill="none" stroke="#221b6b" stroke-width="1.5"/>
            <g id="Polígono_24" data-name="Polígono 24" transform="translate(878.621 1733.636)" fill="#221b6b">
              <path d="M 5.974831581115723 4.681818962097168 L 0.9342593550682068 4.681818962097168 L 3.454545497894287 0.9013934135437012 L 5.974831581115723 4.681818962097168 Z" stroke="none"/>
              <path d="M 3.454545497894287 1.802772760391235 L 1.868513107299805 4.181818962097168 L 5.04057788848877 4.181818962097168 L 3.454545497894287 1.802772760391235 M 3.454545497894287 -9.5367431640625e-07 L 6.909095287322998 5.181818962097168 L -4.291534423828125e-06 5.181818962097168 L 3.454545497894287 -9.5367431640625e-07 Z" stroke="none" fill="#221b6b"/>
            </g>
            <g id="Rectángulo_373068" data-name="Rectángulo 373068" transform="translate(782 1761)" fill="#e4e0f8" stroke="#221b6b" stroke-width="1">
              <rect width="90" height="28" stroke="none"/>
              <rect x="0.5" y="0.5" width="89" height="27" fill="none"/>
            </g>
          </g>
        </g>
      </g>
      <g id="Grupo_1003815" data-name="Grupo 1003815" transform="translate(-21.911 -193.609)">
        <g id="Grupo_1003570" data-name="Grupo 1003570" transform="translate(526.91 1663)">
          <g transform="matrix(1, 0, 0, 1, -113, -27)" filter="url(#Unión_1)">
            <path id="Unión_1-2" data-name="Unión 1" d="M282,45h26.724L295.362,61ZM95.5,45a16.5,16.5,0,0,1,0-33H494.6a16.5,16.5,0,0,1,0,33Z" transform="translate(113 27)" fill="#221b6b"/>
          </g>
        </g>
        <path id="Trazado_742383" data-name="Trazado 742383" d="M-179.64-5.546H-184.7v3.428h5.941V0h-8.578V-12.8h8.561v2.136H-184.7v3.05h5.063ZM-174.7,0h-2.549V-13.5h2.549Zm6.469.176a4.668,4.668,0,0,1-3.406-1.283,4.561,4.561,0,0,1-1.314-3.419v-.246a5.745,5.745,0,0,1,.554-2.562,4.064,4.064,0,0,1,1.569-1.74,4.4,4.4,0,0,1,2.316-.611,3.947,3.947,0,0,1,3.072,1.23,5,5,0,0,1,1.121,3.489v1.037h-6.056a2.36,2.36,0,0,0,.743,1.494,2.245,2.245,0,0,0,1.569.563,2.742,2.742,0,0,0,2.294-1.063l1.248,1.4a3.813,3.813,0,0,1-1.547,1.261A5.075,5.075,0,0,1-168.231.176Zm-.29-7.8a1.591,1.591,0,0,0-1.226.51,2.634,2.634,0,0,0-.6,1.459h3.533v-.2a1.878,1.878,0,0,0-.457-1.305A1.642,1.642,0,0,0-168.521-7.629ZM-160.5-9.51l.079,1.063a3.342,3.342,0,0,1,2.733-1.239,2.536,2.536,0,0,1,2.522,1.45,3.265,3.265,0,0,1,2.856-1.45,2.836,2.836,0,0,1,2.3.9,4.141,4.141,0,0,1,.756,2.711V0H-151.8V-6.064a1.811,1.811,0,0,0-.316-1.182,1.4,1.4,0,0,0-1.116-.374,1.585,1.585,0,0,0-1.582,1.09L-154.8,0h-2.54V-6.056a1.789,1.789,0,0,0-.325-1.2,1.416,1.416,0,0,0-1.107-.369,1.646,1.646,0,0,0-1.564.9V0h-2.54V-9.51ZM-142.919.176a4.668,4.668,0,0,1-3.406-1.283,4.561,4.561,0,0,1-1.314-3.419v-.246a5.745,5.745,0,0,1,.554-2.562,4.064,4.064,0,0,1,1.569-1.74,4.4,4.4,0,0,1,2.316-.611,3.947,3.947,0,0,1,3.072,1.23,5,5,0,0,1,1.121,3.489v1.037h-6.056a2.36,2.36,0,0,0,.743,1.494,2.245,2.245,0,0,0,1.569.563,2.742,2.742,0,0,0,2.294-1.063l1.248,1.4a3.813,3.813,0,0,1-1.547,1.261A5.075,5.075,0,0,1-142.919.176Zm-.29-7.8a1.591,1.591,0,0,0-1.226.51,2.634,2.634,0,0,0-.6,1.459h3.533v-.2a1.878,1.878,0,0,0-.457-1.305A1.642,1.642,0,0,0-143.209-7.629Zm7.98-1.881.079,1.1a3.32,3.32,0,0,1,2.733-1.274,2.759,2.759,0,0,1,2.25.888,4.142,4.142,0,0,1,.756,2.654V0h-2.54V-6.082a1.648,1.648,0,0,0-.352-1.173,1.574,1.574,0,0,0-1.169-.365,1.747,1.747,0,0,0-1.608.914V0h-2.54V-9.51Zm10.784-2.338V-9.51h1.626v1.863h-1.626V-2.9a1.133,1.133,0,0,0,.2.756,1.015,1.015,0,0,0,.773.229,4.051,4.051,0,0,0,.747-.062V-.053a5.229,5.229,0,0,1-1.538.229,2.425,2.425,0,0,1-2.725-2.7V-7.646h-1.389V-9.51h1.389v-2.338Zm2.382,7a5.64,5.64,0,0,1,.545-2.522,3.989,3.989,0,0,1,1.569-1.714,4.577,4.577,0,0,1,2.377-.606,4.33,4.33,0,0,1,3.142,1.178,4.727,4.727,0,0,1,1.358,3.2l.018.65a4.97,4.97,0,0,1-1.222,3.511A4.247,4.247,0,0,1-117.554.176a4.268,4.268,0,0,1-3.283-1.318,5.058,5.058,0,0,1-1.226-3.586Zm2.54.185a3.545,3.545,0,0,0,.51,2.07,1.682,1.682,0,0,0,1.459.716,1.686,1.686,0,0,0,1.441-.708,3.879,3.879,0,0,0,.519-2.263,3.51,3.51,0,0,0-.519-2.057,1.686,1.686,0,0,0-1.459-.729,1.659,1.659,0,0,0-1.441.725A3.944,3.944,0,0,0-119.522-4.658Zm13.184,2.03a.818.818,0,0,0-.461-.734,5.241,5.241,0,0,0-1.481-.479q-3.393-.712-3.393-2.883a2.613,2.613,0,0,1,1.05-2.114,4.237,4.237,0,0,1,2.747-.848,4.56,4.56,0,0,1,2.9.853A2.687,2.687,0,0,1-103.9-6.618h-2.54a1.229,1.229,0,0,0-.352-.9,1.488,1.488,0,0,0-1.1-.356,1.52,1.52,0,0,0-.993.29.916.916,0,0,0-.352.738.783.783,0,0,0,.4.681,4.114,4.114,0,0,0,1.349.448,11.019,11.019,0,0,1,1.6.426,2.628,2.628,0,0,1,2.013,2.558,2.481,2.481,0,0,1-1.116,2.1,4.815,4.815,0,0,1-2.883.8,5.029,5.029,0,0,1-2.123-.426,3.561,3.561,0,0,1-1.455-1.169,2.716,2.716,0,0,1-.527-1.6h2.408a1.326,1.326,0,0,0,.5,1.037,1.987,1.987,0,0,0,1.248.36,1.839,1.839,0,0,0,1.1-.277A.861.861,0,0,0-106.339-2.628Zm17.156-2.039A5.758,5.758,0,0,1-90.158-1.1,3.231,3.231,0,0,1-92.883.176a2.969,2.969,0,0,1-2.47-1.187L-95.467,0h-2.285V-13.5h2.54v4.843A2.893,2.893,0,0,1-92.9-9.686a3.258,3.258,0,0,1,2.729,1.279,5.767,5.767,0,0,1,.989,3.6Zm-2.54-.185a3.783,3.783,0,0,0-.457-2.1,1.545,1.545,0,0,0-1.362-.664,1.676,1.676,0,0,0-1.67.993v3.753a1.7,1.7,0,0,0,1.688,1,1.568,1.568,0,0,0,1.617-1.213A6.257,6.257,0,0,0-91.723-4.852ZM-82.107,0a2.821,2.821,0,0,1-.255-.853,3.073,3.073,0,0,1-2.4,1.028,3.376,3.376,0,0,1-2.316-.809A2.6,2.6,0,0,1-88-2.672a2.687,2.687,0,0,1,1.121-2.32,5.529,5.529,0,0,1,3.239-.817h1.169v-.545a1.567,1.567,0,0,0-.338-1.055,1.331,1.331,0,0,0-1.068-.4A1.513,1.513,0,0,0-84.88-7.5a1.045,1.045,0,0,0-.365.844h-2.54a2.551,2.551,0,0,1,.51-1.529,3.37,3.37,0,0,1,1.441-1.1,5.253,5.253,0,0,1,2.092-.4,4.15,4.15,0,0,1,2.791.883,3.09,3.09,0,0,1,1.033,2.483V-2.2a4.546,4.546,0,0,0,.378,2.048V0Zm-2.1-1.767a2.188,2.188,0,0,0,1.037-.25,1.645,1.645,0,0,0,.7-.672V-4.324h-.949q-1.907,0-2.03,1.318l-.009.149a1.017,1.017,0,0,0,.334.782A1.3,1.3,0,0,0-84.208-1.767Zm.967-11.733h2.769l-2.435,2.725h-2.065ZM-72.817-2.628a.818.818,0,0,0-.461-.734,5.241,5.241,0,0,0-1.481-.479q-3.393-.712-3.393-2.883A2.613,2.613,0,0,1-77.1-8.837a4.237,4.237,0,0,1,2.747-.848,4.56,4.56,0,0,1,2.9.853,2.687,2.687,0,0,1,1.085,2.215h-2.54a1.229,1.229,0,0,0-.352-.9,1.488,1.488,0,0,0-1.1-.356,1.52,1.52,0,0,0-.993.29.916.916,0,0,0-.352.738.783.783,0,0,0,.4.681,4.114,4.114,0,0,0,1.349.448,11.019,11.019,0,0,1,1.6.426,2.628,2.628,0,0,1,2.013,2.558,2.481,2.481,0,0,1-1.116,2.1,4.815,4.815,0,0,1-2.883.8A5.029,5.029,0,0,1-76.469-.25a3.561,3.561,0,0,1-1.455-1.169,2.716,2.716,0,0,1-.527-1.6h2.408a1.326,1.326,0,0,0,.5,1.037,1.987,1.987,0,0,0,1.248.36,1.839,1.839,0,0,0,1.1-.277A.861.861,0,0,0-72.817-2.628ZM-66.032,0h-2.549V-9.51h2.549Zm-2.7-11.971a1.251,1.251,0,0,1,.382-.94,1.436,1.436,0,0,1,1.042-.369,1.44,1.44,0,0,1,1.037.369,1.244,1.244,0,0,1,.387.94,1.247,1.247,0,0,1-.391.949,1.443,1.443,0,0,1-1.033.369,1.443,1.443,0,0,1-1.033-.369A1.247,1.247,0,0,1-68.73-11.971Zm8.745,10.1a1.666,1.666,0,0,0,1.143-.387,1.355,1.355,0,0,0,.457-1.028H-56a3.258,3.258,0,0,1-.527,1.771A3.48,3.48,0,0,1-57.951-.268a4.442,4.442,0,0,1-1.991.444,4.129,4.129,0,0,1-3.217-1.3A5.13,5.13,0,0,1-64.336-4.7v-.167a5.071,5.071,0,0,1,1.169-3.507,4.08,4.08,0,0,1,3.208-1.31A4,4,0,0,1-57.1-8.67,3.594,3.594,0,0,1-56-5.968h-2.382a1.731,1.731,0,0,0-.457-1.2A1.528,1.528,0,0,0-60-7.629a1.531,1.531,0,0,0-1.34.646,3.739,3.739,0,0,0-.453,2.1v.264a3.786,3.786,0,0,0,.448,2.109A1.55,1.55,0,0,0-59.985-1.872Zm5.036-2.971A5.64,5.64,0,0,1-54.4-7.365a3.989,3.989,0,0,1,1.569-1.714,4.577,4.577,0,0,1,2.377-.606,4.33,4.33,0,0,1,3.142,1.178,4.727,4.727,0,0,1,1.358,3.2l.018.65a4.97,4.97,0,0,1-1.222,3.511A4.247,4.247,0,0,1-50.44.176a4.268,4.268,0,0,1-3.283-1.318,5.058,5.058,0,0,1-1.226-3.586Zm2.54.185a3.545,3.545,0,0,0,.51,2.07,1.682,1.682,0,0,0,1.459.716A1.686,1.686,0,0,0-49-2.58a3.879,3.879,0,0,0,.519-2.263A3.51,3.51,0,0,0-49-6.9a1.686,1.686,0,0,0-1.459-.729A1.659,1.659,0,0,0-51.9-6.9,3.944,3.944,0,0,0-52.409-4.658Zm13.184,2.03a.818.818,0,0,0-.461-.734,5.241,5.241,0,0,0-1.481-.479q-3.393-.712-3.393-2.883a2.613,2.613,0,0,1,1.05-2.114,4.237,4.237,0,0,1,2.747-.848,4.56,4.56,0,0,1,2.9.853,2.687,2.687,0,0,1,1.085,2.215h-2.54a1.229,1.229,0,0,0-.352-.9,1.488,1.488,0,0,0-1.1-.356,1.52,1.52,0,0,0-.993.29.916.916,0,0,0-.352.738.783.783,0,0,0,.4.681,4.114,4.114,0,0,0,1.349.448,11.019,11.019,0,0,1,1.6.426,2.628,2.628,0,0,1,2.013,2.558,2.481,2.481,0,0,1-1.116,2.1,4.815,4.815,0,0,1-2.883.8A5.029,5.029,0,0,1-42.877-.25a3.561,3.561,0,0,1-1.455-1.169,2.716,2.716,0,0,1-.527-1.6h2.408a1.326,1.326,0,0,0,.5,1.037,1.987,1.987,0,0,0,1.248.36A1.839,1.839,0,0,0-39.6-1.9.861.861,0,0,0-39.226-2.628ZM-30.472,0V-12.8h3.938a5.98,5.98,0,0,1,3.019.76,5.3,5.3,0,0,1,2.079,2.162,6.669,6.669,0,0,1,.747,3.186V-6.1a6.688,6.688,0,0,1-.734,3.173,5.256,5.256,0,0,1-2.07,2.153A6.025,6.025,0,0,1-26.508,0Zm2.637-10.661v8.543h1.274A2.863,2.863,0,0,0-24.2-3.129a4.567,4.567,0,0,0,.835-2.892V-6.7a4.64,4.64,0,0,0-.809-2.958,2.854,2.854,0,0,0-2.364-1.006ZM-16.26,0h-2.549V-9.51h2.549Zm-2.7-11.971a1.251,1.251,0,0,1,.382-.94,1.436,1.436,0,0,1,1.042-.369,1.44,1.44,0,0,1,1.037.369,1.244,1.244,0,0,1,.387.94,1.247,1.247,0,0,1-.391.949,1.443,1.443,0,0,1-1.033.369,1.443,1.443,0,0,1-1.033-.369A1.247,1.247,0,0,1-18.958-11.971ZM-8.657,0a2.821,2.821,0,0,1-.255-.853,3.073,3.073,0,0,1-2.4,1.028,3.376,3.376,0,0,1-2.316-.809,2.6,2.6,0,0,1-.918-2.039,2.687,2.687,0,0,1,1.121-2.32,5.529,5.529,0,0,1,3.239-.817h1.169v-.545a1.567,1.567,0,0,0-.338-1.055,1.331,1.331,0,0,0-1.068-.4A1.513,1.513,0,0,0-11.43-7.5a1.045,1.045,0,0,0-.365.844h-2.54a2.551,2.551,0,0,1,.51-1.529,3.37,3.37,0,0,1,1.441-1.1,5.253,5.253,0,0,1,2.092-.4A4.15,4.15,0,0,1-7.5-8.8,3.09,3.09,0,0,1-6.469-6.319V-2.2A4.546,4.546,0,0,0-6.091-.149V0Zm-2.1-1.767a2.188,2.188,0,0,0,1.037-.25,1.645,1.645,0,0,0,.7-.672V-4.324h-.949q-1.907,0-2.03,1.318l-.009.149a1.017,1.017,0,0,0,.334.782A1.3,1.3,0,0,0-10.758-1.767Zm5.871-3.059A5.573,5.573,0,0,1-3.845-8.35,3.375,3.375,0,0,1-1.037-9.686,2.96,2.96,0,0,1,1.4-8.613l.105-.9h2.3V-.316a4.064,4.064,0,0,1-.567,2.171,3.641,3.641,0,0,1-1.6,1.406,5.608,5.608,0,0,1-2.408.483A5.215,5.215,0,0,1-2.8,3.327a3.619,3.619,0,0,1-1.5-1.077L-3.182.7a2.975,2.975,0,0,0,2.3,1.063A2.178,2.178,0,0,0,.694,1.226,2.027,2.027,0,0,0,1.257-.308v-.51A2.938,2.938,0,0,1-1.055.176a3.366,3.366,0,0,1-2.773-1.34A5.572,5.572,0,0,1-4.887-4.72Zm2.54.185a3.461,3.461,0,0,0,.519,2.026A1.65,1.65,0,0,0-.4-1.881a1.764,1.764,0,0,0,1.661-.87v-4A1.76,1.76,0,0,0-.387-7.62a1.661,1.661,0,0,0-1.437.747A3.9,3.9,0,0,0-2.347-4.641ZM11.1-7.128a6.9,6.9,0,0,0-.914-.07,1.86,1.86,0,0,0-1.89.976V0H5.757V-9.51h2.4l.07,1.134a2.354,2.354,0,0,1,2.118-1.31,2.662,2.662,0,0,1,.791.114ZM17.569,0a2.821,2.821,0,0,1-.255-.853,3.073,3.073,0,0,1-2.4,1.028A3.376,3.376,0,0,1,12.6-.633a2.6,2.6,0,0,1-.918-2.039A2.687,2.687,0,0,1,12.8-4.992,5.529,5.529,0,0,1,16.04-5.81h1.169v-.545a1.567,1.567,0,0,0-.338-1.055A1.331,1.331,0,0,0,15.8-7.8,1.513,1.513,0,0,0,14.8-7.5a1.045,1.045,0,0,0-.365.844h-2.54a2.551,2.551,0,0,1,.51-1.529,3.37,3.37,0,0,1,1.441-1.1,5.253,5.253,0,0,1,2.092-.4,4.15,4.15,0,0,1,2.791.883,3.09,3.09,0,0,1,1.033,2.483V-2.2a4.546,4.546,0,0,0,.378,2.048V0Zm-2.1-1.767a2.188,2.188,0,0,0,1.037-.25,1.645,1.645,0,0,0,.7-.672V-4.324H16.26q-1.907,0-2.03,1.318l-.009.149a1.017,1.017,0,0,0,.334.782A1.3,1.3,0,0,0,15.469-1.767ZM24.091-9.51l.079,1.063A3.342,3.342,0,0,1,26.9-9.686a2.536,2.536,0,0,1,2.522,1.45,3.265,3.265,0,0,1,2.856-1.45,2.836,2.836,0,0,1,2.3.9,4.141,4.141,0,0,1,.756,2.711V0H32.792V-6.064a1.811,1.811,0,0,0-.316-1.182,1.4,1.4,0,0,0-1.116-.374,1.585,1.585,0,0,0-1.582,1.09L29.786,0h-2.54V-6.056a1.789,1.789,0,0,0-.325-1.2,1.416,1.416,0,0,0-1.107-.369,1.646,1.646,0,0,0-1.564.9V0h-2.54V-9.51ZM42.8,0a2.821,2.821,0,0,1-.255-.853,3.073,3.073,0,0,1-2.4,1.028,3.376,3.376,0,0,1-2.316-.809,2.6,2.6,0,0,1-.918-2.039,2.687,2.687,0,0,1,1.121-2.32,5.529,5.529,0,0,1,3.239-.817h1.169v-.545A1.567,1.567,0,0,0,42.1-7.409a1.331,1.331,0,0,0-1.068-.4A1.513,1.513,0,0,0,40.03-7.5a1.045,1.045,0,0,0-.365.844h-2.54a2.551,2.551,0,0,1,.51-1.529,3.37,3.37,0,0,1,1.441-1.1,5.253,5.253,0,0,1,2.092-.4,4.15,4.15,0,0,1,2.791.883,3.09,3.09,0,0,1,1.033,2.483V-2.2a4.546,4.546,0,0,0,.378,2.048V0ZM40.7-1.767a2.188,2.188,0,0,0,1.037-.25,1.645,1.645,0,0,0,.7-.672V-4.324h-.949q-1.907,0-2.03,1.318l-.009.149a1.017,1.017,0,0,0,.334.782A1.3,1.3,0,0,0,40.7-1.767ZM59.291-5.546H54.229v3.428H60.17V0H51.592V-12.8h8.561v2.136H54.229v3.05h5.063Zm4.6-3.964.079,1.1A3.32,3.32,0,0,1,66.7-9.686a2.759,2.759,0,0,1,2.25.888,4.142,4.142,0,0,1,.756,2.654V0h-2.54V-6.082a1.648,1.648,0,0,0-.352-1.173,1.574,1.574,0,0,0-1.169-.365,1.747,1.747,0,0,0-1.608.914V0H61.5V-9.51Zm10.784-2.338V-9.51H76.3v1.863H74.672V-2.9a1.133,1.133,0,0,0,.2.756,1.015,1.015,0,0,0,.773.229,4.051,4.051,0,0,0,.747-.062V-.053a5.229,5.229,0,0,1-1.538.229,2.425,2.425,0,0,1-2.725-2.7V-7.646H70.743V-9.51h1.389v-2.338ZM80.394,0H77.845V-9.51h2.549ZM77.7-11.971a1.251,1.251,0,0,1,.382-.94,1.436,1.436,0,0,1,1.042-.369,1.44,1.44,0,0,1,1.037.369,1.244,1.244,0,0,1,.387.94,1.247,1.247,0,0,1-.391.949,1.443,1.443,0,0,1-1.033.369,1.443,1.443,0,0,1-1.033-.369A1.247,1.247,0,0,1,77.7-11.971ZM82.09-4.825a5.731,5.731,0,0,1,1-3.542,3.237,3.237,0,0,1,2.729-1.318A2.913,2.913,0,0,1,88.11-8.648V-13.5h2.549V0H88.365l-.123-1.011A2.989,2.989,0,0,1,85.8.176,3.228,3.228,0,0,1,83.1-1.147,5.916,5.916,0,0,1,82.09-4.825Zm2.54.185A3.744,3.744,0,0,0,85.1-2.593a1.518,1.518,0,0,0,1.354.712,1.7,1.7,0,0,0,1.661-.993V-6.627a1.676,1.676,0,0,0-1.644-.993Q84.63-7.62,84.63-4.641ZM98.139,0a2.821,2.821,0,0,1-.255-.853,3.073,3.073,0,0,1-2.4,1.028,3.376,3.376,0,0,1-2.316-.809,2.6,2.6,0,0,1-.918-2.039,2.687,2.687,0,0,1,1.121-2.32,5.529,5.529,0,0,1,3.239-.817h1.169v-.545a1.567,1.567,0,0,0-.338-1.055,1.331,1.331,0,0,0-1.068-.4,1.513,1.513,0,0,0-1.006.308A1.045,1.045,0,0,0,95-6.653h-2.54a2.551,2.551,0,0,1,.51-1.529,3.37,3.37,0,0,1,1.441-1.1,5.253,5.253,0,0,1,2.092-.4,4.15,4.15,0,0,1,2.791.883,3.09,3.09,0,0,1,1.033,2.483V-2.2a4.546,4.546,0,0,0,.378,2.048V0Zm-2.1-1.767a2.188,2.188,0,0,0,1.037-.25,1.645,1.645,0,0,0,.7-.672V-4.324h-.949q-1.907,0-2.03,1.318l-.009.149a1.017,1.017,0,0,0,.334.782A1.3,1.3,0,0,0,96.038-1.767Zm5.845-3.059a5.731,5.731,0,0,1,1-3.542,3.237,3.237,0,0,1,2.729-1.318A2.913,2.913,0,0,1,107.9-8.648V-13.5h2.549V0h-2.294l-.123-1.011A2.989,2.989,0,0,1,105.592.176,3.228,3.228,0,0,1,102.9-1.147,5.916,5.916,0,0,1,101.883-4.825Zm2.54.185a3.744,3.744,0,0,0,.466,2.048,1.518,1.518,0,0,0,1.354.712,1.7,1.7,0,0,0,1.661-.993V-6.627a1.676,1.676,0,0,0-1.644-.993Q104.423-7.62,104.423-4.641Zm12.938.185h-4.948V-6.5h4.948Zm6.943-.229h-2.1V0h-2.637V-12.8h4.755a5.375,5.375,0,0,1,3.5,1.011,3.488,3.488,0,0,1,1.23,2.856,3.937,3.937,0,0,1-.567,2.184,3.866,3.866,0,0,1-1.718,1.393l2.769,5.229V0H126.7ZM122.2-6.82h2.127a2.178,2.178,0,0,0,1.538-.505,1.806,1.806,0,0,0,.545-1.393,1.933,1.933,0,0,0-.514-1.424,2.137,2.137,0,0,0-1.578-.519H122.2Zm13.061,7a4.668,4.668,0,0,1-3.406-1.283,4.561,4.561,0,0,1-1.314-3.419v-.246a5.745,5.745,0,0,1,.554-2.562,4.064,4.064,0,0,1,1.569-1.74,4.4,4.4,0,0,1,2.316-.611,3.947,3.947,0,0,1,3.072,1.23,5,5,0,0,1,1.121,3.489v1.037h-6.056a2.36,2.36,0,0,0,.743,1.494,2.245,2.245,0,0,0,1.569.563,2.742,2.742,0,0,0,2.294-1.063l1.248,1.4a3.813,3.813,0,0,1-1.547,1.261A5.075,5.075,0,0,1,135.264.176Zm-.29-7.8a1.591,1.591,0,0,0-1.226.51,2.634,2.634,0,0,0-.6,1.459h3.533v-.2a1.878,1.878,0,0,0-.457-1.305A1.642,1.642,0,0,0,134.974-7.629ZM143.3,0h-2.549V-13.5H143.3Zm7.6,0a2.821,2.821,0,0,1-.255-.853,3.073,3.073,0,0,1-2.4,1.028,3.376,3.376,0,0,1-2.316-.809,2.6,2.6,0,0,1-.918-2.039,2.687,2.687,0,0,1,1.121-2.32,5.529,5.529,0,0,1,3.239-.817h1.169v-.545a1.567,1.567,0,0,0-.338-1.055,1.331,1.331,0,0,0-1.068-.4,1.513,1.513,0,0,0-1.006.308,1.045,1.045,0,0,0-.365.844h-2.54a2.551,2.551,0,0,1,.51-1.529,3.37,3.37,0,0,1,1.441-1.1,5.253,5.253,0,0,1,2.092-.4,4.15,4.15,0,0,1,2.791.883,3.09,3.09,0,0,1,1.033,2.483V-2.2a4.546,4.546,0,0,0,.378,2.048V0Zm-2.1-1.767a2.188,2.188,0,0,0,1.037-.25,1.645,1.645,0,0,0,.7-.672V-4.324h-.949q-1.907,0-2.03,1.318l-.009.149a1.017,1.017,0,0,0,.334.782A1.3,1.3,0,0,0,148.8-1.767Zm10.2-.105a1.666,1.666,0,0,0,1.143-.387,1.355,1.355,0,0,0,.457-1.028h2.382a3.258,3.258,0,0,1-.527,1.771,3.48,3.48,0,0,1-1.419,1.248,4.442,4.442,0,0,1-1.991.444,4.129,4.129,0,0,1-3.217-1.3A5.13,5.13,0,0,1,154.644-4.7v-.167a5.071,5.071,0,0,1,1.169-3.507,4.08,4.08,0,0,1,3.208-1.31,4,4,0,0,1,2.861,1.015,3.594,3.594,0,0,1,1.094,2.7h-2.382a1.731,1.731,0,0,0-.457-1.2,1.528,1.528,0,0,0-1.16-.461,1.531,1.531,0,0,0-1.34.646,3.739,3.739,0,0,0-.453,2.1v.264a3.786,3.786,0,0,0,.448,2.109A1.55,1.55,0,0,0,158.994-1.872ZM167.106,0h-2.549V-9.51h2.549Zm-2.7-11.971a1.251,1.251,0,0,1,.382-.94,1.436,1.436,0,0,1,1.042-.369,1.44,1.44,0,0,1,1.037.369,1.244,1.244,0,0,1,.387.94,1.247,1.247,0,0,1-.391.949,1.443,1.443,0,0,1-1.033.369,1.443,1.443,0,0,1-1.033-.369A1.247,1.247,0,0,1,164.408-11.971ZM168.8-4.843a5.64,5.64,0,0,1,.545-2.522,3.989,3.989,0,0,1,1.569-1.714,4.577,4.577,0,0,1,2.377-.606,4.33,4.33,0,0,1,3.142,1.178,4.727,4.727,0,0,1,1.358,3.2l.018.65a4.97,4.97,0,0,1-1.222,3.511A4.247,4.247,0,0,1,173.312.176a4.268,4.268,0,0,1-3.283-1.318A5.058,5.058,0,0,1,168.8-4.729Zm2.54.185a3.545,3.545,0,0,0,.51,2.07,1.682,1.682,0,0,0,1.459.716,1.686,1.686,0,0,0,1.441-.708,3.879,3.879,0,0,0,.519-2.263,3.51,3.51,0,0,0-.519-2.057,1.686,1.686,0,0,0-1.459-.729,1.659,1.659,0,0,0-1.441.725A3.944,3.944,0,0,0,171.343-4.658Zm2.452-8.842h2.769l-2.435,2.725h-2.065Zm7.919,3.99.079,1.1a3.32,3.32,0,0,1,2.733-1.274,2.759,2.759,0,0,1,2.25.888,4.142,4.142,0,0,1,.756,2.654V0h-2.54V-6.082a1.648,1.648,0,0,0-.352-1.173,1.574,1.574,0,0,0-1.169-.365,1.747,1.747,0,0,0-1.608.914V0h-2.54V-9.51Z" transform="translate(821.911 1698)" fill="#fff"/>
      </g>
    </g>
  </g>
</svg>
