<svg id="Grupo_1022839" data-name="Grupo 1022839" xmlns="http://www.w3.org/2000/svg" xmlns:xlink="http://www.w3.org/1999/xlink" width="85" height="72.683" viewBox="0 0 85 72.683">
  <defs>
    <filter id="Trazado_741789" x="8" y="3" width="69.683" height="69.683" filterUnits="userSpaceOnUse">
      <feOffset dy="3" input="SourceAlpha"/>
      <feGaussianBlur stdDeviation="3" result="blur"/>
      <feFlood flood-opacity="0.161"/>
      <feComposite operator="in" in2="blur"/>
      <feComposite in="SourceGraphic"/>
    </filter>
  </defs>
  <g id="Grupo_1022461" data-name="Grupo 1022461">
    <rect id="Rectángulo_345292" data-name="Rectángulo 345292" width="85" height="70" rx="5" fill="#55789e"/>
    <g id="Grupo_1019762" data-name="Grupo 1019762" transform="translate(17 9)">
      <g id="Grupo_1019745" data-name="Grupo 1019745" transform="translate(0 0)">
        <g id="Grupo_1003705" data-name="Grupo 1003705">
          <g transform="matrix(1, 0, 0, 1, -17, -9)" filter="url(#Trazado_741789)">
            <path id="Trazado_741789-2" data-name="Trazado 741789" d="M25.841,0A25.841,25.841,0,1,1,0,25.841,25.841,25.841,0,0,1,25.841,0Z" transform="translate(17 9)" fill="#274768"/>
          </g>
        </g>
      </g>
    </g>
  </g>
  <g id="programador_5_" data-name="programador (5)" transform="translate(18.246 13.346)">
    <path id="Trazado_734738" data-name="Trazado 734738" d="M104.021,264.667l-5.578-1.6a2.14,2.14,0,0,1-1.552-2.058V258H91.035v3.012a2.14,2.14,0,0,1-1.552,2.058l-5.578,1.6a6.321,6.321,0,0,0-4.582,6.077v5.84H108.6v-5.84A6.321,6.321,0,0,0,104.021,264.667Z" transform="translate(-71.808 -233.558)" fill="#ffb09e"/>
    <g id="Grupo_1019849" data-name="Grupo 1019849" transform="translate(9.955 11.952)">
      <path id="Trazado_734739" data-name="Trazado 734739" d="M109.988,129.628c0,1.923-1.174,3.482-2.621,3.482s-2.289-1.791-2.289-3.714.841-3.251,2.289-3.251S109.988,127.705,109.988,129.628Z" transform="translate(-105.078 -126.146)" fill="#ffb09e"/>
      <path id="Trazado_734740" data-name="Trazado 734740" d="M310.8,129.628c0,1.923,1.174,3.482,2.621,3.482s2.289-1.791,2.289-3.714-.841-3.251-2.289-3.251S310.8,127.705,310.8,129.628Z" transform="translate(-291.306 -126.146)" fill="#ffb09e"/>
    </g>
    <path id="Trazado_734741" data-name="Trazado 734741" d="M144.358,47.7V41.935a8.479,8.479,0,1,1,16.958,0v5.738a8.479,8.479,0,0,1-16.958.032Z" transform="translate(-130.681 -30.286)" fill="#ffcebf"/>
    <path id="Trazado_734742" data-name="Trazado 734742" d="M219.722,33.456a8.53,8.53,0,0,0-1.464.126,8.481,8.481,0,0,1,7.015,8.353v5.738a8.5,8.5,0,0,1-7.029,8.368,8.5,8.5,0,0,0,9.957-8.368V41.935a8.479,8.479,0,0,0-8.479-8.479Z" transform="translate(-197.566 -30.286)" fill="#ffb09e"/>
    <path id="Trazado_734749" data-name="Trazado 734749" d="M149.646,13.477a10.273,10.273,0,0,0-.431,2.115s-1.956-1.456-1.9-2.011c.093-.885.605-6.323-1.631-5.809a19.67,19.67,0,0,1-5.026.884,19.663,19.663,0,0,1-5.025-.884c-2.237-.513-1.724,4.924-1.631,5.809.059.554-1.748,2.006-1.748,2.006a14.78,14.78,0,0,0-.582-2.11c-.177-.38-1.7-4.984.462-8.332a1.32,1.32,0,0,0,.213-.685,3.453,3.453,0,0,1,1.15-2.531c1.892-1.746,11.1-.771,14.721-1.911a.393.393,0,0,1,.5.28A10.922,10.922,0,0,1,149,4.213a.776.776,0,0,0,.138.584c2.42,3.3.781,8.1.51,8.68Z" transform="translate(-118.58 0.001)" fill="#ae6c6c"/>
    <g id="Grupo_1019852" data-name="Grupo 1019852" transform="translate(27.252 0)">
      <path id="Trazado_734750" data-name="Trazado 734750" d="M290.947,4.8a.776.776,0,0,1-.138-.584A10.922,10.922,0,0,0,290.536.3a.393.393,0,0,0-.5-.28,12.617,12.617,0,0,1-2.39.435,10.7,10.7,0,0,1,.237,3.761.776.776,0,0,0,.138.584,8.177,8.177,0,0,1,1.207,5.892,19.954,19.954,0,0,1-.1,2.893c-.059.554,1.9,2.011,1.9,2.011a10.272,10.272,0,0,1,.431-2.115c.27-.581,1.909-5.377-.51-8.68Z" transform="translate(-287.644 0)" fill="#9b5e5e"/>
    </g>
    <path id="Trazado_734751" data-name="Trazado 734751" d="M100.255,314.992v7.451a1.171,1.171,0,0,1-1.171,1.171H70.193a1.171,1.171,0,0,1-1.171-1.171v-7.451a6.6,6.6,0,0,1,4.62-6.293l6.261-1.966a.418.418,0,0,1,.533.3c.287,1.239,1.338,4.656,4.2,4.656s3.916-3.416,4.2-4.656a.418.418,0,0,1,.533-.3l6.261,1.966A6.6,6.6,0,0,1,100.255,314.992Z" transform="translate(-62.483 -277.653)" fill="#64b2ff"/>
    <g id="Grupo_1019853" data-name="Grupo 1019853" transform="translate(26.253 29.059)">
      <path id="Trazado_734752" data-name="Trazado 734752" d="M284,308.7l-6.261-1.966a.418.418,0,0,0-.533.3c-.028.12-.063.26-.106.416l3.971,1.247a6.6,6.6,0,0,1,4.62,6.293v7.451c0,.647-.524.4-1.171.4l2.928.771a1.171,1.171,0,0,0,1.171-1.171v-7.451A6.6,6.6,0,0,0,284,308.7Z" transform="translate(-277.096 -306.712)" fill="#368ee6"/>
    </g>
    <path id="Trazado_734753" data-name="Trazado 734753" d="M42.349,480.292H1.962A1.962,1.962,0,0,1,0,478.33v-.571a.786.786,0,0,1,.786-.786h42.74a.786.786,0,0,1,.786.786v.571A1.962,1.962,0,0,1,42.349,480.292Z" transform="translate(0 -431.784)" fill="#dcdcdc"/>
    <path id="Trazado_734754" data-name="Trazado 734754" d="M420.192,476.974h-2.928a.786.786,0,0,1,.785.786v.571a1.962,1.962,0,0,1-1.962,1.962h2.928a1.962,1.962,0,0,0,1.962-1.962v-.571A.786.786,0,0,0,420.192,476.974Z" transform="translate(-376.666 -431.784)" fill="#ccc"/>
    <path id="Trazado_734755" data-name="Trazado 734755" d="M104.363,447.131h-3.514v-3.123h3.514a1.562,1.562,0,0,1,0,3.123Z" transform="translate(-91.294 -401.941)" fill="#ffb09e"/>
    <path id="Trazado_734756" data-name="Trazado 734756" d="M30.18,425.536v1.409a1.276,1.276,0,0,1-1.277,1.277H22.477a1.277,1.277,0,0,1-1.277-1.277v-1.409a2.417,2.417,0,0,1,2.417-2.416h4.147a2.416,2.416,0,0,1,2.416,2.416Z" transform="translate(-19.191 -383.032)" fill="#ffcebf"/>
    <path id="Trazado_734757" data-name="Trazado 734757" d="M62.5,423.118H59.572a2.416,2.416,0,0,1,2.416,2.416v1.409a1.277,1.277,0,0,1-1.277,1.277h2.928a1.277,1.277,0,0,0,1.277-1.277v-1.409A2.416,2.416,0,0,0,62.5,423.118Z" transform="translate(-53.928 -383.031)" fill="#ffb09e"/>
    <g id="Grupo_1019854" data-name="Grupo 1019854" transform="translate(4.45 42.852)">
      <path id="Trazado_734758" data-name="Trazado 734758" d="M48.391,453.011v1.627H46.97v-1.627a.711.711,0,0,1,1.421,0Z" transform="translate(-46.97 -452.3)" fill="#f89580"/>
      <path id="Trazado_734759" data-name="Trazado 734759" d="M78.261,453.011v1.627H76.84v-1.627a.711.711,0,0,1,1.421,0Z" transform="translate(-74.01 -452.3)" fill="#f89580"/>
    </g>
    <path id="Trazado_734760" data-name="Trazado 734760" d="M314.845,447.131h3.514v-3.123h-3.514a1.562,1.562,0,0,0,0,3.123Z" transform="translate(-283.602 -401.941)" fill="#ffb09e"/>
    <path id="Trazado_734761" data-name="Trazado 734761" d="M360.7,425.536v1.409a1.277,1.277,0,0,1-1.277,1.277H353a1.277,1.277,0,0,1-1.277-1.277v-1.409a2.416,2.416,0,0,1,2.416-2.416h4.148A2.416,2.416,0,0,1,360.7,425.536Z" transform="translate(-318.397 -383.032)" fill="#ffcebf"/>
    <path id="Trazado_734762" data-name="Trazado 734762" d="M393.018,423.118H390.09a2.416,2.416,0,0,1,2.416,2.416v1.409a1.277,1.277,0,0,1-1.277,1.277h2.928a1.277,1.277,0,0,0,1.277-1.277v-1.409A2.416,2.416,0,0,0,393.018,423.118Z" transform="translate(-353.132 -383.031)" fill="#ffb09e"/>
    <g id="Grupo_1019855" data-name="Grupo 1019855" transform="translate(35.61 42.852)">
      <path id="Trazado_734763" data-name="Trazado 734763" d="M407.151,453.011v1.627H405.73v-1.627a.711.711,0,0,1,1.421,0Z" transform="translate(-402.9 -452.3)" fill="#f89580"/>
      <path id="Trazado_734764" data-name="Trazado 734764" d="M377.281,453.011v1.627H375.86v-1.627a.711.711,0,0,1,1.421,0Z" transform="translate(-375.86 -452.3)" fill="#f89580"/>
    </g>
    <path id="Trazado_734765" data-name="Trazado 734765" d="M363.181,68.309V87.564a2.093,2.093,0,0,1-2.1,2.085H353.47a2.093,2.093,0,0,1-2.1-2.085V85.4a.43.43,0,0,0-.192-.358L347.7,82.729a.214.214,0,0,1,0-.356l3.475-2.315a.43.43,0,0,0,.192-.358V68.309a2.093,2.093,0,0,1,2.1-2.085h7.609a2.093,2.093,0,0,1,2.1,2.085Z" transform="translate(-314.672 -59.95)" fill="#eaf6ff"/>
    <path id="Trazado_734766" data-name="Trazado 734766" d="M461.844,66.224h-2.928a2.093,2.093,0,0,1,2.1,2.085V87.564a2.093,2.093,0,0,1-2.1,2.085h2.928a2.093,2.093,0,0,0,2.1-2.085V68.309A2.093,2.093,0,0,0,461.844,66.224Z" transform="translate(-415.437 -59.95)" fill="#d8ecfe"/>
    <g id="Grupo_1019856" data-name="Grupo 1019856" transform="translate(39.488 9.885)">
      <path id="Trazado_734767" data-name="Trazado 734767" d="M417.5,105.752h1.543a.711.711,0,0,0,0-1.421H417.5a.711.711,0,1,0,0,1.421Z" transform="translate(-416.789 -104.331)" fill="#3692bc"/>
      <path id="Trazado_734768" data-name="Trazado 734768" d="M417.5,130.477h4.666a.711.711,0,0,0,0-1.421H417.5a.711.711,0,1,0,0,1.421Z" transform="translate(-416.789 -126.713)" fill="#3692bc"/>
      <path id="Trazado_734769" data-name="Trazado 734769" d="M422.165,153.78H417.5a.711.711,0,1,0,0,1.421h4.666a.711.711,0,1,0,0-1.421Z" transform="translate(-416.789 -149.095)" fill="#3692bc"/>
      <path id="Trazado_734770" data-name="Trazado 734770" d="M417.5,202.379h1.543a.711.711,0,0,0,0-1.421H417.5a.711.711,0,1,0,0,1.421Z" transform="translate(-416.789 -191.803)" fill="#3692bc"/>
      <path id="Trazado_734771" data-name="Trazado 734771" d="M422.165,225.683H417.5a.711.711,0,1,0,0,1.421h4.666a.711.711,0,0,0,0-1.421Z" transform="translate(-416.789 -214.186)" fill="#3692bc"/>
      <path id="Trazado_734772" data-name="Trazado 734772" d="M422.165,250.407H417.5a.711.711,0,1,0,0,1.421h4.666a.711.711,0,0,0,0-1.421Z" transform="translate(-416.789 -236.567)" fill="#3692bc"/>
    </g>
    <g id="Grupo_1019857" data-name="Grupo 1019857" transform="translate(15.868 35.56)">
      <path id="Trazado_734773" data-name="Trazado 734773" d="M171.228,388.733a.71.71,0,0,0-1-.091l-2.492,2.076a.711.711,0,0,0,0,1.092l2.492,2.076a.711.711,0,0,0,.91-1.092l-1.837-1.53,1.837-1.53A.711.711,0,0,0,171.228,388.733Z" transform="translate(-167.48 -387.231)" fill="#eaf6ff"/>
      <path id="Trazado_734774" data-name="Trazado 734774" d="M266.59,390.718l-2.492-2.076a.711.711,0,0,0-.91,1.092l1.837,1.53-1.837,1.53a.711.711,0,0,0,.91,1.092l2.492-2.076a.711.711,0,0,0,0-1.092Z" transform="translate(-253.889 -387.231)" fill="#eaf6ff"/>
      <path id="Trazado_734775" data-name="Trazado 734775" d="M217.5,375.381a.711.711,0,0,0-.929.383l-2.768,6.644a.711.711,0,1,0,1.312.547l2.768-6.644a.711.711,0,0,0-.383-.929Z" transform="translate(-209.36 -375.326)" fill="#eaf6ff"/>
    </g>
    <path id="Trazado_734776" data-name="Trazado 734776" d="M9.245,233.167H.515A.515.515,0,0,1,0,232.652V217.09a.515.515,0,0,1,.515-.515h8.73a.515.515,0,0,1,.515.515v15.562A.515.515,0,0,1,9.245,233.167Z" transform="translate(0 -196.056)" fill="#fdb441"/>
    <path id="Trazado_734777" data-name="Trazado 734777" d="M69.6,216.575H66.676a.515.515,0,0,1,.515.515v15.562a.515.515,0,0,1-.515.515H69.6a.515.515,0,0,0,.515-.515V217.09A.515.515,0,0,0,69.6,216.575Z" transform="translate(-60.359 -196.056)" fill="#fe9738"/>
    <g id="Grupo_1019858" data-name="Grupo 1019858" transform="translate(2.056 23.029)">
      <path id="Trazado_734778" data-name="Trazado 734778" d="M22.412,244.492h2.408a.711.711,0,0,0,0-1.421H22.412a.711.711,0,0,0,0,1.421Z" transform="translate(-21.701 -243.071)" fill="#eaf6ff"/>
      <path id="Trazado_734779" data-name="Trazado 734779" d="M24.819,343.342H22.412a.711.711,0,0,0,0,1.421h2.408a.711.711,0,0,0,0-1.421Z" transform="translate(-21.701 -333.842)" fill="#eaf6ff"/>
      <path id="Trazado_734780" data-name="Trazado 734780" d="M22.412,269.56h4.066a.711.711,0,0,0,0-1.421H22.412a.711.711,0,0,0,0,1.421Z" transform="translate(-21.701 -265.764)" fill="#eaf6ff"/>
      <path id="Trazado_734781" data-name="Trazado 734781" d="M26.477,293.207H22.412a.711.711,0,0,0,0,1.421h4.066a.711.711,0,0,0,0-1.421Z" transform="translate(-21.701 -288.457)" fill="#eaf6ff"/>
    </g>
  </g>
</svg>
