<svg xmlns="http://www.w3.org/2000/svg" xmlns:xlink="http://www.w3.org/1999/xlink" width="838" height="355" viewBox="0 0 838 355">
  <defs>
    <filter id="_1" x="0" y="0" width="838" height="355" filterUnits="userSpaceOnUse">
      <feOffset dy="3" input="SourceAlpha"/>
      <feGaussianBlur stdDeviation="3" result="blur"/>
      <feFlood flood-opacity="0.161"/>
      <feComposite operator="in" in2="blur"/>
      <feComposite in="SourceGraphic"/>
    </filter>
    <filter id="Trazado_741098" x="497.376" y="155.495" width="149.562" height="104.24" filterUnits="userSpaceOnUse">
      <feOffset dy="8" input="SourceAlpha"/>
      <feGaussianBlur stdDeviation="3" result="blur-2"/>
      <feFlood flood-opacity="0.278"/>
      <feComposite operator="in" in2="blur-2"/>
      <feComposite in="SourceGraphic"/>
    </filter>
    <filter id="Trazado_741177" x="676.926" y="146.883" width="109.175" height="109.181" filterUnits="userSpaceOnUse">
      <feOffset dy="3" input="SourceAlpha"/>
      <feGaussianBlur stdDeviation="3" result="blur-3"/>
      <feFlood flood-opacity="0.161"/>
      <feComposite operator="in" in2="blur-3"/>
      <feComposite in="SourceGraphic"/>
    </filter>
    <clipPath id="clip-path">
      <path id="Trazado_741199" data-name="Trazado 741199" d="M238.995,589.917a45.587,45.587,0,1,1-45.587-45.587A45.591,45.591,0,0,1,238.995,589.917Z" transform="translate(-147.82 -544.33)" fill="#8fc7ff" opacity="0.45"/>
    </clipPath>
    <clipPath id="clip-path-2">
      <path id="Trazado_741189" data-name="Trazado 741189" d="M39.02,24.391c-.291-1.692,3.521-7.275,4.586-8.477,3.653-4.139,10.438-3.5,15.107-5.843,1.551-.78,3.781-3.558,5.268-2.756,1.551.838,6.865.716,8.606,4.362,1.19,2.493-1.7,6.807-3.1,9.618a57.23,57.23,0,0,1-5.207,8.578,39.061,39.061,0,0,1-10.267,9.912A23.7,23.7,0,0,1,35.7,43.135c-4.369-1.04-10.585-5.733-13.8-8.508a66.419,66.419,0,0,1-8.621-8.756,50.346,50.346,0,0,1-3.946-5.739c-1-1.7-.012-3.185-.783-5.176-.554-1.429-.86-2.808-.147-3.515,2.616-2.585,7.146-3.46,7.618-3.191,10.438,5.917,21.164,3.607,23,16.141h0Z" transform="translate(-7.99 -7.17)" fill="#fff7e2"/>
    </clipPath>
    <clipPath id="clip-path-3">
      <path id="Trazado_741197" data-name="Trazado 741197" d="M4.306,13.653,3.67,70.5,30.438,86.83c3.861,2.484,6.813,2.178,10.557,0l28.509-15.5L70.649,13.05,40.558,31.574a9.2,9.2,0,0,1-9.352,0L4.306,13.653Z" transform="translate(-3.67 -13.05)" fill="#eeb92d"/>
    </clipPath>
    <filter id="Trazado_772774" x="363" y="261.705" width="172.094" height="70.116" filterUnits="userSpaceOnUse">
      <feOffset dy="8" input="SourceAlpha"/>
      <feGaussianBlur stdDeviation="3" result="blur-4"/>
      <feFlood flood-opacity="0.278"/>
      <feComposite operator="in" in2="blur-4"/>
      <feComposite in="SourceGraphic"/>
    </filter>
    <filter id="Trazado_772775" x="645" y="261.705" width="172.094" height="70.116" filterUnits="userSpaceOnUse">
      <feOffset dy="8" input="SourceAlpha"/>
      <feGaussianBlur stdDeviation="3" result="blur-5"/>
      <feFlood flood-opacity="0.278"/>
      <feComposite operator="in" in2="blur-5"/>
      <feComposite in="SourceGraphic"/>
    </filter>
    <filter id="Trazado_772778" x="362.699" y="89.116" width="172.094" height="70.116" filterUnits="userSpaceOnUse">
      <feOffset dy="8" input="SourceAlpha"/>
      <feGaussianBlur stdDeviation="3" result="blur-6"/>
      <feFlood flood-opacity="0.278"/>
      <feComposite operator="in" in2="blur-6"/>
      <feComposite in="SourceGraphic"/>
    </filter>
    <filter id="Trazado_772780" x="645" y="69.705" width="172.094" height="70.116" filterUnits="userSpaceOnUse">
      <feOffset dy="8" input="SourceAlpha"/>
      <feGaussianBlur stdDeviation="3" result="blur-7"/>
      <feFlood flood-opacity="0.278"/>
      <feComposite operator="in" in2="blur-7"/>
      <feComposite in="SourceGraphic"/>
    </filter>
    <filter id="Trazado_772783" x="191.35" y="33" width="172.094" height="70.116" filterUnits="userSpaceOnUse">
      <feOffset dy="8" input="SourceAlpha"/>
      <feGaussianBlur stdDeviation="3" result="blur-8"/>
      <feFlood flood-opacity="0.278"/>
      <feComposite operator="in" in2="blur-8"/>
      <feComposite in="SourceGraphic"/>
    </filter>
    <filter id="Trazado_740037" x="195.81" y="120.917" width="163.173" height="163.182" filterUnits="userSpaceOnUse">
      <feOffset dy="3" input="SourceAlpha"/>
      <feGaussianBlur stdDeviation="3" result="blur-9"/>
      <feFlood flood-opacity="0.161"/>
      <feComposite operator="in" in2="blur-9"/>
      <feComposite in="SourceGraphic"/>
    </filter>
    <filter id="Trazado_772785" x="20" y="89.115" width="172.094" height="70.116" filterUnits="userSpaceOnUse">
      <feOffset dy="8" input="SourceAlpha"/>
      <feGaussianBlur stdDeviation="3" result="blur-10"/>
      <feFlood flood-opacity="0.278"/>
      <feComposite operator="in" in2="blur-10"/>
      <feComposite in="SourceGraphic"/>
    </filter>
    <filter id="Trazado_772787" x="21" y="261.705" width="172.094" height="70.116" filterUnits="userSpaceOnUse">
      <feOffset dy="8" input="SourceAlpha"/>
      <feGaussianBlur stdDeviation="3" result="blur-11"/>
      <feFlood flood-opacity="0.278"/>
      <feComposite operator="in" in2="blur-11"/>
      <feComposite in="SourceGraphic"/>
    </filter>
  </defs>
  <g id="_4" data-name="4" transform="translate(-381 -1624)">
    <g transform="matrix(1, 0, 0, 1, 381, 1624)" filter="url(#_1)">
      <path id="_1-2" data-name="1" d="M10,0H810a10,10,0,0,1,10,10V337H0V10A10,10,0,0,1,10,0Z" transform="translate(9 6)" fill="#f2f8fd"/>
    </g>
    <path id="Trazado_741173" data-name="Trazado 741173" d="M5606.494-9950.694l-15.679,43.054h-35.558" transform="translate(-5000.378 11820.597)" fill="none" stroke="#12263f" stroke-width="1.5"/>
    <path id="Trazado_741202" data-name="Trazado 741202" d="M5606.494-9907.642l-15.679-43.054h-35.558" transform="translate(-5000.378 11690.869)" fill="none" stroke="#12263f" stroke-width="1.5"/>
    <path id="Trazado_741203" data-name="Trazado 741203" d="M5555.258-9907.642l15.679-43.054h35.558" transform="translate(-4847.361 11690.869)" fill="none" stroke="#12263f" stroke-width="1.5"/>
    <path id="Trazado_741174" data-name="Trazado 741174" d="M5555.258-9950.694l15.679,43.054h35.558" transform="translate(-4847.361 11820.597)" fill="none" stroke="#12263f" stroke-width="1.5"/>
    <path id="Trazado_741095" data-name="Trazado 741095" d="M2923.117-7904.262h430.338" transform="translate(-2225.765 9727.876)" fill="none" stroke="#12263f" stroke-width="1.5"/>
    <path id="Trazado_741176" data-name="Trazado 741176" d="M0,0H193.97" transform="translate(1112.513 1730.537) rotate(90)" fill="none" stroke="#12263f" stroke-width="1.5"/>
    <g id="Grupo_1022474" data-name="Grupo 1022474" transform="translate(887.376 1780.494)">
      <g transform="matrix(1, 0, 0, 1, -506.38, -156.49)" filter="url(#Trazado_741098)">
        <path id="Trazado_741098-2" data-name="Trazado 741098" d="M3001.077-7695.035l66.888,43.383,64.674-43.383-64.674-42.857Z" transform="translate(-2494.7 7894.39)" fill="#221b6b"/>
      </g>
      <path id="Trazado_772790" data-name="Trazado 772790" d="M13.25,9.922H8.578v3.5h5.461V15H6.6V3.625h7.383V5.219H8.578V8.359H13.25ZM20.2,12.7a.861.861,0,0,0-.418-.773,4.445,4.445,0,0,0-1.387-.469,7.129,7.129,0,0,1-1.617-.516,2.158,2.158,0,0,1-1.422-1.992,2.25,2.25,0,0,1,.922-1.828,3.644,3.644,0,0,1,2.344-.734,3.792,3.792,0,0,1,2.449.75,2.38,2.38,0,0,1,.934,1.945h-1.9a1.17,1.17,0,0,0-.406-.91,1.557,1.557,0,0,0-1.078-.363,1.682,1.682,0,0,0-1.02.289.911.911,0,0,0-.395.773.769.769,0,0,0,.367.68,5.049,5.049,0,0,0,1.484.488,7.027,7.027,0,0,1,1.754.586,2.484,2.484,0,0,1,.945.816A2.082,2.082,0,0,1,22.07,12.6a2.2,2.2,0,0,1-.945,1.848,4.031,4.031,0,0,1-2.477.707,4.371,4.371,0,0,1-1.852-.375,3.047,3.047,0,0,1-1.266-1.031,2.441,2.441,0,0,1-.453-1.414h1.844a1.338,1.338,0,0,0,.508,1.035,1.973,1.973,0,0,0,1.242.363,1.92,1.92,0,0,0,1.141-.285A.883.883,0,0,0,20.2,12.7Zm6.992.938a1.716,1.716,0,0,0,1.18-.414,1.415,1.415,0,0,0,.5-1.023h1.789a2.789,2.789,0,0,1-.492,1.473,3.228,3.228,0,0,1-1.25,1.082,3.725,3.725,0,0,1-1.7.4,3.6,3.6,0,0,1-2.812-1.148,4.555,4.555,0,0,1-1.039-3.172v-.2A4.479,4.479,0,0,1,24.4,7.551a3.571,3.571,0,0,1,2.813-1.16,3.473,3.473,0,0,1,2.457.879,3.148,3.148,0,0,1,1,2.309H28.875a1.738,1.738,0,0,0-.5-1.2A1.6,1.6,0,0,0,27.2,7.914a1.671,1.671,0,0,0-1.422.668,3.408,3.408,0,0,0-.508,2.027v.3a3.465,3.465,0,0,0,.5,2.051A1.669,1.669,0,0,0,27.2,13.641Zm9.328-5.359a4.7,4.7,0,0,0-.773-.062,1.741,1.741,0,0,0-1.758,1V15h-1.9V6.547h1.813l.047.945a2.139,2.139,0,0,1,1.906-1.1,1.777,1.777,0,0,1,.672.109ZM39.742,15h-1.9V6.547h1.9ZM37.727,4.352A1.008,1.008,0,0,1,38,3.625a1.048,1.048,0,0,1,.793-.289,1.061,1.061,0,0,1,.8.289,1,1,0,0,1,.281.727.977.977,0,0,1-.281.715,1.069,1.069,0,0,1-.8.285A1.056,1.056,0,0,1,38,5.066.984.984,0,0,1,37.727,4.352Zm11.5,6.508a5.078,5.078,0,0,1-.879,3.133,2.863,2.863,0,0,1-2.418,1.164,2.758,2.758,0,0,1-2.312-1.07L43.523,15H41.8V3h1.9V7.359a2.748,2.748,0,0,1,2.211-.969,2.9,2.9,0,0,1,2.43,1.148,5.162,5.162,0,0,1,.883,3.211Zm-1.9-.164a3.589,3.589,0,0,0-.484-2.062,1.613,1.613,0,0,0-1.406-.687A1.763,1.763,0,0,0,43.7,9.023v3.484a1.781,1.781,0,0,0,1.75,1.1,1.6,1.6,0,0,0,1.375-.664,3.477,3.477,0,0,0,.5-2.008ZM52.836,15h-1.9V6.547h1.9ZM50.82,4.352a1.008,1.008,0,0,1,.277-.727,1.048,1.048,0,0,1,.793-.289,1.061,1.061,0,0,1,.8.289,1,1,0,0,1,.281.727.977.977,0,0,1-.281.715,1.069,1.069,0,0,1-.8.285,1.056,1.056,0,0,1-.793-.285A.984.984,0,0,1,50.82,4.352Zm8.508,3.93a4.7,4.7,0,0,0-.773-.062,1.741,1.741,0,0,0-1.758,1V15H54.9V6.547h1.813l.047.945a2.139,2.139,0,0,1,1.906-1.1,1.777,1.777,0,0,1,.672.109Z" transform="translate(33.163 31.311)" fill="#f6f6f6"/>
    </g>
    <g transform="matrix(1, 0, 0, 1, 381, 1624)" filter="url(#Trazado_741177)">
      <path id="Trazado_741177-2" data-name="Trazado 741177" d="M238.995,589.917a45.587,45.587,0,1,1-45.587-45.587A45.591,45.591,0,0,1,238.995,589.917Z" transform="translate(538.11 -391.45)" fill="#8fc7ff"/>
    </g>
    <g id="Enmascarar_grupo_952168" data-name="Enmascarar grupo 952168" transform="translate(1066.926 1776.883)" clip-path="url(#clip-path)">
      <g id="_2731_Convertido_" data-name="2731 [Convertido]" transform="translate(13.035 25.219)">
        <g id="Grupo_1022483" data-name="Grupo 1022483" transform="translate(1.321 0)">
          <path id="Trazado_741178" data-name="Trazado 741178" d="M39.02,24.391c-.291-1.692,3.521-7.275,4.586-8.477,3.653-4.139,10.438-3.5,15.107-5.843,1.551-.78,3.781-3.558,5.268-2.756,1.551.838,6.865.716,8.606,4.362,1.19,2.493-1.7,6.807-3.1,9.618a57.23,57.23,0,0,1-5.207,8.578,39.061,39.061,0,0,1-10.267,9.912A23.7,23.7,0,0,1,35.7,43.135c-4.369-1.04-10.585-5.733-13.8-8.508a66.419,66.419,0,0,1-8.621-8.756,50.346,50.346,0,0,1-3.946-5.739c-1-1.7-.012-3.185-.783-5.176-.554-1.429-.86-2.808-.147-3.515,2.616-2.585,7.146-3.46,7.618-3.191,10.438,5.917,21.164,3.607,23,16.141h0Z" transform="translate(-7.99 -7.17)" fill="#fff7e2" fill-rule="evenodd"/>
          <g id="Grupo_1022482" data-name="Grupo 1022482" transform="translate(0)" clip-path="url(#clip-path-2)">
            <path id="Trazado_741179" data-name="Trazado 741179" d="M109.23,23.664c-.076-1.478,0-4.494.615-5.761a19.809,19.809,0,0,1,2.867-4.522,13.943,13.943,0,0,1,7.767-4.255c2.879-.7,5.9-1.065,8.771-2.368a27.584,27.584,0,0,0,8.19-6.33.244.244,0,1,0-.352-.34,27.079,27.079,0,0,1-8.04,6.226c-2.848,1.288-5.834,1.649-8.685,2.337a14.41,14.41,0,0,0-8.018,4.408,20.233,20.233,0,0,0-2.94,4.632c-.639,1.319-.74,4.457-.664,6a.245.245,0,0,0,.489-.024h0Z" transform="translate(-77.903 -2.203)" fill="#273a4d" fill-rule="evenodd"/>
            <path id="Trazado_741180" data-name="Trazado 741180" d="M107.2,25a19.478,19.478,0,0,1,1.872-4.145c1.144-2.3,2.426-4.938,4.482-6.571a14.412,14.412,0,0,1,5.758-2.3,41.64,41.64,0,0,0,6.33-1.649,34.51,34.51,0,0,0,11.1-7.767.244.244,0,0,0-.346-.346,34.026,34.026,0,0,1-10.943,7.66,41.191,41.191,0,0,1-6.253,1.624,14.811,14.811,0,0,0-5.953,2.392c-2.111,1.68-3.439,4.378-4.613,6.736a20.033,20.033,0,0,0-1.912,4.255.244.244,0,0,0,.477.1h0Z" transform="translate(-76.516 -3.691)" fill="#273a4d" fill-rule="evenodd"/>
            <path id="Trazado_741181" data-name="Trazado 741181" d="M106.887,28.993c1.319-3.824,5.865-9.664,9.52-11.466,2.386-1.178,5.179-1.441,7.645-2.478a44.458,44.458,0,0,0,13.011-8.012.245.245,0,1,0-.33-.361,43.956,43.956,0,0,1-12.867,7.92c-2.472,1.04-5.274,1.306-7.67,2.49-3.745,1.848-8.416,7.829-9.765,11.748a.246.246,0,0,0,.465.159h0Z" transform="translate(-76.306 -6.782)" fill="#273a4d" fill-rule="evenodd"/>
            <path id="Trazado_741182" data-name="Trazado 741182" d="M106.589,28.8a28.311,28.311,0,0,1,3.57-4.531,19.174,19.174,0,0,1,9.025-6.161,68.718,68.718,0,0,0,7.055-2.652c3.751-1.741,9.04-6.2,12.365-8.633a.244.244,0,0,0,.052-.343.242.242,0,0,0-.343-.052c-3.3,2.414-8.557,6.856-12.283,8.584a67.283,67.283,0,0,1-7.012,2.634,19.611,19.611,0,0,0-9.23,6.3,28.9,28.9,0,0,0-3.631,4.616.245.245,0,0,0,.425.242h0Z" transform="translate(-76.103 -6.621)" fill="#273a4d" fill-rule="evenodd"/>
            <path id="Trazado_741183" data-name="Trazado 741183" d="M108.715,27.491a12.725,12.725,0,0,1,2.524-2.175c4.4-3.439,7.933-4.834,12.754-7.22,6.565-3.249,12.558-7.618,18.414-11.986a.245.245,0,1,0-.294-.392c-5.831,4.35-11.8,8.7-18.337,11.937-4.855,2.4-8.413,3.812-12.837,7.275a13.266,13.266,0,0,0-2.616,2.273.245.245,0,1,0,.395.291h0Z" transform="translate(-77.596 -6.128)" fill="#273a4d" fill-rule="evenodd"/>
            <path id="Trazado_741184" data-name="Trazado 741184" d="M45.612,25.054c.076-1.478,0-4.494-.615-5.761a19.809,19.809,0,0,0-2.867-4.522,13.943,13.943,0,0,0-7.767-4.255c-2.879-.7-5.9-1.065-8.771-2.368a27.585,27.585,0,0,1-8.19-6.33.244.244,0,0,1,.352-.34A27.079,27.079,0,0,0,25.794,7.7c2.848,1.288,5.834,1.649,8.685,2.337A14.41,14.41,0,0,1,42.5,14.45a20.233,20.233,0,0,1,2.94,4.632c.639,1.319.743,4.457.664,6a.245.245,0,1,1-.489-.024h0Z" transform="translate(-14.475 -3.168)" fill="#273a4d" fill-rule="evenodd"/>
            <path id="Trazado_741185" data-name="Trazado 741185" d="M44.662,26.392a19.386,19.386,0,0,0-1.872-4.142c-1.144-2.3-2.426-4.938-4.482-6.571a14.413,14.413,0,0,0-5.758-2.3,41.641,41.641,0,0,1-6.33-1.649,34.51,34.51,0,0,1-11.1-7.767.244.244,0,1,1,.346-.346,34.026,34.026,0,0,0,10.943,7.66A41.19,41.19,0,0,0,32.66,12.9,14.811,14.811,0,0,1,38.614,15.3c2.111,1.68,3.439,4.378,4.613,6.736a20.033,20.033,0,0,1,1.912,4.255.244.244,0,0,1-.477.1Z" transform="translate(-12.888 -4.656)" fill="#273a4d" fill-rule="evenodd"/>
            <path id="Trazado_741186" data-name="Trazado 741186" d="M43.557,30.383c-1.319-3.824-5.868-9.664-9.52-11.466-2.389-1.178-5.179-1.441-7.645-2.478A44.458,44.458,0,0,1,13.381,8.426a.245.245,0,0,1,.33-.361,44.021,44.021,0,0,0,12.867,7.92c2.472,1.04,5.274,1.306,7.67,2.49,3.745,1.848,8.416,7.829,9.765,11.748a.247.247,0,0,1-.153.312.245.245,0,0,1-.312-.153h0Z" transform="translate(-11.676 -7.747)" fill="#273a4d" fill-rule="evenodd"/>
            <path id="Trazado_741187" data-name="Trazado 741187" d="M39.649,30.184a28.158,28.158,0,0,0-3.573-4.531,19.173,19.173,0,0,0-9.025-6.161A68.006,68.006,0,0,1,20,16.839c-3.751-1.741-9.04-6.2-12.366-8.633a.242.242,0,0,1-.052-.343.244.244,0,0,1,.343-.052c3.3,2.417,8.557,6.856,12.283,8.584a67.283,67.283,0,0,0,7.012,2.634,19.611,19.611,0,0,1,9.23,6.3,28.9,28.9,0,0,1,3.631,4.616.245.245,0,1,1-.425.242h0Z" transform="translate(-7.67 -7.582)" fill="#273a4d" fill-rule="evenodd"/>
            <path id="Trazado_741188" data-name="Trazado 741188" d="M33.789,28.881a12.726,12.726,0,0,0-2.524-2.175c-4.4-3.439-7.933-4.834-12.754-7.22C11.946,16.234,5.953,11.868.1,7.5a.245.245,0,0,1,.294-.392c5.831,4.35,11.8,8.7,18.337,11.937,4.855,2.4,8.413,3.812,12.837,7.275a13.267,13.267,0,0,1,2.616,2.273.245.245,0,1,1-.395.291h0Z" transform="translate(-2.443 -7.093)" fill="#273a4d" fill-rule="evenodd"/>
          </g>
        </g>
        <path id="Trazado_741190" data-name="Trazado 741190" d="M5.8,10.421c-.352-.116-.792.239-.881.756L4.55,66.219l26.768,16.33c3.861,2.484,6.813,2.178,10.557,0l28.509-15.5.875-56.489c.364-.783.015-.988-.707-1.1L41.435,27.3a9.2,9.2,0,0,1-9.352,0L5.8,10.421Z" transform="translate(-4.281 -8.766)" fill="#1c3146" fill-rule="evenodd"/>
        <g id="Grupo_1022485" data-name="Grupo 1022485" transform="translate(0 1.799)">
          <path id="Trazado_741191" data-name="Trazado 741191" d="M4.306,13.653,3.67,70.5,30.438,86.83c3.861,2.484,6.813,2.178,10.557,0l28.509-15.5L70.649,13.05,40.558,31.574a9.2,9.2,0,0,1-9.352,0L4.306,13.653Z" transform="translate(-3.67 -13.05)" fill="#273a4d" fill-rule="evenodd"/>
          <g id="Grupo_1022484" data-name="Grupo 1022484" transform="translate(0 0)" clip-path="url(#clip-path-3)">
            <path id="Trazado_741192" data-name="Trazado 741192" d="M90.638,67.45c-.691,19-1.472,38.063-1.423,57.086a.272.272,0,0,0,.545,0c-.049-19.016.731-38.075,1.423-57.064a.272.272,0,0,0-.545-.018h0Z" transform="translate(-63.043 -50.627)" fill="#1c3146" fill-rule="evenodd"/>
            <path id="Trazado_741193" data-name="Trazado 741193" d="M122.535,64.526c.11,2.138-.168,4.329-.239,6.464-.147,4.512-.3,9.028-.41,13.54-.312,13.2-.165,26.456.141,39.651a.272.272,0,1,0,.545-.012c-.3-13.188-.453-26.438-.141-39.626.107-4.512.263-9.025.41-13.537.07-2.151.349-4.359.239-6.51a.273.273,0,0,0-.545.031Z" transform="translate(-85.601 -48.579)" fill="#1c3146" fill-rule="evenodd"/>
            <path id="Trazado_741194" data-name="Trazado 741194" d="M93.817,80.35c2.025.688,2.707,1.123,4.824,1.1,1.215-.012,3.827-.863,4.366-.746.453.1.278.86.239,1.166-.113.85.034,3.029-.217,3.27a16.446,16.446,0,0,1-4.448.7c-1.26-.1-4.567-.184-4.828-.933a19.04,19.04,0,0,1,.061-4.552h0Z" transform="translate(-66.119 -59.761)" fill="#384f65" fill-rule="evenodd"/>
            <path id="Trazado_741195" data-name="Trazado 741195" d="M90.516,218.63c2.089.688,2.8,1.123,4.984,1.1,1.254-.012,3.949-.863,4.509-.746.468.1.288.86.248,1.166-.116.85.037,3.029-.223,3.27a17.481,17.481,0,0,1-4.592.7c-1.3-.1-4.717-.184-4.984-.933a18.583,18.583,0,0,1,.064-4.552h0Z" transform="translate(-63.831 -155.738)" fill="#384f65" fill-rule="evenodd"/>
            <path id="Trazado_741196" data-name="Trazado 741196" d="M96.118,105.733l-.7,32.526c2.2,1.175,4.372,1.383,6.5-.015l.774-32.318a12.331,12.331,0,0,1-6.574-.2h0Z" transform="translate(-67.351 -77.377)" fill="#384f65" fill-rule="evenodd"/>
          </g>
        </g>
        <path id="Trazado_741198" data-name="Trazado 741198" d="M162.316,43.25,144.64,54.012l.058,11.019L162.472,54.6l-.156-11.35Z" transform="translate(-101.514 -32.212)" fill="#384f65" fill-rule="evenodd"/>
      </g>
    </g>
    <path id="Trazado_772773" data-name="Trazado 772773" d="M17.531,13.422H22.7V15H15.555V3.625h1.977ZM26.047,15h-1.9V6.547h1.9ZM24.031,4.352a1.008,1.008,0,0,1,.277-.727,1.048,1.048,0,0,1,.793-.289,1.061,1.061,0,0,1,.8.289,1,1,0,0,1,.281.727.977.977,0,0,1-.281.715,1.069,1.069,0,0,1-.8.285,1.056,1.056,0,0,1-.793-.285A.984.984,0,0,1,24.031,4.352Zm11.5,6.508a5.078,5.078,0,0,1-.879,3.133,2.863,2.863,0,0,1-2.418,1.164,2.758,2.758,0,0,1-2.312-1.07L29.828,15H28.109V3h1.9V7.359a2.748,2.748,0,0,1,2.211-.969,2.9,2.9,0,0,1,2.43,1.148,5.162,5.162,0,0,1,.883,3.211Zm-1.9-.164a3.589,3.589,0,0,0-.484-2.062,1.613,1.613,0,0,0-1.406-.687,1.763,1.763,0,0,0-1.734,1.078v3.484a1.781,1.781,0,0,0,1.75,1.1,1.6,1.6,0,0,0,1.375-.664,3.477,3.477,0,0,0,.5-2.008Zm7.914-2.414a4.7,4.7,0,0,0-.773-.062,1.741,1.741,0,0,0-1.758,1V15h-1.9V6.547H38.93l.047.945a2.139,2.139,0,0,1,1.906-1.1,1.777,1.777,0,0,1,.672.109Zm.563,2.414A4.984,4.984,0,0,1,42.6,8.457a3.6,3.6,0,0,1,1.383-1.531,3.9,3.9,0,0,1,2.047-.535,3.692,3.692,0,0,1,2.777,1.1,4.333,4.333,0,0,1,1.152,2.922l.008.445a5.029,5.029,0,0,1-.48,2.234,3.551,3.551,0,0,1-1.375,1.523,3.925,3.925,0,0,1-2.066.539,3.667,3.667,0,0,1-2.863-1.191,4.563,4.563,0,0,1-1.074-3.176Zm1.9.164a3.406,3.406,0,0,0,.539,2.043,1.752,1.752,0,0,0,1.5.738,1.733,1.733,0,0,0,1.5-.75,3.762,3.762,0,0,0,.535-2.2,3.362,3.362,0,0,0-.551-2.031,1.856,1.856,0,0,0-2.973-.012A3.691,3.691,0,0,0,44.008,10.859Z" transform="translate(1080.013 1783.974)" fill="#12263f"/>
    <g transform="matrix(1, 0, 0, 1, 381, 1624)" filter="url(#Trazado_772774)">
      <path id="Trazado_772774-2" data-name="Trazado 772774" d="M77.047,0c42.552,0,77.047,11.667,77.047,26.058S119.6,52.116,77.047,52.116,0,40.45,0,26.058,34.5,0,77.047,0Z" transform="translate(372 262.71)" fill="#221b6b"/>
    </g>
    <g transform="matrix(1, 0, 0, 1, 381, 1624)" filter="url(#Trazado_772775)">
      <path id="Trazado_772775-2" data-name="Trazado 772775" d="M77.047,0c42.552,0,77.047,11.667,77.047,26.058S119.6,52.116,77.047,52.116,0,40.45,0,26.058,34.5,0,77.047,0Z" transform="translate(654 262.71)" fill="#221b6b"/>
    </g>
    <path id="Trazado_772776" data-name="Trazado 772776" d="M16.289,12.352H11.883L10.961,15H8.906L13.2,3.625h1.773L19.281,15H17.219Zm-3.852-1.594h3.3L14.086,6.039Zm9.336-4.211.055.977a3.039,3.039,0,0,1,2.461-1.133q2.641,0,2.688,3.023V15h-1.9V9.523a1.741,1.741,0,0,0-.348-1.191,1.462,1.462,0,0,0-1.137-.387,1.829,1.829,0,0,0-1.711,1.039V15h-1.9V6.547Zm4.609-3.375a2.1,2.1,0,0,1-.5,1.43,1.582,1.582,0,0,1-1.246.57,1.856,1.856,0,0,1-.527-.066,3.354,3.354,0,0,1-.633-.3,3.128,3.128,0,0,0-.578-.281,1.378,1.378,0,0,0-.371-.047.662.662,0,0,0-.5.223.821.821,0,0,0-.207.582l-1.164-.062a2.16,2.16,0,0,1,.5-1.445,1.557,1.557,0,0,1,1.238-.586,2.305,2.305,0,0,1,1.074.352,2.271,2.271,0,0,0,1.035.352.675.675,0,0,0,.508-.223.822.822,0,0,0,.211-.59ZM28.555,10.7a4.984,4.984,0,0,1,.492-2.238A3.6,3.6,0,0,1,30.43,6.926a3.9,3.9,0,0,1,2.047-.535,3.692,3.692,0,0,1,2.777,1.1,4.333,4.333,0,0,1,1.152,2.922l.008.445a5.029,5.029,0,0,1-.48,2.234,3.551,3.551,0,0,1-1.375,1.523,3.925,3.925,0,0,1-2.066.539,3.667,3.667,0,0,1-2.863-1.191,4.563,4.563,0,0,1-1.074-3.176Zm1.9.164a3.406,3.406,0,0,0,.539,2.043,1.752,1.752,0,0,0,1.5.738,1.733,1.733,0,0,0,1.5-.75,3.762,3.762,0,0,0,.535-2.2,3.362,3.362,0,0,0-.551-2.031A1.856,1.856,0,0,0,31,8.652,3.691,3.691,0,0,0,30.453,10.859Zm13.781,5.633H37.07V15h7.164ZM45.422,15V3.625h3.359a5.269,5.269,0,0,1,2.676.672A4.581,4.581,0,0,1,53.266,6.2a6.051,6.051,0,0,1,.641,2.828V9.6a6.026,6.026,0,0,1-.645,2.844,4.526,4.526,0,0,1-1.836,1.891A5.513,5.513,0,0,1,48.7,15ZM47.4,5.219v8.2h1.289a2.968,2.968,0,0,0,2.387-.973,4.237,4.237,0,0,0,.848-2.793V9.023a4.347,4.347,0,0,0-.8-2.828,2.853,2.853,0,0,0-2.336-.977Zm12.016,9.938a3.928,3.928,0,0,1-2.926-1.137,4.124,4.124,0,0,1-1.121-3.027v-.234A5.072,5.072,0,0,1,55.855,8.5a3.716,3.716,0,0,1,1.371-1.551A3.625,3.625,0,0,1,59.2,6.391a3.318,3.318,0,0,1,2.668,1.1,4.658,4.658,0,0,1,.941,3.117v.766H57.281a2.539,2.539,0,0,0,.7,1.656,2.1,2.1,0,0,0,1.543.609,2.571,2.571,0,0,0,2.125-1.055l1.023.977a3.418,3.418,0,0,1-1.355,1.176A4.244,4.244,0,0,1,59.414,15.156Zm-.227-7.242a1.6,1.6,0,0,0-1.262.547,2.835,2.835,0,0,0-.613,1.523H60.93V9.844A2.307,2.307,0,0,0,60.422,8.4,1.586,1.586,0,0,0,59.188,7.914ZM64.945,15V7.953H63.656V6.547h1.289V5.773A2.9,2.9,0,0,1,65.727,3.6a2.993,2.993,0,0,1,2.188-.766,4.388,4.388,0,0,1,1.063.141L68.93,4.461A3.739,3.739,0,0,0,68.2,4.4a1.219,1.219,0,0,0-1.359,1.4v.75h1.719V7.953H66.844V15Zm10.125-.828a2.944,2.944,0,0,1-2.375.984,2.624,2.624,0,0,1-2.082-.8,3.423,3.423,0,0,1-.707-2.328V6.547h1.9V12q0,1.609,1.336,1.609a1.876,1.876,0,0,0,1.867-.992V6.547h1.9V15H75.117ZM80.6,6.547l.055.977a3.039,3.039,0,0,1,2.461-1.133q2.641,0,2.688,3.023V15h-1.9V9.523a1.741,1.741,0,0,0-.348-1.191,1.462,1.462,0,0,0-1.137-.387,1.829,1.829,0,0,0-1.711,1.039V15h-1.9V6.547Zm10.609,7.094a1.716,1.716,0,0,0,1.18-.414,1.415,1.415,0,0,0,.5-1.023H94.68a2.789,2.789,0,0,1-.492,1.473,3.228,3.228,0,0,1-1.25,1.082,3.725,3.725,0,0,1-1.7.4,3.6,3.6,0,0,1-2.812-1.148,4.555,4.555,0,0,1-1.039-3.172v-.2a4.479,4.479,0,0,1,1.031-3.09,3.571,3.571,0,0,1,2.813-1.16,3.473,3.473,0,0,1,2.457.879,3.148,3.148,0,0,1,1,2.309H92.891a1.738,1.738,0,0,0-.5-1.2,1.6,1.6,0,0,0-1.184-.469,1.671,1.671,0,0,0-1.422.668,3.408,3.408,0,0,0-.508,2.027v.3a3.465,3.465,0,0,0,.5,2.051A1.669,1.669,0,0,0,91.211,13.641ZM98.133,15h-1.9V6.547h1.9ZM96.117,4.352a1.008,1.008,0,0,1,.277-.727,1.048,1.048,0,0,1,.793-.289,1.061,1.061,0,0,1,.8.289,1,1,0,0,1,.281.727.977.977,0,0,1-.281.715,1.069,1.069,0,0,1-.8.285,1.056,1.056,0,0,1-.793-.285A.984.984,0,0,1,96.117,4.352ZM99.844,10.7a4.984,4.984,0,0,1,.492-2.238,3.6,3.6,0,0,1,1.383-1.531,3.9,3.9,0,0,1,2.047-.535,3.692,3.692,0,0,1,2.777,1.1,4.333,4.333,0,0,1,1.152,2.922l.008.445a5.029,5.029,0,0,1-.48,2.234,3.551,3.551,0,0,1-1.375,1.523,3.925,3.925,0,0,1-2.066.539,3.667,3.667,0,0,1-2.863-1.191,4.563,4.563,0,0,1-1.074-3.176Zm1.9.164a3.406,3.406,0,0,0,.539,2.043,1.752,1.752,0,0,0,1.5.738,1.733,1.733,0,0,0,1.5-.75,3.762,3.762,0,0,0,.535-2.2,3.362,3.362,0,0,0-.551-2.031,1.856,1.856,0,0,0-2.973-.012A3.691,3.691,0,0,0,101.742,10.859ZM104.289,3h2.164l-2.164,2.367-1.523,0Zm6.781,3.547.055.977a3.039,3.039,0,0,1,2.461-1.133q2.641,0,2.688,3.023V15h-1.9V9.523a1.741,1.741,0,0,0-.348-1.191,1.462,1.462,0,0,0-1.137-.387,1.829,1.829,0,0,0-1.711,1.039V15h-1.9V6.547Z" transform="translate(767 1902.705)" fill="#f6f6f6"/>
    <path id="Trazado_772777" data-name="Trazado 772777" d="M10.875,12.352H6.469L5.547,15H3.492l4.3-11.375H9.563L13.867,15H11.8ZM7.023,10.758h3.3L8.672,6.039Zm9.336-4.211.055.977a3.039,3.039,0,0,1,2.461-1.133q2.641,0,2.688,3.023V15h-1.9V9.523a1.741,1.741,0,0,0-.348-1.191,1.462,1.462,0,0,0-1.137-.387,1.829,1.829,0,0,0-1.711,1.039V15h-1.9V6.547Zm4.609-3.375a2.1,2.1,0,0,1-.5,1.43,1.582,1.582,0,0,1-1.246.57,1.856,1.856,0,0,1-.527-.066,3.354,3.354,0,0,1-.633-.3,3.128,3.128,0,0,0-.578-.281,1.378,1.378,0,0,0-.371-.047.662.662,0,0,0-.5.223.821.821,0,0,0-.207.582l-1.164-.062a2.16,2.16,0,0,1,.5-1.445,1.557,1.557,0,0,1,1.238-.586,2.305,2.305,0,0,1,1.074.352,2.271,2.271,0,0,0,1.035.352.675.675,0,0,0,.508-.223.822.822,0,0,0,.211-.59ZM23.141,10.7a4.984,4.984,0,0,1,.492-2.238,3.6,3.6,0,0,1,1.383-1.531,3.9,3.9,0,0,1,2.047-.535,3.692,3.692,0,0,1,2.777,1.1,4.333,4.333,0,0,1,1.152,2.922l.008.445a5.029,5.029,0,0,1-.48,2.234,3.551,3.551,0,0,1-1.375,1.523,3.925,3.925,0,0,1-2.066.539,3.667,3.667,0,0,1-2.863-1.191,4.563,4.563,0,0,1-1.074-3.176Zm1.9.164a3.406,3.406,0,0,0,.539,2.043,1.752,1.752,0,0,0,1.5.738,1.733,1.733,0,0,0,1.5-.75,3.762,3.762,0,0,0,.535-2.2,3.362,3.362,0,0,0-.551-2.031,1.856,1.856,0,0,0-2.973-.012A3.691,3.691,0,0,0,25.039,10.859ZM38.82,16.492H31.656V15H38.82Zm3.164-5.711V15H40.008V3.625h4.352a4.4,4.4,0,0,1,3.027.993,3.34,3.34,0,0,1,1.121,2.628,3.229,3.229,0,0,1-1.1,2.6,4.613,4.613,0,0,1-3.074.931Zm0-1.594h2.375a2.339,2.339,0,0,0,1.609-.5,1.823,1.823,0,0,0,.555-1.434,1.967,1.967,0,0,0-.562-1.473,2.168,2.168,0,0,0-1.547-.566h-2.43Zm13.188,4.984a2.944,2.944,0,0,1-2.375.984,2.624,2.624,0,0,1-2.082-.8,3.423,3.423,0,0,1-.707-2.328V6.547h1.9V12q0,1.609,1.336,1.609a1.876,1.876,0,0,0,1.867-.992V6.547h1.9V15H55.219Zm11.188-3.312a5.078,5.078,0,0,1-.879,3.133,2.863,2.863,0,0,1-2.418,1.164,2.758,2.758,0,0,1-2.312-1.07L60.656,15H58.938V3h1.9V7.359a2.748,2.748,0,0,1,2.211-.969,2.9,2.9,0,0,1,2.43,1.148,5.162,5.162,0,0,1,.883,3.211Zm-1.9-.164a3.589,3.589,0,0,0-.484-2.062,1.613,1.613,0,0,0-1.406-.687,1.763,1.763,0,0,0-1.734,1.078v3.484a1.781,1.781,0,0,0,1.75,1.1,1.6,1.6,0,0,0,1.375-.664,3.477,3.477,0,0,0,.5-2.008ZM69.969,15h-1.9V3h1.9Zm4.086,0h-1.9V6.547h1.9ZM72.039,4.352a1.008,1.008,0,0,1,.277-.727,1.048,1.048,0,0,1,.793-.289,1.061,1.061,0,0,1,.8.289,1,1,0,0,1,.281.727.977.977,0,0,1-.281.715,1.069,1.069,0,0,1-.8.285,1.056,1.056,0,0,1-.793-.285A.984.984,0,0,1,72.039,4.352Zm7.555,9.289a1.716,1.716,0,0,0,1.18-.414,1.415,1.415,0,0,0,.5-1.023h1.789a2.789,2.789,0,0,1-.492,1.473,3.228,3.228,0,0,1-1.25,1.082,3.725,3.725,0,0,1-1.7.4A3.6,3.6,0,0,1,76.8,14.008a4.555,4.555,0,0,1-1.039-3.172v-.2A4.479,4.479,0,0,1,76.8,7.551a3.571,3.571,0,0,1,2.813-1.16,3.473,3.473,0,0,1,2.457.879,3.148,3.148,0,0,1,1,2.309H81.273a1.738,1.738,0,0,0-.5-1.2,1.6,1.6,0,0,0-1.184-.469,1.671,1.671,0,0,0-1.422.668,3.408,3.408,0,0,0-.508,2.027v.3a3.465,3.465,0,0,0,.5,2.051A1.669,1.669,0,0,0,79.594,13.641ZM89.547,15a2.93,2.93,0,0,1-.219-.789,3.193,3.193,0,0,1-4.3.219,2.325,2.325,0,0,1-.8-1.8,2.4,2.4,0,0,1,1-2.074A4.865,4.865,0,0,1,88.1,9.836h1.164V9.281A1.481,1.481,0,0,0,88.9,8.23a1.456,1.456,0,0,0-1.117-.395,1.672,1.672,0,0,0-1.062.324,1,1,0,0,0-.414.824h-1.9a2.107,2.107,0,0,1,.461-1.3,3.071,3.071,0,0,1,1.254-.949,4.4,4.4,0,0,1,1.77-.344,3.547,3.547,0,0,1,2.367.746,2.661,2.661,0,0,1,.906,2.1v3.813a4.321,4.321,0,0,0,.32,1.82V15Zm-2.086-1.367a2.159,2.159,0,0,0,1.059-.273,1.827,1.827,0,0,0,.746-.734V11.031H88.242a2.8,2.8,0,0,0-1.586.367,1.189,1.189,0,0,0-.531,1.039,1.109,1.109,0,0,0,.363.871A1.407,1.407,0,0,0,87.461,13.633Zm9.164.008a1.716,1.716,0,0,0,1.18-.414,1.415,1.415,0,0,0,.5-1.023h1.789a2.789,2.789,0,0,1-.492,1.473,3.228,3.228,0,0,1-1.25,1.082,3.725,3.725,0,0,1-1.7.4,3.6,3.6,0,0,1-2.812-1.148A4.555,4.555,0,0,1,92.8,10.836v-.2a4.479,4.479,0,0,1,1.031-3.09,3.571,3.571,0,0,1,2.813-1.16A3.473,3.473,0,0,1,99.1,7.27a3.148,3.148,0,0,1,1,2.309H98.3a1.738,1.738,0,0,0-.5-1.2,1.6,1.6,0,0,0-1.184-.469,1.671,1.671,0,0,0-1.422.668,3.408,3.408,0,0,0-.508,2.027v.3a3.465,3.465,0,0,0,.5,2.051A1.669,1.669,0,0,0,96.625,13.641ZM103.547,15h-1.9V6.547h1.9ZM101.531,4.352a1.008,1.008,0,0,1,.277-.727,1.048,1.048,0,0,1,.793-.289,1.061,1.061,0,0,1,.8.289,1,1,0,0,1,.281.727.977.977,0,0,1-.281.715,1.069,1.069,0,0,1-.8.285,1.056,1.056,0,0,1-.793-.285A.984.984,0,0,1,101.531,4.352Zm3.727,6.344a4.984,4.984,0,0,1,.492-2.238,3.6,3.6,0,0,1,1.383-1.531,3.9,3.9,0,0,1,2.047-.535,3.692,3.692,0,0,1,2.777,1.1,4.333,4.333,0,0,1,1.152,2.922l.008.445a5.029,5.029,0,0,1-.48,2.234,3.551,3.551,0,0,1-1.375,1.523,3.925,3.925,0,0,1-2.066.539,3.667,3.667,0,0,1-2.863-1.191,4.563,4.563,0,0,1-1.074-3.176Zm1.9.164A3.406,3.406,0,0,0,107.7,12.9a1.752,1.752,0,0,0,1.5.738,1.733,1.733,0,0,0,1.5-.75,3.762,3.762,0,0,0,.535-2.2,3.362,3.362,0,0,0-.551-2.031,1.856,1.856,0,0,0-2.973-.012A3.691,3.691,0,0,0,107.156,10.859ZM109.7,3h2.164L109.7,5.367l-1.523,0Zm6.781,3.547.055.977A3.039,3.039,0,0,1,119,6.391q2.641,0,2.688,3.023V15h-1.9V9.523a1.741,1.741,0,0,0-.348-1.191,1.462,1.462,0,0,0-1.137-.387,1.829,1.829,0,0,0-1.711,1.039V15h-1.9V6.547Z" transform="translate(1050 1902.705)" fill="#f6f6f6"/>
    <g transform="matrix(1, 0, 0, 1, 381, 1624)" filter="url(#Trazado_772778)">
      <path id="Trazado_772778-2" data-name="Trazado 772778" d="M77.047,0c42.552,0,77.047,11.667,77.047,26.058S119.6,52.116,77.047,52.116,0,40.45,0,26.058,34.5,0,77.047,0Z" transform="translate(371.7 90.12)" fill="#221b6b"/>
    </g>
    <path id="Trazado_772779" data-name="Trazado 772779" d="M34.559,12.07a1.374,1.374,0,0,0-.527-1.156,6.345,6.345,0,0,0-1.9-.82,9.186,9.186,0,0,1-2.187-.922,2.919,2.919,0,0,1-1.555-2.547,2.772,2.772,0,0,1,1.121-2.266,4.538,4.538,0,0,1,2.91-.891,4.916,4.916,0,0,1,2.117.438A3.475,3.475,0,0,1,36,5.152a3.2,3.2,0,0,1,.531,1.793H34.559A1.782,1.782,0,0,0,34,5.551a2.305,2.305,0,0,0-1.6-.5,2.408,2.408,0,0,0-1.5.414,1.379,1.379,0,0,0-.535,1.156,1.247,1.247,0,0,0,.578,1.043,6.66,6.66,0,0,0,1.906.813,8.768,8.768,0,0,1,2.133.9,3.392,3.392,0,0,1,1.18,1.156,3.011,3.011,0,0,1,.375,1.527,2.707,2.707,0,0,1-1.09,2.262,4.727,4.727,0,0,1-2.957.84,5.557,5.557,0,0,1-2.27-.457,3.812,3.812,0,0,1-1.609-1.262,3.144,3.144,0,0,1-.574-1.875h1.977a1.84,1.84,0,0,0,.641,1.5,2.805,2.805,0,0,0,1.836.531,2.437,2.437,0,0,0,1.551-.418A1.349,1.349,0,0,0,34.559,12.07Zm7.25,3.086a3.928,3.928,0,0,1-2.926-1.137,4.124,4.124,0,0,1-1.121-3.027v-.234A5.072,5.072,0,0,1,38.25,8.5a3.716,3.716,0,0,1,1.371-1.551,3.625,3.625,0,0,1,1.969-.555,3.318,3.318,0,0,1,2.668,1.1,4.658,4.658,0,0,1,.941,3.117v.766H39.676a2.539,2.539,0,0,0,.7,1.656,2.1,2.1,0,0,0,1.543.609,2.571,2.571,0,0,0,2.125-1.055l1.023.977a3.418,3.418,0,0,1-1.355,1.176A4.244,4.244,0,0,1,41.809,15.156Zm-.227-7.242a1.6,1.6,0,0,0-1.262.547,2.835,2.835,0,0,0-.613,1.523h3.617V9.844A2.307,2.307,0,0,0,42.816,8.4,1.586,1.586,0,0,0,41.582,7.914Zm8.125,1.414,1.609-2.781h2.109L50.84,10.711,53.512,15H51.418L49.73,12.109,48.051,15H45.941l2.672-4.289L46.035,6.547h2.094ZM54.051,10.7a4.984,4.984,0,0,1,.492-2.238,3.6,3.6,0,0,1,1.383-1.531,3.9,3.9,0,0,1,2.047-.535,3.692,3.692,0,0,1,2.777,1.1A4.333,4.333,0,0,1,61.9,10.414l.008.445a5.029,5.029,0,0,1-.48,2.234,3.551,3.551,0,0,1-1.375,1.523,3.925,3.925,0,0,1-2.066.539,3.667,3.667,0,0,1-2.863-1.191,4.563,4.563,0,0,1-1.074-3.176Zm1.9.164a3.406,3.406,0,0,0,.539,2.043,1.752,1.752,0,0,0,1.5.738,1.733,1.733,0,0,0,1.5-.75,3.762,3.762,0,0,0,.535-2.2,3.362,3.362,0,0,0-.551-2.031A1.856,1.856,0,0,0,56.5,8.652,3.691,3.691,0,0,0,55.949,10.859Z" transform="translate(784.896 1729.676)" fill="#f6f6f6"/>
    <g transform="matrix(1, 0, 0, 1, 381, 1624)" filter="url(#Trazado_772780)">
      <path id="Trazado_772780-2" data-name="Trazado 772780" d="M77.047,0c42.552,0,77.047,11.667,77.047,26.058S119.6,52.116,77.047,52.116,0,40.45,0,26.058,34.5,0,77.047,0Z" transform="translate(654 70.71)" fill="#221b6b"/>
    </g>
    <path id="Trazado_772781" data-name="Trazado 772781" d="M53.473,5.219H49.926V15H47.965V5.219H44.449V3.625h9.023ZM56.824,15h-1.9V6.547h1.9ZM56.465,3.055h2.164L56.465,5.422l-1.523,0Zm4.9,1.438V6.547h1.492V7.953H61.363v4.719a1.039,1.039,0,0,0,.191.7.888.888,0,0,0,.684.215,2.924,2.924,0,0,0,.664-.078v1.469a4.676,4.676,0,0,1-1.25.18q-2.187,0-2.187-2.414V7.953H58.074V6.547h1.391V4.492Zm8.063,9.68a2.944,2.944,0,0,1-2.375.984,2.624,2.624,0,0,1-2.082-.8,3.423,3.423,0,0,1-.707-2.328V6.547h1.9V12q0,1.609,1.336,1.609a1.876,1.876,0,0,0,1.867-.992V6.547h1.9V15H69.473ZM75.215,15h-1.9V3h1.9Zm1.711-4.3a4.984,4.984,0,0,1,.492-2.238A3.6,3.6,0,0,1,78.8,6.926a3.9,3.9,0,0,1,2.047-.535,3.692,3.692,0,0,1,2.777,1.1,4.333,4.333,0,0,1,1.152,2.922l.008.445a5.029,5.029,0,0,1-.48,2.234,3.551,3.551,0,0,1-1.375,1.523,3.925,3.925,0,0,1-2.066.539A3.667,3.667,0,0,1,78,13.965a4.563,4.563,0,0,1-1.074-3.176Zm1.9.164a3.406,3.406,0,0,0,.539,2.043,1.752,1.752,0,0,0,1.5.738,1.733,1.733,0,0,0,1.5-.75,3.762,3.762,0,0,0,.535-2.2,3.362,3.362,0,0,0-.551-2.031,1.856,1.856,0,0,0-2.973-.012A3.691,3.691,0,0,0,78.824,10.859Z" transform="translate(1050 1710.705)" fill="#f6f6f6"/>
    <path id="Trazado_772782" data-name="Trazado 772782" d="M50.887,12.352H46.48L45.559,15H43.5L47.8,3.625h1.773L53.879,15H51.816Zm-3.852-1.594h3.3L48.684,6.039ZM60.02,14.172a2.944,2.944,0,0,1-2.375.984,2.624,2.624,0,0,1-2.082-.8,3.423,3.423,0,0,1-.707-2.328V6.547h1.9V12q0,1.609,1.336,1.609a1.876,1.876,0,0,0,1.867-.992V6.547h1.9V15H60.066Zm6.148-9.68V6.547H67.66V7.953H66.168v4.719a1.039,1.039,0,0,0,.191.7.888.888,0,0,0,.684.215,2.925,2.925,0,0,0,.664-.078v1.469a4.676,4.676,0,0,1-1.25.18q-2.188,0-2.187-2.414V7.953H62.879V6.547H64.27V4.492Zm2.352,6.2a4.984,4.984,0,0,1,.492-2.238,3.6,3.6,0,0,1,1.383-1.531,3.9,3.9,0,0,1,2.047-.535,3.692,3.692,0,0,1,2.777,1.1,4.333,4.333,0,0,1,1.152,2.922l.008.445a5.029,5.029,0,0,1-.48,2.234,3.551,3.551,0,0,1-1.375,1.523,3.925,3.925,0,0,1-2.066.539,3.667,3.667,0,0,1-2.863-1.191,4.563,4.563,0,0,1-1.074-3.176Zm1.9.164a3.406,3.406,0,0,0,.539,2.043,1.752,1.752,0,0,0,1.5.738,1.733,1.733,0,0,0,1.5-.75,3.762,3.762,0,0,0,.535-2.2,3.362,3.362,0,0,0-.551-2.031,1.856,1.856,0,0,0-2.973-.012A3.691,3.691,0,0,0,70.418,10.859ZM82.41,8.281a4.7,4.7,0,0,0-.773-.062,1.741,1.741,0,0,0-1.758,1V15h-1.9V6.547h1.813l.047.945a2.139,2.139,0,0,1,1.906-1.1,1.777,1.777,0,0,1,.672.109Z" transform="translate(594.932 1870.43)" fill="#f6f6f6"/>
    <path id="Trazado_741859" data-name="Trazado 741859" d="M536.9,1690.216V1768.3" transform="translate(121.5 15.9)" fill="none" stroke="#12263f" stroke-width="1.5"/>
    <g transform="matrix(1, 0, 0, 1, 381, 1624)" filter="url(#Trazado_772783)">
      <path id="Trazado_772783-2" data-name="Trazado 772783" d="M77.047,0c42.552,0,77.047,11.667,77.047,26.058S119.6,52.116,77.047,52.116,0,40.45,0,26.058,34.5,0,77.047,0Z" transform="translate(200.35 34)" fill="#221b6b"/>
    </g>
    <path id="Trazado_772784" data-name="Trazado 772784" d="M44.449,15H42.473L37.4,6.93V15H35.426V3.625H37.4l5.086,8.1v-8.1h1.961Zm1.8-4.3a4.984,4.984,0,0,1,.492-2.238,3.6,3.6,0,0,1,1.383-1.531,3.9,3.9,0,0,1,2.047-.535,3.692,3.692,0,0,1,2.777,1.1A4.333,4.333,0,0,1,54.1,10.414l.008.445a5.029,5.029,0,0,1-.48,2.234,3.551,3.551,0,0,1-1.375,1.523,3.925,3.925,0,0,1-2.066.539,3.667,3.667,0,0,1-2.863-1.191,4.563,4.563,0,0,1-1.074-3.176Zm1.9.164a3.406,3.406,0,0,0,.539,2.043,1.752,1.752,0,0,0,1.5.738,1.733,1.733,0,0,0,1.5-.75,3.762,3.762,0,0,0,.535-2.2,3.362,3.362,0,0,0-.551-2.031,1.856,1.856,0,0,0-2.973-.012A3.691,3.691,0,0,0,48.145,10.859ZM57.5,6.547l.055.883a3.042,3.042,0,0,1,2.438-1.039,2.337,2.337,0,0,1,2.32,1.3,3,3,0,0,1,2.594-1.3,2.636,2.636,0,0,1,2.082.773,3.405,3.405,0,0,1,.7,2.281V15h-1.9V9.5a1.681,1.681,0,0,0-.352-1.18,1.539,1.539,0,0,0-1.164-.375,1.581,1.581,0,0,0-1.059.348,1.833,1.833,0,0,0-.574.91l.008,5.8h-1.9V9.438a1.354,1.354,0,0,0-1.523-1.492,1.671,1.671,0,0,0-1.617.93V15h-1.9V6.547Zm19.555,4.313a5.078,5.078,0,0,1-.879,3.133,2.863,2.863,0,0,1-2.418,1.164,2.758,2.758,0,0,1-2.312-1.07L71.348,15H69.629V3h1.9V7.359a2.748,2.748,0,0,1,2.211-.969,2.9,2.9,0,0,1,2.43,1.148,5.162,5.162,0,0,1,.883,3.211Zm-1.9-.164a3.589,3.589,0,0,0-.484-2.062,1.613,1.613,0,0,0-1.406-.687,1.763,1.763,0,0,0-1.734,1.078v3.484a1.781,1.781,0,0,0,1.75,1.1,1.6,1.6,0,0,0,1.375-.664,3.477,3.477,0,0,0,.5-2.008Zm7.914-2.414a4.7,4.7,0,0,0-.773-.062,1.741,1.741,0,0,0-1.758,1V15h-1.9V6.547h1.813l.047.945a2.139,2.139,0,0,1,1.906-1.1,1.777,1.777,0,0,1,.672.109Zm4.773,6.875a3.928,3.928,0,0,1-2.926-1.137,4.124,4.124,0,0,1-1.121-3.027v-.234A5.072,5.072,0,0,1,84.281,8.5a3.716,3.716,0,0,1,1.371-1.551,3.625,3.625,0,0,1,1.969-.555,3.318,3.318,0,0,1,2.668,1.1,4.658,4.658,0,0,1,.941,3.117v.766H85.707a2.539,2.539,0,0,0,.7,1.656,2.1,2.1,0,0,0,1.543.609,2.571,2.571,0,0,0,2.125-1.055l1.023.977a3.418,3.418,0,0,1-1.355,1.176A4.244,4.244,0,0,1,87.84,15.156Zm-.227-7.242a1.6,1.6,0,0,0-1.262.547,2.835,2.835,0,0,0-.613,1.523h3.617V9.844A2.307,2.307,0,0,0,88.848,8.4,1.586,1.586,0,0,0,87.613,7.914Z" transform="translate(594.932 1673.56)" fill="#f6f6f6"/>
    <g id="Grupo_1021852" data-name="Grupo 1021852" transform="translate(729.208 1813.431)">
      <path id="Trazado_739357" data-name="Trazado 739357" d="M3005.254-8990.29l14-10.184" transform="translate(-3005.254 9010.657)" fill="none" stroke="#12263f" stroke-width="1.5"/>
      <path id="Trazado_739358" data-name="Trazado 739358" d="M3005.254-9000.474l14,10.184" transform="translate(-3005.254 9000.474)" fill="none" stroke="#12263f" stroke-width="1.5"/>
    </g>
    <g id="Grupo_1021907" data-name="Grupo 1021907" transform="translate(585.81 1740.174)">
      <g transform="matrix(1, 0, 0, 1, -204.81, -116.17)" filter="url(#Trazado_740037)">
        <path id="Trazado_740037-2" data-name="Trazado 740037" d="M292.993,616.916a72.586,72.586,0,1,1-72.586-72.586A72.592,72.592,0,0,1,292.993,616.916Z" transform="translate(56.99 -417.41)" fill="#8fc7ff"/>
      </g>
      <path id="Trazado_740038" data-name="Trazado 740038" d="M245.358,557.907c0,13.528-10.507,24.566-23.464,24.5-16.548-.089-23.464-10.97-23.464-24.5s10.507-24.5,23.464-24.5S245.358,544.38,245.358,557.907Z" transform="translate(-148.639 -533.41)" fill="#684528"/>
      <path id="Trazado_740039" data-name="Trazado 740039" d="M213.86,582.46v4.1a44.094,44.094,0,0,0,6.621,3.807,2.156,2.156,0,0,0,1.741.059,52.886,52.886,0,0,0,7.625-3.935V582.46h-16Z" transform="translate(-148.888 -534.204)" fill="#ea9f6c"/>
      <path id="Trazado_740040" data-name="Trazado 740040" d="M240.341,561.413a2.173,2.173,0,0,0-1.633.138c.571-5.48.9-11.009.059-12.318a21.955,21.955,0,0,0-17.522-10.114h0a21.94,21.94,0,0,0-17.522,10.114c-.826,1.289-.521,6.72.049,12.15a1.976,1.976,0,0,0-1.171.02c-1.613.541-2.174,3.188-1.259,5.9.748,2.233,2.273,3.817,3.679,4,.226,1.535.374,2.5.374,2.5,3.325,8.805,12.081,13.134,14.934,14.334a2.278,2.278,0,0,0,1.741.039c2.765-1.151,11.668-5.48,15.023-14.374,0,0,.157-.954.374-2.489,1.515.108,3.276-1.554,4.112-4,.925-2.706.364-5.352-1.249-5.9Z" transform="translate(-148.679 -533.502)" fill="#fcc397"/>
      <path id="Trazado_740041" data-name="Trazado 740041" d="M226.225,559.6c.472-.325,4.319-3.345,8.52-.384,2.548,1.8-1.318-.9-3.227-.669a10.852,10.852,0,0,0-4.86,1.928C226.018,560.921,225.585,560.055,226.225,559.6Z" transform="translate(-149.083 -533.807)" fill="#684528"/>
      <path id="Trazado_740042" data-name="Trazado 740042" d="M216.951,559.6c-.453-.325-4.162-3.306-8.254-.3-2.489,1.82,1.279-.905,3.129-.7a10.177,10.177,0,0,1,4.693,1.869C217.128,560.922,217.561,560.046,216.951,559.6Z" transform="translate(-148.792 -533.807)" fill="#684528"/>
      <path id="Trazado_740043" data-name="Trazado 740043" d="M255.53,605.57c-1.692-3.119-5.136-5.037-7.546-5.037l-11.835-1.781c-3.611-1.249-6.965-5.076-6.965-7.388,0-.069-.03-6.434-.03-6.434a56.791,56.791,0,0,1-8.461,3.306,45.269,45.269,0,0,1-7.536-3.256s-.03,6.257-.03,6.326c0,2.361-3.975,6.287-7.812,7.448l-11.786,1.781c-2.4,0-6.779,2.873-8.264,6.67-2.292,5.145-5.775,15.456-14.265,35.969.561,7.162,8.107,11.855,12.386,7.2,3.62-3.945,9.081-18.88,12.081-27.665h52.418c4.516,7.6,11.235,19.745,11.3,24.861.069,4.191,11.511,6.838,11.255-3.886-.226-9.464-10.694-31.069-14.925-38.1Z" transform="translate(-148.195 -534.243)" fill="#fcc397"/>
      <path id="Trazado_740044" data-name="Trazado 740044" d="M217.257,564.528c-2.037.679-2.824,1.1-3.925,1.141-1.6.069-2.922-.846-2.922-1.85s1.308-1.82,2.912-1.82A5.468,5.468,0,0,1,217.257,564.528Z" transform="translate(-148.833 -533.872)" fill="#fff"/>
      <path id="Trazado_740045" data-name="Trazado 740045" d="M214.914,563.871a1.7,1.7,0,1,1-1.692-1.791A1.747,1.747,0,0,1,214.914,563.871Z" transform="translate(-148.851 -533.874)" fill="#7b9368"/>
      <path id="Trazado_740046" data-name="Trazado 740046" d="M214.442,563.7a1.153,1.153,0,1,1-1.151-1.21A1.179,1.179,0,0,1,214.442,563.7Z" transform="translate(-148.861 -533.88)"/>
      <path id="Trazado_740047" data-name="Trazado 740047" d="M214.652,563.553a.5.5,0,0,1-.551.423.488.488,0,0,1-.541-.423.494.494,0,0,1,.541-.423A.5.5,0,0,1,214.652,563.553Z" transform="translate(-148.884 -533.891)" fill="#fff"/>
      <path id="Trazado_740048" data-name="Trazado 740048" d="M217.013,564.1c-1.318-2.351-4.289-2.45-6.218-1.732-1.7.63-2.027.3-2.1.216a3.865,3.865,0,0,0,2.715,2.666,1.981,1.981,0,0,1-.964-1.033c.177-1.072,2.46-1.712,4-1.249,2.214.669,2.774,1.584,2.774,1.584a1.849,1.849,0,0,0-.216-.443Z" transform="translate(-148.805 -533.872)"/>
      <path id="Trazado_740049" data-name="Trazado 740049" d="M225.97,564.528c2.066.679,2.863,1.1,3.975,1.141,1.633.069,2.961-.846,2.961-1.85s-1.318-1.82-2.951-1.82a5.514,5.514,0,0,0-3.984,2.528Z" transform="translate(-149.084 -533.872)" fill="#fff"/>
      <path id="Trazado_740050" data-name="Trazado 740050" d="M228.4,563.871a1.723,1.723,0,1,0,1.722-1.791A1.758,1.758,0,0,0,228.4,563.871Z" transform="translate(-149.124 -533.874)" fill="#7b9368"/>
      <path id="Trazado_740051" data-name="Trazado 740051" d="M228.9,563.7a1.171,1.171,0,1,0,1.171-1.21A1.189,1.189,0,0,0,228.9,563.7Z" transform="translate(-149.132 -533.88)"/>
      <path id="Trazado_740052" data-name="Trazado 740052" d="M230.54,563.653a.57.57,0,0,0,1.1,0,.567.567,0,0,0-1.1,0Z" transform="translate(-149.158 -533.892)" fill="#fff"/>
      <path id="Trazado_740053" data-name="Trazado 740053" d="M234.618,562.58c-.069.089-.4.413-2.125-.216-1.958-.718-4.968-.62-6.306,1.732a2.092,2.092,0,0,0-.226.443s.571-.915,2.824-1.584c1.564-.462,3.876.177,4.053,1.24a2.055,2.055,0,0,1-.974,1.043c1.112-.4,2.706-1.5,2.755-2.666Z" transform="translate(-149.084 -533.872)"/>
      <path id="Trazado_740054" data-name="Trazado 740054" d="M245.358,554.513c0-11.648-10.507-21.1-23.464-21.1s-23.464,9.454-23.464,21.1a22.6,22.6,0,0,0,2.46,10.714c-.157-1.918.472-3.5,1.682-3.916a1.9,1.9,0,0,1,.846-.079c.63,2.45,1.289,4.142,1.289,2.774,0-1.613.325-4.575.59-6.759a32.5,32.5,0,0,1,16.6-10.3,28.372,28.372,0,0,1,16.036,10.93c.236,2.076.482,4.6.482,6.041,0,1.348.61-.285,1.2-2.686a2.322,2.322,0,0,1,.689.089c1.269.433,1.879,2.155,1.633,4.191a19.519,19.519,0,0,0,3.434-11Z" transform="translate(-148.639 -533.41)" fill="#7c5732"/>
      <path id="Trazado_740055" data-name="Trazado 740055" d="M222.636,573.11h-2.194a1.73,1.73,0,0,1-1.594-1.22,1.947,1.947,0,0,0-.118.689c0,1.053,1.279,1.387,2.233,1.387h1.171c.944,0,2.233-.335,2.233-1.387a2.247,2.247,0,0,0-.118-.689,1.73,1.73,0,0,1-1.594,1.22Z" transform="translate(-148.967 -534.033)" fill="#ea9f6c"/>
      <path id="Trazado_740056" data-name="Trazado 740056" d="M201.51,563.773c-.02-.216.413-1.2.944-1.033.817.256,1.328,1.85,1.673,3.434s.187,2.745,0,2.322a22.7,22.7,0,0,0-1.466-4.339c-.649-1.2-1.033,1.338-1.161-.384Z" transform="translate(-148.688 -533.884)" fill="#ea9f6c"/>
      <path id="Trazado_740057" data-name="Trazado 740057" d="M242.074,563.773c.02-.216-.413-1.2-.944-1.033-.817.256-1.328,1.85-1.673,3.434s-.187,2.745,0,2.322a23.19,23.19,0,0,1,1.456-4.339c.649-1.2,1.033,1.338,1.161-.384Z" transform="translate(-149.299 -533.884)" fill="#ea9f6c"/>
      <path id="Trazado_740058" data-name="Trazado 740058" d="M214.909,571.524c-.423,1.358-2.548,1.9-4.722,1.21s-3.6-2.341-3.178-3.709,2.548-1.9,4.722-1.21S215.332,570.157,214.909,571.524Z" transform="translate(-148.776 -533.962)" fill="#ffb18a"/>
      <path id="Trazado_740059" data-name="Trazado 740059" d="M227.979,571.524c.423,1.358,2.548,1.9,4.722,1.21s3.6-2.341,3.178-3.709-2.548-1.9-4.722-1.21S227.556,570.157,227.979,571.524Z" transform="translate(-149.116 -533.962)" fill="#ffb18a"/>
      <path id="Trazado_740060" data-name="Trazado 740060" d="M248.329,600.755l-9.976-1.505c.59,10.517-35.211,9.464-34.69.03l-9.779,1.476c2.43,10.566.335,23.533.61,23.956a12.351,12.351,0,0,0,6.946,15.7,67.247,67.247,0,0,1,1.741,8.362,87.512,87.512,0,0,1,.984,16.361,30.917,30.917,0,0,0-8.372,9.7,32.021,32.021,0,0,0-3.443,9.612,72.225,72.225,0,0,0,28.767,5.932,73.49,73.49,0,0,0,29.524-6.257,31.932,31.932,0,0,0-3.512-9.5,30.862,30.862,0,0,0-8.451-9.632,89.332,89.332,0,0,1,.994-16.213,67.89,67.89,0,0,1,1.682-8.176,12.35,12.35,0,0,0,6.788-15.574c.236-.364-1.918-16.676.177-24.271Z" transform="translate(-148.54 -534.475)" fill="#12263f"/>
      <path id="Trazado_740061" data-name="Trazado 740061" d="M216.085,577.366c-.649-.276-.758-.157-.836-.059-.108.138-.148.118.275.689l.905,1.21s1.83,3.443,5.273,3.3a5.99,5.99,0,0,0,5.126-3.512c.157-.325.521-.836.63-1.013.334-.6.275-.62.2-.7-.236-.246-.256-.118-.689.1a25.014,25.014,0,0,1-5.608.492,24.384,24.384,0,0,1-5.273-.492Z" transform="translate(-148.91 -534.118)" fill="#c6523c"/>
      <path id="Trazado_740062" data-name="Trazado 740062" d="M224.679,579.409c.817-.256,1.072-.984,1.279-1.889a27.678,27.678,0,0,1-4.939.285,40.977,40.977,0,0,1-4.28-.3c.216,1.033.4,1.151,1.259,1.584-.679.039-.807.679-.718,1.436a7,7,0,0,0,4.3,1.712c2.155-.069,3.483-.7,4.2-1.712C225.6,580.058,225.27,579.428,224.679,579.409Z" transform="translate(-148.935 -534.123)" fill="#fff"/>
      <path id="Trazado_740063" data-name="Trazado 740063" d="M216.27,577.424s.216.935,4.811.9c4.555-.039,5.5-.856,5.5-.856s-3.443-.4-5.313-.374c-1.722.03-5.008.335-5.008.335Z" transform="translate(-148.927 -534.117)" fill="#fc7365"/>
      <path id="Trazado_740064" data-name="Trazado 740064" d="M215.85,578.39a5.587,5.587,0,0,0,5.382,4.486c4.309.138,5.952-4.506,5.952-4.506A7.049,7.049,0,0,1,221.546,581a6.479,6.479,0,0,1-5.7-2.607Z" transform="translate(-148.921 -534.137)" fill="#fc7365"/>
      <path id="Trazado_740065" data-name="Trazado 740065" d="M187.239,621.828c-.443-.03-5.4-.433-5.608.433-.059.246-.108,1.456-.108,1.515-.334-.02-.649-.039-.9-.049-.8-.03-2.646-.108-2.371,1.308,0,.039.079.344.108.462a14.448,14.448,0,0,0-2.666,1.692c-.325.413-.187.64.1,1.387.738,1.918,1.869,4.358,2.243,5.155l-5.785,7.31.079-.02a5.5,5.5,0,0,0-.3.59c-1.171,2.873-.807,7.1,1.535,10.792,1.977,3.129,4.221,3.335,7.221.039a108.441,108.441,0,0,0,6.749-8.707V621.926a.7.7,0,0,0-.3-.1Z" transform="translate(-148.201 -534.839)" fill="#ea9f6c"/>
      <path id="Trazado_740066" data-name="Trazado 740066" d="M188.864,626.825a2.542,2.542,0,0,1-1.328-.915,33.535,33.535,0,0,0-2.2,2.961s-4.368.679-5.1,1.781-2.105,1-1.81,2.253a4,4,0,0,0,.433.935c.689,1.21,2.037,3.05,3,4.437.492.708-8.53-.59-10.369,3.925-1.171,2.873-.807,7.1,1.535,10.792,1.977,3.129,5.667,3.335,8.658.039a109.239,109.239,0,0,0,7.182-9.327V626.825Z" transform="translate(-148.192 -534.906)" fill="#fcc397"/>
      <path id="Trazado_740067" data-name="Trazado 740067" d="M188.326,622.448c-.443-.03-5.441-.384-5.618.344a7.166,7.166,0,0,0-.1,1.83c.787.049,4.23.089,4.6.2s1.082,2.528,3.227,1.466c0,0-.954-2.44-1.249-2.981s-.413-.826-.866-.856Z" transform="translate(-148.383 -534.849)" fill="#fcc397"/>
      <path id="Trazado_740068" data-name="Trazado 740068" d="M185.492,624.806c-.069-.394-.59-.649-.905-.679-.275-.02-1.23-.1-2.027-.148a9.721,9.721,0,0,0,.315,2.991.376.376,0,0,1,.187.167c.128.216.275.758.521,1.348a1.857,1.857,0,0,0,1.791,1.072,5.086,5.086,0,0,0,.787-.079s-.59-4.043-.679-4.673Z" transform="translate(-148.382 -534.875)" fill="#ea9f6c"/>
      <path id="Trazado_740069" data-name="Trazado 740069" d="M184.366,624.467c-.364-.03-1.918-.148-2.715-.177s-2.637-.108-2.371,1.3c0,.039.256-.039.3-.059a1.223,1.223,0,0,1,1.24.118,28.939,28.939,0,0,1,2.076,2.538l-.61-1.554s.571-.266.758.039c.128.216.275.748.521,1.338a2.051,2.051,0,0,0,2.214,1.141s-.472-3.335-.59-3.778-.453-.876-.826-.915Z" transform="translate(-148.329 -534.88)" fill="#fcc397"/>
      <path id="Trazado_740070" data-name="Trazado 740070" d="M183.43,629.429a.5.5,0,0,0-.03-.049l.02.049Z" transform="translate(-148.396 -534.963)" fill="#ba7a4f"/>
      <path id="Trazado_740071" data-name="Trazado 740071" d="M179.523,625.188a2.548,2.548,0,0,0-.453.236c.157.738.758,2.253,1.092,3.276.1.089.433.581.817.954.738.728,2.735-.266,2.833-.3,0,0-2.676-3.689-3.05-4.053a1.2,1.2,0,0,0-1.24-.118Z" transform="translate(-148.326 -534.893)" fill="#ea9f6c"/>
      <path id="Trazado_740072" data-name="Trazado 740072" d="M176.765,629.165c-.285-.758-.423-.984-.1-1.4a15.09,15.09,0,0,1,2.951-1.82,1.223,1.223,0,0,1,1.24.118c.4.384,2.312,3.02,2.312,3.02s-1.761.767-2.519,0l-.767-.748-.462.433,1.456,2.381-2.135,2.3a37.792,37.792,0,0,1-1.977-4.309Z" transform="translate(-148.284 -534.905)" fill="#fcc397"/>
      <path id="Trazado_740073" data-name="Trazado 740073" d="M185.925,629.251l-.394-2.341a.6.6,0,0,0-.443.059c-.216.128.069,1.928.246,2.105a.912.912,0,0,0,.59.167Z" transform="translate(-148.422 -534.922)" fill="#e25c52"/>
      <path id="Trazado_740074" data-name="Trazado 740074" d="M183.324,629.084l-1.269-1.594a.5.5,0,0,0-.3.226c-.108.2.866,1.427,1.072,1.486a.842.842,0,0,0,.512-.118Z" transform="translate(-148.369 -534.932)" fill="#e25c52"/>
      <path id="Trazado_740075" data-name="Trazado 740075" d="M188.513,618.55h34.965a1.012,1.012,0,0,1,1.013,1.013v24.458a1.012,1.012,0,0,1-1.013,1.013H188.513a1.012,1.012,0,0,1-1.013-1.013V619.563a1.022,1.022,0,0,1,1.023-1.023Z" transform="translate(-148.462 -534.787)" fill="#565656"/>
      <path id="Trazado_740076" data-name="Trazado 740076" d="M215.83,631.78a1.839,1.839,0,0,0,1.456,1.584c1.318.266,5.686-.8,5.686-.8l3.6,3.374s2.883-.384,2.479-1.682c-1.19-1.072-3.256-3.355-3.965-3.8a3.2,3.2,0,0,0-2.627-.4C221.516,630.324,215.83,631.78,215.83,631.78Z" transform="translate(-148.92 -534.972)" fill="#fcc397"/>
      <path id="Trazado_740077" data-name="Trazado 740077" d="M268.857,639.849c-3.4-1.387-11.275-1.19-15.525.344-7.969,2.863-17.925.079-17.925.079h0c-.108-.167-6.277-5.932-6.277-5.932l-3.8.826-4.712,6.877a5.611,5.611,0,0,1,1.368.718c.492.394,6,4.7,8.333,4.7a4.123,4.123,0,0,0,1.151-.167c3.089,1.043,16.991,5.529,29.121,5.529,7.418,0,7.821-1.7,10-4.23,1.131-4.929-.571-9.071-1.741-8.746Z" transform="translate(-148.998 -535.043)" fill="#fcc397"/>
      <path id="Trazado_740078" data-name="Trazado 740078" d="M215.76,631.81l2.45-.62a.644.644,0,0,1,.128.453c-.03.276-1.909.758-2.164.669s-.413-.5-.413-.5Z" transform="translate(-148.919 -534.992)" fill="#e26954"/>
      <path id="Trazado_740079" data-name="Trazado 740079" d="M224.287,640.635c-.5-.128-.964-.246-1.4-.364a3.567,3.567,0,0,1-.285.275c-.62-.148-8.244-2.164-9.11-2.44-.2-.059-.423-.138-.639-.226a1.265,1.265,0,0,0-.3.413c-.2.738,1.033,1.309,1.889,1.663s8.53,3.02,9.15,3.227c.7-.4,2.686-2.036.689-2.548Z" transform="translate(-148.867 -535.1)" fill="#fcc397"/>
      <path id="Trazado_740080" data-name="Trazado 740080" d="M222.619,640.533a3.476,3.476,0,0,0,.285-.276c-2.145-.571-3.463-.984-4.565-1.318-1.141-.344-3.158-.915-4.4-1.171a1.309,1.309,0,0,0-1.1.1c.216.089.443.157.639.226.866.276,8.53,2.292,9.15,2.44Z" transform="translate(-148.872 -535.097)" fill="#ea9f6c"/>
      <path id="Trazado_740081" data-name="Trazado 740081" d="M214.135,639.217a3.724,3.724,0,0,0,.354-.846,5.187,5.187,0,0,0-1.308-.551.434.434,0,0,0-.453.718A4.072,4.072,0,0,0,214.135,639.217Z" transform="translate(-148.868 -535.099)" fill="#e26954"/>
      <path id="Trazado_740082" data-name="Trazado 740082" d="M225.4,637.472c-3.552-.413-5.5-.767-7.074-1.023-1.348-.216-3.748-.571-5.2-.679-.512-.039-1.4.148-1.486.807-.118.876,1.377,1.338,2.41,1.6s10.232,2.391,10.97,2.538c.738-.571,2.745-2.981.384-3.256Z" transform="translate(-148.852 -535.066)" fill="#fcc397"/>
      <path id="Trazado_740083" data-name="Trazado 740083" d="M213.578,637.7a2.5,2.5,0,0,0,.246-1.013,6.3,6.3,0,0,0-1.663-.64c-.4-.03-.767.649-.275,1.1a4.727,4.727,0,0,0,1.7.551Z" transform="translate(-148.853 -535.071)" fill="#e26954"/>
      <path id="Trazado_740084" data-name="Trazado 740084" d="M224.066,634.933c-3.247-.049-5.037-.207-6.474-.3-1.24-.079-3.434-.187-4.762-.138-.472.01-1.161.275-1.19.944-.03.876,1.2,1.033,2.155,1.2.433.079,2.105.364,4.693.6,2.519.236,5.1.708,5.47.738.62-.639,2.263-3,.1-3.04Z" transform="translate(-148.853 -535.045)" fill="#ea9f6c"/>
      <path id="Trazado_740085" data-name="Trazado 740085" d="M225.284,634.5c-3.571.059-5.549-.039-7.143-.079-1.368-.039-3.788-.069-5.244.02-.512.03-1.368.334-1.368.994,0,.876,1.545,1.141,2.607,1.279.453.049,2.528.079,4.7.236,2.883.216,6.021.571,6.454.6.659-.659,2.381-3.079,0-3.04Z" transform="translate(-148.851 -535.044)" fill="#fcc397"/>
      <path id="Trazado_740086" data-name="Trazado 740086" d="M213.871,636.126a4.625,4.625,0,0,0,.148-1.23,6.725,6.725,0,0,0-1.9-.236.589.589,0,0,0-.335,1.1,5.425,5.425,0,0,0,2.076.364Z" transform="translate(-148.85 -535.048)" fill="#e26954"/>
      <path id="Trazado_740087" data-name="Trazado 740087" d="M222.47,543.783s10.773,2.086,14.3,8.146c-.58-1.417-2.007-5.667-12.947-9.1a30.2,30.2,0,0,1,15.731,6.6c-1.7-2.332-3.493-4.683-10.517-8.461,1.456-.167,7.064,2.184,7.861,2.873-.787-.885-1.112-2.42-7.438-5.391,2.381.492,7.418,3.109,8.815,3.984-4.142-5.027-11.511-7-15.81-6.995v8.343Z" transform="translate(-149.028 -533.443)" fill="#a07045"/>
      <path id="Trazado_740088" data-name="Trazado 740088" d="M221.519,543.724s-10.763,2.145-14.265,8.215c.571-1.417,1.977-5.677,12.9-9.159a30.045,30.045,0,0,0-15.692,6.69c1.692-2.341,3.463-4.7,10.478-8.52-1.456-.157-7.054,2.233-7.851,2.912.787-.885,1.092-2.42,7.408-5.431-2.381.5-7.4,3.158-8.8,4.034,4.122-5.047,11.206-7.015,15.505-7.034,0,1.653.3,8.294.3,8.294Z" transform="translate(-148.736 -533.443)" fill="#a07045"/>
      <path id="Trazado_772789" data-name="Trazado 772789" d="M9.887,12.352H5.48L4.559,15H2.5L6.8,3.625H8.574L12.879,15H10.816ZM6.035,10.758h3.3L7.684,6.039ZM19.02,14.172a2.944,2.944,0,0,1-2.375.984,2.624,2.624,0,0,1-2.082-.8,3.423,3.423,0,0,1-.707-2.328V6.547h1.9V12q0,1.609,1.336,1.609a1.876,1.876,0,0,0,1.867-.992V6.547h1.9V15H19.066Zm6.148-9.68V6.547H26.66V7.953H25.168v4.719a1.039,1.039,0,0,0,.191.7.888.888,0,0,0,.684.215,2.925,2.925,0,0,0,.664-.078v1.469a4.676,4.676,0,0,1-1.25.18q-2.188,0-2.187-2.414V7.953H21.879V6.547H23.27V4.492Zm2.352,6.2a4.984,4.984,0,0,1,.492-2.238,3.6,3.6,0,0,1,1.383-1.531,3.9,3.9,0,0,1,2.047-.535,3.692,3.692,0,0,1,2.777,1.1,4.333,4.333,0,0,1,1.152,2.922l.008.445a5.029,5.029,0,0,1-.48,2.234,3.551,3.551,0,0,1-1.375,1.523,3.925,3.925,0,0,1-2.066.539,3.667,3.667,0,0,1-2.863-1.191,4.563,4.563,0,0,1-1.074-3.176Zm1.9.164a3.406,3.406,0,0,0,.539,2.043,1.752,1.752,0,0,0,1.5.738,1.733,1.733,0,0,0,1.5-.75,3.762,3.762,0,0,0,.535-2.2,3.362,3.362,0,0,0-.551-2.031,1.856,1.856,0,0,0-2.973-.012A3.691,3.691,0,0,0,29.418,10.859ZM41.41,8.281a4.7,4.7,0,0,0-.773-.062,1.741,1.741,0,0,0-1.758,1V15h-1.9V6.547h1.813l.047.945a2.139,2.139,0,0,1,1.906-1.1,1.777,1.777,0,0,1,.672.109Z" transform="translate(50.123 130.386)" fill="#f6f6f6"/>
    </g>
    <g transform="matrix(1, 0, 0, 1, 381, 1624)" filter="url(#Trazado_772785)">
      <path id="Trazado_772785-2" data-name="Trazado 772785" d="M77.047,0c42.552,0,77.047,11.667,77.047,26.058S119.6,52.116,77.047,52.116,0,40.45,0,26.058,34.5,0,77.047,0Z" transform="translate(29 90.12)" fill="#221b6b"/>
    </g>
    <path id="Trazado_772786" data-name="Trazado 772786" d="M18.266,10.781V15H16.289V3.625h4.352a4.4,4.4,0,0,1,3.027.993,3.34,3.34,0,0,1,1.121,2.628,3.229,3.229,0,0,1-1.1,2.6,4.613,4.613,0,0,1-3.074.931Zm0-1.594h2.375a2.339,2.339,0,0,0,1.609-.5A1.823,1.823,0,0,0,22.8,7.258a1.967,1.967,0,0,0-.562-1.473A2.168,2.168,0,0,0,20.7,5.219h-2.43ZM31.3,15a2.93,2.93,0,0,1-.219-.789,3.193,3.193,0,0,1-4.3.219,2.325,2.325,0,0,1-.8-1.8,2.4,2.4,0,0,1,1-2.074,4.865,4.865,0,0,1,2.871-.723h1.164V9.281a1.481,1.481,0,0,0-.367-1.051,1.456,1.456,0,0,0-1.117-.395,1.672,1.672,0,0,0-1.062.324,1,1,0,0,0-.414.824h-1.9a2.107,2.107,0,0,1,.461-1.3,3.071,3.071,0,0,1,1.254-.949,4.4,4.4,0,0,1,1.77-.344,3.547,3.547,0,0,1,2.367.746,2.661,2.661,0,0,1,.906,2.1v3.813a4.321,4.321,0,0,0,.32,1.82V15Zm-2.086-1.367a2.159,2.159,0,0,0,1.059-.273,1.827,1.827,0,0,0,.746-.734V11.031H29.992a2.8,2.8,0,0,0-1.586.367,1.189,1.189,0,0,0-.531,1.039,1.109,1.109,0,0,0,.363.871A1.407,1.407,0,0,0,29.211,13.633ZM36.922,15h-1.9V6.547h1.9ZM34.906,4.352a1.008,1.008,0,0,1,.277-.727,1.048,1.048,0,0,1,.793-.289,1.061,1.061,0,0,1,.8.289,1,1,0,0,1,.281.727.977.977,0,0,1-.281.715,1.069,1.069,0,0,1-.8.285,1.056,1.056,0,0,1-.793-.285A.984.984,0,0,1,34.906,4.352Zm8.82,8.352a.861.861,0,0,0-.418-.773,4.445,4.445,0,0,0-1.387-.469,7.129,7.129,0,0,1-1.617-.516,2.158,2.158,0,0,1-1.422-1.992A2.25,2.25,0,0,1,39.8,7.125a3.644,3.644,0,0,1,2.344-.734,3.792,3.792,0,0,1,2.449.75,2.38,2.38,0,0,1,.934,1.945h-1.9a1.17,1.17,0,0,0-.406-.91,1.557,1.557,0,0,0-1.078-.363,1.682,1.682,0,0,0-1.02.289.911.911,0,0,0-.395.773.769.769,0,0,0,.367.68,5.049,5.049,0,0,0,1.484.488,7.027,7.027,0,0,1,1.754.586,2.484,2.484,0,0,1,.945.816,2.082,2.082,0,0,1,.309,1.156,2.2,2.2,0,0,1-.945,1.848,4.031,4.031,0,0,1-2.477.707,4.371,4.371,0,0,1-1.852-.375,3.047,3.047,0,0,1-1.266-1.031,2.441,2.441,0,0,1-.453-1.414h1.844a1.338,1.338,0,0,0,.508,1.035,1.973,1.973,0,0,0,1.242.363,1.92,1.92,0,0,0,1.141-.285A.883.883,0,0,0,43.727,12.7Zm9.734,3.789H46.3V15h7.164Zm.648-5.8A4.984,4.984,0,0,1,54.6,8.457a3.6,3.6,0,0,1,1.383-1.531,3.9,3.9,0,0,1,2.047-.535,3.692,3.692,0,0,1,2.777,1.1,4.333,4.333,0,0,1,1.152,2.922l.008.445a5.029,5.029,0,0,1-.48,2.234,3.551,3.551,0,0,1-1.375,1.523,3.925,3.925,0,0,1-2.066.539,3.667,3.667,0,0,1-2.863-1.191,4.563,4.563,0,0,1-1.074-3.176Zm1.9.164a3.406,3.406,0,0,0,.539,2.043,1.752,1.752,0,0,0,1.5.738,1.733,1.733,0,0,0,1.5-.75,3.762,3.762,0,0,0,.535-2.2,3.362,3.362,0,0,0-.551-2.031,1.856,1.856,0,0,0-2.973-.012A3.691,3.691,0,0,0,56.008,10.859ZM68,8.281a4.7,4.7,0,0,0-.773-.062,1.741,1.741,0,0,0-1.758,1V15h-1.9V6.547h1.813l.047.945a2.139,2.139,0,0,1,1.906-1.1,1.777,1.777,0,0,1,.672.109ZM71.219,15h-1.9V6.547h1.9ZM69.2,4.352a1.008,1.008,0,0,1,.277-.727,1.048,1.048,0,0,1,.793-.289,1.061,1.061,0,0,1,.8.289,1,1,0,0,1,.281.727.977.977,0,0,1-.281.715,1.069,1.069,0,0,1-.8.285,1.056,1.056,0,0,1-.793-.285A.984.984,0,0,1,69.2,4.352Zm3.75,6.359a4.944,4.944,0,0,1,.926-3.145,2.971,2.971,0,0,1,2.457-1.176A2.784,2.784,0,0,1,78.609,7.4l.086-.852h1.711v8.2a3.406,3.406,0,0,1-1.035,2.625,3.943,3.943,0,0,1-2.793.961,4.5,4.5,0,0,1-1.816-.387,3.227,3.227,0,0,1-1.348-1.012l.9-1.141a2.713,2.713,0,0,0,2.156,1.039,2.1,2.1,0,0,0,1.492-.512,1.961,1.961,0,0,0,.547-1.5v-.57a2.8,2.8,0,0,1-2.187.914,2.964,2.964,0,0,1-2.426-1.18A5.1,5.1,0,0,1,72.953,10.711Zm1.891.164a3.4,3.4,0,0,0,.52,2,1.671,1.671,0,0,0,1.441.73,1.827,1.827,0,0,0,1.7-.984V8.906a1.8,1.8,0,0,0-1.687-.961,1.677,1.677,0,0,0-1.457.742A3.811,3.811,0,0,0,74.844,10.875Zm11.234,4.281a3.928,3.928,0,0,1-2.926-1.137,4.124,4.124,0,0,1-1.121-3.027v-.234A5.072,5.072,0,0,1,82.52,8.5a3.716,3.716,0,0,1,1.371-1.551,3.625,3.625,0,0,1,1.969-.555,3.318,3.318,0,0,1,2.668,1.1,4.658,4.658,0,0,1,.941,3.117v.766H83.945a2.539,2.539,0,0,0,.7,1.656,2.1,2.1,0,0,0,1.543.609,2.571,2.571,0,0,0,2.125-1.055l1.023.977a3.418,3.418,0,0,1-1.355,1.176A4.244,4.244,0,0,1,86.078,15.156Zm-.227-7.242a1.6,1.6,0,0,0-1.262.547,2.835,2.835,0,0,0-.613,1.523h3.617V9.844A2.307,2.307,0,0,0,87.086,8.4,1.586,1.586,0,0,0,85.852,7.914ZM92.7,6.547l.055.977a3.039,3.039,0,0,1,2.461-1.133q2.641,0,2.688,3.023V15h-1.9V9.523a1.741,1.741,0,0,0-.348-1.191,1.462,1.462,0,0,0-1.137-.387,1.829,1.829,0,0,0-1.711,1.039V15h-1.9V6.547Z" transform="translate(430 1729.674)" fill="#f6f6f6"/>
    <g transform="matrix(1, 0, 0, 1, 381, 1624)" filter="url(#Trazado_772787)">
      <path id="Trazado_772787-2" data-name="Trazado 772787" d="M77.047,0c42.552,0,77.047,11.667,77.047,26.058S119.6,52.116,77.047,52.116,0,40.45,0,26.058,34.5,0,77.047,0Z" transform="translate(30 262.71)" fill="#221b6b"/>
    </g>
    <path id="Trazado_772788" data-name="Trazado 772788" d="M11.691,12.352H7.285L6.363,15H4.309l4.3-11.375h1.773L14.684,15H12.621ZM7.84,10.758h3.3L9.488,6.039Zm9.336-4.211.055.977a3.039,3.039,0,0,1,2.461-1.133q2.641,0,2.688,3.023V15h-1.9V9.523a1.741,1.741,0,0,0-.348-1.191A1.462,1.462,0,0,0,19,7.945a1.829,1.829,0,0,0-1.711,1.039V15h-1.9V6.547Zm4.609-3.375a2.1,2.1,0,0,1-.5,1.43,1.582,1.582,0,0,1-1.246.57,1.856,1.856,0,0,1-.527-.066,3.354,3.354,0,0,1-.633-.3,3.128,3.128,0,0,0-.578-.281,1.378,1.378,0,0,0-.371-.047.662.662,0,0,0-.5.223.821.821,0,0,0-.207.582l-1.164-.062a2.16,2.16,0,0,1,.5-1.445,1.557,1.557,0,0,1,1.238-.586,2.305,2.305,0,0,1,1.074.352,2.271,2.271,0,0,0,1.035.352.675.675,0,0,0,.508-.223.822.822,0,0,0,.211-.59ZM23.957,10.7a4.984,4.984,0,0,1,.492-2.238,3.6,3.6,0,0,1,1.383-1.531,3.9,3.9,0,0,1,2.047-.535,3.692,3.692,0,0,1,2.777,1.1,4.333,4.333,0,0,1,1.152,2.922l.008.445a5.029,5.029,0,0,1-.48,2.234,3.551,3.551,0,0,1-1.375,1.523,3.925,3.925,0,0,1-2.066.539,3.667,3.667,0,0,1-2.863-1.191,4.563,4.563,0,0,1-1.074-3.176Zm1.9.164a3.406,3.406,0,0,0,.539,2.043,1.752,1.752,0,0,0,1.5.738,1.733,1.733,0,0,0,1.5-.75,3.762,3.762,0,0,0,.535-2.2,3.362,3.362,0,0,0-.551-2.031A1.856,1.856,0,0,0,26.4,8.652,3.691,3.691,0,0,0,25.855,10.859Zm13.781,5.633H32.473V15h7.164ZM49.848,15H47.871L42.8,6.93V15H40.824V3.625H42.8l5.086,8.1v-8.1h1.961Zm7.2,0a2.93,2.93,0,0,1-.219-.789,3.193,3.193,0,0,1-4.3.219,2.325,2.325,0,0,1-.8-1.8,2.4,2.4,0,0,1,1-2.074,4.865,4.865,0,0,1,2.871-.723H56.77V9.281A1.481,1.481,0,0,0,56.4,8.23a1.456,1.456,0,0,0-1.117-.395,1.672,1.672,0,0,0-1.062.324,1,1,0,0,0-.414.824h-1.9a2.107,2.107,0,0,1,.461-1.3,3.071,3.071,0,0,1,1.254-.949,4.4,4.4,0,0,1,1.77-.344,3.547,3.547,0,0,1,2.367.746,2.661,2.661,0,0,1,.906,2.1v3.813a4.321,4.321,0,0,0,.32,1.82V15Zm-2.086-1.367a2.159,2.159,0,0,0,1.059-.273,1.827,1.827,0,0,0,.746-.734V11.031H55.746a2.8,2.8,0,0,0-1.586.367,1.189,1.189,0,0,0-.531,1.039,1.109,1.109,0,0,0,.363.871A1.407,1.407,0,0,0,54.965,13.633Zm9.164.008a1.716,1.716,0,0,0,1.18-.414,1.415,1.415,0,0,0,.5-1.023H67.6a2.789,2.789,0,0,1-.492,1.473,3.228,3.228,0,0,1-1.25,1.082,3.725,3.725,0,0,1-1.7.4,3.6,3.6,0,0,1-2.812-1.148A4.555,4.555,0,0,1,60.3,10.836v-.2a4.479,4.479,0,0,1,1.031-3.09,3.571,3.571,0,0,1,2.813-1.16A3.473,3.473,0,0,1,66.6,7.27a3.148,3.148,0,0,1,1,2.309H65.809a1.738,1.738,0,0,0-.5-1.2,1.6,1.6,0,0,0-1.184-.469,1.671,1.671,0,0,0-1.422.668,3.408,3.408,0,0,0-.508,2.027v.3a3.465,3.465,0,0,0,.5,2.051A1.669,1.669,0,0,0,64.129,13.641ZM71.051,15h-1.9V6.547h1.9ZM69.035,4.352a1.008,1.008,0,0,1,.277-.727,1.048,1.048,0,0,1,.793-.289,1.061,1.061,0,0,1,.8.289,1,1,0,0,1,.281.727.977.977,0,0,1-.281.715,1.069,1.069,0,0,1-.8.285,1.056,1.056,0,0,1-.793-.285A.984.984,0,0,1,69.035,4.352Zm5.867,2.2.055.883a3.042,3.042,0,0,1,2.438-1.039,2.337,2.337,0,0,1,2.32,1.3,3,3,0,0,1,2.594-1.3,2.636,2.636,0,0,1,2.082.773,3.405,3.405,0,0,1,.7,2.281V15h-1.9V9.5a1.681,1.681,0,0,0-.352-1.18,1.539,1.539,0,0,0-1.164-.375,1.581,1.581,0,0,0-1.059.348,1.833,1.833,0,0,0-.574.91l.008,5.8h-1.9V9.438a1.354,1.354,0,0,0-1.523-1.492,1.671,1.671,0,0,0-1.617.93V15h-1.9V6.547ZM89.059,15h-1.9V6.547h1.9ZM87.043,4.352a1.008,1.008,0,0,1,.277-.727,1.048,1.048,0,0,1,.793-.289,1.061,1.061,0,0,1,.8.289,1,1,0,0,1,.281.727.977.977,0,0,1-.281.715,1.069,1.069,0,0,1-.8.285,1.056,1.056,0,0,1-.793-.285A.984.984,0,0,1,87.043,4.352Zm7.8,10.8a3.928,3.928,0,0,1-2.926-1.137A4.124,4.124,0,0,1,90.8,10.992v-.234A5.072,5.072,0,0,1,91.289,8.5,3.716,3.716,0,0,1,92.66,6.945a3.625,3.625,0,0,1,1.969-.555,3.318,3.318,0,0,1,2.668,1.1,4.658,4.658,0,0,1,.941,3.117v.766H92.715a2.539,2.539,0,0,0,.7,1.656,2.1,2.1,0,0,0,1.543.609,2.571,2.571,0,0,0,2.125-1.055l1.023.977a3.418,3.418,0,0,1-1.355,1.176A4.244,4.244,0,0,1,94.848,15.156Zm-.227-7.242a1.6,1.6,0,0,0-1.262.547,2.835,2.835,0,0,0-.613,1.523h3.617V9.844A2.307,2.307,0,0,0,95.855,8.4,1.586,1.586,0,0,0,94.621,7.914Zm6.852-1.367.055.977a3.039,3.039,0,0,1,2.461-1.133q2.641,0,2.688,3.023V15h-1.9V9.523a1.741,1.741,0,0,0-.348-1.191,1.462,1.462,0,0,0-1.137-.387,1.829,1.829,0,0,0-1.711,1.039V15h-1.9V6.547Zm9.516-2.055V6.547h1.492V7.953h-1.492v4.719a1.039,1.039,0,0,0,.191.7.888.888,0,0,0,.684.215,2.925,2.925,0,0,0,.664-.078v1.469a4.676,4.676,0,0,1-1.25.18q-2.188,0-2.187-2.414V7.953H107.7V6.547h1.391V4.492Zm2.352,6.2a4.984,4.984,0,0,1,.492-2.238,3.6,3.6,0,0,1,1.383-1.531,3.9,3.9,0,0,1,2.047-.535,3.692,3.692,0,0,1,2.777,1.1,4.333,4.333,0,0,1,1.152,2.922l.008.445a5.029,5.029,0,0,1-.48,2.234,3.551,3.551,0,0,1-1.375,1.523,3.925,3.925,0,0,1-2.066.539,3.667,3.667,0,0,1-2.863-1.191,4.563,4.563,0,0,1-1.074-3.176Zm1.9.164a3.406,3.406,0,0,0,.539,2.043,1.752,1.752,0,0,0,1.5.738,1.733,1.733,0,0,0,1.5-.75,3.762,3.762,0,0,0,.535-2.2,3.362,3.362,0,0,0-.551-2.031,1.856,1.856,0,0,0-2.973-.012A3.691,3.691,0,0,0,115.238,10.859Z" transform="translate(425 1902.705)" fill="#f6f6f6"/>
  </g>
</svg>
