<svg xmlns="http://www.w3.org/2000/svg" xmlns:xlink="http://www.w3.org/1999/xlink" width="85" height="88" viewBox="0 0 85 88">
  <defs>
    <filter id="Elipse_7683" x="7.114" y="11.338" width="70.773" height="70.773" filterUnits="userSpaceOnUse">
      <feOffset dy="3" input="SourceAlpha"/>
      <feGaussianBlur stdDeviation="3" result="blur"/>
      <feFlood flood-opacity="0.161"/>
      <feComposite operator="in" in2="blur"/>
      <feComposite in="SourceGraphic"/>
    </filter>
  </defs>
  <g id="Grupo_1021474" data-name="Grupo 1021474" transform="translate(-1335 -455)">
    <rect id="Rectángulo_345292" data-name="Rectángulo 345292" width="85" height="88" rx="5" transform="translate(1335 455)" fill="#221b6b"/>
    <g id="Grupo_1019762" data-name="Grupo 1019762" transform="translate(-1.067 30.456)">
      <g id="Grupo_1021475" data-name="Grupo 1021475" transform="translate(1352.181 440.772)">
        <g id="Grupo_1019745" data-name="Grupo 1019745" transform="translate(0 1.111)">
          <g id="Grupo_1003705" data-name="Grupo 1003705" transform="translate(0 0)">
            <g transform="matrix(1, 0, 0, 1, -16.11, -17.34)" filter="url(#Elipse_7683)">
              <circle id="Elipse_7683-2" data-name="Elipse 7683" cx="26.386" cy="26.386" r="26.386" transform="translate(16.11 17.34)" fill="#362b9e"/>
            </g>
          </g>
        </g>
        <g id="Page-1" transform="translate(4.448 0)">
          <g id="_021---Freelancer" data-name="021---Freelancer" transform="translate(0 0)">
            <path id="Path" d="M36.776,23.172a3.7,3.7,0,0,1-3.7,3.694v2.018a3.711,3.711,0,0,1-1.268,2.8l-2.963,2.592H16.935L13.973,31.68a3.711,3.711,0,0,1-1.268-2.8V26.866a3.694,3.694,0,1,1,0-7.388v-.019s0-8.333,5.555-6.481,5.555,3.7,12.962,2.778a4.012,4.012,0,0,1,1.852,3.7v.019A3.7,3.7,0,0,1,36.776,23.172Z" transform="translate(-0.668 -0.947)" fill="#edeaff" fill-rule="evenodd"/>
            <path id="Path-2" data-name="Path" d="M31.661,27.11v2.018a3.711,3.711,0,0,1-1.268,2.8L27.43,34.517h2.778l2.963-2.592a3.711,3.711,0,0,0,1.268-2.8V27.11a3.694,3.694,0,0,0,0-7.388V19.7A4.012,4.012,0,0,0,32.587,16c-.926.116-1.73.185-2.448.222A4.2,4.2,0,0,1,31.661,19.7Z" transform="translate(-2.034 -1.191)" fill="#d5cef8" fill-rule="evenodd"/>
            <path id="Path-3" data-name="Path" d="M35.06,12.138c0,5.546-1.852,6.472-1.852,6.472v-.019a4.012,4.012,0,0,0-1.852-3.7c-7.407.926-7.407-.926-12.962-2.778s-5.555,6.481-5.555,6.481v.019S7.285,9.37,14.691,5.676c0,0,4.3-7.712,14.536-3.324a.463.463,0,0,1,.019.843A3.24,3.24,0,0,0,28,4.2a.463.463,0,0,0,.222.722C29.959,5.49,35.06,7.546,35.06,12.138Z" transform="translate(-0.804 -0.079)" fill="#826be9" fill-rule="evenodd"/>
            <path id="Path-4" data-name="Path" d="M29.1,4.928a.463.463,0,0,1-.222-.722A3.24,3.24,0,0,1,30.132,3.2a.463.463,0,0,0-.019-.843,14.006,14.006,0,0,0-7.322-1.259,16.3,16.3,0,0,1,4.544,1.259.463.463,0,0,1,.019.843A3.24,3.24,0,0,0,26.1,4.205a.463.463,0,0,0,.222.722c1.741.565,6.842,2.62,6.842,7.212a17.232,17.232,0,0,1-.278,3.261,4.336,4.336,0,0,1,1.2,3.192v.019s1.852-.926,1.852-6.472c0-4.592-5.1-6.648-6.842-7.212Z" transform="translate(-1.69 -0.081)" fill="#6e55df" fill-rule="evenodd"/>
            <path id="Path-5" data-name="Path" d="M8.407,54.29v2.778a.926.926,0,0,0,.926.926h-7.4a.926.926,0,0,1-.926-1.028,17.221,17.221,0,0,1,4.583-9.157A13.172,13.172,0,0,1,9.064,45.43l.907,7.934H9.333a.926.926,0,0,0-.926.926Z" transform="translate(-0.074 -3.374)" fill="#ab9df1" fill-rule="evenodd"/>
            <path id="Path-6" data-name="Path" d="M9.7,53.364h.639L9.435,45.43a16.177,16.177,0,0,0-2.592,1.606l.722,6.328H6.926A.926.926,0,0,0,6,54.29v2.778a.926.926,0,0,0,.926.926H9.7a.926.926,0,0,1-.926-.926V54.29a.926.926,0,0,1,.926-.926Z" transform="translate(-0.445 -3.374)" fill="#826be9" fill-rule="evenodd"/>
            <path id="Path-7" data-name="Path" d="M46.272,56.966a.926.926,0,0,1-.926,1.028h-7.4a.926.926,0,0,0,.926-.926V54.29a.926.926,0,0,0-.926-.926H37.31l.907-7.934a13.172,13.172,0,0,1,3.472,2.379A17.221,17.221,0,0,1,46.272,56.966Z" transform="translate(-2.767 -3.374)" fill="#ab9df1" fill-rule="evenodd"/>
            <path id="Path-8" data-name="Path" d="M41.747,47.809a13.172,13.172,0,0,0-3.472-2.379l-.185,1.606a8.234,8.234,0,0,1,.88.773,17.221,17.221,0,0,1,4.583,9.157.926.926,0,0,1-.926,1.028H45.4a.926.926,0,0,0,.926-1.028A17.221,17.221,0,0,0,41.747,47.809Z" transform="translate(-2.825 -3.374)" fill="#826be9" fill-rule="evenodd"/>
            <rect id="Rectangle" width="27.775" height="4.629" rx="1" transform="translate(8.333 49.991)" fill="#46928d"/>
            <path id="Path-9" data-name="Path" d="M36.118,44.731l-.907,7.934H10.565l-.907-7.934-.639-5.648A2.8,2.8,0,0,1,11.843,36H33.933a2.8,2.8,0,0,1,2.1.908Z" transform="translate(-0.668 -2.674)" fill="#71cc98" fill-rule="evenodd"/>
            <path id="Path-10" data-name="Path" d="M35.708,36H32.93a2.8,2.8,0,0,1,2.824,3.083l-.639,5.648-.907,7.934h2.778l.907-7.934.639-5.648A2.8,2.8,0,0,0,35.708,36Z" transform="translate(-2.442 -2.674)" fill="#46928d" fill-rule="evenodd"/>
            <circle id="Oval" cx="2.778" cy="2.778" r="2.778" transform="translate(19.443 38.881)" fill="#f5f5f5"/>
            <g id="Grupo_1021453" data-name="Grupo 1021453">
              <path id="Shape" d="M.013,53.488a1.838,1.838,0,0,0,.45,1.438,1.865,1.865,0,0,0,1.389.625H42.582a1.865,1.865,0,0,0,1.389-.625,1.832,1.832,0,0,0,.454-1.429,18.2,18.2,0,0,0-4.837-9.7,12.988,12.988,0,0,0-3.153-2.255l.572-5.025a3.669,3.669,0,0,0-.912-2.853A3.8,3.8,0,0,0,33.264,32.4H30.637l1.111-.969a4.637,4.637,0,0,0,1.582-3.493V26.757a4.617,4.617,0,0,0,.764-8.828,12.564,12.564,0,0,0,1.088-5.866c0-4.695-4.568-7-6.785-7.847a2.417,2.417,0,0,1,.425-.253,1.384,1.384,0,0,0-.034-2.537C19.013-2.764,14.16,3.512,13.24,4.893A7.323,7.323,0,0,0,9.43,9.38c-.926,3.177.357,6.666,1.194,8.448a4.618,4.618,0,0,0,.486,8.929v1.185a4.636,4.636,0,0,0,1.584,3.492l1.109.97H11.177a3.8,3.8,0,0,0-2.835,1.262,3.669,3.669,0,0,0-.912,2.853L8,41.545A13.014,13.014,0,0,0,4.848,43.8,18.172,18.172,0,0,0,.013,53.488Zm9.245.211V50.922H35.182V53.7Zm29-8.619A16.362,16.362,0,0,1,42.582,53.7H37.034V50.922a1.852,1.852,0,0,0-1.456-1.807l.634-5.574A9.868,9.868,0,0,1,38.255,45.081ZM11.211,9.893A5.543,5.543,0,0,1,14.3,6.429a.94.94,0,0,0,.4-.378c.154-.278,3.762-6.536,12.519-3.263a3.994,3.994,0,0,0-.755.771A1.389,1.389,0,0,0,26.23,4.8a1.408,1.408,0,0,0,.9.926c1.455.474,6.2,2.326,6.2,6.334a13.827,13.827,0,0,1-.49,4.038,4.507,4.507,0,0,0-1.874-2.12.91.91,0,0,0-.529-.093c-4.953.618-6.347-.039-8.653-1.129a32.337,32.337,0,0,0-3.9-1.609,4.376,4.376,0,0,0-4.138.423,6.394,6.394,0,0,0-2.179,3.589,9.207,9.207,0,0,1-.356-5.27Zm2.7,20.147a2.784,2.784,0,0,1-.952-2.1V25.924A.926.926,0,0,0,12.036,25a2.761,2.761,0,0,1-.926-5.37v1.667a.926.926,0,0,0,1.852,0V18.517c0-1.14.343-4.339,1.868-5.437a2.616,2.616,0,0,1,2.468-.167,30.808,30.808,0,0,1,3.7,1.529c2.379,1.125,4.111,1.944,9.335,1.333a3.326,3.326,0,0,1,1.15,2.74v2.778a.926.926,0,1,0,1.852,0V19.628A2.761,2.761,0,0,1,32.4,25a.926.926,0,0,0-.926.926v2.018a2.785,2.785,0,0,1-.953,2.1l-2.7,2.364H16.615ZM9.721,34.9a1.944,1.944,0,0,1,1.454-.648H33.264a1.944,1.944,0,0,1,1.454.648,1.789,1.789,0,0,1,.453,1.41L33.718,49.07h-23L9.27,36.31A1.789,1.789,0,0,1,9.721,34.9Zm-1.494,8.64.634,5.574a1.852,1.852,0,0,0-1.454,1.8V53.7H1.852a16.41,16.41,0,0,1,4.332-8.616A9.906,9.906,0,0,1,8.229,43.54Z" transform="translate(0 -0.005)"/>
              <path id="Shape-2" data-name="Shape" d="M23.7,48.407A3.7,3.7,0,1,0,20,44.7,3.7,3.7,0,0,0,23.7,48.407Zm0-5.555A1.852,1.852,0,1,1,21.852,44.7,1.852,1.852,0,0,1,23.7,42.852Z" transform="translate(-1.483 -3.045)"/>
            </g>
          </g>
        </g>
      </g>
    </g>
  </g>
</svg>
