<svg xmlns="http://www.w3.org/2000/svg" width="89.569" height="89.569" viewBox="0 0 89.569 89.569">
  <g id="Grupo_1022364" data-name="Grupo 1022364" transform="translate(-4070.715 9747.285)">
    <path id="Trazado_740935" data-name="Trazado 740935" d="M44.785,0A44.785,44.785,0,1,1,0,44.785,44.785,44.785,0,0,1,44.785,0Z" transform="translate(4070.715 -9747.285)" fill="#362b9e"/>
    <g id="Icons" transform="translate(4071.871 -9747.259)">
      <g id="Grupo_1022343" data-name="Grupo 1022343" transform="translate(4 4)">
        <g id="Grupo_1022310" data-name="Grupo 1022310" transform="translate(0 53.104)">
          <path id="Trazado_741001" data-name="Trazado 741001" d="M26.657,49.426l8.037-3.621c-.043-.035-.082-.075-.126-.11L26.36,42l-5.59,5.59L15.18,42,5.546,46.338A2.794,2.794,0,0,0,4,48.838V61.565H23.565V54.428a5.557,5.557,0,0,1,3.093-5Z" transform="translate(-4 -42)" fill="#505050"/>
        </g>
        <g id="Grupo_1022311" data-name="Grupo 1022311" transform="translate(0 53.104)">
          <path id="Trazado_741002" data-name="Trazado 741002" d="M11.136,46.338l5.78-2.6L15.18,42,5.546,46.338A2.794,2.794,0,0,0,4,48.838V61.565H9.59V48.838a2.794,2.794,0,0,1,1.546-2.5Z" transform="translate(-4 -42)" fill="#3c3c3c"/>
        </g>
        <g id="Grupo_1022312" data-name="Grupo 1022312" transform="translate(47.565 53.104)">
          <path id="Trazado_741003" data-name="Trazado 741003" d="M68.73,48.838a2.8,2.8,0,0,0-1.546-2.5L57.55,42l-5.59,5.59L46.371,42l-8.209,3.7c-.043.035-.082.075-.126.11l7.938,3.575a5.589,5.589,0,0,1,3.192,5.046v7.137H68.73Z" transform="translate(-38.036 -42)" fill="#505050"/>
        </g>
        <g id="Grupo_1022313" data-name="Grupo 1022313" transform="translate(11.18 53.104)">
          <path id="Trazado_741004" data-name="Trazado 741004" d="M23.18,49.6V42l-5.59,5.59L12,42v8.385l5.59,5.59,2.988-2.986A5.53,5.53,0,0,1,23.18,49.6Z" transform="translate(-12 -42)" fill="#f0f0f0"/>
        </g>
        <g id="Grupo_1022314" data-name="Grupo 1022314" transform="translate(55.899 53.104)">
          <path id="Trazado_741005" data-name="Trazado 741005" d="M49.59,47.59,44,42v7.612a5.59,5.59,0,0,1,2.6,3.375l2.989,2.988,5.59-5.59V42Z" transform="translate(-44 -42)" fill="#f0f0f0"/>
        </g>
        <g id="Grupo_1022315" data-name="Grupo 1022315" transform="translate(13.975 58.694)">
          <path id="Trazado_741006" data-name="Trazado 741006" d="M19.59,48.795,16.795,46,14,48.795l1.4,1.4L14,51.59l2.795,2.795L19.59,51.59l-1.4-1.4Z" transform="translate(-14 -46)" fill="#f44336"/>
        </g>
        <g id="Grupo_1022316" data-name="Grupo 1022316" transform="translate(15.372 65.681)">
          <path id="Trazado_741007" data-name="Trazado 741007" d="M15,51v6.987h2.795V51l-1.4,1.4Z" transform="translate(-15 -51)" fill="#3c3c3c"/>
        </g>
        <g id="Grupo_1022317" data-name="Grupo 1022317" transform="translate(58.694 58.694)">
          <path id="Trazado_741008" data-name="Trazado 741008" d="M51.59,48.795,48.795,46,46,48.795l1.4,1.4L46,51.59l2.795,2.795L51.59,51.59l-1.4-1.4Z" transform="translate(-46 -46)" fill="#f44336"/>
        </g>
        <g id="Grupo_1022318" data-name="Grupo 1022318" transform="translate(60.092 65.681)">
          <path id="Trazado_741009" data-name="Trazado 741009" d="M47,51v6.987h2.795V51l-1.4,1.4Z" transform="translate(-47 -51)" fill="#3c3c3c"/>
        </g>
        <g id="Grupo_1022319" data-name="Grupo 1022319" transform="translate(22.36 58.694)">
          <path id="Trazado_741010" data-name="Trazado 741010" d="M53.539,65.565H20V52.838a2.794,2.794,0,0,1,1.546-2.5L31.18,46l5.59,5.59L42.36,46l9.634,4.338a2.794,2.794,0,0,1,1.546,2.5Z" transform="translate(-20 -46)" fill="#505050"/>
        </g>
        <g id="Grupo_1022320" data-name="Grupo 1022320" transform="translate(22.36 58.694)">
          <path id="Trazado_741011" data-name="Trazado 741011" d="M27.136,50.338l5.78-2.6L31.18,46l-9.634,4.338A2.794,2.794,0,0,0,20,52.838V65.565h5.59V52.838a2.794,2.794,0,0,1,1.546-2.5Z" transform="translate(-20 -46)" fill="#3c3c3c"/>
        </g>
        <g id="Grupo_1022321" data-name="Grupo 1022321" transform="translate(33.539 52.625)">
          <path id="Trazado_741012" data-name="Trazado 741012" d="M28,47.726V41.657H39.18v6.069l-5.59,5.59Z" transform="translate(-28 -41.657)" fill="#d2aa82"/>
        </g>
        <g id="Grupo_1022322" data-name="Grupo 1022322" transform="translate(11.18 47.035)">
          <path id="Trazado_741013" data-name="Trazado 741013" d="M22.118,37.657H12v6.069l5.59,5.59,5.59-5.59V38.44a5.546,5.546,0,0,1-1.062-.783Z" transform="translate(-12 -37.657)" fill="#d2aa82"/>
        </g>
        <g id="Grupo_1022323" data-name="Grupo 1022323" transform="translate(55.899 47.035)">
          <path id="Trazado_741014" data-name="Trazado 741014" d="M45.062,37.657A5.612,5.612,0,0,1,44,38.441v5.285l5.59,5.59,5.59-5.59V37.657Z" transform="translate(-44 -37.657)" fill="#d2aa82"/>
        </g>
        <g id="Grupo_1022324" data-name="Grupo 1022324" transform="translate(22.36 27.95)">
          <path id="Trazado_741015" data-name="Trazado 741015" d="M50.745,35.18H47.95V26.795A2.794,2.794,0,0,0,45.155,24H28.385a2.794,2.794,0,0,0-2.795,2.795V35.18H22.795A2.794,2.794,0,0,0,20,37.975v1.068a2.794,2.794,0,0,0,1.546,2.5l4.044,2.022v.479A5.583,5.583,0,0,0,27.228,48l2.316,2.316A5.592,5.592,0,0,0,33.5,51.95h6.549A5.583,5.583,0,0,0,44,50.312L46.312,48a5.592,5.592,0,0,0,1.638-3.952v-.479l4.044-2.022a2.8,2.8,0,0,0,1.546-2.5V37.975a2.794,2.794,0,0,0-2.795-2.795Z" transform="translate(-20 -24)" fill="#f0c8a0"/>
        </g>
        <g id="Grupo_1022325" data-name="Grupo 1022325" transform="translate(47.514 27.95)">
          <path id="Trazado_741016" data-name="Trazado 741016" d="M43.59,37.975A5.59,5.59,0,0,1,38,32.385V24h2.795a2.794,2.794,0,0,1,2.795,2.795Z" transform="translate(-38 -24)" fill="#dc9600"/>
        </g>
        <g id="Grupo_1022326" data-name="Grupo 1022326" transform="translate(0 22.36)">
          <path id="Trazado_741017" data-name="Trazado 741017" d="M23.565,40.632V39.565a5.57,5.57,0,0,1,2.869-4.853,5.547,5.547,0,0,1-.074-.736v-5.59a11.14,11.14,0,0,1,3.649-8.238A2.793,2.793,0,0,0,29.155,20H12.385A2.794,2.794,0,0,0,9.59,22.795V31.18H6.795A2.794,2.794,0,0,0,4,33.975v1.068a2.794,2.794,0,0,0,1.546,2.5L9.59,39.565v.479A5.583,5.583,0,0,0,11.228,44l2.316,2.316A5.592,5.592,0,0,0,17.5,47.95h6.549A5.583,5.583,0,0,0,28,46.312L28,46.306l-1.349-.674a5.563,5.563,0,0,1-3.088-5Z" transform="translate(-4 -20)" fill="#f0c8a0"/>
        </g>
        <g id="Grupo_1022327" data-name="Grupo 1022327" transform="translate(51.406 22.36)">
          <path id="Trazado_741018" data-name="Trazado 741018" d="M64.843,31.18H62.048V22.795A2.794,2.794,0,0,0,59.253,20H42.483a2.774,2.774,0,0,0-1.7.588,8.332,8.332,0,0,1,1.4,2.822,5.577,5.577,0,0,1,3.093,4.975v6.367a5.572,5.572,0,0,1,2.795,4.813v1.068a5.562,5.562,0,0,1-3.09,5l-1.349.674.006.006a5.592,5.592,0,0,0,3.952,1.638h6.549a5.583,5.583,0,0,0,3.952-1.638L60.408,44a5.592,5.592,0,0,0,1.638-3.952v-.479l4.044-2.022a2.8,2.8,0,0,0,1.547-2.5V33.975a2.794,2.794,0,0,0-2.795-2.795Z" transform="translate(-40.785 -20)" fill="#f0c8a0"/>
        </g>
        <g id="Grupo_1022328" data-name="Grupo 1022328" transform="translate(2.795 16.77)">
          <path id="Trazado_741019" data-name="Trazado 741019" d="M31.019,20.391A5.588,5.588,0,0,0,25.565,16H14.385A8.384,8.384,0,0,0,6,24.385v5.59A2.8,2.8,0,0,0,8.795,32.77h7.028a16.751,16.751,0,0,0,9.76-3.156A11.166,11.166,0,0,1,31.019,20.391Z" transform="translate(-6 -16)" fill="#fab400"/>
        </g>
        <g id="Grupo_1022333" data-name="Grupo 1022333" transform="translate(33.539 58.694)">
          <path id="Trazado_741022" data-name="Trazado 741022" d="M28,46v8.385l5.59,5.59,5.59-5.59V46l-5.59,5.59Z" transform="translate(-28 -46)" fill="#f0f0f0"/>
        </g>
        <g id="Grupo_1022334" data-name="Grupo 1022334" transform="translate(36.334 64.284)">
          <path id="Trazado_741023" data-name="Trazado 741023" d="M35.59,52.795,32.795,50,30,52.795l1.4,1.4L30,55.59l2.795,2.795L35.59,55.59l-1.4-1.4Z" transform="translate(-30 -50)" fill="#f44336"/>
        </g>
        <g id="Grupo_1022335" data-name="Grupo 1022335" transform="translate(37.732 71.271)">
          <path id="Trazado_741024" data-name="Trazado 741024" d="M31,55v6.987h2.795V55l-1.4,1.4Z" transform="translate(-31 -55)" fill="#3c3c3c"/>
        </g>
        <g id="Grupo_1022337" data-name="Grupo 1022337" transform="translate(69.874 22.36)">
          <path id="Trazado_741026" data-name="Trazado 741026" d="M59.59,33.975A5.59,5.59,0,0,1,54,28.385V20h2.795a2.794,2.794,0,0,1,2.795,2.795Z" transform="translate(-54 -20)" fill="#dc9600"/>
        </g>
        <g id="Grupo_1022338" data-name="Grupo 1022338" transform="translate(48.831 16.77)">
          <path id="Trazado_741027" data-name="Trazado 741027" d="M57.19,16H46.01a8.37,8.37,0,0,0-7.068,3.888A8.419,8.419,0,0,1,42.918,25a5.573,5.573,0,0,1,3.093,4.974V32.77h1.438a16.764,16.764,0,0,0,11.858-4.912l1.836-1.836a5.592,5.592,0,0,0,1.638-3.952V21.59A5.59,5.59,0,0,0,57.19,16Z" transform="translate(-38.942 -16)" fill="#fab400"/>
        </g>
        <g id="Grupo_1022339" data-name="Grupo 1022339" transform="translate(25.155 22.691)">
          <path id="Trazado_741028" data-name="Trazado 741028" d="M43.731,20.342a13.923,13.923,0,0,1-15.662-.1A8.383,8.383,0,0,0,22,28.291v5.59a2.8,2.8,0,0,0,2.795,2.795h7.028A16.764,16.764,0,0,0,43.68,31.763l1.836-1.836a5.592,5.592,0,0,0,1.638-3.952V25.5A5.593,5.593,0,0,0,43.731,20.342Z" transform="translate(-22 -20.237)" fill="#fab400"/>
        </g>
        <g id="gmail_2_" data-name="gmail (2)" transform="translate(28.931 -62.77)">
          <rect id="Rectángulo_372964" data-name="Rectángulo 372964" width="14.676" height="15.539" transform="translate(2.843 64)" fill="#eceff1"/>
          <path id="Trazado_740933" data-name="Trazado 740933" d="M256,154.556l7.649,6.04V148.672Z" transform="translate(-245.802 -81.299)" fill="#cfd8dc"/>
          <path id="Trazado_740934" data-name="Trazado 740934" d="M18.484,64h-.637L10.2,70.04,2.55,64H1.912A1.913,1.913,0,0,0,0,65.912V77.385A1.913,1.913,0,0,0,1.912,79.3H2.55V67.373L10.2,73.256l7.649-5.884V79.3h.637A1.913,1.913,0,0,0,20.4,77.385V65.912A1.913,1.913,0,0,0,18.484,64Z" fill="#f44336"/>
        </g>
      </g>
    </g>
  </g>
</svg>
