<svg xmlns="http://www.w3.org/2000/svg" width="89.569" height="89.569" viewBox="0 0 89.569 89.569">
  <g id="Grupo_1022363" data-name="Grupo 1022363" transform="translate(-4430.715 9747.285)">
    <path id="Trazado_740994" data-name="Trazado 740994" d="M44.785,0A44.785,44.785,0,1,1,0,44.785,44.785,44.785,0,0,1,44.785,0Z" transform="translate(4430.715 -9747.285)" fill="#362b9e"/>
    <g id="montanas" transform="translate(4434.442 -9748.285)">
      <path id="Trazado_741029" data-name="Trazado 741029" d="M140.358,155.826,115.413,95.361a2.773,2.773,0,0,0-5.128,0L86,154.174Z" transform="translate(-71.791 -77.338)" fill="#a56c34"/>
      <path id="Trazado_741030" data-name="Trazado 741030" d="M256.714,155.658l5.521.168L237.29,95.361a2.773,2.773,0,0,0-5.128,0l-.162.392Z" transform="translate(-193.669 -77.338)" fill="#965d27"/>
      <path id="Trazado_741031" data-name="Trazado 741031" d="M306.253,260.325l-18.494-44.873a2.774,2.774,0,0,0-5.128,0L268.5,249.219Z" transform="translate(-224.138 -177.587)" fill="#bd8957"/>
      <path id="Trazado_741032" data-name="Trazado 741032" d="M370.618,258.5l6.2,1.825-18.494-44.873a2.773,2.773,0,0,0-5.128,0l-.163.39Z" transform="translate(-294.708 -177.587)" fill="#b07a46"/>
      <path id="Trazado_741033" data-name="Trazado 741033" d="M32.548,319.219l-13.7-33.264a2.773,2.773,0,0,0-5.132-.008L0,319.219Z" transform="translate(0 -236.434)" fill="#bd8957"/>
      <path id="Trazado_741034" data-name="Trazado 741034" d="M0,430.47c0-.083,12.226-12.97,41.057-12.97,28,0,41.057,12.887,41.057,12.97Z" transform="translate(0 -347.686)" fill="#9cc042"/>
      <path id="Trazado_741035" data-name="Trazado 741035" d="M229.885,417.5q-1.89,0-3.684.073c25.534,1.031,37.472,12.818,37.472,12.9h7.27C270.943,430.387,257.89,417.5,229.885,417.5Z" transform="translate(-188.828 -347.686)" fill="#85aa18"/>
      <path id="Trazado_741036" data-name="Trazado 741036" d="M161.258,125.4l.04-2.9a2.087,2.087,0,1,1,4.173.039l.04,3.893a2.087,2.087,0,1,0,4.173.039l.04-10.259a2.087,2.087,0,1,1,4.173.039L173.8,117.6a2.087,2.087,0,0,0,2.087,2.126l5.235-.052L171.1,95.361a2.773,2.773,0,0,0-5.128,0L152.7,127.483h6.466A2.1,2.1,0,0,0,161.258,125.4Z" transform="translate(-127.475 -77.338)" fill="#fff5e6"/>
      <path id="Trazado_741037" data-name="Trazado 741037" d="M237.29,95.361a2.773,2.773,0,0,0-5.128,0l-.162.392,9.868,23.919-.231,0a2.088,2.088,0,0,0,.448.049l5.235-.052Z" transform="translate(-193.669 -77.338)" fill="#fae8cd"/>
      <path id="Trazado_741038" data-name="Trazado 741038" d="M313.763,235.837l.04,3.893a2.087,2.087,0,1,0,4.173.039l.04-10.259a2.087,2.087,0,1,1,4.173.039L322.1,230.9a2.087,2.087,0,0,0,2.087,2.126l3.588-.058-7.219-17.516a2.773,2.773,0,0,0-5.128,0l-7.64,18.257h3.893a1.991,1.991,0,0,1,2.087,2.126Z" transform="translate(-256.931 -177.589)" fill="#fff5e6"/>
      <path id="Trazado_741039" data-name="Trazado 741039" d="M358.328,215.452a2.773,2.773,0,0,0-5.128,0l-.163.39,4.774,11.583c.023,0,.046,0,.07,0a2.087,2.087,0,0,1,2.087,2.126l-.094,1.352a2.087,2.087,0,0,0,2.087,2.126l3.588-.058Z" transform="translate(-294.708 -177.587)" fill="#fae8cd"/>
      <path id="Trazado_741040" data-name="Trazado 741040" d="M54.641,301.292l.04.919a2.087,2.087,0,1,0,4.173.039l.04-5.468a2.087,2.087,0,0,1,2.087-2.087H64.2l-3.6-8.741a2.774,2.774,0,0,0-5.132-.008l-5.448,13.218h2.532a1.991,1.991,0,0,1,2.087,2.126Z" transform="translate(-41.758 -236.435)" fill="#fff5e6"/>
      <circle id="Elipse_7753" data-name="Elipse 7753" cx="5.751" cy="5.751" r="5.751" transform="translate(19.286 6.814)" fill="#f7b30c"/>
      <path id="Trazado_741041" data-name="Trazado 741041" d="M18.159,133.913a4.686,4.686,0,1,0-2.347-8.742,4.685,4.685,0,0,0-9.348-.281,4.686,4.686,0,1,0-1.778,9.023Z" transform="translate(0 -99.869)" fill="#e0f5ff"/>
      <path id="Trazado_741043" data-name="Trazado 741043" d="M373.158,66.913a4.686,4.686,0,1,0-2.347-8.742,4.685,4.685,0,0,0-9.348-.281,4.686,4.686,0,1,0-1.778,9.023Z" transform="translate(-305.576 -43.508)" fill="#e0f5ff"/>
      <g id="n" transform="translate(57.12 -25.245)">
        <g id="Grupo_1022353" data-name="Grupo 1022353" transform="translate(-5.008 53.592)">
          <g id="Grupo_1022344" data-name="Grupo 1022344" transform="translate(6.602 2.601)">
            <path id="Trazado_741044" data-name="Trazado 741044" d="M21.206,22.611l2.4,3.2,1.6-4,3.2,2-.8-4,2.8-.8-2-2,4-1.2-3.6-2,2.4-2-3.2-.8.8-4.8-3.6,3.6L23.608,5l-2.4,4.8-4-3.6.4,4-4.8-.8,3.6,4.8-4.4,2.8h6l-3.2,5.2,4.8-1.6v4.4Z" transform="translate(-12 -5)" fill="#e6294f"/>
            <path id="Trazado_741045" data-name="Trazado 741045" d="M30.2,25.206l2,1.2-.8-3.2,2.8-1.2-2-1.2.8-2.8-2.4,1.6-.4-2.4L29,18.8,26.6,16l.4,3.6-2.8-.8,1.6,2.4L23,22.4l3.28,1.116L24.2,26.006l3.6-.8.8,2.8Z" transform="translate(-18.597 -11.597)" fill="#fac437"/>
          </g>
          <g id="Grupo_1022348" data-name="Grupo 1022348" transform="translate(3 1)">
            <g id="Grupo_1022345" data-name="Grupo 1022345" transform="translate(4.803 0)">
              <path id="Trazado_741046" data-name="Trazado 741046" d="M15.683,1.117a.4.4,0,0,0-.566.566l.566.566a.4.4,0,0,0,.566-.566Z" transform="translate(-15 -1)" fill="#fe8845"/>
              <path id="Trazado_741047" data-name="Trazado 741047" d="M19.926,5.36a.4.4,0,0,0-.566.566l.566.566a.4.4,0,1,0,.566-.566Z" transform="translate(-17.544 -3.544)" fill="#fe8845"/>
              <path id="Trazado_741048" data-name="Trazado 741048" d="M19.643,2.366a.4.4,0,0,0,.283-.117l.566-.566a.4.4,0,0,0-.566-.566l-.566.566a.4.4,0,0,0,.283.683Z" transform="translate(-17.544 -1)" fill="#fe8845"/>
              <path id="Trazado_741049" data-name="Trazado 741049" d="M15.683,5.36l-.566.566a.4.4,0,1,0,.566.566l.566-.566a.4.4,0,0,0-.566-.566Z" transform="translate(-15 -3.544)" fill="#fe8845"/>
            </g>
            <g id="Grupo_1022346" data-name="Grupo 1022346" transform="translate(0 3.202)">
              <path id="Trazado_741050" data-name="Trazado 741050" d="M3.683,9.117a.4.4,0,0,0-.566.566l.566.566a.4.4,0,1,0,.566-.566Z" transform="translate(-3 -9)" fill="#fe8845"/>
              <path id="Trazado_741051" data-name="Trazado 741051" d="M7.926,13.36a.4.4,0,1,0-.566.566l.566.566a.4.4,0,0,0,.566-.566Z" transform="translate(-5.544 -11.544)" fill="#fe8845"/>
              <path id="Trazado_741052" data-name="Trazado 741052" d="M7.643,10.366a.4.4,0,0,0,.283-.117l.566-.566a.4.4,0,0,0-.566-.566l-.566.566a.4.4,0,0,0,.283.683Z" transform="translate(-5.544 -9)" fill="#fe8845"/>
              <path id="Trazado_741053" data-name="Trazado 741053" d="M3.683,13.36l-.566.566a.4.4,0,1,0,.566.566l.566-.566a.4.4,0,1,0-.566-.566Z" transform="translate(-3 -11.544)" fill="#fe8845"/>
            </g>
            <g id="Grupo_1022347" data-name="Grupo 1022347" transform="translate(6.004 21.751)">
              <path id="Trazado_741054" data-name="Trazado 741054" d="M18.683,55.46a.4.4,0,1,0-.566.566l.566.566a.4.4,0,0,0,.566-.566Z" transform="translate(-18 -55.343)" fill="#fe8845"/>
              <path id="Trazado_741055" data-name="Trazado 741055" d="M22.926,59.7a.4.4,0,1,0-.566.566l.566.566a.4.4,0,1,0,.566-.566Z" transform="translate(-20.544 -57.887)" fill="#fe8845"/>
              <path id="Trazado_741056" data-name="Trazado 741056" d="M22.644,56.71a.4.4,0,0,0,.283-.117l.566-.566a.4.4,0,1,0-.566-.566l-.566.566a.4.4,0,0,0,.283.683Z" transform="translate(-20.545 -55.343)" fill="#fe8845"/>
              <path id="Trazado_741057" data-name="Trazado 741057" d="M18.683,59.7l-.566.566a.4.4,0,1,0,.566.566l.566-.566a.4.4,0,1,0-.566-.566Z" transform="translate(-18 -57.887)" fill="#fe8845"/>
            </g>
            <path id="Trazado_741058" data-name="Trazado 741058" d="M27.2,8.8a.4.4,0,0,1-.394-.334,6.578,6.578,0,0,0-2.629-3.736.4.4,0,1,1,.444-.666A7.3,7.3,0,0,1,27.6,8.337a.4.4,0,0,1-.329.461A.417.417,0,0,1,27.2,8.8Z" transform="translate(-15.595 -2.799)" fill="#fe8845"/>
            <path id="Trazado_741059" data-name="Trazado 741059" d="M22.4,50.2a.4.4,0,0,1-.313-.65,7.691,7.691,0,0,1,3.836-2.544.4.4,0,0,1,.157.785,7,7,0,0,0-3.369,2.259.4.4,0,0,1-.313.15Z" transform="translate(-14.395 -28.588)" fill="#fe8845"/>
          </g>
        </g>
      </g>
    </g>
  </g>
</svg>
