<svg xmlns="http://www.w3.org/2000/svg" xmlns:xlink="http://www.w3.org/1999/xlink" width="85" height="91" viewBox="0 0 85 91">
  <defs>
    <filter id="Elipse_7683" x="6" y="10" width="77" height="77" filterUnits="userSpaceOnUse">
      <feOffset dy="3" input="SourceAlpha"/>
      <feGaussianBlur stdDeviation="3" result="blur"/>
      <feFlood flood-opacity="0.161"/>
      <feComposite operator="in" in2="blur"/>
      <feComposite in="SourceGraphic"/>
    </filter>
  </defs>
  <g id="Grupo_1019890" data-name="Grupo 1019890" transform="translate(-1335 -420)">
    <rect id="Rectángulo_345292" data-name="Rectángulo 345292" width="85" height="91" rx="5" transform="translate(1335 420)" fill="#221b6b"/>
    <g id="Grupo_1003705" data-name="Grupo 1003705" transform="translate(1350.197 436.281)">
      <g transform="matrix(1, 0, 0, 1, -15.2, -16.28)" filter="url(#Elipse_7683)">
        <circle id="Elipse_7683-2" data-name="Elipse 7683" cx="29.5" cy="29.5" r="29.5" transform="translate(15 16)" fill="#362b9e"/>
      </g>
    </g>
    <g id="programador_5_" data-name="programador (5)" transform="translate(1344.646 431.146)">
      <path id="Trazado_734738" data-name="Trazado 734738" d="M114.307,267.443l-7.9-2.261a3.032,3.032,0,0,1-2.2-2.915V258H95.913v4.266a3.032,3.032,0,0,1-2.2,2.915l-7.9,2.261a8.954,8.954,0,0,0-6.491,8.608v8.272H120.8v-8.272A8.953,8.953,0,0,0,114.307,267.443Z" transform="translate(-68.678 -223.38)" fill="#ffb09e"/>
      <g id="Grupo_1019849" data-name="Grupo 1019849" transform="translate(14.101 16.928)">
        <path id="Trazado_734739" data-name="Trazado 734739" d="M112.033,131.079c0,2.724-1.662,4.933-3.713,4.933s-3.242-2.536-3.242-5.26,1.191-4.6,3.242-4.6S112.033,128.354,112.033,131.079Z" transform="translate(-105.078 -126.146)" fill="#ffb09e"/>
        <path id="Trazado_734740" data-name="Trazado 734740" d="M310.8,131.079c0,2.724,1.662,4.933,3.713,4.933s3.242-2.536,3.242-5.26-1.191-4.6-3.242-4.6S310.8,128.354,310.8,131.079Z" transform="translate(-283.189 -126.146)" fill="#ffb09e"/>
      </g>
      <path id="Trazado_734741" data-name="Trazado 734741" d="M144.358,53.638V45.466a12.01,12.01,0,1,1,24.02,0v8.127a12.01,12.01,0,0,1-24.02.045Z" transform="translate(-124.985 -28.967)" fill="#ffcebf"/>
      <path id="Trazado_734742" data-name="Trazado 734742" d="M220.338,33.456a12.082,12.082,0,0,0-2.074.179A12.013,12.013,0,0,1,228.2,45.466v8.127a12.035,12.035,0,0,1-9.957,11.853,12.037,12.037,0,0,0,14.1-11.853V45.466a12.01,12.01,0,0,0-12.01-12.01Z" transform="translate(-188.955 -28.967)" fill="#ffb09e"/>
      <path id="Trazado_734749" data-name="Trazado 734749" d="M157.415,19.09a14.552,14.552,0,0,0-.611,3s-2.771-2.063-2.688-2.848c.131-1.254.857-8.956-2.31-8.229s-4.471,1.252-7.118,1.252-3.951-.527-7.117-1.252-2.441,6.975-2.31,8.229c.083.785-2.476,2.841-2.476,2.841a20.935,20.935,0,0,0-.824-2.989c-.25-.538-2.406-7.059.655-11.8a1.869,1.869,0,0,0,.3-.971,4.891,4.891,0,0,1,1.629-3.585C137.225.259,150.274,1.64,155.4.025a.556.556,0,0,1,.712.4,15.471,15.471,0,0,1,.386,5.546,1.1,1.1,0,0,0,.2.827c3.427,4.679,1.106,11.472.723,12.295Z" transform="translate(-113.412 0)" fill="#ae6c6c"/>
      <g id="Grupo_1019852" data-name="Grupo 1019852" transform="translate(38.601 -0.001)">
        <path id="Trazado_734750" data-name="Trazado 734750" d="M292.323,6.8a1.1,1.1,0,0,1-.2-.827,15.471,15.471,0,0,0-.386-5.546.556.556,0,0,0-.712-.4,17.872,17.872,0,0,1-3.385.616,15.162,15.162,0,0,1,.335,5.327,1.1,1.1,0,0,0,.2.827,11.582,11.582,0,0,1,1.71,8.345,28.268,28.268,0,0,1-.138,4.1c-.083.785,2.688,2.848,2.688,2.848a14.552,14.552,0,0,1,.611-3c.382-.823,2.7-7.616-.723-12.295Z" transform="translate(-287.644 0)" fill="#9b5e5e"/>
      </g>
      <path id="Trazado_734751" data-name="Trazado 734751" d="M113.262,318.439v10.555a1.659,1.659,0,0,1-1.659,1.659H70.681a1.659,1.659,0,0,1-1.659-1.659V318.439a9.344,9.344,0,0,1,6.544-8.914l8.868-2.785a.592.592,0,0,1,.754.429c.406,1.755,1.895,6.595,5.953,6.595s5.547-4.839,5.953-6.595a.592.592,0,0,1,.754-.429l8.868,2.785A9.344,9.344,0,0,1,113.262,318.439Z" transform="translate(-59.759 -265.553)" fill="#64b2ff"/>
      <g id="Grupo_1019853" data-name="Grupo 1019853" transform="translate(37.186 41.159)">
        <path id="Trazado_734752" data-name="Trazado 734752" d="M286.868,309.525,278,306.74a.592.592,0,0,0-.754.429c-.039.17-.089.369-.15.589l5.625,1.767a9.344,9.344,0,0,1,6.544,8.914v10.555c0,.916-.743.567-1.659.567l4.147,1.092a1.659,1.659,0,0,0,1.659-1.659V318.439A9.344,9.344,0,0,0,286.868,309.525Z" transform="translate(-277.096 -306.712)" fill="#368ee6"/>
      </g>
      <path id="Trazado_734753" data-name="Trazado 734753" d="M59.986,481.674H2.779A2.779,2.779,0,0,1,0,478.9v-.809a1.113,1.113,0,0,1,1.113-1.113h60.54a1.113,1.113,0,0,1,1.113,1.113v.809A2.779,2.779,0,0,1,59.986,481.674Z" transform="translate(0 -412.966)" fill="#dcdcdc"/>
      <path id="Trazado_734754" data-name="Trazado 734754" d="M421.9,476.974h-4.147a1.113,1.113,0,0,1,1.113,1.113v.809a2.779,2.779,0,0,1-2.779,2.779h4.147a2.779,2.779,0,0,0,2.779-2.779v-.809A1.113,1.113,0,0,0,421.9,476.974Z" transform="translate(-360.249 -412.966)" fill="#ccc"/>
      <path id="Trazado_734755" data-name="Trazado 734755" d="M105.826,448.432h-4.977v-4.424h4.977a2.212,2.212,0,1,1,0,4.424Z" transform="translate(-87.315 -384.424)" fill="#ffb09e"/>
      <path id="Trazado_734756" data-name="Trazado 734756" d="M33.919,426.542v2a1.808,1.808,0,0,1-1.809,1.809h-9.1a1.809,1.809,0,0,1-1.809-1.809v-2a3.423,3.423,0,0,1,3.423-3.422H30.5a3.423,3.423,0,0,1,3.422,3.422Z" transform="translate(-18.355 -366.339)" fill="#ffcebf"/>
      <path id="Trazado_734757" data-name="Trazado 734757" d="M63.72,423.118H59.572a3.422,3.422,0,0,1,3.422,3.422v2a1.809,1.809,0,0,1-1.809,1.809h4.147a1.809,1.809,0,0,0,1.809-1.809v-2A3.422,3.422,0,0,0,63.72,423.118Z" transform="translate(-51.578 -366.337)" fill="#ffb09e"/>
      <g id="Grupo_1019854" data-name="Grupo 1019854" transform="translate(6.303 60.697)">
        <path id="Trazado_734758" data-name="Trazado 734758" d="M48.983,453.306v2.3H46.97v-2.3a1.006,1.006,0,0,1,2.013,0Z" transform="translate(-46.97 -452.3)" fill="#f89580"/>
        <path id="Trazado_734759" data-name="Trazado 734759" d="M78.853,453.306v2.3H76.84v-2.3a1.006,1.006,0,0,1,2.013,0Z" transform="translate(-72.831 -452.3)" fill="#f89580"/>
      </g>
      <path id="Trazado_734760" data-name="Trazado 734760" d="M315.495,448.432h4.977v-4.424h-4.977a2.212,2.212,0,0,0,0,4.424Z" transform="translate(-271.241 -384.424)" fill="#ffb09e"/>
      <path id="Trazado_734761" data-name="Trazado 734761" d="M364.439,426.542v2a1.809,1.809,0,0,1-1.809,1.809h-9.1a1.809,1.809,0,0,1-1.809-1.809v-2a3.423,3.423,0,0,1,3.422-3.422h5.875A3.423,3.423,0,0,1,364.439,426.542Z" transform="translate(-304.52 -366.339)" fill="#ffcebf"/>
      <path id="Trazado_734762" data-name="Trazado 734762" d="M394.238,423.118H390.09a3.422,3.422,0,0,1,3.422,3.422v2a1.809,1.809,0,0,1-1.809,1.809h4.147a1.809,1.809,0,0,0,1.809-1.809v-2A3.422,3.422,0,0,0,394.238,423.118Z" transform="translate(-337.741 -366.337)" fill="#ffb09e"/>
      <g id="Grupo_1019855" data-name="Grupo 1019855" transform="translate(50.44 60.697)">
        <path id="Trazado_734763" data-name="Trazado 734763" d="M407.743,453.306v2.3H405.73v-2.3a1.006,1.006,0,0,1,2.013,0Z" transform="translate(-401.721 -452.3)" fill="#f89580"/>
        <path id="Trazado_734764" data-name="Trazado 734764" d="M377.873,453.306v2.3H375.86v-2.3a1.006,1.006,0,0,1,2.013,0Z" transform="translate(-375.86 -452.3)" fill="#f89580"/>
      </g>
      <path id="Trazado_734765" data-name="Trazado 734765" d="M369.667,69.177V96.451a2.965,2.965,0,0,1-2.976,2.953H355.912a2.965,2.965,0,0,1-2.976-2.953V93.389a.609.609,0,0,0-.272-.507l-4.922-3.28a.3.3,0,0,1,0-.5l4.922-3.28a.609.609,0,0,0,.272-.507V69.177a2.965,2.965,0,0,1,2.976-2.953h10.778a2.965,2.965,0,0,1,2.976,2.953Z" transform="translate(-300.957 -57.338)" fill="#eaf6ff"/>
      <path id="Trazado_734766" data-name="Trazado 734766" d="M463.063,66.224h-4.147a2.965,2.965,0,0,1,2.976,2.953V96.451a2.965,2.965,0,0,1-2.976,2.953h4.147a2.965,2.965,0,0,0,2.976-2.953V69.177A2.965,2.965,0,0,0,463.063,66.224Z" transform="translate(-397.33 -57.338)" fill="#d8ecfe"/>
      <g id="Grupo_1019856" data-name="Grupo 1019856" transform="translate(55.932 14)">
        <path id="Trazado_734767" data-name="Trazado 734767" d="M417.8,106.344h2.185a1.006,1.006,0,0,0,0-2.013H417.8a1.006,1.006,0,0,0,0,2.013Z" transform="translate(-416.789 -104.331)" fill="#3692bc"/>
        <path id="Trazado_734768" data-name="Trazado 734768" d="M417.8,131.069H424.4a1.006,1.006,0,1,0,0-2.013H417.8a1.006,1.006,0,0,0,0,2.013Z" transform="translate(-416.789 -125.738)" fill="#3692bc"/>
        <path id="Trazado_734769" data-name="Trazado 734769" d="M424.4,153.78H417.8a1.006,1.006,0,0,0,0,2.013H424.4a1.006,1.006,0,1,0,0-2.013Z" transform="translate(-416.789 -147.144)" fill="#3692bc"/>
        <path id="Trazado_734770" data-name="Trazado 734770" d="M417.8,202.971h2.185a1.006,1.006,0,0,0,0-2.013H417.8a1.006,1.006,0,0,0,0,2.013Z" transform="translate(-416.789 -187.991)" fill="#3692bc"/>
        <path id="Trazado_734771" data-name="Trazado 734771" d="M424.4,225.683H417.8a1.006,1.006,0,0,0,0,2.013H424.4a1.006,1.006,0,1,0,0-2.013Z" transform="translate(-416.789 -209.398)" fill="#3692bc"/>
        <path id="Trazado_734772" data-name="Trazado 734772" d="M424.4,250.407H417.8a1.006,1.006,0,0,0,0,2.013H424.4a1.006,1.006,0,1,0,0-2.013Z" transform="translate(-416.789 -230.804)" fill="#3692bc"/>
      </g>
      <g id="Grupo_1019857" data-name="Grupo 1019857" transform="translate(22.476 50.367)">
        <path id="Trazado_734773" data-name="Trazado 734773" d="M172.789,388.839a1.006,1.006,0,0,0-1.418-.129l-3.529,2.941a1.007,1.007,0,0,0,0,1.546l3.529,2.941a1.007,1.007,0,0,0,1.289-1.547l-2.6-2.168,2.6-2.168A1.007,1.007,0,0,0,172.789,388.839Z" transform="translate(-167.48 -386.712)" fill="#eaf6ff"/>
        <path id="Trazado_734774" data-name="Trazado 734774" d="M268.113,391.651l-3.529-2.941a1.006,1.006,0,0,0-1.289,1.546l2.6,2.168-2.6,2.168a1.007,1.007,0,0,0,1.289,1.546l3.529-2.941a1.007,1.007,0,0,0,0-1.546Z" transform="translate(-250.123 -386.712)" fill="#eaf6ff"/>
        <path id="Trazado_734775" data-name="Trazado 734775" d="M219.058,375.4a1.007,1.007,0,0,0-1.316.542l-3.921,9.411a1.007,1.007,0,1,0,1.858.774l3.921-9.411a1.007,1.007,0,0,0-.542-1.316Z" transform="translate(-207.534 -375.326)" fill="#eaf6ff"/>
      </g>
      <path id="Trazado_734776" data-name="Trazado 734776" d="M13.1,240.077H.73a.73.73,0,0,1-.73-.73V217.3a.73.73,0,0,1,.73-.73H13.1a.73.73,0,0,1,.73.73v22.043A.73.73,0,0,1,13.1,240.077Z" transform="translate(0 -187.512)" fill="#fdb441"/>
      <path id="Trazado_734777" data-name="Trazado 734777" d="M70.823,216.575H66.676a.73.73,0,0,1,.73.73v22.043a.73.73,0,0,1-.73.73h4.147a.73.73,0,0,0,.73-.73V217.3A.73.73,0,0,0,70.823,216.575Z" transform="translate(-57.728 -187.512)" fill="#fe9738"/>
      <g id="Grupo_1019858" data-name="Grupo 1019858" transform="translate(2.912 32.619)">
        <path id="Trazado_734778" data-name="Trazado 734778" d="M22.707,245.084h3.41a1.006,1.006,0,0,0,0-2.013h-3.41a1.006,1.006,0,0,0,0,2.013Z" transform="translate(-21.701 -243.071)" fill="#eaf6ff"/>
        <path id="Trazado_734779" data-name="Trazado 734779" d="M26.118,343.342h-3.41a1.007,1.007,0,0,0,0,2.013h3.41a1.007,1.007,0,0,0,0-2.013Z" transform="translate(-21.701 -329.886)" fill="#eaf6ff"/>
        <path id="Trazado_734780" data-name="Trazado 734780" d="M22.707,270.152h5.759a1.006,1.006,0,1,0,0-2.013H22.707a1.006,1.006,0,1,0,0,2.013Z" transform="translate(-21.701 -264.775)" fill="#eaf6ff"/>
        <path id="Trazado_734781" data-name="Trazado 734781" d="M28.466,293.207H22.707a1.006,1.006,0,1,0,0,2.013h5.759a1.006,1.006,0,1,0,0-2.013Z" transform="translate(-21.701 -286.479)" fill="#eaf6ff"/>
      </g>
    </g>
  </g>
</svg>
