<svg xmlns="http://www.w3.org/2000/svg" xmlns:xlink="http://www.w3.org/1999/xlink" width="820" height="257" viewBox="0 0 820 257">
  <defs>
    <filter id="_1" x="8" y="7" width="804" height="249" filterUnits="userSpaceOnUse">
      <feOffset dy="3" input="SourceAlpha"/>
      <feGaussianBlur stdDeviation="3" result="blur"/>
      <feFlood flood-opacity="0.161"/>
      <feComposite operator="in" in2="blur"/>
      <feComposite in="SourceGraphic"/>
    </filter>
    <clipPath id="clip-path">
      <g transform="matrix(1, 0, 0, 1, 0, 0)" filter="url(#_1)">
        <rect id="_1-2" data-name="1" width="786" height="231" transform="translate(9671 -8533)" fill="#eff7ff" opacity="0.25"/>
      </g>
    </clipPath>
    <clipPath id="clip-path-2">
      <rect id="Rectángulo_373114" data-name="Rectángulo 373114" width="786.001" height="393" rx="23" fill="#37f871" opacity="0.15"/>
    </clipPath>
    <clipPath id="clip-path-4">
      <rect id="Rectángulo_373116" data-name="Rectángulo 373116" width="81.769" height="37.398" transform="translate(0 0)" fill="#dbe7f5" stroke="#707070" stroke-width="1"/>
    </clipPath>
    <clipPath id="clip-path-5">
      <rect id="Rectángulo_373117" data-name="Rectángulo 373117" width="81.77" height="37.399" transform="translate(0 0)" fill="#dbe7f5" stroke="#707070" stroke-width="1"/>
    </clipPath>
    <filter id="Rectángulo_372972" x="73" y="42.408" width="175.173" height="97.202" filterUnits="userSpaceOnUse">
      <feOffset dy="5" input="SourceAlpha"/>
      <feGaussianBlur stdDeviation="5" result="blur-2"/>
      <feFlood flood-opacity="0.42"/>
      <feComposite operator="in" in2="blur-2"/>
      <feComposite in="SourceGraphic"/>
    </filter>
    <filter id="Rectángulo_372972-2" x="563.116" y="42.408" width="185.666" height="97.202" filterUnits="userSpaceOnUse">
      <feOffset dy="5" input="SourceAlpha"/>
      <feGaussianBlur stdDeviation="5" result="blur-3"/>
      <feFlood flood-opacity="0.42"/>
      <feComposite operator="in" in2="blur-3"/>
      <feComposite in="SourceGraphic"/>
    </filter>
    <filter id="Trazado_741098" x="322.233" y="42" width="149.562" height="104.24" filterUnits="userSpaceOnUse">
      <feOffset dy="8" input="SourceAlpha"/>
      <feGaussianBlur stdDeviation="3" result="blur-4"/>
      <feFlood flood-opacity="0.278"/>
      <feComposite operator="in" in2="blur-4"/>
      <feComposite in="SourceGraphic"/>
    </filter>
    <filter id="Elipse_7756" x="569.487" y="166.408" width="173.221" height="64.116" filterUnits="userSpaceOnUse">
      <feOffset dy="8" input="SourceAlpha"/>
      <feGaussianBlur stdDeviation="3" result="blur-5"/>
      <feFlood flood-opacity="0.278"/>
      <feComposite operator="in" in2="blur-5"/>
      <feComposite in="SourceGraphic"/>
    </filter>
  </defs>
  <g id="Grupo_1022878" data-name="Grupo 1022878" transform="translate(-390 -3685)">
    <rect id="_1-3" data-name="1" width="820" height="257" rx="10" transform="translate(390 3685)" fill="#112e4c"/>
    <g id="Grupo_1022877" data-name="Grupo 1022877">
      <g id="Grupo_1022876" data-name="Grupo 1022876">
        <g id="Enmascarar_grupo_952194" data-name="Enmascarar grupo 952194" transform="translate(-9264 12231)" clip-path="url(#clip-path)">
          <g id="Grupo_1022875" data-name="Grupo 1022875" transform="translate(9671 -8621.063)">
            <g id="Grupo_1022866" data-name="Grupo 1022866" transform="translate(0 0.918)">
              <rect id="Rectángulo_373113" data-name="Rectángulo 373113" width="786.001" height="393" rx="23" transform="translate(0 0)" fill="#eff7ff"/>
            </g>
            <g id="Grupo_1022869" data-name="Grupo 1022869" transform="translate(0 0.918)" opacity="0.27">
              <g id="Enmascarar_grupo_952192" data-name="Enmascarar grupo 952192" clip-path="url(#clip-path-2)">
                <g id="Grupo_1022867" data-name="Grupo 1022867" transform="translate(-142.652 -83.608)">
                  <path id="Trazado_741802" data-name="Trazado 741802" d="M624.561,71.973s-54.89-.649-147.568-55.289-103.8,42.482-160.024,41.85S246.161,16.32,185.212,27.426s-76.367,57.33-148.8,36.6-14.416,66.155-14.416,66.155L616.368,143.3Z" transform="matrix(0.995, -0.105, 0.105, 0.995, 372.782, 357.49)" fill="none" stroke="#12263f" stroke-width="3" stroke-dasharray="11" opacity="0.142"/>
                  <path id="Trazado_741803" data-name="Trazado 741803" d="M1181.28,0l-92.166,263.629,25.386,120.8L932.672,484.91c-2.389-2.654-4.595-5.507-7.2-7.929-19.509-18.146-37.812-37.9-58.926-53.936-41.865-31.8-88.29-37.275-137.08-16.772q-25.47,10.7-50.272,22.975c-30.6,15.181-62.373,24.2-96.936,22.182-21.633-1.263-40.736-7.974-57.388-22.055-24.923-21.076-42.277-48.38-61.913-73.848-10.4-13.5-21.027-26.932-32.688-39.328-23.98-25.493-53.113-37.166-88.887-33.99-38.482,3.418-70.63,16.39-93.86,48.812-19.384,27.054-39.026,54.052-60.4,79.523-34.6,41.229-79.774,55.1-132.023,44.463-18.7-3.807-36.751-10.84-55.1-16.4l115.267-316.47Z" transform="matrix(-0.921, 0.391, -0.391, -0.921, 1276.843, 475.735)" fill="none" stroke="#31313c" stroke-width="3" opacity="0.05"/>
                  <path id="Trazado_741804" data-name="Trazado 741804" d="M868.409,356.478l-67.755-193.8,18.662-88.807L685.646,0c-1.756,1.951-3.378,4.048-5.293,5.829-14.341,13.34-27.8,27.859-43.319,39.651-30.777,23.376-64.905,27.4-100.773,12.33Q517.537,49.941,499.3,40.92c-22.495-11.16-45.853-17.792-71.262-16.307-15.9.929-29.947,5.862-42.188,16.213-18.322,15.494-31.08,35.566-45.515,54.289-7.649,9.921-15.458,19.8-24.03,28.911-17.629,18.741-39.045,27.323-65.345,24.987-28.29-2.513-51.923-12.049-69-35.883-14.251-19.889-28.689-39.736-44.4-58.461C112.128,24.36,78.915,14.163,40.505,21.983,26.755,24.782,13.488,29.952,0,34.039L84.737,266.69Z" transform="matrix(0.891, -0.454, 0.454, 0.891, 280.569, 394.25)" fill="none" stroke="#fff" stroke-width="1" opacity="0.81"/>
                </g>
              </g>
              <g id="Enmascarar_grupo_952193" data-name="Enmascarar grupo 952193" clip-path="url(#clip-path-2)">
                <g id="Grupo_1022868" data-name="Grupo 1022868" transform="translate(-348.19 -460.689)">
                  <path id="Trazado_741805" data-name="Trazado 741805" d="M624.561,71.973s-54.89-.649-147.568-55.289-103.8,42.482-160.024,41.85S246.161,16.32,185.212,27.426s-76.367,57.33-148.8,36.6-14.416,66.155-14.416,66.155L616.368,143.3Z" transform="matrix(-0.995, 0.105, -0.105, -0.995, 904.062, 579.808)" fill="none" stroke="#12263f" stroke-width="3" stroke-dasharray="11" opacity="0.142"/>
                  <path id="Trazado_741806" data-name="Trazado 741806" d="M1181.28,0l-92.166,263.629,25.386,120.8L932.672,484.91c-2.389-2.654-4.595-5.507-7.2-7.929-19.509-18.146-37.812-37.9-58.926-53.936-41.865-31.8-88.29-37.275-137.08-16.772q-25.47,10.7-50.272,22.975c-30.6,15.181-62.373,24.2-96.936,22.182-21.633-1.263-40.736-7.974-57.388-22.055-24.923-21.076-42.277-48.38-61.913-73.848-10.4-13.5-21.027-26.932-32.688-39.328-23.98-25.493-53.113-37.166-88.887-33.99-38.482,3.418-70.63,16.39-93.86,48.812-19.384,27.054-39.026,54.052-60.4,79.523-34.6,41.229-79.774,55.1-132.023,44.463-18.7-3.807-36.751-10.84-55.1-16.4l115.267-316.47Z" transform="matrix(0.921, -0.391, 0.391, 0.921, 0, 461.563)" fill="none" stroke="#31313c" stroke-width="3" opacity="0.05"/>
                  <path id="Trazado_741807" data-name="Trazado 741807" d="M868.409,356.478l-67.755-193.8,18.662-88.807L685.646,0c-1.756,1.951-3.378,4.048-5.293,5.829-14.341,13.34-27.8,27.859-43.319,39.651-30.777,23.376-64.905,27.4-100.773,12.33Q517.537,49.941,499.3,40.92c-22.495-11.16-45.853-17.792-71.262-16.307-15.9.929-29.947,5.862-42.188,16.213-18.322,15.494-31.08,35.566-45.515,54.289-7.649,9.921-15.458,19.8-24.03,28.911-17.629,18.741-39.045,27.323-65.345,24.987-28.29-2.513-51.923-12.049-69-35.883-14.251-19.889-28.689-39.736-44.4-58.461C112.128,24.36,78.915,14.163,40.505,21.983,26.755,24.782,13.488,29.952,0,34.039L84.737,266.69Z" transform="matrix(-0.891, 0.454, -0.454, -0.891, 996.274, 543.048)" fill="none" stroke="#fff" stroke-width="1" opacity="0.81"/>
                </g>
              </g>
            </g>
            <g id="Grupo_1022874" data-name="Grupo 1022874" transform="translate(0 0)">
              <path id="Rectangle_652" data-name="Rectangle 652" d="M773.623,329.9H12.378A12.3,12.3,0,0,1,0,317.679V12.218A12.3,12.3,0,0,1,12.378,0H773.623A12.3,12.3,0,0,1,786,12.218V317.679A12.3,12.3,0,0,1,773.623,329.9Z" transform="translate(0 0)" fill="none" opacity="0.238"/>
              <g id="Grupo_1022871" data-name="Grupo 1022871" transform="translate(25.355 88.146)" clip-path="url(#clip-path-4)">
                <g id="Grupo_1022870" data-name="Grupo 1022870" transform="translate(1.902 -43.103)">
                  <path id="Sustracción_32" data-name="Sustracción 32" d="M39.617,0a39.91,39.91,0,0,0-7.984.8A39.4,39.4,0,0,0,17.467,6.766,39.733,39.733,0,0,0,3.113,24.2,39.419,39.419,0,0,0,.8,31.633,40,40,0,0,0,.8,47.6,39.4,39.4,0,0,0,6.766,61.767,39.733,39.733,0,0,0,24.2,76.121a39.42,39.42,0,0,0,7.437,2.308,40,40,0,0,0,15.968,0,39.4,39.4,0,0,0,14.166-5.961,39.733,39.733,0,0,0,14.353-17.43A39.419,39.419,0,0,0,78.429,47.6a40,40,0,0,0,0-15.968,39.4,39.4,0,0,0-5.961-14.166A39.733,39.733,0,0,0,55.038,3.113,39.419,39.419,0,0,0,47.6.8,39.91,39.91,0,0,0,39.617,0Zm-.148,60.433a20.821,20.821,0,0,1-4.165-.42,20.555,20.555,0,0,1-7.39-3.11,20.729,20.729,0,0,1-7.488-9.093,20.564,20.564,0,0,1-1.2-3.88,20.87,20.87,0,0,1,0-8.331,20.555,20.555,0,0,1,3.11-7.39,20.728,20.728,0,0,1,9.093-7.488,20.563,20.563,0,0,1,3.88-1.2,20.87,20.87,0,0,1,8.331,0,20.555,20.555,0,0,1,7.39,3.11,20.728,20.728,0,0,1,7.488,9.093,20.563,20.563,0,0,1,1.2,3.88,20.869,20.869,0,0,1,0,8.331,20.555,20.555,0,0,1-3.11,7.39,20.728,20.728,0,0,1-9.093,7.488,20.563,20.563,0,0,1-3.88,1.2A20.82,20.82,0,0,1,39.469,60.433Z" transform="translate(0 0)" fill="#dbe7f5"/>
                </g>
              </g>
              <g id="Grupo_1022873" data-name="Grupo 1022873" transform="translate(657.031 280.64)" clip-path="url(#clip-path-5)">
                <g id="Grupo_1022872" data-name="Grupo 1022872" transform="translate(1.902 1.268)">
                  <path id="Sustracción_33" data-name="Sustracción 33" d="M39.617,79.235a39.91,39.91,0,0,1-7.984-.8,39.4,39.4,0,0,1-14.166-5.961A39.733,39.733,0,0,1,3.113,55.038,39.42,39.42,0,0,1,.8,47.6a40,40,0,0,1,0-15.969A39.4,39.4,0,0,1,6.766,17.467,39.733,39.733,0,0,1,24.2,3.113,39.42,39.42,0,0,1,31.633.8,40,40,0,0,1,47.6.8,39.4,39.4,0,0,1,61.767,6.766,39.733,39.733,0,0,1,76.121,24.2a39.42,39.42,0,0,1,2.308,7.437,40,40,0,0,1,0,15.969,39.4,39.4,0,0,1-5.961,14.166,39.733,39.733,0,0,1-17.43,14.354A39.419,39.419,0,0,1,47.6,78.43,39.91,39.91,0,0,1,39.617,79.235ZM39.47,18.8a20.82,20.82,0,0,0-4.165.42,20.555,20.555,0,0,0-7.39,3.11,20.729,20.729,0,0,0-7.488,9.094,20.564,20.564,0,0,0-1.2,3.88,20.87,20.87,0,0,0,0,8.331,20.555,20.555,0,0,0,3.11,7.39,20.728,20.728,0,0,0,9.093,7.488,20.564,20.564,0,0,0,3.88,1.2,20.869,20.869,0,0,0,8.331,0,20.555,20.555,0,0,0,7.39-3.11,20.729,20.729,0,0,0,7.488-9.093,20.564,20.564,0,0,0,1.2-3.88,20.87,20.87,0,0,0,0-8.331,20.555,20.555,0,0,0-3.11-7.391,20.728,20.728,0,0,0-9.093-7.488,20.562,20.562,0,0,0-3.88-1.2A20.82,20.82,0,0,0,39.47,18.8Z" transform="translate(0 0)" fill="#dbe7f5"/>
                </g>
              </g>
            </g>
          </g>
        </g>
      </g>
      <g id="Grupo_1022865" data-name="Grupo 1022865" transform="translate(0 -0.002)">
        <g id="Grupo_1022828" data-name="Grupo 1022828" transform="translate(140.95 18.601)">
          <g id="_2731_Convertido_" data-name="2731 [Convertido]" transform="translate(337.05 3718.809)">
            <g id="Layer_1" data-name="Layer 1" transform="translate(0 0)">
              <g transform="matrix(1, 0, 0, 1, -88, -52.41)" filter="url(#Rectángulo_372972)">
                <rect id="Rectángulo_372972-3" data-name="Rectángulo 372972" width="145.173" height="67.202" rx="8" transform="translate(88 52.41)" fill="#221b6b"/>
              </g>
            </g>
          </g>
          <path id="Trazado_742371" data-name="Trazado 742371" d="M20.181,12.773V17H18.2V5.625h4.352a4.4,4.4,0,0,1,3.027.992A3.334,3.334,0,0,1,26.7,9.242a3.224,3.224,0,0,1-1.1,2.6,4.617,4.617,0,0,1-3.074.93Zm0-1.586h2.375a2.339,2.339,0,0,0,1.609-.5,1.823,1.823,0,0,0,.555-1.434,1.967,1.967,0,0,0-.562-1.473,2.168,2.168,0,0,0-1.547-.566h-2.43ZM33.213,17a2.93,2.93,0,0,1-.219-.789,3.193,3.193,0,0,1-4.3.219,2.325,2.325,0,0,1-.8-1.8,2.4,2.4,0,0,1,1-2.074,4.865,4.865,0,0,1,2.871-.723h1.164v-.555a1.481,1.481,0,0,0-.367-1.051,1.456,1.456,0,0,0-1.117-.395,1.672,1.672,0,0,0-1.062.324,1,1,0,0,0-.414.824h-1.9a2.107,2.107,0,0,1,.461-1.3,3.071,3.071,0,0,1,1.254-.949,4.4,4.4,0,0,1,1.77-.344,3.547,3.547,0,0,1,2.367.746,2.661,2.661,0,0,1,.906,2.1v3.813a4.321,4.321,0,0,0,.32,1.82V17Zm-2.086-1.367a2.159,2.159,0,0,0,1.059-.273,1.827,1.827,0,0,0,.746-.734V13.031H31.908a2.8,2.8,0,0,0-1.586.367,1.189,1.189,0,0,0-.531,1.039,1.109,1.109,0,0,0,.363.871A1.407,1.407,0,0,0,31.127,15.633ZM38.838,17h-1.9V8.547h1.9ZM36.822,6.352a1.008,1.008,0,0,1,.277-.727,1.048,1.048,0,0,1,.793-.289,1.061,1.061,0,0,1,.8.289,1,1,0,0,1,.281.727.977.977,0,0,1-.281.715,1.069,1.069,0,0,1-.8.285,1.056,1.056,0,0,1-.793-.285A.984.984,0,0,1,36.822,6.352Zm8.82,8.352a.861.861,0,0,0-.418-.773,4.445,4.445,0,0,0-1.387-.469,7.129,7.129,0,0,1-1.617-.516A2.158,2.158,0,0,1,40.8,10.953a2.25,2.25,0,0,1,.922-1.828,3.644,3.644,0,0,1,2.344-.734,3.792,3.792,0,0,1,2.449.75,2.38,2.38,0,0,1,.934,1.945h-1.9a1.17,1.17,0,0,0-.406-.91,1.557,1.557,0,0,0-1.078-.363,1.682,1.682,0,0,0-1.02.289.911.911,0,0,0-.395.773.769.769,0,0,0,.367.68,5.049,5.049,0,0,0,1.484.488,7.027,7.027,0,0,1,1.754.586,2.484,2.484,0,0,1,.945.816A2.082,2.082,0,0,1,47.51,14.6a2.2,2.2,0,0,1-.945,1.848,4.031,4.031,0,0,1-2.477.707,4.371,4.371,0,0,1-1.852-.375A3.047,3.047,0,0,1,40.97,15.75a2.441,2.441,0,0,1-.453-1.414h1.844a1.338,1.338,0,0,0,.508,1.035,1.973,1.973,0,0,0,1.242.363,1.92,1.92,0,0,0,1.141-.285A.883.883,0,0,0,45.642,14.7Z" transform="translate(372.758 3741.809)" fill="#f6f6f6"/>
          <path id="Trazado_741095" data-name="Trazado 741095" d="M2923.117-7904.262h388.69" transform="translate(-2462.752 11656.784)" fill="none" stroke="#221b6b" stroke-width="2"/>
          <path id="Trazado_741097" data-name="Trazado 741097" d="M0,0H61.486" transform="translate(904.999 3786.122) rotate(90)" fill="none" stroke="#221b6b" stroke-width="2"/>
          <g id="_2731_Convertido_2" data-name="2731 [Convertido]" transform="translate(827.166 3718.809)">
            <g id="Layer_1-2" data-name="Layer 1" transform="translate(0 0)">
              <g transform="matrix(1, 0, 0, 1, -578.12, -52.41)" filter="url(#Rectángulo_372972-2)">
                <rect id="Rectángulo_372972-4" data-name="Rectángulo 372972" width="155.666" height="67.202" rx="8" transform="translate(578.12 52.41)" fill="#221b6b"/>
              </g>
            </g>
          </g>
          <path id="Trazado_742372" data-name="Trazado 742372" d="M14.449,12.773V17H12.473V5.625h4.352a4.4,4.4,0,0,1,3.027.992,3.334,3.334,0,0,1,1.121,2.625,3.224,3.224,0,0,1-1.1,2.6,4.617,4.617,0,0,1-3.074.93Zm0-1.586h2.375a2.339,2.339,0,0,0,1.609-.5,1.823,1.823,0,0,0,.555-1.434,1.967,1.967,0,0,0-.562-1.473,2.168,2.168,0,0,0-1.547-.566h-2.43ZM27.48,17a2.93,2.93,0,0,1-.219-.789,3.193,3.193,0,0,1-4.3.219,2.325,2.325,0,0,1-.8-1.8,2.4,2.4,0,0,1,1-2.074,4.865,4.865,0,0,1,2.871-.723H27.2v-.555a1.481,1.481,0,0,0-.367-1.051,1.456,1.456,0,0,0-1.117-.395,1.672,1.672,0,0,0-1.062.324,1,1,0,0,0-.414.824h-1.9a2.107,2.107,0,0,1,.461-1.3,3.071,3.071,0,0,1,1.254-.949,4.4,4.4,0,0,1,1.77-.344,3.547,3.547,0,0,1,2.367.746,2.661,2.661,0,0,1,.906,2.1v3.813a4.321,4.321,0,0,0,.32,1.82V17Zm-2.086-1.367a2.159,2.159,0,0,0,1.059-.273,1.827,1.827,0,0,0,.746-.734V13.031H26.176a2.8,2.8,0,0,0-1.586.367,1.189,1.189,0,0,0-.531,1.039,1.109,1.109,0,0,0,.363.871A1.407,1.407,0,0,0,25.394,15.633Zm10.117-5.352a4.7,4.7,0,0,0-.773-.062,1.741,1.741,0,0,0-1.758,1V17h-1.9V8.547h1.813l.047.945a2.139,2.139,0,0,1,1.906-1.1,1.777,1.777,0,0,1,.672.109Zm.844,2.422a5,5,0,0,1,.906-3.148,2.945,2.945,0,0,1,2.453-1.164,2.768,2.768,0,0,1,2.242.992l.109-.836h1.688v11.7h-1.9V16.281a2.834,2.834,0,0,1-2.156.875,2.917,2.917,0,0,1-2.43-1.184A5.23,5.23,0,0,1,36.355,12.7Zm1.9.164a3.528,3.528,0,0,0,.512,2.035,1.631,1.631,0,0,0,1.418.738,1.8,1.8,0,0,0,1.672-.961V10.836A1.8,1.8,0,0,0,40.2,9.914a1.659,1.659,0,0,0-1.426.727A3.849,3.849,0,0,0,38.254,12.867Zm12.664,3.3a2.944,2.944,0,0,1-2.375.984,2.624,2.624,0,0,1-2.082-.8,3.423,3.423,0,0,1-.707-2.328V8.547h1.9V14q0,1.609,1.336,1.609a1.876,1.876,0,0,0,1.867-.992V8.547h1.9V17H50.965Zm7.492.984a3.928,3.928,0,0,1-2.926-1.137,4.124,4.124,0,0,1-1.121-3.027v-.234a5.072,5.072,0,0,1,.488-2.262,3.716,3.716,0,0,1,1.371-1.551,3.625,3.625,0,0,1,1.969-.555,3.318,3.318,0,0,1,2.668,1.1,4.658,4.658,0,0,1,.941,3.117v.766H56.277a2.539,2.539,0,0,0,.7,1.656,2.1,2.1,0,0,0,1.543.609,2.571,2.571,0,0,0,2.125-1.055l1.023.977a3.418,3.418,0,0,1-1.355,1.176A4.244,4.244,0,0,1,58.41,17.156Zm-.227-7.242a1.6,1.6,0,0,0-1.262.547,2.835,2.835,0,0,0-.613,1.523h3.617v-.141a2.307,2.307,0,0,0-.508-1.441A1.586,1.586,0,0,0,58.183,9.914ZM76.465,17H74.488l-5.07-8.07V17H67.441V5.625h1.977l5.086,8.1v-8.1h1.961Zm7.2,0a2.93,2.93,0,0,1-.219-.789,3.193,3.193,0,0,1-4.3.219,2.325,2.325,0,0,1-.8-1.8,2.4,2.4,0,0,1,1-2.074,4.865,4.865,0,0,1,2.871-.723h1.164v-.555a1.481,1.481,0,0,0-.367-1.051A1.456,1.456,0,0,0,81.9,9.836a1.672,1.672,0,0,0-1.062.324,1,1,0,0,0-.414.824h-1.9a2.107,2.107,0,0,1,.461-1.3,3.071,3.071,0,0,1,1.254-.949,4.4,4.4,0,0,1,1.77-.344,3.547,3.547,0,0,1,2.367.746,2.661,2.661,0,0,1,.906,2.1v3.813a4.321,4.321,0,0,0,.32,1.82V17Zm-2.086-1.367a2.159,2.159,0,0,0,1.059-.273,1.827,1.827,0,0,0,.746-.734V13.031H82.363a2.8,2.8,0,0,0-1.586.367,1.189,1.189,0,0,0-.531,1.039,1.109,1.109,0,0,0,.363.871A1.407,1.407,0,0,0,81.582,15.633Zm8.07-9.141V8.547h1.492V9.953H89.652v4.719a1.039,1.039,0,0,0,.191.7.888.888,0,0,0,.684.215,2.925,2.925,0,0,0,.664-.078v1.469a4.676,4.676,0,0,1-1.25.18q-2.188,0-2.187-2.414V9.953H86.363V8.547h1.391V6.492Zm8.063,9.68a2.944,2.944,0,0,1-2.375.984,2.624,2.624,0,0,1-2.082-.8,3.423,3.423,0,0,1-.707-2.328V8.547h1.9V14q0,1.609,1.336,1.609a1.876,1.876,0,0,0,1.867-.992V8.547h1.9V17H97.762Zm8.2-5.891a4.7,4.7,0,0,0-.773-.062,1.741,1.741,0,0,0-1.758,1V17h-1.9V8.547h1.813l.047.945a2.139,2.139,0,0,1,1.906-1.1,1.777,1.777,0,0,1,.672.109ZM111.926,17a2.93,2.93,0,0,1-.219-.789,3.193,3.193,0,0,1-4.3.219,2.325,2.325,0,0,1-.8-1.8,2.4,2.4,0,0,1,1-2.074,4.865,4.865,0,0,1,2.871-.723h1.164v-.555a1.481,1.481,0,0,0-.367-1.051,1.456,1.456,0,0,0-1.117-.395,1.672,1.672,0,0,0-1.062.324,1,1,0,0,0-.414.824h-1.9a2.107,2.107,0,0,1,.461-1.3,3.071,3.071,0,0,1,1.254-.949,4.4,4.4,0,0,1,1.77-.344,3.547,3.547,0,0,1,2.367.746,2.661,2.661,0,0,1,.906,2.1v3.813a4.321,4.321,0,0,0,.32,1.82V17Zm-2.086-1.367a2.159,2.159,0,0,0,1.059-.273,1.827,1.827,0,0,0,.746-.734V13.031h-1.023a2.8,2.8,0,0,0-1.586.367,1.189,1.189,0,0,0-.531,1.039,1.109,1.109,0,0,0,.363.871A1.407,1.407,0,0,0,109.84,15.633ZM117.551,17h-1.9V5h1.9Z" transform="translate(841.41 3741.809)" fill="#f6f6f6"/>
          <g transform="matrix(1, 0, 0, 1, 249.05, 3666.4)" filter="url(#Trazado_741098)">
            <path id="Trazado_741098-2" data-name="Trazado 741098" d="M3001.077-7695.035l66.888,43.383,64.674-43.383-64.674-42.857Z" transform="translate(-2669.84 7780.89)" fill="#221b6b"/>
          </g>
          <path id="Trazado_742370" data-name="Trazado 742370" d="M22.06,7.219H18.513V17H16.552V7.219H13.037V5.625H22.06ZM25.388,17h-1.9V8.547h1.9ZM23.373,6.352a1.008,1.008,0,0,1,.277-.727,1.048,1.048,0,0,1,.793-.289,1.061,1.061,0,0,1,.8.289,1,1,0,0,1,.281.727.977.977,0,0,1-.281.715,1.069,1.069,0,0,1-.8.285,1.056,1.056,0,0,1-.793-.285A.984.984,0,0,1,23.373,6.352Zm7.8,10.8a3.928,3.928,0,0,1-2.926-1.137,4.124,4.124,0,0,1-1.121-3.027v-.234a5.072,5.072,0,0,1,.488-2.262A3.716,3.716,0,0,1,28.99,8.945a3.625,3.625,0,0,1,1.969-.555,3.318,3.318,0,0,1,2.668,1.1,4.658,4.658,0,0,1,.941,3.117v.766H29.045a2.539,2.539,0,0,0,.7,1.656,2.1,2.1,0,0,0,1.543.609,2.571,2.571,0,0,0,2.125-1.055l1.023.977a3.418,3.418,0,0,1-1.355,1.176A4.244,4.244,0,0,1,31.177,17.156Zm-.227-7.242a1.6,1.6,0,0,0-1.262.547,2.835,2.835,0,0,0-.613,1.523h3.617v-.141a2.307,2.307,0,0,0-.508-1.441A1.586,1.586,0,0,0,30.951,9.914ZM37.8,8.547l.055.977a3.039,3.039,0,0,1,2.461-1.133q2.641,0,2.688,3.023V17h-1.9V11.523a1.741,1.741,0,0,0-.348-1.191,1.462,1.462,0,0,0-1.137-.387,1.829,1.829,0,0,0-1.711,1.039V17h-1.9V8.547Zm10.859,8.609a3.928,3.928,0,0,1-2.926-1.137,4.124,4.124,0,0,1-1.121-3.027v-.234A5.072,5.072,0,0,1,45.1,10.5a3.716,3.716,0,0,1,1.371-1.551,3.625,3.625,0,0,1,1.969-.555,3.318,3.318,0,0,1,2.668,1.1,4.658,4.658,0,0,1,.941,3.117v.766H46.529a2.539,2.539,0,0,0,.7,1.656,2.1,2.1,0,0,0,1.543.609A2.571,2.571,0,0,0,50.9,14.586l1.023.977a3.418,3.418,0,0,1-1.355,1.176A4.244,4.244,0,0,1,48.662,17.156Zm-.227-7.242a1.6,1.6,0,0,0-1.262.547,2.835,2.835,0,0,0-.613,1.523h3.617v-.141A2.307,2.307,0,0,0,49.67,10.4,1.586,1.586,0,0,0,48.435,9.914Z" transform="translate(613.446 3740.712)" fill="#f6f6f6"/>
          <g transform="matrix(1, 0, 0, 1, 249.05, 3666.4)" filter="url(#Elipse_7756)">
            <ellipse id="Elipse_7756-2" data-name="Elipse 7756" cx="77.61" cy="23.058" rx="77.61" ry="23.058" transform="translate(578.49 167.41)" fill="#221b6b"/>
          </g>
          <path id="Trazado_742373" data-name="Trazado 742373" d="M34.027,14.07a1.374,1.374,0,0,0-.527-1.156,6.345,6.345,0,0,0-1.9-.82,9.186,9.186,0,0,1-2.187-.922,2.919,2.919,0,0,1-1.555-2.547,2.772,2.772,0,0,1,1.121-2.266,4.538,4.538,0,0,1,2.91-.891A4.916,4.916,0,0,1,34,5.906a3.475,3.475,0,0,1,1.461,1.246A3.2,3.2,0,0,1,36,8.945H34.027a1.782,1.782,0,0,0-.559-1.395,2.305,2.305,0,0,0-1.6-.5,2.408,2.408,0,0,0-1.5.414,1.379,1.379,0,0,0-.535,1.156A1.247,1.247,0,0,0,30.41,9.66a6.66,6.66,0,0,0,1.906.813,8.768,8.768,0,0,1,2.133.9,3.392,3.392,0,0,1,1.18,1.156A3.011,3.011,0,0,1,36,14.055a2.707,2.707,0,0,1-1.09,2.262,4.727,4.727,0,0,1-2.957.84,5.557,5.557,0,0,1-2.27-.457,3.812,3.812,0,0,1-1.609-1.262,3.144,3.144,0,0,1-.574-1.875H29.48a1.84,1.84,0,0,0,.641,1.5,2.805,2.805,0,0,0,1.836.531,2.437,2.437,0,0,0,1.551-.418A1.349,1.349,0,0,0,34.027,14.07Zm8.648,2.1a2.944,2.944,0,0,1-2.375.984,2.624,2.624,0,0,1-2.082-.8,3.423,3.423,0,0,1-.707-2.328V8.547h1.9V14q0,1.609,1.336,1.609a1.876,1.876,0,0,0,1.867-.992V8.547h1.9V17H42.723Zm11.172-3.312a5.033,5.033,0,0,1-.891,3.129,3.094,3.094,0,0,1-4.617.254V20.25h-1.9V8.547h1.75l.078.859a2.788,2.788,0,0,1,2.273-1.016,2.881,2.881,0,0,1,2.426,1.152,5.167,5.167,0,0,1,.879,3.2ZM51.957,12.7a3.526,3.526,0,0,0-.5-2.008,1.638,1.638,0,0,0-1.441-.742,1.747,1.747,0,0,0-1.672.961v3.75a1.763,1.763,0,0,0,1.688.984,1.636,1.636,0,0,0,1.418-.73A3.881,3.881,0,0,0,51.957,12.7Zm7.219,4.461A3.928,3.928,0,0,1,56.25,16.02a4.124,4.124,0,0,1-1.121-3.027v-.234a5.072,5.072,0,0,1,.488-2.262,3.716,3.716,0,0,1,1.371-1.551,3.625,3.625,0,0,1,1.969-.555,3.318,3.318,0,0,1,2.668,1.1,4.658,4.658,0,0,1,.941,3.117v.766H57.043a2.539,2.539,0,0,0,.7,1.656,2.1,2.1,0,0,0,1.543.609,2.571,2.571,0,0,0,2.125-1.055l1.023.977a3.418,3.418,0,0,1-1.355,1.176A4.244,4.244,0,0,1,59.176,17.156Zm-.227-7.242a1.6,1.6,0,0,0-1.262.547,2.835,2.835,0,0,0-.613,1.523h3.617v-.141a2.307,2.307,0,0,0-.508-1.441A1.586,1.586,0,0,0,58.949,9.914Zm9.516.367a4.7,4.7,0,0,0-.773-.062,1.741,1.741,0,0,0-1.758,1V17h-1.9V8.547h1.813l.047.945a2.139,2.139,0,0,1,1.906-1.1,1.777,1.777,0,0,1,.672.109ZM70.168,17V9.953H68.879V8.547h1.289V7.969a3.382,3.382,0,0,1,.422-1.7A2.624,2.624,0,0,1,71.762,5.2a4.218,4.218,0,0,1,1.82-.359,5.306,5.306,0,0,1,1.2.133q.574.133,1.191.336l-.289,1.57A6.043,6.043,0,0,0,73.715,6.5a1.759,1.759,0,0,0-1.258.379,1.516,1.516,0,0,0-.391,1.137v.531H73.73V9.953H72.066V17Zm6.7,0h-1.9V8.547h1.9Zm5.578-1.359a1.716,1.716,0,0,0,1.18-.414,1.415,1.415,0,0,0,.5-1.023h1.789a2.789,2.789,0,0,1-.492,1.473,3.228,3.228,0,0,1-1.25,1.082,3.725,3.725,0,0,1-1.7.4,3.6,3.6,0,0,1-2.812-1.148,4.555,4.555,0,0,1-1.039-3.172v-.2a4.479,4.479,0,0,1,1.031-3.09,3.571,3.571,0,0,1,2.813-1.16,3.473,3.473,0,0,1,2.457.879,3.148,3.148,0,0,1,1,2.309H84.129a1.738,1.738,0,0,0-.5-1.2,1.6,1.6,0,0,0-1.184-.469,1.671,1.671,0,0,0-1.422.668,3.408,3.408,0,0,0-.508,2.027v.3a3.465,3.465,0,0,0,.5,2.051A1.669,1.669,0,0,0,82.449,15.641ZM89.371,17h-1.9V8.547h1.9ZM87.355,6.352a1.008,1.008,0,0,1,.277-.727,1.048,1.048,0,0,1,.793-.289,1.061,1.061,0,0,1,.8.289,1,1,0,0,1,.281.727.977.977,0,0,1-.281.715,1.069,1.069,0,0,1-.8.285,1.056,1.056,0,0,1-.793-.285A.984.984,0,0,1,87.355,6.352Zm7.8,10.8a3.928,3.928,0,0,1-2.926-1.137,4.124,4.124,0,0,1-1.121-3.027v-.234A5.072,5.072,0,0,1,91.6,10.5a3.716,3.716,0,0,1,1.371-1.551,3.625,3.625,0,0,1,1.969-.555,3.318,3.318,0,0,1,2.668,1.1,4.658,4.658,0,0,1,.941,3.117v.766H93.027a2.539,2.539,0,0,0,.7,1.656,2.1,2.1,0,0,0,1.543.609,2.571,2.571,0,0,0,2.125-1.055l1.023.977a3.418,3.418,0,0,1-1.355,1.176A4.244,4.244,0,0,1,95.16,17.156Zm-.227-7.242a1.6,1.6,0,0,0-1.262.547,2.835,2.835,0,0,0-.613,1.523h3.617v-.141a2.307,2.307,0,0,0-.508-1.441A1.586,1.586,0,0,0,94.934,9.914Z" transform="translate(841.41 3846.809)" fill="#f6f6f6"/>
        </g>
      </g>
    </g>
  </g>
</svg>
