<svg id="Grupo_1021169" data-name="Grupo 1021169" xmlns="http://www.w3.org/2000/svg" width="66.216" height="66.216" viewBox="0 0 66.216 66.216">
  <g id="Grupo_1021109" data-name="Grupo 1021109">
    <path id="Trazado_734791" data-name="Trazado 734791" d="M33.108,0A33.108,33.108,0,1,1,0,33.108,33.108,33.108,0,0,1,33.108,0Z" fill="#362b9e"/>
  </g>
  <g id="informacion-personal" transform="translate(-14.084 14.159)">
    <path id="Trazado_738185" data-name="Trazado 738185" d="M277.482,382.736h-3.021L271,375.78l11.438,2.381v2.288Z" transform="translate(-221.699 -347.125)" fill="#a2abb8"/>
    <path id="Trazado_738186" data-name="Trazado 738186" d="M356,439.288h3.813a1.147,1.147,0,0,0,1.144-1.144V437H356Z" transform="translate(-300.218 -403.677)" fill="#c8d2dc"/>
    <path id="Trazado_738187" data-name="Trazado 738187" d="M197.395,46.7h4.194a1.147,1.147,0,0,1,1.144,1.144V73.03a1.147,1.147,0,0,1-1.144,1.144H182.144A1.147,1.147,0,0,1,181,73.03V64.871Z" transform="translate(-138.562 -43.139)" fill="#e9edf1"/>
    <path id="Trazado_738188" data-name="Trazado 738188" d="M182.144,46.7h14.869V67.858A1.147,1.147,0,0,1,195.869,69h-3.05v5.172h-2.288L181,47.844A1.147,1.147,0,0,1,182.144,46.7Z" transform="translate(-138.562 -43.139)" fill="#c8d2dc"/>
    <g id="Grupo_1021289" data-name="Grupo 1021289" transform="translate(52.16 8.579)">
      <path id="Trazado_738189" data-name="Trazado 738189" d="M317.079,338.644h-8.007a.572.572,0,1,1,0-1.144h8.007a.572.572,0,0,1,0,1.144Z" transform="translate(-308.5 -320.343)" fill="#a2abb8"/>
      <path id="Trazado_738190" data-name="Trazado 738190" d="M317.079,293.644h-8.007a.572.572,0,1,1,0-1.144h8.007a.572.572,0,1,1,0,1.144Z" transform="translate(-308.5 -278.774)" fill="#a2abb8"/>
      <path id="Trazado_738191" data-name="Trazado 738191" d="M317.079,248.644h-8.007a.572.572,0,1,1,0-1.144h8.007a.572.572,0,0,1,0,1.144Z" transform="translate(-308.5 -237.206)" fill="#a2abb8"/>
      <path id="Trazado_738192" data-name="Trazado 738192" d="M317.079,203.644h-8.007a.572.572,0,1,1,0-1.144h8.007a.572.572,0,1,1,0,1.144Z" transform="translate(-308.5 -195.637)" fill="#a2abb8"/>
      <path id="Trazado_738193" data-name="Trazado 738193" d="M317.079,158.644h-8.007a.572.572,0,1,1,0-1.144h8.007a.572.572,0,1,1,0,1.144Z" transform="translate(-308.5 -154.069)" fill="#a2abb8"/>
      <path id="Trazado_738194" data-name="Trazado 738194" d="M317.079,113.644h-8.007a.572.572,0,1,1,0-1.144h8.007a.572.572,0,0,1,0,1.144Z" transform="translate(-308.5 -112.5)" fill="#a2abb8"/>
    </g>
    <path id="Trazado_738195" data-name="Trazado 738195" d="M32.144,91.7A1.147,1.147,0,0,0,31,92.844v29.162a.6.6,0,0,0,.6.6H52.133a.6.6,0,0,0,.6-.6v-.926Z" transform="translate(0 -84.708)" fill="#1a8bb8"/>
    <path id="Trazado_738196" data-name="Trazado 738196" d="M50.194,91.7H46v28.836a.546.546,0,0,0,.544.544H66.588V109.109Z" transform="translate(-13.856 -84.708)" fill="#34b5e8"/>
    <path id="Trazado_738197" data-name="Trazado 738197" d="M116.251,91.7H101v16.265a1.147,1.147,0,0,0,1.144,1.144h15.251V92.844A1.147,1.147,0,0,0,116.251,91.7Z" transform="translate(-64.662 -84.708)" fill="#1a8bb8"/>
    <path id="Trazado_738198" data-name="Trazado 738198" d="M139.3,22.876H122.144A1.147,1.147,0,0,1,121,21.732V1.144A1.147,1.147,0,0,1,122.144,0H139.3a1.147,1.147,0,0,1,1.144,1.144V21.732A1.147,1.147,0,0,1,139.3,22.876Z" transform="translate(-83.137)" fill="#e9e9ff"/>
    <path id="Trazado_738199" data-name="Trazado 738199" d="M160.911,182.544c-.7.506-4.257.506-4.952,0-1.213,1.634-4.959.745-4.959,4.682v1.865a.121.121,0,0,0,.121.121h14.627a.121.121,0,0,0,.121-.121v-1.865C165.869,183.289,162.124,184.178,160.911,182.544Z" transform="translate(-110.85 -168.624)" fill="#fd6930"/>
    <path id="Trazado_738200" data-name="Trazado 738200" d="M220.98,167.015a2.071,2.071,0,0,1-.375-1.282h-4.2a2.07,2.07,0,0,1-.375,1.282,4.209,4.209,0,0,0,4.952,0Z" transform="translate(-170.919 -153.095)" fill="#eb5920"/>
    <path id="Trazado_738201" data-name="Trazado 738201" d="M201.684,35.912a4.212,4.212,0,0,0-8.425,0V38.27a4.212,4.212,0,0,0,8.425,0Z" transform="translate(-149.886 -29.283)" fill="#fd6930"/>
  </g>
</svg>
