<svg xmlns="http://www.w3.org/2000/svg" width="76.999" height="76.999" viewBox="0 0 76.999 76.999">
  <g id="Grupo_1022446" data-name="Grupo 1022446" transform="translate(-1044 -4062)">
    <path id="Trazado_734782" data-name="Trazado 734782" d="M38.5,0A38.5,38.5,0,1,1,0,38.5,38.5,38.5,0,0,1,38.5,0Z" transform="translate(1044 4062)" fill="#362b9e"/>
    <g id="analisis-de-los-datos" transform="translate(1058 4079.482)">
      <path id="Trazado_741136" data-name="Trazado 741136" d="M35.117,31.063a11.071,11.071,0,1,0-19.18,0H3.384A1.384,1.384,0,0,1,2,29.679V3.384A1.384,1.384,0,0,1,3.384,2h38.75a1.384,1.384,0,0,1,1.384,1.384V29.679a1.384,1.384,0,0,1-1.384,1.384Z" fill="#d6d6d6"/>
      <path id="Trazado_741137" data-name="Trazado 741137" d="M40.694,26.219V2H3.384A1.384,1.384,0,0,0,2,3.384V27.6H14.653a10.864,10.864,0,0,1-.037-3.928,11.2,11.2,0,0,1,11.012-9.219A11.064,11.064,0,0,1,36.4,27.6h2.906a1.384,1.384,0,0,0,1.387-1.384Z" fill="#e5e5e5"/>
      <path id="Trazado_741138" data-name="Trazado 741138" d="M25.46,54.626H22V53.242h3.173l3.949-3.949.978.978-4.152,4.152A.692.692,0,0,1,25.46,54.626Z" transform="translate(-6.161 -14.568)" fill="#939393"/>
      <path id="Trazado_741139" data-name="Trazado 741139" d="M50.578,47.81,47.9,45.137A11.141,11.141,0,0,1,45.137,47.9l2.673,2.673Z" transform="translate(-13.288 -13.288)" fill="#f0ae42"/>
      <path id="Trazado_741140" data-name="Trazado 741140" d="M46.792,46.974l1.038,1.038a.692.692,0,0,0,.978,0l1.241-1.24-1.635-1.635A11.172,11.172,0,0,1,46.792,46.974Z" transform="translate(-13.797 -13.288)" fill="#f9d266"/>
      <path id="Trazado_741141" data-name="Trazado 741141" d="M16.4,32.067H5.692A.692.692,0,0,1,5,31.375V12H6.384V30.683H16.4Z" transform="translate(-0.924 -3.08)" fill="#3b5892"/>
      <path id="Trazado_741142" data-name="Trazado 741142" d="M10.283,32.463l-1.02-.936,7.612-8.3a.692.692,0,0,1,.51-.224h.006a.692.692,0,0,1,.512.232l1.845,2.076-1.038.92-1.335-1.5Z" transform="translate(-2.237 -6.469)" fill="#ebc819"/>
      <path id="Trazado_741143" data-name="Trazado 741143" d="M52.152,48,48,52.152l4.676,4.676a2.936,2.936,0,1,0,4.152-4.152Z" transform="translate(-14.169 -14.169)" fill="#4c6cb5"/>
      <path id="Trazado_741144" data-name="Trazado 741144" d="M52.614,48,49.5,51.114l3.638,3.638a2.928,2.928,0,0,0,4.814-1.038,2.926,2.926,0,0,0-.662-1.038Z" transform="translate(-14.632 -14.169)" fill="#5e87ca"/>
      <path id="Trazado_741145" data-name="Trazado 741145" d="M46.149,12h-3.46v1.384h1.789l-4.734,4.734.978.978,4.734-4.734v1.789h1.384v-3.46A.692.692,0,0,0,46.149,12Z" transform="translate(-11.626 -3.08)" fill="#ebc819"/>
      <rect id="Rect치ngulo_372980" data-name="Rect치ngulo 372980" width="11" height="9" rx="2" transform="translate(8 4.518)" fill="#3b5892"/>
      <path id="Trazado_741146" data-name="Trazado 741146" d="M19.688,11.536V6h-8.3A1.384,1.384,0,0,0,10,7.384V12.92h8.3A1.384,1.384,0,0,0,19.688,11.536Z" transform="translate(-2.464 -1.232)" fill="#ffe45c"/>
      <path id="Trazado_741147" data-name="Trazado 741147" d="M13,9h6.92v1.384H13Z" transform="translate(-3.388 -2.156)" fill="#78a0d4"/>
      <path id="Trazado_741148" data-name="Trazado 741148" d="M13,13h6.92v1.384H13Z" transform="translate(-3.388 -3.388)" fill="#78a0d4"/>
      <rect id="Rect치ngulo_372981" data-name="Rect치ngulo 372981" width="11" height="8" rx="2" transform="translate(5 35.518)" fill="#3b5892"/>
      <path id="Trazado_741149" data-name="Trazado 741149" d="M15.688,55.536V50h-8.3A1.384,1.384,0,0,0,6,51.384V56.92h8.3A1.384,1.384,0,0,0,15.688,55.536Z" transform="translate(-1.232 -14.786)" fill="#ffe45c"/>
      <path id="Trazado_741150" data-name="Trazado 741150" d="M9,53h6.92v1.384H9Z" transform="translate(-2.156 -15.71)" fill="#78a0d4"/>
      <path id="Trazado_741151" data-name="Trazado 741151" d="M9,57h6.92v1.384H9Z" transform="translate(-2.156 -16.942)" fill="#78a0d4"/>
      <path id="Trazado_741152" data-name="Trazado 741152" d="M32.7,18.181l-3.623-5.8H26V11h3.46a.692.692,0,0,1,.587.325l3.827,6.123Z" transform="translate(-7.393 -2.772)" fill="#939393"/>
      <ellipse id="Elipse_7760" data-name="Elipse 7760" cx="11.5" cy="11" rx="11.5" ry="11" transform="translate(14 14.518)" fill="#4c6cb5"/>
      <ellipse id="Elipse_7761" data-name="Elipse 7761" cx="8.5" cy="8" rx="8.5" ry="8" transform="translate(17 17.518)" fill="#f2f2f2"/>
      <path id="Trazado_741153" data-name="Trazado 741153" d="M38.531,30.92a8.272,8.272,0,0,0-2.724-6.136A8.293,8.293,0,0,0,26.723,38.44a8.29,8.29,0,0,0,11.808-7.52Z" transform="translate(-6.776 -6.777)" fill="#fff"/>
      <g id="Grupo_1022442" data-name="Grupo 1022442" transform="translate(17.495 17.243)">
        <path id="Trazado_741154" data-name="Trazado 741154" d="M24.882,40.384h8.926V39H24.393a8.231,8.231,0,0,0,.489,1.384Z" transform="translate(-24.393 -28.64)" fill="#c0dafc"/>
        <path id="Trazado_741155" data-name="Trazado 741155" d="M33.113,24.028l-5.2,5.2-1.76-1.978a8.315,8.315,0,0,0-.779,1.207l1.99,2.239a.692.692,0,0,0,.5.232h.021a.692.692,0,0,0,.489-.2l6.442-6.44a8.244,8.244,0,0,0-1.7-.257Z" transform="translate(-24.695 -24.028)" fill="#ebc819"/>
      </g>
    </g>
  </g>
</svg>
