<svg id="Grupo_1021688" data-name="Grupo 1021688" xmlns="http://www.w3.org/2000/svg" width="76.999" height="76.999" viewBox="0 0 76.999 76.999">
  <path id="Trazado_734782" data-name="Trazado 734782" d="M38.5,0A38.5,38.5,0,1,1,0,38.5,38.5,38.5,0,0,1,38.5,0Z" fill="#362b9e"/>
  <g id="codigo-binario_1_" data-name="codigo-binario (1)" transform="translate(14.001 18.5)">
    <path id="Trazado_739230" data-name="Trazado 739230" d="M41.07,37.562H39.751c-.95,0-.763-1.2.037-1.347a7.709,7.709,0,0,1,1.282,0,3.408,3.408,0,0,0,3.318-3.484V5.33A3.408,3.408,0,0,0,41.07,1.846H4.664A3.408,3.408,0,0,0,1.346,5.33v3.8A.674.674,0,0,1,0,9.133V5.33A4.755,4.755,0,0,1,4.664.5H41.07a4.755,4.755,0,0,1,4.665,4.83v27.4a4.755,4.755,0,0,1-4.665,4.831Zm0,0" transform="translate(0 0)" fill="#fff"/>
    <path id="Trazado_739231" data-name="Trazado 739231" d="M38.883,161.942a1.605,1.605,0,0,1-.952-.315l-8.282-6.086H4.665A4.755,4.755,0,0,1,0,150.711V130.7a.674.674,0,0,1,1.347,0v20.008a3.408,3.408,0,0,0,3.318,3.484H29.87a.671.671,0,0,1,.4.131l8.46,6.217c.212.156.447-.053.443-.282l-.03-1.717a.674.674,0,0,1,1.347-.023l.03,1.717a1.675,1.675,0,0,1-1.635,1.7Zm0,0" transform="translate(-0.001 -117.979)" fill="#fff"/>
    <path id="Trazado_739232" data-name="Trazado 739232" d="M60.139,75.618a2.149,2.149,0,0,1-2.147-2.147V71.209a2.147,2.147,0,0,1,4.294,0v2.262A2.149,2.149,0,0,1,60.139,75.618Zm0-5.209a.8.8,0,0,0-.8.8v2.262a.8.8,0,0,0,1.6,0V71.209A.8.8,0,0,0,60.139,70.409Zm0,0" transform="translate(-52.812 -62.438)" fill="#fff"/>
    <path id="Trazado_739233" data-name="Trazado 739233" d="M174.456,75.618a2.149,2.149,0,0,1-2.147-2.147V71.209a2.147,2.147,0,1,1,4.294,0v2.262A2.15,2.15,0,0,1,174.456,75.618Zm0-5.209a.8.8,0,0,0-.8.8v2.262a.8.8,0,0,0,1.6,0V71.209A.8.8,0,0,0,174.456,70.409Zm0,0" transform="translate(-156.918 -62.438)" fill="#fff"/>
    <path id="Trazado_739234" data-name="Trazado 739234" d="M403.085,75.618a2.15,2.15,0,0,1-2.147-2.147V71.209a2.147,2.147,0,0,1,4.294,0v2.262A2.149,2.149,0,0,1,403.085,75.618Zm0-5.209a.8.8,0,0,0-.8.8v2.262a.8.8,0,0,0,1.6,0V71.209A.8.8,0,0,0,403.085,70.409Zm0,0" transform="translate(-365.124 -62.438)" fill="#fff"/>
    <path id="Trazado_739235" data-name="Trazado 739235" d="M288.772,75.618a2.149,2.149,0,0,1-2.147-2.147V71.209a2.147,2.147,0,1,1,4.294,0v2.262A2.15,2.15,0,0,1,288.772,75.618Zm0-5.209a.8.8,0,0,0-.8.8v2.262a.8.8,0,0,0,1.6,0V71.209A.8.8,0,0,0,288.772,70.409Zm0,0" transform="translate(-261.022 -62.438)" fill="#fff"/>
    <path id="Trazado_739236" data-name="Trazado 739236" d="M132.322,75.843a.673.673,0,0,1-.673-.673V69.961a.674.674,0,0,1,1.347,0V75.17A.673.673,0,0,1,132.322,75.843Zm0,0" transform="translate(-119.89 -62.663)" fill="#fff"/>
    <path id="Trazado_739237" data-name="Trazado 739237" d="M360.95,75.843a.673.673,0,0,1-.673-.673V69.961a.674.674,0,0,1,1.347,0V75.17A.673.673,0,0,1,360.95,75.843Zm0,0" transform="translate(-328.095 -62.663)" fill="#fff"/>
    <path id="Trazado_739238" data-name="Trazado 739238" d="M246.638,75.843a.673.673,0,0,1-.673-.673V69.961a.674.674,0,0,1,1.347,0V75.17A.673.673,0,0,1,246.638,75.843Zm0,0" transform="translate(-223.994 -62.663)" fill="#fff"/>
    <path id="Trazado_739239" data-name="Trazado 739239" d="M106.3,175.782a2.149,2.149,0,0,1-2.147-2.147v-2.262a2.147,2.147,0,0,1,4.294,0v2.262A2.15,2.15,0,0,1,106.3,175.782Zm0-5.209a.8.8,0,0,0-.8.8v2.262a.8.8,0,0,0,1.6,0v-2.262A.8.8,0,0,0,106.3,170.573Zm0,0" transform="translate(-94.85 -153.655)" fill="#fff"/>
    <path id="Trazado_739240" data-name="Trazado 739240" d="M58.666,175.815a.673.673,0,0,1-.673-.673v-5.209a.674.674,0,0,1,1.347,0v5.209a.673.673,0,0,1-.673.673Zm0,0" transform="translate(-52.813 -153.705)" fill="#fff"/>
    <path id="Trazado_739241" data-name="Trazado 739241" d="M231.612,175.782a2.149,2.149,0,0,1-2.147-2.147v-2.262a2.147,2.147,0,1,1,4.294,0v2.262A2.149,2.149,0,0,1,231.612,175.782Zm0-5.209a.8.8,0,0,0-.8.8v2.262a.8.8,0,0,0,1.6,0v-2.262A.8.8,0,0,0,231.612,170.573Zm0,0" transform="translate(-208.968 -153.655)" fill="#fff"/>
    <path id="Trazado_739242" data-name="Trazado 739242" d="M183.978,175.815a.673.673,0,0,1-.673-.673v-5.209a.674.674,0,0,1,1.347,0v5.209A.673.673,0,0,1,183.978,175.815Zm0,0" transform="translate(-166.932 -153.705)" fill="#fff"/>
    <path id="Trazado_739243" data-name="Trazado 739243" d="M356.928,176.821a2.149,2.149,0,0,1-2.147-2.147v-2.262a2.147,2.147,0,1,1,4.294,0v2.262A2.15,2.15,0,0,1,356.928,176.821Zm0-5.209a.8.8,0,0,0-.8.8v2.262a.8.8,0,1,0,1.6,0v-2.262A.8.8,0,0,0,356.928,171.612Zm0,0" transform="translate(-323.09 -154.601)" fill="#fff"/>
    <path id="Trazado_739244" data-name="Trazado 739244" d="M309.294,176.856a.673.673,0,0,1-.673-.673v-5.209a.674.674,0,0,1,1.347,0v5.209A.673.673,0,0,1,309.294,176.856Zm0,0" transform="translate(-281.053 -154.652)" fill="#fff"/>
    <path id="Trazado_739245" data-name="Trazado 739245" d="M355.706,328.667a.674.674,0,0,0,0-1.347A.674.674,0,0,0,355.706,328.667Zm0,0" transform="translate(-323.34 -297.626)" fill="#fff"/>
    <path id="Trazado_739246" data-name="Trazado 739246" d="M395.4,328.667a.674.674,0,0,0,0-1.347A.674.674,0,0,0,395.4,328.667Zm0,0" transform="translate(-359.489 -297.626)" fill="#fff"/>
    <path id="Trazado_739247" data-name="Trazado 739247" d="M435.1,328.667a.674.674,0,0,0,0-1.347A.674.674,0,0,0,435.1,328.667Zm0,0" transform="translate(-395.64 -297.626)" fill="#fff"/>
    <path id="Trazado_739248" data-name="Trazado 739248" d="M434.607,176.856a.673.673,0,0,1-.673-.673v-5.209a.674.674,0,0,1,1.347,0v5.209A.673.673,0,0,1,434.607,176.856Zm0,0" transform="translate(-395.173 -154.652)" fill="#fff"/>
    <path id="Trazado_739249" data-name="Trazado 739249" d="M60.139,275.56a2.15,2.15,0,0,1-2.147-2.147V271.15a2.147,2.147,0,1,1,4.294,0v2.262A2.149,2.149,0,0,1,60.139,275.56Zm0-5.209a.8.8,0,0,0-.8.8v2.262a.8.8,0,1,0,1.6,0v-2.262A.8.8,0,0,0,60.139,270.35Zm0,0" transform="translate(-52.812 -244.519)" fill="#fff"/>
    <path id="Trazado_739250" data-name="Trazado 739250" d="M174.456,275.56a2.15,2.15,0,0,1-2.147-2.147V271.15a2.147,2.147,0,1,1,4.294,0v2.262A2.15,2.15,0,0,1,174.456,275.56Zm0-5.209a.8.8,0,0,0-.8.8v2.262a.8.8,0,1,0,1.6,0v-2.262A.8.8,0,0,0,174.456,270.35Zm0,0" transform="translate(-156.918 -244.519)" fill="#fff"/>
    <path id="Trazado_739251" data-name="Trazado 739251" d="M288.772,275.56a2.15,2.15,0,0,1-2.147-2.147V271.15a2.147,2.147,0,1,1,4.294,0v2.262A2.15,2.15,0,0,1,288.772,275.56Zm0-5.209a.8.8,0,0,0-.8.8v2.262a.8.8,0,1,0,1.6,0v-2.262A.8.8,0,0,0,288.772,270.35Zm0,0" transform="translate(-261.022 -244.519)" fill="#fff"/>
    <path id="Trazado_739252" data-name="Trazado 739252" d="M132.322,275.785a.673.673,0,0,1-.673-.673V269.9a.674.674,0,0,1,1.347,0v5.209A.673.673,0,0,1,132.322,275.785Zm0,0" transform="translate(-119.89 -244.744)" fill="#fff"/>
    <path id="Trazado_739253" data-name="Trazado 739253" d="M246.638,275.785a.673.673,0,0,1-.673-.673V269.9a.674.674,0,0,1,1.347,0v5.209A.673.673,0,0,1,246.638,275.785Zm0,0" transform="translate(-223.994 -244.744)" fill="#fff"/>
  </g>
</svg>
