<svg xmlns="http://www.w3.org/2000/svg" width="76.999" height="76.999" viewBox="0 0 76.999 76.999">
  <g id="Grupo_1021690" data-name="Grupo 1021690" transform="translate(-331 -1539)">
    <path id="Trazado_734791" data-name="Trazado 734791" d="M38.5,0A38.5,38.5,0,1,1,0,38.5,38.5,38.5,0,0,1,38.5,0Z" transform="translate(331 1539)" fill="#362b9e"/>
    <g id="datos_1_" data-name="datos (1)" transform="translate(349.76 1558.255)">
      <path id="Trazado_739200" data-name="Trazado 739200" d="M35.246,131.861a.575.575,0,0,0,.814-.814l-1.4-1.4,1.4-1.4a.575.575,0,1,0-.814-.814l-1.8,1.8a.575.575,0,0,0,0,.814Zm0,0" transform="translate(-30.719 -117.036)" fill="#fff"/>
      <path id="Trazado_739201" data-name="Trazado 739201" d="M114.5,129.646l-1.4,1.4a.575.575,0,1,0,.814.814l1.8-1.8a.575.575,0,0,0,0-.814l-1.8-1.8a.575.575,0,0,0-.814.814Zm0,0" transform="translate(-104.259 -117.032)" fill="#fff"/>
      <path id="Trazado_739202" data-name="Trazado 739202" d="M76.782,131.985a.575.575,0,0,0,.746-.325l1.417-3.608a.575.575,0,1,0-1.071-.421l-1.418,3.608A.576.576,0,0,0,76.782,131.985Zm0,0" transform="translate(-70.549 -117.031)" fill="#fff"/>
      <path id="Trazado_739203" data-name="Trazado 739203" d="M38.091,219.366h3.877a.575.575,0,0,0,0-1.151H38.091a.575.575,0,0,0,0,1.151Zm0,0" transform="translate(-34.635 -200.996)" fill="#fff"/>
      <path id="Trazado_739204" data-name="Trazado 739204" d="M122.9,218.215h-6.815a.575.575,0,0,0,0,1.151H122.9a.575.575,0,1,0,0-1.151Zm0,0" transform="translate(-106.642 -200.996)" fill="#fff"/>
      <path id="Trazado_739205" data-name="Trazado 739205" d="M38.091,250.972h1.651a.575.575,0,0,0,0-1.151H38.091a.575.575,0,0,0,0,1.151Zm0,0" transform="translate(-34.635 -230.175)" fill="#fff"/>
      <path id="Trazado_739206" data-name="Trazado 739206" d="M177.423,249.82a.575.575,0,0,0,0,1.151h1.005a.575.575,0,1,0,0-1.151Zm0,0" transform="translate(-163.268 -230.174)" fill="#fff"/>
      <path id="Trazado_739207" data-name="Trazado 739207" d="M91.4,250.4a.575.575,0,0,0-.575-.575H85.888a.575.575,0,0,0,0,1.151h4.939A.576.576,0,0,0,91.4,250.4Zm0,0" transform="translate(-78.761 -230.175)" fill="#fff"/>
      <path id="Trazado_739208" data-name="Trazado 739208" d="M213.7,250.4a.576.576,0,0,0,.575.576h1.884a.575.575,0,1,0,0-1.151h-1.884A.575.575,0,0,0,213.7,250.4Zm0,0" transform="translate(-197.293 -230.175)" fill="#fff"/>
      <path id="Trazado_739209" data-name="Trazado 739209" d="M165.975,150.429h1.987a.576.576,0,1,0,0-1.151h-1.987a.576.576,0,1,0,0,1.151Zm0,0" transform="translate(-152.698 -137.353)" fill="#fff"/>
      <path id="Trazado_739210" data-name="Trazado 739210" d="M220.822,150.429h12.122a.576.576,0,0,0,0-1.151H220.822a.576.576,0,1,0,0,1.151Zm0,0" transform="translate(-203.333 -137.353)" fill="#fff"/>
      <path id="Trazado_739211" data-name="Trazado 739211" d="M295.669,182.246h-4.91a.575.575,0,0,0,0,1.151h4.91a.575.575,0,0,0,0-1.151Zm0,0" transform="translate(-267.9 -167.789)" fill="#fff"/>
      <path id="Trazado_739212" data-name="Trazado 739212" d="M246.49,182.246H244.8a.575.575,0,0,0,0,1.151h1.688a.575.575,0,0,0,0-1.151Zm0,0" transform="translate(-225.472 -167.789)" fill="#fff"/>
      <path id="Trazado_739213" data-name="Trazado 739213" d="M165.975,183.4h4.135a.575.575,0,0,0,0-1.151h-4.135a.575.575,0,1,0,0,1.151Zm0,0" transform="translate(-152.698 -167.789)" fill="#fff"/>
      <path id="Trazado_739214" data-name="Trazado 739214" d="M103.7,281.16H99.822a.575.575,0,1,0,0,1.151H103.7a.575.575,0,1,0,0-1.151Zm0,0" transform="translate(-91.625 -259.108)" fill="#fff"/>
      <path id="Trazado_739215" data-name="Trazado 739215" d="M41.069,281.16H38.091a.575.575,0,1,0,0,1.151h2.978a.575.575,0,1,0,0-1.151Zm0,0" transform="translate(-34.635 -259.108)" fill="#fff"/>
      <path id="Trazado_739216" data-name="Trazado 739216" d="M180.929,281.16h-5.064a.575.575,0,1,0,0,1.151h5.064a.575.575,0,1,0,0-1.151Zm0,0" transform="translate(-161.829 -259.108)" fill="#fff"/>
      <path id="Trazado_739217" data-name="Trazado 739217" d="M297.692,242.668h-2.769a.575.575,0,0,0,0,1.151h2.769a.575.575,0,0,0,0-1.151Zm0,0" transform="translate(-271.744 -223.572)" fill="#fff"/>
      <path id="Trazado_739218" data-name="Trazado 739218" d="M393.552,243.819h3.909a.575.575,0,1,0,0-1.151h-3.909a.575.575,0,0,0,0,1.151Zm0,0" transform="translate(-362.8 -223.571)" fill="#fff"/>
      <path id="Trazado_739219" data-name="Trazado 739219" d="M357.327,242.668h-.9a.575.575,0,1,0,0,1.151h.9a.575.575,0,0,0,0-1.151Zm0,0" transform="translate(-328.529 -223.572)" fill="#fff"/>
      <path id="Trazado_739220" data-name="Trazado 739220" d="M294.923,325.479h2.769a.575.575,0,1,0,0-1.151h-2.769a.575.575,0,1,0,0,1.151Zm0,0" transform="translate(-271.745 -298.961)" fill="#fff"/>
      <path id="Trazado_739221" data-name="Trazado 739221" d="M393.552,325.479h3.909a.575.575,0,1,0,0-1.151h-3.909a.575.575,0,0,0,0,1.151Zm0,0" transform="translate(-362.8 -298.961)" fill="#fff"/>
      <path id="Trazado_739222" data-name="Trazado 739222" d="M356.435,325.479h.9a.575.575,0,1,0,0-1.151h-.9a.575.575,0,1,0,0,1.151Zm0,0" transform="translate(-328.533 -298.961)" fill="#fff"/>
      <path id="Trazado_739223" data-name="Trazado 739223" d="M297.692,405.988h-2.769a.575.575,0,1,0,0,1.151h2.769a.575.575,0,0,0,0-1.151Zm0,0" transform="translate(-271.744 -374.35)" fill="#fff"/>
      <path id="Trazado_739224" data-name="Trazado 739224" d="M397.461,405.988h-3.909a.575.575,0,0,0,0,1.151h3.909a.575.575,0,1,0,0-1.151Zm0,0" transform="translate(-362.799 -374.35)" fill="#fff"/>
      <path id="Trazado_739225" data-name="Trazado 739225" d="M357.327,405.988h-.9a.575.575,0,1,0,0,1.151h.9a.575.575,0,0,0,0-1.151Zm0,0" transform="translate(-328.529 -374.35)" fill="#fff"/>
      <path id="Trazado_739226" data-name="Trazado 739226" d="M36.785.5H2.532A2.536,2.536,0,0,0,0,3.033V30.875a2.535,2.535,0,0,0,2.533,2.532H4.7a.575.575,0,0,0,0-1.151H2.532A1.383,1.383,0,0,1,1.15,30.875V28.692H22.114v.992h-.456a1.133,1.133,0,0,0-1.132,1.132v1.441H8.2a.575.575,0,1,0,0,1.151h5.533v2.064H11.991a2.1,2.1,0,0,0-2.1,2.1v1.243a.96.96,0,0,0,.959.959H28.424a.96.96,0,0,0,.959-.959V37.573a2.1,2.1,0,0,0-2.1-2.1H25.544v-.727H36.182a1.133,1.133,0,0,0,1.131-1.132v-.271a2.536,2.536,0,0,0,1.96-2.466l.043-27.843A2.535,2.535,0,0,0,36.785.5ZM21.677,27.322V24.564H36.163v2.758Zm1.588-3.909V22.2H34.575v1.211Zm11.309,5.06v1.211H23.265V28.473Zm-19.7,4.934h5.647v.2a1.133,1.133,0,0,0,1.132,1.131h2.735v.727H14.879Zm12.4,3.215a.952.952,0,0,1,.951.951v1.051H11.04V37.573a.952.952,0,0,1,.951-.951Zm8.881-3.029H21.677V30.835H36.163Zm1.96-2.718a1.382,1.382,0,0,1-.809,1.256V30.815a1.133,1.133,0,0,0-1.132-1.131h-.456v-.992h2.4Zm0-3.334h-.828c.012-.065.019-3,.019-3a1.133,1.133,0,0,0-1.132-1.132h-.456V22.2h.456a1.133,1.133,0,0,0,1.132-1.132v-2.8a1.133,1.133,0,0,0-1.132-1.132h-3.25a.575.575,0,0,0,0,1.151h3.231v2.758H21.677V18.293h7.674a.575.575,0,0,0,0-1.151H21.658a1.133,1.133,0,0,0-1.132,1.132v2.8A1.133,1.133,0,0,0,21.658,22.2h.456v1.211h-.456a1.133,1.133,0,0,0-1.132,1.132s.007,2.932.019,3H1.15V8.327H38.123Zm0-20.365H1.193V3.032A1.383,1.383,0,0,1,2.574,1.651H36.741a1.383,1.383,0,0,1,1.382,1.382Zm0,0" transform="translate(0 0)" fill="#fff"/>
      <path id="Trazado_739227" data-name="Trazado 739227" d="M34.962,29.262a1.689,1.689,0,1,0,1.689,1.689A1.69,1.69,0,0,0,34.962,29.262Zm0,2.226a.538.538,0,1,1,.538-.538A.539.539,0,0,1,34.962,31.488Zm0,0" transform="translate(-30.719 -26.553)" fill="#fff"/>
      <path id="Trazado_739228" data-name="Trazado 739228" d="M90.947,29.262a1.689,1.689,0,1,0,1.689,1.689A1.691,1.691,0,0,0,90.947,29.262Zm0,2.226a.538.538,0,1,1,.538-.538A.538.538,0,0,1,90.947,31.488Zm0,0" transform="translate(-82.404 -26.553)" fill="#fff"/>
      <path id="Trazado_739229" data-name="Trazado 739229" d="M146.934,29.262a1.689,1.689,0,1,0,1.689,1.689A1.69,1.69,0,0,0,146.934,29.262Zm0,2.226a.538.538,0,1,1,.538-.538A.539.539,0,0,1,146.934,31.488Zm0,0" transform="translate(-134.092 -26.553)" fill="#fff"/>
    </g>
  </g>
</svg>
