<svg id="Grupo_1021684" data-name="Grupo 1021684" xmlns="http://www.w3.org/2000/svg" width="76.999" height="76.999" viewBox="0 0 76.999 76.999">
  <path id="Trazado_734791" data-name="Trazado 734791" d="M38.5,0A38.5,38.5,0,1,1,0,38.5,38.5,38.5,0,0,1,38.5,0Z" fill="#362b9e"/>
  <g id="revision-de-codigo" transform="translate(9.122 10.81)">
    <path id="Trazado_739254" data-name="Trazado 739254" d="M7.5,31.366V45.21a1.466,1.466,0,0,0,1.466,1.466h5.961M7.5,28.219V8.966A1.466,1.466,0,0,1,8.966,7.5H27.241m3.147,0h20.33a1.466,1.466,0,0,1,1.466,1.466V45.21a1.466,1.466,0,0,1-1.466,1.466H34.186m-3.147,0H24.063" transform="translate(0 0)" fill="none" stroke="#fff" stroke-linecap="round" stroke-linejoin="round" stroke-miterlimit="10" stroke-width="1.3"/>
    <line id="Línea_712" data-name="Línea 712" x1="44.196" transform="translate(7.744 13.222)" fill="none" stroke="#fff" stroke-linecap="round" stroke-linejoin="round" stroke-miterlimit="10" stroke-width="1.3"/>
    <line id="Línea_713" data-name="Línea 713" transform="translate(16.743 10.361)" fill="none" stroke="#fff" stroke-linecap="round" stroke-linejoin="round" stroke-miterlimit="10" stroke-width="1.3"/>
    <line id="Línea_714" data-name="Línea 714" transform="translate(13.676 10.361)" fill="none" stroke="#fff" stroke-linecap="round" stroke-linejoin="round" stroke-miterlimit="10" stroke-width="1.3"/>
    <line id="Línea_715" data-name="Línea 715" transform="translate(10.608 10.361)" fill="none" stroke="#fff" stroke-linecap="round" stroke-linejoin="round" stroke-miterlimit="10" stroke-width="1.3"/>
    <line id="Línea_716" data-name="Línea 716" y2="14.385" transform="translate(16.204 16.998)" fill="none" stroke="#fff" stroke-linecap="round" stroke-linejoin="round" stroke-miterlimit="10" stroke-width="1.3"/>
    <line id="Línea_717" data-name="Línea 717" y2="7.193" transform="translate(16.204 35.527)" fill="none" stroke="#fff" stroke-linecap="round" stroke-linejoin="round" stroke-miterlimit="10" stroke-width="1.3"/>
    <line id="Línea_718" data-name="Línea 718" x1="3.068" transform="translate(10.608 16.998)" fill="none" stroke="#fff" stroke-linecap="round" stroke-linejoin="round" stroke-miterlimit="10" stroke-width="1.3"/>
    <line id="Línea_719" data-name="Línea 719" x1="3.068" transform="translate(10.608 20.594)" fill="none" stroke="#fff" stroke-linecap="round" stroke-linejoin="round" stroke-miterlimit="10" stroke-width="1.3"/>
    <line id="Línea_720" data-name="Línea 720" x1="3.068" transform="translate(10.608 24.191)" fill="none" stroke="#fff" stroke-linecap="round" stroke-linejoin="round" stroke-miterlimit="10" stroke-width="1.3"/>
    <line id="Línea_721" data-name="Línea 721" x1="3.068" transform="translate(10.608 31.383)" fill="none" stroke="#fff" stroke-linecap="round" stroke-linejoin="round" stroke-miterlimit="10" stroke-width="1.3"/>
    <line id="Línea_722" data-name="Línea 722" x1="3.068" transform="translate(10.608 39.123)" fill="none" stroke="#fff" stroke-linecap="round" stroke-linejoin="round" stroke-miterlimit="10" stroke-width="1.3"/>
    <line id="Línea_723" data-name="Línea 723" x1="3.068" transform="translate(10.608 42.719)" fill="none" stroke="#fff" stroke-linecap="round" stroke-linejoin="round" stroke-miterlimit="10" stroke-width="1.3"/>
    <line id="Línea_724" data-name="Línea 724" x2="3.508" transform="translate(18.716 16.998)" fill="none" stroke="#fff" stroke-linecap="round" stroke-linejoin="round" stroke-miterlimit="10" stroke-width="1.3"/>
    <line id="Línea_725" data-name="Línea 725" x2="6.785" transform="translate(20.514 20.594)" fill="none" stroke="#fff" stroke-linecap="round" stroke-linejoin="round" stroke-miterlimit="10" stroke-width="1.3"/>
    <line id="Línea_726" data-name="Línea 726" x2="4.356" transform="translate(20.514 24.191)" fill="none" stroke="#fff" stroke-linecap="round" stroke-linejoin="round" stroke-miterlimit="10" stroke-width="1.3"/>
    <line id="Línea_727" data-name="Línea 727" x2="3.066" transform="translate(20.514 27.97)" fill="none" stroke="#fff" stroke-linecap="round" stroke-linejoin="round" stroke-miterlimit="10" stroke-width="1.3"/>
    <line id="Línea_728" data-name="Línea 728" y1="2.038" x2="2.355" transform="translate(23.693 37.232)" fill="none" stroke="#fff" stroke-linecap="round" stroke-linejoin="round" stroke-miterlimit="10" stroke-width="1.3"/>
    <path id="Trazado_739255" data-name="Trazado 739255" d="M94.151,387.9l-5.033,5.817a3.3,3.3,0,0,1-4.822.174h0a3.3,3.3,0,0,1,.174-4.822l5.829-5.044" transform="translate(-69.013 -342.676)" fill="none" stroke="#fff" stroke-linecap="round" stroke-linejoin="round" stroke-miterlimit="10" stroke-width="1.3"/>
    <line id="Línea_729" data-name="Línea 729" x1="1.982" y2="2.291" transform="translate(27.284 40.457)" fill="none" stroke="#fff" stroke-linecap="round" stroke-linejoin="round" stroke-miterlimit="10" stroke-width="1.3"/>
    <path id="Trazado_739256" data-name="Trazado 739256" d="M163.482,363.784l-4.079-4.079a.5.5,0,0,1,0-.705l1.309-1.309a.5.5,0,0,1,.705,0l4.079,4.079a.5.5,0,0,1,0,.705l-1.309,1.309A.5.5,0,0,1,163.482,363.784Z" transform="translate(-138.113 -318.573)" fill="none" stroke="#fff" stroke-linecap="round" stroke-linejoin="round" stroke-miterlimit="10" stroke-width="1.3"/>
    <path id="Trazado_739257" data-name="Trazado 739257" d="M213.636,122.263a13.008,13.008,0,1,0-23.585,8.968h0a13.093,13.093,0,0,0,3.222,3.222,13.01,13.01,0,0,0,20.351-9.045" transform="translate(-164.008 -93.994)" fill="none" stroke="#fff" stroke-linecap="round" stroke-linejoin="round" stroke-miterlimit="10" stroke-width="1.3"/>
    <circle id="Elipse_7734" data-name="Elipse 7734" cx="10.222" cy="10.222" r="10.222" transform="translate(26.487 19.57)" fill="none" stroke="#fff" stroke-linecap="round" stroke-linejoin="round" stroke-miterlimit="10" stroke-width="1.3"/>
    <line id="Línea_730" data-name="Línea 730" x1="3.992" transform="translate(33.015 31.13)" fill="none" stroke="#fff" stroke-linecap="round" stroke-linejoin="round" stroke-miterlimit="10" stroke-width="1.3"/>
    <line id="Línea_731" data-name="Línea 731" x1="6.359" transform="translate(40.154 31.13)" fill="none" stroke="#fff" stroke-linecap="round" stroke-linejoin="round" stroke-miterlimit="10" stroke-width="1.3"/>
    <line id="Línea_732" data-name="Línea 732" x1="13.276" transform="translate(33.015 27.351)" fill="none" stroke="#fff" stroke-linecap="round" stroke-linejoin="round" stroke-miterlimit="10" stroke-width="1.3"/>
    <line id="Línea_733" data-name="Línea 733" x1="5.371" transform="translate(28.815 23.572)" fill="none" stroke="#fff" stroke-linecap="round" stroke-linejoin="round" stroke-miterlimit="10" stroke-width="1.3"/>
    <line id="Línea_734" data-name="Línea 734" x1="12.39" transform="translate(33.015 34.909)" fill="none" stroke="#fff" stroke-linecap="round" stroke-linejoin="round" stroke-miterlimit="10" stroke-width="1.3"/>
  </g>
</svg>
