<svg id="Grupo_1021687" data-name="Grupo 1021687" xmlns="http://www.w3.org/2000/svg" xmlns:xlink="http://www.w3.org/1999/xlink" width="400" height="283" viewBox="0 0 400 283">
  <defs>
    <clipPath id="clip-path">
      <rect id="Rectángulo_369336" data-name="Rectángulo 369336" width="84" height="53" transform="translate(0)" fill="#cde6ff" stroke="#cde6ff" stroke-width="1" opacity="0.6"/>
    </clipPath>
    <clipPath id="clip-path-2">
      <rect id="Rectángulo_369338" data-name="Rectángulo 369338" width="86" height="53" transform="translate(0 -0.271)" fill="#d3d3d3" stroke="#707070" stroke-width="1" opacity="0.6"/>
    </clipPath>
  </defs>
  <rect id="Rectángulo_34563" data-name="Rectángulo 34563" width="400" height="283" rx="12" fill="#ebebeb"/>
  <g id="Enmascarar_grupo_952103" data-name="Enmascarar grupo 952103" transform="translate(280)" opacity="0.76" clip-path="url(#clip-path)">
    <path id="Trazado_734783" data-name="Trazado 734783" d="M580.865,579.492A35.735,35.735,0,1,1,616.6,543.761a35.776,35.776,0,0,1-35.731,35.731m0-64.42a28.689,28.689,0,1,0,28.689,28.689,28.691,28.691,0,0,0-28.689-28.689" transform="translate(-538.68 -544.336)" fill="#cdc9e7" stroke="#cdc9e7" stroke-width="10"/>
  </g>
  <g id="Enmascarar_grupo_952105" data-name="Enmascarar grupo 952105" transform="translate(279 230.271)" clip-path="url(#clip-path-2)">
    <path id="Trazado_734812" data-name="Trazado 734812" d="M580.865,508.023A35.735,35.735,0,1,0,616.6,543.754a35.776,35.776,0,0,0-35.731-35.731m0,64.42a28.689,28.689,0,1,1,28.689-28.689,28.691,28.691,0,0,1-28.689,28.689" transform="translate(-537.68 -490.18)" fill="#d3d3d3" stroke="#cdc9e7" stroke-width="10"/>
  </g>
  <path id="Trazado_734811" data-name="Trazado 734811" d="M185.959,457.009a7.657,7.657,0,1,0,7.656-7.656,7.656,7.656,0,0,0-7.656,7.656" transform="translate(168.857 -210.213)" fill="#cdc9e7"/>
</svg>
