<svg xmlns="http://www.w3.org/2000/svg" xmlns:xlink="http://www.w3.org/1999/xlink" width="171.926" height="135.195" viewBox="0 0 171.926 135.195">
  <defs>
    <filter id="Trazado_736740" x="69.53" y="0" width="98.68" height="55.742" filterUnits="userSpaceOnUse">
      <feOffset dy="3" input="SourceAlpha"/>
      <feGaussianBlur stdDeviation="3" result="blur"/>
      <feFlood flood-opacity="0.161"/>
      <feComposite operator="in" in2="blur"/>
      <feComposite in="SourceGraphic"/>
    </filter>
    <filter id="Trazado_736741" x="50.421" y="8.265" width="121.505" height="98.962" filterUnits="userSpaceOnUse">
      <feOffset dy="3" input="SourceAlpha"/>
      <feGaussianBlur stdDeviation="3" result="blur-2"/>
      <feFlood flood-opacity="0.161"/>
      <feComposite operator="in" in2="blur-2"/>
      <feComposite in="SourceGraphic"/>
    </filter>
    <filter id="Trazado_736742" x="5.493" y="50.567" width="86.304" height="39.641" filterUnits="userSpaceOnUse">
      <feOffset dy="3" input="SourceAlpha"/>
      <feGaussianBlur stdDeviation="3" result="blur-3"/>
      <feFlood flood-opacity="0.161"/>
      <feComposite operator="in" in2="blur-3"/>
      <feComposite in="SourceGraphic"/>
    </filter>
    <filter id="Trazado_736743" x="0" y="52.392" width="102.961" height="82.804" filterUnits="userSpaceOnUse">
      <feOffset dy="3" input="SourceAlpha"/>
      <feGaussianBlur stdDeviation="3" result="blur-4"/>
      <feFlood flood-opacity="0.161"/>
      <feComposite operator="in" in2="blur-4"/>
      <feComposite in="SourceGraphic"/>
    </filter>
  </defs>
  <g id="Grupo_1023203" data-name="Grupo 1023203" transform="translate(15403.873 11422.536)">
    <g id="Grupo_1022943" data-name="Grupo 1022943" transform="translate(-16592.332 -11816.835)">
      <g id="Grupo_1020636" data-name="Grupo 1020636" transform="translate(1247.881 400.299)">
        <g transform="matrix(1, 0, 0, 1, -59.42, -6)" filter="url(#Trazado_736740)">
          <path id="Trazado_736740-2" data-name="Trazado 736740" d="M281.391,15.425c.357-.747,4.116-8.454,6.3-12.949a4.409,4.409,0,0,1,5.03-2.342L307.7,3.9a5,5,0,0,1,3.692,3.87l1.249,6.168L358.729,25.5A4.4,4.4,0,0,1,362.053,30l-.4,7.741L281.38,15.425Z" transform="translate(-202.85 6)" fill="#bfbfbf"/>
        </g>
        <g transform="matrix(1, 0, 0, 1, -59.42, -6)" filter="url(#Trazado_736741)">
          <path id="Trazado_736741-2" data-name="Trazado 736741" d="M3.346,0H88.023a3.337,3.337,0,0,1,3.335,3.335V55.6A4.244,4.244,0,0,1,87.12,59.84H4.239A4.244,4.244,0,0,1,0,55.6V3.335A3.337,3.337,0,0,1,3.335,0Z" transform="matrix(0.97, 0.25, -0.25, 0.97, 74.53, 14.26)" fill="#ebebeb"/>
        </g>
      </g>
      <g id="Grupo_1020637" data-name="Grupo 1020637" transform="translate(1197.459 450.866)">
        <g transform="matrix(1, 0, 0, 1, -9, -56.57)" filter="url(#Trazado_736742)">
          <path id="Trazado_736742-2" data-name="Trazado 736742" d="M224.137,66.967c-.011-.692-.112-7.841-.167-12a3.659,3.659,0,0,1,2.866-3.625l12.57-2.822a4.164,4.164,0,0,1,4.2,1.495l3.246,4.127,38.635-8.711a3.67,3.67,0,0,1,4.171,2.1l2.61,5.911L224.137,66.978Z" transform="translate(-209.48 11.23)" fill="#bfbfbf"/>
        </g>
        <g transform="matrix(1, 0, 0, 1, -9, -56.57)" filter="url(#Trazado_736743)">
          <path id="Trazado_736743-2" data-name="Trazado 736743" d="M3.335,0h69.5a3.337,3.337,0,0,1,3.335,3.335V45.652a4.244,4.244,0,0,1-4.238,4.238H4.238A4.244,4.244,0,0,1,0,45.652V3.335A3.337,3.337,0,0,1,3.335,0Z" transform="matrix(0.98, -0.21, 0.21, 0.98, 9, 74.42)" fill="#e6e6e6"/>
        </g>
      </g>
      <path id="Sustracción_34" data-name="Sustracción 34" d="M12807.183,11736.237a9.881,9.881,0,0,1-2.216-.253l-5.029-1.16.878-3.806,5.029,1.16a5.954,5.954,0,0,0,7.142-4.472,5.882,5.882,0,0,0-4.153-7.051,1.963,1.963,0,0,1-1.415-1.827,10.37,10.37,0,0,0-8.029-9.847,6.826,6.826,0,0,0-1.541-.172,9.708,9.708,0,0,0-7.171,3.6,1.953,1.953,0,0,1-2.753.247,5.238,5.238,0,0,0-2.185-1.122l.006.006a4.883,4.883,0,0,0-1.091-.123,5.677,5.677,0,0,0-1.791.3,7.968,7.968,0,0,0-4.979,5.488,8.313,8.313,0,0,0,6.218,9.952l4.048.935-.88,3.806-4.046-.935a12.222,12.222,0,0,1-9.146-14.637,11.908,11.908,0,0,1,7.54-8.315,9.561,9.561,0,0,1,3.047-.516,8.635,8.635,0,0,1,4.243,1.111,13.264,13.264,0,0,1,8.924-3.707,10.922,10.922,0,0,1,2.44.274,14.277,14.277,0,0,1,10.96,12.208,9.863,9.863,0,0,1-4.05,18.853Z" transform="translate(-11493.279 -11269.941)" fill="#362b9e"/>
      <g id="Grupo_1023201" data-name="Grupo 1023201" transform="matrix(0.966, 0.259, -0.259, 0.966, 1285.499, 426.898)">
        <path id="Trazado_742302" data-name="Trazado 742302" d="M219.08,198.065a.589.589,0,0,1-.59-.59V182.28a.59.59,0,1,1,1.18,0v15.194A.589.589,0,0,1,219.08,198.065Z" transform="translate(-195.436 -163.457)" fill="#362b9e" stroke="#362b9e" stroke-width="1.8"/>
        <path id="Trazado_742303" data-name="Trazado 742303" d="M220.173,188.346a.6.6,0,0,1-.473-.234l-3.875-5.189a.144.144,0,0,0-.111-.053.142.142,0,0,0-.111.053l-4.108,5.043a.59.59,0,0,1-.917-.742l4.108-5.043a1.355,1.355,0,0,1,1.046-.491,1.315,1.315,0,0,1,1.034.52l3.875,5.2a.592.592,0,0,1-.117.824A.563.563,0,0,1,220.173,188.346Z" transform="translate(-192.092 -163.457)" fill="#362b9e" stroke="#362b9e" stroke-width="1.8"/>
      </g>
    </g>
  </g>
</svg>
