<svg id="Grupo_1006135" data-name="Grupo 1006135" xmlns="http://www.w3.org/2000/svg" xmlns:xlink="http://www.w3.org/1999/xlink" width="81.252" height="94.008" viewBox="0 0 81.252 94.008">
  <defs>
    <clipPath id="clip-path">
      <path id="path1566" d="M0-682.665H30.356v30.356H0Z" transform="translate(0 682.665)"/>
    </clipPath>
  </defs>
  <g id="empleado" transform="translate(10.793)">
    <path id="Trazado_738343" data-name="Trazado 738343" d="M178.661,32.521V27.174c0-10.3-7.918-19.168-18.209-19.652a19.135,19.135,0,0,0-20.059,19.112v5.887c0,9.905-1.646,15.7-2.476,17.987a1.454,1.454,0,0,0,.69,1.78c2.933,1.56,10.924,5.551,17.976,6.727h5.887c7.052-1.175,15.043-5.167,17.976-6.727a1.454,1.454,0,0,0,.69-1.78C180.306,48.217,178.661,42.426,178.661,32.521Z" transform="translate(-124.297 -6.123)" fill="#826be9"/>
    <path id="Trazado_738344" data-name="Trazado 738344" d="M140.4,46.434v5.887c0,9.9-1.646,15.7-2.476,17.986a1.46,1.46,0,0,0,.7,1.784c2.736,1.454,9.843,5.005,16.5,6.437V49.377l-2.944-2.944c-4.9-4.9-5.228-11.08-4.9-14.681A19.089,19.089,0,0,0,140.4,46.434Z" transform="translate(-124.301 -25.923)" fill="#6e55df"/>
    <rect id="Rectángulo_370133" data-name="Rectángulo 370133" width="14.718" height="19.134" transform="translate(27.87 42.588)" fill="#f3f1ff"/>
    <path id="Trazado_738345" data-name="Trazado 738345" d="M215.919,237.84a19.141,19.141,0,0,0,14.718,0v-5.888H215.919v5.888Z" transform="translate(-188.049 -189.364)" fill="#d5cef8"/>
    <path id="Trazado_738346" data-name="Trazado 738346" d="M160.165,291.549l-7.836-3.485-10.471,4.415-1.719,2.578a1.472,1.472,0,0,1-2.449,0l-1.719-2.578-10.311-4.415-7.836,3.485a8.831,8.831,0,0,0-5.239,8.313l.773,27.941h51.272l.773-27.941A8.831,8.831,0,0,0,160.165,291.549Z" transform="translate(-103.685 -235.173)" fill="#afa4e6"/>
    <g id="Grupo_1021459" data-name="Grupo 1021459" transform="translate(8.897 58.367)">
      <path id="Trazado_738347" data-name="Trazado 738347" d="M122.431,327.13l-7.394-9.242a8.809,8.809,0,0,0-2.451,6.322l.773,27.941h9.072V327.13Z" transform="translate(-112.583 -317.888)" fill="#826be9"/>
      <path id="Trazado_738348" data-name="Trazado 738348" d="M346.653,327.13l7.394-9.242a8.809,8.809,0,0,1,2.451,6.322l-.773,27.941h-9.072V327.13Z" transform="translate(-303.676 -317.888)" fill="#826be9"/>
    </g>
    <path id="Trazado_738349" data-name="Trazado 738349" d="M184.866,115.477a13.274,13.274,0,0,0,.626-3.683c.227-8.835-12.688-6.3-22.636-13.775-.761,5.457-3.964,7.286-5.177,8.4-.546.5-1.193-1.472-1.935-1.472h-1.061a2.881,2.881,0,0,0-.495.053,3.113,3.113,0,0,0-2.4,3.107v1.065a3.091,3.091,0,0,0,2.273,3.056,2.914,2.914,0,0,0,.9.069,1.433,1.433,0,0,1,1.5,1.2,14.692,14.692,0,0,0,28.04,2.959C184.61,116.194,184.845,115.54,184.866,115.477Z" transform="translate(-135.696 -80.022)" fill="#f3f1ff"/>
    <path id="Trazado_738350" data-name="Trazado 738350" d="M162.094,135.1v-7.359c-1.472,0-4.415,2.944-4.415,2.944s-1.472-1.472-1.935-1.472h-1.061a2.882,2.882,0,0,0-.494.052,3.111,3.111,0,0,0-2.4,3.105v1.067a3.091,3.091,0,0,0,2.272,3.056,2.923,2.923,0,0,0,.9.07,1.434,1.434,0,0,1,1.5,1.2,14.664,14.664,0,0,0,17.38,11.76A14.724,14.724,0,0,1,162.094,135.1Z" transform="translate(-135.695 -104.287)" fill="#d5cef8"/>
    <g id="Grupo_1021460" data-name="Grupo 1021460" transform="translate(21.983 49.806)">
      <path id="Trazado_738351" data-name="Trazado 738351" d="M186.693,280.023l-2.838-5.676,3.2-2.732a1.472,1.472,0,0,1,2.151.26l4.953,6.888-3.066,2.3A2.944,2.944,0,0,1,186.693,280.023Z" transform="translate(-183.855 -271.262)" fill="#6e55df"/>
      <path id="Trazado_738352" data-name="Trazado 738352" d="M279.5,280.023l2.838-5.676-3.2-2.732a1.472,1.472,0,0,0-2.151.26l-4.953,6.888,3.066,2.3A2.944,2.944,0,0,0,279.5,280.023Z" transform="translate(-255.841 -271.262)" fill="#6e55df"/>
    </g>
    <path id="Trazado_738353" data-name="Trazado 738353" d="M181.476,386.7h-32.7a2.944,2.944,0,0,1-2.939-2.78l-1.145-20.606a2.944,2.944,0,0,1,2.939-3.107H182.62a2.944,2.944,0,0,1,2.939,3.107l-1.145,20.606A2.944,2.944,0,0,1,181.476,386.7Z" transform="translate(-129.897 -294.071)" fill="#dbd9dc"/>
    <circle id="Elipse_7730" data-name="Elipse 7730" cx="3.68" cy="3.68" r="3.68" transform="translate(31.55 76.44)" fill="#fff"/>
    <path id="Trazado_738354" data-name="Trazado 738354" d="M133.21,91.254h-6.72l.734-26.526a10.175,10.175,0,0,0-6.056-9.61l-7.836-3.485a1.391,1.391,0,0,0-.144-.054l-1.106-.945a69.726,69.726,0,0,0,9.969-3.87,1.381,1.381,0,0,0,.618-1.843c-.028-.057-2.8-5.848-2.8-18.522V20.511a20.511,20.511,0,0,0-41.022,0V26.4c0,12.674-2.772,18.465-2.8,18.518a1.377,1.377,0,0,0,.616,1.848,69.7,69.7,0,0,0,9.969,3.87l-1.256,1.073-7.669,3.411a10.175,10.175,0,0,0-6.056,9.61l.734,26.526H65.506a1.377,1.377,0,0,0,0,2.754h67.7a1.377,1.377,0,0,0,0-2.754Zm-8.739-26.6-.736,26.6h-4a4.309,4.309,0,0,0,.288-1.327l1.145-20.606a4.3,4.3,0,0,0-1.78-3.737l4.008-5.01A7.445,7.445,0,0,1,124.471,64.651Zm-15.936-6.7a1.567,1.567,0,0,1-2.341.553l-1.986-1.489,4.225-5.876,2.458,2.1ZM101.184,56.5l-.013.021-.015.019-1.719,2.578a.095.095,0,0,1-.158,0L97.56,56.543l-.015-.019-.013-.021-4.156-5.78V45.754a16.043,16.043,0,0,0,11.964,0v4.972Zm-10.9-5.364,4.225,5.876L92.523,58.5a1.566,1.566,0,0,1-2.341-.552h0l-2.356-4.713ZM99.358,2.754a17.777,17.777,0,0,1,17.757,17.757V26.4c0,10.06,1.666,16,2.552,18.442a70.164,70.164,0,0,1-10.095,3.65l-.489-.418a1.377,1.377,0,0,0-.989-.325V44.324a16.084,16.084,0,0,0,5.976-7.008,14.692,14.692,0,0,0,1.231-5.509c.159-6.211-5.169-7.784-10.811-9.449-4.726-1.4-10.083-2.976-14.475-7.249a1.377,1.377,0,1,0-1.92,1.974c4.881,4.747,10.833,6.5,15.616,7.917,6.039,1.783,8.938,2.814,8.837,6.737a11.911,11.911,0,0,1-1,4.467,13.324,13.324,0,0,1-25.3-2.962A2.866,2.866,0,0,0,83.275,30.9a1.548,1.548,0,0,1-.471-.04,1.735,1.735,0,0,1-1.2-1.716v-1.13a1.669,1.669,0,0,1,1.272-1.69,1.561,1.561,0,0,1,1.536.589,2,2,0,0,0,2.746.433,11.3,11.3,0,0,0,3.035-3.205,1.377,1.377,0,0,0-2.326-1.474A8.639,8.639,0,0,1,86.1,24.7a4.332,4.332,0,0,0-3.7-1.079,4.125,4.125,0,0,0-.8.226V20.511A17.777,17.777,0,0,1,99.358,2.754ZM79.049,44.84a46.065,46.065,0,0,0,2.273-11.605,4.007,4.007,0,0,0,.848.31,4.3,4.3,0,0,0,1.289.108.186.186,0,0,1,.085.086,16.054,16.054,0,0,0,7.077,10.589v3.42a1.376,1.376,0,0,0-.989.325l-.489.418A70.183,70.183,0,0,1,79.049,44.84Zm-.221,12.794,6.64-2.953,2.251,4.5h0a4.32,4.32,0,0,0,6.457,1.524l1.9-1.426.912,1.367a2.849,2.849,0,0,0,4.741,0l.911-1.367,1.9,1.426A4.321,4.321,0,0,0,111,59.183h0l2.28-4.56,6.771,3.011a7.505,7.505,0,0,1,1.475.869l-5.006,6.257H82.358L77.353,58.5A7.516,7.516,0,0,1,78.828,57.634Zm-4.422,7.017a7.442,7.442,0,0,1,1.077-4.077l3.951,4.938a4.292,4.292,0,0,0-.707.6,4.338,4.338,0,0,0-1.175,3.209L78.7,89.927a4.309,4.309,0,0,0,.288,1.327H75.142Zm8.6,26.6a1.567,1.567,0,0,1-1.564-1.48L80.3,69.168a1.566,1.566,0,0,1,1.564-1.653h34.988a1.566,1.566,0,0,1,1.564,1.653l-1.145,20.606a1.567,1.567,0,0,1-1.564,1.48h-32.7Z" transform="translate(-64.129)"/>
    <path id="Trazado_738355" data-name="Trazado 738355" d="M233.516,408.822a5.057,5.057,0,1,0,5.057,5.057A5.062,5.062,0,0,0,233.516,408.822Zm0,7.359a2.3,2.3,0,1,1,2.3-2.3A2.305,2.305,0,0,1,233.516,416.181Z" transform="translate(-198.287 -333.759)"/>
  </g>
  <g id="g1560" transform="translate(0 39.672)">
    <g id="g1562">
      <g id="g1564" transform="translate(0 0)" clip-path="url(#clip-path)">
        <path id="path1570" d="M132.894-603.268h3.557v13.34h-3.557Zm-3.557,13.34H125.78v-13.34h3.557Zm-7.559-20.958h18.676a1.784,1.784,0,0,0-1.779-1.779H123.556a1.784,1.784,0,0,0-1.779,1.779m-.445,3.557v20.573a.892.892,0,0,0,.884.889h17.8a.892.892,0,0,0,.884-.889v-20.573Z" transform="translate(-115.938 615.778)" fill="#71cc98" fill-rule="evenodd"/>
        <path id="path1572" d="M221.334-387.992h3.557v-13.34h-3.557Z" transform="translate(-211.492 413.842)" fill="#5db39e" fill-rule="evenodd"/>
        <path id="path1574" d="M381.332-387.992h3.557v-13.34h-3.557Z" transform="translate(-364.376 413.842)" fill="#5db39e" fill-rule="evenodd"/>
        <g id="g1576" transform="translate(3.617 4.891)">
          <path id="path1578" d="M-477.764-76.443a.892.892,0,0,0,.889-.889V-79.11a.892.892,0,0,0-.889-.889h-21.344a.892.892,0,0,0-.889.889v1.779a.892.892,0,0,0,.889.889Z" transform="translate(499.997 80)" fill="#71cc98" fill-rule="evenodd"/>
        </g>
        <g id="g1580" transform="translate(5.395 3.113)">
          <path id="path1582" d="M-9.555-38.221h1.334A1.784,1.784,0,0,1-6.443-40H-7.777a1.784,1.784,0,0,0-1.779,1.779M-10-34.664v20.573a.892.892,0,0,0,.884.889h1.334a.892.892,0,0,1-.884-.889V-34.664Z" transform="translate(10 40)" fill="#5db39e" fill-rule="evenodd"/>
        </g>
        <g id="g1584" transform="translate(3.617 4.891)">
          <path id="path1586" d="M-47.777,0h-1.334A.892.892,0,0,0-50,.889V2.668a.892.892,0,0,0,.889.889h1.334a.892.892,0,0,1-.889-.889V.889A.892.892,0,0,1-47.777,0" transform="translate(50)" fill="#5db39e" fill-rule="evenodd"/>
        </g>
        <g id="g1588" transform="translate(23.182 9.783)">
          <path id="path1590" d="M0-57.332v-.889m0-.889V-60" transform="translate(0 60)" fill="none" stroke="#fff" stroke-miterlimit="2.613" stroke-width="1"/>
        </g>
        <g id="g1592" transform="translate(5.84 3.113)">
          <path id="path1594" d="M0-38.221A1.784,1.784,0,0,1,1.779-40H16.9a1.784,1.784,0,0,1,1.779,1.779" transform="translate(0 40)" fill="none" stroke="#000" stroke-miterlimit="22.926" stroke-width="1"/>
        </g>
        <g id="g1596" transform="translate(5.395 8.449)">
          <path id="path1598" d="M-315.325-461.2H-329.11a.892.892,0,0,1-.889-.889v-20.573m16.452,21.462h-.889m4-21.462v20.573a.892.892,0,0,1-.889.889h-1.334" transform="translate(329.999 482.665)" fill="none" stroke="#000" stroke-miterlimit="22.926" stroke-width="1"/>
        </g>
        <g id="g1600" transform="translate(3.617 4.891)">
          <path id="path1602" d="M-114.664,0h16.9a.892.892,0,0,1,.889.889V2.668a.892.892,0,0,1-.889.889H-119.11A.892.892,0,0,1-120,2.668V.889A.892.892,0,0,1-119.11,0h3.557" transform="translate(120)" fill="none" stroke="#000" stroke-miterlimit="22.926" stroke-width="1"/>
        </g>
        <g id="g1604" transform="translate(11.414 0.445)">
          <path id="path1606" d="M0-57.332v-1.779A.892.892,0,0,1,.889-60H6.67a.892.892,0,0,1,.889.889v1.779" transform="translate(0 60)" fill="none" stroke="#000" stroke-miterlimit="22.926" stroke-width="1"/>
        </g>
        <path id="path1608" d="M221.334-401.332h3.557v13.34h-3.557Zm7.115,0h3.557v13.34h-3.557Z" transform="translate(-211.492 413.842)" fill="none" stroke="#000" stroke-miterlimit="22.926" stroke-width="1"/>
      </g>
    </g>
  </g>
</svg>
