<svg xmlns="http://www.w3.org/2000/svg" width="66.216" height="66.216" viewBox="0 0 66.216 66.216">
  <g id="Grupo_1021179" data-name="Grupo 1021179" transform="translate(-448 -2253)">
    <path id="Trazado_734791" data-name="Trazado 734791" d="M33.108,0A33.108,33.108,0,1,1,0,33.108,33.108,33.108,0,0,1,33.108,0Z" transform="translate(448 2253)" fill="#362b9e"/>
    <g id="codificacion-web" transform="translate(459.402 2264.197)">
      <g id="Grupo_1021251" data-name="Grupo 1021251" transform="translate(2.483 2.922)">
        <g id="Grupo_1021212" data-name="Grupo 1021212" transform="translate(0 10.702)">
          <g id="Grupo_1021208" data-name="Grupo 1021208">
            <g id="Grupo_1021207" data-name="Grupo 1021207">
              <g id="Grupo_1021203" data-name="Grupo 1021203" transform="translate(3.016)">
                <path id="Trazado_738145" data-name="Trazado 738145" d="M44.946,41.3V62.167H12.526V41.3a2.4,2.4,0,0,1,2.395-2.4H42.543a2.4,2.4,0,0,1,2.4,2.4Z" transform="translate(-12.526 -38.901)" fill="#2c2c39"/>
              </g>
              <g id="Grupo_1021204" data-name="Grupo 1021204" transform="translate(5.734 2.718)">
                <path id="Trazado_738146" data-name="Trazado 738146" d="M21.577,64.986V48.753a.8.8,0,0,1,.8-.8H47.76a.8.8,0,0,1,.8.8V64.986a.8.8,0,0,1-.8.8H22.377A.8.8,0,0,1,21.577,64.986Z" transform="translate(-21.577 -47.954)" fill="#fff"/>
              </g>
              <g id="Grupo_1021205" data-name="Grupo 1021205" transform="translate(0 22.89)">
                <path id="Trazado_738147" data-name="Trazado 738147" d="M40.838,116.572l-.564,1.232a3.154,3.154,0,0,1-2.871,1.859H6A3.165,3.165,0,0,1,3.127,117.8l-.553-1.232a1.023,1.023,0,0,1,.929-1.441H39.908a1.023,1.023,0,0,1,.929,1.441Z" transform="translate(-2.483 -115.131)" fill="#606076"/>
              </g>
              <g id="Grupo_1021206" data-name="Grupo 1021206" transform="translate(13.667 22.89)">
                <path id="Trazado_738148" data-name="Trazado 738148" d="M59.109,115.132l-.819.768a1.126,1.126,0,0,1-.77.3H49.586a1.126,1.126,0,0,1-.77-.3L48,115.132Z" transform="translate(-47.997 -115.132)" fill="#fff"/>
              </g>
            </g>
          </g>
          <g id="Grupo_1021211" data-name="Grupo 1021211" transform="translate(29.47 24.097)">
            <g id="Grupo_1021209" data-name="Grupo 1021209">
              <path id="Trazado_738149" data-name="Trazado 738149" d="M102.6,120.139a.988.988,0,1,1-.988-.988A.986.986,0,0,1,102.6,120.139Z" transform="translate(-100.626 -119.151)" fill="#ffd67e"/>
            </g>
            <g id="Grupo_1021210" data-name="Grupo 1021210" transform="translate(2.671)">
              <path id="Trazado_738150" data-name="Trazado 738150" d="M111.5,120.139a.988.988,0,1,1-.988-.988A.986.986,0,0,1,111.5,120.139Z" transform="translate(-109.521 -119.151)" fill="#ffd67e"/>
            </g>
          </g>
        </g>
        <g id="Grupo_1021214" data-name="Grupo 1021214" transform="translate(23.008)">
          <g id="Grupo_1021213" data-name="Grupo 1021213" transform="translate(0)">
            <path id="Trazado_738151" data-name="Trazado 738151" d="M94.511,4.8v8.049a1.542,1.542,0,0,1-1.536,1.54H85.946a.77.77,0,0,0-.545.225L82.56,17.457a.62.62,0,0,1-1.055-.438V15.155a.769.769,0,0,0-.77-.766h-.094a1.542,1.542,0,0,1-1.536-1.54V4.8a1.542,1.542,0,0,1,1.536-1.54H92.975A1.545,1.545,0,0,1,94.511,4.8Z" transform="translate(-79.105 -3.26)" fill="#fd5426"/>
          </g>
        </g>
        <g id="Grupo_1021221" data-name="Grupo 1021221" transform="translate(25.29 2.276)">
          <g id="Grupo_1021216" data-name="Grupo 1021216" transform="translate(0 1.536)">
            <g id="Grupo_1021215" data-name="Grupo 1021215">
              <path id="Trazado_738152" data-name="Trazado 738152" d="M90.2,17.021l-1.834.816,1.84.816a.59.59,0,0,1,.246.2.535.535,0,0,1,.1.313.535.535,0,0,1-.548.548.667.667,0,0,1-.207-.034l-.017-.011-2.678-1.2a.713.713,0,0,1-.291-.235.64.64,0,0,1-.112-.369.717.717,0,0,1,.112-.419.786.786,0,0,1,.285-.235L89.785,16a.525.525,0,0,1,.615.117.536.536,0,0,1,.157.386.523.523,0,0,1-.1.313.63.63,0,0,1-.252.2Z" transform="translate(-86.704 -15.954)" fill="#fff"/>
            </g>
          </g>
          <g id="Grupo_1021218" data-name="Grupo 1021218" transform="translate(3.976)">
            <g id="Grupo_1021217" data-name="Grupo 1021217">
              <path id="Trazado_738153" data-name="Trazado 738153" d="M102.683,11a.555.555,0,0,1,.157.386.594.594,0,0,1-.034.19l-1.778,5.2a.592.592,0,0,1-.184.263.527.527,0,0,1-.341.117.54.54,0,0,1-.4-.168.555.555,0,0,1-.157-.386.482.482,0,0,1,.039-.19l1.778-5.2a.517.517,0,0,1,.185-.263.563.563,0,0,1,.738.05Z" transform="translate(-99.944 -10.839)" fill="#fff"/>
            </g>
          </g>
          <g id="Grupo_1021220" data-name="Grupo 1021220" transform="translate(6.989 1.542)">
            <g id="Grupo_1021219" data-name="Grupo 1021219">
              <path id="Trazado_738154" data-name="Trazado 738154" d="M113.832,17.824a.693.693,0,0,1-.112.419.713.713,0,0,1-.291.235l-2.678,1.2a.516.516,0,0,1-.224.045.544.544,0,0,1-.548-.548.542.542,0,0,1,.106-.313.528.528,0,0,1,.246-.2l1.834-.816-1.84-.822a.59.59,0,0,1-.246-.2.564.564,0,0,1-.1-.313.519.519,0,0,1,.162-.386.553.553,0,0,1,.6-.117l2.684,1.2a.725.725,0,0,1,.291.24.635.635,0,0,1,.112.363Z" transform="translate(-109.98 -15.975)" fill="#fff"/>
            </g>
          </g>
        </g>
        <g id="Grupo_1021250" data-name="Grupo 1021250" transform="translate(8.081 15.231)">
          <g id="Grupo_1021228" data-name="Grupo 1021228">
            <g id="Grupo_1021225" data-name="Grupo 1021225">
              <g id="Grupo_1021222" data-name="Grupo 1021222">
                <path id="Trazado_738155" data-name="Trazado 738155" d="M31.9,55.238a1.255,1.255,0,1,1-1.255-1.255A1.255,1.255,0,0,1,31.9,55.238Z" transform="translate(-29.394 -53.983)" fill="#d8524f"/>
              </g>
              <g id="Grupo_1021224" data-name="Grupo 1021224" transform="translate(0.563 0.808)">
                <g id="Grupo_1021223" data-name="Grupo 1021223">
                  <path id="Trazado_738156" data-name="Trazado 738156" d="M31.774,57.761a.15.15,0,0,1-.107-.044l-.356-.356a.151.151,0,0,1,.213-.213l.249.249.679-.679a.151.151,0,1,1,.213.213l-.786.786a.15.15,0,0,1-.107.044Z" transform="translate(-31.267 -56.673)" fill="#fff"/>
                </g>
              </g>
            </g>
            <g id="Grupo_1021226" data-name="Grupo 1021226" transform="translate(3.193 0.435)">
              <path id="Trazado_738157" data-name="Trazado 738157" d="M59.118,55.746a.312.312,0,0,1-.092.221.315.315,0,0,1-.221.091H40.34a.313.313,0,1,1,0-.626H58.8A.314.314,0,0,1,59.118,55.746Z" transform="translate(-40.027 -55.433)" fill="#606076"/>
            </g>
            <g id="Grupo_1021227" data-name="Grupo 1021227" transform="translate(6.212 1.693)">
              <path id="Trazado_738158" data-name="Trazado 738158" d="M66.154,59.935a.312.312,0,0,1-.092.221.315.315,0,0,1-.221.091H50.4a.313.313,0,1,1,0-.626H65.841A.314.314,0,0,1,66.154,59.935Z" transform="translate(-50.082 -59.621)" fill="#d8524f"/>
            </g>
          </g>
          <g id="Grupo_1021235" data-name="Grupo 1021235" transform="translate(0 3.862)">
            <g id="Grupo_1021232" data-name="Grupo 1021232">
              <g id="Grupo_1021229" data-name="Grupo 1021229">
                <path id="Trazado_738159" data-name="Trazado 738159" d="M31.9,68.1a1.255,1.255,0,1,1-1.255-1.255A1.255,1.255,0,0,1,31.9,68.1Z" transform="translate(-29.394 -66.844)" fill="#ffb749"/>
              </g>
              <g id="Grupo_1021231" data-name="Grupo 1021231" transform="translate(0.563 0.808)">
                <g id="Grupo_1021230" data-name="Grupo 1021230">
                  <path id="Trazado_738160" data-name="Trazado 738160" d="M31.774,70.622a.15.15,0,0,1-.107-.044l-.356-.356a.151.151,0,0,1,.213-.213l.249.249.679-.679a.151.151,0,0,1,.213.213l-.786.786a.15.15,0,0,1-.107.044Z" transform="translate(-31.267 -69.535)" fill="#fff"/>
                </g>
              </g>
            </g>
            <g id="Grupo_1021233" data-name="Grupo 1021233" transform="translate(3.193 0.435)">
              <path id="Trazado_738161" data-name="Trazado 738161" d="M59.118,68.608a.312.312,0,0,1-.092.221.316.316,0,0,1-.221.091H40.34a.313.313,0,1,1,0-.626H58.8A.314.314,0,0,1,59.118,68.608Z" transform="translate(-40.027 -68.294)" fill="#606076"/>
            </g>
            <g id="Grupo_1021234" data-name="Grupo 1021234" transform="translate(6.212 1.693)">
              <path id="Trazado_738162" data-name="Trazado 738162" d="M66.154,72.8a.312.312,0,0,1-.092.221.315.315,0,0,1-.221.091H50.4a.313.313,0,1,1,0-.626H65.841A.314.314,0,0,1,66.154,72.8Z" transform="translate(-50.082 -72.483)" fill="#ffb749"/>
            </g>
          </g>
          <g id="Grupo_1021242" data-name="Grupo 1021242" transform="translate(0 7.724)">
            <g id="Grupo_1021239" data-name="Grupo 1021239">
              <g id="Grupo_1021236" data-name="Grupo 1021236">
                <path id="Trazado_738163" data-name="Trazado 738163" d="M31.9,80.961a1.255,1.255,0,1,1-1.255-1.255A1.255,1.255,0,0,1,31.9,80.961Z" transform="translate(-29.394 -79.706)" fill="#8dbd57"/>
              </g>
              <g id="Grupo_1021238" data-name="Grupo 1021238" transform="translate(0.563 0.808)">
                <g id="Grupo_1021237" data-name="Grupo 1021237">
                  <path id="Trazado_738164" data-name="Trazado 738164" d="M31.774,83.484a.15.15,0,0,1-.107-.044l-.356-.356a.151.151,0,0,1,.213-.213l.249.249.679-.679a.151.151,0,1,1,.213.213l-.786.786a.15.15,0,0,1-.107.044Z" transform="translate(-31.267 -82.397)" fill="#fff"/>
                </g>
              </g>
            </g>
            <g id="Grupo_1021240" data-name="Grupo 1021240" transform="translate(3.193 0.435)">
              <path id="Trazado_738165" data-name="Trazado 738165" d="M59.118,81.47a.312.312,0,0,1-.092.221.316.316,0,0,1-.221.091H40.34a.313.313,0,1,1,0-.626H58.8A.314.314,0,0,1,59.118,81.47Z" transform="translate(-40.027 -81.156)" fill="#606076"/>
            </g>
            <g id="Grupo_1021241" data-name="Grupo 1021241" transform="translate(6.212 1.693)">
              <path id="Trazado_738166" data-name="Trazado 738166" d="M66.154,85.658a.312.312,0,0,1-.092.221.316.316,0,0,1-.221.091H50.4a.313.313,0,1,1,0-.626H65.841A.314.314,0,0,1,66.154,85.658Z" transform="translate(-50.082 -85.345)" fill="#8dbd57"/>
            </g>
          </g>
          <g id="Grupo_1021249" data-name="Grupo 1021249" transform="translate(0 11.586)">
            <g id="Grupo_1021246" data-name="Grupo 1021246">
              <g id="Grupo_1021243" data-name="Grupo 1021243">
                <path id="Trazado_738167" data-name="Trazado 738167" d="M31.9,93.823a1.255,1.255,0,1,1-1.255-1.255A1.255,1.255,0,0,1,31.9,93.823Z" transform="translate(-29.394 -92.568)" fill="#8f5387"/>
              </g>
              <g id="Grupo_1021245" data-name="Grupo 1021245" transform="translate(0.563 0.808)">
                <g id="Grupo_1021244" data-name="Grupo 1021244">
                  <path id="Trazado_738168" data-name="Trazado 738168" d="M31.774,96.346a.15.15,0,0,1-.107-.044l-.356-.356a.151.151,0,1,1,.213-.213l.249.249.679-.679a.151.151,0,1,1,.213.213l-.786.786a.15.15,0,0,1-.107.044Z" transform="translate(-31.267 -95.259)" fill="#fff"/>
                </g>
              </g>
            </g>
            <g id="Grupo_1021247" data-name="Grupo 1021247" transform="translate(3.193 0.435)">
              <path id="Trazado_738169" data-name="Trazado 738169" d="M59.118,94.331a.312.312,0,0,1-.092.221.316.316,0,0,1-.221.091H40.34a.313.313,0,1,1,0-.626H58.8A.314.314,0,0,1,59.118,94.331Z" transform="translate(-40.027 -94.018)" fill="#606076"/>
            </g>
            <g id="Grupo_1021248" data-name="Grupo 1021248" transform="translate(6.212 1.693)">
              <path id="Trazado_738170" data-name="Trazado 738170" d="M66.154,98.52a.312.312,0,0,1-.092.221.316.316,0,0,1-.221.091H50.4a.313.313,0,1,1,0-.626H65.841A.314.314,0,0,1,66.154,98.52Z" transform="translate(-50.082 -98.206)" fill="#8f5387"/>
            </g>
          </g>
        </g>
      </g>
      <g id="Grupo_1021288" data-name="Grupo 1021288" transform="translate(2.896 2.777)">
        <g id="Grupo_1021269" data-name="Grupo 1021269" transform="translate(0)">
          <g id="Grupo_1021261" data-name="Grupo 1021261">
            <g id="Grupo_1021253" data-name="Grupo 1021253" transform="translate(0 5.461)">
              <g id="Grupo_1021252" data-name="Grupo 1021252">
                <path id="Trazado_738171" data-name="Trazado 738171" d="M11.041,24.561a3.591,3.591,0,1,1-3.591-3.6A3.593,3.593,0,0,1,11.041,24.561Z" transform="translate(-3.859 -20.965)" fill="#86cff8"/>
              </g>
            </g>
            <g id="Grupo_1021260" data-name="Grupo 1021260" transform="translate(1.179)">
              <g id="Grupo_1021255" data-name="Grupo 1021255">
                <g id="Grupo_1021254" data-name="Grupo 1021254">
                  <path id="Trazado_738172" data-name="Trazado 738172" d="M8.7,3.236v2.43a.457.457,0,0,1-.915,0V3.236a.457.457,0,1,1,.915,0Z" transform="translate(-7.786 -2.777)" fill="#606076"/>
                </g>
              </g>
              <g id="Grupo_1021257" data-name="Grupo 1021257" transform="translate(1.954 1.345)">
                <g id="Grupo_1021256" data-name="Grupo 1021256">
                  <path id="Trazado_738173" data-name="Trazado 738173" d="M15.21,7.715V9.892a.457.457,0,0,1-.915,0V7.715a.457.457,0,1,1,.915,0Z" transform="translate(-14.295 -7.256)" fill="#606076"/>
                </g>
              </g>
              <g id="Grupo_1021259" data-name="Grupo 1021259" transform="translate(3.909)">
                <g id="Grupo_1021258" data-name="Grupo 1021258" transform="translate(0)">
                  <path id="Trazado_738174" data-name="Trazado 738174" d="M21.719,3.236v2.43a.457.457,0,0,1-.915,0V3.236a.457.457,0,1,1,.915,0Z" transform="translate(-20.804 -2.777)" fill="#606076"/>
                </g>
              </g>
            </g>
          </g>
          <g id="Grupo_1021268" data-name="Grupo 1021268" transform="translate(1.241 7.685)">
            <g id="Grupo_1021263" data-name="Grupo 1021263" transform="translate(0 0.666)">
              <g id="Grupo_1021262" data-name="Grupo 1021262">
                <path id="Trazado_738175" data-name="Trazado 738175" d="M9.508,31.05l-.8.354.8.354a.256.256,0,0,1,.107.085.232.232,0,0,1,.044.136.232.232,0,0,1-.238.238.289.289,0,0,1-.09-.015l-.007,0-1.161-.521a.309.309,0,0,1-.126-.1.277.277,0,0,1-.048-.16.311.311,0,0,1,.048-.182.341.341,0,0,1,.124-.1l1.164-.521a.228.228,0,0,1,.267.051.232.232,0,0,1,.068.167.227.227,0,0,1-.044.136.273.273,0,0,1-.109.087Z" transform="translate(-7.99 -30.588)" fill="#53aff4"/>
              </g>
            </g>
            <g id="Grupo_1021265" data-name="Grupo 1021265" transform="translate(1.724)">
              <g id="Grupo_1021264" data-name="Grupo 1021264">
                <path id="Trazado_738176" data-name="Trazado 738176" d="M14.919,28.441a.241.241,0,0,1,.068.167.258.258,0,0,1-.015.082L14.2,30.946a.257.257,0,0,1-.08.114.228.228,0,0,1-.148.051.234.234,0,0,1-.175-.073.241.241,0,0,1-.068-.167.209.209,0,0,1,.017-.082l.771-2.255a.224.224,0,0,1,.08-.114.244.244,0,0,1,.32.022Z" transform="translate(-13.731 -28.37)" fill="#53aff4"/>
              </g>
            </g>
            <g id="Grupo_1021267" data-name="Grupo 1021267" transform="translate(3.031 0.669)">
              <g id="Grupo_1021266" data-name="Grupo 1021266">
                <path id="Trazado_738177" data-name="Trazado 738177" d="M19.754,31.4a.3.3,0,0,1-.048.182.309.309,0,0,1-.126.1l-1.161.521a.224.224,0,0,1-.1.019.236.236,0,0,1-.238-.238.235.235,0,0,1,.046-.136.229.229,0,0,1,.107-.085l.8-.354-.8-.356a.256.256,0,0,1-.107-.085.244.244,0,0,1-.044-.136.225.225,0,0,1,.07-.167.24.24,0,0,1,.262-.051l1.164.521a.314.314,0,0,1,.126.1.275.275,0,0,1,.048.158Z" transform="translate(-18.083 -30.597)" fill="#53aff4"/>
              </g>
            </g>
          </g>
        </g>
        <g id="Grupo_1021287" data-name="Grupo 1021287" transform="translate(8.881 1.598)">
          <g id="Grupo_1021279" data-name="Grupo 1021279">
            <g id="Grupo_1021271" data-name="Grupo 1021271" transform="translate(0 5.461)">
              <g id="Grupo_1021270" data-name="Grupo 1021270">
                <path id="Trazado_738178" data-name="Trazado 738178" d="M40.619,29.883a3.591,3.591,0,1,1-3.591-3.6A3.593,3.593,0,0,1,40.619,29.883Z" transform="translate(-33.436 -26.286)" fill="#86cff8"/>
              </g>
            </g>
            <g id="Grupo_1021278" data-name="Grupo 1021278" transform="translate(1.179)">
              <g id="Grupo_1021273" data-name="Grupo 1021273">
                <g id="Grupo_1021272" data-name="Grupo 1021272">
                  <path id="Trazado_738179" data-name="Trazado 738179" d="M38.279,8.557v2.43a.457.457,0,0,1-.915,0V8.557a.457.457,0,1,1,.915,0Z" transform="translate(-37.364 -8.098)" fill="#606076"/>
                </g>
              </g>
              <g id="Grupo_1021275" data-name="Grupo 1021275" transform="translate(1.954 1.345)">
                <g id="Grupo_1021274" data-name="Grupo 1021274">
                  <path id="Trazado_738180" data-name="Trazado 738180" d="M44.788,13.036v2.178a.457.457,0,0,1-.915,0V13.036a.457.457,0,1,1,.915,0Z" transform="translate(-43.873 -12.577)" fill="#606076"/>
                </g>
              </g>
              <g id="Grupo_1021277" data-name="Grupo 1021277" transform="translate(3.909)">
                <g id="Grupo_1021276" data-name="Grupo 1021276">
                  <path id="Trazado_738181" data-name="Trazado 738181" d="M51.3,8.557v2.43a.457.457,0,0,1-.915,0V8.557a.457.457,0,1,1,.915,0Z" transform="translate(-50.381 -8.098)" fill="#606076"/>
                </g>
              </g>
            </g>
          </g>
          <g id="Grupo_1021286" data-name="Grupo 1021286" transform="translate(1.241 7.685)">
            <g id="Grupo_1021281" data-name="Grupo 1021281" transform="translate(0 0.666)">
              <g id="Grupo_1021280" data-name="Grupo 1021280">
                <path id="Trazado_738182" data-name="Trazado 738182" d="M39.086,36.372l-.8.354.8.354a.256.256,0,0,1,.107.085.232.232,0,0,1,.044.136.232.232,0,0,1-.238.238.289.289,0,0,1-.09-.015l-.007,0L37.743,37a.309.309,0,0,1-.126-.1.277.277,0,0,1-.048-.16.311.311,0,0,1,.048-.182.341.341,0,0,1,.124-.1l1.164-.521a.228.228,0,0,1,.267.051.232.232,0,0,1,.068.167.227.227,0,0,1-.044.136.273.273,0,0,1-.109.087Z" transform="translate(-37.568 -35.909)" fill="#53aff4"/>
              </g>
            </g>
            <g id="Grupo_1021283" data-name="Grupo 1021283" transform="translate(1.724)">
              <g id="Grupo_1021282" data-name="Grupo 1021282">
                <path id="Trazado_738183" data-name="Trazado 738183" d="M44.5,33.763a.241.241,0,0,1,.068.167.257.257,0,0,1-.015.082l-.771,2.255a.257.257,0,0,1-.08.114.228.228,0,0,1-.148.051.234.234,0,0,1-.175-.073.241.241,0,0,1-.068-.167.209.209,0,0,1,.017-.082l.771-2.255a.224.224,0,0,1,.08-.114A.244.244,0,0,1,44.5,33.763Z" transform="translate(-43.309 -33.691)" fill="#53aff4"/>
              </g>
            </g>
            <g id="Grupo_1021285" data-name="Grupo 1021285" transform="translate(3.031 0.669)">
              <g id="Grupo_1021284" data-name="Grupo 1021284">
                <path id="Trazado_738184" data-name="Trazado 738184" d="M49.332,36.72a.3.3,0,0,1-.048.182.309.309,0,0,1-.126.1L48,37.525a.224.224,0,0,1-.1.019.236.236,0,0,1-.238-.238.235.235,0,0,1,.046-.136.229.229,0,0,1,.107-.085l.8-.354-.8-.356a.256.256,0,0,1-.107-.085.244.244,0,0,1-.044-.136.225.225,0,0,1,.07-.167.24.24,0,0,1,.262-.051l1.164.521a.314.314,0,0,1,.126.1A.275.275,0,0,1,49.332,36.72Z" transform="translate(-47.661 -35.918)" fill="#53aff4"/>
              </g>
            </g>
          </g>
        </g>
      </g>
    </g>
  </g>
</svg>
