<svg xmlns="http://www.w3.org/2000/svg" width="100.24" height="89.569" viewBox="0 0 100.24 89.569">
  <g id="Grupo_1022365" data-name="Grupo 1022365" transform="translate(-4063.039 9496.285)">
    <path id="Trazado_741060" data-name="Trazado 741060" d="M44.785,0A44.785,44.785,0,1,1,0,44.785,44.785,44.785,0,0,1,44.785,0Z" transform="translate(4070.715 -9496.285)" fill="#362b9e"/>
    <g id="montana" transform="translate(4063.039 -9514.246)">
      <g id="Grupo_1022355" data-name="Grupo 1022355" transform="translate(6.991 30.183)">
        <path id="Trazado_741061" data-name="Trazado 741061" d="M51.878,251.892,36.292,285.005a6.084,6.084,0,0,0,5.5,8.675h65.8L87.931,251.892,69.819,243.1Z" transform="translate(-35.706 -225.416)" fill="#c38959"/>
        <path id="Trazado_741062" data-name="Trazado 741062" d="M66.436,191.963l-2.015,11.316-8.772,49.274H41.8a6.084,6.084,0,0,1-5.5-8.675l15.585-33.113L61.973,196.3A8.614,8.614,0,0,1,66.436,191.963Z" transform="translate(-35.71 -184.288)" fill="#b17a4a"/>
        <path id="Trazado_741063" data-name="Trazado 741063" d="M154.362,179.236a5.233,5.233,0,0,0-2.343,4.36,5.227,5.227,0,1,1-10.454,0,5.228,5.228,0,0,0-10.456,0,5.227,5.227,0,1,1-10.454,0,5.215,5.215,0,0,0-2.345-4.36L128.4,157.8a8.77,8.77,0,0,1,15.87,0Z" transform="translate(-102.138 -152.76)" fill="#9bd069"/>
        <path id="Trazado_741064" data-name="Trazado 741064" d="M128.4,157.8l-10.091,21.44a5.215,5.215,0,0,1,2.345,4.36,5.228,5.228,0,0,0,7.225,4.831l5.454-30.63c.6-3.349,1.8-5.027,2.993-5.035A8.662,8.662,0,0,0,128.4,157.8Z" transform="translate(-102.139 -152.766)" fill="#6ec17d"/>
        <g id="Grupo_1022362" data-name="Grupo 1022362" transform="translate(-9.863 -29.401)">
          <path id="Trazado_740887" data-name="Trazado 740887" d="M160.981,27.465a9.627,9.627,0,0,0-9.62,9.612c0,3.278,1.557,6.8,4.626,10.462a32.879,32.879,0,0,0,4.572,4.494.688.688,0,0,0,.842,0,32.883,32.883,0,0,0,4.572-4.494c3.07-3.663,4.626-7.183,4.626-10.462A9.627,9.627,0,0,0,160.981,27.465Zm3.563,9.612a3.563,3.563,0,1,1-3.563-3.56A3.561,3.561,0,0,1,164.543,37.077Z" transform="translate(-126.539)" fill="#ff4a4a"/>
          <path id="Trazado_740888" data-name="Trazado 740888" d="M244.163,27.465a9.674,9.674,0,0,0-1.241.08,9.629,9.629,0,0,1,8.379,9.532c0,3.278-1.557,6.8-4.626,10.462a34.4,34.4,0,0,1-3.752,3.813c.481.417.787.655.82.68a.688.688,0,0,0,.842,0,32.885,32.885,0,0,0,4.572-4.494c3.07-3.663,4.626-7.183,4.626-10.462A9.627,9.627,0,0,0,244.163,27.465Z" transform="translate(-209.721)" fill="#e7343f"/>
        </g>
      </g>
      <g id="Grupo_1022356" data-name="Grupo 1022356" transform="translate(29.848 37.23)">
        <path id="Trazado_741065" data-name="Trazado 741065" d="M170.092,277.654l-17.638,37.475h55.264a7.832,7.832,0,0,0,7.087-11.168l-12.381-26.306-16.242-7.881Z" transform="translate(-152.454 -253.911)" fill="#c38959"/>
        <path id="Trazado_741066" data-name="Trazado 741066" d="M183.148,223.912l-1.807,10.147-7.867,44.187H152.459L170.1,240.772l9.049-12.972a7.724,7.724,0,0,1,4-3.888Z" transform="translate(-152.458 -217.029)" fill="#b17a4a"/>
        <path id="Trazado_741067" data-name="Trazado 741067" d="M274.876,212.5a4.693,4.693,0,0,0-2.1,3.91,4.688,4.688,0,1,1-9.375,0,4.688,4.688,0,0,0-9.377,0,4.687,4.687,0,1,1-9.375,0,4.676,4.676,0,0,0-2.1-3.91l9.049-19.227a7.865,7.865,0,0,1,14.232,0Z" transform="translate(-224.908 -188.755)" fill="#9bd069"/>
        <path id="Trazado_741068" data-name="Trazado 741068" d="M251.6,193.278,242.548,212.5a4.677,4.677,0,0,1,2.1,3.91,4.688,4.688,0,0,0,6.479,4.332l4.891-27.468c.536-3,1.61-4.508,2.684-4.515a7.767,7.767,0,0,0-7.108,4.515Z" transform="translate(-224.909 -188.761)" fill="#6ec17d"/>
        <g id="n" transform="translate(37.677 -45.358)">
          <g id="Grupo_1022353" data-name="Grupo 1022353" transform="translate(-5.008 53.592)">
            <g id="Grupo_1022344" data-name="Grupo 1022344" transform="translate(6.602 2.601)">
              <path id="Trazado_741044" data-name="Trazado 741044" d="M21.206,22.611l2.4,3.2,1.6-4,3.2,2-.8-4,2.8-.8-2-2,4-1.2-3.6-2,2.4-2-3.2-.8.8-4.8-3.6,3.6L23.608,5l-2.4,4.8-4-3.6.4,4-4.8-.8,3.6,4.8-4.4,2.8h6l-3.2,5.2,4.8-1.6v4.4Z" transform="translate(-12 -5)" fill="#e6294f"/>
              <path id="Trazado_741045" data-name="Trazado 741045" d="M30.2,25.206l2,1.2-.8-3.2,2.8-1.2-2-1.2.8-2.8-2.4,1.6-.4-2.4L29,18.8,26.6,16l.4,3.6-2.8-.8,1.6,2.4L23,22.4l3.28,1.116L24.2,26.006l3.6-.8.8,2.8Z" transform="translate(-18.597 -11.597)" fill="#fac437"/>
            </g>
            <g id="Grupo_1022348" data-name="Grupo 1022348" transform="translate(3 1)">
              <g id="Grupo_1022345" data-name="Grupo 1022345" transform="translate(4.803 0)">
                <path id="Trazado_741046" data-name="Trazado 741046" d="M15.683,1.117a.4.4,0,0,0-.566.566l.566.566a.4.4,0,0,0,.566-.566Z" transform="translate(-15 -1)" fill="#fe8845"/>
                <path id="Trazado_741047" data-name="Trazado 741047" d="M19.926,5.36a.4.4,0,0,0-.566.566l.566.566a.4.4,0,1,0,.566-.566Z" transform="translate(-17.544 -3.544)" fill="#fe8845"/>
                <path id="Trazado_741048" data-name="Trazado 741048" d="M19.643,2.366a.4.4,0,0,0,.283-.117l.566-.566a.4.4,0,0,0-.566-.566l-.566.566a.4.4,0,0,0,.283.683Z" transform="translate(-17.544 -1)" fill="#fe8845"/>
                <path id="Trazado_741049" data-name="Trazado 741049" d="M15.683,5.36l-.566.566a.4.4,0,1,0,.566.566l.566-.566a.4.4,0,0,0-.566-.566Z" transform="translate(-15 -3.544)" fill="#fe8845"/>
              </g>
              <g id="Grupo_1022346" data-name="Grupo 1022346" transform="translate(0 3.202)">
                <path id="Trazado_741050" data-name="Trazado 741050" d="M3.683,9.117a.4.4,0,0,0-.566.566l.566.566a.4.4,0,1,0,.566-.566Z" transform="translate(-3 -9)" fill="#fe8845"/>
                <path id="Trazado_741051" data-name="Trazado 741051" d="M7.926,13.36a.4.4,0,1,0-.566.566l.566.566a.4.4,0,0,0,.566-.566Z" transform="translate(-5.544 -11.544)" fill="#fe8845"/>
                <path id="Trazado_741052" data-name="Trazado 741052" d="M7.643,10.366a.4.4,0,0,0,.283-.117l.566-.566a.4.4,0,0,0-.566-.566l-.566.566a.4.4,0,0,0,.283.683Z" transform="translate(-5.544 -9)" fill="#fe8845"/>
                <path id="Trazado_741053" data-name="Trazado 741053" d="M3.683,13.36l-.566.566a.4.4,0,1,0,.566.566l.566-.566a.4.4,0,1,0-.566-.566Z" transform="translate(-3 -11.544)" fill="#fe8845"/>
              </g>
              <g id="Grupo_1022347" data-name="Grupo 1022347" transform="translate(6.004 21.751)">
                <path id="Trazado_741054" data-name="Trazado 741054" d="M18.683,55.46a.4.4,0,1,0-.566.566l.566.566a.4.4,0,0,0,.566-.566Z" transform="translate(-18 -55.343)" fill="#fe8845"/>
                <path id="Trazado_741055" data-name="Trazado 741055" d="M22.926,59.7a.4.4,0,1,0-.566.566l.566.566a.4.4,0,1,0,.566-.566Z" transform="translate(-20.544 -57.887)" fill="#fe8845"/>
                <path id="Trazado_741056" data-name="Trazado 741056" d="M22.644,56.71a.4.4,0,0,0,.283-.117l.566-.566a.4.4,0,1,0-.566-.566l-.566.566a.4.4,0,0,0,.283.683Z" transform="translate(-20.545 -55.343)" fill="#fe8845"/>
                <path id="Trazado_741057" data-name="Trazado 741057" d="M18.683,59.7l-.566.566a.4.4,0,1,0,.566.566l.566-.566a.4.4,0,1,0-.566-.566Z" transform="translate(-18 -57.887)" fill="#fe8845"/>
              </g>
              <path id="Trazado_741058" data-name="Trazado 741058" d="M27.2,8.8a.4.4,0,0,1-.394-.334,6.578,6.578,0,0,0-2.629-3.736.4.4,0,1,1,.444-.666A7.3,7.3,0,0,1,27.6,8.337a.4.4,0,0,1-.329.461A.417.417,0,0,1,27.2,8.8Z" transform="translate(-15.595 -2.799)" fill="#fe8845"/>
              <path id="Trazado_741059" data-name="Trazado 741059" d="M22.4,50.2a.4.4,0,0,1-.313-.65,7.691,7.691,0,0,1,3.836-2.544.4.4,0,0,1,.157.785,7,7,0,0,0-3.369,2.259.4.4,0,0,1-.313.15Z" transform="translate(-14.395 -28.588)" fill="#fe8845"/>
            </g>
          </g>
        </g>
      </g>
      <g id="Grupo_1022357" data-name="Grupo 1022357" transform="translate(0 69.494)">
        <path id="Trazado_741069" data-name="Trazado 741069" d="M27.784,364.5v-1.252a9.7,9.7,0,0,0-19.4,0V364.5a9.012,9.012,0,0,0,.629,18H27.155a9.012,9.012,0,0,0,.629-18Z" transform="translate(0 -353.549)" fill="#9bd069"/>
        <path id="Trazado_741070" data-name="Trazado 741070" d="M7.263,373.494a9.015,9.015,0,0,0,9.013,9.013H9.014a9.012,9.012,0,0,1-.629-18v-1.251a9.7,9.7,0,0,1,13.332-9,9.7,9.7,0,0,0-6.07,9V364.5a9.013,9.013,0,0,0-8.385,8.989Z" transform="translate(0 -353.553)" fill="#6ec17d"/>
      </g>
      <g id="Grupo_1022358" data-name="Grupo 1022358" transform="translate(53.524 79.724)">
        <path id="Trazado_741071" data-name="Trazado 741071" d="M291.355,412.886v-.81a6.272,6.272,0,1,0-12.545,0v.81a5.828,5.828,0,0,0,.407,11.641h11.731a5.828,5.828,0,0,0,.407-11.641Z" transform="translate(-273.388 -405.804)" fill="#9bd069"/>
        <path id="Trazado_741072" data-name="Trazado 741072" d="M278.085,418.7a5.83,5.83,0,0,0,5.829,5.829h-4.7a5.828,5.828,0,0,1-.407-11.642v-.809a6.276,6.276,0,0,1,8.621-5.817,6.275,6.275,0,0,0-3.925,5.817v.809a5.828,5.828,0,0,0-5.422,5.813Z" transform="translate(-273.388 -405.807)" fill="#6ec17d"/>
      </g>
      <g id="Grupo_1022359" data-name="Grupo 1022359" transform="translate(67.644 72.353)">
        <path id="Trazado_741073" data-name="Trazado 741073" d="M370.548,378.023v-1.129a8.742,8.742,0,1,0-17.484,0v1.129a8.122,8.122,0,0,0,.567,16.224h16.35a8.122,8.122,0,0,0,.567-16.224Z" transform="translate(-345.508 -368.153)" fill="#9bd069"/>
        <path id="Trazado_741074" data-name="Trazado 741074" d="M352.053,386.129a8.125,8.125,0,0,0,8.123,8.123h-6.545a8.122,8.122,0,0,1-.567-16.225V376.9a8.746,8.746,0,0,1,12.016-8.107,8.745,8.745,0,0,0-5.47,8.107v1.128A8.123,8.123,0,0,0,352.053,386.129Z" transform="translate(-345.508 -368.157)" fill="#6ec17d"/>
      </g>
      <g id="Grupo_1022360" data-name="Grupo 1022360" transform="translate(55.83 19.573)">
        <path id="Trazado_741075" data-name="Trazado 741075" d="M350.763,71.42H344.2a5.043,5.043,0,0,0-4.529-7.262H324.743a5.043,5.043,0,1,0,0,10.085h6.565a5.043,5.043,0,0,0,4.529,7.262h14.926a5.043,5.043,0,1,0,0-10.085Z" transform="translate(-319.7 -64.158)" fill="#f6f9f9"/>
        <path id="Trazado_741076" data-name="Trazado 741076" d="M324.541,69.2a5.046,5.046,0,0,0,5.043,5.043h-4.84a5.043,5.043,0,1,1,0-10.085h4.84A5.042,5.042,0,0,0,324.541,69.2Z" transform="translate(-319.701 -64.16)" fill="#dddaec"/>
        <path id="Trazado_741077" data-name="Trazado 741077" d="M386.249,122.933h-4.84a5.043,5.043,0,0,1-4.529-7.261h4.84a5.043,5.043,0,0,0,4.529,7.261Z" transform="translate(-365.272 -105.586)" fill="#dddaec"/>
      </g>
      <path id="Trazado_741081" data-name="Trazado 741081" d="M107.34,498.164H15.677a1.516,1.516,0,1,1,0-3.033H107.34a1.516,1.516,0,0,1,0,3.033Z" transform="translate(-11.389 -397.918)" fill="#6ec17d"/>
    </g>
  </g>
</svg>
