<svg xmlns="http://www.w3.org/2000/svg" xmlns:xlink="http://www.w3.org/1999/xlink" width="77" height="77" viewBox="0 0 77 77">
  <defs>
    <linearGradient id="linear-gradient" x1="-0.076" y1="0.069" x2="0.773" y2="0.841" gradientUnits="objectBoundingBox">
      <stop offset="0"/>
      <stop offset="1" stop-opacity="0"/>
    </linearGradient>
  </defs>
  <g id="letra-b_1_" data-name="letra-b (1)" transform="translate(-6 -6.5)">
    <path id="Trazado_741669" data-name="Trazado 741669" d="M38.5,0A38.5,38.5,0,1,1,0,38.5,38.5,38.5,0,0,1,38.5,0Z" transform="translate(6 6.5)" fill="#362b9e"/>
    <path id="Trazado_741667" data-name="Trazado 741667" d="M206.415,153.9,181.009,128.5a13.338,13.338,0,0,0-9.775-3.749H152.924v40.534l18.264,18.264A38.623,38.623,0,0,0,206.415,153.9Z" transform="translate(-124.237 -100.121)" opacity="0.49" fill="url(#linear-gradient)"/>
    <path id="Trazado_741668" data-name="Trazado 741668" d="M178.541,143.882a10.661,10.661,0,0,1,6.216,9.861c0,6.568-5.668,11.542-13.15,11.542H152.924V124.751h18.309c7.187,0,12.432,4.385,12.432,10.374a10.32,10.32,0,0,1-5.125,8.757Zm-4.829,8.533c0-2.153-1.581-3.669-4-3.669h-6.066v7.372h6.066C172.131,156.117,173.712,154.6,173.712,152.414Zm-.646-15.44a3.427,3.427,0,0,0-3.776-3.529h-5.643V140.5h5.644a3.427,3.427,0,0,0,3.776-3.529Z" transform="translate(-124.237 -100.122)" fill="#fff"/>
  </g>
</svg>
