<svg xmlns="http://www.w3.org/2000/svg" width="66.216" height="66.216" viewBox="0 0 66.216 66.216">
  <g id="Grupo_1021183" data-name="Grupo 1021183" transform="translate(-198 -2253)">
    <g id="Grupo_1021109" data-name="Grupo 1021109" transform="translate(-133 714)">
      <path id="Trazado_734791" data-name="Trazado 734791" d="M33.108,0A33.108,33.108,0,1,1,0,33.108,33.108,33.108,0,0,1,33.108,0Z" transform="translate(331 1539)" fill="#362b9e"/>
    </g>
    <g id="informacion-personal" transform="translate(181.5 2266)">
      <path id="Trazado_738185" data-name="Trazado 738185" d="M277.84,383.12h-3.188L271,375.78l12.07,2.512v2.414Z" transform="translate(-220.688 -345.542)" fill="#a2abb8"/>
      <path id="Trazado_738186" data-name="Trazado 738186" d="M356,439.414h4.023a1.211,1.211,0,0,0,1.207-1.207V437H356Z" transform="translate(-298.848 -401.836)" fill="#c8d2dc"/>
      <path id="Trazado_738187" data-name="Trazado 738187" d="M198.3,46.7h4.426a1.211,1.211,0,0,1,1.207,1.207V74.485a1.211,1.211,0,0,1-1.207,1.207H182.207A1.211,1.211,0,0,1,181,74.485v-8.61Z" transform="translate(-137.93 -42.942)" fill="#e9edf1"/>
      <path id="Trazado_738188" data-name="Trazado 738188" d="M182.207,46.7H197.9V69.027a1.211,1.211,0,0,1-1.207,1.207h-3.219v5.458h-2.414L181,47.907A1.211,1.211,0,0,1,182.207,46.7Z" transform="translate(-137.93 -42.942)" fill="#c8d2dc"/>
      <g id="Grupo_1021289" data-name="Grupo 1021289" transform="translate(53.329 9.052)">
        <path id="Trazado_738189" data-name="Trazado 738189" d="M317.553,338.707H309.1a.6.6,0,1,1,0-1.207h8.449a.6.6,0,1,1,0,1.207Z" transform="translate(-308.5 -319.395)" fill="#a2abb8"/>
        <path id="Trazado_738190" data-name="Trazado 738190" d="M317.553,293.707H309.1a.6.6,0,1,1,0-1.207h8.449a.6.6,0,1,1,0,1.207Z" transform="translate(-308.5 -278.016)" fill="#a2abb8"/>
        <path id="Trazado_738191" data-name="Trazado 738191" d="M317.553,248.707H309.1a.6.6,0,1,1,0-1.207h8.449a.6.6,0,0,1,0,1.207Z" transform="translate(-308.5 -236.637)" fill="#a2abb8"/>
        <path id="Trazado_738192" data-name="Trazado 738192" d="M317.553,203.707H309.1a.6.6,0,1,1,0-1.207h8.449a.6.6,0,1,1,0,1.207Z" transform="translate(-308.5 -195.258)" fill="#a2abb8"/>
        <path id="Trazado_738193" data-name="Trazado 738193" d="M317.553,158.707H309.1a.6.6,0,1,1,0-1.207h8.449a.6.6,0,1,1,0,1.207Z" transform="translate(-308.5 -153.879)" fill="#a2abb8"/>
        <path id="Trazado_738194" data-name="Trazado 738194" d="M317.553,113.707H309.1a.6.6,0,1,1,0-1.207h8.449a.6.6,0,1,1,0,1.207Z" transform="translate(-308.5 -112.5)" fill="#a2abb8"/>
      </g>
      <path id="Trazado_738195" data-name="Trazado 738195" d="M32.207,91.7A1.211,1.211,0,0,0,31,92.907V123.68a.634.634,0,0,0,.632.632H53.3a.634.634,0,0,0,.632-.632V122.7Z" transform="translate(0 -84.321)" fill="#597ea0"/>
      <path id="Trazado_738196" data-name="Trazado 738196" d="M50.426,91.7H46v30.429a.576.576,0,0,0,.575.575H67.726V110.07Z" transform="translate(-13.793 -84.321)" fill="#8da6be"/>
      <path id="Trazado_738197" data-name="Trazado 738197" d="M117.093,91.7H101v17.163a1.211,1.211,0,0,0,1.207,1.207H118.3V92.907A1.211,1.211,0,0,0,117.093,91.7Z" transform="translate(-64.367 -84.321)" fill="#597ea0"/>
      <path id="Trazado_738198" data-name="Trazado 738198" d="M140.312,24.14h-18.1A1.211,1.211,0,0,1,121,22.933V1.207A1.211,1.211,0,0,1,122.207,0h18.1a1.211,1.211,0,0,1,1.207,1.207V22.933A1.211,1.211,0,0,1,140.312,24.14Z" transform="translate(-82.758)" fill="#dce7ef"/>
      <path id="Trazado_738199" data-name="Trazado 738199" d="M161.458,182.544c-.734.534-4.492.534-5.226,0-1.28,1.725-5.233.786-5.233,4.941v1.969a.128.128,0,0,0,.128.128h15.435a.128.128,0,0,0,.128-.128v-1.969C166.691,183.33,162.738,184.269,161.458,182.544Z" transform="translate(-110.344 -167.855)" fill="#fd6930"/>
      <path id="Trazado_738200" data-name="Trazado 738200" d="M221.254,167.086a2.185,2.185,0,0,1-.4-1.353h-4.435a2.184,2.184,0,0,1-.4,1.353,4.441,4.441,0,0,0,5.226,0Z" transform="translate(-170.139 -152.397)" fill="#ee5b23"/>
      <path id="Trazado_738201" data-name="Trazado 738201" d="M202.149,36.145a4.445,4.445,0,1,0-8.89,0v2.488a4.445,4.445,0,0,0,8.89,0Z" transform="translate(-149.203 -29.149)" fill="#fd6930"/>
    </g>
  </g>
</svg>
