<svg xmlns="http://www.w3.org/2000/svg" xmlns:xlink="http://www.w3.org/1999/xlink" width="120" height="125" viewBox="0 0 120 125">
  <defs>
    <filter id="Elipse_7738" x="0" y="0" width="120" height="120" filterUnits="userSpaceOnUse">
      <feOffset dy="3" input="SourceAlpha"/>
      <feGaussianBlur stdDeviation="3" result="blur"/>
      <feFlood flood-opacity="0.161"/>
      <feComposite operator="in" in2="blur"/>
      <feComposite in="SourceGraphic"/>
    </filter>
  </defs>
  <g id="Grupo_1021739" data-name="Grupo 1021739" transform="translate(-827 -5022)">
    <g transform="matrix(1, 0, 0, 1, 827, 5022)" filter="url(#Elipse_7738)">
      <circle id="Elipse_7738-2" data-name="Elipse 7738" cx="51" cy="51" r="51" transform="translate(9 6)" fill="#a2d0ff"/>
    </g>
    <g id="desarrollo-web_1_" data-name="desarrollo-web (1)" transform="translate(846.073 5046)">
      <path id="Trazado_734630" data-name="Trazado 734630" d="M303.351,38.414H265.117a5.758,5.758,0,0,0-5.758,5.758V65.8a5.758,5.758,0,0,0,5.758,5.758h13.6l-2.2,8.872a1.259,1.259,0,0,0,1.989,1.3l13.244-10.173h11.6A5.759,5.759,0,0,0,309.11,65.8V44.173a5.759,5.759,0,0,0-5.758-5.758Zm0,0" transform="translate(-208.196 -30.836)" fill="#719bad"/>
      <path id="Trazado_734631" data-name="Trazado 734631" d="M347.888,208.442l-1.7,6.863a1.259,1.259,0,0,0,1.989,1.3l13.244-10.173H350.5Zm0,0" transform="translate(-277.864 -165.711)" fill="#638d9f"/>
      <path id="Trazado_734632" data-name="Trazado 734632" d="M437.947,38.414H427.031a5.759,5.759,0,0,1,5.758,5.758V65.8a5.758,5.758,0,0,1-5.758,5.758h10.916a5.758,5.758,0,0,0,5.758-5.758V44.173A5.759,5.759,0,0,0,437.947,38.414Zm0,0" transform="translate(-342.792 -30.836)" fill="#638d9f"/>
      <g id="Grupo_1019720" data-name="Grupo 1019720" transform="translate(66.835 15.824)">
        <path id="Trazado_734633" data-name="Trazado 734633" d="M339.388,109.086l4.781-3.105a.566.566,0,0,1,.358-.094,1.423,1.423,0,0,1,1.28,1.374.861.861,0,0,1-.339.734l-3.313,2.146,3.313,2.145a.863.863,0,0,1,.339.734,1.423,1.423,0,0,1-1.28,1.374.571.571,0,0,1-.358-.094l-4.781-3.105a1.244,1.244,0,0,1,0-2.108Zm0,0" transform="translate(-338.805 -100.823)" fill="#f2f2f2"/>
        <path id="Trazado_734634" data-name="Trazado 734634" d="M392.922,81.216a.815.815,0,0,1-.076.358l-6.625,13.571a.944.944,0,0,1-.847.471,1.041,1.041,0,0,1-1.054-1,.85.85,0,0,1,.094-.358l6.607-13.571a.829.829,0,0,1,.791-.47A1.077,1.077,0,0,1,392.922,81.216Zm0,0" transform="translate(-375.342 -80.219)" fill="#f2f2f2"/>
        <path id="Trazado_734635" data-name="Trazado 734635" d="M444.364,111.194l-4.781,3.105a.571.571,0,0,1-.358.094,1.423,1.423,0,0,1-1.281-1.374.862.862,0,0,1,.339-.734l3.313-2.145-3.313-2.146a.861.861,0,0,1-.339-.734,1.423,1.423,0,0,1,1.281-1.374.566.566,0,0,1,.358.094l4.781,3.105a1.244,1.244,0,0,1,0,2.108Zm0,0" transform="translate(-418.388 -100.823)" fill="#f2f2f2"/>
      </g>
      <path id="Trazado_734636" data-name="Trazado 734636" d="M80.3,263.888c-.287-4.886-3.389-8.868-8.005-11.031-5.651-2.645-21.042-6.649-21.042-6.649a3.138,3.138,0,0,1-2.565-3.086v-8.8H31.96v8.8a3.139,3.139,0,0,1-2.566,3.086s-15.39,4-21.041,6.649C3.736,255.02.633,259,.347,263.888L0,284.862A4.188,4.188,0,0,0,4.186,289.1H76.465a4.188,4.188,0,0,0,4.187-4.237Zm0,0" transform="translate(0.001 -188.1)" fill="#fcc18b"/>
      <path id="Trazado_734637" data-name="Trazado 734637" d="M234.033,263.888c-.287-4.886-3.389-8.868-8.005-11.031-5.651-2.645-21.042-6.649-21.042-6.649a3.138,3.138,0,0,1-2.565-3.086v-8.8H191.5V248.4a3.139,3.139,0,0,0,2.565,3.086s15.391,4,21.042,6.649c4.616,2.162,7.719,6.145,8.005,11.031l.33,19.935h6.746a4.188,4.188,0,0,0,4.187-4.237Zm0,0" transform="translate(-153.727 -188.1)" fill="#eaab65"/>
      <path id="Trazado_734638" data-name="Trazado 734638" d="M93.715,121.426h-2.2a3.393,3.393,0,0,0-3.343,4.086l.863,4.749c.669,3.521,4.683,1.912,4.683,1.912Zm0,0" transform="translate(-70.733 -97.473)" fill="#eaab65"/>
      <path id="Trazado_734639" data-name="Trazado 734639" d="M292.337,121.426h2.2a3.393,3.393,0,0,1,3.344,4.086l-.862,4.749c-.67,3.521-4.683,1.912-4.683,1.912Zm0,0" transform="translate(-234.664 -97.473)" fill="#fcc18b"/>
      <path id="Trazado_734640" data-name="Trazado 734640" d="M144.2,9.537a17.3,17.3,0,0,0-24.349,0,18.42,18.42,0,0,0-5.617,13.534l.005,18c0,8.509,11.061,17.322,17.786,17.322s17.786-8.813,17.786-17.322l0-18A18.418,18.418,0,0,0,144.2,9.537Zm0,0" transform="translate(-91.703 -3.634)" fill="#fcc18b"/>
      <path id="Trazado_734641" data-name="Trazado 734641" d="M194.394,9.537A17.967,17.967,0,0,0,182.22,4.527a17.456,17.456,0,0,0-5.458.927,18.924,18.924,0,0,1,6.716,4.082A18.418,18.418,0,0,1,189.1,23.07l0,18c0,6.439-6.333,13.05-12.328,15.887a13.227,13.227,0,0,0,5.458,1.436c6.726,0,17.786-8.813,17.786-17.322l0-18a18.418,18.418,0,0,0-5.617-13.534Zm0,0" transform="translate(-141.893 -3.634)" fill="#eaab65"/>
      <path id="Trazado_734642" data-name="Trazado 734642" d="M128.919,0H106.907A10.255,10.255,0,0,0,96.653,10.255V24.4a7.08,7.08,0,0,1,4.639,1.732.6.6,0,0,0,1.019-.431V14.615a4.533,4.533,0,0,1,4.533-4.532h4.119a4.683,4.683,0,0,1,2.964,1.057l.4.33a5.66,5.66,0,0,0,7.166,0l.4-.33a4.683,4.683,0,0,1,2.964-1.057h4.119a4.533,4.533,0,0,1,4.532,4.532V25.706a.6.6,0,0,0,1.02.431,7.079,7.079,0,0,1,4.638-1.732V10.255A10.255,10.255,0,0,0,128.919,0Zm0,0" transform="translate(-77.586)" fill="#426175"/>
      <path id="Trazado_734643" data-name="Trazado 734643" d="M244.726,0h-3.807c1.916,2.255,3.118,5.643,3.149,10.083h.723a4.533,4.533,0,0,1,4.532,4.533v11.09a.6.6,0,0,0,1.02.431,7.08,7.08,0,0,1,4.638-1.731V10.255A10.255,10.255,0,0,0,244.726,0Zm0,0" transform="translate(-193.393)" fill="#2c4456"/>
      <path id="Trazado_734644" data-name="Trazado 734644" d="M72.3,308.172c-3.289-1.54-9.875-3.539-14.807-4.942l-1.066.4a45.451,45.451,0,0,1-32.2,0l-1.067-.4c-4.932,1.4-11.518,3.4-14.806,4.942C3.735,310.333.633,314.316.346,319.2L0,340.176a4.188,4.188,0,0,0,4.187,4.237H76.464a4.188,4.188,0,0,0,4.187-4.237L80.3,319.2c-.287-4.886-3.389-8.868-8.005-11.03Zm0,0" transform="translate(0.002 -243.413)" fill="#33bca5"/>
      <path id="Trazado_734645" data-name="Trazado 734645" d="M101.6,339.154H49.517a3.02,3.02,0,0,1-3.012-2.8l-2.13-29.889a3.019,3.019,0,0,1,3.011-3.234h56.347a3.019,3.019,0,0,1,3.011,3.234l-2.13,29.89a3.02,3.02,0,0,1-3.012,2.8Zm0,0" transform="translate(-35.614 -243.41)" fill="#f2f2f2"/>
      <path id="Trazado_734646" data-name="Trazado 734646" d="M300.567,303.229h-11a3.019,3.019,0,0,1,3.011,3.234l-2.33,32.693h8.184a3.02,3.02,0,0,0,3.012-2.8l2.13-29.889a3.019,3.019,0,0,0-3.011-3.233Zm0,0" transform="translate(-232.448 -243.412)" fill="#cdd6df"/>
      <path id="Trazado_734647" data-name="Trazado 734647" d="M103.51,490.615H44.717a2.628,2.628,0,1,1,0-5.255H103.51a2.628,2.628,0,1,1,0,5.255Zm0,0" transform="translate(-33.786 -389.615)" fill="#cdd6df"/>
      <path id="Trazado_734648" data-name="Trazado 734648" d="M191.521,383.291a4.206,4.206,0,1,1-4.206-4.2A4.206,4.206,0,0,1,191.521,383.291Zm0,0" transform="translate(-146.988 -304.305)" fill="#fff"/>
    </g>
  </g>
</svg>
