<svg xmlns="http://www.w3.org/2000/svg" xmlns:xlink="http://www.w3.org/1999/xlink" width="1258" height="609.752" viewBox="0 0 1258 609.752">
  <defs>
    <filter id="Rectángulo_372970" x="0" y="0" width="1258" height="609.752" filterUnits="userSpaceOnUse">
      <feOffset dy="3" input="SourceAlpha"/>
      <feGaussianBlur stdDeviation="3" result="blur"/>
      <feFlood flood-opacity="0.161"/>
      <feComposite operator="in" in2="blur"/>
      <feComposite in="SourceGraphic"/>
    </filter>
    <filter id="Rectángulo_348555" x="0" y="0" width="1258" height="609.752" filterUnits="userSpaceOnUse">
      <feOffset dy="3" input="SourceAlpha"/>
      <feGaussianBlur stdDeviation="3" result="blur-2"/>
      <feFlood flood-opacity="0.161"/>
      <feComposite operator="in" in2="blur-2"/>
      <feComposite in="SourceGraphic"/>
    </filter>
    <clipPath id="clip-path">
      <rect id="Rectángulo_348557" data-name="Rectángulo 348557" width="1240" height="591.752" rx="23" fill="#37f871" opacity="0.15"/>
    </clipPath>
    <clipPath id="clip-path-3">
      <rect id="Rectángulo_372537" data-name="Rectángulo 372537" width="129" height="59" transform="translate(0)" fill="#cec7f1" stroke="#707070" stroke-width="1"/>
    </clipPath>
    <clipPath id="clip-path-4">
      <rect id="Rectángulo_372959" data-name="Rectángulo 372959" width="129" height="59" fill="#c1b9e8" stroke="#707070" stroke-width="1"/>
    </clipPath>
    <clipPath id="clip-path-5">
      <g transform="matrix(1, 0, 0, 1, 0, 0)" filter="url(#Rectángulo_372970)">
        <rect id="Rectángulo_372970-2" data-name="Rectángulo 372970" width="1240" height="591.752" rx="23" transform="translate(180 2861.63)" fill="#37f871" opacity="0.49"/>
      </g>
    </clipPath>
    <clipPath id="clip-path-6">
      <path id="Rectángulo_372962" data-name="Rectángulo 372962" d="M0,0H353.825a19,19,0,0,1,19,19V201.306a19,19,0,0,1-19,19H0a0,0,0,0,1,0,0V0A0,0,0,0,1,0,0Z" fill="#349ff1" opacity="0.17"/>
    </clipPath>
    <clipPath id="clip-path-7">
      <path id="Rectángulo_372967" data-name="Rectángulo 372967" d="M19,0H471.473a0,0,0,0,1,0,0V278.6a0,0,0,0,1,0,0H19a19,19,0,0,1-19-19V19A19,19,0,0,1,19,0Z" transform="translate(0 0)" fill="#349ff1" opacity="0.17"/>
    </clipPath>
    <filter id="Unión_1" x="465" y="53.758" width="328.098" height="67" filterUnits="userSpaceOnUse">
      <feOffset dy="3" input="SourceAlpha"/>
      <feGaussianBlur stdDeviation="3" result="blur-3"/>
      <feFlood flood-opacity="0.161"/>
      <feComposite operator="in" in2="blur-3"/>
      <feComposite in="SourceGraphic"/>
    </filter>
    <filter id="Trazado_740773" x="772.398" y="110.758" width="109.15" height="109.15" filterUnits="userSpaceOnUse">
      <feOffset dy="3" input="SourceAlpha"/>
      <feGaussianBlur stdDeviation="3" result="blur-4"/>
      <feFlood flood-opacity="0.161"/>
      <feComposite operator="in" in2="blur-4"/>
      <feComposite in="SourceGraphic"/>
    </filter>
    <filter id="Trazado_740774" x="778.398" y="116.758" width="98.15" height="98.15" filterUnits="userSpaceOnUse">
      <feOffset dy="3" input="SourceAlpha"/>
      <feGaussianBlur stdDeviation="3" result="blur-5"/>
      <feFlood flood-opacity="0.161"/>
      <feComposite operator="in" in2="blur-5"/>
      <feComposite in="SourceGraphic"/>
    </filter>
    <filter id="Trazado_740237" x="991" y="300.769" width="139.8" height="104.194" filterUnits="userSpaceOnUse">
      <feOffset dy="3" input="SourceAlpha"/>
      <feGaussianBlur stdDeviation="3" result="blur-6"/>
      <feFlood flood-opacity="0.161"/>
      <feComposite operator="in" in2="blur-6"/>
      <feComposite in="SourceGraphic"/>
    </filter>
    <filter id="Elipse_7745" x="996.964" y="305.866" width="127.386" height="94" filterUnits="userSpaceOnUse">
      <feOffset dy="3" input="SourceAlpha"/>
      <feGaussianBlur stdDeviation="3" result="blur-7"/>
      <feFlood flood-opacity="0.161"/>
      <feComposite operator="in" in2="blur-7"/>
      <feComposite in="SourceGraphic"/>
    </filter>
    <filter id="Trazado_740230" x="316.416" y="110.758" width="109.15" height="109.15" filterUnits="userSpaceOnUse">
      <feOffset dy="3" input="SourceAlpha"/>
      <feGaussianBlur stdDeviation="3" result="blur-8"/>
      <feFlood flood-opacity="0.161"/>
      <feComposite operator="in" in2="blur-8"/>
      <feComposite in="SourceGraphic"/>
    </filter>
    <filter id="Trazado_741094" x="321.783" y="116.038" width="98.166" height="97.956" filterUnits="userSpaceOnUse">
      <feOffset dy="3" input="SourceAlpha"/>
      <feGaussianBlur stdDeviation="3" result="blur-9"/>
      <feFlood flood-opacity="0.161"/>
      <feComposite operator="in" in2="blur-9"/>
      <feComposite in="SourceGraphic"/>
    </filter>
    <filter id="Trazado_740230-2" x="302.725" y="462.105" width="139.799" height="104.194" filterUnits="userSpaceOnUse">
      <feOffset dy="3" input="SourceAlpha"/>
      <feGaussianBlur stdDeviation="3" result="blur-10"/>
      <feFlood flood-opacity="0.161"/>
      <feComposite operator="in" in2="blur-10"/>
      <feComposite in="SourceGraphic"/>
    </filter>
    <filter id="Trazado_740772" x="308" y="468.021" width="129" height="93" filterUnits="userSpaceOnUse">
      <feOffset dy="3" input="SourceAlpha"/>
      <feGaussianBlur stdDeviation="3" result="blur-11"/>
      <feFlood flood-opacity="0.161"/>
      <feComposite operator="in" in2="blur-11"/>
      <feComposite in="SourceGraphic"/>
    </filter>
    <filter id="Trazado_740227" x="162" y="187.367" width="109.15" height="109.15" filterUnits="userSpaceOnUse">
      <feOffset dy="3" input="SourceAlpha"/>
      <feGaussianBlur stdDeviation="3" result="blur-12"/>
      <feFlood flood-opacity="0.161"/>
      <feComposite operator="in" in2="blur-12"/>
      <feComposite in="SourceGraphic"/>
    </filter>
    <filter id="Trazado_740231" x="167.525" y="192.893" width="98.099" height="98.099" filterUnits="userSpaceOnUse">
      <feOffset dy="3" input="SourceAlpha"/>
      <feGaussianBlur stdDeviation="3" result="blur-13"/>
      <feFlood flood-opacity="0.161"/>
      <feComposite operator="in" in2="blur-13"/>
      <feComposite in="SourceGraphic"/>
    </filter>
    <filter id="Trazado_740227-2" x="162" y="409.367" width="109.15" height="109.15" filterUnits="userSpaceOnUse">
      <feOffset dy="3" input="SourceAlpha"/>
      <feGaussianBlur stdDeviation="3" result="blur-14"/>
      <feFlood flood-opacity="0.161"/>
      <feComposite operator="in" in2="blur-14"/>
      <feComposite in="SourceGraphic"/>
    </filter>
    <filter id="Trazado_740231-2" x="167.525" y="414.893" width="98.099" height="98.099" filterUnits="userSpaceOnUse">
      <feOffset dy="3" input="SourceAlpha"/>
      <feGaussianBlur stdDeviation="3" result="blur-15"/>
      <feFlood flood-opacity="0.161"/>
      <feComposite operator="in" in2="blur-15"/>
      <feComposite in="SourceGraphic"/>
    </filter>
    <filter id="Trazado_740230-3" x="128" y="298.527" width="109.15" height="109.153" filterUnits="userSpaceOnUse">
      <feOffset dy="3" input="SourceAlpha"/>
      <feGaussianBlur stdDeviation="3" result="blur-16"/>
      <feFlood flood-opacity="0.161"/>
      <feComposite operator="in" in2="blur-16"/>
      <feComposite in="SourceGraphic"/>
    </filter>
    <filter id="Elipse_7745-2" x="134.437" y="304.104" width="96.334" height="98" filterUnits="userSpaceOnUse">
      <feOffset dy="3" input="SourceAlpha"/>
      <feGaussianBlur stdDeviation="3" result="blur-17"/>
      <feFlood flood-opacity="0.161"/>
      <feComposite operator="in" in2="blur-17"/>
      <feComposite in="SourceGraphic"/>
    </filter>
    <clipPath id="clip-path-8">
      <rect id="Rectángulo_344316" data-name="Rectángulo 344316" width="11.824" height="11.824" fill="#221b6b"/>
    </clipPath>
    <clipPath id="clip-path-14">
      <rect id="Rectángulo_344316-7" data-name="Rectángulo 344316" width="11.824" height="11.824" fill="#463b7e"/>
    </clipPath>
    <filter id="Trazado_740227-3" x="473.25" y="187.29" width="109.15" height="109.15" filterUnits="userSpaceOnUse">
      <feOffset dy="3" input="SourceAlpha"/>
      <feGaussianBlur stdDeviation="3" result="blur-18"/>
      <feFlood flood-opacity="0.161"/>
      <feComposite operator="in" in2="blur-18"/>
      <feComposite in="SourceGraphic"/>
    </filter>
    <filter id="Trazado_740231-3" x="478.775" y="192.815" width="98.099" height="98.099" filterUnits="userSpaceOnUse">
      <feOffset dy="3" input="SourceAlpha"/>
      <feGaussianBlur stdDeviation="3" result="blur-19"/>
      <feFlood flood-opacity="0.161"/>
      <feComposite operator="in" in2="blur-19"/>
      <feComposite in="SourceGraphic"/>
    </filter>
  </defs>
  <g id="_15" data-name="15" transform="translate(-171 -2835.633)">
    <g id="Grupo_1013565" data-name="Grupo 1013565" transform="translate(180 2841.633)">
      <g transform="matrix(1, 0, 0, 1, -9, -6)" filter="url(#Rectángulo_348555)">
        <rect id="Rectángulo_348555-2" data-name="Rectángulo 348555" width="1240" height="591.752" rx="23" transform="translate(9 6)" fill="#f4f2fd"/>
      </g>
    </g>
    <g id="Grupo_1022180" data-name="Grupo 1022180" transform="translate(180 2841.633)" opacity="0.32">
      <g id="Enmascarar_grupo_952098" data-name="Enmascarar grupo 952098" clip-path="url(#clip-path)">
        <g id="Grupo_1013564" data-name="Grupo 1013564" transform="translate(-225.049 -125.891)">
          <path id="Trazado_726348" data-name="Trazado 726348" d="M985.359,113.094s-86.556-1.388-233.1-84.4S588.893,91.923,500.241,90.55,388.274,26.426,292.252,42.7,172.264,128.5,57.889,96.733s-22.237,99.555-22.237,99.555l937.321,24.2Z" transform="matrix(0.995, -0.105, 0.105, 0.995, 588.103, 538.283)" fill="none" stroke="#12263f" stroke-width="3" stroke-dasharray="11" opacity="0.142"/>
          <path id="Trazado_726350" data-name="Trazado 726350" d="M1850.632,30.539,1713.057,428,1755.95,611.88l-282.26,147.7c-3.811-4.087-7.341-8.471-11.484-12.213-31.032-28.026-60.217-58.454-93.711-83.328-66.409-49.311-139.281-58.818-215.187-28.981q-39.625,15.576-78.164,33.546c-47.546,22.233-97.09,35.094-151.29,31.138-33.924-2.475-64.024-13.148-90.476-34.934-39.591-32.611-67.484-74.471-98.9-113.606-16.649-20.738-33.639-41.391-52.227-60.493-38.227-39.285-84.169-57.743-140.131-53.85-60.2,4.19-110.227,23.032-145.782,71.606-29.669,40.532-59.741,80.972-92.568,119.052C250.63,689.15,180.212,709.02,98.082,691.535c-29.4-6.257-57.855-17.391-86.743-26.3l172.4-477.011Z" transform="matrix(-0.921, 0.391, -0.391, -0.921, 2014.356, 716.327)" fill="none" stroke="#31313c" stroke-width="3" opacity="0.05"/>
          <path id="Trazado_726351" data-name="Trazado 726351" d="M1367.507,567.289,1255.985,270.631l26.583-134.492-211.045-116.2c-2.687,2.916-5.161,6.057-8.1,8.71C1041.4,48.512,1020.79,70.2,996.874,87.676c-47.418,34.65-100.637,39.78-157.129,15.818Q810.254,90.985,781.5,76.738C746.019,59.115,709.322,48.352,669.656,49.87c-24.827.95-46.63,8.043-65.46,23.427-28.183,23.026-47.537,53.176-69.552,81.225-11.666,14.863-23.583,29.655-36.714,43.262-27.005,27.984-60.225,40.41-101.393,36.094-44.284-4.643-81.5-19.83-108.877-56.568-22.849-30.656-45.991-61.254-71.091-90.184C175.94,40.3,123.74,23.829,63.94,34.6,42.533,38.459,21.95,45.935.99,51.758L140.18,407.977Z" transform="matrix(0.891, -0.454, 0.454, 0.891, 442.627, 593.633)" fill="none" stroke="#fff" stroke-width="1" opacity="0.81"/>
        </g>
      </g>
      <g id="Enmascarar_grupo_952098-2" data-name="Enmascarar grupo 952098" clip-path="url(#clip-path)">
        <g id="Grupo_1013564-2" data-name="Grupo 1013564" transform="translate(-549.307 -693.673)">
          <path id="Trazado_726348-2" data-name="Trazado 726348" d="M985.359,113.094s-86.556-1.388-233.1-84.4S588.893,91.923,500.241,90.55,388.274,26.426,292.252,42.7,172.264,128.5,57.889,96.733s-22.237,99.555-22.237,99.555l937.321,24.2Z" transform="matrix(-0.995, 0.105, -0.105, -0.995, 1426.253, 873.033)" fill="none" stroke="#12263f" stroke-width="3" stroke-dasharray="11" opacity="0.142"/>
          <path id="Trazado_726350-2" data-name="Trazado 726350" d="M1850.632,30.539,1713.057,428,1755.95,611.88l-282.26,147.7c-3.811-4.087-7.341-8.471-11.484-12.213-31.032-28.026-60.217-58.454-93.711-83.328-66.409-49.311-139.281-58.818-215.187-28.981q-39.625,15.576-78.164,33.546c-47.546,22.233-97.09,35.094-151.29,31.138-33.924-2.475-64.024-13.148-90.476-34.934-39.591-32.611-67.484-74.471-98.9-113.606-16.649-20.738-33.639-41.391-52.227-60.493-38.227-39.285-84.169-57.743-140.131-53.85-60.2,4.19-110.227,23.032-145.782,71.606-29.669,40.532-59.741,80.972-92.568,119.052C250.63,689.15,180.212,709.02,98.082,691.535c-29.4-6.257-57.855-17.391-86.743-26.3l172.4-477.011Z" transform="matrix(0.921, -0.391, 0.391, 0.921, 0, 694.988)" fill="none" stroke="#31313c" stroke-width="3" opacity="0.05"/>
          <path id="Trazado_726351-2" data-name="Trazado 726351" d="M1367.507,567.289,1255.985,270.631l26.583-134.492-211.045-116.2c-2.687,2.916-5.161,6.057-8.1,8.71C1041.4,48.512,1020.79,70.2,996.874,87.676c-47.418,34.65-100.637,39.78-157.129,15.818Q810.254,90.985,781.5,76.738C746.019,59.115,709.322,48.352,669.656,49.87c-24.827.95-46.63,8.043-65.46,23.427-28.183,23.026-47.537,53.176-69.552,81.225-11.666,14.863-23.583,29.655-36.714,43.262-27.005,27.984-60.225,40.41-101.393,36.094-44.284-4.643-81.5-19.83-108.877-56.568-22.849-30.656-45.991-61.254-71.091-90.184C175.94,40.3,123.74,23.829,63.94,34.6,42.533,38.459,21.95,45.935.99,51.758L140.18,407.977Z" transform="matrix(-0.891, 0.454, -0.454, -0.891, 1571.729, 817.683)" fill="none" stroke="#fff" stroke-width="1" opacity="0.81"/>
        </g>
      </g>
    </g>
    <g id="Grupo_1022183" data-name="Grupo 1022183" transform="translate(180 2840.185)">
      <path id="Rectangle_652" data-name="Rectangle 652" d="M1220.473,496.792H19.528C8.743,496.792,0,488.554,0,478.392V18.4C0,8.238,8.743,0,19.528,0H1220.473C1231.257,0,1240,8.238,1240,18.4V478.392C1240,488.554,1231.257,496.792,1220.473,496.792Z" fill="none" opacity="0.238"/>
      <g id="Grupo_1022169" data-name="Grupo 1022169" transform="translate(1038 534.199)" clip-path="url(#clip-path-3)">
        <g id="Grupo_1022168" data-name="Grupo 1022168" transform="translate(3 2)">
          <path id="Sustracción_24" data-name="Sustracción 24" d="M62.5,125a62.962,62.962,0,0,1-12.6-1.27,62.158,62.158,0,0,1-22.348-9.4,62.682,62.682,0,0,1-22.644-27.5A62.187,62.187,0,0,1,1.27,75.1a63.11,63.11,0,0,1,0-25.192,62.158,62.158,0,0,1,9.4-22.348,62.682,62.682,0,0,1,27.5-22.644A62.188,62.188,0,0,1,49.9,1.27a63.11,63.11,0,0,1,25.192,0,62.158,62.158,0,0,1,22.348,9.4,62.683,62.683,0,0,1,22.644,27.5A62.188,62.188,0,0,1,123.73,49.9a63.11,63.11,0,0,1,0,25.192,62.157,62.157,0,0,1-9.4,22.348,62.682,62.682,0,0,1-27.5,22.644A62.187,62.187,0,0,1,75.1,123.73,62.962,62.962,0,0,1,62.5,125Zm-.233-95.339a32.846,32.846,0,0,0-6.571.662A32.428,32.428,0,0,0,44.037,35.23,32.7,32.7,0,0,0,32.223,49.575a32.441,32.441,0,0,0-1.9,6.121,32.924,32.924,0,0,0,0,13.143A32.427,32.427,0,0,0,35.23,80.5,32.7,32.7,0,0,0,49.575,92.311a32.441,32.441,0,0,0,6.121,1.9,32.924,32.924,0,0,0,13.142,0A32.428,32.428,0,0,0,80.5,89.3,32.7,32.7,0,0,0,92.311,74.959a32.44,32.44,0,0,0,1.9-6.121,32.924,32.924,0,0,0,0-13.143A32.427,32.427,0,0,0,89.3,44.037,32.7,32.7,0,0,0,74.959,32.223a32.44,32.44,0,0,0-6.12-1.9A32.846,32.846,0,0,0,62.267,29.661Z" transform="translate(0)" fill="#cec7f1"/>
        </g>
      </g>
      <g id="Grupo_1022182" data-name="Grupo 1022182" transform="translate(40 1.449)" clip-path="url(#clip-path-4)">
        <g id="Grupo_1022181" data-name="Grupo 1022181" transform="translate(3 -68)">
          <path id="Sustracción_25" data-name="Sustracción 25" d="M62.5,0A62.962,62.962,0,0,0,49.9,1.27a62.158,62.158,0,0,0-22.348,9.4,62.682,62.682,0,0,0-22.644,27.5A62.187,62.187,0,0,0,1.27,49.9a63.11,63.11,0,0,0,0,25.192,62.158,62.158,0,0,0,9.4,22.348,62.682,62.682,0,0,0,27.5,22.644A62.188,62.188,0,0,0,49.9,123.73a63.11,63.11,0,0,0,25.192,0,62.158,62.158,0,0,0,22.348-9.4,62.682,62.682,0,0,0,22.644-27.5A62.188,62.188,0,0,0,123.73,75.1a63.11,63.11,0,0,0,0-25.192,62.157,62.157,0,0,0-9.4-22.348,62.682,62.682,0,0,0-27.5-22.644A62.187,62.187,0,0,0,75.1,1.27,62.962,62.962,0,0,0,62.5,0Zm-.233,95.339a32.846,32.846,0,0,1-6.571-.662A32.428,32.428,0,0,1,44.037,89.77,32.7,32.7,0,0,1,32.224,75.425a32.441,32.441,0,0,1-1.9-6.121,32.924,32.924,0,0,1,0-13.143A32.427,32.427,0,0,1,35.23,44.5,32.7,32.7,0,0,1,49.575,32.689a32.441,32.441,0,0,1,6.121-1.9,32.924,32.924,0,0,1,13.142,0A32.428,32.428,0,0,1,80.5,35.7,32.7,32.7,0,0,1,92.311,50.041a32.441,32.441,0,0,1,1.9,6.121,32.924,32.924,0,0,1,0,13.143A32.427,32.427,0,0,1,89.3,80.963,32.7,32.7,0,0,1,74.959,92.777a32.44,32.44,0,0,1-6.12,1.9A32.846,32.846,0,0,1,62.267,95.339Z" fill="#c1b9e8"/>
        </g>
      </g>
    </g>
    <g id="Enmascarar_grupo_952157" data-name="Enmascarar grupo 952157" transform="translate(0 -20.001)" clip-path="url(#clip-path-5)">
      <g id="Enmascarar_grupo_952152" data-name="Enmascarar grupo 952152" transform="translate(180 3233.08)" opacity="0.13" clip-path="url(#clip-path-6)">
        <g id="Grupo_1022241" data-name="Grupo 1022241" transform="translate(-173.226 -0.014)">
          <path id="Trazado_740872" data-name="Trazado 740872" d="M97.591,375.062,165.1,307.55a38.757,38.757,0,0,1,54.811,54.812L189.165,393.11a17.015,17.015,0,1,0,24.064,24.063l6.684-6.684a34.976,34.976,0,0,1,49.464,49.464l-27.406,27.4a7.563,7.563,0,1,0,10.7,10.7L319.51,431.21a30.25,30.25,0,1,1,42.779,42.779l-18.048,18.047A6.617,6.617,0,0,0,353.6,501.4l1.5-1.5a81.069,81.069,0,0,1,114.651,0l30.908,30.907H0S103.607,381.077,97.591,375.062" transform="translate(0 -296.198)" fill="#bdafff"/>
          <g id="Grupo_1022240" data-name="Grupo 1022240" transform="translate(33.428 57.095)">
            <path id="Trazado_740873" data-name="Trazado 740873" d="M370.209,480.782a6.42,6.42,0,1,1-6.419-6.419,6.419,6.419,0,0,1,6.419,6.419" transform="translate(-96.462 -384.72)" fill="#907af8"/>
            <line id="Línea_744" data-name="Línea 744" y1="106.458" x2="106.458" transform="translate(64.753)" fill="none" stroke="#fff" stroke-linecap="round" stroke-miterlimit="10" stroke-width="3"/>
            <line id="Línea_745" data-name="Línea 745" y1="95.42" x2="95.42" transform="translate(180.495 141.508)" fill="none" stroke="#fff" stroke-linecap="round" stroke-miterlimit="10" stroke-width="3"/>
            <line id="Línea_746" data-name="Línea 746" y1="95.42" x2="95.42" transform="translate(12.473 33.17)" fill="none" stroke="#fff" stroke-linecap="round" stroke-miterlimit="10" stroke-width="3"/>
            <path id="Trazado_740874" data-name="Trazado 740874" d="M219.652,466.2a16.847,16.847,0,1,1-16.846-16.846A16.846,16.846,0,0,1,219.652,466.2" transform="translate(-59.724 -376.556)" fill="#fff"/>
            <path id="Trazado_740875" data-name="Trazado 740875" d="M162.77,571.235c1.165-.389,45.189-44.891,62.029-61.943a9.146,9.146,0,1,1,12.97,12.9l-13.839,13.84a4.588,4.588,0,1,0,6.488,6.489l5.768-5.768a10.026,10.026,0,1,1,14.179,14.178,4.247,4.247,0,0,0,0,6.007l16.221,16.221H161.328" transform="translate(-48.876 -409.053)" fill="#907af8"/>
            <line id="Línea_747" data-name="Línea 747" y1="119.16" x2="119.16" transform="translate(0 133.114)" fill="none" stroke="#64b2ff" stroke-linecap="round" stroke-miterlimit="10" stroke-width="3"/>
          </g>
        </g>
      </g>
      <g id="Enmascarar_grupo_952154" data-name="Enmascarar grupo 952154" transform="translate(948.527 2860.371)" opacity="0.13" clip-path="url(#clip-path-7)">
        <g id="Grupo_1022376" data-name="Grupo 1022376" transform="translate(57.409 -112.61)">
          <path id="Trazado_741082" data-name="Trazado 741082" d="M509.712,493.152l-85.375,85.375a49.012,49.012,0,0,1-69.313-69.315l38.884-38.884A21.518,21.518,0,0,0,363.477,439.9l-8.453,8.453A44.231,44.231,0,0,1,292.472,385.8l34.657-34.656A9.564,9.564,0,1,0,313.6,337.617l-84.529,84.53a38.254,38.254,0,0,1-54.1-54.1L197.8,345.226a8.368,8.368,0,0,0-11.834-11.835l-1.892,1.893a102.519,102.519,0,0,1-144.987,0L0,296.2H633.125S502.1,485.544,509.712,493.152" transform="translate(0 -201.656)" fill="#bdafff"/>
          <g id="Grupo_1022375" data-name="Grupo 1022375" transform="translate(241.932)">
            <path id="Trazado_741083" data-name="Trazado 741083" d="M357.37,482.481a8.118,8.118,0,1,1,8.118,8.118,8.118,8.118,0,0,1-8.118-8.118" transform="translate(-354.628 -284.937)" fill="#907af8"/>
            <line id="Línea_748" data-name="Línea 748" x1="134.626" y2="134.627" transform="translate(132.409 184.398)" fill="none" stroke="#fff" stroke-linecap="round" stroke-miterlimit="10" stroke-width="3"/>
            <line id="Línea_749" data-name="Línea 749" x1="120.668" y2="120.668" transform="translate(0 19.406)" fill="none" stroke="#fff" stroke-linecap="round" stroke-miterlimit="10" stroke-width="3"/>
            <line id="Línea_750" data-name="Línea 750" x1="120.668" y2="120.668" transform="translate(212.48 156.41)" fill="none" stroke="#fff" stroke-linecap="round" stroke-miterlimit="10" stroke-width="3"/>
            <path id="Trazado_741084" data-name="Trazado 741084" d="M185.959,470.657a21.3,21.3,0,1,1,21.3,21.3,21.3,21.3,0,0,1-21.3-21.3" transform="translate(-39.282 -264.995)" fill="#fff"/>
            <path id="Trazado_741085" data-name="Trazado 741085" d="M292.612,509.006c-1.474.491-57.145,56.769-78.442,78.333a11.565,11.565,0,1,1-16.4-16.311l17.5-17.5a5.8,5.8,0,1,0-8.205-8.205l-7.294,7.294a12.678,12.678,0,0,1-17.93-17.93,5.37,5.37,0,0,0,0-7.6l-20.513-20.513H294.436" transform="translate(-87.72 -395.076)" fill="#907af8"/>
            <line id="Línea_751" data-name="Línea 751" x1="150.689" y2="150.689" transform="translate(198.232)" fill="none" stroke="#64b2ff" stroke-linecap="round" stroke-miterlimit="10" stroke-width="3"/>
          </g>
        </g>
      </g>
    </g>
    <g id="Grupo_1022996" data-name="Grupo 1022996" transform="translate(-21.911 1220.391)">
      <g id="Grupo_1003570" data-name="Grupo 1003570" transform="translate(526.91 1663)">
        <g transform="matrix(1, 0, 0, 1, -334, -47.76)" filter="url(#Unión_1)">
          <path id="Unión_1-2" data-name="Unión 1" d="M282,45h26.724L295.362,61ZM156.5,45a16.5,16.5,0,1,1,0-33H433.6a16.5,16.5,0,0,1,0,33Z" transform="translate(334 47.76)" fill="#221b6b"/>
        </g>
      </g>
      <path id="Trazado_772750" data-name="Trazado 772750" d="M-125.758-4.685h-2.1V0H-130.5V-12.8h4.755a5.375,5.375,0,0,1,3.5,1.011,3.488,3.488,0,0,1,1.23,2.856,3.937,3.937,0,0,1-.567,2.184A3.866,3.866,0,0,1-123.3-5.353l2.769,5.229V0h-2.83Zm-2.1-2.136h2.127a2.178,2.178,0,0,0,1.538-.505,1.806,1.806,0,0,0,.545-1.393,1.933,1.933,0,0,0-.514-1.424,2.137,2.137,0,0,0-1.578-.519h-2.118Zm13.061,7A4.668,4.668,0,0,1-118.2-1.107a4.561,4.561,0,0,1-1.314-3.419v-.246a5.745,5.745,0,0,1,.554-2.562,4.064,4.064,0,0,1,1.569-1.74,4.4,4.4,0,0,1,2.316-.611,3.947,3.947,0,0,1,3.072,1.23,5,5,0,0,1,1.121,3.489v1.037h-6.056a2.36,2.36,0,0,0,.743,1.494,2.245,2.245,0,0,0,1.569.563,2.742,2.742,0,0,0,2.294-1.063l1.248,1.4a3.813,3.813,0,0,1-1.547,1.261A5.075,5.075,0,0,1-114.8.176Zm-.29-7.813a1.587,1.587,0,0,0-1.226.512,2.651,2.651,0,0,0-.6,1.466h3.533v-.2a1.891,1.891,0,0,0-.457-1.311A1.638,1.638,0,0,0-115.088-7.638Zm14.2,2.971a5.7,5.7,0,0,1-1,3.52A3.2,3.2,0,0,1-104.577.176a2.963,2.963,0,0,1-2.329-1V3.656h-2.54V-9.51h2.355l.088.932a2.985,2.985,0,0,1,2.408-1.107,3.22,3.22,0,0,1,2.733,1.3,5.858,5.858,0,0,1,.976,3.586Zm-2.54-.185A3.743,3.743,0,0,0-103.9-6.9a1.532,1.532,0,0,0-1.367-.721,1.663,1.663,0,0,0-1.644.914v3.894a1.692,1.692,0,0,0,1.661.94Q-103.425-1.872-103.425-4.852Zm9.457-2.276a6.9,6.9,0,0,0-.914-.07,1.86,1.86,0,0,0-1.89.976V0h-2.54V-9.51h2.4l.07,1.134a2.354,2.354,0,0,1,2.118-1.31,2.662,2.662,0,0,1,.791.114Zm5.432,7.3a4.668,4.668,0,0,1-3.406-1.283,4.561,4.561,0,0,1-1.314-3.419v-.246A5.745,5.745,0,0,1-92.7-7.334a4.064,4.064,0,0,1,1.569-1.74,4.4,4.4,0,0,1,2.316-.611,3.947,3.947,0,0,1,3.072,1.23,5,5,0,0,1,1.121,3.489v1.037h-6.056a2.36,2.36,0,0,0,.743,1.494,2.245,2.245,0,0,0,1.569.563,2.742,2.742,0,0,0,2.294-1.063l1.248,1.4A3.813,3.813,0,0,1-86.375-.277,5.075,5.075,0,0,1-88.537.176Zm-.29-7.813a1.587,1.587,0,0,0-1.226.512,2.651,2.651,0,0,0-.6,1.466h3.533v-.2a1.891,1.891,0,0,0-.457-1.311A1.638,1.638,0,0,0-88.827-7.638Zm10.793,5.01a.818.818,0,0,0-.461-.734,5.241,5.241,0,0,0-1.481-.479q-3.393-.712-3.393-2.883a2.613,2.613,0,0,1,1.05-2.114,4.237,4.237,0,0,1,2.747-.848,4.56,4.56,0,0,1,2.9.853A2.687,2.687,0,0,1-75.59-6.618h-2.54a1.229,1.229,0,0,0-.352-.9,1.488,1.488,0,0,0-1.1-.356,1.52,1.52,0,0,0-.993.29.916.916,0,0,0-.352.738.783.783,0,0,0,.4.681,4.114,4.114,0,0,0,1.349.448,11.019,11.019,0,0,1,1.6.426,2.628,2.628,0,0,1,2.013,2.558,2.481,2.481,0,0,1-1.116,2.1,4.815,4.815,0,0,1-2.883.8A5.029,5.029,0,0,1-81.686-.25,3.561,3.561,0,0,1-83.14-1.419a2.716,2.716,0,0,1-.527-1.6h2.408a1.326,1.326,0,0,0,.5,1.037,1.987,1.987,0,0,0,1.248.36,1.839,1.839,0,0,0,1.1-.277A.861.861,0,0,0-78.034-2.628Zm8.481,2.8a4.668,4.668,0,0,1-3.406-1.283,4.561,4.561,0,0,1-1.314-3.419v-.246a5.745,5.745,0,0,1,.554-2.562,4.064,4.064,0,0,1,1.569-1.74,4.4,4.4,0,0,1,2.316-.611,3.947,3.947,0,0,1,3.072,1.23,5,5,0,0,1,1.121,3.489v1.037H-71.7a2.36,2.36,0,0,0,.743,1.494,2.245,2.245,0,0,0,1.569.563,2.742,2.742,0,0,0,2.294-1.063l1.248,1.4A3.813,3.813,0,0,1-67.39-.277,5.075,5.075,0,0,1-69.552.176Zm-.29-7.813a1.587,1.587,0,0,0-1.226.512,2.651,2.651,0,0,0-.6,1.466h3.533v-.2a1.891,1.891,0,0,0-.457-1.311A1.638,1.638,0,0,0-69.842-7.638Zm7.98-1.872.079,1.1a3.32,3.32,0,0,1,2.733-1.274A2.759,2.759,0,0,1-56.8-8.8a4.142,4.142,0,0,1,.756,2.654V0h-2.54V-6.082a1.648,1.648,0,0,0-.352-1.173A1.574,1.574,0,0,0-60.1-7.62a1.747,1.747,0,0,0-1.608.914V0h-2.54V-9.51Zm10.784-2.338V-9.51h1.626v1.863h-1.626V-2.9a1.133,1.133,0,0,0,.2.756,1.015,1.015,0,0,0,.773.229,4.051,4.051,0,0,0,.747-.062V-.053a5.229,5.229,0,0,1-1.538.229,2.425,2.425,0,0,1-2.725-2.7V-7.646h-1.389V-9.51h1.389v-2.338ZM-42.526,0a2.821,2.821,0,0,1-.255-.853A3.073,3.073,0,0,1-45.18.176,3.376,3.376,0,0,1-47.5-.633a2.6,2.6,0,0,1-.918-2.039,2.687,2.687,0,0,1,1.121-2.32,5.529,5.529,0,0,1,3.239-.817h1.169v-.545a1.567,1.567,0,0,0-.338-1.055,1.331,1.331,0,0,0-1.068-.4A1.513,1.513,0,0,0-45.3-7.5a1.045,1.045,0,0,0-.365.844H-48.2a2.551,2.551,0,0,1,.51-1.529,3.37,3.37,0,0,1,1.441-1.1,5.253,5.253,0,0,1,2.092-.4A4.15,4.15,0,0,1-41.37-8.8a3.09,3.09,0,0,1,1.033,2.483V-2.2a4.546,4.546,0,0,0,.378,2.048V0Zm-2.1-1.767a2.188,2.188,0,0,0,1.037-.25,1.645,1.645,0,0,0,.7-.672V-4.324h-.949q-1.907,0-2.03,1.318l-.009.149a1.017,1.017,0,0,0,.334.782A1.3,1.3,0,0,0-44.626-1.767Zm10.2-.105a1.666,1.666,0,0,0,1.143-.387,1.355,1.355,0,0,0,.457-1.028h2.382a3.258,3.258,0,0,1-.527,1.771A3.48,3.48,0,0,1-32.4-.268a4.442,4.442,0,0,1-1.991.444,4.129,4.129,0,0,1-3.217-1.3A5.13,5.13,0,0,1-38.782-4.7v-.167a5.071,5.071,0,0,1,1.169-3.507A4.08,4.08,0,0,1-34.4-9.686,4,4,0,0,1-31.544-8.67a3.594,3.594,0,0,1,1.094,2.7h-2.382a1.745,1.745,0,0,0-.457-1.206,1.524,1.524,0,0,0-1.16-.464,1.53,1.53,0,0,0-1.34.647,3.749,3.749,0,0,0-.453,2.1v.264a3.8,3.8,0,0,0,.448,2.113A1.549,1.549,0,0,0-34.431-1.872ZM-26.319,0h-2.549V-9.51h2.549Zm-2.7-11.971a1.251,1.251,0,0,1,.382-.94,1.436,1.436,0,0,1,1.042-.369,1.44,1.44,0,0,1,1.037.369,1.244,1.244,0,0,1,.387.94,1.247,1.247,0,0,1-.391.949,1.443,1.443,0,0,1-1.033.369,1.443,1.443,0,0,1-1.033-.369A1.247,1.247,0,0,1-29.017-11.971Zm4.395,7.128a5.64,5.64,0,0,1,.545-2.522,3.989,3.989,0,0,1,1.569-1.714,4.577,4.577,0,0,1,2.377-.606,4.33,4.33,0,0,1,3.142,1.178,4.727,4.727,0,0,1,1.358,3.2l.018.65a4.97,4.97,0,0,1-1.222,3.511A4.247,4.247,0,0,1-20.114.176,4.268,4.268,0,0,1-23.4-1.143a5.058,5.058,0,0,1-1.226-3.586Zm2.54.18a3.555,3.555,0,0,0,.51,2.073,1.682,1.682,0,0,0,1.459.717,1.686,1.686,0,0,0,1.441-.709,3.89,3.89,0,0,0,.519-2.267,3.519,3.519,0,0,0-.519-2.06,1.686,1.686,0,0,0-1.459-.731,1.658,1.658,0,0,0-1.441.726A3.955,3.955,0,0,0-22.083-4.662ZM-19.63-13.5h2.769L-19.3-10.775h-2.065Zm7.919,3.99.079,1.1A3.32,3.32,0,0,1-8.9-9.686a2.759,2.759,0,0,1,2.25.888,4.142,4.142,0,0,1,.756,2.654V0h-2.54V-6.082a1.648,1.648,0,0,0-.352-1.173A1.574,1.574,0,0,0-9.954-7.62a1.747,1.747,0,0,0-1.608.914V0H-14.1V-9.51ZM.119-4.825a5.731,5.731,0,0,1,1-3.542A3.237,3.237,0,0,1,3.845-9.686,2.913,2.913,0,0,1,6.139-8.648V-13.5H8.688V0H6.394L6.271-1.011A2.989,2.989,0,0,1,3.828.176,3.228,3.228,0,0,1,1.134-1.147,5.916,5.916,0,0,1,.119-4.825Zm2.54.189a3.754,3.754,0,0,0,.466,2.051,1.517,1.517,0,0,0,1.354.713,1.7,1.7,0,0,0,1.661-.995V-6.625A1.675,1.675,0,0,0,4.5-7.62Q2.659-7.62,2.659-4.636ZM15.034.176a4.668,4.668,0,0,1-3.406-1.283,4.561,4.561,0,0,1-1.314-3.419v-.246a5.745,5.745,0,0,1,.554-2.562,4.064,4.064,0,0,1,1.569-1.74,4.4,4.4,0,0,1,2.316-.611,3.947,3.947,0,0,1,3.072,1.23,5,5,0,0,1,1.121,3.489v1.037H12.889a2.36,2.36,0,0,0,.743,1.494,2.245,2.245,0,0,0,1.569.563,2.742,2.742,0,0,0,2.294-1.063l1.248,1.4A3.813,3.813,0,0,1,17.2-.277,5.075,5.075,0,0,1,15.034.176Zm-.29-7.813a1.587,1.587,0,0,0-1.226.512,2.651,2.651,0,0,0-.6,1.466h3.533v-.2a1.891,1.891,0,0,0-.457-1.311A1.638,1.638,0,0,0,14.744-7.638ZM27.549,0H25V-13.5h2.549Zm7.6,0A2.821,2.821,0,0,1,34.9-.853,3.073,3.073,0,0,1,32.5.176a3.376,3.376,0,0,1-2.316-.809,2.6,2.6,0,0,1-.918-2.039,2.687,2.687,0,0,1,1.121-2.32,5.529,5.529,0,0,1,3.239-.817h1.169v-.545a1.567,1.567,0,0,0-.338-1.055,1.331,1.331,0,0,0-1.068-.4,1.513,1.513,0,0,0-1.006.308,1.045,1.045,0,0,0-.365.844h-2.54a2.551,2.551,0,0,1,.51-1.529,3.37,3.37,0,0,1,1.441-1.1,5.253,5.253,0,0,1,2.092-.4,4.15,4.15,0,0,1,2.791.883A3.09,3.09,0,0,1,37.34-6.319V-2.2a4.546,4.546,0,0,0,.378,2.048V0Zm-2.1-1.767a2.188,2.188,0,0,0,1.037-.25,1.645,1.645,0,0,0,.7-.672V-4.324h-.949q-1.907,0-2.03,1.318l-.009.149a1.017,1.017,0,0,0,.334.782A1.3,1.3,0,0,0,33.051-1.767Zm11.391-.861a.818.818,0,0,0-.461-.734A5.241,5.241,0,0,0,42.5-3.841q-3.393-.712-3.393-2.883a2.613,2.613,0,0,1,1.05-2.114A4.237,4.237,0,0,1,42.9-9.686a4.56,4.56,0,0,1,2.9.853,2.687,2.687,0,0,1,1.085,2.215h-2.54a1.229,1.229,0,0,0-.352-.9,1.488,1.488,0,0,0-1.1-.356,1.52,1.52,0,0,0-.993.29.916.916,0,0,0-.352.738.783.783,0,0,0,.4.681,4.114,4.114,0,0,0,1.349.448,11.019,11.019,0,0,1,1.6.426,2.628,2.628,0,0,1,2.013,2.558A2.481,2.481,0,0,1,45.8-.628a4.815,4.815,0,0,1-2.883.8A5.029,5.029,0,0,1,40.79-.25a3.561,3.561,0,0,1-1.455-1.169,2.716,2.716,0,0,1-.527-1.6h2.408a1.326,1.326,0,0,0,.5,1.037,1.987,1.987,0,0,0,1.248.36,1.839,1.839,0,0,0,1.1-.277A.861.861,0,0,0,44.442-2.628ZM57.406.176A4.668,4.668,0,0,1,54-1.107a4.561,4.561,0,0,1-1.314-3.419v-.246a5.745,5.745,0,0,1,.554-2.562,4.064,4.064,0,0,1,1.569-1.74,4.4,4.4,0,0,1,2.316-.611A3.947,3.947,0,0,1,60.2-8.455a5,5,0,0,1,1.121,3.489v1.037H55.261A2.36,2.36,0,0,0,56-2.435a2.245,2.245,0,0,0,1.569.563,2.742,2.742,0,0,0,2.294-1.063l1.248,1.4A3.813,3.813,0,0,1,59.568-.277,5.075,5.075,0,0,1,57.406.176Zm-.29-7.813a1.587,1.587,0,0,0-1.226.512,2.651,2.651,0,0,0-.6,1.466h3.533v-.2a1.891,1.891,0,0,0-.457-1.311A1.638,1.638,0,0,0,57.116-7.638ZM65.1-9.51l.079,1.1a3.32,3.32,0,0,1,2.733-1.274,2.759,2.759,0,0,1,2.25.888,4.142,4.142,0,0,1,.756,2.654V0h-2.54V-6.082a1.648,1.648,0,0,0-.352-1.173,1.574,1.574,0,0,0-1.169-.365,1.747,1.747,0,0,0-1.608.914V0h-2.54V-9.51ZM75.88-11.848V-9.51h1.626v1.863H75.88V-2.9a1.133,1.133,0,0,0,.2.756,1.015,1.015,0,0,0,.773.229,4.051,4.051,0,0,0,.747-.062V-.053a5.229,5.229,0,0,1-1.538.229,2.425,2.425,0,0,1-2.725-2.7V-7.646H71.952V-9.51H73.34v-2.338ZM81.6,0H79.053V-9.51H81.6ZM78.9-11.971a1.251,1.251,0,0,1,.382-.94,1.436,1.436,0,0,1,1.042-.369,1.44,1.44,0,0,1,1.037.369,1.244,1.244,0,0,1,.387.94,1.247,1.247,0,0,1-.391.949,1.443,1.443,0,0,1-1.033.369,1.443,1.443,0,0,1-1.033-.369A1.247,1.247,0,0,1,78.9-11.971ZM83.3-4.825a5.731,5.731,0,0,1,1-3.542,3.237,3.237,0,0,1,2.729-1.318,2.913,2.913,0,0,1,2.294,1.037V-13.5h2.549V0H89.574l-.123-1.011A2.989,2.989,0,0,1,87.007.176a3.228,3.228,0,0,1-2.694-1.323A5.916,5.916,0,0,1,83.3-4.825Zm2.54.189A3.754,3.754,0,0,0,86.3-2.585a1.517,1.517,0,0,0,1.354.713,1.7,1.7,0,0,0,1.661-.995V-6.625a1.675,1.675,0,0,0-1.644-.995Q85.838-7.62,85.838-4.636ZM99.347,0a2.821,2.821,0,0,1-.255-.853,3.073,3.073,0,0,1-2.4,1.028,3.376,3.376,0,0,1-2.316-.809,2.6,2.6,0,0,1-.918-2.039,2.687,2.687,0,0,1,1.121-2.32,5.529,5.529,0,0,1,3.239-.817h1.169v-.545a1.567,1.567,0,0,0-.338-1.055,1.331,1.331,0,0,0-1.068-.4,1.513,1.513,0,0,0-1.006.308,1.045,1.045,0,0,0-.365.844h-2.54a2.551,2.551,0,0,1,.51-1.529,3.37,3.37,0,0,1,1.441-1.1,5.253,5.253,0,0,1,2.092-.4A4.15,4.15,0,0,1,100.5-8.8a3.09,3.09,0,0,1,1.033,2.483V-2.2a4.546,4.546,0,0,0,.378,2.048V0Zm-2.1-1.767a2.188,2.188,0,0,0,1.037-.25,1.645,1.645,0,0,0,.7-.672V-4.324h-.949q-1.907,0-2.03,1.318L96-2.856a1.017,1.017,0,0,0,.334.782A1.3,1.3,0,0,0,97.247-1.767Zm5.845-3.059a5.731,5.731,0,0,1,1-3.542,3.237,3.237,0,0,1,2.729-1.318,2.913,2.913,0,0,1,2.294,1.037V-13.5h2.549V0h-2.294l-.123-1.011A2.989,2.989,0,0,1,106.8.176a3.228,3.228,0,0,1-2.694-1.323A5.916,5.916,0,0,1,103.091-4.825Zm2.54.189a3.754,3.754,0,0,0,.466,2.051,1.517,1.517,0,0,0,1.354.713,1.7,1.7,0,0,0,1.661-.995V-6.625a1.675,1.675,0,0,0-1.644-.995Q105.631-7.62,105.631-4.636ZM118.006.176A4.668,4.668,0,0,1,114.6-1.107a4.561,4.561,0,0,1-1.314-3.419v-.246a5.745,5.745,0,0,1,.554-2.562,4.064,4.064,0,0,1,1.569-1.74,4.4,4.4,0,0,1,2.316-.611,3.947,3.947,0,0,1,3.072,1.23,5,5,0,0,1,1.121,3.489v1.037h-6.056a2.36,2.36,0,0,0,.743,1.494,2.245,2.245,0,0,0,1.569.563,2.742,2.742,0,0,0,2.294-1.063l1.248,1.4a3.813,3.813,0,0,1-1.547,1.261A5.075,5.075,0,0,1,118.006.176Zm-.29-7.813a1.587,1.587,0,0,0-1.226.512,2.651,2.651,0,0,0-.6,1.466h3.533v-.2a1.891,1.891,0,0,0-.457-1.311A1.638,1.638,0,0,0,117.716-7.638Zm10.793,5.01a.818.818,0,0,0-.461-.734,5.241,5.241,0,0,0-1.481-.479q-3.393-.712-3.393-2.883a2.613,2.613,0,0,1,1.05-2.114,4.237,4.237,0,0,1,2.747-.848,4.56,4.56,0,0,1,2.9.853,2.687,2.687,0,0,1,1.085,2.215h-2.54a1.229,1.229,0,0,0-.352-.9,1.488,1.488,0,0,0-1.1-.356,1.52,1.52,0,0,0-.993.29.916.916,0,0,0-.352.738.783.783,0,0,0,.4.681,4.114,4.114,0,0,0,1.349.448,11.019,11.019,0,0,1,1.6.426,2.628,2.628,0,0,1,2.013,2.558,2.481,2.481,0,0,1-1.116,2.1,4.815,4.815,0,0,1-2.883.8,5.029,5.029,0,0,1-2.123-.426A3.561,3.561,0,0,1,123.4-1.419a2.716,2.716,0,0,1-.527-1.6h2.408a1.326,1.326,0,0,0,.5,1.037,1.987,1.987,0,0,0,1.248.36,1.839,1.839,0,0,0,1.1-.277A.861.861,0,0,0,128.509-2.628Z" transform="translate(821.911 1698)" fill="#fff"/>
    </g>
    <g id="Grupo_1045381" data-name="Grupo 1045381">
      <g id="Grupo_1045355" data-name="Grupo 1045355" transform="translate(-24.204 945.408)">
        <g id="Grupo_1021856" data-name="Grupo 1021856" transform="translate(976.756 2006.721)">
          <g transform="matrix(1, 0, 0, 1, -781.55, -116.5)" filter="url(#Trazado_740773)">
            <path id="Trazado_740773-2" data-name="Trazado 740773" d="M45.575,0A45.575,45.575,0,1,1,0,45.575,45.575,45.575,0,0,1,45.575,0Z" transform="translate(781.4 116.76)" fill="#0f094a"/>
          </g>
          <g transform="matrix(1, 0, 0, 1, -781.55, -116.5)" filter="url(#Trazado_740774)">
            <path id="Trazado_740774-2" data-name="Trazado 740774" d="M40.075,0A40.075,40.075,0,1,1,0,40.075,40.075,40.075,0,0,1,40.075,0Z" transform="translate(787.4 122.76)" fill="#5147ae"/>
          </g>
        </g>
        <path id="Trazado_772748" data-name="Trazado 772748" d="M13.41,11.3a4.107,4.107,0,0,1-1.344,2.84,4.581,4.581,0,0,1-3.117,1.02,4.436,4.436,0,0,1-2.395-.645,4.231,4.231,0,0,1-1.6-1.832,6.611,6.611,0,0,1-.586-2.758V8.859a6.659,6.659,0,0,1,.57-2.836A4.3,4.3,0,0,1,6.578,4.133a4.566,4.566,0,0,1,2.465-.664,4.4,4.4,0,0,1,3.031,1.02A4.26,4.26,0,0,1,13.41,7.375H11.441a2.81,2.81,0,0,0-.715-1.77,2.363,2.363,0,0,0-1.684-.543A2.308,2.308,0,0,0,7.063,6a4.709,4.709,0,0,0-.707,2.764V9.778a5,5,0,0,0,.66,2.815,2.191,2.191,0,0,0,1.934.97,2.555,2.555,0,0,0,1.75-.523,2.729,2.729,0,0,0,.742-1.742Zm1.227-.6a4.984,4.984,0,0,1,.492-2.238,3.6,3.6,0,0,1,1.383-1.531,3.9,3.9,0,0,1,2.047-.535,3.692,3.692,0,0,1,2.777,1.1,4.333,4.333,0,0,1,1.152,2.922l.008.445a5.029,5.029,0,0,1-.48,2.234,3.551,3.551,0,0,1-1.375,1.523,3.925,3.925,0,0,1-2.066.539,3.667,3.667,0,0,1-2.863-1.191,4.563,4.563,0,0,1-1.074-3.176Zm1.9.164a3.406,3.406,0,0,0,.539,2.043,1.752,1.752,0,0,0,1.5.738,1.733,1.733,0,0,0,1.5-.75,3.762,3.762,0,0,0,.535-2.2,3.362,3.362,0,0,0-.551-2.031,1.856,1.856,0,0,0-2.973-.012A3.691,3.691,0,0,0,16.535,10.859ZM19.082,3h2.164L19.082,5.367l-1.523,0Zm4.664,7.711a5.026,5.026,0,0,1,.906-3.137,2.9,2.9,0,0,1,2.43-1.184,2.759,2.759,0,0,1,2.172.938V3h1.9V15H29.434l-.094-.875a2.8,2.8,0,0,1-2.273,1.031,2.887,2.887,0,0,1-2.4-1.2A5.21,5.21,0,0,1,23.746,10.711Zm1.9.164a3.519,3.519,0,0,0,.5,2.012,1.61,1.61,0,0,0,1.41.723,1.793,1.793,0,0,0,1.7-1.039V8.961a1.766,1.766,0,0,0-1.687-1.016,1.622,1.622,0,0,0-1.422.73A3.918,3.918,0,0,0,25.645,10.875ZM35.152,15h-1.9V6.547h1.9ZM33.137,4.352a1.008,1.008,0,0,1,.277-.727,1.048,1.048,0,0,1,.793-.289,1.061,1.061,0,0,1,.8.289,1,1,0,0,1,.281.727A.977.977,0,0,1,35,5.066a1.069,1.069,0,0,1-.8.285,1.056,1.056,0,0,1-.793-.285A.984.984,0,0,1,33.137,4.352Zm3.75,6.359a4.944,4.944,0,0,1,.926-3.145A2.971,2.971,0,0,1,40.27,6.391,2.784,2.784,0,0,1,42.543,7.4l.086-.852H44.34v8.2A3.406,3.406,0,0,1,43.3,17.367a3.943,3.943,0,0,1-2.793.961,4.5,4.5,0,0,1-1.816-.387,3.228,3.228,0,0,1-1.348-1.012l.9-1.141A2.713,2.713,0,0,0,40.4,16.828a2.1,2.1,0,0,0,1.492-.512,1.961,1.961,0,0,0,.547-1.5v-.57a2.8,2.8,0,0,1-2.187.914,2.964,2.964,0,0,1-2.426-1.18A5.1,5.1,0,0,1,36.887,10.711Zm1.891.164a3.4,3.4,0,0,0,.52,2,1.671,1.671,0,0,0,1.441.73,1.827,1.827,0,0,0,1.7-.984V8.906a1.8,1.8,0,0,0-1.687-.961,1.677,1.677,0,0,0-1.457.742A3.811,3.811,0,0,0,38.777,10.875Zm7.156-.18a4.984,4.984,0,0,1,.492-2.238,3.6,3.6,0,0,1,1.383-1.531,3.9,3.9,0,0,1,2.047-.535,3.692,3.692,0,0,1,2.777,1.1,4.333,4.333,0,0,1,1.152,2.922l.008.445a5.029,5.029,0,0,1-.48,2.234,3.551,3.551,0,0,1-1.375,1.523,3.925,3.925,0,0,1-2.066.539,3.667,3.667,0,0,1-2.863-1.191,4.563,4.563,0,0,1-1.074-3.176Zm1.9.164a3.406,3.406,0,0,0,.539,2.043,1.752,1.752,0,0,0,1.5.738,1.733,1.733,0,0,0,1.5-.75,3.762,3.762,0,0,0,.535-2.2,3.362,3.362,0,0,0-.551-2.031,1.856,1.856,0,0,0-2.973-.012A3.691,3.691,0,0,0,47.832,10.859Z" transform="translate(994 2056.575)" fill="#f6f6f6"/>
      </g>
      <g id="Grupo_1045356" data-name="Grupo 1045356" transform="translate(-11 982.401)">
        <g id="Grupo_1021857" data-name="Grupo 1021857" transform="translate(1182 2160)">
          <g id="Grupo_1021924" data-name="Grupo 1021924" transform="translate(0 0)">
            <g transform="matrix(1, 0, 0, 1, -1000, -306.77)" filter="url(#Trazado_740237)">
              <path id="Trazado_740237-2" data-name="Trazado 740237" d="M60.9,0c33.634,0,60.9,19.3,60.9,43.1s-27.266,43.1-60.9,43.1S0,66.9,0,43.1,27.266,0,60.9,0Z" transform="translate(1000 306.77)" fill="#0e0845"/>
            </g>
            <g transform="matrix(1, 0, 0, 1, -1000, -306.77)" filter="url(#Elipse_7745)">
              <ellipse id="Elipse_7745-3" data-name="Elipse 7745" cx="54.693" cy="38" rx="54.693" ry="38" transform="translate(1005.96 311.87)" fill="#5147ae"/>
            </g>
          </g>
        </g>
        <path id="Trazado_772749" data-name="Trazado 772749" d="M2.727,15V3.625H6.086A5.269,5.269,0,0,1,8.762,4.3,4.581,4.581,0,0,1,10.57,6.2a6.051,6.051,0,0,1,.641,2.828V9.6a6.026,6.026,0,0,1-.645,2.844A4.526,4.526,0,0,1,8.73,14.336,5.513,5.513,0,0,1,6,15ZM4.7,5.219v8.2H5.992a2.968,2.968,0,0,0,2.387-.973,4.237,4.237,0,0,0,.848-2.793V9.023a4.347,4.347,0,0,0-.8-2.828,2.853,2.853,0,0,0-2.336-.977Zm12.016,9.938a3.928,3.928,0,0,1-2.926-1.137,4.124,4.124,0,0,1-1.121-3.027v-.234A5.072,5.072,0,0,1,13.16,8.5a3.716,3.716,0,0,1,1.371-1.551A3.625,3.625,0,0,1,16.5,6.391a3.318,3.318,0,0,1,2.668,1.1,4.658,4.658,0,0,1,.941,3.117v.766H14.586a2.539,2.539,0,0,0,.7,1.656,2.1,2.1,0,0,0,1.543.609,2.571,2.571,0,0,0,2.125-1.055l1.023.977a3.418,3.418,0,0,1-1.355,1.176A4.244,4.244,0,0,1,16.719,15.156Zm-.227-7.242a1.6,1.6,0,0,0-1.262.547,2.835,2.835,0,0,0-.613,1.523h3.617V9.844A2.307,2.307,0,0,0,17.727,8.4,1.586,1.586,0,0,0,16.492,7.914ZM26.32,12.7a.861.861,0,0,0-.418-.773,4.445,4.445,0,0,0-1.387-.469,7.129,7.129,0,0,1-1.617-.516,2.158,2.158,0,0,1-1.422-1.992A2.25,2.25,0,0,1,22.4,7.125a3.644,3.644,0,0,1,2.344-.734,3.792,3.792,0,0,1,2.449.75,2.38,2.38,0,0,1,.934,1.945h-1.9a1.17,1.17,0,0,0-.406-.91,1.557,1.557,0,0,0-1.078-.363,1.682,1.682,0,0,0-1.02.289.911.911,0,0,0-.395.773.769.769,0,0,0,.367.68,5.049,5.049,0,0,0,1.484.488,7.027,7.027,0,0,1,1.754.586,2.484,2.484,0,0,1,.945.816,2.082,2.082,0,0,1,.309,1.156,2.2,2.2,0,0,1-.945,1.848,4.031,4.031,0,0,1-2.477.707,4.371,4.371,0,0,1-1.852-.375,3.047,3.047,0,0,1-1.266-1.031,2.441,2.441,0,0,1-.453-1.414h1.844a1.338,1.338,0,0,0,.508,1.035,1.973,1.973,0,0,0,1.242.363,1.92,1.92,0,0,0,1.141-.285A.883.883,0,0,0,26.32,12.7Zm6.992.938a1.716,1.716,0,0,0,1.18-.414,1.415,1.415,0,0,0,.5-1.023h1.789a2.789,2.789,0,0,1-.492,1.473,3.228,3.228,0,0,1-1.25,1.082,3.725,3.725,0,0,1-1.7.4,3.6,3.6,0,0,1-2.812-1.148,4.555,4.555,0,0,1-1.039-3.172v-.2a4.479,4.479,0,0,1,1.031-3.09,3.571,3.571,0,0,1,2.813-1.16,3.473,3.473,0,0,1,2.457.879,3.148,3.148,0,0,1,1,2.309H34.992a1.738,1.738,0,0,0-.5-1.2,1.6,1.6,0,0,0-1.184-.469,1.671,1.671,0,0,0-1.422.668,3.408,3.408,0,0,0-.508,2.027v.3a3.465,3.465,0,0,0,.5,2.051A1.669,1.669,0,0,0,33.313,13.641Zm9.328-5.359a4.7,4.7,0,0,0-.773-.062,1.741,1.741,0,0,0-1.758,1V15h-1.9V6.547h1.813l.047.945a2.139,2.139,0,0,1,1.906-1.1,1.777,1.777,0,0,1,.672.109ZM45.859,15h-1.9V6.547h1.9ZM43.844,4.352a1.008,1.008,0,0,1,.277-.727,1.048,1.048,0,0,1,.793-.289,1.061,1.061,0,0,1,.8.289,1,1,0,0,1,.281.727.977.977,0,0,1-.281.715,1.069,1.069,0,0,1-.8.285,1.056,1.056,0,0,1-.793-.285A.984.984,0,0,1,43.844,4.352Zm11.484,6.508a5.033,5.033,0,0,1-.891,3.129,3.094,3.094,0,0,1-4.617.254V18.25h-1.9V6.547h1.75l.078.859a2.788,2.788,0,0,1,2.273-1.016,2.881,2.881,0,0,1,2.426,1.152,5.167,5.167,0,0,1,.879,3.2ZM53.438,10.7a3.526,3.526,0,0,0-.5-2.008,1.638,1.638,0,0,0-1.441-.742,1.747,1.747,0,0,0-1.672.961v3.75a1.763,1.763,0,0,0,1.688.984,1.636,1.636,0,0,0,1.418-.73A3.881,3.881,0,0,0,53.438,10.7Zm6.969,2.945a1.716,1.716,0,0,0,1.18-.414,1.415,1.415,0,0,0,.5-1.023h1.789a2.789,2.789,0,0,1-.492,1.473,3.228,3.228,0,0,1-1.25,1.082,3.725,3.725,0,0,1-1.7.4,3.6,3.6,0,0,1-2.812-1.148,4.555,4.555,0,0,1-1.039-3.172v-.2a4.479,4.479,0,0,1,1.031-3.09,3.571,3.571,0,0,1,2.813-1.16,3.473,3.473,0,0,1,2.457.879,3.148,3.148,0,0,1,1,2.309H62.086a1.738,1.738,0,0,0-.5-1.2,1.6,1.6,0,0,0-1.184-.469,1.671,1.671,0,0,0-1.422.668,3.408,3.408,0,0,0-.508,2.027v.3a3.465,3.465,0,0,0,.5,2.051A1.669,1.669,0,0,0,60.406,13.641ZM67.328,15h-1.9V6.547h1.9ZM65.313,4.352a1.008,1.008,0,0,1,.277-.727,1.048,1.048,0,0,1,.793-.289,1.061,1.061,0,0,1,.8.289,1,1,0,0,1,.281.727.977.977,0,0,1-.281.715,1.069,1.069,0,0,1-.8.285,1.056,1.056,0,0,1-.793-.285A.984.984,0,0,1,65.313,4.352ZM69.039,10.7a4.984,4.984,0,0,1,.492-2.238,3.6,3.6,0,0,1,1.383-1.531,3.9,3.9,0,0,1,2.047-.535,3.692,3.692,0,0,1,2.777,1.1,4.333,4.333,0,0,1,1.152,2.922l.008.445a5.029,5.029,0,0,1-.48,2.234,3.551,3.551,0,0,1-1.375,1.523,3.925,3.925,0,0,1-2.066.539,3.667,3.667,0,0,1-2.863-1.191,4.563,4.563,0,0,1-1.074-3.176Zm1.9.164a3.406,3.406,0,0,0,.539,2.043,1.752,1.752,0,0,0,1.5.738,1.733,1.733,0,0,0,1.5-.75,3.762,3.762,0,0,0,.535-2.2,3.362,3.362,0,0,0-.551-2.031,1.856,1.856,0,0,0-2.973-.012A3.691,3.691,0,0,0,70.938,10.859ZM73.484,3h2.164L73.484,5.367l-1.523,0Zm6.781,3.547.055.977a3.039,3.039,0,0,1,2.461-1.133q2.641,0,2.688,3.023V15h-1.9V9.523a1.741,1.741,0,0,0-.348-1.191,1.462,1.462,0,0,0-1.137-.387,1.829,1.829,0,0,0-1.711,1.039V15h-1.9V6.547Z" transform="translate(1199 2193)" fill="#fff"/>
      </g>
      <g id="Grupo_1045357" data-name="Grupo 1045357" transform="translate(-16.584 961.391)">
        <g id="Grupo_1021916" data-name="Grupo 1021916" transform="translate(513 1991)">
          <g transform="matrix(1, 0, 0, 1, -325.42, -116.76)" filter="url(#Trazado_740230)">
            <path id="Trazado_740230-4" data-name="Trazado 740230" d="M45.575,0A45.575,45.575,0,1,1,0,45.575,45.575,45.575,0,0,1,45.575,0Z" transform="translate(325.42 116.76)" fill="#221b6b"/>
          </g>
          <g transform="matrix(1, 0, 0, 1, -325.42, -116.76)" filter="url(#Trazado_741094)">
            <path id="Trazado_741094-2" data-name="Trazado 741094" d="M40.083,0A39.978,39.978,0,1,1,0,39.978,40.03,40.03,0,0,1,40.083,0Z" transform="translate(330.78 122.04)" fill="#5147ae"/>
          </g>
        </g>
        <path id="Trazado_772753" data-name="Trazado 772753" d="M24.758,15H22.789V3.625h1.969Zm2.43,0V3.625h3.359a5.269,5.269,0,0,1,2.676.672A4.581,4.581,0,0,1,35.031,6.2a6.051,6.051,0,0,1,.641,2.828V9.6a6.026,6.026,0,0,1-.645,2.844,4.526,4.526,0,0,1-1.836,1.891,5.513,5.513,0,0,1-2.73.664Zm1.977-9.781v8.2h1.289a2.968,2.968,0,0,0,2.387-.973,4.237,4.237,0,0,0,.848-2.793V9.023a4.347,4.347,0,0,0-.8-2.828,2.853,2.853,0,0,0-2.336-.977Z" transform="translate(530 2026)" fill="#fff"/>
      </g>
      <g id="Grupo_1045358" data-name="Grupo 1045358" transform="translate(-11 987.738)">
        <g id="Grupo_1021915" data-name="Grupo 1021915" transform="translate(493.725 2316)">
          <g transform="matrix(1, 0, 0, 1, -311.73, -468.11)" filter="url(#Trazado_740230-2)">
            <path id="Trazado_740230-5" data-name="Trazado 740230" d="M60.9,0c33.634,0,60.9,19.3,60.9,43.1s-27.266,43.1-60.9,43.1S0,66.9,0,43.1,27.266,0,60.9,0Z" transform="translate(311.73 468.11)" fill="#221b6b"/>
          </g>
          <g transform="matrix(1, 0, 0, 1, -311.73, -468.11)" filter="url(#Trazado_740772)">
            <path id="Trazado_740772-2" data-name="Trazado 740772" d="M55.5,0C86.152,0,111,16.789,111,37.5S86.152,75,55.5,75,0,58.211,0,37.5,24.848,0,55.5,0Z" transform="translate(317 474.02)" fill="#5147ae"/>
          </g>
        </g>
        <path id="Trazado_772757" data-name="Trazado 772757" d="M7.82,12.07a1.374,1.374,0,0,0-.527-1.156,6.345,6.345,0,0,0-1.9-.82A9.186,9.186,0,0,1,3.2,9.172,2.919,2.919,0,0,1,1.648,6.625,2.772,2.772,0,0,1,2.77,4.359a4.538,4.538,0,0,1,2.91-.891A4.916,4.916,0,0,1,7.8,3.906,3.475,3.475,0,0,1,9.258,5.152a3.2,3.2,0,0,1,.531,1.793H7.82a1.782,1.782,0,0,0-.559-1.395,2.305,2.305,0,0,0-1.6-.5,2.408,2.408,0,0,0-1.5.414,1.379,1.379,0,0,0-.535,1.156A1.247,1.247,0,0,0,4.2,7.66a6.66,6.66,0,0,0,1.906.813,8.768,8.768,0,0,1,2.133.9,3.392,3.392,0,0,1,1.18,1.156A3.011,3.011,0,0,1,9.8,12.055a2.707,2.707,0,0,1-1.09,2.262,4.727,4.727,0,0,1-2.957.84A5.557,5.557,0,0,1,3.48,14.7a3.812,3.812,0,0,1-1.609-1.262A3.144,3.144,0,0,1,1.3,11.563H3.273a1.84,1.84,0,0,0,.641,1.5,2.805,2.805,0,0,0,1.836.531A2.437,2.437,0,0,0,7.3,13.176,1.349,1.349,0,0,0,7.82,12.07Zm7.25,3.086a3.928,3.928,0,0,1-2.926-1.137,4.124,4.124,0,0,1-1.121-3.027v-.234A5.072,5.072,0,0,1,11.512,8.5a3.716,3.716,0,0,1,1.371-1.551,3.625,3.625,0,0,1,1.969-.555,3.318,3.318,0,0,1,2.668,1.1,4.658,4.658,0,0,1,.941,3.117v.766H12.938a2.539,2.539,0,0,0,.7,1.656,2.1,2.1,0,0,0,1.543.609A2.571,2.571,0,0,0,17.3,12.586l1.023.977a3.418,3.418,0,0,1-1.355,1.176A4.244,4.244,0,0,1,15.07,15.156Zm-.227-7.242a1.6,1.6,0,0,0-1.262.547,2.835,2.835,0,0,0-.613,1.523h3.617V9.844A2.307,2.307,0,0,0,16.078,8.4,1.586,1.586,0,0,0,14.844,7.914Zm8.125,1.414,1.609-2.781h2.109L24.1,10.711,26.773,15H24.68l-1.687-2.891L21.313,15H19.2l2.672-4.289L19.3,6.547h2.094ZM27.313,10.7A4.984,4.984,0,0,1,27.8,8.457a3.6,3.6,0,0,1,1.383-1.531,3.9,3.9,0,0,1,2.047-.535,3.692,3.692,0,0,1,2.777,1.1,4.333,4.333,0,0,1,1.152,2.922l.008.445a5.029,5.029,0,0,1-.48,2.234,3.551,3.551,0,0,1-1.375,1.523,3.925,3.925,0,0,1-2.066.539,3.667,3.667,0,0,1-2.863-1.191,4.563,4.563,0,0,1-1.074-3.176Zm1.9.164A3.406,3.406,0,0,0,29.75,12.9a1.752,1.752,0,0,0,1.5.738,1.733,1.733,0,0,0,1.5-.75,3.762,3.762,0,0,0,.535-2.2,3.362,3.362,0,0,0-.551-2.031,1.856,1.856,0,0,0-2.973-.012A3.691,3.691,0,0,0,29.211,10.859Zm13.781,5.633H35.828V15h7.164Zm3.164-5.711V15H44.18V3.625h4.352a4.4,4.4,0,0,1,3.027.993A3.34,3.34,0,0,1,52.68,7.246a3.229,3.229,0,0,1-1.1,2.6,4.613,4.613,0,0,1-3.074.931Zm0-1.594h2.375a2.339,2.339,0,0,0,1.609-.5A1.823,1.823,0,0,0,50.7,7.258a1.967,1.967,0,0,0-.562-1.473,2.168,2.168,0,0,0-1.547-.566h-2.43Zm11.688,5.969a3.928,3.928,0,0,1-2.926-1.137A4.124,4.124,0,0,1,53.8,10.992v-.234A5.072,5.072,0,0,1,54.285,8.5a3.716,3.716,0,0,1,1.371-1.551,3.625,3.625,0,0,1,1.969-.555,3.318,3.318,0,0,1,2.668,1.1,4.658,4.658,0,0,1,.941,3.117v.766H55.711a2.539,2.539,0,0,0,.7,1.656,2.1,2.1,0,0,0,1.543.609,2.571,2.571,0,0,0,2.125-1.055l1.023.977a3.418,3.418,0,0,1-1.355,1.176A4.244,4.244,0,0,1,57.844,15.156Zm-.227-7.242a1.6,1.6,0,0,0-1.262.547,2.835,2.835,0,0,0-.613,1.523h3.617V9.844A2.307,2.307,0,0,0,58.852,8.4,1.586,1.586,0,0,0,57.617,7.914Zm9.516.367a4.7,4.7,0,0,0-.773-.062,1.741,1.741,0,0,0-1.758,1V15H62.7V6.547h1.813l.047.945a2.139,2.139,0,0,1,1.906-1.1,1.777,1.777,0,0,1,.672.109ZM73.07,12.7a.861.861,0,0,0-.418-.773,4.445,4.445,0,0,0-1.387-.469,7.129,7.129,0,0,1-1.617-.516,2.158,2.158,0,0,1-1.422-1.992,2.25,2.25,0,0,1,.922-1.828,3.644,3.644,0,0,1,2.344-.734,3.792,3.792,0,0,1,2.449.75,2.38,2.38,0,0,1,.934,1.945h-1.9a1.17,1.17,0,0,0-.406-.91,1.557,1.557,0,0,0-1.078-.363,1.682,1.682,0,0,0-1.02.289.911.911,0,0,0-.395.773.769.769,0,0,0,.367.68,5.049,5.049,0,0,0,1.484.488,7.027,7.027,0,0,1,1.754.586,2.484,2.484,0,0,1,.945.816,2.082,2.082,0,0,1,.309,1.156,2.2,2.2,0,0,1-.945,1.848,4.031,4.031,0,0,1-2.477.707,4.371,4.371,0,0,1-1.852-.375A3.047,3.047,0,0,1,68.4,13.75a2.441,2.441,0,0,1-.453-1.414h1.844a1.338,1.338,0,0,0,.508,1.035,1.973,1.973,0,0,0,1.242.363,1.92,1.92,0,0,0,1.141-.285A.883.883,0,0,0,73.07,12.7ZM76.234,10.7a4.984,4.984,0,0,1,.492-2.238,3.6,3.6,0,0,1,1.383-1.531,3.9,3.9,0,0,1,2.047-.535,3.692,3.692,0,0,1,2.777,1.1,4.333,4.333,0,0,1,1.152,2.922l.008.445a5.029,5.029,0,0,1-.48,2.234,3.551,3.551,0,0,1-1.375,1.523,3.925,3.925,0,0,1-2.066.539,3.667,3.667,0,0,1-2.863-1.191,4.563,4.563,0,0,1-1.074-3.176Zm1.9.164a3.406,3.406,0,0,0,.539,2.043,1.752,1.752,0,0,0,1.5.738,1.733,1.733,0,0,0,1.5-.75,3.762,3.762,0,0,0,.535-2.2,3.362,3.362,0,0,0-.551-2.031,1.856,1.856,0,0,0-2.973-.012A3.691,3.691,0,0,0,78.133,10.859Zm9.328-4.312.055.977a3.039,3.039,0,0,1,2.461-1.133q2.641,0,2.688,3.023V15h-1.9V9.523a1.741,1.741,0,0,0-.348-1.191,1.462,1.462,0,0,0-1.137-.387A1.829,1.829,0,0,0,87.57,8.984V15h-1.9V6.547ZM99.648,15a2.93,2.93,0,0,1-.219-.789,3.193,3.193,0,0,1-4.3.219,2.325,2.325,0,0,1-.8-1.8,2.4,2.4,0,0,1,1-2.074A4.865,4.865,0,0,1,98.2,9.836h1.164V9.281A1.481,1.481,0,0,0,99,8.23a1.456,1.456,0,0,0-1.117-.395,1.672,1.672,0,0,0-1.062.324,1,1,0,0,0-.414.824h-1.9a2.107,2.107,0,0,1,.461-1.3,3.071,3.071,0,0,1,1.254-.949,4.4,4.4,0,0,1,1.77-.344,3.547,3.547,0,0,1,2.367.746,2.661,2.661,0,0,1,.906,2.1v3.813a4.321,4.321,0,0,0,.32,1.82V15Zm-2.086-1.367a2.159,2.159,0,0,0,1.059-.273,1.827,1.827,0,0,0,.746-.734V11.031H98.344a2.8,2.8,0,0,0-1.586.367,1.189,1.189,0,0,0-.531,1.039,1.109,1.109,0,0,0,.363.871A1.407,1.407,0,0,0,97.563,13.633Z" transform="translate(503 2342.915)" fill="#fff"/>
      </g>
      <g id="Grupo_1045359" data-name="Grupo 1045359" transform="translate(0 0.077)">
        <g id="Grupo_1021935" data-name="Grupo 1021935" transform="translate(-14 978.923)">
          <g id="Grupo_1021846" data-name="Grupo 1021846" transform="translate(356 2050)">
            <g transform="matrix(1, 0, 0, 1, -171, -193.37)" filter="url(#Trazado_740227)">
              <path id="Trazado_740227-4" data-name="Trazado 740227" d="M45.575,0A45.575,45.575,0,1,1,0,45.575,45.575,45.575,0,0,1,45.575,0Z" transform="translate(171 193.37)" fill="#221b6b"/>
            </g>
            <g transform="matrix(1, 0, 0, 1, -171, -193.37)" filter="url(#Trazado_740231)">
              <path id="Trazado_740231-4" data-name="Trazado 740231" d="M40.05,0A40.05,40.05,0,1,1,0,40.05,40.05,40.05,0,0,1,40.05,0Z" transform="translate(176.53 198.89)" fill="#5147ae"/>
            </g>
          </g>
          <path id="Trazado_772754" data-name="Trazado 772754" d="M1.156,15V3.625H4.516A5.269,5.269,0,0,1,7.191,4.3,4.581,4.581,0,0,1,9,6.2a6.051,6.051,0,0,1,.641,2.828V9.6A6.026,6.026,0,0,1,9,12.445,4.526,4.526,0,0,1,7.16,14.336,5.513,5.513,0,0,1,4.43,15ZM3.133,5.219v8.2H4.422a2.968,2.968,0,0,0,2.387-.973,4.237,4.237,0,0,0,.848-2.793V9.023a4.347,4.347,0,0,0-.8-2.828,2.853,2.853,0,0,0-2.336-.977ZM13.317,15h-1.9V6.547h1.9ZM11.3,4.352a1.008,1.008,0,0,1,.277-.727,1.048,1.048,0,0,1,.793-.289,1.061,1.061,0,0,1,.8.289,1,1,0,0,1,.281.727.977.977,0,0,1-.281.715,1.069,1.069,0,0,1-.8.285,1.056,1.056,0,0,1-.793-.285A.984.984,0,0,1,11.3,4.352Zm8.38,3.93a4.7,4.7,0,0,0-.773-.062,1.741,1.741,0,0,0-1.758,1V15h-1.9V6.547h1.812l.047.945a2.139,2.139,0,0,1,1.906-1.1,1.777,1.777,0,0,1,.672.109Zm4.645,6.875A3.928,3.928,0,0,1,21.4,14.02a4.124,4.124,0,0,1-1.121-3.027v-.234A5.072,5.072,0,0,1,20.768,8.5a3.716,3.716,0,0,1,1.371-1.551,3.625,3.625,0,0,1,1.969-.555,3.318,3.318,0,0,1,2.668,1.1,4.658,4.658,0,0,1,.941,3.117v.766H22.194a2.539,2.539,0,0,0,.7,1.656,2.1,2.1,0,0,0,1.543.609,2.571,2.571,0,0,0,2.125-1.055l1.023.977a3.418,3.418,0,0,1-1.355,1.176A4.244,4.244,0,0,1,24.327,15.156ZM24.1,7.914a1.6,1.6,0,0,0-1.262.547,2.835,2.835,0,0,0-.613,1.523h3.617V9.844A2.307,2.307,0,0,0,25.335,8.4,1.586,1.586,0,0,0,24.1,7.914Zm8.434,5.727a1.716,1.716,0,0,0,1.18-.414,1.415,1.415,0,0,0,.5-1.023H36a2.789,2.789,0,0,1-.492,1.473,3.228,3.228,0,0,1-1.25,1.082,3.725,3.725,0,0,1-1.7.4,3.6,3.6,0,0,1-2.812-1.148,4.555,4.555,0,0,1-1.039-3.172v-.2a4.479,4.479,0,0,1,1.031-3.09,3.571,3.571,0,0,1,2.812-1.16,3.473,3.473,0,0,1,2.457.879,3.148,3.148,0,0,1,1,2.309H34.215a1.738,1.738,0,0,0-.5-1.2,1.6,1.6,0,0,0-1.184-.469,1.671,1.671,0,0,0-1.422.668,3.408,3.408,0,0,0-.508,2.027v.3a3.465,3.465,0,0,0,.5,2.051A1.669,1.669,0,0,0,32.535,13.641Zm8.247,0a1.716,1.716,0,0,0,1.18-.414,1.415,1.415,0,0,0,.5-1.023h1.789a2.789,2.789,0,0,1-.492,1.473,3.228,3.228,0,0,1-1.25,1.082,3.725,3.725,0,0,1-1.7.4,3.6,3.6,0,0,1-2.812-1.148,4.555,4.555,0,0,1-1.039-3.172v-.2a4.479,4.479,0,0,1,1.031-3.09A3.571,3.571,0,0,1,40.8,6.391a3.473,3.473,0,0,1,2.457.879,3.148,3.148,0,0,1,1,2.309H42.462a1.738,1.738,0,0,0-.5-1.2,1.6,1.6,0,0,0-1.184-.469,1.671,1.671,0,0,0-1.422.668,3.408,3.408,0,0,0-.508,2.027v.3a3.465,3.465,0,0,0,.5,2.051A1.669,1.669,0,0,0,40.782,13.641ZM47.576,15h-1.9V6.547h1.9ZM45.56,4.352a1.008,1.008,0,0,1,.277-.727,1.048,1.048,0,0,1,.793-.289,1.061,1.061,0,0,1,.8.289,1,1,0,0,1,.281.727.977.977,0,0,1-.281.715,1.069,1.069,0,0,1-.8.285,1.056,1.056,0,0,1-.793-.285A.984.984,0,0,1,45.56,4.352Zm3.6,6.344a4.984,4.984,0,0,1,.492-2.238,3.6,3.6,0,0,1,1.383-1.531,3.9,3.9,0,0,1,2.047-.535,3.692,3.692,0,0,1,2.777,1.1,4.333,4.333,0,0,1,1.152,2.922l.008.445a5.029,5.029,0,0,1-.48,2.234,3.551,3.551,0,0,1-1.375,1.523,3.925,3.925,0,0,1-2.066.539,3.667,3.667,0,0,1-2.863-1.191,4.563,4.563,0,0,1-1.074-3.176Zm1.9.164A3.406,3.406,0,0,0,51.6,12.9a1.752,1.752,0,0,0,1.5.738,1.733,1.733,0,0,0,1.5-.75,3.762,3.762,0,0,0,.535-2.2,3.362,3.362,0,0,0-.551-2.031A1.856,1.856,0,0,0,51.6,8.652,3.691,3.691,0,0,0,51.057,10.859ZM53.6,3h2.164L53.6,5.367l-1.523,0Zm6.653,3.547.055.977a3.039,3.039,0,0,1,2.461-1.133q2.641,0,2.688,3.023V15h-1.9V9.523a1.741,1.741,0,0,0-.348-1.191,1.462,1.462,0,0,0-1.137-.387,1.829,1.829,0,0,0-1.711,1.039V15h-1.9V6.547Z" transform="translate(368 2085)" fill="#fff"/>
        </g>
        <g id="Grupo_1021936" data-name="Grupo 1021936" transform="translate(-14 978.923)">
          <g id="Grupo_1021920" data-name="Grupo 1021920" transform="translate(356 2272)">
            <g transform="matrix(1, 0, 0, 1, -171, -415.37)" filter="url(#Trazado_740227-2)">
              <path id="Trazado_740227-5" data-name="Trazado 740227" d="M45.575,0A45.575,45.575,0,1,1,0,45.575,45.575,45.575,0,0,1,45.575,0Z" transform="translate(171 415.37)" fill="#221b6b"/>
            </g>
            <g transform="matrix(1, 0, 0, 1, -171, -415.37)" filter="url(#Trazado_740231-2)">
              <path id="Trazado_740231-5" data-name="Trazado 740231" d="M40.05,0A40.05,40.05,0,1,1,0,40.05,40.05,40.05,0,0,1,40.05,0Z" transform="translate(176.53 420.89)" fill="#5147ae"/>
            </g>
          </g>
          <path id="Trazado_772756" data-name="Trazado 772756" d="M10.836,11.3a4.107,4.107,0,0,1-1.344,2.84,4.581,4.581,0,0,1-3.117,1.02,4.436,4.436,0,0,1-2.395-.645,4.231,4.231,0,0,1-1.6-1.832A6.611,6.611,0,0,1,1.8,9.922V8.859a6.659,6.659,0,0,1,.57-2.836A4.3,4.3,0,0,1,4,4.133a4.566,4.566,0,0,1,2.465-.664A4.4,4.4,0,0,1,9.5,4.488a4.26,4.26,0,0,1,1.336,2.887H8.867a2.81,2.81,0,0,0-.715-1.77,2.363,2.363,0,0,0-1.684-.543A2.308,2.308,0,0,0,4.488,6a4.709,4.709,0,0,0-.707,2.764V9.778a5,5,0,0,0,.66,2.815,2.191,2.191,0,0,0,1.934.97,2.555,2.555,0,0,0,1.75-.523A2.729,2.729,0,0,0,8.867,11.3Zm1.227-.6a4.984,4.984,0,0,1,.492-2.238,3.6,3.6,0,0,1,1.383-1.531,3.9,3.9,0,0,1,2.047-.535,3.692,3.692,0,0,1,2.777,1.1,4.333,4.333,0,0,1,1.152,2.922l.008.445a5.029,5.029,0,0,1-.48,2.234,3.551,3.551,0,0,1-1.375,1.523A3.925,3.925,0,0,1,16,15.156a3.667,3.667,0,0,1-2.863-1.191,4.563,4.563,0,0,1-1.074-3.176Zm1.9.164A3.406,3.406,0,0,0,14.5,12.9a1.752,1.752,0,0,0,1.5.738,1.733,1.733,0,0,0,1.5-.75,3.762,3.762,0,0,0,.535-2.2,3.362,3.362,0,0,0-.551-2.031,1.856,1.856,0,0,0-2.973-.012A3.691,3.691,0,0,0,13.961,10.859Zm9.328-4.312.055.977A3.039,3.039,0,0,1,25.8,6.391q2.641,0,2.688,3.023V15h-1.9V9.523a1.741,1.741,0,0,0-.348-1.191,1.462,1.462,0,0,0-1.137-.387A1.829,1.829,0,0,0,23.4,8.984V15H21.5V6.547ZM32.8,4.492V6.547H34.3V7.953H32.8v4.719a1.039,1.039,0,0,0,.191.7.888.888,0,0,0,.684.215,2.924,2.924,0,0,0,.664-.078v1.469a4.676,4.676,0,0,1-1.25.18q-2.188,0-2.187-2.414V7.953H29.516V6.547h1.391V4.492ZM40.8,15a2.93,2.93,0,0,1-.219-.789,3.193,3.193,0,0,1-4.3.219,2.325,2.325,0,0,1-.8-1.8,2.4,2.4,0,0,1,1-2.074,4.865,4.865,0,0,1,2.871-.723h1.164V9.281a1.481,1.481,0,0,0-.367-1.051,1.456,1.456,0,0,0-1.117-.395,1.672,1.672,0,0,0-1.062.324,1,1,0,0,0-.414.824h-1.9a2.107,2.107,0,0,1,.461-1.3,3.071,3.071,0,0,1,1.254-.949,4.4,4.4,0,0,1,1.77-.344,3.547,3.547,0,0,1,2.367.746,2.661,2.661,0,0,1,.906,2.1v3.813a4.321,4.321,0,0,0,.32,1.82V15Zm-2.086-1.367a2.159,2.159,0,0,0,1.059-.273,1.827,1.827,0,0,0,.746-.734V11.031H39.492a2.8,2.8,0,0,0-1.586.367,1.189,1.189,0,0,0-.531,1.039,1.109,1.109,0,0,0,.363.871A1.407,1.407,0,0,0,38.711,13.633Zm9.164.008a1.716,1.716,0,0,0,1.18-.414,1.415,1.415,0,0,0,.5-1.023h1.789a2.789,2.789,0,0,1-.492,1.473,3.228,3.228,0,0,1-1.25,1.082,3.725,3.725,0,0,1-1.7.4,3.6,3.6,0,0,1-2.812-1.148,4.555,4.555,0,0,1-1.039-3.172v-.2a4.479,4.479,0,0,1,1.031-3.09,3.571,3.571,0,0,1,2.813-1.16,3.473,3.473,0,0,1,2.457.879,3.148,3.148,0,0,1,1,2.309H49.555a1.738,1.738,0,0,0-.5-1.2,1.6,1.6,0,0,0-1.184-.469,1.671,1.671,0,0,0-1.422.668,3.408,3.408,0,0,0-.508,2.027v.3a3.465,3.465,0,0,0,.5,2.051A1.669,1.669,0,0,0,47.875,13.641Zm7.281-9.148V6.547h1.492V7.953H55.156v4.719a1.039,1.039,0,0,0,.191.7.888.888,0,0,0,.684.215,2.924,2.924,0,0,0,.664-.078v1.469a4.676,4.676,0,0,1-1.25.18q-2.187,0-2.187-2.414V7.953H51.867V6.547h1.391V4.492Zm2.352,6.2A4.984,4.984,0,0,1,58,8.457a3.6,3.6,0,0,1,1.383-1.531,3.9,3.9,0,0,1,2.047-.535,3.692,3.692,0,0,1,2.777,1.1,4.333,4.333,0,0,1,1.152,2.922l.008.445a5.029,5.029,0,0,1-.48,2.234,3.551,3.551,0,0,1-1.375,1.523,3.925,3.925,0,0,1-2.066.539,3.667,3.667,0,0,1-2.863-1.191,4.563,4.563,0,0,1-1.074-3.176Zm1.9.164a3.406,3.406,0,0,0,.539,2.043,1.752,1.752,0,0,0,1.5.738,1.733,1.733,0,0,0,1.5-.75,3.762,3.762,0,0,0,.535-2.2,3.362,3.362,0,0,0-.551-2.031,1.856,1.856,0,0,0-2.973-.012A3.691,3.691,0,0,0,59.406,10.859Z" transform="translate(368 2307)" fill="#fff"/>
        </g>
        <g id="Grupo_1021927" data-name="Grupo 1021927" transform="translate(-29 987.083)">
          <g id="Grupo_1021844" data-name="Grupo 1021844" transform="translate(337 2153)">
            <g transform="matrix(1, 0, 0, 1, -137, -304.53)" filter="url(#Trazado_740230-3)">
              <path id="Trazado_740230-6" data-name="Trazado 740230" d="M45.575,0A45.577,45.577,0,1,1,0,45.577,45.576,45.576,0,0,1,45.575,0Z" transform="translate(137 304.53)" fill="#221b6b"/>
            </g>
            <g transform="matrix(1, 0, 0, 1, -137, -304.53)" filter="url(#Elipse_7745-2)">
              <ellipse id="Elipse_7745-4" data-name="Elipse 7745" cx="39.167" cy="40" rx="39.167" ry="40" transform="translate(143.44 310.1)" fill="#5147ae"/>
            </g>
          </g>
          <path id="Trazado_772755" data-name="Trazado 772755" d="M18.66,11.3a4.107,4.107,0,0,1-1.344,2.84,4.581,4.581,0,0,1-3.117,1.02,4.436,4.436,0,0,1-2.395-.645,4.231,4.231,0,0,1-1.6-1.832,6.611,6.611,0,0,1-.586-2.758V8.859a6.659,6.659,0,0,1,.57-2.836,4.3,4.3,0,0,1,1.637-1.891,4.566,4.566,0,0,1,2.465-.664,4.4,4.4,0,0,1,3.031,1.02A4.26,4.26,0,0,1,18.66,7.375H16.691a2.81,2.81,0,0,0-.715-1.77,2.363,2.363,0,0,0-1.684-.543A2.308,2.308,0,0,0,12.313,6a4.709,4.709,0,0,0-.707,2.764V9.778a5,5,0,0,0,.66,2.815,2.191,2.191,0,0,0,1.934.97,2.555,2.555,0,0,0,1.75-.523,2.729,2.729,0,0,0,.742-1.742Zm1.227-.6a4.984,4.984,0,0,1,.492-2.238,3.6,3.6,0,0,1,1.383-1.531,3.9,3.9,0,0,1,2.047-.535,3.692,3.692,0,0,1,2.777,1.1,4.333,4.333,0,0,1,1.152,2.922l.008.445a5.029,5.029,0,0,1-.48,2.234,3.551,3.551,0,0,1-1.375,1.523,3.925,3.925,0,0,1-2.066.539,3.667,3.667,0,0,1-2.863-1.191,4.563,4.563,0,0,1-1.074-3.176Zm1.9.164a3.406,3.406,0,0,0,.539,2.043,1.752,1.752,0,0,0,1.5.738,1.733,1.733,0,0,0,1.5-.75,3.762,3.762,0,0,0,.535-2.2A3.362,3.362,0,0,0,25.3,8.664a1.856,1.856,0,0,0-2.973-.012A3.691,3.691,0,0,0,21.785,10.859ZM33.777,8.281A4.7,4.7,0,0,0,33,8.219a1.741,1.741,0,0,0-1.758,1V15h-1.9V6.547H31.16l.047.945a2.139,2.139,0,0,1,1.906-1.1,1.777,1.777,0,0,1,.672.109Zm5.625,0a4.7,4.7,0,0,0-.773-.062,1.741,1.741,0,0,0-1.758,1V15h-1.9V6.547h1.813l.047.945a2.139,2.139,0,0,1,1.906-1.1,1.777,1.777,0,0,1,.672.109Zm4.773,6.875A3.928,3.928,0,0,1,41.25,14.02a4.124,4.124,0,0,1-1.121-3.027v-.234A5.072,5.072,0,0,1,40.617,8.5a3.716,3.716,0,0,1,1.371-1.551,3.625,3.625,0,0,1,1.969-.555,3.318,3.318,0,0,1,2.668,1.1,4.658,4.658,0,0,1,.941,3.117v.766H42.043a2.539,2.539,0,0,0,.7,1.656,2.1,2.1,0,0,0,1.543.609,2.571,2.571,0,0,0,2.125-1.055l1.023.977a3.418,3.418,0,0,1-1.355,1.176A4.244,4.244,0,0,1,44.176,15.156Zm-.227-7.242a1.6,1.6,0,0,0-1.262.547,2.835,2.835,0,0,0-.613,1.523h3.617V9.844A2.307,2.307,0,0,0,45.184,8.4,1.586,1.586,0,0,0,43.949,7.914ZM48.684,10.7a4.984,4.984,0,0,1,.492-2.238,3.6,3.6,0,0,1,1.383-1.531,3.9,3.9,0,0,1,2.047-.535,3.692,3.692,0,0,1,2.777,1.1,4.333,4.333,0,0,1,1.152,2.922l.008.445a5.029,5.029,0,0,1-.48,2.234,3.551,3.551,0,0,1-1.375,1.523,3.925,3.925,0,0,1-2.066.539,3.667,3.667,0,0,1-2.863-1.191,4.563,4.563,0,0,1-1.074-3.176Zm1.9.164a3.406,3.406,0,0,0,.539,2.043,1.752,1.752,0,0,0,1.5.738,1.733,1.733,0,0,0,1.5-.75,3.762,3.762,0,0,0,.535-2.2A3.362,3.362,0,0,0,54.1,8.664a1.856,1.856,0,0,0-2.973-.012A3.691,3.691,0,0,0,50.582,10.859Z" transform="translate(349 2189)" fill="#fff"/>
        </g>
      </g>
      <g id="Grupo_1045360" data-name="Grupo 1045360" transform="translate(608 3175.475)">
        <g id="Grupo_1021852" data-name="Grupo 1021852" transform="translate(0)">
          <path id="Trazado_739357" data-name="Trazado 739357" d="M3005.254-8990.29l14-10.184" transform="translate(-3005.254 9010.657)" fill="none" stroke="#12263f" stroke-width="2"/>
          <path id="Trazado_739358" data-name="Trazado 739358" d="M3005.254-9000.474l14,10.184" transform="translate(-3005.254 9000.474)" fill="none" stroke="#12263f" stroke-width="2"/>
        </g>
        <path id="Trazado_739359" data-name="Trazado 739359" d="M3033.728-9000.474h325.207" transform="translate(-3032.935 9010.657)" fill="none" stroke="#12263f" stroke-width="2"/>
        <path id="Trazado_739360" data-name="Trazado 739360" d="M3214.41-9010.541v17.834" transform="translate(-2908.959 9011.338)" fill="none" stroke="#12263f" stroke-width="2"/>
        <path id="Trazado_739361" data-name="Trazado 739361" d="M3214.41-9010.541v17.834" transform="translate(-2897.77 9011.338)" fill="none" stroke="#12263f" stroke-width="2"/>
      </g>
      <g id="Grupo_1045361" data-name="Grupo 1045361" transform="translate(365.65 3106.099)">
        <g id="Grupo_1021670" data-name="Grupo 1021670" transform="translate(74.5 -34.547)">
          <path id="Trazado_696473" data-name="Trazado 696473" d="M23-40,68.276-9.886V38.081l49.066,30.114" transform="translate(-13.867 45.913)" fill="none" stroke="#291a64" stroke-width="2"/>
          <g id="Grupo_1021677" data-name="Grupo 1021677">
            <g id="Grupo_896210" data-name="Grupo 896210" transform="translate(0 4.001)" opacity="0.5" style="mix-blend-mode: multiply;isolation: isolate">
              <g id="Grupo_896209" data-name="Grupo 896209">
                <g id="Grupo_896208" data-name="Grupo 896208" clip-path="url(#clip-path-8)">
                  <path id="Trazado_693630" data-name="Trazado 693630" d="M180.489,72.165a5.912,5.912,0,1,1-5.912-5.912,5.912,5.912,0,0,1,5.912,5.912" transform="translate(-168.665 -66.253)" fill="#221b6b"/>
                </g>
              </g>
            </g>
            <path id="Trazado_693631" data-name="Trazado 693631" d="M177.489,68.165a5.912,5.912,0,1,1-5.912-5.912,5.912,5.912,0,0,1,5.912,5.912" transform="translate(-162.665 -62.253)" fill="#221b6b"/>
          </g>
        </g>
      </g>
      <g id="Grupo_1045362" data-name="Grupo 1045362" transform="translate(543.625 3071.552)">
        <g id="Grupo_1021670-2" data-name="Grupo 1021670" transform="translate(0 0)">
          <path id="Trazado_696473-2" data-name="Trazado 696473" d="M117.342-40,72.066-9.886V38.08L23,68.195" transform="translate(-23 45.913)" fill="none" stroke="#291a64" stroke-width="2"/>
          <g id="Grupo_1021677-2" data-name="Grupo 1021677" transform="translate(88.651)">
            <g id="Grupo_896210-2" data-name="Grupo 896210" transform="translate(3 4.001)" opacity="0.5" style="mix-blend-mode: multiply;isolation: isolate">
              <g id="Grupo_896209-2" data-name="Grupo 896209">
                <g id="Grupo_896208-2" data-name="Grupo 896208" clip-path="url(#clip-path-8)">
                  <path id="Trazado_693630-2" data-name="Trazado 693630" d="M168.665,72.165a5.912,5.912,0,1,0,5.912-5.912,5.912,5.912,0,0,0-5.912,5.912" transform="translate(-168.665 -66.253)" fill="#221b6b"/>
                </g>
              </g>
            </g>
            <path id="Trazado_693631-2" data-name="Trazado 693631" d="M165.665,68.165a5.912,5.912,0,1,0,5.912-5.912,5.912,5.912,0,0,0-5.912,5.912" transform="translate(-165.665 -62.253)" fill="#221b6b"/>
          </g>
        </g>
      </g>
      <g id="Grupo_1045363" data-name="Grupo 1045363" transform="translate(440.15 3177.499)">
        <g id="Grupo_1021670-3" data-name="Grupo 1021670" transform="translate(0 8)">
          <path id="Trazado_696473-3" data-name="Trazado 696473" d="M23,68.195,68.276,38.08V-9.886L117.342-40" transform="translate(-13.867 40)" fill="none" stroke="#291a64" stroke-width="2"/>
          <g id="Grupo_1021677-3" data-name="Grupo 1021677" transform="translate(0 98.283)">
            <g id="Grupo_896210-3" data-name="Grupo 896210" opacity="0.5" style="mix-blend-mode: multiply;isolation: isolate">
              <g id="Grupo_896209-3" data-name="Grupo 896209">
                <g id="Grupo_896208-3" data-name="Grupo 896208" clip-path="url(#clip-path-8)">
                  <path id="Trazado_693630-3" data-name="Trazado 693630" d="M180.489,72.165a5.912,5.912,0,1,0-5.912,5.912,5.912,5.912,0,0,0,5.912-5.912" transform="translate(-168.665 -66.253)" fill="#221b6b"/>
                </g>
              </g>
            </g>
            <path id="Trazado_693631-3" data-name="Trazado 693631" d="M177.489,68.165a5.912,5.912,0,1,0-5.912,5.912,5.912,5.912,0,0,0,5.912-5.912" transform="translate(-162.665 -58.252)" fill="#221b6b"/>
          </g>
        </g>
      </g>
      <g id="Grupo_1045364" data-name="Grupo 1045364" transform="translate(409.008 3177.761)">
        <g id="Grupo_1021670-4" data-name="Grupo 1021670" transform="translate(0 1.826)">
          <path id="Trazado_696473-4" data-name="Trazado 696473" d="M23-40H148.484" transform="translate(-13.867 46.174)" fill="none" stroke="#291a64" stroke-width="2"/>
          <g id="Grupo_1021677-4" data-name="Grupo 1021677">
            <g id="Grupo_896210-4" data-name="Grupo 896210" transform="translate(0 0)" opacity="0.5" style="mix-blend-mode: multiply;isolation: isolate">
              <g id="Grupo_896209-4" data-name="Grupo 896209">
                <g id="Grupo_896208-4" data-name="Grupo 896208" clip-path="url(#clip-path-8)">
                  <path id="Trazado_693630-4" data-name="Trazado 693630" d="M180.489,72.165a5.912,5.912,0,1,0-5.912,5.912,5.912,5.912,0,0,0,5.912-5.912" transform="translate(-168.665 -66.253)" fill="#221b6b"/>
                </g>
              </g>
            </g>
            <path id="Trazado_693631-4" data-name="Trazado 693631" d="M177.489,68.165a5.912,5.912,0,1,0-5.912,5.912,5.912,5.912,0,0,0,5.912-5.912" transform="translate(-162.665 -62.253)" fill="#221b6b"/>
          </g>
        </g>
      </g>
      <g id="Grupo_1045365" data-name="Grupo 1045365" transform="translate(1032.008 3179.587)">
        <g id="Grupo_1021670-5" data-name="Grupo 1021670" transform="translate(0 0)">
          <path id="Trazado_696473-5" data-name="Trazado 696473" d="M148.484-40H23" transform="translate(-23 46.174)" fill="none" stroke="#291a64" stroke-width="2"/>
          <g id="Grupo_1021677-5" data-name="Grupo 1021677" transform="translate(119.792)">
            <g id="Grupo_896210-5" data-name="Grupo 896210" transform="translate(3 0)" opacity="0.5" style="mix-blend-mode: multiply;isolation: isolate">
              <g id="Grupo_896209-5" data-name="Grupo 896209">
                <g id="Grupo_896208-5" data-name="Grupo 896208" clip-path="url(#clip-path-8)">
                  <path id="Trazado_693630-5" data-name="Trazado 693630" d="M168.665,72.165a5.912,5.912,0,1,1,5.912,5.912,5.912,5.912,0,0,1-5.912-5.912" transform="translate(-168.665 -66.253)" fill="#221b6b"/>
                </g>
              </g>
            </g>
            <path id="Trazado_693631-5" data-name="Trazado 693631" d="M165.665,68.165a5.912,5.912,0,1,1,5.912,5.912,5.912,5.912,0,0,1-5.912-5.912" transform="translate(-165.665 -62.253)" fill="#221b6b"/>
          </g>
        </g>
      </g>
      <g id="Grupo_1045366" data-name="Grupo 1045366" transform="translate(551.65 3053.541) rotate(90)">
        <g id="Grupo_1021670-6" data-name="Grupo 1021670" transform="translate(0 1.826)">
          <path id="Trazado_696473-6" data-name="Trazado 696473" d="M23-40H134.98" transform="translate(-13.867 46.174)" fill="none" stroke="#291a64" stroke-width="2"/>
          <g id="Grupo_1021677-6" data-name="Grupo 1021677">
            <g id="Grupo_896210-6" data-name="Grupo 896210" transform="translate(0 0)" opacity="0.5" style="mix-blend-mode: multiply;isolation: isolate">
              <g id="Grupo_896209-6" data-name="Grupo 896209">
                <g id="Grupo_896208-6" data-name="Grupo 896208" clip-path="url(#clip-path-8)">
                  <path id="Trazado_693630-6" data-name="Trazado 693630" d="M180.489,72.165a5.912,5.912,0,1,0-5.912,5.912,5.912,5.912,0,0,0,5.912-5.912" transform="translate(-168.665 -66.253)" fill="#221b6b"/>
                </g>
              </g>
            </g>
            <path id="Trazado_693631-6" data-name="Trazado 693631" d="M177.489,68.165a5.912,5.912,0,1,0-5.912,5.912,5.912,5.912,0,0,0,5.912-5.912" transform="translate(-162.665 -62.253)" fill="#221b6b"/>
          </g>
        </g>
      </g>
      <g id="Grupo_1045367" data-name="Grupo 1045367" transform="translate(1005.711 3053.541) rotate(90)">
        <g id="Grupo_1021670-7" data-name="Grupo 1021670" transform="translate(0 1.826)">
          <path id="Trazado_696473-7" data-name="Trazado 696473" d="M23-40h90.7" transform="translate(-13.867 46.174)" fill="none" stroke="#291a64" stroke-width="2"/>
          <g id="Grupo_1021677-7" data-name="Grupo 1021677">
            <g id="Grupo_896210-7" data-name="Grupo 896210" transform="translate(0 0)" opacity="0.5" style="mix-blend-mode: multiply;isolation: isolate">
              <g id="Grupo_896209-7" data-name="Grupo 896209">
                <g id="Grupo_896208-7" data-name="Grupo 896208" clip-path="url(#clip-path-14)">
                  <path id="Trazado_693630-7" data-name="Trazado 693630" d="M180.489,72.165a5.912,5.912,0,1,0-5.912,5.912,5.912,5.912,0,0,0,5.912-5.912" transform="translate(-168.665 -66.253)" fill="#463b7e"/>
                </g>
              </g>
            </g>
            <path id="Trazado_693631-7" data-name="Trazado 693631" d="M177.489,68.165a5.912,5.912,0,1,0-5.912,5.912,5.912,5.912,0,0,0,5.912-5.912" transform="translate(-162.665 -62.253)" fill="#463b7e"/>
          </g>
        </g>
      </g>
      <g id="Grupo_1045368" data-name="Grupo 1045368" transform="translate(538 3296.587) rotate(-90)">
        <g id="Grupo_1021670-8" data-name="Grupo 1021670" transform="translate(0 0)">
          <path id="Trazado_696473-8" data-name="Trazado 696473" d="M0,0H111.98" transform="translate(9.133 5.65)" fill="none" stroke="#291a64" stroke-width="2"/>
          <g id="Grupo_1021677-8" data-name="Grupo 1021677" transform="translate(0 0)">
            <g id="Grupo_896210-8" data-name="Grupo 896210" transform="translate(0 0)" opacity="0.5" style="mix-blend-mode: multiply;isolation: isolate">
              <g id="Grupo_896209-8" data-name="Grupo 896209">
                <g id="Grupo_896208-8" data-name="Grupo 896208" clip-path="url(#clip-path-8)">
                  <path id="Trazado_693630-8" data-name="Trazado 693630" d="M11.824,5.912A5.912,5.912,0,1,1,5.912,0a5.912,5.912,0,0,1,5.912,5.912" transform="translate(0 0)" fill="#221b6b"/>
                </g>
              </g>
            </g>
            <path id="Trazado_693631-8" data-name="Trazado 693631" d="M11.824,5.912A5.912,5.912,0,1,1,5.912,0a5.912,5.912,0,0,1,5.912,5.912" transform="translate(3 0)" fill="#221b6b"/>
          </g>
        </g>
      </g>
      <g id="Grupo_1045369" data-name="Grupo 1045369" transform="translate(27.25 978.923)">
        <g id="Grupo_1021918" data-name="Grupo 1021918" transform="translate(626 2050)">
          <g transform="matrix(1, 0, 0, 1, -482.25, -193.29)" filter="url(#Trazado_740227-3)">
            <path id="Trazado_740227-6" data-name="Trazado 740227" d="M45.575,0A45.575,45.575,0,1,1,0,45.575,45.575,45.575,0,0,1,45.575,0Z" transform="translate(482.25 193.29)" fill="#221b6b"/>
          </g>
          <g transform="matrix(1, 0, 0, 1, -482.25, -193.29)" filter="url(#Trazado_740231-3)">
            <path id="Trazado_740231-6" data-name="Trazado 740231" d="M40.05,0A40.05,40.05,0,1,1,0,40.05,40.05,40.05,0,0,1,40.05,0Z" transform="translate(487.77 198.82)" fill="#5147ae"/>
          </g>
        </g>
        <path id="Trazado_772751" data-name="Trazado 772751" d="M10.18,15H8.2L3.133,6.93V15H1.156V3.625H3.133l5.086,8.1v-8.1H10.18Zm1.8-4.3a4.984,4.984,0,0,1,.492-2.238,3.6,3.6,0,0,1,1.383-1.531A3.9,3.9,0,0,1,15.9,6.391a3.692,3.692,0,0,1,2.777,1.1,4.333,4.333,0,0,1,1.152,2.922l.008.445a5.029,5.029,0,0,1-.48,2.234,3.551,3.551,0,0,1-1.375,1.523,3.925,3.925,0,0,1-2.066.539,3.667,3.667,0,0,1-2.863-1.191,4.563,4.563,0,0,1-1.074-3.176Zm1.9.164a3.406,3.406,0,0,0,.539,2.043,1.752,1.752,0,0,0,1.5.738,1.733,1.733,0,0,0,1.5-.75,3.762,3.762,0,0,0,.535-2.2,3.362,3.362,0,0,0-.551-2.031,1.856,1.856,0,0,0-2.973-.012A3.691,3.691,0,0,0,13.875,10.859Zm9.352-4.312.055.883a3.042,3.042,0,0,1,2.438-1.039,2.337,2.337,0,0,1,2.32,1.3,3,3,0,0,1,2.594-1.3,2.636,2.636,0,0,1,2.082.773,3.405,3.405,0,0,1,.7,2.281V15h-1.9V9.5a1.681,1.681,0,0,0-.352-1.18A1.539,1.539,0,0,0,30,7.945a1.581,1.581,0,0,0-1.059.348,1.833,1.833,0,0,0-.574.91l.008,5.8h-1.9V9.438a1.354,1.354,0,0,0-1.523-1.492,1.671,1.671,0,0,0-1.617.93V15h-1.9V6.547Zm19.555,4.313a5.078,5.078,0,0,1-.879,3.133,2.863,2.863,0,0,1-2.418,1.164,2.758,2.758,0,0,1-2.312-1.07L37.078,15H35.359V3h1.9V7.359a2.748,2.748,0,0,1,2.211-.969A2.9,2.9,0,0,1,41.9,7.539a5.162,5.162,0,0,1,.883,3.211Zm-1.9-.164A3.589,3.589,0,0,0,40.4,8.633a1.613,1.613,0,0,0-1.406-.687,1.763,1.763,0,0,0-1.734,1.078v3.484a1.781,1.781,0,0,0,1.75,1.1,1.6,1.6,0,0,0,1.375-.664,3.477,3.477,0,0,0,.5-2.008ZM48.8,8.281a4.7,4.7,0,0,0-.773-.062,1.741,1.741,0,0,0-1.758,1V15h-1.9V6.547H46.18l.047.945a2.139,2.139,0,0,1,1.906-1.1A1.777,1.777,0,0,1,48.8,6.5Zm4.773,6.875a3.928,3.928,0,0,1-2.926-1.137,4.124,4.124,0,0,1-1.121-3.027v-.234A5.072,5.072,0,0,1,50.012,8.5a3.716,3.716,0,0,1,1.371-1.551,3.625,3.625,0,0,1,1.969-.555,3.318,3.318,0,0,1,2.668,1.1,4.658,4.658,0,0,1,.941,3.117v.766H51.438a2.539,2.539,0,0,0,.7,1.656,2.1,2.1,0,0,0,1.543.609A2.571,2.571,0,0,0,55.8,12.586l1.023.977a3.418,3.418,0,0,1-1.355,1.176A4.244,4.244,0,0,1,53.57,15.156Zm-.227-7.242a1.6,1.6,0,0,0-1.262.547,2.835,2.835,0,0,0-.613,1.523h3.617V9.844A2.307,2.307,0,0,0,54.578,8.4,1.586,1.586,0,0,0,53.344,7.914Z" transform="translate(643 2085)" fill="#fff"/>
      </g>
      <g id="Grupo_1045371" data-name="Grupo 1045371" transform="translate(51 851.429)">
        <g id="Grupo_1022160" data-name="Grupo 1022160" transform="translate(-63 7)">
          <rect id="Rectángulo_372536" data-name="Rectángulo 372536" width="144" height="24" rx="12" transform="translate(699 2290)" fill="#221b6b"/>
        </g>
        <path id="Trazado_772759" data-name="Trazado 772759" d="M1.156,15V3.625H4.516A5.269,5.269,0,0,1,7.191,4.3,4.581,4.581,0,0,1,9,6.2a6.051,6.051,0,0,1,.641,2.828V9.6A6.026,6.026,0,0,1,9,12.445,4.526,4.526,0,0,1,7.16,14.336,5.513,5.513,0,0,1,4.43,15ZM3.133,5.219v8.2H4.422a2.968,2.968,0,0,0,2.387-.973,4.237,4.237,0,0,0,.848-2.793V9.023a4.347,4.347,0,0,0-.8-2.828,2.853,2.853,0,0,0-2.336-.977ZM11.07,10.7a4.984,4.984,0,0,1,.492-2.238,3.6,3.6,0,0,1,1.383-1.531,3.9,3.9,0,0,1,2.047-.535,3.692,3.692,0,0,1,2.777,1.1,4.333,4.333,0,0,1,1.152,2.922l.008.445a5.029,5.029,0,0,1-.48,2.234,3.551,3.551,0,0,1-1.375,1.523,3.925,3.925,0,0,1-2.066.539,3.667,3.667,0,0,1-2.863-1.191,4.563,4.563,0,0,1-1.074-3.176Zm1.9.164a3.406,3.406,0,0,0,.539,2.043,1.752,1.752,0,0,0,1.5.738,1.733,1.733,0,0,0,1.5-.75,3.762,3.762,0,0,0,.535-2.2,3.362,3.362,0,0,0-.551-2.031,1.856,1.856,0,0,0-2.973-.012A3.691,3.691,0,0,0,12.969,10.859Zm12.3,1.844a.861.861,0,0,0-.418-.773,4.445,4.445,0,0,0-1.387-.469,7.129,7.129,0,0,1-1.617-.516A2.158,2.158,0,0,1,20.43,8.953a2.25,2.25,0,0,1,.922-1.828A3.644,3.644,0,0,1,23.7,6.391a3.792,3.792,0,0,1,2.449.75,2.38,2.38,0,0,1,.934,1.945h-1.9a1.17,1.17,0,0,0-.406-.91A1.557,1.557,0,0,0,23.7,7.813a1.682,1.682,0,0,0-1.02.289.911.911,0,0,0-.395.773.769.769,0,0,0,.367.68,5.049,5.049,0,0,0,1.484.488,7.027,7.027,0,0,1,1.754.586,2.484,2.484,0,0,1,.945.816,2.082,2.082,0,0,1,.309,1.156,2.2,2.2,0,0,1-.945,1.848,4.031,4.031,0,0,1-2.477.707,4.371,4.371,0,0,1-1.852-.375A3.047,3.047,0,0,1,20.6,13.75a2.441,2.441,0,0,1-.453-1.414h1.844a1.338,1.338,0,0,0,.508,1.035,1.973,1.973,0,0,0,1.242.363,1.92,1.92,0,0,0,1.141-.285A.883.883,0,0,0,25.273,12.7ZM36.5,15.156a3.928,3.928,0,0,1-2.926-1.137,4.124,4.124,0,0,1-1.121-3.027v-.234A5.072,5.072,0,0,1,32.941,8.5a3.716,3.716,0,0,1,1.371-1.551,3.625,3.625,0,0,1,1.969-.555,3.318,3.318,0,0,1,2.668,1.1,4.658,4.658,0,0,1,.941,3.117v.766H34.367a2.539,2.539,0,0,0,.7,1.656,2.1,2.1,0,0,0,1.543.609,2.571,2.571,0,0,0,2.125-1.055l1.023.977A3.418,3.418,0,0,1,38.4,14.738,4.244,4.244,0,0,1,36.5,15.156Zm-.227-7.242a1.6,1.6,0,0,0-1.262.547A2.835,2.835,0,0,0,34.4,9.984h3.617V9.844A2.307,2.307,0,0,0,37.508,8.4,1.586,1.586,0,0,0,36.273,7.914Zm6.852-1.367.055.977a3.039,3.039,0,0,1,2.461-1.133q2.641,0,2.688,3.023V15h-1.9V9.523a1.741,1.741,0,0,0-.348-1.191,1.462,1.462,0,0,0-1.137-.387,1.829,1.829,0,0,0-1.711,1.039V15h-1.9V6.547Zm9.516-2.055V6.547h1.492V7.953H52.641v4.719a1.039,1.039,0,0,0,.191.7.888.888,0,0,0,.684.215,2.924,2.924,0,0,0,.664-.078v1.469a4.676,4.676,0,0,1-1.25.18q-2.187,0-2.187-2.414V7.953H49.352V6.547h1.391V4.492ZM57.6,15H55.7V6.547h1.9ZM55.586,4.352a1.008,1.008,0,0,1,.277-.727,1.048,1.048,0,0,1,.793-.289,1.061,1.061,0,0,1,.8.289,1,1,0,0,1,.281.727.977.977,0,0,1-.281.715,1.069,1.069,0,0,1-.8.285,1.056,1.056,0,0,1-.793-.285A.984.984,0,0,1,55.586,4.352Zm3.727,6.359a5.026,5.026,0,0,1,.906-3.137,2.9,2.9,0,0,1,2.43-1.184,2.759,2.759,0,0,1,2.172.938V3h1.9V15H65l-.094-.875a2.8,2.8,0,0,1-2.273,1.031,2.887,2.887,0,0,1-2.4-1.2A5.21,5.21,0,0,1,59.313,10.711Zm1.9.164a3.519,3.519,0,0,0,.5,2.012,1.61,1.61,0,0,0,1.41.723,1.793,1.793,0,0,0,1.7-1.039V8.961a1.766,1.766,0,0,0-1.687-1.016,1.622,1.622,0,0,0-1.422.73A3.919,3.919,0,0,0,61.211,10.875ZM73.75,15a2.93,2.93,0,0,1-.219-.789,3.193,3.193,0,0,1-4.3.219,2.325,2.325,0,0,1-.8-1.8,2.4,2.4,0,0,1,1-2.074A4.865,4.865,0,0,1,72.3,9.836h1.164V9.281A1.481,1.481,0,0,0,73.1,8.23a1.456,1.456,0,0,0-1.117-.395,1.672,1.672,0,0,0-1.062.324,1,1,0,0,0-.414.824h-1.9a2.107,2.107,0,0,1,.461-1.3,3.071,3.071,0,0,1,1.254-.949,4.4,4.4,0,0,1,1.77-.344,3.547,3.547,0,0,1,2.367.746,2.661,2.661,0,0,1,.906,2.1v3.813a4.321,4.321,0,0,0,.32,1.82V15Zm-2.086-1.367a2.159,2.159,0,0,0,1.059-.273,1.827,1.827,0,0,0,.746-.734V11.031H72.445a2.8,2.8,0,0,0-1.586.367,1.189,1.189,0,0,0-.531,1.039,1.109,1.109,0,0,0,.363.871A1.407,1.407,0,0,0,71.664,13.633ZM77,10.711a5.026,5.026,0,0,1,.906-3.137,2.9,2.9,0,0,1,2.43-1.184,2.759,2.759,0,0,1,2.172.938V3h1.9V15H82.688l-.094-.875a2.8,2.8,0,0,1-2.273,1.031,2.887,2.887,0,0,1-2.4-1.2A5.21,5.21,0,0,1,77,10.711Zm1.9.164a3.519,3.519,0,0,0,.5,2.012,1.61,1.61,0,0,0,1.41.723,1.793,1.793,0,0,0,1.7-1.039V8.961A1.766,1.766,0,0,0,80.82,7.945a1.622,1.622,0,0,0-1.422.73A3.918,3.918,0,0,0,78.9,10.875Zm11.211,4.281a3.928,3.928,0,0,1-2.926-1.137,4.124,4.124,0,0,1-1.121-3.027v-.234A5.072,5.072,0,0,1,86.551,8.5a3.716,3.716,0,0,1,1.371-1.551,3.625,3.625,0,0,1,1.969-.555,3.318,3.318,0,0,1,2.668,1.1,4.658,4.658,0,0,1,.941,3.117v.766H87.977a2.539,2.539,0,0,0,.7,1.656,2.1,2.1,0,0,0,1.543.609,2.571,2.571,0,0,0,2.125-1.055l1.023.977a3.418,3.418,0,0,1-1.355,1.176A4.244,4.244,0,0,1,90.109,15.156Zm-.227-7.242a1.6,1.6,0,0,0-1.262.547,2.835,2.835,0,0,0-.613,1.523h3.617V9.844A2.307,2.307,0,0,0,91.117,8.4,1.586,1.586,0,0,0,89.883,7.914ZM99.711,12.7a.861.861,0,0,0-.418-.773,4.445,4.445,0,0,0-1.387-.469,7.129,7.129,0,0,1-1.617-.516,2.158,2.158,0,0,1-1.422-1.992,2.25,2.25,0,0,1,.922-1.828,3.644,3.644,0,0,1,2.344-.734,3.792,3.792,0,0,1,2.449.75,2.38,2.38,0,0,1,.934,1.945h-1.9a1.17,1.17,0,0,0-.406-.91,1.557,1.557,0,0,0-1.078-.363,1.682,1.682,0,0,0-1.02.289.911.911,0,0,0-.395.773.769.769,0,0,0,.367.68,5.049,5.049,0,0,0,1.484.488,7.027,7.027,0,0,1,1.754.586,2.484,2.484,0,0,1,.945.816,2.082,2.082,0,0,1,.309,1.156,2.2,2.2,0,0,1-.945,1.848,4.031,4.031,0,0,1-2.477.707,4.371,4.371,0,0,1-1.852-.375,3.047,3.047,0,0,1-1.266-1.031,2.441,2.441,0,0,1-.453-1.414H96.43a1.338,1.338,0,0,0,.508,1.035,1.973,1.973,0,0,0,1.242.363,1.92,1.92,0,0,0,1.141-.285A.883.883,0,0,0,99.711,12.7Z" transform="translate(663.5 2299.5)" fill="#fff"/>
      </g>
      <g id="Grupo_1045376" data-name="Grupo 1045376">
        <g id="Grupo_1045372" data-name="Grupo 1045372" transform="translate(18.696 21.825)">
          <g id="Rectángulo_373208" data-name="Rectángulo 373208" transform="translate(461.304 3100.174)" fill="#5147ae" stroke="#211a6a" stroke-width="3">
            <rect width="128" height="128" stroke="none"/>
            <rect x="1.5" y="1.5" width="125" height="125" fill="none"/>
          </g>
          <g id="Rectángulo_373209" data-name="Rectángulo 373209" transform="translate(470.304 3109.174)" fill="#5147ae" stroke="#211a6a" stroke-width="3">
            <rect width="110" height="110" stroke="none"/>
            <rect x="1.5" y="1.5" width="107" height="107" fill="none"/>
          </g>
        </g>
        <g id="Grupo_1045382" data-name="Grupo 1045382" transform="translate(0 -0.667)">
          <path id="Trazado_772752" data-name="Trazado 772752" d="M3.359,10.992V15H1.016V3.625H5.453a5.134,5.134,0,0,1,2.254.469A3.454,3.454,0,0,1,9.2,5.426a3.714,3.714,0,0,1,.523,1.965,3.266,3.266,0,0,1-1.145,2.637,4.767,4.767,0,0,1-3.168.965Zm0-1.9H5.453a2.059,2.059,0,0,0,1.418-.437,1.591,1.591,0,0,0,.488-1.25,1.876,1.876,0,0,0-.492-1.352,1.839,1.839,0,0,0-1.359-.531H3.359Zm11.617,6.063a4.15,4.15,0,0,1-3.027-1.141,4.054,4.054,0,0,1-1.168-3.039v-.219a5.106,5.106,0,0,1,.492-2.277,3.612,3.612,0,0,1,1.395-1.547,3.914,3.914,0,0,1,2.059-.543,3.508,3.508,0,0,1,2.73,1.094,4.444,4.444,0,0,1,1,3.1v.922H13.07a2.1,2.1,0,0,0,.66,1.328,2,2,0,0,0,1.395.5,2.437,2.437,0,0,0,2.039-.945l1.109,1.242A3.389,3.389,0,0,1,16.9,14.754,4.511,4.511,0,0,1,14.977,15.156Zm-.258-6.945a1.411,1.411,0,0,0-1.09.455,2.357,2.357,0,0,0-.535,1.3h3.141V9.788a1.681,1.681,0,0,0-.406-1.165A1.456,1.456,0,0,0,14.719,8.211Zm9.766.453a6.134,6.134,0,0,0-.812-.062,1.654,1.654,0,0,0-1.68.867V15H19.734V6.547h2.133l.063,1.008a2.092,2.092,0,0,1,1.883-1.164,2.366,2.366,0,0,1,.7.1Zm5.664,4a.727.727,0,0,0-.41-.652,4.659,4.659,0,0,0-1.316-.426q-3.016-.633-3.016-2.562a2.323,2.323,0,0,1,.934-1.879,3.766,3.766,0,0,1,2.441-.754,4.053,4.053,0,0,1,2.574.758,2.388,2.388,0,0,1,.965,1.969H30.063a1.092,1.092,0,0,0-.312-.8A1.322,1.322,0,0,0,28.773,8a1.351,1.351,0,0,0-.883.258.814.814,0,0,0-.312.656.7.7,0,0,0,.355.605,3.657,3.657,0,0,0,1.2.4,9.8,9.8,0,0,1,1.422.379,2.336,2.336,0,0,1,1.789,2.273,2.2,2.2,0,0,1-.992,1.871,4.28,4.28,0,0,1-2.562.715,4.47,4.47,0,0,1-1.887-.379,3.166,3.166,0,0,1-1.293-1.039,2.414,2.414,0,0,1-.469-1.426h2.141a1.179,1.179,0,0,0,.445.922,1.766,1.766,0,0,0,1.109.32,1.635,1.635,0,0,0,.98-.246A.766.766,0,0,0,30.148,12.664Zm3.3-1.969a5.013,5.013,0,0,1,.484-2.242A3.546,3.546,0,0,1,35.324,6.93a4.069,4.069,0,0,1,2.113-.539A3.849,3.849,0,0,1,40.23,7.438a4.2,4.2,0,0,1,1.207,2.844l.016.578a4.418,4.418,0,0,1-1.086,3.121,4.209,4.209,0,0,1-5.832,0,4.5,4.5,0,0,1-1.09-3.187Zm2.258.16a3.16,3.16,0,0,0,.453,1.843,1.628,1.628,0,0,0,2.578.008,3.457,3.457,0,0,0,.461-2.015,3.128,3.128,0,0,0-.461-1.831,1.5,1.5,0,0,0-1.3-.649,1.474,1.474,0,0,0-1.281.646A3.516,3.516,0,0,0,35.7,10.856Zm9.219-4.309.07.977a2.951,2.951,0,0,1,2.43-1.133,2.453,2.453,0,0,1,2,.789,3.682,3.682,0,0,1,.672,2.359V15H47.836V9.594a1.465,1.465,0,0,0-.312-1.043,1.4,1.4,0,0,0-1.039-.324,1.553,1.553,0,0,0-1.43.813V15H42.8V6.547ZM56.7,15a2.507,2.507,0,0,1-.227-.758,2.732,2.732,0,0,1-2.133.914,3,3,0,0,1-2.059-.719,2.312,2.312,0,0,1-.816-1.812,2.389,2.389,0,0,1,1-2.062,4.915,4.915,0,0,1,2.879-.727h1.039V9.352a1.393,1.393,0,0,0-.3-.937,1.183,1.183,0,0,0-.949-.352,1.345,1.345,0,0,0-.895.273.929.929,0,0,0-.324.75H51.656a2.268,2.268,0,0,1,.453-1.359,3,3,0,0,1,1.281-.98,4.669,4.669,0,0,1,1.859-.355,3.689,3.689,0,0,1,2.48.785,2.747,2.747,0,0,1,.918,2.207v3.664a4.041,4.041,0,0,0,.336,1.82V15Zm-1.867-1.57a1.945,1.945,0,0,0,.922-.223,1.462,1.462,0,0,0,.625-.6V11.156h-.844q-1.7,0-1.8,1.172l-.008.133a.9.9,0,0,0,.3.7A1.153,1.153,0,0,0,54.836,13.43Z" transform="translate(514 3172.667)" fill="#fff"/>
        </g>
      </g>
      <g id="Grupo_1045378" data-name="Grupo 1045378">
        <g id="Grupo_1045373" data-name="Grupo 1045373" transform="translate(472.696 21.825)">
          <g id="Rectángulo_373208-2" data-name="Rectángulo 373208" transform="translate(461.304 3100.174)" fill="#5147ae" stroke="#211a6a" stroke-width="3">
            <rect width="128" height="128" stroke="none"/>
            <rect x="1.5" y="1.5" width="125" height="125" fill="none"/>
          </g>
        </g>
        <g id="Grupo_1045375" data-name="Grupo 1045375" transform="translate(409.647 950.221)">
          <path id="Trazado_772758" data-name="Trazado 772758" d="M7.1,12.07a1.374,1.374,0,0,0-.527-1.156,6.345,6.345,0,0,0-1.9-.82,9.186,9.186,0,0,1-2.187-.922A2.919,2.919,0,0,1,.93,6.625,2.772,2.772,0,0,1,2.051,4.359a4.538,4.538,0,0,1,2.91-.891,4.916,4.916,0,0,1,2.117.438A3.475,3.475,0,0,1,8.539,5.152,3.2,3.2,0,0,1,9.07,6.945H7.1a1.782,1.782,0,0,0-.559-1.395,2.305,2.305,0,0,0-1.6-.5,2.408,2.408,0,0,0-1.5.414,1.379,1.379,0,0,0-.535,1.156A1.247,1.247,0,0,0,3.484,7.66a6.66,6.66,0,0,0,1.906.813,8.768,8.768,0,0,1,2.133.9A3.392,3.392,0,0,1,8.7,10.527a3.011,3.011,0,0,1,.375,1.527,2.707,2.707,0,0,1-1.09,2.262,4.727,4.727,0,0,1-2.957.84,5.557,5.557,0,0,1-2.27-.457,3.812,3.812,0,0,1-1.609-1.262,3.144,3.144,0,0,1-.574-1.875H2.555a1.84,1.84,0,0,0,.641,1.5,2.805,2.805,0,0,0,1.836.531,2.437,2.437,0,0,0,1.551-.418A1.349,1.349,0,0,0,7.1,12.07Zm7.25,3.086a3.928,3.928,0,0,1-2.926-1.137A4.124,4.124,0,0,1,10.3,10.992v-.234A5.072,5.072,0,0,1,10.793,8.5a3.716,3.716,0,0,1,1.371-1.551,3.625,3.625,0,0,1,1.969-.555,3.318,3.318,0,0,1,2.668,1.1,4.658,4.658,0,0,1,.941,3.117v.766H12.219a2.539,2.539,0,0,0,.7,1.656,2.1,2.1,0,0,0,1.543.609,2.571,2.571,0,0,0,2.125-1.055l1.023.977a3.418,3.418,0,0,1-1.355,1.176A4.244,4.244,0,0,1,14.352,15.156Zm-.227-7.242a1.6,1.6,0,0,0-1.262.547,2.835,2.835,0,0,0-.613,1.523h3.617V9.844A2.307,2.307,0,0,0,15.359,8.4,1.586,1.586,0,0,0,14.125,7.914ZM22.25,9.328l1.609-2.781h2.109l-2.586,4.164L26.055,15H23.961l-1.687-2.891L20.594,15H18.484l2.672-4.289L18.578,6.547h2.094ZM26.594,10.7a4.984,4.984,0,0,1,.492-2.238,3.6,3.6,0,0,1,1.383-1.531,3.9,3.9,0,0,1,2.047-.535,3.692,3.692,0,0,1,2.777,1.1,4.333,4.333,0,0,1,1.152,2.922l.008.445a5.029,5.029,0,0,1-.48,2.234A3.551,3.551,0,0,1,32.6,14.617a3.925,3.925,0,0,1-2.066.539,3.667,3.667,0,0,1-2.863-1.191,4.563,4.563,0,0,1-1.074-3.176Zm1.9.164a3.406,3.406,0,0,0,.539,2.043,1.752,1.752,0,0,0,1.5.738,1.733,1.733,0,0,0,1.5-.75,3.762,3.762,0,0,0,.535-2.2,3.362,3.362,0,0,0-.551-2.031,1.856,1.856,0,0,0-2.973-.012A3.691,3.691,0,0,0,28.492,10.859Z" transform="translate(572.238 2222.69)" fill="#fff"/>
        </g>
      </g>
    </g>
  </g>
</svg>
