<svg xmlns="http://www.w3.org/2000/svg" xmlns:xlink="http://www.w3.org/1999/xlink" width="85" height="91" viewBox="0 0 85 91">
  <defs>
    <filter id="Elipse_7683" x="4" y="10" width="77" height="77" filterUnits="userSpaceOnUse">
      <feOffset dy="3" input="SourceAlpha"/>
      <feGaussianBlur stdDeviation="3" result="blur"/>
      <feFlood flood-opacity="0.161"/>
      <feComposite operator="in" in2="blur"/>
      <feComposite in="SourceGraphic"/>
    </filter>
  </defs>
  <g id="Grupo_1022749" data-name="Grupo 1022749" transform="translate(-180 -4719)">
    <g id="Grupo_1022747" data-name="Grupo 1022747" transform="translate(-1155 4299)">
      <rect id="Rect치ngulo_345292" data-name="Rect치ngulo 345292" width="85" height="91" rx="5" transform="translate(1335 420)" fill="#221b6b"/>
      <g id="Grupo_1003705" data-name="Grupo 1003705" transform="translate(1348.197 436.281)">
        <g transform="matrix(1, 0, 0, 1, -13.2, -16.28)" filter="url(#Elipse_7683)">
          <circle id="Elipse_7683-2" data-name="Elipse 7683" cx="29.5" cy="29.5" r="29.5" transform="translate(13 16)" fill="#362b9e"/>
        </g>
      </g>
    </g>
    <g id="Grupo_1006135" data-name="Grupo 1006135" transform="translate(192.433 4731.201)">
      <g id="empleado" transform="translate(6.003 0.845)">
        <path id="Trazado_738343" data-name="Trazado 738343" d="M165.72,24.591V20.939A13.313,13.313,0,0,0,153.282,7.515a13.07,13.07,0,0,0-13.7,13.055v4.021c0,6.766-1.124,10.721-1.691,12.286a.993.993,0,0,0,.472,1.216c2,1.066,7.462,3.792,12.279,4.595h4.021c4.817-.8,10.275-3.529,12.279-4.595a.993.993,0,0,0,.472-1.216C166.844,35.312,165.72,31.357,165.72,24.591Z" transform="translate(-128.586 -6.56)" fill="#826be9"/>
        <path id="Trazado_738344" data-name="Trazado 738344" d="M139.584,41.781V45.8c0,6.766-1.124,10.721-1.691,12.286a1,1,0,0,0,.477,1.218,48.431,48.431,0,0,0,11.268,4.4V43.792l-2.011-2.011a12.383,12.383,0,0,1-3.35-10.028A13.039,13.039,0,0,0,139.584,41.781Z" transform="translate(-128.59 -27.771)" fill="#6e55df"/>
        <rect id="Rect치ngulo_370133" data-name="Rect치ngulo 370133" width="10.053" height="13.07" transform="translate(19.037 29.09)" fill="#f3f1ff"/>
        <path id="Trazado_738345" data-name="Trazado 738345" d="M215.919,235.974a13.075,13.075,0,0,0,10.054,0v-4.022H215.919v4.022Z" transform="translate(-196.882 -202.861)" fill="#d5cef8"/>
        <path id="Trazado_738346" data-name="Trazado 738346" d="M145.084,290.444l-5.352-2.38-7.152,3.016-1.174,1.761a1,1,0,0,1-1.673,0l-1.174-1.761-7.043-3.016-5.352,2.38a6.032,6.032,0,0,0-3.579,5.679l.528,19.086h35.022l.528-19.086A6.032,6.032,0,0,0,145.084,290.444Z" transform="translate(-106.505 -251.936)" fill="#afa4e6"/>
        <g id="Grupo_1021459" data-name="Grupo 1021459" transform="translate(6.077 39.868)">
          <path id="Trazado_738347" data-name="Trazado 738347" d="M119.31,324.2l-5.051-6.313a6.017,6.017,0,0,0-1.674,4.318l.528,19.086h6.2V324.2Z" transform="translate(-112.583 -317.888)" fill="#826be9"/>
          <path id="Trazado_738348" data-name="Trazado 738348" d="M346.653,324.2l5.05-6.313a6.017,6.017,0,0,1,1.674,4.318l-.528,19.086h-6.2V324.2Z" transform="translate(-317.297 -317.888)" fill="#826be9"/>
        </g>
        <path id="Trazado_738349" data-name="Trazado 738349" d="M174.384,109.944a9.068,9.068,0,0,0,.427-2.516c.155-6.035-8.667-4.3-15.462-9.409a8.143,8.143,0,0,1-3.536,5.738c-.373.343-.815-1.005-1.321-1.005h-.725a1.969,1.969,0,0,0-.338.036,2.126,2.126,0,0,0-1.637,2.122v.727a2.112,2.112,0,0,0,1.552,2.088,1.99,1.99,0,0,0,.613.047.979.979,0,0,1,1.026.817,10.035,10.035,0,0,0,19.153,2.021C174.209,110.433,174.369,109.987,174.384,109.944Z" transform="translate(-140.798 -85.726)" fill="#f3f1ff"/>
        <path id="Trazado_738350" data-name="Trazado 738350" d="M158.828,132.769v-5.027c-1.005,0-3.016,2.011-3.016,2.011s-1.005-1.005-1.321-1.005h-.725a1.97,1.97,0,0,0-.337.036,2.125,2.125,0,0,0-1.638,2.121v.729a2.112,2.112,0,0,0,1.552,2.087,2,2,0,0,0,.613.048.979.979,0,0,1,1.026.817,10.017,10.017,0,0,0,11.872,8.033A10.057,10.057,0,0,1,158.828,132.769Z" transform="translate(-140.797 -111.721)" fill="#d5cef8"/>
        <g id="Grupo_1021460" data-name="Grupo 1021460" transform="translate(15.016 34.021)">
          <path id="Trazado_738351" data-name="Trazado 738351" d="M185.794,277.246l-1.939-3.877,2.185-1.866a1,1,0,0,1,1.469.177l3.383,4.7-2.094,1.57A2.011,2.011,0,0,1,185.794,277.246Z" transform="translate(-183.855 -271.262)" fill="#6e55df"/>
          <path id="Trazado_738352" data-name="Trazado 738352" d="M277.13,277.246l1.939-3.877-2.185-1.866a1.006,1.006,0,0,0-1.469.177l-3.383,4.7,2.094,1.57A2.011,2.011,0,0,0,277.13,277.246Z" transform="translate(-260.972 -271.262)" fill="#6e55df"/>
        </g>
        <path id="Trazado_738353" data-name="Trazado 738353" d="M169.816,378.305H147.482a2.011,2.011,0,0,1-2.008-1.9l-.782-14.075a2.011,2.011,0,0,1,2.008-2.122h23.9a2.011,2.011,0,0,1,2.008,2.122l-.782,14.075A2.011,2.011,0,0,1,169.816,378.305Z" transform="translate(-134.585 -315.033)" fill="#dbd9dc"/>
        <circle id="Elipse_7730" data-name="Elipse 7730" cx="2.513" cy="2.513" r="2.513" transform="translate(21.55 52.213)" fill="#fff"/>
        <path id="Trazado_738354" data-name="Trazado 738354" d="M111.316,62.332h-4.59l.5-18.119a6.95,6.95,0,0,0-4.137-6.564l-5.352-2.38a.948.948,0,0,0-.1-.037l-.756-.646a47.625,47.625,0,0,0,6.81-2.644.943.943,0,0,0,.422-1.259c-.019-.039-1.913-3.995-1.913-12.652V14.01a14.01,14.01,0,0,0-28.02,0v4.021c0,8.657-1.894,12.613-1.911,12.649a.941.941,0,0,0,.421,1.262A47.606,47.606,0,0,0,79.5,34.586l-.858.733L73.4,37.649a6.95,6.95,0,0,0-4.137,6.564l.5,18.119h-4.7a.941.941,0,0,0,0,1.881h46.246a.941.941,0,1,0,0-1.881Zm-5.969-18.171-.5,18.171H102.11a2.944,2.944,0,0,0,.2-.906l.782-14.075a2.937,2.937,0,0,0-1.216-2.552l2.738-3.422A5.085,5.085,0,0,1,105.347,44.161ZM94.461,39.584a1.07,1.07,0,0,1-1.6.378l-1.356-1.017,2.886-4.014,1.679,1.434Zm-5.021-.99-.009.014-.01.013-1.174,1.761a.065.065,0,0,1-.108,0l-1.174-1.761-.01-.013-.009-.014-2.839-3.948V31.253a10.959,10.959,0,0,0,8.172,0v3.4Zm-7.446-3.664,2.886,4.014-1.356,1.017a1.07,1.07,0,0,1-1.6-.377h0l-1.609-3.219Zm6.2-33.05A12.143,12.143,0,0,1,100.322,14.01v4.021c0,6.872,1.138,10.926,1.743,12.6a47.926,47.926,0,0,1-6.9,2.493l-.334-.285a.94.94,0,0,0-.676-.222V30.276a10.986,10.986,0,0,0,4.082-4.787,10.035,10.035,0,0,0,.841-3.763c.109-4.242-3.531-5.317-7.384-6.455-3.228-.953-6.887-2.033-9.887-4.952A.941.941,0,0,0,80.5,11.668c3.334,3.243,7.4,4.443,10.666,5.408,4.125,1.218,6.105,1.922,6.036,4.6a8.136,8.136,0,0,1-.681,3.051,9.1,9.1,0,0,1-17.279-2.023,1.958,1.958,0,0,0-2.035-1.6,1.057,1.057,0,0,1-.321-.027,1.185,1.185,0,0,1-.822-1.172v-.772a1.14,1.14,0,0,1,.869-1.154,1.066,1.066,0,0,1,1.049.4,1.364,1.364,0,0,0,1.876.3,7.715,7.715,0,0,0,2.073-2.19.941.941,0,0,0-1.589-1.007,5.9,5.9,0,0,1-1.208,1.383,2.959,2.959,0,0,0-2.526-.737,2.817,2.817,0,0,0-.544.154V14.01A12.143,12.143,0,0,1,88.193,1.881ZM74.32,30.629A31.464,31.464,0,0,0,75.873,22.7a2.737,2.737,0,0,0,.579.212,2.94,2.94,0,0,0,.881.073.127.127,0,0,1,.058.059,10.966,10.966,0,0,0,4.834,7.233v2.336a.94.94,0,0,0-.676.222l-.334.285A47.939,47.939,0,0,1,74.32,30.629Zm-.151,8.739L78.7,37.351l1.537,3.075h0a2.951,2.951,0,0,0,4.411,1.041l1.3-.974.623.934a1.946,1.946,0,0,0,3.238,0l.623-.934,1.3.974a2.952,2.952,0,0,0,4.411-1.041h0L97.7,37.311l4.625,2.057a5.126,5.126,0,0,1,1.008.594l-3.419,4.274H76.581l-3.419-4.274A5.134,5.134,0,0,1,74.169,39.368Zm-3.021,4.793a5.084,5.084,0,0,1,.735-2.785l2.7,3.373a2.932,2.932,0,0,0-.483.41,2.963,2.963,0,0,0-.8,2.192l.782,14.075a2.944,2.944,0,0,0,.2.907H71.652Zm5.877,18.171a1.07,1.07,0,0,1-1.068-1.011l-.782-14.075a1.07,1.07,0,0,1,1.068-1.129h23.9a1.07,1.07,0,0,1,1.068,1.129l-.782,14.075a1.07,1.07,0,0,1-1.068,1.011H77.025Z" transform="translate(-64.129)"/>
        <path id="Trazado_738355" data-name="Trazado 738355" d="M231.913,408.822a3.454,3.454,0,1,0,3.454,3.454A3.458,3.458,0,0,0,231.913,408.822Zm0,5.027a1.573,1.573,0,1,1,1.573-1.573A1.575,1.575,0,0,1,231.913,413.849Z" transform="translate(-207.849 -357.549)"/>
      </g>
    </g>
  </g>
</svg>
