<svg xmlns="http://www.w3.org/2000/svg" xmlns:xlink="http://www.w3.org/1999/xlink" width="774" height="490.964" viewBox="0 0 774 490.964">
  <defs>
    <clipPath id="clip-path">
      <rect id="Rectángulo_344316" data-name="Rectángulo 344316" width="11.824" height="11.824" fill="none"/>
    </clipPath>
    <filter id="Trazado_738707" x="221.62" y="317.917" width="165.517" height="143.805" filterUnits="userSpaceOnUse">
      <feOffset dy="3" input="SourceAlpha"/>
      <feGaussianBlur stdDeviation="3" result="blur"/>
      <feFlood flood-opacity="0.161"/>
      <feComposite operator="in" in2="blur"/>
      <feComposite in="SourceGraphic"/>
    </filter>
    <filter id="Trazado_738708" x="221.62" y="407.193" width="74.319" height="69.579" filterUnits="userSpaceOnUse">
      <feOffset dy="3" input="SourceAlpha"/>
      <feGaussianBlur stdDeviation="3" result="blur-2"/>
      <feFlood flood-opacity="0.161"/>
      <feComposite operator="in" in2="blur-2"/>
      <feComposite in="SourceGraphic"/>
    </filter>
    <filter id="Trazado_738709" x="221.534" y="415.447" width="66.152" height="66.152" filterUnits="userSpaceOnUse">
      <feOffset dy="3" input="SourceAlpha"/>
      <feGaussianBlur stdDeviation="3" result="blur-3"/>
      <feFlood flood-opacity="0.161"/>
      <feComposite operator="in" in2="blur-3"/>
      <feComposite in="SourceGraphic"/>
    </filter>
    <filter id="Trazado_738711" x="212.635" y="156.244" width="117.538" height="191.39" filterUnits="userSpaceOnUse">
      <feOffset dy="3" input="SourceAlpha"/>
      <feGaussianBlur stdDeviation="3" result="blur-4"/>
      <feFlood flood-opacity="0.161"/>
      <feComposite operator="in" in2="blur-4"/>
      <feComposite in="SourceGraphic"/>
    </filter>
    <filter id="Trazado_738717" x="156" y="195.87" width="66.145" height="66.152" filterUnits="userSpaceOnUse">
      <feOffset dy="3" input="SourceAlpha"/>
      <feGaussianBlur stdDeviation="3" result="blur-5"/>
      <feFlood flood-opacity="0.161"/>
      <feComposite operator="in" in2="blur-5"/>
      <feComposite in="SourceGraphic"/>
    </filter>
    <filter id="Trazado_738712" x="260.324" y="81.277" width="242.956" height="88.651" filterUnits="userSpaceOnUse">
      <feOffset dy="3" input="SourceAlpha"/>
      <feGaussianBlur stdDeviation="3" result="blur-6"/>
      <feFlood flood-opacity="0.161"/>
      <feComposite operator="in" in2="blur-6"/>
      <feComposite in="SourceGraphic"/>
    </filter>
    <filter id="Trazado_738713" x="281.632" y="123.467" width="200.317" height="97.708" filterUnits="userSpaceOnUse">
      <feOffset dy="3" input="SourceAlpha"/>
      <feGaussianBlur stdDeviation="3" result="blur-7"/>
      <feFlood flood-opacity="0.161"/>
      <feComposite operator="in" in2="blur-7"/>
      <feComposite in="SourceGraphic"/>
    </filter>
    <filter id="Trazado_738719" x="346.528" y="57.194" width="66.152" height="66.159" filterUnits="userSpaceOnUse">
      <feOffset dy="3" input="SourceAlpha"/>
      <feGaussianBlur stdDeviation="3" result="blur-8"/>
      <feFlood flood-opacity="0.161"/>
      <feComposite operator="in" in2="blur-8"/>
      <feComposite in="SourceGraphic"/>
    </filter>
    <filter id="Trazado_738702" x="469.873" y="125.78" width="122.979" height="232.672" filterUnits="userSpaceOnUse">
      <feOffset dy="3" input="SourceAlpha"/>
      <feGaussianBlur stdDeviation="3" result="blur-9"/>
      <feFlood flood-opacity="0.161"/>
      <feComposite operator="in" in2="blur-9"/>
      <feComposite in="SourceGraphic"/>
    </filter>
    <filter id="Trazado_738703" x="433.414" y="156.245" width="117.54" height="191.383" filterUnits="userSpaceOnUse">
      <feOffset dy="3" input="SourceAlpha"/>
      <feGaussianBlur stdDeviation="3" result="blur-10"/>
      <feFlood flood-opacity="0.161"/>
      <feComposite operator="in" in2="blur-10"/>
      <feComposite in="SourceGraphic"/>
    </filter>
    <filter id="Trazado_738721" x="540.103" y="196.846" width="66.152" height="66.152" filterUnits="userSpaceOnUse">
      <feOffset dy="3" input="SourceAlpha"/>
      <feGaussianBlur stdDeviation="3" result="blur-11"/>
      <feFlood flood-opacity="0.161"/>
      <feComposite operator="in" in2="blur-11"/>
      <feComposite in="SourceGraphic"/>
    </filter>
    <filter id="Trazado_738705" x="376.451" y="317.812" width="165.518" height="143.924" filterUnits="userSpaceOnUse">
      <feOffset dy="3" input="SourceAlpha"/>
      <feGaussianBlur stdDeviation="3" result="blur-12"/>
      <feFlood flood-opacity="0.161"/>
      <feComposite operator="in" in2="blur-12"/>
      <feComposite in="SourceGraphic"/>
    </filter>
    <filter id="Trazado_738715" x="475.437" y="423.177" width="66.152" height="66.152" filterUnits="userSpaceOnUse">
      <feOffset dy="3" input="SourceAlpha"/>
      <feGaussianBlur stdDeviation="3" result="blur-13"/>
      <feFlood flood-opacity="0.161"/>
      <feComposite operator="in" in2="blur-13"/>
      <feComposite in="SourceGraphic"/>
    </filter>
  </defs>
  <g id="Grupo_1023210" data-name="Grupo 1023210" transform="translate(-419 -651)">
    <g id="Grupo_1021676" data-name="Grupo 1021676" transform="translate(469.449 781.676)">
      <g id="Grupo_1021670" data-name="Grupo 1021670" transform="translate(74.5 5.453)">
        <path id="Trazado_696473" data-name="Trazado 696473" d="M23-40,123.264,0V63.713l108.655,40" transform="translate(-13.867 5.913)" fill="none" stroke="#291a64" stroke-width="2"/>
        <g id="Grupo_1021677" data-name="Grupo 1021677">
          <g id="Grupo_896210" data-name="Grupo 896210" transform="translate(0 -35.999)" opacity="0.5" style="mix-blend-mode: multiply;isolation: isolate">
            <g id="Grupo_896209" data-name="Grupo 896209">
              <g id="Grupo_896208" data-name="Grupo 896208" clip-path="url(#clip-path)">
                <path id="Trazado_693630" data-name="Trazado 693630" d="M180.489,72.165a5.912,5.912,0,1,1-5.912-5.912,5.912,5.912,0,0,1,5.912,5.912" transform="translate(-168.665 -66.253)" fill="#939393"/>
              </g>
            </g>
          </g>
          <path id="Trazado_693631" data-name="Trazado 693631" d="M177.489,68.165a5.912,5.912,0,1,1-5.912-5.912,5.912,5.912,0,0,1,5.912,5.912" transform="translate(-162.665 -102.253)" fill="#907ee6"/>
        </g>
      </g>
    </g>
    <g id="Grupo_1021679" data-name="Grupo 1021679" transform="translate(543.949 914.755)">
      <g id="Grupo_1021670-2" data-name="Grupo 1021670" transform="translate(0)">
        <path id="Trazado_696473-2" data-name="Trazado 696473" d="M23,103.713l100.264-40V0L231.918-40" transform="translate(-13.867 40)" fill="none" stroke="#291a64" stroke-width="2"/>
        <g id="Grupo_1021677-2" data-name="Grupo 1021677" transform="translate(0 133.801)">
          <g id="Grupo_896210-2" data-name="Grupo 896210" opacity="0.5" style="mix-blend-mode: multiply;isolation: isolate">
            <g id="Grupo_896209-2" data-name="Grupo 896209">
              <g id="Grupo_896208-2" data-name="Grupo 896208" clip-path="url(#clip-path)">
                <path id="Trazado_693630-2" data-name="Trazado 693630" d="M180.489,72.165a5.912,5.912,0,1,0-5.912,5.912,5.912,5.912,0,0,0,5.912-5.912" transform="translate(-168.665 -66.253)" fill="#939393"/>
              </g>
            </g>
          </g>
          <path id="Trazado_693631-2" data-name="Trazado 693631" d="M177.489,68.165a5.912,5.912,0,1,0-5.912,5.912,5.912,5.912,0,0,0,5.912-5.912" transform="translate(-162.665 -58.252)" fill="#5b41d5"/>
        </g>
      </g>
    </g>
    <g id="Grupo_1021678" data-name="Grupo 1021678" transform="translate(843.229 747.129)">
      <g id="Grupo_1021670-3" data-name="Grupo 1021670" transform="translate(0 0)">
        <path id="Trazado_696473-3" data-name="Trazado 696473" d="M231.918-40,131.655,0V63.713L23,103.713" transform="translate(-23 45.913)" fill="none" stroke="#291a64" stroke-width="2"/>
        <g id="Grupo_1021677-3" data-name="Grupo 1021677" transform="translate(203.227)">
          <g id="Grupo_896210-3" data-name="Grupo 896210" transform="translate(3 4.001)" opacity="0.5" style="mix-blend-mode: multiply;isolation: isolate">
            <g id="Grupo_896209-3" data-name="Grupo 896209">
              <g id="Grupo_896208-3" data-name="Grupo 896208" clip-path="url(#clip-path)">
                <path id="Trazado_693630-3" data-name="Trazado 693630" d="M168.665,72.165a5.912,5.912,0,1,0,5.912-5.912,5.912,5.912,0,0,0-5.912,5.912" transform="translate(-168.665 -66.253)" fill="#939393"/>
              </g>
            </g>
          </g>
          <path id="Trazado_693631-3" data-name="Trazado 693631" d="M165.665,68.165a5.912,5.912,0,1,0,5.912-5.912,5.912,5.912,0,0,0-5.912,5.912" transform="translate(-165.665 -62.253)" fill="#907ee6"/>
        </g>
      </g>
    </g>
    <g id="Grupo_1021680" data-name="Grupo 1021680" transform="translate(843.229 914.755)">
      <g id="Grupo_1021670-4" data-name="Grupo 1021670" transform="translate(0 0)">
        <path id="Trazado_696473-4" data-name="Trazado 696473" d="M231.918,103.713l-100.264-40V0L23-40" transform="translate(-23 40)" fill="none" stroke="#291a64" stroke-width="2"/>
        <g id="Grupo_1021677-4" data-name="Grupo 1021677" transform="translate(203.227 133.801)">
          <g id="Grupo_896210-4" data-name="Grupo 896210" transform="translate(3 0)" opacity="0.5" style="mix-blend-mode: multiply;isolation: isolate">
            <g id="Grupo_896209-4" data-name="Grupo 896209">
              <g id="Grupo_896208-4" data-name="Grupo 896208" clip-path="url(#clip-path)">
                <path id="Trazado_693630-4" data-name="Trazado 693630" d="M168.665,72.165a5.912,5.912,0,1,1,5.912,5.912,5.912,5.912,0,0,1-5.912-5.912" transform="translate(-168.665 -66.253)" fill="#939393"/>
              </g>
            </g>
          </g>
          <path id="Trazado_693631-4" data-name="Trazado 693631" d="M165.665,68.165a5.912,5.912,0,1,1,5.912,5.912,5.912,5.912,0,0,1-5.912-5.912" transform="translate(-165.665 -58.252)" fill="#5c42d6"/>
        </g>
      </g>
    </g>
    <rect id="Rectángulo_373140" data-name="Rectángulo 373140" width="115" height="32" rx="5" transform="translate(419 736)" fill="#a796f8"/>
    <rect id="Rectángulo_373142" data-name="Rectángulo 373142" width="115" height="32" rx="5" transform="translate(1078 736)" fill="#a796f8"/>
    <rect id="Rectángulo_373144" data-name="Rectángulo 373144" width="115" height="32" rx="5" transform="translate(743 651)" fill="#a796f8"/>
    <rect id="Rectángulo_373141" data-name="Rectángulo 373141" width="115" height="32" rx="5" transform="translate(419 1042)" fill="#a796f8"/>
    <rect id="Rectángulo_373143" data-name="Rectángulo 373143" width="115" height="32" rx="5" transform="translate(1078 1042)" fill="#a796f8"/>
    <path id="Trazado_742307" data-name="Trazado 742307" d="M1.857,19V6.2H5.795a5.98,5.98,0,0,1,3.019.76,5.3,5.3,0,0,1,2.079,2.162,6.669,6.669,0,0,1,.747,3.186V12.9a6.688,6.688,0,0,1-.734,3.173,5.256,5.256,0,0,1-2.07,2.153A6.025,6.025,0,0,1,5.821,19ZM4.494,8.339v8.543H5.769a2.863,2.863,0,0,0,2.364-1.011,4.567,4.567,0,0,0,.835-2.892V12.3a4.64,4.64,0,0,0-.809-2.958A2.854,2.854,0,0,0,5.795,8.339ZM16.069,19H13.521V9.49h2.549Zm-2.7-11.971a1.251,1.251,0,0,1,.382-.94,1.436,1.436,0,0,1,1.042-.369,1.44,1.44,0,0,1,1.037.369,1.244,1.244,0,0,1,.387.94,1.247,1.247,0,0,1-.391.949,1.629,1.629,0,0,1-2.065,0A1.247,1.247,0,0,1,13.371,7.029ZM23.5,11.872a6.9,6.9,0,0,0-.914-.07,1.86,1.86,0,0,0-1.89.976V19h-2.54V9.49h2.4l.07,1.134a2.354,2.354,0,0,1,2.118-1.31,2.662,2.662,0,0,1,.791.114Zm5.6,7.3A4.668,4.668,0,0,1,25.7,17.893a4.561,4.561,0,0,1-1.314-3.419v-.246a5.745,5.745,0,0,1,.554-2.562,4.064,4.064,0,0,1,1.569-1.74,4.4,4.4,0,0,1,2.316-.611,3.947,3.947,0,0,1,3.072,1.23,5,5,0,0,1,1.121,3.489v1.037H26.959a2.36,2.36,0,0,0,.743,1.494,2.245,2.245,0,0,0,1.569.563,2.742,2.742,0,0,0,2.294-1.063l1.248,1.4a3.813,3.813,0,0,1-1.547,1.261A5.075,5.075,0,0,1,29.1,19.176Zm-.29-7.8a1.591,1.591,0,0,0-1.226.51,2.634,2.634,0,0,0-.6,1.459h3.533v-.2a1.878,1.878,0,0,0-.457-1.305A1.642,1.642,0,0,0,28.813,11.371Zm9.6,5.757a1.666,1.666,0,0,0,1.143-.387,1.355,1.355,0,0,0,.457-1.028h2.382a3.258,3.258,0,0,1-.527,1.771,3.48,3.48,0,0,1-1.419,1.248,4.442,4.442,0,0,1-1.991.444,4.129,4.129,0,0,1-3.217-1.3A5.13,5.13,0,0,1,34.061,14.3v-.167a5.071,5.071,0,0,1,1.169-3.507,4.08,4.08,0,0,1,3.208-1.31A4,4,0,0,1,41.3,10.33a3.594,3.594,0,0,1,1.094,2.7H40.011a1.731,1.731,0,0,0-.457-1.2,1.7,1.7,0,0,0-2.5.185,3.739,3.739,0,0,0-.453,2.1v.264a3.786,3.786,0,0,0,.448,2.109A1.55,1.55,0,0,0,38.411,17.128Zm9.387,0a1.666,1.666,0,0,0,1.143-.387,1.355,1.355,0,0,0,.457-1.028h2.382a3.258,3.258,0,0,1-.527,1.771,3.48,3.48,0,0,1-1.419,1.248,4.442,4.442,0,0,1-1.991.444,4.129,4.129,0,0,1-3.217-1.3A5.13,5.13,0,0,1,43.447,14.3v-.167a5.071,5.071,0,0,1,1.169-3.507,4.08,4.08,0,0,1,3.208-1.31,4,4,0,0,1,2.861,1.015,3.594,3.594,0,0,1,1.094,2.7H49.4a1.731,1.731,0,0,0-.457-1.2,1.7,1.7,0,0,0-2.5.185,3.739,3.739,0,0,0-.453,2.1v.264a3.786,3.786,0,0,0,.448,2.109A1.55,1.55,0,0,0,47.8,17.128ZM55.91,19H53.361V9.49H55.91Zm-2.7-11.971a1.251,1.251,0,0,1,.382-.94,1.648,1.648,0,0,1,2.079,0,1.244,1.244,0,0,1,.387.94,1.247,1.247,0,0,1-.391.949,1.629,1.629,0,0,1-2.065,0A1.247,1.247,0,0,1,53.212,7.029Zm4.395,7.128a5.64,5.64,0,0,1,.545-2.522A3.989,3.989,0,0,1,59.72,9.921,4.577,4.577,0,0,1,62.1,9.314a4.33,4.33,0,0,1,3.142,1.178,4.727,4.727,0,0,1,1.358,3.2l.018.65a4.97,4.97,0,0,1-1.222,3.511,4.735,4.735,0,0,1-6.561,0,5.058,5.058,0,0,1-1.226-3.586Zm2.54.185a3.545,3.545,0,0,0,.51,2.07,1.833,1.833,0,0,0,2.9.009,3.879,3.879,0,0,0,.519-2.263,3.51,3.51,0,0,0-.519-2.057,1.686,1.686,0,0,0-1.459-.729,1.659,1.659,0,0,0-1.441.725A3.944,3.944,0,0,0,60.146,14.342ZM62.6,5.5h2.769L62.933,8.225H60.867Zm7.919,3.99.079,1.1A3.32,3.32,0,0,1,73.33,9.314a2.759,2.759,0,0,1,2.25.888,4.142,4.142,0,0,1,.756,2.654V19H73.8V12.918a1.648,1.648,0,0,0-.352-1.173,1.574,1.574,0,0,0-1.169-.365,1.747,1.747,0,0,0-1.608.914V19h-2.54V9.49Z" transform="translate(438.5 739)" fill="#12263f"/>
    <path id="Trazado_742309" data-name="Trazado 742309" d="M11.2,14.737A4.528,4.528,0,0,1,9.67,17.989a5.355,5.355,0,0,1-3.625,1.187,4.816,4.816,0,0,1-3.872-1.657A6.793,6.793,0,0,1,.763,12.971v-.782a7.671,7.671,0,0,1,.65-3.252A4.874,4.874,0,0,1,3.272,6.779,5.207,5.207,0,0,1,6.08,6.027,5.217,5.217,0,0,1,9.648,7.214a4.866,4.866,0,0,1,1.564,3.331H8.576a2.673,2.673,0,0,0-.69-1.8A2.555,2.555,0,0,0,6.08,8.189a2.24,2.24,0,0,0-1.973.945,5.3,5.3,0,0,0-.672,2.931v.967a5.667,5.667,0,0,0,.628,3.032,2.2,2.2,0,0,0,1.982.958,2.6,2.6,0,0,0,1.824-.558,2.521,2.521,0,0,0,.69-1.727Zm1.169-.58a5.64,5.64,0,0,1,.545-2.522,3.989,3.989,0,0,1,1.569-1.714,4.577,4.577,0,0,1,2.377-.606A4.33,4.33,0,0,1,20,10.492a4.727,4.727,0,0,1,1.358,3.2l.018.65a4.97,4.97,0,0,1-1.222,3.511,4.247,4.247,0,0,1-3.278,1.323,4.268,4.268,0,0,1-3.283-1.318,5.058,5.058,0,0,1-1.226-3.586Zm2.54.185a3.545,3.545,0,0,0,.51,2.07,1.833,1.833,0,0,0,2.9.009,3.879,3.879,0,0,0,.519-2.263,3.51,3.51,0,0,0-.519-2.057,1.686,1.686,0,0,0-1.459-.729,1.659,1.659,0,0,0-1.441.725A3.944,3.944,0,0,0,14.9,14.342Zm13.377-2.47a6.9,6.9,0,0,0-.914-.07,1.86,1.86,0,0,0-1.89.976V19h-2.54V9.49h2.4l.07,1.134a2.354,2.354,0,0,1,2.118-1.31,2.662,2.662,0,0,1,.791.114Zm6.565,0a6.9,6.9,0,0,0-.914-.07,1.86,1.86,0,0,0-1.89.976V19H29.5V9.49h2.4l.07,1.134a2.354,2.354,0,0,1,2.118-1.31,2.662,2.662,0,0,1,.791.114Zm5.6,7.3a4.668,4.668,0,0,1-3.406-1.283,4.561,4.561,0,0,1-1.314-3.419v-.246a5.745,5.745,0,0,1,.554-2.562,4.064,4.064,0,0,1,1.569-1.74,4.4,4.4,0,0,1,2.316-.611,3.947,3.947,0,0,1,3.072,1.23,5,5,0,0,1,1.121,3.489v1.037H38.3a2.36,2.36,0,0,0,.743,1.494,2.245,2.245,0,0,0,1.569.563,2.742,2.742,0,0,0,2.294-1.063l1.248,1.4a3.813,3.813,0,0,1-1.547,1.261A5.075,5.075,0,0,1,40.445,19.176Zm-.29-7.8a1.591,1.591,0,0,0-1.226.51,2.634,2.634,0,0,0-.6,1.459H41.86v-.2a1.878,1.878,0,0,0-.457-1.305A1.642,1.642,0,0,0,40.155,11.371ZM45.4,14.157a5.64,5.64,0,0,1,.545-2.522,3.989,3.989,0,0,1,1.569-1.714,4.577,4.577,0,0,1,2.377-.606,4.33,4.33,0,0,1,3.142,1.178,4.727,4.727,0,0,1,1.358,3.2l.018.65a4.97,4.97,0,0,1-1.222,3.511,4.735,4.735,0,0,1-6.561,0A5.058,5.058,0,0,1,45.4,14.271Zm2.54.185a3.545,3.545,0,0,0,.51,2.07,1.833,1.833,0,0,0,2.9.009,3.879,3.879,0,0,0,.519-2.263,3.51,3.51,0,0,0-.519-2.057,1.686,1.686,0,0,0-1.459-.729,1.659,1.659,0,0,0-1.441.725A3.944,3.944,0,0,0,47.942,14.342Z" transform="translate(449 1046)" fill="#12263f"/>
    <path id="Trazado_742308" data-name="Trazado 742308" d="M11.549,19H8.912L3.779,10.58V19H1.143V6.2H3.779l5.142,8.438V6.2h2.628Zm1.74-4.843a5.64,5.64,0,0,1,.545-2.522A3.989,3.989,0,0,1,15.4,9.921a4.577,4.577,0,0,1,2.377-.606,4.33,4.33,0,0,1,3.142,1.178,4.727,4.727,0,0,1,1.358,3.2l.018.65a4.97,4.97,0,0,1-1.222,3.511A4.247,4.247,0,0,1,17.8,19.176a4.268,4.268,0,0,1-3.283-1.318,5.058,5.058,0,0,1-1.226-3.586Zm2.54.185a3.545,3.545,0,0,0,.51,2.07,1.833,1.833,0,0,0,2.9.009,3.879,3.879,0,0,0,.519-2.263,3.51,3.51,0,0,0-.519-2.057,1.686,1.686,0,0,0-1.459-.729,1.659,1.659,0,0,0-1.441.725A3.944,3.944,0,0,0,15.829,14.342ZM26.244,9.49l.079,1.063a3.342,3.342,0,0,1,2.733-1.239,2.536,2.536,0,0,1,2.522,1.45,3.265,3.265,0,0,1,2.856-1.45,2.836,2.836,0,0,1,2.3.9,4.141,4.141,0,0,1,.756,2.711V19H34.945V12.936a1.811,1.811,0,0,0-.316-1.182,1.4,1.4,0,0,0-1.116-.374,1.585,1.585,0,0,0-1.582,1.09L31.939,19H29.4V12.944a1.789,1.789,0,0,0-.325-1.2,1.416,1.416,0,0,0-1.107-.369,1.646,1.646,0,0,0-1.564.9V19h-2.54V9.49Zm21.771,4.843a5.758,5.758,0,0,1-.976,3.564,3.231,3.231,0,0,1-2.725,1.279,2.969,2.969,0,0,1-2.47-1.187L41.73,19H39.445V5.5h2.54v4.843A2.893,2.893,0,0,1,44.3,9.314a3.258,3.258,0,0,1,2.729,1.279,5.767,5.767,0,0,1,.989,3.6Zm-2.54-.185a3.783,3.783,0,0,0-.457-2.1,1.545,1.545,0,0,0-1.362-.664,1.676,1.676,0,0,0-1.67.993v3.753a1.7,1.7,0,0,0,1.688,1,1.568,1.568,0,0,0,1.617-1.213A6.257,6.257,0,0,0,45.475,14.148Zm9.448-2.276a6.9,6.9,0,0,0-.914-.07,1.86,1.86,0,0,0-1.89.976V19h-2.54V9.49h2.4l.07,1.134a2.354,2.354,0,0,1,2.118-1.31,2.662,2.662,0,0,1,.791.114Zm5.6,7.3a4.668,4.668,0,0,1-3.406-1.283A4.561,4.561,0,0,1,55.8,14.474v-.246a5.745,5.745,0,0,1,.554-2.562,4.064,4.064,0,0,1,1.569-1.74,4.4,4.4,0,0,1,2.316-.611,3.947,3.947,0,0,1,3.072,1.23,5,5,0,0,1,1.121,3.489v1.037H58.377a2.36,2.36,0,0,0,.743,1.494,2.245,2.245,0,0,0,1.569.563,2.742,2.742,0,0,0,2.294-1.063l1.248,1.4a3.813,3.813,0,0,1-1.547,1.261A5.075,5.075,0,0,1,60.521,19.176Zm-.29-7.8a1.591,1.591,0,0,0-1.226.51,2.634,2.634,0,0,0-.6,1.459h3.533v-.2a1.878,1.878,0,0,0-.457-1.305A1.642,1.642,0,0,0,60.231,11.371Z" transform="translate(1103 739.708)" fill="#12263f"/>
    <path id="Trazado_742310" data-name="Trazado 742310" d="M11.188,14.737a4.528,4.528,0,0,1-1.525,3.252,5.355,5.355,0,0,1-3.625,1.187,4.816,4.816,0,0,1-3.872-1.657A6.793,6.793,0,0,1,.756,12.971v-.782a7.671,7.671,0,0,1,.65-3.252A4.874,4.874,0,0,1,3.265,6.779a5.207,5.207,0,0,1,2.808-.751A5.217,5.217,0,0,1,9.642,7.214a4.866,4.866,0,0,1,1.564,3.331H8.569a2.673,2.673,0,0,0-.69-1.8,2.555,2.555,0,0,0-1.806-.558A2.24,2.24,0,0,0,4.1,9.134a5.3,5.3,0,0,0-.672,2.931v.967a5.667,5.667,0,0,0,.628,3.032,2.2,2.2,0,0,0,1.982.958,2.6,2.6,0,0,0,1.824-.558,2.521,2.521,0,0,0,.69-1.727Zm1.169-.58a5.64,5.64,0,0,1,.545-2.522,3.989,3.989,0,0,1,1.569-1.714,4.577,4.577,0,0,1,2.377-.606,4.33,4.33,0,0,1,3.142,1.178,4.727,4.727,0,0,1,1.358,3.2l.018.65a4.97,4.97,0,0,1-1.222,3.511,4.247,4.247,0,0,1-3.278,1.323,4.268,4.268,0,0,1-3.283-1.318,5.058,5.058,0,0,1-1.226-3.586Zm2.54.185a3.545,3.545,0,0,0,.51,2.07,1.833,1.833,0,0,0,2.9.009,3.879,3.879,0,0,0,.519-2.263,3.51,3.51,0,0,0-.519-2.057,1.686,1.686,0,0,0-1.459-.729,1.659,1.659,0,0,0-1.441.725A3.944,3.944,0,0,0,14.9,14.342ZM25.269,9.49l.079,1.1a3.32,3.32,0,0,1,2.733-1.274,2.759,2.759,0,0,1,2.25.888,4.142,4.142,0,0,1,.756,2.654V19h-2.54V12.918a1.648,1.648,0,0,0-.352-1.173,1.574,1.574,0,0,0-1.169-.365,1.747,1.747,0,0,0-1.608.914V19h-2.54V9.49ZM36.053,7.152V9.49h1.626v1.863H36.053V16.1a1.133,1.133,0,0,0,.2.756,1.015,1.015,0,0,0,.773.229,4.051,4.051,0,0,0,.747-.062v1.925a5.229,5.229,0,0,1-1.538.229,2.425,2.425,0,0,1-2.725-2.7V11.354H32.124V9.49h1.389V7.152ZM44.6,19a2.821,2.821,0,0,1-.255-.853,3.073,3.073,0,0,1-2.4,1.028,3.376,3.376,0,0,1-2.316-.809,2.6,2.6,0,0,1-.918-2.039,2.687,2.687,0,0,1,1.121-2.32,5.529,5.529,0,0,1,3.239-.817h1.169v-.545a1.567,1.567,0,0,0-.338-1.055,1.331,1.331,0,0,0-1.068-.4,1.513,1.513,0,0,0-1.006.308,1.045,1.045,0,0,0-.365.844h-2.54a2.551,2.551,0,0,1,.51-1.529,3.37,3.37,0,0,1,1.441-1.1,5.253,5.253,0,0,1,2.092-.4,4.15,4.15,0,0,1,2.791.883,3.09,3.09,0,0,1,1.033,2.483V16.8a4.546,4.546,0,0,0,.378,2.048V19Zm-2.1-1.767a2.188,2.188,0,0,0,1.037-.25,1.645,1.645,0,0,0,.7-.672V14.676h-.949q-1.907,0-2.03,1.318l-.009.149a1.017,1.017,0,0,0,.334.782A1.3,1.3,0,0,0,42.5,17.233Zm10.2-.105a1.666,1.666,0,0,0,1.143-.387,1.355,1.355,0,0,0,.457-1.028h2.382a3.258,3.258,0,0,1-.527,1.771,3.48,3.48,0,0,1-1.419,1.248,4.442,4.442,0,0,1-1.991.444,4.129,4.129,0,0,1-3.217-1.3A5.13,5.13,0,0,1,48.349,14.3v-.167a5.071,5.071,0,0,1,1.169-3.507,4.08,4.08,0,0,1,3.208-1.31,4,4,0,0,1,2.861,1.015,3.594,3.594,0,0,1,1.094,2.7H54.3a1.731,1.731,0,0,0-.457-1.2,1.7,1.7,0,0,0-2.5.185,3.739,3.739,0,0,0-.453,2.1v.264a3.786,3.786,0,0,0,.448,2.109A1.55,1.55,0,0,0,52.7,17.128Zm8.473-9.976V9.49H62.8v1.863H61.172V16.1a1.133,1.133,0,0,0,.2.756,1.015,1.015,0,0,0,.773.229,4.051,4.051,0,0,0,.747-.062v1.925a5.229,5.229,0,0,1-1.538.229,2.425,2.425,0,0,1-2.725-2.7V11.354H57.243V9.49h1.389V7.152Zm2.382,7a5.64,5.64,0,0,1,.545-2.522,3.989,3.989,0,0,1,1.569-1.714,4.577,4.577,0,0,1,2.377-.606,4.33,4.33,0,0,1,3.142,1.178,4.727,4.727,0,0,1,1.358,3.2l.018.65a4.97,4.97,0,0,1-1.222,3.511,4.735,4.735,0,0,1-6.561,0,5.058,5.058,0,0,1-1.226-3.586Zm2.54.185a3.545,3.545,0,0,0,.51,2.07,1.833,1.833,0,0,0,2.9.009,3.879,3.879,0,0,0,.519-2.263A3.51,3.51,0,0,0,69.5,12.1a1.686,1.686,0,0,0-1.459-.729A1.659,1.659,0,0,0,66.6,12.1,3.944,3.944,0,0,0,66.094,14.342Z" transform="translate(1097 1046.762)" fill="#12263f"/>
    <path id="Trazado_742306" data-name="Trazado 742306" d="M23.974,19H21.337V6.2h2.637Zm2.443,0V6.2h3.938a5.98,5.98,0,0,1,3.019.76,5.3,5.3,0,0,1,2.079,2.162,6.669,6.669,0,0,1,.747,3.186V12.9a6.688,6.688,0,0,1-.734,3.173,5.256,5.256,0,0,1-2.07,2.153A6.025,6.025,0,0,1,30.381,19ZM29.054,8.339v8.543h1.274a2.863,2.863,0,0,0,2.364-1.011,4.567,4.567,0,0,0,.835-2.892V12.3a4.64,4.64,0,0,0-.809-2.958,2.854,2.854,0,0,0-2.364-1.006Z" transform="translate(772 655)" fill="#12263f"/>
    <g id="Grupo_1021551" data-name="Grupo 1021551" transform="translate(798.679 688.278)">
      <g id="Grupo_896210-5" data-name="Grupo 896210" transform="translate(-5.679 4.001)" opacity="0.5" style="mix-blend-mode: multiply;isolation: isolate">
        <g id="Grupo_896209-5" data-name="Grupo 896209">
          <g id="Grupo_896208-5" data-name="Grupo 896208" clip-path="url(#clip-path)">
            <path id="Trazado_693630-5" data-name="Trazado 693630" d="M180.489,72.165a5.912,5.912,0,1,1-5.912-5.912,5.912,5.912,0,0,1,5.912,5.912" transform="translate(-168.665 -66.253)" fill="#939393"/>
          </g>
        </g>
      </g>
      <path id="Trazado_696473-5" data-name="Trazado 696473" d="M0,0H0V171.445H0" transform="translate(0.467 5.913)" fill="none" stroke="#150d36" stroke-width="2"/>
      <path id="Trazado_693631-5" data-name="Trazado 693631" d="M177.489,68.165a5.912,5.912,0,1,1-5.912-5.912,5.912,5.912,0,0,1,5.912,5.912" transform="translate(-171.344 -62.253)" fill="#a796f8"/>
    </g>
    <g id="Grupo_1021524" data-name="Grupo 1021524" transform="translate(723.902 852.604)">
      <path id="Trazado_738722" data-name="Trazado 738722" d="M347.551,284.985a76.225,76.225,0,1,1-76.225-76.225A76.23,76.23,0,0,1,347.551,284.985Z" transform="translate(-195.1 -197.473)" fill="#311c91"/>
      <path id="Trazado_738723" data-name="Trazado 738723" d="M317.3,218.749c0,14.213-11.036,25.8-24.646,25.729-17.375-.093-24.639-11.516-24.639-25.729s11.029-25.729,24.639-25.729S317.3,204.536,317.3,218.749Z" transform="translate(-215.731 -193.02)" fill="#684528"/>
      <path id="Trazado_738724" data-name="Trazado 738724" d="M290.25,263.7v4.31a47.613,47.613,0,0,0,6.956,4,2.294,2.294,0,0,0,1.829.065,54.8,54.8,0,0,0,8.01-4.138V263.7Z" transform="translate(-222.02 -213.017)" fill="#ea9f6c"/>
      <path id="Trazado_738725" data-name="Trazado 738725" d="M313,224.665a2.258,2.258,0,0,0-1.714.151c.6-5.758.939-11.559.065-12.936a23.045,23.045,0,0,0-18.4-10.62h0a23.064,23.064,0,0,0-18.4,10.62c-.868,1.355-.545,7.056.05,12.757a2.158,2.158,0,0,0-1.226.022c-1.692.574-2.287,3.349-1.327,6.2.789,2.345,2.388,4.008,3.865,4.209.237,1.613.394,2.625.394,2.625C279.8,246.931,289,251.477,292,252.746a2.415,2.415,0,0,0,1.829.036c2.9-1.212,12.255-5.758,15.776-15.095,0,0,.158-1,.394-2.617,1.6.108,3.442-1.635,4.317-4.209.968-2.847.387-5.622-1.305-6.2Z" transform="translate(-216.74 -195.351)" fill="#fcc397"/>
      <path id="Trazado_738726" data-name="Trazado 738726" d="M307.951,230.106c.495-.344,4.532-3.514,8.942-.4,2.675,1.886-1.377-.939-3.385-.7a11.331,11.331,0,0,0-5.1,2.022C307.736,231.49,307.284,230.58,307.951,230.106Z" transform="translate(-226.935 -203.015)" fill="#684528"/>
      <path id="Trazado_738727" data-name="Trazado 738727" d="M291.159,230.136c-.473-.344-4.367-3.463-8.669-.308-2.61,1.915,1.348-.954,3.291-.739a10.637,10.637,0,0,1,4.926,1.965c.645.459,1.1-.459.452-.918Z" transform="translate(-219.58 -203.038)" fill="#684528"/>
      <path id="Trazado_738728" data-name="Trazado 738728" d="M317.277,288.927c-1.771-3.277-5.392-5.292-7.931-5.292l-12.427-1.872c-3.793-1.305-7.314-5.328-7.314-7.759,0-.079-.029-6.755-.029-6.755a59.584,59.584,0,0,1-8.885,3.471,48.187,48.187,0,0,1-7.909-3.413s-.029,6.568-.029,6.647c0,2.481-4.166,6.6-8.2,7.823l-12.377,1.872c-2.524,0-7.121,3.019-8.677,7-2.409,5.407-6.066,16.227-14.987,37.769.588,7.522,8.512,12.449,13,7.565,3.8-4.137,9.53-19.827,12.685-29.049h55.05c4.74,7.974,11.8,20.738,11.875,26.109.065,4.4,12.083,7.185,11.818-4.08-.237-9.939-11.229-32.627-15.668-40.02Z" transform="translate(-204.552 -214.021)" fill="#fcc397"/>
      <path id="Trazado_738729" data-name="Trazado 738729" d="M292.475,236.886c-2.137.71-2.961,1.155-4.116,1.2-1.685.072-3.069-.889-3.069-1.943s1.37-1.907,3.055-1.907a5.73,5.73,0,0,1,4.13,2.653Z" transform="translate(-220.617 -204.682)" fill="#fff"/>
      <path id="Trazado_738730" data-name="Trazado 738730" d="M290.454,236.229a1.784,1.784,0,1,1-1.778-1.879A1.829,1.829,0,0,1,290.454,236.229Z" transform="translate(-221.069 -204.713)" fill="#7b9368"/>
      <path id="Trazado_738731" data-name="Trazado 738731" d="M290.187,236.206a1.21,1.21,0,1,1-1.212-1.276A1.237,1.237,0,0,1,290.187,236.206Z" transform="translate(-221.318 -204.877)"/>
      <path id="Trazado_738732" data-name="Trazado 738732" d="M290.967,236.3a.592.592,0,1,1-.574-.445A.524.524,0,0,1,290.967,236.3Z" transform="translate(-221.898 -205.14)" fill="#fff"/>
      <path id="Trazado_738733" data-name="Trazado 738733" d="M291.547,236.409c-1.384-2.474-4.5-2.574-6.525-1.821-1.786.66-2.13.316-2.2.222.029.688.932,2.094,2.854,2.8a2.1,2.1,0,0,1-1.011-1.09c.186-1.126,2.581-1.793,4.2-1.305,2.323.7,2.918,1.664,2.918,1.664a2.208,2.208,0,0,0-.229-.473Z" transform="translate(-219.918 -204.664)"/>
      <path id="Trazado_738734" data-name="Trazado 738734" d="M307.7,236.886c2.166.71,3,1.155,4.181,1.2,1.714.072,3.112-.889,3.112-1.943s-1.391-1.907-3.1-1.907a5.811,5.811,0,0,0-4.188,2.653Z" transform="translate(-226.957 -204.682)" fill="#fff"/>
      <path id="Trazado_738735" data-name="Trazado 738735" d="M311.2,236.229a1.808,1.808,0,1,0,1.807-1.879A1.843,1.843,0,0,0,311.2,236.229Z" transform="translate(-227.947 -204.713)" fill="#7b9368"/>
      <path id="Trazado_738736" data-name="Trazado 738736" d="M311.93,236.206a1.227,1.227,0,1,0,2.452,0,1.227,1.227,0,1,0-2.452,0Z" transform="translate(-228.154 -204.877)"/>
      <path id="Trazado_738737" data-name="Trazado 738737" d="M314.28,236.432a.6.6,0,1,0,.581-.452A.527.527,0,0,0,314.28,236.432Z" transform="translate(-228.819 -205.174)" fill="#fff"/>
      <path id="Trazado_738738" data-name="Trazado 738738" d="M316.783,234.82c-.072.086-.423.437-2.23-.222-2.058-.753-5.213-.653-6.626,1.821a1.949,1.949,0,0,0-.237.473s.6-.961,2.962-1.664c1.642-.488,4.066.179,4.259,1.305a2.105,2.105,0,0,1-1.025,1.09c1.169-.423,2.847-1.57,2.9-2.8Z" transform="translate(-226.954 -204.666)"/>
      <path id="Trazado_738739" data-name="Trazado 738739" d="M317.3,215.188c0-12.233-11.036-22.158-24.646-22.158s-24.639,9.924-24.639,22.158a23.756,23.756,0,0,0,2.581,11.251c-.158-2.008.495-3.679,1.764-4.109a1.967,1.967,0,0,1,.889-.086c.66,2.574,1.355,4.345,1.355,2.911,0-1.692.344-4.8.624-7.1a34.224,34.224,0,0,1,17.425-10.814c6.841,1.449,13.9,6.913,16.837,11.48.251,2.18.509,4.833.509,6.346,0,1.42.645-.3,1.262-2.825a2.015,2.015,0,0,1,.717.093c1.334.452,1.972,2.266,1.714,4.4a20.441,20.441,0,0,0,3.6-11.552Z" transform="translate(-215.731 -193.023)" fill="#7c5732"/>
      <path id="Trazado_738740" data-name="Trazado 738740" d="M301.372,249.744h-2.309a1.8,1.8,0,0,1-1.671-1.284,2.162,2.162,0,0,0-.122.724c0,1.1,1.348,1.456,2.345,1.456h1.226c1,0,2.345-.351,2.345-1.456a2.356,2.356,0,0,0-.122-.724,1.819,1.819,0,0,1-1.678,1.284Z" transform="translate(-224.006 -208.705)" fill="#ea9f6c"/>
      <path id="Trazado_738741" data-name="Trazado 738741" d="M272.46,236.365c-.014-.229.43-1.262,1-1.083.853.273,1.4,1.936,1.757,3.607s.194,2.883,0,2.438a24.5,24.5,0,0,0-1.535-4.561C273,235.5,272.6,238.164,272.46,236.365Z" transform="translate(-216.987 -204.971)" fill="#ea9f6c"/>
      <path id="Trazado_738742" data-name="Trazado 738742" d="M329.81,236.365c.022-.229-.43-1.262-1-1.083-.86.273-1.4,1.936-1.757,3.607s-.194,2.883,0,2.438a24.5,24.5,0,0,1,1.535-4.561C329.265,235.5,329.674,238.164,329.81,236.365Z" transform="translate(-232.373 -204.971)" fill="#ea9f6c"/>
      <path id="Trazado_738743" data-name="Trazado 738743" d="M288.655,246.38c-.452,1.427-2.675,1.993-4.962,1.276s-3.786-2.46-3.334-3.894,2.675-2,4.962-1.276S289.1,244.953,288.655,246.38Z" transform="translate(-219.199 -206.926)" fill="#ffb18a"/>
      <path id="Trazado_738744" data-name="Trazado 738744" d="M310.568,246.38c.452,1.427,2.675,1.993,4.962,1.276s3.779-2.46,3.334-3.894-2.675-2-4.962-1.276S310.116,244.953,310.568,246.38Z" transform="translate(-227.746 -206.926)" fill="#ffb18a"/>
      <path id="Trazado_738745" data-name="Trazado 738745" d="M318.055,289.478,307.585,287.9c.617,11.043-36.98,9.946-36.428.029L260.9,289.478c2.553,11.093.344,24.711.638,25.155a12.973,12.973,0,0,0,7.293,16.493,71.292,71.292,0,0,1,1.829,8.784,92.917,92.917,0,0,1,1.04,17.181,32.412,32.412,0,0,0-8.791,10.19,33.516,33.516,0,0,0-3.614,10.1A75.878,75.878,0,0,0,289.5,383.6a77.154,77.154,0,0,0,31.006-6.568,33.539,33.539,0,0,0-3.686-9.982,32.485,32.485,0,0,0-8.877-10.118,93.7,93.7,0,0,1,1.047-17.023,70.029,70.029,0,0,1,1.771-8.591,12.965,12.965,0,0,0,7.128-16.349c.244-.38-2.015-17.5.186-25.492Z" transform="translate(-213.261 -219.864)" fill="#091c33"/>
      <path id="Trazado_738746" data-name="Trazado 738746" d="M293.1,256.264c-.688-.287-.8-.165-.882-.065-.115.143-.151.129.294.724l.954,1.269s1.922,3.621,5.536,3.463a6.3,6.3,0,0,0,5.385-3.686c.158-.344.552-.875.66-1.068.351-.631.294-.645.208-.739-.244-.265-.272-.122-.724.108a31.862,31.862,0,0,1-11.43,0Z" transform="translate(-222.556 -210.844)" fill="#c6523c"/>
      <path id="Trazado_738747" data-name="Trazado 738747" d="M302.74,258.571c.86-.265,1.126-1.025,1.348-1.986a28.276,28.276,0,0,1-5.192.294,43.732,43.732,0,0,1-4.5-.308c.229,1.083.416,1.2,1.327,1.664-.717.036-.853.717-.753,1.506a7.361,7.361,0,0,0,4.51,1.8c2.266-.072,3.657-.731,4.41-1.8-.186-.5-.538-1.154-1.154-1.176Z" transform="translate(-223.194 -211)" fill="#fff"/>
      <path id="Trazado_738748" data-name="Trazado 738748" d="M293.72,256.314s.229.975,5.055.939c4.783-.036,5.78-.9,5.78-.9s-3.614-.416-5.572-.387c-1.814.029-5.256.344-5.256.344Z" transform="translate(-223.002 -210.829)" fill="#fc7365"/>
      <path id="Trazado_738749" data-name="Trazado 738749" d="M293.12,257.831a5.863,5.863,0,0,0,5.658,4.711c4.525.143,6.253-4.733,6.253-4.733a7.386,7.386,0,0,1-5.923,2.761,6.807,6.807,0,0,1-5.98-2.739Z" transform="translate(-222.832 -211.35)" fill="#fc7365"/>
      <path id="Trazado_738750" data-name="Trazado 738750" d="M245.713,320.37c-.466-.029-5.679-.459-5.887.452-.057.258-.115,1.527-.108,1.585-.351-.022-.688-.043-.939-.05-.839-.029-2.775-.115-2.488,1.37,0,.036.079.359.108.488a15.25,15.25,0,0,0-2.8,1.778c-.337.43-.194.667.108,1.463.774,2.015,1.965,4.575,2.359,5.414l-6.074,7.673.079-.014a5.523,5.523,0,0,0-.316.617c-1.233,3.019-.846,7.458,1.613,11.337,2.08,3.284,4.432,3.507,7.587.043a113.475,113.475,0,0,0,7.085-9.143v-22.9a.632.632,0,0,0-.315-.1Z" transform="translate(-204.711 -229.014)" fill="#ea9f6c"/>
      <path id="Trazado_738751" data-name="Trazado 738751" d="M247.191,327.271a2.664,2.664,0,0,1-1.4-.961,37.513,37.513,0,0,0-2.316,3.1s-4.589.717-5.349,1.872-2.209,1.054-1.9,2.366a4.675,4.675,0,0,0,.452.982c.724,1.269,2.137,3.205,3.155,4.661.516.746-8.956-.624-10.892,4.13-1.233,3.019-.846,7.458,1.613,11.337,2.079,3.284,5.945,3.506,9.093.036a116.6,116.6,0,0,0,7.544-9.8V327.278Z" transform="translate(-204.482 -230.73)" fill="#fcc397"/>
      <path id="Trazado_738752" data-name="Trazado 738752" d="M251.226,321.274c-.466-.029-5.708-.4-5.9.366a7.349,7.349,0,0,0-.1,1.922c.825.05,4.439.086,4.833.2s1.133,2.66,3.392,1.535c0,0-1-2.56-1.312-3.126S251.7,321.3,251.226,321.274Z" transform="translate(-209.277 -229.273)" fill="#fcc397"/>
      <path id="Trazado_738753" data-name="Trazado 738753" d="M248.247,324.388c-.072-.416-.624-.688-.947-.71-.294-.022-1.3-.108-2.123-.158a9.975,9.975,0,0,0,.33,3.141.5.5,0,0,1,.2.172c.136.229.287.8.552,1.413a1.946,1.946,0,0,0,1.879,1.126,5.59,5.59,0,0,0,.825-.079s-.617-4.245-.71-4.9Z" transform="translate(-209.267 -229.941)" fill="#ea9f6c"/>
      <path id="Trazado_738754" data-name="Trazado 738754" d="M245.771,324.158c-.387-.029-2.015-.158-2.854-.194s-2.775-.115-2.488,1.37c.007.043.265-.043.316-.057a1.26,1.26,0,0,1,1.3.129,31.928,31.928,0,0,1,2.18,2.66l-.645-1.635s.6-.28.8.043c.136.229.287.789.552,1.405a2.16,2.16,0,0,0,2.323,1.2s-.495-3.507-.617-3.973-.48-.925-.868-.961Z" transform="translate(-207.916 -230.063)" fill="#fcc397"/>
      <path id="Trazado_738755" data-name="Trazado 738755" d="M246.4,331.35a.519.519,0,0,1-.029-.05l.022.057h.014Z" transform="translate(-209.605 -232.142)" fill="#ba7a4f"/>
      <path id="Trazado_738756" data-name="Trazado 738756" d="M240.6,325.222a2.4,2.4,0,0,0-.473.251c.165.782.8,2.366,1.147,3.442.1.093.452.61.853,1,.782.767,2.868-.272,2.976-.316,0,0-2.8-3.879-3.205-4.252A1.259,1.259,0,0,0,240.6,325.222Z" transform="translate(-207.84 -230.388)" fill="#ea9f6c"/>
      <path id="Trazado_738757" data-name="Trazado 738757" d="M236.7,329.7c-.3-.8-.445-1.025-.108-1.463a15.987,15.987,0,0,1,3.091-1.907,1.272,1.272,0,0,1,1.305.129c.423.4,2.431,3.17,2.431,3.17s-1.843.8-2.646.007l-.8-.789-.48.452,1.535,2.5-2.237,2.424a41.177,41.177,0,0,1-2.072-4.518Z" transform="translate(-206.784 -230.702)" fill="#fcc397"/>
      <path id="Trazado_738758" data-name="Trazado 738758" d="M249.654,330.195l-.409-2.452a.611.611,0,0,0-.459.065c-.237.136.072,2.029.258,2.209a.971.971,0,0,0,.617.179Z" transform="translate(-210.265 -231.13)" fill="#e25c52"/>
      <path id="Trazado_738759" data-name="Trazado 738759" d="M245.643,330.248l-1.334-1.678a.548.548,0,0,0-.323.244c-.115.2.9,1.492,1.119,1.556A.876.876,0,0,0,245.643,330.248Z" transform="translate(-208.928 -231.37)" fill="#e25c52"/>
      <path id="Trazado_738760" data-name="Trazado 738760" d="M253.348,315.7h36.714a1.071,1.071,0,0,1,1.068,1.068v25.686a1.071,1.071,0,0,1-1.068,1.068H253.348a1.071,1.071,0,0,1-1.068-1.068V316.776a1.071,1.071,0,0,1,1.068-1.068Z" transform="translate(-211.277 -227.729)" fill="#565656"/>
      <path id="Trazado_738761" data-name="Trazado 738761" d="M293.1,334.049a1.938,1.938,0,0,0,1.527,1.664c1.391.28,5.973-.832,5.973-.832l3.786,3.542s3.026-.409,2.61-1.764c-1.255-1.126-3.42-3.521-4.166-3.987a3.355,3.355,0,0,0-2.761-.423c-1,.272-6.97,1.807-6.97,1.807Z" transform="translate(-222.826 -232.374)" fill="#fcc397"/>
      <path id="Trazado_738762" data-name="Trazado 738762" d="M350.652,344.23c-3.571-1.456-11.839-1.248-16.306.359-8.368,3-18.823.086-18.823.086h0c-.115-.179-6.59-6.224-6.59-6.224l-3.987.868-4.955,7.221a5.885,5.885,0,0,1,1.434.753c.516.409,6.3,4.941,8.756,4.941a4.35,4.35,0,0,0,1.212-.179c3.241,1.1,17.848,5.808,30.583,5.8,7.795-.007,8.211-1.793,10.5-4.439,1.19-5.17-.6-9.53-1.828-9.186Z" transform="translate(-224.776 -234.165)" fill="#fcc397"/>
      <path id="Trazado_738763" data-name="Trazado 738763" d="M293,334.555l2.567-.645a.639.639,0,0,1,.136.473c-.036.287-2.008.8-2.273.7s-.437-.531-.437-.531Z" transform="translate(-222.795 -232.881)" fill="#e26954"/>
      <path id="Trazado_738764" data-name="Trazado 738764" d="M300.693,346.437c-.531-.136-1.018-.265-1.47-.387a3.539,3.539,0,0,1-.294.287c-.653-.151-8.662-2.273-9.573-2.56-.208-.065-.445-.143-.667-.237a1.345,1.345,0,0,0-.308.437c-.208.774,1.083,1.377,1.979,1.742s8.956,3.169,9.609,3.392c.739-.423,2.825-2.144.724-2.675Z" transform="translate(-221.485 -235.605)" fill="#fcc397"/>
      <path id="Trazado_738765" data-name="Trazado 738765" d="M299.046,346.263a2.67,2.67,0,0,0,.294-.287c-2.252-.6-3.636-1.04-4.79-1.384-1.19-.359-3.32-.961-4.618-1.233a1.351,1.351,0,0,0-1.162.108c.229.093.459.165.667.237.911.287,8.956,2.409,9.6,2.56Z" transform="translate(-221.601 -235.532)" fill="#ea9f6c"/>
      <path id="Trazado_738766" data-name="Trazado 738766" d="M290.053,344.924a3.889,3.889,0,0,0,.373-.889,5.185,5.185,0,0,0-1.37-.574.46.46,0,0,0-.48.76,4.319,4.319,0,0,0,1.477.71Z" transform="translate(-221.508 -235.577)" fill="#e26954"/>
      <path id="Trazado_738767" data-name="Trazado 738767" d="M301.509,342.3c-3.729-.437-5.772-.81-7.422-1.068-1.42-.229-3.937-.6-5.464-.71-.538-.036-1.47.151-1.556.846-.122.918,1.449,1.405,2.531,1.685s10.749,2.51,11.523,2.668c.782-.6,2.883-3.126.394-3.42Z" transform="translate(-221.118 -234.749)" fill="#fcc397"/>
      <path id="Trazado_738768" data-name="Trazado 738768" d="M289.087,342.645a2.5,2.5,0,0,0,.251-1.061,6.462,6.462,0,0,0-1.75-.674c-.423-.036-.8.681-.287,1.154a4.988,4.988,0,0,0,1.785.581Z" transform="translate(-221.115 -234.861)" fill="#e26954"/>
      <path id="Trazado_738769" data-name="Trazado 738769" d="M300.1,339.122c-3.406-.057-5.285-.215-6.805-.316-1.3-.079-3.607-.194-5-.151-.495.014-1.226.294-1.248.99-.029.925,1.262,1.083,2.266,1.262.459.079,2.209.38,4.934.631,2.646.244,5.357.746,5.744.782C300.646,341.647,302.367,339.165,300.1,339.122Z" transform="translate(-221.114 -234.221)" fill="#ea9f6c"/>
      <path id="Trazado_738770" data-name="Trazado 738770" d="M301.342,338.641c-3.75.057-5.83-.043-7.5-.086-1.434-.036-3.98-.072-5.507.022-.538.029-1.434.344-1.434,1.04,0,.925,1.621,1.2,2.732,1.341.48.057,2.653.086,4.941.251,3.033.229,6.325.6,6.776.624.7-.7,2.5-3.234,0-3.191Z" transform="translate(-221.072 -234.184)" fill="#fcc397"/>
      <path id="Trazado_738771" data-name="Trazado 738771" d="M289.33,340.442a4.828,4.828,0,0,0,.158-1.291,7.029,7.029,0,0,0-1.993-.251.621.621,0,0,0-.351,1.162A5.829,5.829,0,0,0,289.33,340.442Z" transform="translate(-221.05 -234.292)" fill="#e26954"/>
      <path id="Trazado_738772" data-name="Trazado 738772" d="M302.66,204.723s11.315,2.194,15.023,8.548c-.61-1.492-2.108-5.945-13.589-9.551a31.6,31.6,0,0,1,16.514,6.934c-1.786-2.452-3.664-4.912-11.043-8.885,1.527-.172,7.422,2.3,8.261,3.012-.832-.925-1.162-2.538-7.816-5.665,2.5.509,7.787,3.27,9.257,4.188-4.353-5.278-12.083-7.35-16.6-7.343v8.763Z" transform="translate(-225.531 -193.852)" fill="#a07045"/>
      <path id="Trazado_738773" data-name="Trazado 738773" d="M294.63,204.652s-11.3,2.252-14.98,8.634c.6-1.492,2.072-5.959,13.538-9.623a31.649,31.649,0,0,0-16.478,7.02c1.771-2.46,3.643-4.934,11-8.942-1.527-.165-7.407,2.338-8.239,3.055.825-.925,1.147-2.546,7.78-5.708-2.5.531-7.766,3.313-9.236,4.238,4.324-5.3,11.767-7.364,16.285-7.386,0,1.735.323,8.705.323,8.705Z" transform="translate(-218.189 -193.846)" fill="#a07045"/>
      <path id="Trazado_738845" data-name="Trazado 738845" d="M3.6-3.859V0H.859V-11.375H5.4a5.287,5.287,0,0,1,2.309.48A3.621,3.621,0,0,1,9.262-9.527a3.734,3.734,0,0,1,.551,2.012,3.291,3.291,0,0,1-1.191,2.66,4.943,4.943,0,0,1-3.27,1Zm0-2.117H5.4a1.7,1.7,0,0,0,1.215-.4A1.48,1.48,0,0,0,7.031-7.5,1.83,1.83,0,0,0,6.6-8.773,1.522,1.522,0,0,0,5.43-9.258H3.6ZM15.242.156A4.345,4.345,0,0,1,12.094-1a4.006,4.006,0,0,1-1.2-3.02v-.219a5.191,5.191,0,0,1,.48-2.289,3.516,3.516,0,0,1,1.4-1.535,4.233,4.233,0,0,1,2.188-.543A3.659,3.659,0,0,1,17.773-7.5,4.344,4.344,0,0,1,18.8-4.422V-3.4H13.57a1.9,1.9,0,0,0,.617,1.117,1.836,1.836,0,0,0,1.234.406,2.366,2.366,0,0,0,1.953-.875l1.2,1.422A3.363,3.363,0,0,1,17.184-.246,4.713,4.713,0,0,1,15.242.156Zm-.3-6.734q-1.156,0-1.375,1.531h2.656v-.2a1.3,1.3,0,0,0-.32-.98A1.275,1.275,0,0,0,14.945-6.578Zm10.031.508-.867-.062a1.558,1.558,0,0,0-1.594.781V0H19.883V-8.453h2.469l.086,1.086a2.039,2.039,0,0,1,1.852-1.242,2.567,2.567,0,0,1,.734.094Zm5.375,3.7A.608.608,0,0,0,30-2.914a5.348,5.348,0,0,0-1.336-.422,6.092,6.092,0,0,1-1.625-.574,2.722,2.722,0,0,1-.977-.863,2.061,2.061,0,0,1-.336-1.164,2.336,2.336,0,0,1,.961-1.918A3.958,3.958,0,0,1,29.2-8.609a4.386,4.386,0,0,1,2.688.758,2.37,2.37,0,0,1,1.016,1.992H30.266q0-1.016-1.07-1.016a1.061,1.061,0,0,0-.7.23.714.714,0,0,0-.281.574.655.655,0,0,0,.344.57,3.248,3.248,0,0,0,1.1.359,9.486,9.486,0,0,1,1.324.336,2.406,2.406,0,0,1,1.906,2.352A2.214,2.214,0,0,1,31.863-.57,4.505,4.505,0,0,1,29.2.156a4.6,4.6,0,0,1-1.937-.391A3.24,3.24,0,0,1,25.938-1.3a2.406,2.406,0,0,1-.477-1.414h2.461a1.017,1.017,0,0,0,.391.855,1.607,1.607,0,0,0,.961.27,1.264,1.264,0,0,0,.809-.219A.7.7,0,0,0,30.352-2.375ZM33.789-4.3a4.989,4.989,0,0,1,.492-2.254A3.52,3.52,0,0,1,35.7-8.078a4.259,4.259,0,0,1,2.164-.531,3.887,3.887,0,0,1,2.992,1.176,4.512,4.512,0,0,1,1.094,3.2v.094A4.378,4.378,0,0,1,40.848-1,3.9,3.9,0,0,1,37.875.156a3.942,3.942,0,0,1-2.9-1.082A4.232,4.232,0,0,1,33.8-3.859Zm2.633.164a3.145,3.145,0,0,0,.367,1.719,1.223,1.223,0,0,0,1.086.547q1.406,0,1.438-2.164V-4.3q0-2.273-1.453-2.273-1.32,0-1.43,1.961Zm9.1-4.312.086.992a2.867,2.867,0,0,1,2.414-1.148A2.412,2.412,0,0,1,50-7.82a3.757,3.757,0,0,1,.676,2.375V0H48.031V-5.336a1.426,1.426,0,0,0-.258-.941,1.193,1.193,0,0,0-.937-.3,1.256,1.256,0,0,0-1.148.609V0H43.055V-8.453ZM56.891,0a2.973,2.973,0,0,1-.25-.758,2.448,2.448,0,0,1-2.031.914,3,3,0,0,1-2.031-.723,2.3,2.3,0,0,1-.836-1.816,2.364,2.364,0,0,1,1.016-2.078,5.174,5.174,0,0,1,2.953-.7h.813v-.448q0-1.17-1.008-1.17a.824.824,0,0,0-.937.926H51.945a2.36,2.36,0,0,1,1.043-1.99,4.383,4.383,0,0,1,2.66-.765A3.843,3.843,0,0,1,58.2-7.82a2.743,2.743,0,0,1,.961,2.164v3.742a3.832,3.832,0,0,0,.359,1.781V0ZM55.242-1.719a1.469,1.469,0,0,0,.816-.211,1.322,1.322,0,0,0,.465-.477V-3.758h-.766q-1.375,0-1.375,1.234a.754.754,0,0,0,.242.582A.876.876,0,0,0,55.242-1.719Z" transform="translate(46.098 147.104)" fill="#fff"/>
    </g>
    <g id="Grupo_1021520" data-name="Grupo 1021520" transform="translate(612.335 974.917)">
      <path id="Trazado_738706" data-name="Trazado 738706" d="M44.6,400.092,76.8,389.63A160.147,160.147,0,0,0,224.317,496.762v33.9a7.314,7.314,0,0,1-7.68,7.314c-44.056-2.319-84.291-18.161-116.589-44.553A200.512,200.512,0,0,1,40,409.644a7.323,7.323,0,0,1,4.589-9.566Z" transform="translate(-39.515 -370.957)" fill="#5c42d6"/>
      <g transform="matrix(1, 0, 0, 1, -193.34, -323.92)" filter="url(#Trazado_738707)">
        <path id="Trazado_738707-2" data-name="Trazado 738707" d="M91.51,382.27l56.262-18.293a7.779,7.779,0,0,1,9.5,4.138A93.491,93.491,0,0,0,232.6,422.577a7.264,7.264,0,0,1,6.425,7.257v59.561A160.157,160.157,0,0,1,91.51,382.263Z" transform="translate(139.11 -39.67)" fill="#fff"/>
      </g>
    </g>
    <g transform="matrix(1, 0, 0, 1, 419, 651)" filter="url(#Trazado_738708)">
      <path id="Trazado_738708-2" data-name="Trazado 738708" d="M115.5,488.09A32.28,32.28,0,0,0,91.51,498.76a195.552,195.552,0,0,0,49.945,40.909A32.31,32.31,0,0,0,115.5,488.09Z" transform="translate(139.11 -74.9)" fill="#f6f6f6"/>
    </g>
    <g transform="matrix(1, 0, 0, 1, 419, 651)" filter="url(#Trazado_738709)">
      <path id="Trazado_738709-2" data-name="Trazado 738709" d="M91.39,523.672a24.076,24.076,0,1,1,24.072,24.08A24.073,24.073,0,0,1,91.39,523.672Z" transform="translate(139.14 -78.15)" fill="#5c42d6"/>
    </g>
    <g id="gmail" transform="translate(701.365 960.317)">
      <rect id="Rectángulo_370159" data-name="Rectángulo 370159" width="27.482" height="27.482" transform="translate(4.895 64.236)" fill="#eceff1"/>
      <path id="Trazado_738843" data-name="Trazado 738843" d="M256,159.425l13.977,11.037V148.672Z" transform="translate(-237.365 -78.508)" fill="#cfd8dc"/>
      <path id="Trazado_738844" data-name="Trazado 738844" d="M33.777,64H32.612L18.635,75.037,4.659,64H3.494A3.5,3.5,0,0,0,0,67.494V88.459a3.5,3.5,0,0,0,3.494,3.494H4.659V70.164l13.977,10.75L32.612,70.161V91.953h1.165a3.5,3.5,0,0,0,3.494-3.494V67.494A3.5,3.5,0,0,0,33.777,64Z" transform="translate(0)" fill="#e23a05"/>
    </g>
    <g id="Grupo_1021521" data-name="Grupo 1021521" transform="translate(598.751 782.787)">
      <path id="Trazado_738710" data-name="Trazado 738710" d="M62.455,253.5a159.978,159.978,0,0,0,6.712,46l-32.2,10.462a7.31,7.31,0,0,1-9.329-5.041,202.427,202.427,0,0,1-4.726-83.532A195.573,195.573,0,0,1,43.1,160.325a202.348,202.348,0,0,1,52-63.053,7.327,7.327,0,0,1,10.52,1.413l19.928,27.428A159.842,159.842,0,0,0,62.455,253.5Z" transform="translate(-20.571 -95.656)" fill="#907ee6"/>
      <g transform="matrix(1, 0, 0, 1, -179.75, -131.79)" filter="url(#Trazado_738711)">
        <path id="Trazado_738711-2" data-name="Trazado 738711" d="M78.98,265.512a159.814,159.814,0,0,1,63.1-127.382l35.036,48.216A7.281,7.281,0,0,1,176.18,196a93.786,93.786,0,0,0-28.87,88.739,7.3,7.3,0,0,1-4.948,8.375L85.7,311.52a159.733,159.733,0,0,1-6.719-46Z" transform="translate(142.65 24.11)" fill="#fff"/>
      </g>
    </g>
    <path id="Trazado_738716" data-name="Trazado 738716" d="M63.143,215.331a32.334,32.334,0,0,1-39.3,31.559A195.574,195.574,0,0,1,44.033,185.83a32.363,32.363,0,0,1,19.117,29.5Z" transform="translate(577.255 661.619)" fill="#f6f6f6"/>
    <g transform="matrix(1, 0, 0, 1, 419, 651)" filter="url(#Trazado_738717)">
      <path id="Trazado_738717-2" data-name="Trazado 738717" d="M0,217.469a24.072,24.072,0,1,1,24.072,24.072A24.079,24.079,0,0,1,0,217.469Z" transform="translate(165 8.48)" fill="#907ee6"/>
    </g>
    <path id="Trazado_739196" data-name="Trazado 739196" d="M12.66,15.189a6.789,6.789,0,0,1-1.294,4.443A4.471,4.471,0,0,1,7.719,21.2a4.5,4.5,0,0,1-3.672-1.572,6.779,6.779,0,0,1-1.3-4.434v-2.6A6.789,6.789,0,0,1,4.042,8.148,4.483,4.483,0,0,1,7.7,6.586a4.484,4.484,0,0,1,3.662,1.572,6.8,6.8,0,0,1,1.3,4.443ZM9.369,12.172a5.071,5.071,0,0,0-.4-2.29A1.338,1.338,0,0,0,7.7,9.125a1.307,1.307,0,0,0-1.235.7,4.777,4.777,0,0,0-.415,2.129V15.59a5.109,5.109,0,0,0,.4,2.329,1.343,1.343,0,0,0,1.27.737,1.325,1.325,0,0,0,1.24-.718,4.878,4.878,0,0,0,.41-2.251Zm5.2,1.883.869-7.273h8.311V9.34H18.109l-.322,2.825a3.882,3.882,0,0,1,.923-.363,4.211,4.211,0,0,1,1.118-.157A4.171,4.171,0,0,1,23.085,12.9a5.055,5.055,0,0,1,1.138,3.521,5.046,5.046,0,0,1-.61,2.476A4.2,4.2,0,0,1,21.9,20.6a5.411,5.411,0,0,1-2.607.6,5.822,5.822,0,0,1-2.51-.551,4.5,4.5,0,0,1-1.836-1.512,3.675,3.675,0,0,1-.654-2.171h3.3a1.867,1.867,0,0,0,.5,1.238,1.581,1.581,0,0,0,1.182.458q1.66,0,1.66-2.456,0-2.271-2.031-2.271a2.027,2.027,0,0,0-1.719.741Z" transform="translate(594.139 863.154)" fill="#12263f"/>
    <g id="mapa" transform="translate(660.392 889.154)">
      <path id="Trazado_738818" data-name="Trazado 738818" d="M36.825,331.5l-5.3-12.836a.537.537,0,0,0-.5-.333H5.922a.537.537,0,0,0-.5.333L.124,331.5a.544.544,0,0,0,.049.508.536.536,0,0,0,.447.241H36.329a.536.536,0,0,0,.447-.241A.545.545,0,0,0,36.825,331.5Z" transform="translate(0 -295.453)" fill="#64b2ff"/>
      <path id="Trazado_738819" data-name="Trazado 738819" d="M406.388,332.249h1.71a.536.536,0,0,0,.447-.241.545.545,0,0,0,.049-.508l-5.3-12.836a.537.537,0,0,0-.5-.333h-2.158Z" transform="translate(-371.77 -295.453)" fill="#54a6f7"/>
      <g id="Grupo_1021555" data-name="Grupo 1021555" transform="translate(3.525 22.865)">
        <path id="Trazado_738820" data-name="Trazado 738820" d="M53.388,323.016l1.83-4.853h-4.87a.537.537,0,0,0-.5.333l-1.867,4.52Z" transform="translate(-47.985 -318.163)" fill="#46cc6e"/>
        <path id="Trazado_738821" data-name="Trazado 738821" d="M211.821,318.163H194.912l4.932,4.3h14.112l-1.639-3.967A.537.537,0,0,0,211.821,318.163Z" transform="translate(-184.353 -318.163)" fill="#46cc6e"/>
        <path id="Trazado_738822" data-name="Trazado 738822" d="M461.655,382.269l.1.246h0Z" transform="translate(-431.926 -377.662)" fill="#46cc6e"/>
      </g>
      <path id="Trazado_738823" data-name="Trazado 738823" d="M61.108,326.411l-1.631-3.947H45.366l-4.932-4.3H36.705l-1.785,4.3H30.1l-1.082,2.619-.549,1.33h4.821l-2.342,5.671h4.382L39.1,322.87l10.849,9.212h6.405l-6.484-5.671Z" transform="translate(-26.35 -295.298)" fill="#ffb000"/>
      <path id="Trazado_738824" data-name="Trazado 738824" d="M105.667,0a11.661,11.661,0,0,0-11.6,11.691A16.06,16.06,0,0,0,95.847,18.7a29.588,29.588,0,0,0,3.874,5.859,40.531,40.531,0,0,0,5.617,5.567.534.534,0,0,0,.658,0,40.54,40.54,0,0,0,5.617-5.567,29.582,29.582,0,0,0,3.874-5.859,16.06,16.06,0,0,0,1.784-7.008A11.661,11.661,0,0,0,105.667,0Zm0,7.244a4.447,4.447,0,1,1-4.414,4.447A4.431,4.431,0,0,1,105.667,7.244Z" transform="translate(-87.226)" fill="#e23a05"/>
      <path id="Trazado_738825" data-name="Trazado 738825" d="M240.91,0c-.382,0-.759.019-1.132.056A11.674,11.674,0,0,1,250.25,11.691a16.06,16.06,0,0,1-1.784,7.008,29.588,29.588,0,0,1-3.874,5.859,42.356,42.356,0,0,1-4.814,4.9c.473.407.767.638.8.666a.534.534,0,0,0,.658,0,40.538,40.538,0,0,0,5.617-5.567,29.582,29.582,0,0,0,3.874-5.859,16.06,16.06,0,0,0,1.784-7.008A11.661,11.661,0,0,0,240.91,0Z" transform="translate(-222.469)" fill="#c62b02"/>
      <path id="Trazado_738826" data-name="Trazado 738826" d="M123.941,392.87h14.612L127.7,383.658Z" transform="translate(-114.957 -356.086)" fill="#46cc6e"/>
      <path id="Trazado_738827" data-name="Trazado 738827" d="M424.884,378l1.631,3.947h2.516L427.4,378Z" transform="translate(-394.272 -350.836)" fill="#e39e05"/>
      <path id="Trazado_738828" data-name="Trazado 738828" d="M401.942,322.464h2.516L402.82,318.5a.537.537,0,0,0-.5-.333h-2.158Z" transform="translate(-371.331 -295.299)" fill="#37b45d"/>
    </g>
    <g id="Grupo_1021522" data-name="Grupo 1021522" transform="translate(688.324 738.277)">
      <g transform="matrix(1, 0, 0, 1, -269.32, -87.28)" filter="url(#Trazado_738712)">
        <path id="Trazado_738712-2" data-name="Trazado 738712" d="M369.03,76.812l-19.913,27.421a160.207,160.207,0,0,0-182.31,0l-19.92-27.421A7.305,7.305,0,0,1,148.8,66.385a202.7,202.7,0,0,1,74.777-29.759,196.149,196.149,0,0,1,38.5-3.005,193.923,193.923,0,0,1,25.925,2.288A202.255,202.255,0,0,1,367.13,66.385a7.312,7.312,0,0,1,1.907,10.426Z" transform="translate(123.84 53.7)" fill="#a796f8"/>
      </g>
      <g transform="matrix(1, 0, 0, 1, -269.32, -87.28)" filter="url(#Trazado_738713)">
        <path id="Trazado_738713-2" data-name="Trazado 738713" d="M175.207,120.881a160.207,160.207,0,0,1,182.31,0L322.5,169.1a7.273,7.273,0,0,1-9.487,2.08,93.853,93.853,0,0,0-93.292,0,7.281,7.281,0,0,1-9.487-2.08L175.2,120.881Z" transform="translate(115.43 37.05)" fill="#fff"/>
      </g>
    </g>
    <path id="Trazado_738718" data-name="Trazado 738718" d="M318.81,35.91a32.329,32.329,0,0,1-64.43.717A195.1,195.1,0,0,1,318.81,35.91Z" transform="translate(512.031 704.694)" fill="#f6f6f6"/>
    <g transform="matrix(1, 0, 0, 1, 419, 651)" filter="url(#Trazado_738719)">
      <path id="Trazado_738719-2" data-name="Trazado 738719" d="M265.7,24.08a24.076,24.076,0,1,1,24.072,24.08A24.079,24.079,0,0,1,265.7,24.08Z" transform="translate(89.83 63.19)" fill="#a796f8"/>
    </g>
    <path id="Trazado_739199" data-name="Trazado 739199" d="M12.66,15.189a6.789,6.789,0,0,1-1.294,4.443A4.471,4.471,0,0,1,7.719,21.2a4.5,4.5,0,0,1-3.672-1.572,6.779,6.779,0,0,1-1.3-4.434v-2.6A6.789,6.789,0,0,1,4.042,8.148,4.483,4.483,0,0,1,7.7,6.586a4.484,4.484,0,0,1,3.662,1.572,6.8,6.8,0,0,1,1.3,4.443ZM9.369,12.172a5.071,5.071,0,0,0-.4-2.29A1.338,1.338,0,0,0,7.7,9.125a1.307,1.307,0,0,0-1.235.7,4.777,4.777,0,0,0-.415,2.129V15.59a5.109,5.109,0,0,0,.4,2.329,1.343,1.343,0,0,0,1.27.737,1.325,1.325,0,0,0,1.24-.718,4.878,4.878,0,0,0,.41-2.251ZM21.664,21h-3.3V10.492l-3.242.947v-2.5l6.24-2.158h.3Z" transform="translate(785.628 724.11)" fill="#12263f"/>
    <g id="informacion-personal" transform="translate(751.626 794.11)">
      <path id="Trazado_738185" data-name="Trazado 738185" d="M277.84,383.12h-3.188L271,375.78l12.07,2.512v2.414Z" transform="translate(-220.688 -345.542)" fill="#a2abb8"/>
      <path id="Trazado_738186" data-name="Trazado 738186" d="M356,439.414h4.023a1.211,1.211,0,0,0,1.207-1.207V437H356Z" transform="translate(-298.848 -401.836)" fill="#c8d2dc"/>
      <path id="Trazado_738187" data-name="Trazado 738187" d="M198.3,46.7h4.426a1.211,1.211,0,0,1,1.207,1.207V74.485a1.211,1.211,0,0,1-1.207,1.207H182.207A1.211,1.211,0,0,1,181,74.485v-8.61Z" transform="translate(-137.93 -42.942)" fill="#e9edf1"/>
      <path id="Trazado_738188" data-name="Trazado 738188" d="M182.207,46.7H197.9V69.027a1.211,1.211,0,0,1-1.207,1.207h-3.219v5.458h-2.414L181,47.907A1.211,1.211,0,0,1,182.207,46.7Z" transform="translate(-137.93 -42.942)" fill="#c8d2dc"/>
      <g id="Grupo_1021289" data-name="Grupo 1021289" transform="translate(53.329 9.052)">
        <path id="Trazado_738189" data-name="Trazado 738189" d="M317.553,338.707H309.1a.6.6,0,1,1,0-1.207h8.449a.6.6,0,1,1,0,1.207Z" transform="translate(-308.5 -319.395)" fill="#a2abb8"/>
        <path id="Trazado_738190" data-name="Trazado 738190" d="M317.553,293.707H309.1a.6.6,0,1,1,0-1.207h8.449a.6.6,0,1,1,0,1.207Z" transform="translate(-308.5 -278.016)" fill="#a2abb8"/>
        <path id="Trazado_738191" data-name="Trazado 738191" d="M317.553,248.707H309.1a.6.6,0,1,1,0-1.207h8.449a.6.6,0,0,1,0,1.207Z" transform="translate(-308.5 -236.637)" fill="#a2abb8"/>
        <path id="Trazado_738192" data-name="Trazado 738192" d="M317.553,203.707H309.1a.6.6,0,1,1,0-1.207h8.449a.6.6,0,1,1,0,1.207Z" transform="translate(-308.5 -195.258)" fill="#a2abb8"/>
        <path id="Trazado_738193" data-name="Trazado 738193" d="M317.553,158.707H309.1a.6.6,0,1,1,0-1.207h8.449a.6.6,0,1,1,0,1.207Z" transform="translate(-308.5 -153.879)" fill="#a2abb8"/>
        <path id="Trazado_738194" data-name="Trazado 738194" d="M317.553,113.707H309.1a.6.6,0,1,1,0-1.207h8.449a.6.6,0,1,1,0,1.207Z" transform="translate(-308.5 -112.5)" fill="#a2abb8"/>
      </g>
      <path id="Trazado_738195" data-name="Trazado 738195" d="M32.207,91.7A1.211,1.211,0,0,0,31,92.907V123.68a.634.634,0,0,0,.632.632H53.3a.634.634,0,0,0,.632-.632V122.7Z" transform="translate(0 -84.321)" fill="#1a8bb8"/>
      <path id="Trazado_738196" data-name="Trazado 738196" d="M50.426,91.7H46v30.429a.576.576,0,0,0,.575.575H67.726V110.07Z" transform="translate(-13.793 -84.321)" fill="#34b5e8"/>
      <path id="Trazado_738197" data-name="Trazado 738197" d="M117.093,91.7H101v17.163a1.211,1.211,0,0,0,1.207,1.207H118.3V92.907A1.211,1.211,0,0,0,117.093,91.7Z" transform="translate(-64.367 -84.321)" fill="#1a8bb8"/>
      <path id="Trazado_738198" data-name="Trazado 738198" d="M140.312,24.14h-18.1A1.211,1.211,0,0,1,121,22.933V1.207A1.211,1.211,0,0,1,122.207,0h18.1a1.211,1.211,0,0,1,1.207,1.207V22.933A1.211,1.211,0,0,1,140.312,24.14Z" transform="translate(-82.758)" fill="#dce7ef"/>
      <path id="Trazado_738199" data-name="Trazado 738199" d="M161.458,182.544c-.734.534-4.492.534-5.226,0-1.28,1.725-5.233.786-5.233,4.941v1.969a.128.128,0,0,0,.128.128h15.435a.128.128,0,0,0,.128-.128v-1.969C166.691,183.33,162.738,184.269,161.458,182.544Z" transform="translate(-110.344 -167.855)" fill="#e23a05"/>
      <path id="Trazado_738200" data-name="Trazado 738200" d="M221.254,167.086a2.185,2.185,0,0,1-.4-1.353h-4.435a2.184,2.184,0,0,1-.4,1.353,4.441,4.441,0,0,0,5.226,0Z" transform="translate(-170.139 -152.397)" fill="#c62b02"/>
      <path id="Trazado_738201" data-name="Trazado 738201" d="M202.149,36.145a4.445,4.445,0,1,0-8.89,0v2.488a4.445,4.445,0,0,0,8.89,0Z" transform="translate(-149.203 -29.149)" fill="#e23a05"/>
    </g>
    <g id="Grupo_1021518" data-name="Grupo 1021518" transform="translate(861.414 782.78)">
      <g transform="matrix(1, 0, 0, 1, -442.41, -131.78)" filter="url(#Trazado_738702)">
        <path id="Trazado_738702-2" data-name="Trazado 738702" d="M535.62,304.914a7.31,7.31,0,0,1-9.329,5.041L494.08,299.493A160.264,160.264,0,0,0,437.71,126.1l19.935-27.428a7.317,7.317,0,0,1,10.512-1.413,202.3,202.3,0,0,1,52.175,63.383A195.693,195.693,0,0,1,540.446,222a202.448,202.448,0,0,1-4.819,82.916Z" transform="translate(41.16 36.13)" fill="#907ee6"/>
      </g>
      <g transform="matrix(1, 0, 0, 1, -442.41, -131.78)" filter="url(#Trazado_738703)">
        <path id="Trazado_738703-2" data-name="Trazado 738703" d="M388.274,186.346l35.036-48.216a160.29,160.29,0,0,1,56.377,173.382l-56.664-18.407a7.3,7.3,0,0,1-4.948-8.375,93.787,93.787,0,0,0-28.87-88.739,7.274,7.274,0,0,1-.932-9.652Z" transform="translate(55.55 24.11)" fill="#fff"/>
      </g>
    </g>
    <path id="Trazado_738720" data-name="Trazado 738720" d="M564.891,247.643a32.329,32.329,0,0,1-20.114-61.353,195.691,195.691,0,0,1,20.114,61.353Z" transform="translate(435.71 661.489)" fill="#f6f6f6"/>
    <g transform="matrix(1, 0, 0, 1, 419, 651)" filter="url(#Trazado_738721)">
      <path id="Trazado_738721-2" data-name="Trazado 738721" d="M535.65,218.829A24.076,24.076,0,1,1,559.722,242.9,24.079,24.079,0,0,1,535.65,218.829Z" transform="translate(13.45 8.1)" fill="#907ee6"/>
    </g>
    <path id="Trazado_739195" data-name="Trazado 739195" d="M12.66,15.189a6.789,6.789,0,0,1-1.294,4.443A4.471,4.471,0,0,1,7.719,21.2a4.5,4.5,0,0,1-3.672-1.572,6.779,6.779,0,0,1-1.3-4.434v-2.6A6.789,6.789,0,0,1,4.042,8.148,4.483,4.483,0,0,1,7.7,6.586a4.484,4.484,0,0,1,3.662,1.572,6.8,6.8,0,0,1,1.3,4.443ZM9.369,12.172a5.071,5.071,0,0,0-.4-2.29A1.338,1.338,0,0,0,7.7,9.125a1.307,1.307,0,0,0-1.235.7,4.777,4.777,0,0,0-.415,2.129V15.59a5.109,5.109,0,0,0,.4,2.329,1.343,1.343,0,0,0,1.27.737,1.325,1.325,0,0,0,1.24-.718,4.878,4.878,0,0,0,.41-2.251ZM24.291,21H14.369V18.852l4.57-4.8q1.689-1.924,1.689-3.057a2.126,2.126,0,0,0-.4-1.4,1.43,1.43,0,0,0-1.162-.479,1.447,1.447,0,0,0-1.221.64,2.629,2.629,0,0,0-.469,1.6h-3.3a4.67,4.67,0,0,1,.654-2.417A4.588,4.588,0,0,1,16.547,7.2a5.4,5.4,0,0,1,2.6-.625,5.308,5.308,0,0,1,3.55,1.064A3.8,3.8,0,0,1,23.939,10.7a4.439,4.439,0,0,1-.312,1.636A7.173,7.173,0,0,1,22.655,14a24.476,24.476,0,0,1-2.124,2.339L18.7,18.461h5.6Z" transform="translate(978.808 864.154)" fill="#12263f"/>
    <g id="Id_Card" data-name="Id Card" transform="translate(900.75 884.398)">
      <path id="Trazado_738829" data-name="Trazado 738829" d="M45.248,15.886c0,24.048.077,22.441-.173,23.086A2.886,2.886,0,0,1,42.362,40.9H3.886A2.886,2.886,0,0,1,1,38.009V15.886A2.886,2.886,0,0,1,3.886,13H42.362A2.886,2.886,0,0,1,45.248,15.886Z" transform="translate(0 -0.267)" fill="#a2abb8"/>
      <path id="Trazado_738830" data-name="Trazado 738830" d="M45.361,15.886c0,24.048.077,22.441-.173,23.086H6.885A2.886,2.886,0,0,1,4,36.086C4,12.038,3.923,13.644,4.173,13h38.3A2.886,2.886,0,0,1,45.361,15.886Z" transform="translate(-0.114 -0.267)" fill="#dce7ef"/>
      <path id="Trazado_738831" data-name="Trazado 738831" d="M32.314,9.848v5.771H15V9.848h5.771V8.886a2.886,2.886,0,1,1,5.771,0v.962Z" transform="translate(-0.533)" fill="#c62b02"/>
      <path id="Trazado_738832" data-name="Trazado 738832" d="M32.39,9.854V13.7H20.848A3.848,3.848,0,0,1,17,9.854h5.771V8.893A2.886,2.886,0,0,1,24.7,6.18a2.886,2.886,0,0,1,1.924,2.713v.962Z" transform="translate(-0.61 -0.007)" fill="#e23a05"/>
      <g id="Grupo_1021556" data-name="Grupo 1021556" transform="translate(23.124 21.39)">
        <path id="Trazado_738833" data-name="Trazado 738833" d="M42.276,27.924H24.962a.962.962,0,1,1,0-1.924H42.276a.962.962,0,1,1,0,1.924Z" transform="translate(-24 -22.152)" fill="#a2abb8"/>
        <path id="Trazado_738834" data-name="Trazado 738834" d="M34.581,23.924H24.962a.962.962,0,0,1,0-1.924h9.619a.962.962,0,0,1,0,1.924Z" transform="translate(-24 -22)" fill="#a2abb8"/>
        <path id="Trazado_738835" data-name="Trazado 738835" d="M42.276,31.924H24.962a.962.962,0,0,1,0-1.924H42.276a.962.962,0,0,1,0,1.924Z" transform="translate(-24 -22.305)" fill="#a2abb8"/>
        <path id="Trazado_738836" data-name="Trazado 738836" d="M42.276,35.924H24.962a.962.962,0,1,1,0-1.924H42.276a.962.962,0,1,1,0,1.924Z" transform="translate(-24 -22.457)" fill="#a2abb8"/>
      </g>
      <path id="Trazado_738837" data-name="Trazado 738837" d="M20.39,28.7a7.7,7.7,0,1,1-4.133-6.808A7.7,7.7,0,0,1,20.39,28.7Z" transform="translate(-0.152 -0.572)" fill="#1a8bb8"/>
      <path id="Trazado_738838" data-name="Trazado 738838" d="M20.467,28.7a7.57,7.57,0,0,1-1.385,4.386A7.57,7.57,0,0,1,14.7,34.467a7.7,7.7,0,0,1-6.31-12.081A7.7,7.7,0,0,1,20.467,28.7Z" transform="translate(-0.229 -0.572)" fill="#34b5e8"/>
      <path id="Trazado_738839" data-name="Trazado 738839" d="M15.771,27.886a2.886,2.886,0,1,1-1.706-2.637,2.886,2.886,0,0,1,1.706,2.637Z" transform="translate(-0.343 -0.724)" fill="#f6ccaf"/>
      <path id="Trazado_738840" data-name="Trazado 738840" d="M15.809,27.886a.962.962,0,0,1,0,.231A2.886,2.886,0,0,1,11,25.962a.962.962,0,0,1,0-.231,2.886,2.886,0,0,1,4.81,2.155Z" transform="translate(-0.381 -0.724)" fill="#ffdec7"/>
      <path id="Trazado_738841" data-name="Trazado 738841" d="M17.831,34.9a7.7,7.7,0,0,1-10.061,0C10.713,29.76,14.811,29.683,17.831,34.9Z" transform="translate(-0.258 -0.953)" fill="#c62b02"/>
      <path id="Trazado_738842" data-name="Trazado 738842" d="M17.55,34.328a7.7,7.7,0,0,1-8.08-1.606C12.385,29.75,15.309,30.866,17.55,34.328Z" transform="translate(-0.323 -0.953)" fill="#e23a05"/>
    </g>
    <g id="Grupo_1021519" data-name="Grupo 1021519" transform="translate(804.444 974.812)">
      <path id="Trazado_738704" data-name="Trazado 738704" d="M307.427,530.668v-33.9A160.157,160.157,0,0,0,454.945,389.64l32.2,10.462a7.324,7.324,0,0,1,4.589,9.566C462.919,484.674,395.348,533.766,315.1,538a7.318,7.318,0,0,1-7.68-7.314Z" transform="translate(-307.42 -370.854)" fill="#5c42d6"/>
      <g transform="matrix(1, 0, 0, 1, -385.44, -323.81)" filter="url(#Trazado_738705)">
        <path id="Trazado_738705-2" data-name="Trazado 738705" d="M307.43,489.36V429.8a7.26,7.26,0,0,1,6.432-7.257,93.5,93.5,0,0,0,75.508-54.864,7.262,7.262,0,0,1,8.892-3.872l56.685,18.429A160.147,160.147,0,0,1,307.43,489.367Z" transform="translate(78.02 -39.63)" fill="#fff"/>
      </g>
    </g>
    <path id="Trazado_738714" data-name="Trazado 738714" d="M466.289,498.867A32.318,32.318,0,0,0,437,544.839l.029-.014a195.488,195.488,0,0,0,49.751-38.615h0a32.188,32.188,0,0,0-20.494-7.35Z" transform="translate(461.221 573.057)" fill="#f6f6f6"/>
    <g transform="matrix(1, 0, 0, 1, 419, 651)" filter="url(#Trazado_738715)">
      <path id="Trazado_738715-2" data-name="Trazado 738715" d="M445.47,534.459a24.076,24.076,0,1,1,24.072,24.072A24.079,24.079,0,0,1,445.47,534.459Z" transform="translate(38.97 -81.2)" fill="#5b41d5"/>
    </g>
    <path id="Trazado_739198" data-name="Trazado 739198" d="M12.66,15.189a6.789,6.789,0,0,1-1.294,4.443A4.471,4.471,0,0,1,7.719,21.2a4.5,4.5,0,0,1-3.672-1.572,6.779,6.779,0,0,1-1.3-4.434v-2.6A6.789,6.789,0,0,1,4.042,8.148,4.483,4.483,0,0,1,7.7,6.586a4.484,4.484,0,0,1,3.662,1.572,6.8,6.8,0,0,1,1.3,4.443ZM9.369,12.172a5.071,5.071,0,0,0-.4-2.29A1.338,1.338,0,0,0,7.7,9.125a1.307,1.307,0,0,0-1.235.7,4.777,4.777,0,0,0-.415,2.129V15.59a5.109,5.109,0,0,0,.4,2.329,1.343,1.343,0,0,0,1.27.737,1.325,1.325,0,0,0,1.24-.718,4.878,4.878,0,0,0,.41-2.251Zm8.008.342H18.93a1.614,1.614,0,0,0,1.846-1.807,1.562,1.562,0,0,0-.439-1.147,1.666,1.666,0,0,0-1.24-.444,1.784,1.784,0,0,0-1.138.381,1.162,1.162,0,0,0-.483.947H14.184a3.369,3.369,0,0,1,.625-2,4.127,4.127,0,0,1,1.733-1.372,5.926,5.926,0,0,1,2.437-.493,5.823,5.823,0,0,1,3.73,1.084,3.6,3.6,0,0,1,1.357,2.979,3,3,0,0,1-.562,1.733A4,4,0,0,1,21.869,13.7a3.823,3.823,0,0,1,1.777,1.245,3.279,3.279,0,0,1,.645,2.065,3.669,3.669,0,0,1-1.465,3.047A6.08,6.08,0,0,1,18.979,21.2a6.306,6.306,0,0,1-2.593-.532,4.062,4.062,0,0,1-1.812-1.475,3.834,3.834,0,0,1-.615-2.144H17.27a1.482,1.482,0,0,0,.527,1.133,1.862,1.862,0,0,0,1.3.479,1.95,1.95,0,0,0,1.387-.483A1.616,1.616,0,0,0,21,16.938a1.889,1.889,0,0,0-.537-1.523,2.245,2.245,0,0,0-1.484-.449h-1.6Z" transform="translate(914 1089.131)" fill="#fff"/>
    <g id="quejar_1_" data-name="quejar (1)" transform="translate(855.714 1023.741)">
      <path id="Trazado_738846" data-name="Trazado 738846" d="M18.312,0A10.088,10.088,0,0,1,28.388,10.127a10.858,10.858,0,0,1-.255,2.209,9.744,9.744,0,0,1-2.257,4.395.561.561,0,0,0-.088.613,9.224,9.224,0,0,0,1.138,1.8.337.337,0,0,1-.219.546,6.473,6.473,0,0,1-3.186-.718.56.56,0,0,0-.5.012,10.026,10.026,0,0,1-4.575,1.165A10.076,10.076,0,1,1,18.312,0Z" transform="translate(0 0)" fill="#e23a05"/>
      <path id="Trazado_738847" data-name="Trazado 738847" d="M167.806,19.193a.337.337,0,0,1-.218.547,4.53,4.53,0,0,1-1.721-.171l.071-.008a.337.337,0,0,0,.218-.547,9.25,9.25,0,0,1-1.138-1.8.563.563,0,0,1,.088-.614A10.076,10.076,0,0,0,159.461.052a10.075,10.075,0,0,1,7.3,16.727.563.563,0,0,0-.088.614,9.248,9.248,0,0,0,1.137,1.8Z" transform="translate(-140.88 -0.048)" fill="#c62b02"/>
      <g id="Grupo_1021561" data-name="Grupo 1021561" transform="translate(11.733 8.707)">
        <g id="Grupo_1021560" data-name="Grupo 1021560" transform="translate(0)">
          <g id="Grupo_1021557" data-name="Grupo 1021557" transform="translate(10.431)">
            <circle id="Elipse_7731" data-name="Elipse 7731" cx="1.363" cy="1.363" r="1.363" fill="#ffeee7"/>
          </g>
          <g id="Grupo_1021558" data-name="Grupo 1021558" transform="translate(5.216)">
            <circle id="Elipse_7732" data-name="Elipse 7732" cx="1.363" cy="1.363" r="1.363" fill="#ffeee7"/>
          </g>
          <g id="Grupo_1021559" data-name="Grupo 1021559">
            <circle id="Elipse_7733" data-name="Elipse 7733" cx="1.363" cy="1.363" r="1.363" fill="#ffeee7"/>
          </g>
        </g>
      </g>
      <g id="Grupo_1021563" data-name="Grupo 1021563" transform="translate(16.275 2.336)">
        <path id="Trazado_738848" data-name="Trazado 738848" d="M150.965,38.98a8.211,8.211,0,0,0-2.5-3.311c-1.2-.934-2.917-1.987-4.483-1.3a2.59,2.59,0,0,0-1.055.868,3.447,3.447,0,0,0-.453.863c-.025.068-1.046,3.3-1.424,4.875a2.124,2.124,0,0,0,.612,2.356,3.909,3.909,0,0,0,.774.5c.725.368,1.478.676,2.233.981l.316.127.888.337-.327.932A32.616,32.616,0,0,1,137.3,58.96l-.615.659-.778-.739a17.448,17.448,0,0,0-1.83-1.806,2.332,2.332,0,0,0-3.3-.08,37.713,37.713,0,0,0-4.027,3.418c-1.368,1.375-1.273,2.692.069,4.1a7.56,7.56,0,0,0,4.25,2.218,9.884,9.884,0,0,0,6.4-1.421,28.144,28.144,0,0,0,4.4-3.149l1.854-1.786a31.239,31.239,0,0,0,7.057-12.689c.816-2.718,1.326-6.021.2-8.7Z" transform="translate(-125.758 -34.148)" fill="#a79ba7"/>
        <path id="Trazado_738849" data-name="Trazado 738849" d="M352.641,45.352c1.054-3.049,1.992-6.252,2.79-9.448-.065-.055-.131-.107-.2-.159-1.08-.835-2.531-1.739-3.955-1.465a2.829,2.829,0,0,0-2.107,2.1c-.479,1.548-.976,3.1-1.354,4.669a2.226,2.226,0,0,0,1.386,2.856c.826.419,1.69.763,2.55,1.109Z" transform="translate(-332.529 -34.224)" fill="#7a6d79"/>
        <path id="Trazado_738850" data-name="Trazado 738850" d="M136.682,361.971c-1.081,1.1-2.22,2.184-3.4,3.251a41.485,41.485,0,0,1-4.067,3.31,7.234,7.234,0,0,1-2.4-1.67c-1.342-1.406-1.437-2.722-.069-4.1a37.688,37.688,0,0,1,4.027-3.418,2.331,2.331,0,0,1,3.3.08,17.544,17.544,0,0,1,1.831,1.8Z" transform="translate(-125.759 -336.499)" fill="#7a6d79"/>
        <g id="ADEcVW_1_" transform="translate(0.041 3.114)">
          <g id="Grupo_1021562" data-name="Grupo 1021562">
            <path id="Trazado_738851" data-name="Trazado 738851" d="M151.32,90.1c-2.254,7.507-6.428,13.62-13.307,17.625a9.881,9.881,0,0,1-6.4,1.421,7.558,7.558,0,0,1-4.25-2.218,3.582,3.582,0,0,1-1.01-1.714l.093.1a7.558,7.558,0,0,0,4.25,2.218,9.881,9.881,0,0,0,6.4-1.421c6.878-4,11.052-10.117,13.307-17.625.816-2.718,1.326-6.021.2-8.7-.015-.034-.029-.069-.045-.1a8.373,8.373,0,0,1,.962,1.718C152.646,84.075,152.136,87.378,151.32,90.1Z" transform="translate(-126.358 -79.675)" fill="#918291"/>
          </g>
        </g>
        <path id="Trazado_738852" data-name="Trazado 738852" d="M130.7,455.3a7.557,7.557,0,0,1-4.25-2.218l-.093-.1,0,.009c.005.026.01.052.017.078a2.715,2.715,0,0,0,.112.335,3.268,3.268,0,0,0,.33.619,5.03,5.03,0,0,0,.424.539,6.845,6.845,0,0,0,.513.512,7.271,7.271,0,0,0,1.047.788,7.394,7.394,0,0,0,.765.412c.052.024.1.048.157.07l.044.02c.476-.334.924-.667,1.355-1Q130.912,455.343,130.7,455.3Z" transform="translate(-126.317 -424.338)" fill="#685e68"/>
      </g>
    </g>
    <path id="Trazado_739197" data-name="Trazado 739197" d="M12.66,15.189a6.789,6.789,0,0,1-1.294,4.443A4.471,4.471,0,0,1,7.719,21.2a4.5,4.5,0,0,1-3.672-1.572,6.779,6.779,0,0,1-1.3-4.434v-2.6A6.789,6.789,0,0,1,4.042,8.148,4.483,4.483,0,0,1,7.7,6.586a4.484,4.484,0,0,1,3.662,1.572,6.8,6.8,0,0,1,1.3,4.443ZM9.369,12.172a5.071,5.071,0,0,0-.4-2.29A1.338,1.338,0,0,0,7.7,9.125a1.307,1.307,0,0,0-1.235.7,4.777,4.777,0,0,0-.415,2.129V15.59a5.109,5.109,0,0,0,.4,2.329,1.343,1.343,0,0,0,1.27.737,1.325,1.325,0,0,0,1.24-.718,4.878,4.878,0,0,0,.41-2.251Zm13.691,3.271h1.445v2.539H23.061V21H19.77V17.982h-5.5l-.2-2.012,5.693-9.16V6.781h3.291Zm-5.85,0H19.77V11.068l-.205.332Z" transform="translate(659.139 1083.131)" fill="#fff"/>
  </g>
</svg>
