<svg id="Layer_7" xmlns="http://www.w3.org/2000/svg" width="102.052" height="100.564" viewBox="0 0 102.052 100.564">
  <g id="Grupo_1021439" data-name="Grupo 1021439">
    <g id="Grupo_1021309" data-name="Grupo 1021309" transform="translate(63.39 3.918)">
      <g id="Grupo_1021308" data-name="Grupo 1021308">
        <circle id="Elipse_7727" data-name="Elipse 7727" cx="13.671" cy="13.671" r="13.671" transform="translate(0 19.331) rotate(-45)" fill="#9e9abe"/>
      </g>
    </g>
    <g id="Grupo_1021311" data-name="Grupo 1021311" transform="translate(68.851 40.906)">
      <g id="Grupo_1021310" data-name="Grupo 1021310">
        <circle id="Elipse_7728" data-name="Elipse 7728" cx="13.671" cy="13.671" r="13.671" fill="#2a6bac"/>
      </g>
    </g>
    <g id="Grupo_1021313" data-name="Grupo 1021313" transform="translate(68.851 72.24)">
      <g id="Grupo_1021312" data-name="Grupo 1021312">
        <circle id="Elipse_7729" data-name="Elipse 7729" cx="13.671" cy="13.671" r="13.671" fill="#b598f9"/>
      </g>
    </g>
    <g id="Grupo_1021315" data-name="Grupo 1021315" transform="translate(76.048 16.164)">
      <g id="Grupo_1021314" data-name="Grupo 1021314">
        <path id="Trazado_738252" data-name="Trazado 738252" d="M210.788,41.147H198.235a.6.6,0,0,0-.6.6v2.733a.6.6,0,0,0,.6.6h12.553a.6.6,0,0,0,.6-.6V41.745A.6.6,0,0,0,210.788,41.147Z" transform="translate(-197.637 -41.147)" fill="#71cc98"/>
      </g>
    </g>
    <g id="Grupo_1021317" data-name="Grupo 1021317" transform="translate(76.048 23.627)">
      <g id="Grupo_1021316" data-name="Grupo 1021316">
        <path id="Trazado_738253" data-name="Trazado 738253" d="M200.967,60.147h-2.733a.6.6,0,0,0-.6.6v5.482a.6.6,0,0,0,.6.6h2.733a.6.6,0,0,0,.6-.6V60.745A.6.6,0,0,0,200.967,60.147Z" transform="translate(-197.637 -60.147)" fill="#71cc98"/>
      </g>
    </g>
    <g id="Grupo_1021319" data-name="Grupo 1021319" transform="translate(75.843 77.858)">
      <g id="Grupo_1021318" data-name="Grupo 1021318">
        <path id="Trazado_738254" data-name="Trazado 738254" d="M209.558,198.2H198.031a.914.914,0,0,0-.915.915V213.39a.914.914,0,0,0,.915.914h11.527a.914.914,0,0,0,.915-.914V199.114A.915.915,0,0,0,209.558,198.2Z" transform="translate(-197.116 -198.199)" fill="#5290db"/>
      </g>
    </g>
    <g id="Grupo_1021321" data-name="Grupo 1021321" transform="translate(75.843 83.161)">
      <g id="Grupo_1021320" data-name="Grupo 1021320">
        <path id="Trazado_738255" data-name="Trazado 738255" d="M197.116,211.7h13.356v5.5H197.116Z" transform="translate(-197.116 -211.699)" fill="#3a70bf"/>
      </g>
    </g>
    <g id="Grupo_1021324" data-name="Grupo 1021324" transform="translate(68.08 8.59)">
      <g id="Grupo_1021323" data-name="Grupo 1021323">
        <g id="Grupo_1021322" data-name="Grupo 1021322">
          <path id="Trazado_738256" data-name="Trazado 738256" d="M192,21.866a14.653,14.653,0,1,0,14.653,14.653A14.669,14.669,0,0,0,192,21.866Zm0,27.342a12.689,12.689,0,1,1,12.689-12.689A12.7,12.7,0,0,1,192,49.208Z" transform="translate(-177.352 -21.866)"/>
        </g>
      </g>
    </g>
    <g id="Grupo_1021327" data-name="Grupo 1021327" transform="translate(67.869 39.924)">
      <g id="Grupo_1021326" data-name="Grupo 1021326">
        <g id="Grupo_1021325" data-name="Grupo 1021325">
          <path id="Trazado_738257" data-name="Trazado 738257" d="M191.468,101.632a14.653,14.653,0,1,0,14.653,14.653A14.669,14.669,0,0,0,191.468,101.632Zm0,27.342a12.689,12.689,0,1,1,12.689-12.689A12.7,12.7,0,0,1,191.468,128.974Z" transform="translate(-176.815 -101.632)"/>
        </g>
      </g>
    </g>
    <g id="Grupo_1021329" data-name="Grupo 1021329" transform="translate(82.735 25.984)">
      <g id="Grupo_1021328" data-name="Grupo 1021328">
        <path id="Trazado_738258" data-name="Trazado 738258" d="M221.124,66.146h-5.482a.982.982,0,1,0,0,1.964h5.482a.982.982,0,1,0,0-1.964Z" transform="translate(-214.66 -66.146)"/>
      </g>
    </g>
    <g id="Grupo_1021331" data-name="Grupo 1021331" transform="translate(82.735 22.645)">
      <g id="Grupo_1021330" data-name="Grupo 1021330">
        <path id="Trazado_738259" data-name="Trazado 738259" d="M221.124,57.646h-5.482a.982.982,0,1,0,0,1.964h5.482a.982.982,0,1,0,0-1.964Z" transform="translate(-214.66 -57.646)"/>
      </g>
    </g>
    <g id="Grupo_1021333" data-name="Grupo 1021333" transform="translate(82.735 29.323)">
      <g id="Grupo_1021332" data-name="Grupo 1021332">
        <path id="Trazado_738260" data-name="Trazado 738260" d="M221.124,74.646h-5.482a.982.982,0,1,0,0,1.964h5.482a.982.982,0,1,0,0-1.964Z" transform="translate(-214.66 -74.646)"/>
      </g>
    </g>
    <g id="Grupo_1021335" data-name="Grupo 1021335" transform="translate(85.794 50.285)">
      <g id="Grupo_1021334" data-name="Grupo 1021334">
        <path id="Trazado_738261" data-name="Trazado 738261" d="M227.387,131.557l-3.263-3.263a.982.982,0,1,0-1.389,1.389l2.568,2.569-2.568,2.569a.982.982,0,0,0,1.389,1.389l3.263-3.263A.982.982,0,0,0,227.387,131.557Z" transform="translate(-222.447 -128.006)"/>
      </g>
    </g>
    <g id="Grupo_1021337" data-name="Grupo 1021337" transform="translate(74.038 50.285)">
      <g id="Grupo_1021336" data-name="Grupo 1021336">
        <path id="Trazado_738262" data-name="Trazado 738262" d="M194.892,132.251l2.569-2.569a.982.982,0,0,0-1.389-1.389l-3.263,3.263a.983.983,0,0,0,0,1.389l3.263,3.263a.982.982,0,0,0,1.389-1.389Z" transform="translate(-192.521 -128.006)"/>
      </g>
    </g>
    <g id="Grupo_1021339" data-name="Grupo 1021339" transform="translate(80.394 49.592)">
      <g id="Grupo_1021338" data-name="Grupo 1021338">
        <path id="Trazado_738263" data-name="Trazado 738263" d="M212.264,126.282a.981.981,0,0,0-1.218.668l-2.307,7.911a.982.982,0,1,0,1.886.55l2.307-7.911a.982.982,0,0,0-.668-1.218Z" transform="translate(-208.699 -126.243)"/>
      </g>
    </g>
    <g id="Grupo_1021342" data-name="Grupo 1021342" transform="translate(67.869 71.258)">
      <g id="Grupo_1021341" data-name="Grupo 1021341">
        <g id="Grupo_1021340" data-name="Grupo 1021340">
          <path id="Trazado_738264" data-name="Trazado 738264" d="M191.468,181.4a14.653,14.653,0,1,0,14.653,14.653A14.669,14.669,0,0,0,191.468,181.4Zm0,27.342a12.689,12.689,0,1,1,12.689-12.689A12.7,12.7,0,0,1,191.468,208.74Z" transform="translate(-176.815 -181.398)"/>
        </g>
      </g>
    </g>
    <g id="Grupo_1021344" data-name="Grupo 1021344" transform="translate(62.607 41.247)">
      <g id="Grupo_1021343" data-name="Grupo 1021343">
        <path id="Trazado_738265" data-name="Trazado 738265" d="M168.48,107.44a3.059,3.059,0,0,1-2.453-2.4c0-.055-.11-.055-.11,0a3.059,3.059,0,0,1-2.453,2.4c-.055,0-.055.083,0,.11a3.059,3.059,0,0,1,2.453,2.4c0,.055.11.055.11,0a3.058,3.058,0,0,1,2.453-2.4C168.535,107.523,168.535,107.44,168.48,107.44Z" transform="translate(-163.422 -105.001)" fill="#826be9"/>
      </g>
    </g>
    <g id="Grupo_1021346" data-name="Grupo 1021346" transform="translate(47.549)">
      <g id="Grupo_1021345" data-name="Grupo 1021345">
        <path id="Trazado_738266" data-name="Trazado 738266" d="M126.424,0a1.336,1.336,0,1,0,1.336,1.336A1.336,1.336,0,0,0,126.424,0Z" transform="translate(-125.088)" fill="#826be9"/>
      </g>
    </g>
    <g id="Grupo_1021348" data-name="Grupo 1021348" transform="translate(53.068 6.107)">
      <g id="Grupo_1021347" data-name="Grupo 1021347">
        <path id="Trazado_738267" data-name="Trazado 738267" d="M146.346,19.024a4.359,4.359,0,0,1-3.5-3.418c0-.079-.157-.079-.157,0a4.359,4.359,0,0,1-3.5,3.418c-.079,0-.079.118,0,.157a4.359,4.359,0,0,1,3.5,3.418c0,.079.157.079.157,0a4.359,4.359,0,0,1,3.5-3.418c.079-.039.079-.157,0-.157Z" transform="translate(-139.138 -15.547)" fill="#362b9e"/>
      </g>
    </g>
    <g id="Grupo_1021350" data-name="Grupo 1021350" transform="translate(75.307 82.179)">
      <g id="Grupo_1021349" data-name="Grupo 1021349">
        <path id="Trazado_738268" data-name="Trazado 738268" d="M209.253,209.2H196.732a.982.982,0,1,0,0,1.964h12.521a.982.982,0,0,0,0-1.964Z" transform="translate(-195.75 -209.199)"/>
      </g>
    </g>
    <g id="Grupo_1021352" data-name="Grupo 1021352" transform="translate(75.282 87.679)">
      <g id="Grupo_1021351" data-name="Grupo 1021351">
        <path id="Trazado_738269" data-name="Trazado 738269" d="M209.216,223.2H196.67a.982.982,0,1,0,0,1.964h12.546a.982.982,0,1,0,0-1.964Z" transform="translate(-195.688 -223.199)"/>
      </g>
    </g>
    <g id="Grupo_1021355" data-name="Grupo 1021355" transform="translate(75.066 15.181)">
      <g id="Grupo_1021354" data-name="Grupo 1021354">
        <g id="Grupo_1021353" data-name="Grupo 1021353">
          <path id="Trazado_738270" data-name="Trazado 738270" d="M209.271,38.646H196.718a1.582,1.582,0,0,0-1.58,1.58v2.733a1.582,1.582,0,0,0,1.58,1.58h12.553a1.582,1.582,0,0,0,1.58-1.58V40.226A1.582,1.582,0,0,0,209.271,38.646Zm-.384,3.928H197.1V40.61h11.785Z" transform="translate(-195.138 -38.646)"/>
        </g>
      </g>
    </g>
    <g id="Grupo_1021358" data-name="Grupo 1021358" transform="translate(75.066 22.645)">
      <g id="Grupo_1021357" data-name="Grupo 1021357">
        <g id="Grupo_1021356" data-name="Grupo 1021356">
          <path id="Trazado_738271" data-name="Trazado 738271" d="M199.449,57.646h-2.733a1.582,1.582,0,0,0-1.58,1.58v5.482a1.582,1.582,0,0,0,1.58,1.58h2.733a1.582,1.582,0,0,0,1.58-1.58V59.226A1.582,1.582,0,0,0,199.449,57.646Zm-.384,6.678H197.1V59.61h1.964Z" transform="translate(-195.137 -57.646)"/>
        </g>
      </g>
    </g>
    <g id="Grupo_1021361" data-name="Grupo 1021361" transform="translate(74.861 76.876)">
      <g id="Grupo_1021360" data-name="Grupo 1021360">
        <g id="Grupo_1021359" data-name="Grupo 1021359">
          <path id="Trazado_738272" data-name="Trazado 738272" d="M208.04,195.7H196.513a1.9,1.9,0,0,0-1.9,1.9v14.277a1.9,1.9,0,0,0,1.9,1.9H208.04a1.9,1.9,0,0,0,1.9-1.9V197.6A1.9,1.9,0,0,0,208.04,195.7Zm-.068,16.106H196.58V197.663h11.392Z" transform="translate(-194.616 -195.699)"/>
        </g>
      </g>
    </g>
    <g id="Grupo_1021363" data-name="Grupo 1021363" transform="translate(52.843 62.515)">
      <g id="Grupo_1021362" data-name="Grupo 1021362">
        <path id="Trazado_738273" data-name="Trazado 738273" d="M146.807,164.939a5.6,5.6,0,0,0-4.22-5.114l-2.712-.685a1.722,1.722,0,0,1,.429,1.131v29.212a1.737,1.737,0,0,1-1.737,1.737h2.6a1.227,1.227,0,0,1,1.226,1.226,3.76,3.76,0,0,1-3.76,3.76h7.7a1.555,1.555,0,0,0,1.553-1.642Z" transform="translate(-138.566 -159.14)" fill="#3a70bf"/>
      </g>
    </g>
    <g id="Grupo_1021365" data-name="Grupo 1021365" transform="translate(3.375 62.515)">
      <g id="Grupo_1021364" data-name="Grupo 1021364">
        <path id="Trazado_738274" data-name="Trazado 738274" d="M19.361,191.221h2.6a1.737,1.737,0,0,1-1.737-1.737V160.272a1.721,1.721,0,0,1,.429-1.131l-2.712.685a5.6,5.6,0,0,0-4.22,5.114l-1.078,29.626a1.555,1.555,0,0,0,1.553,1.642h7.7C19.818,196.208,18.684,191.221,19.361,191.221Z" transform="translate(-12.639 -159.141)" fill="#3a70bf"/>
      </g>
    </g>
    <g id="Grupo_1021367" data-name="Grupo 1021367" transform="translate(10.959 61.909)">
      <g id="Grupo_1021366" data-name="Grupo 1021366">
        <path id="Trazado_738275" data-name="Trazado 738275" d="M73.828,157.6H33.681a1.737,1.737,0,0,0-1.737,1.737v29.212a1.737,1.737,0,0,0,1.737,1.737H73.828a1.737,1.737,0,0,0,1.737-1.737V159.335A1.737,1.737,0,0,0,73.828,157.6Z" transform="translate(-31.944 -157.598)" fill="#edf4fc"/>
      </g>
    </g>
    <g id="Grupo_1021369" data-name="Grupo 1021369" transform="translate(8.871 94.596)">
      <g id="Grupo_1021368" data-name="Grupo 1021368">
        <path id="Trazado_738276" data-name="Trazado 738276" d="M73.2,240.807H27.854a1.227,1.227,0,0,0-1.226,1.226,3.76,3.76,0,0,0,3.76,3.76H70.665a3.76,3.76,0,0,0,3.76-3.76A1.226,1.226,0,0,0,73.2,240.807Z" transform="translate(-26.628 -240.807)" fill="#c7d7e5"/>
      </g>
    </g>
    <g id="Grupo_1021371" data-name="Grupo 1021371" transform="translate(46.379 28.278)">
      <g id="Grupo_1021370" data-name="Grupo 1021370">
        <path id="Trazado_738277" data-name="Trazado 738277" d="M123.019,71.985a5.693,5.693,0,0,0-.876.07V82.384c0,.308-.014.612-.035.915a5.694,5.694,0,1,0,.91-11.313Z" transform="translate(-122.109 -71.985)" fill="#f9d0b4"/>
      </g>
    </g>
    <g id="Grupo_1021373" data-name="Grupo 1021373" transform="translate(19.126 23.508)">
      <g id="Grupo_1021372" data-name="Grupo 1021372">
        <path id="Trazado_738278" data-name="Trazado 738278" d="M79.182,62.95A11.3,11.3,0,0,1,74.2,60.084a.905.905,0,0,0-1.3.073c-2.078,2.425-9.446,9.784-20.169,6.729v8.125a13.644,13.644,0,0,0,27.287,0V63.989a1.071,1.071,0,0,0-.839-1.039Z" transform="translate(-52.734 -59.844)" fill="#f9d0b4"/>
      </g>
    </g>
    <g id="Grupo_1021375" data-name="Grupo 1021375" transform="translate(12.554 29.356)">
      <g id="Grupo_1021374" data-name="Grupo 1021374">
        <path id="Trazado_738279" data-name="Trazado 738279" d="M42.576,84.049V75.924a22.18,22.18,0,0,1-2.886-1.048A1.736,1.736,0,0,0,37.8,75.2a5.679,5.679,0,0,0,4.807,9.764C42.59,84.662,42.576,84.357,42.576,84.049Z" transform="translate(-36.004 -74.729)" fill="#f9d0b4"/>
      </g>
    </g>
    <g id="Grupo_1021377" data-name="Grupo 1021377" transform="translate(14.217 8.063)">
      <g id="Grupo_1021376" data-name="Grupo 1021376">
        <path id="Trazado_738280" data-name="Trazado 738280" d="M58.79,20.526A18.607,18.607,0,0,0,40.237,39.079v3.353c.046-.047.089-.1.137-.142a1.736,1.736,0,0,1,1.887-.324,22.237,22.237,0,0,0,2.886,1.048c10.723,3.055,18.092-4.3,20.169-6.729a.905.905,0,0,1,1.3-.073,11.3,11.3,0,0,0,4.978,2.865,1.071,1.071,0,0,1,.839,1.039v.694a5.671,5.671,0,0,1,4.909,1.605V39.078A18.606,18.606,0,0,0,58.79,20.526Z" transform="translate(-40.237 -20.526)" fill="#826be9"/>
      </g>
    </g>
    <g id="Grupo_1021379" data-name="Grupo 1021379" transform="translate(39.259 37.005)">
      <g id="Grupo_1021378" data-name="Grupo 1021378">
        <path id="Trazado_738281" data-name="Trazado 738281" d="M116.606,104.515a10.085,10.085,0,0,0,.225-10.313,5.627,5.627,0,0,1-5.727,2.586,13.692,13.692,0,0,1-7.12,11.075V112a3.787,3.787,0,0,0,1.809,3.223c.446.275-.12-.048,3.68,1.843a13.125,13.125,0,0,0,1.707.682c.1.032.208.061.312.09a9.448,9.448,0,0,0,4.927-3.719,7.808,7.808,0,0,0,.1-8A1.584,1.584,0,0,1,116.606,104.515Z" transform="translate(-103.985 -94.202)" fill="#826be9"/>
      </g>
    </g>
    <g id="Grupo_1021381" data-name="Grupo 1021381" transform="translate(12.114 37.005)">
      <g id="Grupo_1021380" data-name="Grupo 1021380">
        <path id="Trazado_738282" data-name="Trazado 738282" d="M41.931,96.787A5.626,5.626,0,0,1,36.2,94.2a10.086,10.086,0,0,0,.225,10.313,1.582,1.582,0,0,1,.084,1.6,7.808,7.808,0,0,0,.1,8,9.449,9.449,0,0,0,4.927,3.719c.1-.029.209-.058.312-.09a13.091,13.091,0,0,0,1.707-.682c4.047-2.013,3.268-1.588,3.68-1.843A3.788,3.788,0,0,0,49.051,112v-4.138A13.689,13.689,0,0,1,41.931,96.787Z" transform="translate(-34.884 -94.201)" fill="#826be9"/>
      </g>
    </g>
    <g id="Grupo_1021383" data-name="Grupo 1021383" transform="translate(3.375 79.718)">
      <g id="Grupo_1021382" data-name="Grupo 1021382">
        <path id="Trazado_738283" data-name="Trazado 738283" d="M18.134,219.038a1.227,1.227,0,0,1,1.226-1.226h2.6a1.737,1.737,0,0,1-1.737-1.737V204.627L13.3,202.934l-.663,18.222a1.555,1.555,0,0,0,1.553,1.642h7.7A3.76,3.76,0,0,1,18.134,219.038Z" transform="translate(-12.638 -202.934)" fill="#f9d0b4"/>
      </g>
    </g>
    <g id="Grupo_1021385" data-name="Grupo 1021385" transform="translate(52.843 79.719)">
      <g id="Grupo_1021384" data-name="Grupo 1021384">
        <path id="Trazado_738284" data-name="Trazado 738284" d="M147.221,202.935l-6.919,1.693v11.447a1.737,1.737,0,0,1-1.737,1.737h2.6a1.227,1.227,0,0,1,1.226,1.226,3.76,3.76,0,0,1-3.76,3.76h7.7a1.555,1.555,0,0,0,1.553-1.642Z" transform="translate(-138.565 -202.935)" fill="#f9d0b4"/>
      </g>
    </g>
    <g id="Grupo_1021387" data-name="Grupo 1021387" transform="translate(14.998 57.46)">
      <g id="Grupo_1021386" data-name="Grupo 1021386">
        <path id="Trazado_738285" data-name="Trazado 738285" d="M52.41,146.273a3.771,3.771,0,0,1-1.019.746l-3.373,1.663a11.905,11.905,0,0,1-2.112.8l-3.681,1.241H55.632Z" transform="translate(-42.225 -146.273)" fill="#3a70bf"/>
      </g>
    </g>
    <g id="Grupo_1021389" data-name="Grupo 1021389" transform="translate(37.135 57.46)">
      <g id="Grupo_1021388" data-name="Grupo 1021388">
        <path id="Trazado_738286" data-name="Trazado 738286" d="M108.3,149.48a11.924,11.924,0,0,1-2.112-.8l-3.373-1.663a3.77,3.77,0,0,1-1.019-.746l-3.222,4.449h13.407Z" transform="translate(-98.578 -146.273)" fill="#3a70bf"/>
      </g>
    </g>
    <g id="Grupo_1021391" data-name="Grupo 1021391" transform="translate(25.183 50.667)">
      <g id="Grupo_1021390" data-name="Grupo 1021390">
        <path id="Trazado_738287" data-name="Trazado 738287" d="M82.229,133.117v-4.138a13.565,13.565,0,0,1-12.979,0v4.138a3.785,3.785,0,0,1-1.1,2.656l3.222,4.449H80.1l3.222-4.449a3.785,3.785,0,0,1-1.1-2.656Z" transform="translate(-68.153 -128.979)" fill="#f9d0b4"/>
      </g>
    </g>
    <g id="Grupo_1021393" data-name="Grupo 1021393" transform="translate(51.926 61.572)">
      <g id="Grupo_1021392" data-name="Grupo 1021392">
        <path id="Trazado_738288" data-name="Trazado 738288" d="M147.449,193.072l-1.079-29.646a6.548,6.548,0,0,0-4.96-6.011l-2.56-.646a.982.982,0,1,0-.481,1.9l2.561.647a4.586,4.586,0,0,1,3.478,4.2l1.079,29.646a.574.574,0,0,1-.572.6h-7.7a.982.982,0,0,0,0,1.964h7.7a2.537,2.537,0,0,0,2.534-2.66Z" transform="translate(-136.232 -156.739)"/>
      </g>
    </g>
    <g id="Grupo_1021395" data-name="Grupo 1021395" transform="translate(2.393 61.56)">
      <g id="Grupo_1021394" data-name="Grupo 1021394">
        <path id="Trazado_738289" data-name="Trazado 738289" d="M20.376,193.749h-7.7a.568.568,0,0,1-.416-.18.583.583,0,0,1-.155-.445l1.077-29.607a4.593,4.593,0,0,1,3.48-4.217l2.6-.658a.982.982,0,0,0-.481-1.9l-2.6.657a6.553,6.553,0,0,0-4.962,6.031l-1.077,29.607a2.537,2.537,0,0,0,2.533,2.678h7.7a.982.982,0,1,0,0-1.963Z" transform="translate(-10.137 -156.709)"/>
      </g>
    </g>
    <g id="Grupo_1021403" data-name="Grupo 1021403" transform="translate(28.995 78.566)">
      <g id="Grupo_1021402" data-name="Grupo 1021402">
        <path id="Trazado_738291" data-name="Trazado 738291" d="M84.32,200H78.838a.982.982,0,0,0,0,1.964H84.32a.982.982,0,1,0,0-1.964Z" transform="translate(-77.856 -200)"/>
      </g>
    </g>
    <g id="Grupo_1021406" data-name="Grupo 1021406" transform="translate(9.977 60.927)">
      <g id="Grupo_1021405" data-name="Grupo 1021405">
        <g id="Grupo_1021404" data-name="Grupo 1021404">
          <path id="Trazado_738292" data-name="Trazado 738292" d="M72.31,155.1H32.164a2.723,2.723,0,0,0-2.72,2.72v29.212a2.723,2.723,0,0,0,2.72,2.72H72.31a2.723,2.723,0,0,0,2.72-2.72V157.818A2.723,2.723,0,0,0,72.31,155.1Zm.755,31.931a.756.756,0,0,1-.755.755H32.164a.756.756,0,0,1-.755-.755V157.818a.756.756,0,0,1,.755-.755H72.31a.756.756,0,0,1,.755.755Z" transform="translate(-29.444 -155.098)"/>
        </g>
      </g>
    </g>
    <g id="Grupo_1021409" data-name="Grupo 1021409" transform="translate(7.889 93.614)">
      <g id="Grupo_1021408" data-name="Grupo 1021408">
        <g id="Grupo_1021407" data-name="Grupo 1021407">
          <path id="Trazado_738293" data-name="Trazado 738293" d="M71.681,238.307H26.336a2.211,2.211,0,0,0-2.208,2.208,4.748,4.748,0,0,0,4.742,4.742H69.147a4.748,4.748,0,0,0,4.742-4.742A2.21,2.21,0,0,0,71.681,238.307Zm-2.534,4.986H28.871a2.781,2.781,0,0,1-2.778-2.778.245.245,0,0,1,.244-.244H71.681a.245.245,0,0,1,.244.244A2.782,2.782,0,0,1,69.147,243.293Z" transform="translate(-24.128 -238.307)"/>
        </g>
      </g>
    </g>
    <g id="Grupo_1021411" data-name="Grupo 1021411" transform="translate(0 43.978)">
      <g id="Grupo_1021410" data-name="Grupo 1021410">
        <path id="Trazado_738294" data-name="Trazado 738294" d="M9.624,114.114h-.9v-.9a1.266,1.266,0,0,0-1.257-1.257,1.241,1.241,0,0,0-1.257,1.257v.9H5.3a1.266,1.266,0,0,0-1.257,1.257A1.241,1.241,0,0,0,5.3,116.628h.9v.9a1.266,1.266,0,0,0,1.257,1.257,1.241,1.241,0,0,0,1.257-1.257v-.9h.9a1.266,1.266,0,0,0,1.257-1.257A1.241,1.241,0,0,0,9.624,114.114Z" transform="translate(-4.046 -111.953)" fill="#362b9e"/>
      </g>
    </g>
    <g id="Grupo_1021413" data-name="Grupo 1021413" transform="translate(5.909 55.135)">
      <g id="Grupo_1021412" data-name="Grupo 1021412">
        <path id="Trazado_738295" data-name="Trazado 738295" d="M20.424,140.353a1.336,1.336,0,1,0,1.336,1.336A1.336,1.336,0,0,0,20.424,140.353Z" transform="translate(-19.088 -140.353)" fill="#362b9e"/>
      </g>
    </g>
    <g id="Grupo_1021415" data-name="Grupo 1021415" transform="translate(45.758 27.296)">
      <g id="Grupo_1021414" data-name="Grupo 1021414">
        <path id="Trazado_738296" data-name="Trazado 738296" d="M122.06,69.485c-.2,0-.412.01-.618.03a.982.982,0,0,0,.187,1.955q.213-.021.432-.021a4.714,4.714,0,0,1,0,9.428,4.138,4.138,0,0,1-.445-.025.982.982,0,0,0-.209,1.953,6.1,6.1,0,0,0,.654.036,6.678,6.678,0,1,0,0-13.356Z" transform="translate(-120.529 -69.485)"/>
      </g>
    </g>
    <g id="Grupo_1021418" data-name="Grupo 1021418" transform="translate(18.144 22.526)">
      <g id="Grupo_1021417" data-name="Grupo 1021417">
        <g id="Grupo_1021416" data-name="Grupo 1021416">
          <path id="Trazado_738297" data-name="Trazado 738297" d="M77.885,60.474a10.515,10.515,0,0,1-4.54-2.635,1.915,1.915,0,0,0-1.4-.492A1.864,1.864,0,0,0,70.639,58c-1.919,2.24-8.974,9.324-19.155,6.424a.982.982,0,0,0-1.251.944v8.125a14.626,14.626,0,1,0,29.251,0V62.47A2.046,2.046,0,0,0,77.885,60.474ZM77.52,73.493a12.661,12.661,0,1,1-25.323,0V66.628c10.535,2.31,17.775-4.853,19.879-7.288a12.363,12.363,0,0,0,5.364,3.048.092.092,0,0,1,.079.082Z" transform="translate(-50.233 -57.343)"/>
        </g>
      </g>
    </g>
    <g id="Grupo_1021420" data-name="Grupo 1021420" transform="translate(11.572 28.373)">
      <g id="Grupo_1021419" data-name="Grupo 1021419">
        <path id="Trazado_738298" data-name="Trazado 738298" d="M41.327,73.461a21.341,21.341,0,0,1-2.758-1,2.713,2.713,0,0,0-2.955.506,6.673,6.673,0,0,0,4.569,11.542c.186,0,.369-.009.55-.026a.982.982,0,1,0-.181-1.955c-.122.011-.245.018-.37.018a4.72,4.72,0,0,1-4.714-4.714A4.657,4.657,0,0,1,36.957,74.4a.749.749,0,0,1,.818-.142,23.324,23.324,0,0,0,3.013,1.094.982.982,0,0,0,.538-1.89Z" transform="translate(-33.504 -72.228)"/>
      </g>
    </g>
    <g id="Grupo_1021422" data-name="Grupo 1021422" transform="translate(13.235 7.081)">
      <g id="Grupo_1021421" data-name="Grupo 1021421">
        <path id="Trazado_738299" data-name="Trazado 738299" d="M57.272,18.026A19.557,19.557,0,0,0,37.737,37.561v3.271a.982.982,0,1,0,1.964,0V37.561a17.571,17.571,0,0,1,35.142,0V40.7a.982.982,0,0,0,1.964,0V37.561A19.557,19.557,0,0,0,57.272,18.026Z" transform="translate(-37.737 -18.026)"/>
      </g>
    </g>
    <g id="Grupo_1021424" data-name="Grupo 1021424" transform="translate(45.937 36.172)">
      <g id="Grupo_1021423" data-name="Grupo 1021423">
        <path id="Trazado_738300" data-name="Trazado 738300" d="M127.756,103.755a11.084,11.084,0,0,0,.352-11.129.982.982,0,0,0-1.759.872,9.033,9.033,0,0,1-.249,9.2,2.573,2.573,0,0,0-.122,2.594,6.806,6.806,0,0,1-.066,7.015,8.4,8.4,0,0,1-4.292,3.268.982.982,0,1,0,.7,1.836,10.31,10.31,0,0,0,5.257-4.056,8.843,8.843,0,0,0,.137-8.991.6.6,0,0,1,.047-.61Z" transform="translate(-120.985 -92.08)"/>
      </g>
    </g>
    <g id="Grupo_1021426" data-name="Grupo 1021426" transform="translate(11.139 36.189)">
      <g id="Grupo_1021425" data-name="Grupo 1021425">
        <path id="Trazado_738301" data-name="Trazado 738301" d="M40.088,115.547a8.328,8.328,0,0,1-4.149-3.213,6.806,6.806,0,0,1-.066-7.015,2.572,2.572,0,0,0-.122-2.593,9.03,9.03,0,0,1-.257-9.184.982.982,0,0,0-1.761-.87,11.081,11.081,0,0,0,.362,11.11.6.6,0,0,1,.047.61,8.843,8.843,0,0,0,.137,8.992,10.239,10.239,0,0,0,5.091,3.992.982.982,0,0,0,.718-1.828Z" transform="translate(-32.401 -92.124)"/>
      </g>
    </g>
    <g id="Grupo_1021428" data-name="Grupo 1021428" transform="translate(3.284 78.791)">
      <g id="Grupo_1021427" data-name="Grupo 1021427">
        <path id="Trazado_738302" data-name="Trazado 738302" d="M20.06,202.178,13.621,200.6a.982.982,0,1,0-.467,1.908l6.439,1.575a.982.982,0,0,0,.467-1.908Z" transform="translate(-12.406 -200.575)"/>
      </g>
    </g>
    <g id="Grupo_1021430" data-name="Grupo 1021430" transform="translate(53.84 78.813)">
      <g id="Grupo_1021429" data-name="Grupo 1021429">
        <path id="Trazado_738303" data-name="Trazado 738303" d="M149.4,201.377a.981.981,0,0,0-1.187-.72l-6.366,1.557a.982.982,0,1,0,.467,1.908l6.366-1.557A.982.982,0,0,0,149.4,201.377Z" transform="translate(-141.103 -200.628)"/>
      </g>
    </g>
    <g id="Grupo_1021432" data-name="Grupo 1021432" transform="translate(14.127 56.478)">
      <g id="Grupo_1021431" data-name="Grupo 1021431">
        <path id="Trazado_738304" data-name="Trazado 738304" d="M54.891,148.366l-3.032-4.187a.982.982,0,0,0-1.5-.113,2.8,2.8,0,0,1-.753.554l-3.373,1.663a11,11,0,0,1-1.939.732l-.053.017-3.57,1.2A.982.982,0,0,0,41.3,150.1l3.544-1.195a12.949,12.949,0,0,0,2.259-.857l3.373-1.663a4.473,4.473,0,0,0,.392-.218l2.429,3.355a.982.982,0,1,0,1.591-1.153Z" transform="translate(-40.007 -143.773)"/>
      </g>
    </g>
    <g id="Grupo_1021434" data-name="Grupo 1021434" transform="translate(36.226 56.478)">
      <g id="Grupo_1021433" data-name="Grupo 1021433">
        <path id="Trazado_738305" data-name="Trazado 738305" d="M110.815,148.246l-3.6-1.214-.053-.016a11,11,0,0,1-1.939-.732l-3.373-1.664a2.8,2.8,0,0,1-.753-.554.982.982,0,0,0-1.5.113l-3.148,4.347a.982.982,0,1,0,1.591,1.152l2.545-3.515q.192.12.392.218l3.373,1.663a12.9,12.9,0,0,0,2.259.857l3.576,1.206a.982.982,0,1,0,.627-1.86Z" transform="translate(-96.266 -143.773)"/>
      </g>
    </g>
    <g id="Grupo_1021436" data-name="Grupo 1021436" transform="translate(24.201 49.914)">
      <g id="Grupo_1021435" data-name="Grupo 1021435">
        <path id="Trazado_738306" data-name="Trazado 738306" d="M67.732,127.063a.982.982,0,0,0-.982.982v3.908a2.793,2.793,0,0,1-.815,1.967.982.982,0,1,0,1.4,1.378,4.744,4.744,0,0,0,1.38-3.345v-3.908A.982.982,0,0,0,67.732,127.063Z" transform="translate(-65.653 -127.063)"/>
      </g>
    </g>
    <g id="Grupo_1021438" data-name="Grupo 1021438" transform="translate(38.277 49.938)">
      <g id="Grupo_1021437" data-name="Grupo 1021437">
        <path id="Trazado_738307" data-name="Trazado 738307" d="M104.265,133.958a2.793,2.793,0,0,1-.815-1.967v-3.884a.982.982,0,0,0-1.964,0v3.884a4.745,4.745,0,0,0,1.379,3.345.982.982,0,1,0,1.4-1.378Z" transform="translate(-101.486 -127.125)"/>
      </g>
    </g>
  </g>
</svg>
