<svg xmlns="http://www.w3.org/2000/svg" width="66.216" height="66.216" viewBox="0 0 66.216 66.216">
  <g id="Grupo_1021124" data-name="Grupo 1021124" transform="translate(-331 -1539)">
    <path id="Trazado_734791" data-name="Trazado 734791" d="M33.108,0A33.108,33.108,0,1,1,0,33.108,33.108,33.108,0,0,1,33.108,0Z" transform="translate(331 1539)" fill="#362b9e"/>
    <g id="quejar" transform="translate(336.708 1553.854)">
      <path id="Trazado_738115" data-name="Trazado 738115" d="M19.6,0a11.36,11.36,0,0,1,8.529,18.865.632.632,0,0,0-.1.692,10.4,10.4,0,0,0,1.283,2.03.38.38,0,0,1-.246.616,7.3,7.3,0,0,1-3.592-.809.631.631,0,0,0-.566.014,11.3,11.3,0,0,1-5.158,1.313A11.361,11.361,0,1,1,19.6,0Z" transform="translate(0 0)" fill="#fd6930"/>
      <path id="Trazado_738116" data-name="Trazado 738116" d="M168.87,21.635a.38.38,0,0,1-.246.616,5.108,5.108,0,0,1-1.94-.193l.08-.009a.38.38,0,0,0,.246-.616,10.43,10.43,0,0,1-1.283-2.03.635.635,0,0,1,.1-.692A11.361,11.361,0,0,0,159.461.052a11.36,11.36,0,0,1,8.226,18.861.635.635,0,0,0-.1.692,10.428,10.428,0,0,0,1.283,2.03Z" transform="translate(-139.561 -0.048)" fill="#fd5426"/>
      <g id="Grupo_1021160" data-name="Grupo 1021160" transform="translate(12.179 9.818)">
        <g id="Grupo_1021159" data-name="Grupo 1021159">
          <g id="Grupo_1021156" data-name="Grupo 1021156" transform="translate(11.762)">
            <circle id="Elipse_7724" data-name="Elipse 7724" cx="1.537" cy="1.537" r="1.537" fill="#ffeee7"/>
          </g>
          <g id="Grupo_1021157" data-name="Grupo 1021157" transform="translate(5.881)">
            <circle id="Elipse_7725" data-name="Elipse 7725" cx="1.537" cy="1.537" r="1.537" fill="#ffeee7"/>
          </g>
          <g id="Grupo_1021158" data-name="Grupo 1021158">
            <circle id="Elipse_7726" data-name="Elipse 7726" cx="1.537" cy="1.537" r="1.537" fill="#ffeee7"/>
          </g>
        </g>
      </g>
      <g id="Grupo_1021162" data-name="Grupo 1021162" transform="translate(17.301 2.634)">
        <path id="Trazado_738117" data-name="Trazado 738117" d="M154.18,39.6a9.258,9.258,0,0,0-2.821-3.734c-1.353-1.053-3.289-2.24-5.055-1.466a2.921,2.921,0,0,0-1.19.979,3.887,3.887,0,0,0-.511.973c-.028.076-1.179,3.722-1.606,5.5a2.4,2.4,0,0,0,.69,2.657,4.409,4.409,0,0,0,.873.564c.817.414,1.666.762,2.518,1.106l.356.144,1,.379-.368,1.051a36.777,36.777,0,0,1-9.3,14.38l-.693.743-.877-.833A19.672,19.672,0,0,0,135.133,60a2.629,2.629,0,0,0-3.726-.09,42.522,42.522,0,0,0-4.541,3.855c-1.543,1.551-1.435,3.035.078,4.621a8.524,8.524,0,0,0,4.792,2.5,11.145,11.145,0,0,0,7.211-1.6,31.734,31.734,0,0,0,4.956-3.551l2.091-2.014a35.224,35.224,0,0,0,7.958-14.308c.92-3.065,1.5-6.79.229-9.814Z" transform="translate(-125.759 -34.148)" fill="#c1c9cd"/>
        <path id="Trazado_738118" data-name="Trazado 738118" d="M353.271,46.771c1.188-3.437,2.246-7.05,3.146-10.653-.073-.062-.148-.121-.223-.179-1.218-.941-2.854-1.961-4.459-1.652a3.19,3.19,0,0,0-2.375,2.369c-.541,1.746-1.1,3.49-1.527,5.265a2.509,2.509,0,0,0,1.563,3.221c.931.473,1.906.86,2.875,1.25Z" transform="translate(-330.592 -34.223)" fill="#d5dadd"/>
        <path id="Trazado_738119" data-name="Trazado 738119" d="M138.075,362.388c-1.219,1.245-2.5,2.462-3.837,3.666a46.777,46.777,0,0,1-4.586,3.732,8.157,8.157,0,0,1-2.707-1.883c-1.513-1.585-1.621-3.069-.078-4.62a42.5,42.5,0,0,1,4.541-3.854,2.629,2.629,0,0,1,3.726.09,19.777,19.777,0,0,1,2.064,2.035Z" transform="translate(-125.759 -333.667)" fill="#d5dadd"/>
        <g id="ADEcVW_1_" transform="translate(0.046 3.511)">
          <g id="Grupo_1021161" data-name="Grupo 1021161">
            <path id="Trazado_738120" data-name="Trazado 738120" d="M154.5,91.426c-2.542,8.465-7.249,15.357-15,19.873a11.141,11.141,0,0,1-7.211,1.6,8.522,8.522,0,0,1-4.792-2.5,4.04,4.04,0,0,1-1.139-1.933l.105.113a8.522,8.522,0,0,0,4.792,2.5,11.142,11.142,0,0,0,7.211-1.6c7.756-4.515,12.462-11.408,15-19.873.92-3.065,1.5-6.789.229-9.814-.017-.039-.033-.078-.05-.117a9.442,9.442,0,0,1,1.085,1.937c1.266,3.024.691,6.749-.229,9.814Z" transform="translate(-126.358 -79.675)" fill="#8e9ea9"/>
          </g>
        </g>
        <path id="Trazado_738121" data-name="Trazado 738121" d="M131.255,455.6a8.521,8.521,0,0,1-4.792-2.5l-.105-.113,0,.01c.006.029.012.059.019.088a3.064,3.064,0,0,0,.126.378,3.688,3.688,0,0,0,.372.7,5.679,5.679,0,0,0,.478.608,7.722,7.722,0,0,0,.579.577,8.2,8.2,0,0,0,1.181.889,8.329,8.329,0,0,0,.863.465c.059.027.117.055.177.079l.05.022c.536-.377,1.042-.752,1.528-1.133-.16-.017-.32-.041-.478-.07Z" transform="translate(-126.312 -420.684)" fill="#8e9ea9"/>
      </g>
    </g>
  </g>
</svg>
