<svg xmlns="http://www.w3.org/2000/svg" width="66.216" height="66.216" viewBox="0 0 66.216 66.216">
  <g id="Grupo_1021174" data-name="Grupo 1021174" transform="translate(-948 -2253)">
    <path id="Trazado_734791" data-name="Trazado 734791" d="M33.108,0A33.108,33.108,0,1,1,0,33.108,33.108,33.108,0,0,1,33.108,0Z" transform="translate(948 2253)" fill="#362b9e"/>
    <g id="sexo" transform="translate(893.519 2264)">
      <path id="Trazado_738141" data-name="Trazado 738141" d="M101.023.6l-.014-.015a1.977,1.977,0,0,0-1.9-.516c-.19.049-.379.1-.571.136L91.461,1.529a2.01,2.01,0,0,0-1.639,2.248,1.979,1.979,0,0,0,2.322,1.651l1.5-.281L90.1,8.692a11.459,11.459,0,1,0,2.8,2.8l3.9-3.9-.354,2.356a1.981,1.981,0,0,0,1.953,2.32,1.98,1.98,0,0,0,1.955-1.685L101.6,2.3A1.979,1.979,0,0,0,101.023.6Zm-12.2,22.793a7.508,7.508,0,1,1,0-10.617,7.458,7.458,0,0,1,0,10.617Z" transform="translate(0 -0.001)" fill="#8ac9fe"/>
      <path id="Trazado_738142" data-name="Trazado 738142" d="M158.171,11.49l3.9-3.9c-.021-.114-.084-.863-.136-1.508a.448.448,0,0,0-.764-.281l-4.285,4.335a1.726,1.726,0,0,0-.218,2.147,9.03,9.03,0,0,1,1.692,5.007A11.48,11.48,0,0,1,143.381,28.2a11.472,11.472,0,0,0,14.79-16.708ZM166.3.594a.1.1,0,0,1-.014-.015,1.977,1.977,0,0,0-1.677-.56,1.975,1.975,0,0,1,.375,1.482l-1.244,8.278a1.98,1.98,0,0,1-1.674,1.665,1.973,1.973,0,0,0,1.311.8,2,2,0,0,0,.3.023,1.981,1.981,0,0,0,1.955-1.685L166.869,2.3A1.98,1.98,0,0,0,166.3.594Z" transform="translate(-65.274 0)" fill="#60b7ff"/>
      <path id="Trazado_738143" data-name="Trazado 738143" d="M118.593,167.746a11.468,11.468,0,0,0-17.5,14.7l-2.016,2.016-1.393-1.393a1.979,1.979,0,0,0-2.8,2.8l1.393,1.393-3.3,3.3a1.979,1.979,0,1,0,2.8,2.8l3.3-3.3,1.393,1.393a1.979,1.979,0,1,0,2.8-2.8l-1.393-1.393,2.018-2.018a11.466,11.466,0,0,0,14.695-17.494Zm-2.8,13.416a7.508,7.508,0,1,1,0-10.617A7.516,7.516,0,0,1,115.794,181.163Z" transform="translate(-18.632 -150.416)" fill="#fd6930"/>
      <path id="Trazado_738144" data-name="Trazado 738144" d="M119.631,197.271c-.215-.215-.437-.421-.666-.616a11.479,11.479,0,0,1-.611,15.554,10.429,10.429,0,0,1-13.661.985.665.665,0,0,0-.844.083l-1.743,1.759a.664.664,0,0,0,0,.937l.81.81,2.018-2.018a11.466,11.466,0,0,0,14.694-17.494Zm-15.32,20.9-1.278-1.278a1.979,1.979,0,1,1-2.8,2.8l1.278,1.278a1.979,1.979,0,1,0,2.8-2.8Zm-5,.6a.664.664,0,0,0-.94,0L95.546,221.6a1.973,1.973,0,0,1-2,.484,1.978,1.978,0,0,0,3.283.793l3.3-3.3Z" transform="translate(-19.67 -179.941)" fill="#fd5426"/>
    </g>
  </g>
</svg>
