<svg xmlns="http://www.w3.org/2000/svg" width="89.569" height="89.569" viewBox="0 0 89.569 89.569">
  <g id="Grupo_1022368" data-name="Grupo 1022368" transform="translate(-409 -1953)">
    <path id="Trazado_734791" data-name="Trazado 734791" d="M44.785,0A44.785,44.785,0,1,1,0,44.785,44.785,44.785,0,0,1,44.785,0Z" transform="translate(409 1953)" fill="#362b9e"/>
    <g id="mapa_1_" data-name="mapa (1)" transform="translate(412 1932.535)">
      <g id="Grupo_1022255" data-name="Grupo 1022255" transform="translate(21.506 54.383)">
        <path id="Trazado_740877" data-name="Trazado 740877" d="M386.946,238.194l-6.6-36.342a1.231,1.231,0,0,0-.613-.856l-16.6-9.234a1.228,1.228,0,0,0-.694-.149l3.021,38.965-.1.045,19.87,8.914a1.232,1.232,0,0,0,1.717-1.343Z" transform="translate(-324.51 -191.608)" fill="#44c868"/>
        <path id="Trazado_740878" data-name="Trazado 740878" d="M151.617,200.588l-16.98-8.844a1.229,1.229,0,0,0-.651-.134,1.271,1.271,0,0,1,.177,0l-3.021,38.965,19.971,8.959a1.234,1.234,0,0,0,.5.108h0Z" transform="translate(-131.142 -191.607)" fill="#44c868"/>
      </g>
      <g id="Grupo_1022256" data-name="Grupo 1022256" transform="translate(0 54.383)">
        <path id="Trazado_740879" data-name="Trazado 740879" d="M24.526,191.614a1.229,1.229,0,0,0-.694.149L7.229,201a1.231,1.231,0,0,0-.613.856L.02,238.2a1.232,1.232,0,0,0,1.717,1.343L21.5,230.673Z" transform="translate(0 -191.61)" fill="#4ce166"/>
        <path id="Trazado_740880" data-name="Trazado 740880" d="M273.455,191.628a1.229,1.229,0,0,0-.475.134L256,200.606v39.055h0a1.232,1.232,0,0,0,.5-.108l19.971-8.959Z" transform="translate(-214.019 -191.625)" fill="#4ce166"/>
      </g>
      <path id="Trazado_740881" data-name="Trazado 740881" d="M21.323,270.123l-1.34,7.383,19.842-10.48.461-5.943.076-.986Z" transform="translate(-16.706 -194.483)" fill="#ffdb56"/>
      <path id="Trazado_740882" data-name="Trazado 740882" d="M23.3,288.294l-.179,2.3L3.277,301.078.02,319.024a1.232,1.232,0,0,0,1.717,1.343L21.5,311.5l1.8-23.208Z" transform="translate(0 -218.056)" fill="#a8eefc"/>
      <g id="Grupo_1022257" data-name="Grupo 1022257" transform="translate(23.119 58.607)">
        <path id="Trazado_740883" data-name="Trazado 740883" d="M159.844,262.718l-18.33-2.621-.537,6.928,18.863,28.646V285.255l-11.256-17.724,11.261,1.347Z" transform="translate(-140.977 -253.09)" fill="#ffbb24"/>
        <path id="Trazado_740884" data-name="Trazado 740884" d="M380.8,221.806l-7.976-4.436-7.55,1.764.094,1.219.373,4.81Z" transform="translate(-328.487 -217.37)" fill="#ffbb24"/>
      </g>
      <path id="Trazado_740885" data-name="Trazado 740885" d="M275.081,242.8l-.715-9.224h0l-.422-5.444-17.914,7.864v6.16l11.7-5.089Z" transform="translate(-214.044 -167.756)" fill="#ffdb56"/>
      <path id="Trazado_740886" data-name="Trazado 740886" d="M391.694,299.465l-1.657-9.129L368.119,264.9l.67,8.639,22.478,27.095A1.23,1.23,0,0,0,391.694,299.465Z" transform="translate(-307.751 -198.496)" fill="#ffbb24"/>
      <g id="Grupo_1022361" data-name="Grupo 1022361">
        <path id="Trazado_740887" data-name="Trazado 740887" d="M168.6,27.465a17.251,17.251,0,0,0-17.239,17.224c0,5.875,2.789,12.183,8.291,18.748a58.919,58.919,0,0,0,8.194,8.053,1.233,1.233,0,0,0,1.508,0,58.928,58.928,0,0,0,8.194-8.053c5.5-6.565,8.291-12.872,8.291-18.748A17.252,17.252,0,0,0,168.6,27.465Zm6.384,17.224A6.384,6.384,0,1,1,168.6,38.31,6.382,6.382,0,0,1,174.984,44.689Z" transform="translate(-126.539)" fill="#ff4a4a"/>
        <path id="Trazado_740888" data-name="Trazado 740888" d="M245.146,27.465a17.336,17.336,0,0,0-2.224.143,17.255,17.255,0,0,1,15.015,17.081c0,5.875-2.789,12.183-8.291,18.748a61.652,61.652,0,0,1-6.724,6.833c.862.746,1.41,1.173,1.469,1.219a1.233,1.233,0,0,0,1.508,0,58.93,58.93,0,0,0,8.194-8.053c5.5-6.565,8.291-12.872,8.291-18.748A17.252,17.252,0,0,0,245.146,27.465Z" transform="translate(-203.085)" fill="#e7343f"/>
      </g>
      <path id="Trazado_740889" data-name="Trazado 740889" d="M256.5,425.046l7.426-3.332L256,413.507v11.648h0A1.23,1.23,0,0,0,256.5,425.046Z" transform="translate(-214.019 -322.735)" fill="#ffdb56"/>
      <g id="Grupo_1022258" data-name="Grupo 1022258" transform="translate(21.506 63.043)">
        <path id="Trazado_740890" data-name="Trazado 740890" d="M385.1,246a1.231,1.231,0,0,0-.613-.856l-1.307-.727-15.059,3.358h0l21.918,25.438Z" transform="translate(-329.256 -244.42)" fill="#1ea4e9"/>
        <path id="Trazado_740891" data-name="Trazado 740891" d="M151.616,332.223h0v-1.231l-18.862-28.646-1.613,20.809,19.971,8.959A1.232,1.232,0,0,0,151.616,332.223Z" transform="translate(-131.14 -292.847)" fill="#1ea4e9"/>
      </g>
    </g>
  </g>
</svg>
