<svg xmlns="http://www.w3.org/2000/svg" width="89.569" height="89.569" viewBox="0 0 89.569 89.569">
  <g id="Grupo_1022367" data-name="Grupo 1022367" transform="translate(-755.715 -1952.715)">
    <path id="Trazado_734791" data-name="Trazado 734791" d="M44.785,0A44.785,44.785,0,1,1,0,44.785,44.785,44.785,0,0,1,44.785,0Z" transform="translate(755.715 1952.715)" fill="#362b9e"/>
    <g id="naturaleza" transform="translate(746.369 1944)">
      <g id="Grupo_1022261" data-name="Grupo 1022261" transform="translate(16 48.613)">
        <g id="Grupo_1022259" data-name="Grupo 1022259" transform="translate(0 15.052)">
          <path id="Trazado_740892" data-name="Trazado 740892" d="M16,320H91.262v7.526H16Z" transform="translate(-16 -320)" fill="#64afe1"/>
        </g>
        <g id="Grupo_1022260" data-name="Grupo 1022260" transform="translate(0)">
          <path id="Trazado_740893" data-name="Trazado 740893" d="M91.262,239.052h-7.95a52.812,52.812,0,0,1-27.172-7.526A52.812,52.812,0,0,0,28.968,224H16v15.052Z" transform="translate(-16 -224)" fill="#64afe1"/>
        </g>
      </g>
      <g id="Grupo_1022264" data-name="Grupo 1022264" transform="translate(16 53.631)">
        <g id="Grupo_1022262" data-name="Grupo 1022262" transform="translate(0 15.052)">
          <path id="Trazado_740894" data-name="Trazado 740894" d="M18.509,374.579H88.753a2.509,2.509,0,0,0,2.509-2.509V352H16v20.07A2.509,2.509,0,0,0,18.509,374.579Z" transform="translate(-16 -352)" fill="#4182c3"/>
        </g>
        <g id="Grupo_1022263" data-name="Grupo 1022263" transform="translate(0)">
          <path id="Trazado_740895" data-name="Trazado 740895" d="M16,271.052h7.95a52.812,52.812,0,0,0,27.172-7.526A52.812,52.812,0,0,1,78.294,256H91.262v15.052Z" transform="translate(-16 -256)" fill="#4182c3"/>
        </g>
      </g>
      <g id="Grupo_1022271" data-name="Grupo 1022271" transform="translate(18.509 18.509)">
        <g id="Grupo_1022268" data-name="Grupo 1022268" transform="translate(0 0)">
          <path id="Trazado_740896" data-name="Trazado 740896" d="M59.336,192.8,46.792,176.49a1.254,1.254,0,0,0-1.988,0L32.26,192.8a1.254,1.254,0,0,0,.994,2.019H58.341a1.254,1.254,0,0,0,.994-2.019Z" transform="translate(-32 -153.421)" fill="#5faa46"/>
          <g id="Grupo_1022265" data-name="Grupo 1022265" transform="translate(0 32.613)">
            <path id="Trazado_740897" data-name="Trazado 740897" d="M45.8,240H37.461l-5.2,6.761a1.254,1.254,0,0,0,.994,2.019H45.8Z" transform="translate(-32 -240)" fill="#91c83c"/>
          </g>
          <path id="Trazado_740898" data-name="Trazado 740898" d="M59.336,120.8,46.792,104.49a1.254,1.254,0,0,0-1.988,0L32.26,120.8a1.254,1.254,0,0,0,.994,2.019H58.341a1.254,1.254,0,0,0,.994-2.019Z" transform="translate(-32 -92.711)" fill="#5faa46"/>
          <path id="Trazado_740899" data-name="Trazado 740899" d="M59.336,48.8,46.792,32.49a1.254,1.254,0,0,0-1.988,0L32.26,48.8a1.254,1.254,0,0,0,.994,2.019H58.341a1.254,1.254,0,0,0,.994-2.019Z" transform="translate(-32 -32)" fill="#5faa46"/>
          <g id="Grupo_1022266" data-name="Grupo 1022266" transform="translate(0 21.324)">
            <path id="Trazado_740900" data-name="Trazado 740900" d="M45.8,168H37.461l-5.2,6.761a1.254,1.254,0,0,0,.994,2.019H45.8Z" transform="translate(-32 -168)" fill="#91c83c"/>
          </g>
          <g id="Grupo_1022267" data-name="Grupo 1022267" transform="translate(0.958)">
            <path id="Trazado_740901" data-name="Trazado 740901" d="M50.952,47.889V32a1.254,1.254,0,0,0-.994.49l-11.845,15.4Z" transform="translate(-38.112 -32)" fill="#91c83c"/>
          </g>
        </g>
        <g id="Grupo_1022269" data-name="Grupo 1022269" transform="translate(11.289 41.394)">
          <path id="Trazado_740902" data-name="Trazado 740902" d="M104,296h5.017v10.035H104Z" transform="translate(-104 -296)" fill="#a55023"/>
        </g>
        <g id="Grupo_1022270" data-name="Grupo 1022270" transform="translate(11.289 43.903)">
          <path id="Trazado_740903" data-name="Trazado 740903" d="M104,312h2.509v7.526H104Z" transform="translate(-104 -312)" fill="#d26e28"/>
        </g>
      </g>
      <g id="Grupo_1022274" data-name="Grupo 1022274" transform="translate(16 68.683)">
        <g id="Grupo_1022272" data-name="Grupo 1022272" transform="translate(0 15.052)">
          <path id="Trazado_740904" data-name="Trazado 740904" d="M88.753,455.526H18.509A2.509,2.509,0,0,1,16,453.017V448H91.262v5.017A2.509,2.509,0,0,1,88.753,455.526Z" transform="translate(-16 -448)" fill="#5faa46"/>
        </g>
        <g id="Grupo_1022273" data-name="Grupo 1022273" transform="translate(0)">
          <path id="Trazado_740905" data-name="Trazado 740905" d="M91.262,367.052h-7.95a52.812,52.812,0,0,1-27.172-7.526A52.812,52.812,0,0,0,28.968,352H16v15.052Z" transform="translate(-16 -352)" fill="#5faa46"/>
        </g>
      </g>
      <g id="Grupo_1022275" data-name="Grupo 1022275" transform="translate(18.509 76.209)">
        <path id="Trazado_740906" data-name="Trazado 740906" d="M32,415.052h5.442a52.812,52.812,0,0,0,27.172-7.526A52.812,52.812,0,0,1,91.785,400h12.968v12.544a2.509,2.509,0,0,1-2.509,2.509Z" transform="translate(-32 -400)" fill="#4b8c41"/>
      </g>
      <g id="Grupo_1022282" data-name="Grupo 1022282" transform="translate(61.157 39.833)">
        <g id="Grupo_1022279" data-name="Grupo 1022279">
          <path id="Trazado_740907" data-name="Trazado 740907" d="M331.336,328.8,318.792,312.49a1.254,1.254,0,0,0-1.988,0L304.26,328.8a1.254,1.254,0,0,0,.994,2.019h25.087a1.254,1.254,0,0,0,.994-2.019Z" transform="translate(-304 -289.422)" fill="#5faa46"/>
          <g id="Grupo_1022276" data-name="Grupo 1022276" transform="translate(0 32.613)">
            <path id="Trazado_740908" data-name="Trazado 740908" d="M317.8,376h-8.337l-5.2,6.761a1.254,1.254,0,0,0,.994,2.019H317.8Z" transform="translate(-304 -376)" fill="#91c83c"/>
          </g>
          <path id="Trazado_740909" data-name="Trazado 740909" d="M331.336,256.8,318.792,240.49a1.254,1.254,0,0,0-1.988,0L304.26,256.8a1.254,1.254,0,0,0,.994,2.019h25.087a1.254,1.254,0,0,0,.994-2.019Z" transform="translate(-304 -228.711)" fill="#5faa46"/>
          <path id="Trazado_740910" data-name="Trazado 740910" d="M331.336,184.8,318.792,168.49a1.254,1.254,0,0,0-1.988,0L304.26,184.8a1.254,1.254,0,0,0,.994,2.019h25.087a1.254,1.254,0,0,0,.994-2.019Z" transform="translate(-304 -168)" fill="#5faa46"/>
          <g id="Grupo_1022277" data-name="Grupo 1022277" transform="translate(0 21.324)">
            <path id="Trazado_740911" data-name="Trazado 740911" d="M317.8,304h-8.337l-5.2,6.761a1.254,1.254,0,0,0,.994,2.019H317.8Z" transform="translate(-304 -304)" fill="#91c83c"/>
          </g>
          <g id="Grupo_1022278" data-name="Grupo 1022278" transform="translate(0.958)">
            <path id="Trazado_740912" data-name="Trazado 740912" d="M322.952,183.889V168a1.254,1.254,0,0,0-.994.49l-11.845,15.4Z" transform="translate(-310.112 -168)" fill="#91c83c"/>
          </g>
        </g>
        <g id="Grupo_1022280" data-name="Grupo 1022280" transform="translate(11.289 41.394)">
          <path id="Trazado_740913" data-name="Trazado 740913" d="M376,432h5.017v10.035H376Z" transform="translate(-376 -432)" fill="#a55023"/>
        </g>
        <g id="Grupo_1022281" data-name="Grupo 1022281" transform="translate(11.289 43.903)">
          <path id="Trazado_740914" data-name="Trazado 740914" d="M376,448h2.509v7.526H376Z" transform="translate(-376 -448)" fill="#d26e28"/>
        </g>
      </g>
      <g id="Grupo_1022298" data-name="Grupo 1022298" transform="translate(51.122 16)">
        <g id="Grupo_1022284" data-name="Grupo 1022284" transform="translate(4.517 5.5)">
          <g id="Grupo_1022283" data-name="Grupo 1022283" transform="translate(0 0)">
            <circle id="Elipse_7751" data-name="Elipse 7751" cx="7.531" cy="7.531" r="7.531" fill="#faa019"/>
          </g>
        </g>
        <g id="Grupo_1022285" data-name="Grupo 1022285" transform="translate(6.272 6.272)">
          <path id="Trazado_740915" data-name="Trazado 740915" d="M286.272,56A6.272,6.272,0,0,0,280,62.272h3.763a2.509,2.509,0,0,0,2.509-2.509Z" transform="translate(-280 -56)" fill="#ffd205"/>
        </g>
        <g id="Grupo_1022288" data-name="Grupo 1022288" transform="translate(11.289 0)">
          <g id="Grupo_1022286" data-name="Grupo 1022286">
            <path id="Trazado_740916" data-name="Trazado 740916" d="M313.254,19.763A1.254,1.254,0,0,1,312,18.509V17.254a1.254,1.254,0,0,1,2.509,0v1.254A1.254,1.254,0,0,1,313.254,19.763Z" transform="translate(-312 -16)" fill="#faa019"/>
          </g>
          <g id="Grupo_1022287" data-name="Grupo 1022287" transform="translate(0 21.324)">
            <path id="Trazado_740917" data-name="Trazado 740917" d="M313.254,155.763A1.254,1.254,0,0,1,312,154.509v-1.254a1.254,1.254,0,1,1,2.509,0v1.254A1.254,1.254,0,0,1,313.254,155.763Z" transform="translate(-312 -152)" fill="#faa019"/>
          </g>
        </g>
        <g id="Grupo_1022291" data-name="Grupo 1022291" transform="translate(3.306 3.307)">
          <g id="Grupo_1022289" data-name="Grupo 1022289">
            <path id="Trazado_740918" data-name="Trazado 740918" d="M263.229,40.484a1.25,1.25,0,0,1-.887-.368l-.887-.887a1.254,1.254,0,1,1,1.774-1.774l.887.887a1.254,1.254,0,0,1-.887,2.141Z" transform="translate(-261.088 -37.089)" fill="#faa019"/>
          </g>
          <g id="Grupo_1022290" data-name="Grupo 1022290" transform="translate(15.079 15.079)">
            <path id="Trazado_740919" data-name="Trazado 740919" d="M359.4,136.652a1.25,1.25,0,0,1-.887-.368l-.887-.887a1.254,1.254,0,1,1,1.774-1.774l.887.887a1.254,1.254,0,0,1-.887,2.141Z" transform="translate(-357.255 -133.256)" fill="#faa019"/>
          </g>
        </g>
        <g id="Grupo_1022294" data-name="Grupo 1022294" transform="translate(0 11.289)">
          <g id="Grupo_1022292" data-name="Grupo 1022292">
            <path id="Trazado_740920" data-name="Trazado 740920" d="M242.509,90.509h-1.254a1.254,1.254,0,1,1,0-2.509h1.254a1.254,1.254,0,1,1,0,2.509Z" transform="translate(-240 -88)" fill="#faa019"/>
          </g>
          <g id="Grupo_1022293" data-name="Grupo 1022293" transform="translate(21.324)">
            <path id="Trazado_740921" data-name="Trazado 740921" d="M378.509,90.509h-1.254a1.254,1.254,0,0,1,0-2.509h1.254a1.254,1.254,0,1,1,0,2.509Z" transform="translate(-376 -88)" fill="#faa019"/>
          </g>
        </g>
        <g id="Grupo_1022297" data-name="Grupo 1022297" transform="translate(3.306 3.307)">
          <g id="Grupo_1022295" data-name="Grupo 1022295" transform="translate(0 15.079)">
            <path id="Trazado_740922" data-name="Trazado 740922" d="M262.342,136.651a1.254,1.254,0,0,1-.887-2.141l.887-.887a1.254,1.254,0,1,1,1.774,1.774l-.887.887A1.25,1.25,0,0,1,262.342,136.651Z" transform="translate(-261.088 -133.255)" fill="#faa019"/>
          </g>
          <g id="Grupo_1022296" data-name="Grupo 1022296" transform="translate(15.079)">
            <path id="Trazado_740923" data-name="Trazado 740923" d="M358.509,40.484a1.254,1.254,0,0,1-.887-2.141l.887-.887a1.254,1.254,0,1,1,1.774,1.774l-.887.887A1.25,1.25,0,0,1,358.509,40.484Z" transform="translate(-357.255 -37.089)" fill="#faa019"/>
          </g>
        </g>
      </g>
    </g>
  </g>
</svg>
