<svg id="Page-1" xmlns="http://www.w3.org/2000/svg" width="75.414" height="94.268" viewBox="0 0 75.414 94.268">
  <g id="_021---Freelancer" data-name="021---Freelancer">
    <path id="Path" d="M56.132,30.465a6.285,6.285,0,0,1-6.285,6.269V40.16a6.3,6.3,0,0,1-2.153,4.745l-5.028,4.4H22.46l-5.028-4.4a6.3,6.3,0,0,1-2.153-4.745V36.735a6.269,6.269,0,0,1,0-12.539v-.031s0-14.141,9.428-11,9.428,6.285,22,4.714a6.808,6.808,0,0,1,3.143,6.285V24.2A6.285,6.285,0,0,1,56.132,30.465Z" transform="translate(5.147 7.253)" fill="#edeaff" fill-rule="evenodd"/>
    <path id="Path-2" data-name="Path" d="M34.611,34.855V38.28a6.3,6.3,0,0,1-2.153,4.745l-5.028,4.4h4.714l5.028-4.4a6.3,6.3,0,0,0,2.153-4.745V34.855a6.269,6.269,0,1,0,0-12.539v-.031A6.808,6.808,0,0,0,36.182,16c-1.571.2-2.937.314-4.154.377a7.129,7.129,0,0,1,2.583,5.908Z" transform="translate(15.67 9.132)" fill="#d5cef8" fill-rule="evenodd"/>
    <path id="Path-3" data-name="Path" d="M51.944,19.9c0,9.412-3.143,10.983-3.143,10.983v-.031a6.808,6.808,0,0,0-3.143-6.285c-12.57,1.571-12.57-1.571-22-4.714s-9.428,11-9.428,11v.031S4.806,15.2,17.376,8.934c0,0,7.291-13.089,24.669-5.641a.786.786,0,0,1,.031,1.43,5.5,5.5,0,0,0-2.121,1.713.786.786,0,0,0,.377,1.226C43.287,8.62,51.944,12.108,51.944,19.9Z" transform="translate(6.193 0.564)" fill="#826be9" fill-rule="evenodd"/>
    <path id="Path-4" data-name="Path" d="M33.5,7.647a.786.786,0,0,1-.377-1.226,5.5,5.5,0,0,1,2.121-1.713.786.786,0,0,0-.031-1.43A23.77,23.77,0,0,0,22.792,1.142,27.664,27.664,0,0,1,30.5,3.278a.786.786,0,0,1,.031,1.43,5.5,5.5,0,0,0-2.121,1.713.786.786,0,0,0,.377,1.226c2.954.958,11.612,4.447,11.612,12.24a29.245,29.245,0,0,1-.471,5.534,7.358,7.358,0,0,1,2.043,5.418v.031s3.143-1.571,3.143-10.983c0-7.793-8.658-11.282-11.612-12.24Z" transform="translate(13.02 0.579)" fill="#6e55df" fill-rule="evenodd"/>
    <path id="Path-5" data-name="Path" d="M13.568,60.467v4.714a1.571,1.571,0,0,0,1.571,1.571H2.585a1.571,1.571,0,0,1-1.571-1.744,29.225,29.225,0,0,1,7.778-15.54,22.354,22.354,0,0,1,5.892-4.038L16.223,58.9H15.139a1.571,1.571,0,0,0-1.571,1.571Z" transform="translate(0.574 25.944)" fill="#ab9df1" fill-rule="evenodd"/>
    <path id="Path-6" data-name="Path" d="M12.285,58.9h1.084L11.829,45.43a27.456,27.456,0,0,0-4.4,2.726L8.655,58.9H7.571A1.571,1.571,0,0,0,6,60.467v4.714a1.571,1.571,0,0,0,1.571,1.571h4.714a1.571,1.571,0,0,1-1.571-1.571V60.467A1.571,1.571,0,0,1,12.285,58.9Z" transform="translate(3.428 25.944)" fill="#826be9" fill-rule="evenodd"/>
    <path id="Path-7" data-name="Path" d="M52.52,65.008a1.571,1.571,0,0,1-1.571,1.744H38.394a1.571,1.571,0,0,0,1.571-1.571V60.467A1.571,1.571,0,0,0,38.394,58.9H37.31L38.85,45.43a22.354,22.354,0,0,1,5.892,4.038A29.225,29.225,0,0,1,52.52,65.008Z" transform="translate(21.314 25.944)" fill="#ab9df1" fill-rule="evenodd"/>
    <path id="Path-8" data-name="Path" d="M44.3,49.468A22.354,22.354,0,0,0,38.4,45.43l-.314,2.726a13.973,13.973,0,0,1,1.493,1.312,29.225,29.225,0,0,1,7.778,15.54,1.571,1.571,0,0,1-1.571,1.744H50.5a1.571,1.571,0,0,0,1.571-1.744A29.225,29.225,0,0,0,44.3,49.468Z" transform="translate(21.759 25.944)" fill="#826be9" fill-rule="evenodd"/>
    <rect id="Rectangle" width="47.138" height="7.856" rx="1" transform="translate(14.141 84.84)" fill="#46928d"/>
    <path id="Path-9" data-name="Path" d="M55.02,50.817,53.48,64.283H11.653l-1.54-13.466L9.029,41.232A4.751,4.751,0,0,1,13.821,36h37.49a4.752,4.752,0,0,1,3.569,1.542Z" transform="translate(5.144 20.557)" fill="#71cc98" fill-rule="evenodd"/>
    <path id="Path-10" data-name="Path" d="M37.644,36H32.93a4.751,4.751,0,0,1,4.792,5.232l-1.084,9.585L35.1,64.283h4.714l1.54-13.466,1.084-9.585A4.751,4.751,0,0,0,37.644,36Z" transform="translate(18.812 20.557)" fill="#46928d" fill-rule="evenodd"/>
    <circle id="Oval" cx="4.714" cy="4.714" r="4.714" transform="translate(32.997 65.985)" fill="#f5f5f5"/>
    <g id="Grupo_1021453" data-name="Grupo 1021453">
      <path id="Shape" d="M.022,90.772a3.119,3.119,0,0,0,.764,2.44,3.165,3.165,0,0,0,2.357,1.061H72.267a3.165,3.165,0,0,0,2.357-1.061,3.11,3.11,0,0,0,.77-2.424c-.712-6.563-4.871-12.966-8.208-16.457A22.043,22.043,0,0,0,61.834,70.5l.971-8.529a6.227,6.227,0,0,0-1.548-4.841,6.452,6.452,0,0,0-4.8-2.142H51.995l1.886-1.645a7.869,7.869,0,0,0,2.685-5.928V45.406a7.836,7.836,0,0,0,1.3-14.982,21.322,21.322,0,0,0,1.846-9.956c0-7.968-7.753-11.888-11.514-13.318a4.1,4.1,0,0,1,.721-.429,2.349,2.349,0,0,0-.058-4.305C32.267-4.695,24.031,5.957,22.469,8.3A12.429,12.429,0,0,0,16,15.916c-1.571,5.393.607,11.313,2.027,14.338a7.837,7.837,0,0,0,.825,15.153v2.011a7.867,7.867,0,0,0,2.688,5.927l1.882,1.647H18.968a6.452,6.452,0,0,0-4.811,2.142,6.227,6.227,0,0,0-1.548,4.841L13.58,70.5a22.087,22.087,0,0,0-5.353,3.829C4.887,77.822.732,84.224.022,90.772Zm15.691.358V86.416h44V91.13ZM64.923,76.5A27.769,27.769,0,0,1,72.267,91.13H62.85V86.416a3.143,3.143,0,0,0-2.472-3.067l1.076-9.461A16.746,16.746,0,0,1,64.923,76.5Zm-45.9-59.717a9.407,9.407,0,0,1,5.243-5.878,1.6,1.6,0,0,0,.672-.641C25.2,9.8,31.326-.825,46.189,4.73a6.779,6.779,0,0,0-1.281,1.309,2.357,2.357,0,0,0-.393,2.11A2.39,2.39,0,0,0,46.04,9.72c2.47.8,10.526,3.947,10.526,10.749a23.467,23.467,0,0,1-.831,6.852,7.649,7.649,0,0,0-3.18-3.6,1.545,1.545,0,0,0-.9-.157c-8.406,1.05-10.771-.066-14.685-1.915A54.881,54.881,0,0,0,30.35,18.92a7.426,7.426,0,0,0-7.022.718,10.851,10.851,0,0,0-3.7,6.092,15.625,15.625,0,0,1-.6-8.944Zm4.587,34.192A4.725,4.725,0,0,1,22,47.418V43.992a1.571,1.571,0,0,0-1.571-1.571,4.685,4.685,0,0,1-1.571-9.113v2.828a1.571,1.571,0,0,0,3.143,0V31.422c0-1.934.581-7.364,3.171-9.226a4.439,4.439,0,0,1,4.189-.283,52.284,52.284,0,0,1,6.271,2.6c4.038,1.909,6.976,3.3,15.843,2.263a5.644,5.644,0,0,1,1.952,4.651v4.714a1.571,1.571,0,0,0,3.143,0V33.308a4.685,4.685,0,0,1-1.571,9.113,1.571,1.571,0,0,0-1.571,1.571v3.425a4.726,4.726,0,0,1-1.617,3.562l-4.583,4.011H28.2ZM16.5,59.234a3.3,3.3,0,0,1,2.467-1.1H56.452a3.3,3.3,0,0,1,2.467,1.1,3.036,3.036,0,0,1,.768,2.393L57.224,83.274H18.2L15.733,61.619a3.036,3.036,0,0,1,.765-2.385ZM13.962,73.9l1.076,9.461a3.143,3.143,0,0,0-2.468,3.059V91.13H3.143a27.849,27.849,0,0,1,7.352-14.622,16.812,16.812,0,0,1,3.471-2.619Z" transform="translate(0 -0.005)"/>
      <path id="Shape-2" data-name="Shape" d="M26.285,53.57A6.285,6.285,0,1,0,20,47.285,6.285,6.285,0,0,0,26.285,53.57Zm0-9.428a3.143,3.143,0,1,1-3.143,3.143A3.143,3.143,0,0,1,26.285,44.143Z" transform="translate(11.425 23.414)"/>
    </g>
  </g>
</svg>
