<svg xmlns="http://www.w3.org/2000/svg" xmlns:xlink="http://www.w3.org/1999/xlink" width="85" height="69.759" viewBox="0 0 85 69.759">
  <defs>
    <filter id="Elipse_7683" x="9.491" y="3.74" width="66.019" height="66.019" filterUnits="userSpaceOnUse">
      <feOffset dy="3" input="SourceAlpha"/>
      <feGaussianBlur stdDeviation="3" result="blur"/>
      <feFlood flood-opacity="0.161"/>
      <feComposite operator="in" in2="blur"/>
      <feComposite in="SourceGraphic"/>
    </filter>
  </defs>
  <g id="Grupo_1021474" data-name="Grupo 1021474" transform="translate(-1335 -475)">
    <rect id="Rectángulo_345292" data-name="Rectángulo 345292" width="85" height="68" rx="5" transform="translate(1335 475)" fill="#221b6b"/>
    <g id="Grupo_1019762" data-name="Grupo 1019762" transform="translate(1.31 42.957)">
      <g id="Grupo_1021475" data-name="Grupo 1021475" transform="translate(1352.181 440.772)">
        <g id="Grupo_1019745" data-name="Grupo 1019745" transform="translate(0 1.011)">
          <g id="Grupo_1003705" data-name="Grupo 1003705" transform="translate(0 0)">
            <g transform="matrix(1, 0, 0, 1, -18.49, -9.74)" filter="url(#Elipse_7683)">
              <circle id="Elipse_7683-2" data-name="Elipse 7683" cx="24.01" cy="24.01" r="24.01" transform="translate(18.49 9.74)" fill="#362b9e"/>
            </g>
          </g>
        </g>
        <g id="Page-1" transform="translate(4.048 0)">
          <g id="_021---Freelancer" data-name="021---Freelancer" transform="translate(0 0)">
            <path id="Path" d="M34.275,22.23a3.37,3.37,0,0,1-3.37,3.361v1.837a3.377,3.377,0,0,1-1.154,2.544l-2.7,2.359H16.221l-2.7-2.359a3.376,3.376,0,0,1-1.154-2.544V25.591a3.361,3.361,0,1,1,0-6.723v-.017s0-7.582,5.055-5.9,5.055,3.37,11.794,2.527a3.65,3.65,0,0,1,1.685,3.37v.017A3.37,3.37,0,0,1,34.275,22.23Z" transform="translate(-1.42 -2.007)" fill="#edeaff" fill-rule="evenodd"/>
            <path id="Path-2" data-name="Path" d="M31.28,26.109v1.837a3.377,3.377,0,0,1-1.154,2.544l-2.7,2.359h2.527l2.7-2.359a3.376,3.376,0,0,0,1.154-2.544V26.109a3.361,3.361,0,0,0,0-6.723V19.37A3.65,3.65,0,0,0,32.122,16c-.842.105-1.575.168-2.227.2A3.822,3.822,0,0,1,31.28,19.37Z" transform="translate(-4.322 -2.525)" fill="#d5cef8" fill-rule="evenodd"/>
            <path id="Path-3" data-name="Path" d="M32.878,11.135c0,5.046-1.685,5.889-1.685,5.889v-.017a3.65,3.65,0,0,0-1.685-3.37c-6.74.842-6.74-.842-11.794-2.527s-5.055,5.9-5.055,5.9v.017S7.605,8.616,14.345,5.255c0,0,3.909-7.018,13.226-3.024A.421.421,0,0,1,27.588,3a2.949,2.949,0,0,0-1.137.918.421.421,0,0,0,.2.657C28.236,5.086,32.878,6.956,32.878,11.135Z" transform="translate(-1.708 -0.162)" fill="#826be9" fill-rule="evenodd"/>
            <path id="Path-4" data-name="Path" d="M28.536,4.576a.421.421,0,0,1-.2-.657A2.949,2.949,0,0,1,29.471,3a.421.421,0,0,0-.017-.767,12.744,12.744,0,0,0-6.662-1.146,14.832,14.832,0,0,1,4.135,1.146A.421.421,0,0,1,26.944,3a2.949,2.949,0,0,0-1.137.918.421.421,0,0,0,.2.657c1.584.514,6.226,2.384,6.226,6.563a15.68,15.68,0,0,1-.253,2.967,3.945,3.945,0,0,1,1.1,2.9v.017s1.685-.842,1.685-5.889c0-4.179-4.642-6.049-6.226-6.563Z" transform="translate(-3.591 -0.166)" fill="#6e55df" fill-rule="evenodd"/>
            <path id="Path-5" data-name="Path" d="M7.74,53.492V56.02a.842.842,0,0,0,.842.842H1.851a.842.842,0,0,1-.842-.935A15.669,15.669,0,0,1,5.179,47.6,11.985,11.985,0,0,1,8.338,45.43l.826,7.22H8.583a.842.842,0,0,0-.842.842Z" transform="translate(-0.158 -7.162)" fill="#ab9df1" fill-rule="evenodd"/>
            <path id="Path-6" data-name="Path" d="M9.37,52.65h.581l-.826-7.22a14.72,14.72,0,0,0-2.359,1.462l.657,5.758H6.842A.842.842,0,0,0,6,53.492V56.02a.842.842,0,0,0,.842.842H9.37a.842.842,0,0,1-.842-.842V53.492a.842.842,0,0,1,.842-.842Z" transform="translate(-0.945 -7.162)" fill="#826be9" fill-rule="evenodd"/>
            <path id="Path-7" data-name="Path" d="M45.465,55.927a.842.842,0,0,1-.842.935H37.891a.842.842,0,0,0,.842-.842V53.492a.842.842,0,0,0-.842-.842H37.31l.826-7.22A11.986,11.986,0,0,1,41.295,47.6,15.669,15.669,0,0,1,45.465,55.927Z" transform="translate(-5.878 -7.162)" fill="#ab9df1" fill-rule="evenodd"/>
            <path id="Path-8" data-name="Path" d="M41.418,47.6a11.985,11.985,0,0,0-3.159-2.165l-.168,1.462a7.492,7.492,0,0,1,.8.7,15.67,15.67,0,0,1,4.17,8.332.842.842,0,0,1-.842.935h2.527a.842.842,0,0,0,.842-.935A15.67,15.67,0,0,0,41.418,47.6Z" transform="translate(-6.001 -7.162)" fill="#826be9" fill-rule="evenodd"/>
            <rect id="Rectangle" width="25.273" height="4.212" rx="1" transform="translate(7.582 45.488)" fill="#46928d"/>
            <path id="Path-9" data-name="Path" d="M33.676,43.944l-.826,7.22H10.424L9.6,43.944l-.581-5.139A2.548,2.548,0,0,1,11.587,36h20.1a2.548,2.548,0,0,1,1.914.827Z" transform="translate(-1.419 -5.676)" fill="#71cc98" fill-rule="evenodd"/>
            <path id="Path-10" data-name="Path" d="M35.457,36H32.93A2.548,2.548,0,0,1,35.5,38.805l-.581,5.139-.826,7.22H36.62l.826-7.22.581-5.139A2.548,2.548,0,0,0,35.457,36Z" transform="translate(-5.188 -5.676)" fill="#46928d" fill-rule="evenodd"/>
            <circle id="Oval" cx="2.527" cy="2.527" r="2.527" transform="translate(17.691 35.378)" fill="#f5f5f5"/>
            <g id="Grupo_1021453" data-name="Grupo 1021453">
              <path id="Shape" d="M.012,48.67a1.672,1.672,0,0,0,.409,1.308,1.7,1.7,0,0,0,1.264.569H38.746a1.7,1.7,0,0,0,1.264-.569,1.667,1.667,0,0,0,.413-1.3,16.556,16.556,0,0,0-4.4-8.824A11.818,11.818,0,0,0,33.153,37.8l.521-4.573a3.339,3.339,0,0,0-.83-2.6,3.459,3.459,0,0,0-2.576-1.148h-2.39l1.011-.882a4.219,4.219,0,0,0,1.44-3.179V24.347a4.2,4.2,0,0,0,.7-8.033,11.432,11.432,0,0,0,.99-5.338c0-4.272-4.157-6.374-6.173-7.141a2.2,2.2,0,0,1,.387-.23A1.259,1.259,0,0,0,26.195,1.3C17.3-2.515,12.884,3.2,12.047,4.452A6.664,6.664,0,0,0,8.58,8.536c-.842,2.891.325,6.066,1.087,7.687a4.2,4.2,0,0,0,.442,8.125v1.078A4.218,4.218,0,0,0,11.551,28.6l1.009.883H10.17a3.459,3.459,0,0,0-2.58,1.148,3.339,3.339,0,0,0-.83,2.6L7.281,37.8a11.842,11.842,0,0,0-2.87,2.053,16.535,16.535,0,0,0-4.4,8.814Zm8.413.192V46.335H32.013v2.527ZM34.809,41.02a14.889,14.889,0,0,1,3.938,7.842H33.7V46.335a1.685,1.685,0,0,0-1.325-1.644l.577-5.072A8.979,8.979,0,0,1,34.809,41.02ZM10.2,9a5.044,5.044,0,0,1,2.811-3.152.855.855,0,0,0,.361-.344c.14-.253,3.423-5.947,11.392-2.969a3.634,3.634,0,0,0-.687.7,1.264,1.264,0,0,0-.211,1.131,1.281,1.281,0,0,0,.817.842c1.324.431,5.644,2.116,5.644,5.763a12.582,12.582,0,0,1-.446,3.674,4.1,4.1,0,0,0-1.705-1.929.828.828,0,0,0-.481-.084c-4.507.563-5.775-.035-7.873-1.027a29.425,29.425,0,0,0-3.55-1.464,3.981,3.981,0,0,0-3.765.385A5.818,5.818,0,0,0,10.525,13.8,8.377,8.377,0,0,1,10.2,9ZM12.66,27.335a2.533,2.533,0,0,1-.866-1.909V23.589a.842.842,0,0,0-.842-.842,2.512,2.512,0,0,1-.842-4.886v1.516a.842.842,0,1,0,1.685,0V16.85c0-1.037.312-3.949,1.7-4.947a2.38,2.38,0,0,1,2.246-.152A28.033,28.033,0,0,1,19.1,13.143c2.165,1.024,3.74,1.769,8.494,1.213a3.026,3.026,0,0,1,1.046,2.494v2.527a.842.842,0,0,0,1.685,0V17.861a2.512,2.512,0,0,1-.842,4.886.842.842,0,0,0-.842.842v1.837a2.534,2.534,0,0,1-.867,1.91l-2.457,2.151h-10.2ZM8.846,31.761a1.769,1.769,0,0,1,1.323-.59h20.1a1.769,1.769,0,0,1,1.323.59A1.628,1.628,0,0,1,32,33.044L30.681,44.65H9.756L8.435,33.04a1.628,1.628,0,0,1,.41-1.279Zm-1.36,7.862.577,5.072a1.685,1.685,0,0,0-1.323,1.64v2.527H1.685a14.931,14.931,0,0,1,3.942-7.84,9.014,9.014,0,0,1,1.861-1.4Z" transform="translate(0 -0.005)"/>
              <path id="Shape-2" data-name="Shape" d="M23.37,47.74A3.37,3.37,0,1,0,20,44.37,3.37,3.37,0,0,0,23.37,47.74Zm0-5.055a1.685,1.685,0,1,1-1.685,1.685A1.685,1.685,0,0,1,23.37,42.685Z" transform="translate(-3.151 -6.464)"/>
            </g>
          </g>
        </g>
      </g>
    </g>
  </g>
</svg>
