<svg xmlns="http://www.w3.org/2000/svg" width="66.216" height="66.216" viewBox="0 0 66.216 66.216">
  <g id="Grupo_1021176" data-name="Grupo 1021176" transform="translate(-1197.753 -2253)">
    <path id="Trazado_734791" data-name="Trazado 734791" d="M33.108,0A33.108,33.108,0,1,1,0,33.108,33.108,33.108,0,0,1,33.108,0Z" transform="translate(1197.753 2253)" fill="#362b9e"/>
    <g id="la-edad" transform="translate(1205.715 2240.586)">
      <g id="Grupo_1021165" data-name="Grupo 1021165" transform="translate(9.764 36.21)">
        <g id="Grupo_1021164" data-name="Grupo 1021164">
          <path id="Trazado_738133" data-name="Trazado 738133" d="M103.831,172.966a1.755,1.755,0,0,1-1.755-1.755V155.927h-1.887a1.755,1.755,0,0,1,0-3.51h3.642a1.755,1.755,0,0,1,1.755,1.755v17.039A1.755,1.755,0,0,1,103.831,172.966Z" transform="translate(-98.434 -152.417)" fill="#fd6930"/>
        </g>
      </g>
      <path id="Trazado_738134" data-name="Trazado 738134" d="M212.623,161.081a5.347,5.347,0,1,0-8.376,0,6.682,6.682,0,1,0,8.376,0Zm-6.026-3.318a1.837,1.837,0,1,1,1.837,1.837A1.84,1.84,0,0,1,206.6,157.763Zm1.837,11.692a3.173,3.173,0,1,1,3.173-3.173,3.176,3.176,0,0,1-3.173,3.173Z" transform="translate(-181.741 -116.206)" fill="#fd6930"/>
      <path id="Trazado_738135" data-name="Trazado 738135" d="M222.083,192.241a5.33,5.33,0,0,0,.8-5.234,30.821,30.821,0,0,1-4.1,7.391,3.172,3.172,0,1,1-3.808,4.289,33.844,33.844,0,0,1-2.722,2.332,6.679,6.679,0,1,0,9.829-8.778Z" transform="translate(-191.201 -147.366)" fill="#fd6930"/>
      <path id="Trazado_738136" data-name="Trazado 738136" d="M135.433,264.894c-.093.093-.188.184-.282.276v4a1.755,1.755,0,0,0,3.51,0V261.16A33.871,33.871,0,0,1,135.433,264.894Z" transform="translate(-121.745 -214.164)" fill="#fd6930"/>
      <path id="Trazado_738137" data-name="Trazado 738137" d="M39.249,57.466a19.561,19.561,0,1,1,0-21.964,1.033,1.033,0,0,0,.853.453h2.464a.62.62,0,0,0,.539-.926,23.176,23.176,0,0,0-3.722-4.858,23.07,23.07,0,1,0,0,32.626,23.181,23.181,0,0,0,3.722-4.858.62.62,0,0,0-.539-.926H40.1a1.034,1.034,0,0,0-.854.453Z" fill="#d5dadd"/>
      <g id="Grupo_1021167" data-name="Grupo 1021167" transform="translate(4.902 27.756)">
        <g id="Grupo_1021166" data-name="Grupo 1021166" transform="translate(0 0)">
          <path id="Trazado_738138" data-name="Trazado 738138" d="M368.982,72.265a19.707,19.707,0,0,1,2.188,2.674,1.033,1.033,0,0,0,.853.453h2.463a.62.62,0,0,0,.539-.926,23.332,23.332,0,0,0-6.557-7.273A19.007,19.007,0,0,1,368.982,72.265Z" transform="translate(-336.823 -67.192)" fill="#c1c9cd"/>
          <path id="Trazado_738139" data-name="Trazado 738139" d="M87.087,362.146H84.624a1.033,1.033,0,0,0-.854.453,19.458,19.458,0,0,1-29.276,3.469,19.918,19.918,0,0,1-5.071-.228,23.456,23.456,0,0,0,1.855,2.09,23.07,23.07,0,0,0,32.626,0,23.174,23.174,0,0,0,3.722-4.858A.62.62,0,0,0,87.087,362.146Z" transform="translate(-49.423 -332.89)" fill="#c1c9cd"/>
        </g>
        <path id="Trazado_738140" data-name="Trazado 738140" d="M379.729,188.625h-3.819a.619.619,0,0,1-.619-.619v-3.819a1.032,1.032,0,0,0-1.032-1.032h-1.445a1.032,1.032,0,0,0-1.032,1.032v3.819a.619.619,0,0,1-.619.619h-3.819a1.032,1.032,0,0,0-1.032,1.032V191.1a1.032,1.032,0,0,0,1.032,1.032h3.819a.619.619,0,0,1,.619.619v3.819a1.032,1.032,0,0,0,1.032,1.032h1.445a1.032,1.032,0,0,0,1.032-1.032v-3.819a.619.619,0,0,1,.619-.619h3.819a1.032,1.032,0,0,0,1.032-1.032v-1.445A1.032,1.032,0,0,0,379.729,188.625Z" transform="translate(-334.878 -171.652)" fill="#c1c9cd"/>
      </g>
    </g>
  </g>
</svg>
