<svg xmlns="http://www.w3.org/2000/svg" width="89.569" height="89.569" viewBox="0 0 89.569 89.569">
  <g id="Grupo_1022366" data-name="Grupo 1022366" transform="translate(-1102.715 -1952.715)">
    <path id="Trazado_734791" data-name="Trazado 734791" d="M44.785,0A44.785,44.785,0,1,1,0,44.785,44.785,44.785,0,0,1,44.785,0Z" transform="translate(1102.715 1952.715)" fill="#362b9e"/>
    <g id="Grupo_1022299" data-name="Grupo 1022299">
      <g id="mapas-de-google" transform="translate(1101.135 1960)">
        <path id="Trazado_740924" data-name="Trazado 740924" d="M279.479,140.411v38.8a7.511,7.511,0,0,1-1.3,4.284,7.181,7.181,0,0,1-.962,1.211L246.42,153.914l-1.086-1.086,21.2-21.2,1.335.838,10.864,6.612A1.574,1.574,0,0,1,279.479,140.411Z" transform="translate(-200.522 -112.474)" fill="#cfd8dc"/>
        <path id="Trazado_740925" data-name="Trazado 740925" d="M66.013,73.84,43.726,96.127,12.933,126.92a7.173,7.173,0,0,1-.962-1.211,7.511,7.511,0,0,1-1.3-4.284V71.76A7.76,7.76,0,0,1,18.427,64H49.468a1.842,1.842,0,0,1,.807.217L64.678,73Z" transform="translate(0 -54.688)" fill="#4caf50"/>
        <path id="Trazado_740926" data-name="Trazado 740926" d="M90,309.212a7.137,7.137,0,0,1-1.211.962,7.509,7.509,0,0,1-4.284,1.3H31.735a7.509,7.509,0,0,1-4.284-1.3,7.146,7.146,0,0,1-1.211-.962l30.793-30.793,1.086-1.086,1.086,1.086Z" transform="translate(-13.308 -236.98)" fill="#2196f3"/>
        <path id="Trazado_740927" data-name="Trazado 740927" d="M269.217,299.043a6.811,6.811,0,0,1-2.173,2.173l-31.755-31.755a1.536,1.536,0,0,1,2.173-2.173Z" transform="translate(-191.564 -228.021)" fill="#fafafa"/>
        <path id="Trazado_740928" data-name="Trazado 740928" d="M75.005,127.543,53.556,148.992,21.8,180.747a6.811,6.811,0,0,1-2.173-2.173l52.708-52.708Z" transform="translate(-7.657 -107.553)" fill="#ffc107"/>
        <path id="Trazado_740932" data-name="Trazado 740932" d="M283.741,0a17.094,17.094,0,0,0-17.073,17.073,15.093,15.093,0,0,0,.276,2.794,16.65,16.65,0,0,0,2.629,6.723c.72,1.242,1.552,2.533,2.431,3.911A63.46,63.46,0,0,1,282.22,54.632a1.552,1.552,0,0,0,3.042,0A63.46,63.46,0,0,1,295.474,30.5c.885-1.375,1.71-2.657,2.368-3.809a16.828,16.828,0,0,0,2.688-6.795,15.294,15.294,0,0,0,.282-2.822A17.094,17.094,0,0,0,283.741,0Z" transform="translate(-218.752)" fill="#f44336"/>
        <circle id="Elipse_7752" data-name="Elipse 7752" cx="7.76" cy="7.76" r="7.76" transform="translate(57.228 9.312)" fill="#c62828"/>
      </g>
      <g id="gmail_2_" data-name="gmail (2)" transform="translate(1117.707 1914)">
        <rect id="Rectángulo_372964" data-name="Rectángulo 372964" width="17" height="18" transform="translate(3.293 64)" fill="#eceff1"/>
        <path id="Trazado_740933" data-name="Trazado 740933" d="M256,155.488l8.86,7V148.672Z" transform="translate(-244.187 -80.765)" fill="#cfd8dc"/>
        <path id="Trazado_740934" data-name="Trazado 740934" d="M21.411,64h-.738l-8.86,7-8.86-7H2.215A2.216,2.216,0,0,0,0,66.215V79.5A2.216,2.216,0,0,0,2.215,81.72h.738V67.907l8.86,6.815,8.86-6.816V81.72h.738A2.216,2.216,0,0,0,23.626,79.5V66.215A2.216,2.216,0,0,0,21.411,64Z" fill="#f44336"/>
      </g>
    </g>
  </g>
</svg>
